<svg xmlns="http://www.w3.org/2000/svg" xmlns:xlink="http://www.w3.org/1999/xlink" viewBox="0 0 682 764.69"><defs><style>.cls-1,.cls-16{fill:#fff;}.cls-12,.cls-17,.cls-19,.cls-2,.cls-20,.cls-24,.cls-3,.cls-4,.cls-9{fill:none;}.cls-2{stroke:#fff;}.cls-12,.cls-2{stroke-width:0.88px;}.cls-22,.cls-4{clip-path:url(#clip-path);}.cls-5{isolation:isolate;}.cls-6,.cls-8{fill:#3e6c98;}.cls-7{fill:#7fc1ff;}.cls-16,.cls-8{fill-rule:evenodd;}.cls-9{stroke:#91adc8;stroke-width:1.52px;}.cls-10{opacity:0.77;}.cls-11{fill:url(#linear-gradient);}.cls-12{stroke:#040404;stroke-opacity:0.62;}.cls-13{mask:url(#mask);}.cls-14{opacity:0.15;}.cls-15,.cls-23{mix-blend-mode:multiply;}.cls-15{opacity:0.4;}.cls-17{stroke:#bedcff;stroke-width:8.69px;}.cls-17,.cls-20,.cls-24{stroke-linecap:round;}.cls-18{fill:#88bfff;}.cls-19{stroke:#88c0ff;stroke-width:7.63px;}.cls-20{stroke:#458747;stroke-width:9.93px;}.cls-21{fill:#88c0ff;}.cls-23{opacity:0.6;}.cls-24{stroke:#448fd3;stroke-width:8.01px;}</style><clipPath id="clip-path"><rect class="cls-3" x="190.42" y="405.43" width="300.88" height="146.1" rx="12.8"/></clipPath><linearGradient id="linear-gradient" x1="312.92" y1="15379.14" x2="397.44" y2="14465.41" gradientTransform="matrix(1, 0, 0, -1, 0, 15447.02)" gradientUnits="userSpaceOnUse"><stop offset="0" stop-color="#d3f7ff"/><stop offset="1" stop-color="#dff4ff"/></linearGradient><mask id="mask" x="159.35" y="65.31" width="365.21" height="608.85" maskUnits="userSpaceOnUse"><g id="mask107"><rect class="cls-1" x="159.35" y="65.31" width="362.85" height="607.5" rx="18.99"/><rect class="cls-2" x="159.79" y="65.75" width="361.97" height="606.62" rx="18.55"/></g></mask></defs><g class="cls-5"><g id="Layer_2" data-name="Layer 2"><g id="_8" data-name="8"><path class="cls-6" d="M545.73,174.65h0a6.08,6.08,0,0,1,6.08,6.07v85.82a6.08,6.08,0,0,1-6.08,6.07h0a6.07,6.07,0,0,1-6.07-6.07V180.72A6.07,6.07,0,0,1,545.73,174.65Z"/><rect class="cls-6" x="134.3" y="150.35" width="12.15" height="56.95" rx="6.07"/><rect class="cls-6" x="134.3" y="78.21" width="12.15" height="56.95" rx="6.07"/><rect class="cls-7" x="138.86" width="403.08" height="764.69" rx="52.4"/><path class="cls-8" d="M340.4,31.89a7.21,7.21,0,1,0-7.21-7.21A7.21,7.21,0,0,0,340.4,31.89Z"/><path class="cls-6" d="M319.53,39.48h41.75a5.32,5.32,0,0,1,5.31,5.32h0a5.31,5.31,0,0,1-5.31,5.31H319.53a5.32,5.32,0,0,1-5.32-5.31h0A5.32,5.32,0,0,1,319.53,39.48Z"/><path class="cls-8" d="M337.36,745.71a27,27,0,1,0-26.94-27A27,27,0,0,0,337.36,745.71Z"/><path class="cls-9" d="M337.74,732.8a13.67,13.67,0,1,0-13.66-13.67A13.66,13.66,0,0,0,337.74,732.8Z"/><g class="cls-10"><rect class="cls-11" x="159.35" y="65.31" width="362.85" height="607.5" rx="18.99"/><rect class="cls-12" x="159.79" y="65.75" width="361.97" height="606.62" rx="18.55"/></g><g class="cls-13"><g class="cls-14"><rect class="cls-1" x="159.79" y="437.72" width="364.77" height="236.44" rx="15.95"/></g></g><image class="cls-15" width="539" height="203" transform="translate(143 64.61)" /><path class="cls-16" d="M190.26,114.83a18.62,18.62,0,0,1,18.62-18.62H631a18.62,18.62,0,0,1,18.62,18.62v86.91A18.62,18.62,0,0,1,631,220.36H208.88a18.62,18.62,0,0,1-18.62-18.62Z"/><path class="cls-17" d="M327.31,145h144"/><path class="cls-17" d="M327.31,171.54H443.22"/><path class="cls-18" d="M258.78,119.8a38.48,38.48,0,1,0,38.48,38.48A38.47,38.47,0,0,0,258.78,119.8Zm-1,62.3a5.28,5.28,0,1,1,5.28-5.28A5.3,5.3,0,0,1,257.82,182.1Zm5-20.15c-1.55,2.26-1,5.41-5.28,5.41a4.09,4.09,0,0,1-4.12-4.31c0-7.66,11.27-9.4,11.27-15.71,0-3.48-2.32-5.54-6.18-5.54-8.24,0-5,8.5-11.27,8.5-2.25,0-4.18-1.35-4.18-3.93,0-6.31,7.21-11.91,15.06-11.91,8.24,0,16.35,3.8,16.35,12.88C274.49,155.71,264.9,158.93,262.84,162Z"/><image class="cls-15" width="539" height="204" transform="translate(0 218.61)" /><path class="cls-16" d="M31.94,269.44a18.63,18.63,0,0,1,18.63-18.62H472.68a18.62,18.62,0,0,1,18.62,18.62v86.91A18.62,18.62,0,0,1,472.68,375H50.57a18.63,18.63,0,0,1-18.63-18.62Z"/><path class="cls-17" d="M169,286.38H445"/><path class="cls-17" d="M169,312.9H387.48"/><path class="cls-17" d="M169,339.41H359.4"/><path class="cls-19" d="M92.15,283.72h0a34.15,34.15,0,0,1,34.14,34.14h0A34.14,34.14,0,0,1,92.15,352h0A34.13,34.13,0,0,1,58,317.86h0A34.14,34.14,0,0,1,92.15,283.72Z"/><path class="cls-20" d="M76,313.84l24.43,22.32,43.85-66.72"/><image class="cls-15" width="380" height="138" transform="translate(151 551.61)" /><path class="cls-16" d="M190.26,629.74v-34.6A12.16,12.16,0,0,1,202.42,583H479.14a12.16,12.16,0,0,1,12.16,12.17v34.6a12.16,12.16,0,0,1-12.16,12.17H202.42A12.16,12.16,0,0,1,190.26,629.74Z"/><path class="cls-21" d="M288.59,624.13a7,7,0,0,1-3-2.29,6.17,6.17,0,0,1-1.19-3.64H290a2.71,2.71,0,0,0,.83,1.83,2.64,2.64,0,0,0,1.85.64,2.89,2.89,0,0,0,1.85-.54,1.79,1.79,0,0,0,.68-1.5,1.77,1.77,0,0,0-.54-1.33,4.25,4.25,0,0,0-1.32-.86,19.18,19.18,0,0,0-2.24-.77,26,26,0,0,1-3.43-1.3,6.23,6.23,0,0,1-2.28-1.92,5.3,5.3,0,0,1-1-3.3,5.68,5.68,0,0,1,2.19-4.74,9,9,0,0,1,5.71-1.71,9.16,9.16,0,0,1,5.78,1.71,6.12,6.12,0,0,1,2.34,4.77h-5.71a2.23,2.23,0,0,0-.77-1.65,2.72,2.72,0,0,0-1.82-.6,2.28,2.28,0,0,0-1.55.51,2,2,0,0,0,.4,3.1,16.78,16.78,0,0,0,3.09,1.27,28.12,28.12,0,0,1,3.41,1.35,6.52,6.52,0,0,1,2.27,1.89,5,5,0,0,1,1,3.18,6.19,6.19,0,0,1-.94,3.36,6.57,6.57,0,0,1-2.73,2.41,9.35,9.35,0,0,1-4.23.9A11.19,11.19,0,0,1,288.59,624.13Z"/><path class="cls-21" d="M321,607.45v17.23h-5.28v-2.35a5.68,5.68,0,0,1-2.17,1.84,6.7,6.7,0,0,1-3,.7A6.88,6.88,0,0,1,307,624a6,6,0,0,1-2.35-2.55,8.74,8.74,0,0,1-.83-3.92V607.45h5.25v9.36a3.74,3.74,0,0,0,.89,2.68,3.14,3.14,0,0,0,2.41,1,3.18,3.18,0,0,0,2.44-1,3.74,3.74,0,0,0,.89-2.68v-9.36Z"/><path class="cls-21" d="M332.21,608a6.6,6.6,0,0,1,3.18-.74,7.13,7.13,0,0,1,3.86,1.08,7.53,7.53,0,0,1,2.73,3.08,11.3,11.3,0,0,1,0,9.34,7.58,7.58,0,0,1-2.73,3.12,7.06,7.06,0,0,1-3.86,1.1,6.61,6.61,0,0,1-3.18-.73,5.6,5.6,0,0,1-2.13-1.93v2.41H324.8V601.83h5.28v8.06A5.5,5.5,0,0,1,332.21,608Zm4.31,5a3.61,3.61,0,0,0-2.7-1.12,3.56,3.56,0,0,0-2.67,1.14,5,5,0,0,0,0,6.24,3.69,3.69,0,0,0,5.35,0,4.34,4.34,0,0,0,1.11-3.13A4.27,4.27,0,0,0,336.52,612.93Z"/><path class="cls-21" d="M372.86,609.21a7.45,7.45,0,0,1,1.9,5.41v10.06h-5.25v-9.35a3.58,3.58,0,0,0-.88-2.58,3.69,3.69,0,0,0-4.85,0,3.54,3.54,0,0,0-.88,2.58v9.35h-5.25v-9.35a3.54,3.54,0,0,0-.88-2.58,3.18,3.18,0,0,0-2.42-.91,3.22,3.22,0,0,0-2.43.91,3.58,3.58,0,0,0-.87,2.58v9.35h-5.28V607.45h5.28v2.16a5.59,5.59,0,0,1,2.09-1.71,6.68,6.68,0,0,1,2.94-.63,7.21,7.21,0,0,1,3.47.83,6,6,0,0,1,2.39,2.38,7,7,0,0,1,2.44-2.32,6.66,6.66,0,0,1,3.37-.89A6.84,6.84,0,0,1,372.86,609.21Z"/><path class="cls-21" d="M378.85,604.84a2.63,2.63,0,0,1-.88-2,2.66,2.66,0,0,1,.88-2.05,3.51,3.51,0,0,1,4.51,0,2.7,2.7,0,0,1,.88,2.05,2.67,2.67,0,0,1-.88,2,3.51,3.51,0,0,1-4.51,0Zm4.89,2.61v17.23h-5.28V607.45Z"/><path class="cls-21" d="M397.17,620.2v4.48h-2.68a6.61,6.61,0,0,1-4.48-1.4q-1.61-1.41-1.61-4.59v-6.85h-2.1v-4.39h2.1v-4.2h5.28v4.2h3.46v4.39h-3.46v6.91a1.45,1.45,0,0,0,.37,1.11,1.8,1.8,0,0,0,1.24.34Z"/><g class="cls-22"><rect class="cls-7" x="190.42" y="403.75" width="300.88" height="147.79"/><image class="cls-23" width="424" height="271" transform="translate(131.88 347.49)" /><path class="cls-7" d="M478.5,405.43a12.8,12.8,0,0,1,12.8,12.8V538.74a12.8,12.8,0,0,1-12.8,12.8H203.22a12.8,12.8,0,0,1-12.8-12.8V418.23a12.8,12.8,0,0,1,12.8-12.8H478.5m0-45.5H203.22a58.36,58.36,0,0,0-58.3,58.3V538.74a58.36,58.36,0,0,0,58.3,58.3H478.5a58.37,58.37,0,0,0,58.31-58.3V418.23a58.37,58.37,0,0,0-58.31-58.3Z"/><rect class="cls-3" x="190.42" y="405.43" width="300.88" height="146.1" rx="12.8"/></g><path class="cls-24" d="M223.63,439.44h234.3"/><path class="cls-24" d="M223.63,466h234.3"/><path class="cls-24" d="M223.63,492.48H345.68"/></g></g></g></svg>