<svg xmlns="http://www.w3.org/2000/svg" viewBox="0 0 717.9 794.69" xmlns:v="https://vecta.io/nano"><style><![CDATA[.B{isolation:isolate}.J,.O,.Q{mix-blend-mode:multiply}.X{fill:none}.Y{fill-rule:evenodd}.Z{fill:#7fc1ff}.a{stroke-linecap:round}.b{stroke-linejoin:round}]]></style><defs><clipPath id="A"><rect x="136.46" y="441.43" width="470.88" height="146.1" rx="12.8" class="X"/></clipPath><linearGradient id="B" x1="340.7" y1="61.73" x2="431.16" y2="1039.65" gradientUnits="userSpaceOnUse"><stop offset="0" stop-color="#d3f7ff"/><stop offset="1" stop-color="#dff4ff"/></linearGradient></defs><g class="B"><g fill="#3e6c98"><path d="M655.47 174.65h0a6.07 6.07 0 0 1 6.07 6.07v85.82a6.07 6.07 0 0 1-6.07 6.07h0a6.07 6.07 0 0 1-6.07-6.07v-85.82a6.07 6.07 0 0 1 6.07-6.07z"/><rect x="84.04" y="150.35" width="12.15" height="56.95" rx="6.07"/><rect x="84.04" y="78.21" width="12.15" height="56.95" rx="6.07"/></g><rect x="88.6" width="563.08" height="794.69" rx="52.4" class="Z"/><g fill="#3e6c98"><path d="M370.14 31.89a7.21 7.21 0 1 0-7.21-7.21 7.21 7.21 0 0 0 7.21 7.21z" class="Y"/><path d="M349.26 39.48H391a5.32 5.32 0 0 1 5.32 5.32h0a5.32 5.32 0 0 1-5.32 5.31h-41.74A5.31 5.31 0 0 1 344 44.8h0a5.32 5.32 0 0 1 5.26-5.32z"/><path d="M367.1 775.71a27 27 0 1 0-27-27 27 27 0 0 0 27 27z" class="Y"/></g><path d="M367.48 762.8a13.67 13.67 0 1 0-13.66-13.67 13.65 13.65 0 0 0 13.66 13.67z" stroke="#91adc8" stroke-width="1.52" class="X"/><g opacity=".77"><rect x="109.09" y="65.31" width="522.85" height="637.5" rx="18.99" fill="url(#B)"/><rect x="109.53" y="65.75" width="521.97" height="636.62" rx="18.55" stroke="#040404" stroke-opacity=".62" stroke-width=".88" class="X"/></g><image class="J" width="488" height="183" transform="translate(0 66.72)" opacity=".4"/><path d="M31.61,116.88A18.63,18.63,0,0,1,50.23,98.25H422.35A18.63,18.63,0,0,1,441,116.88v66.9a18.63,18.63,0,0,1-18.62,18.63H50.23a18.63,18.63,0,0,1-18.62-18.63Z" fill="#fff" class="Y"/><image class="J" width="488" height="183" transform="translate(0 188.72)" opacity=".4"/><path d="M31.61,238.93a18.62,18.62,0,0,1,18.62-18.62H422.35A18.62,18.62,0,0,1,441,238.93v66.91a18.62,18.62,0,0,1-18.62,18.62H50.23a18.62,18.62,0,0,1-18.62-18.62Z" fill="#fff" class="Y"/><image class="J" width="550" height="138" transform="translate(97 580.72)" opacity=".4"/><path d="M136.29 659.74v-34.6A12.17 12.17 0 0 1 148.46 613h446.71a12.17 12.17 0 0 1 12.17 12.17v34.6a12.17 12.17 0 0 1-12.17 12.17H148.46a12.17 12.17 0 0 1-12.17-12.2z" fill="#fff" class="Y"/><path d="M314.62 654.13a7 7 0 0 1-3-2.29 6.24 6.24 0 0 1-1.19-3.64H316a2.71 2.71 0 0 0 .83 1.83 2.68 2.68 0 0 0 1.86.64 2.89 2.89 0 0 0 1.85-.54 1.82 1.82 0 0 0 .68-1.5 1.77 1.77 0 0 0-.54-1.33 4.18 4.18 0 0 0-1.33-.86 18.54 18.54 0 0 0-2.24-.77 25.21 25.21 0 0 1-3.42-1.3 6.26 6.26 0 0 1-2.29-1.92 5.3 5.3 0 0 1-1-3.3 5.66 5.66 0 0 1 2.2-4.74 9 9 0 0 1 5.71-1.71 9.13 9.13 0 0 1 5.77 1.71 6.16 6.16 0 0 1 2.35 4.77h-5.63a2.24 2.24 0 0 0-.78-1.65 2.72 2.72 0 0 0-1.82-.6 2.25 2.25 0 0 0-1.54.51 1.84 1.84 0 0 0-.59 1.46 1.82 1.82 0 0 0 1 1.64 16.78 16.78 0 0 0 3.09 1.27 28.8 28.8 0 0 1 3.41 1.35 6.7 6.7 0 0 1 2.27 1.89 5 5 0 0 1 1 3.18 6.2 6.2 0 0 1-1 3.36 6.51 6.51 0 0 1-2.73 2.41 9.29 9.29 0 0 1-4.23.9 11.27 11.27 0 0 1-4.26-.77zM347 637.45v17.23h-5.28v-2.35a5.72 5.72 0 0 1-2.18 1.84 6.67 6.67 0 0 1-3 .7 6.88 6.88 0 0 1-3.49-.88 5.91 5.91 0 0 1-2.34-2.55 8.61 8.61 0 0 1-.84-3.92v-10.07h5.25v9.36a3.74 3.74 0 0 0 .9 2.68 3.12 3.12 0 0 0 2.4 1 3.16 3.16 0 0 0 2.44-1 3.74 3.74 0 0 0 .9-2.68v-9.36zm11.25.55a6.55 6.55 0 0 1 3.18-.74 7.16 7.16 0 0 1 3.86 1.08 7.53 7.53 0 0 1 2.73 3.08 11.4 11.4 0 0 1 0 9.34 7.58 7.58 0 0 1-2.73 3.12 7.09 7.09 0 0 1-3.86 1.1 6.55 6.55 0 0 1-3.18-.73 5.46 5.46 0 0 1-2.13-1.93v2.41h-5.28v-22.9h5.28v8.06a5.36 5.36 0 0 1 2.13-1.89zm4.3 5a3.61 3.61 0 0 0-2.7-1.12 3.56 3.56 0 0 0-2.67 1.14 5 5 0 0 0 0 6.24 3.56 3.56 0 0 0 2.67 1.14 3.6 3.6 0 0 0 2.69-1.16 4.34 4.34 0 0 0 1.11-3.13 4.28 4.28 0 0 0-1.1-3.18zm36.34-3.79a7.4 7.4 0 0 1 1.9 5.41v10.06h-5.25v-9.35a3.54 3.54 0 0 0-.88-2.58 3.67 3.67 0 0 0-4.84 0 3.54 3.54 0 0 0-.88 2.58v9.35h-5.25v-9.35a3.58 3.58 0 0 0-.88-2.58 3.69 3.69 0 0 0-4.85 0 3.54 3.54 0 0 0-.88 2.58v9.35h-5.28v-17.23h5.28v2.16a5.55 5.55 0 0 1 2.1-1.71 6.6 6.6 0 0 1 2.93-.63 7.22 7.22 0 0 1 3.48.83 6.08 6.08 0 0 1 2.39 2.38 7 7 0 0 1 2.44-2.32 6.65 6.65 0 0 1 3.36-.89 6.83 6.83 0 0 1 5.11 1.94zm5.99-4.37a2.67 2.67 0 0 1-.88-2 2.7 2.7 0 0 1 .88-2.05 3.2 3.2 0 0 1 2.27-.82 3.14 3.14 0 0 1 2.24.82 2.66 2.66 0 0 1 .88 2.05 2.63 2.63 0 0 1-.88 2 3.14 3.14 0 0 1-2.24.82 3.2 3.2 0 0 1-2.27-.82zm4.9 2.61v17.23h-5.28v-17.23zm13.43 12.75v4.48h-2.69a6.62 6.62 0 0 1-4.48-1.4q-1.6-1.41-1.6-4.59v-6.85h-2.1v-4.39h2.1v-4.2h5.28v4.2h3.46v4.39h-3.46v6.91a1.41 1.41 0 0 0 .37 1.11 1.77 1.77 0 0 0 1.23.34z" fill="#88c0ff"/><image class="J" width="550" height="138" transform="translate(97 325.72)" opacity=".4"/><path d="M595.17,362.59a7.18,7.18,0,0,1,7.17,7.17v34.6a7.18,7.18,0,0,1-7.17,7.17H148.46a7.18,7.18,0,0,1-7.17-7.17v-34.6a7.18,7.18,0,0,1,7.17-7.17H595.17m0-5H148.46a12.17,12.17,0,0,0-12.17,12.17v34.6a12.17,12.17,0,0,0,12.17,12.17H595.17a12.17,12.17,0,0,0,12.17-12.17v-34.6a12.17,12.17,0,0,0-12.17-12.17Z" fill="#fff"/><g clip-path="url(#A)"><path d="M136.46 439.75h470.88v147.79H136.46z" class="Z"/><image class="O" width="594" height="271" transform="translate(77.88 383.6)" opacity=".6"/><path d="M594.54,441.43a12.8,12.8,0,0,1,12.8,12.8V574.74a12.8,12.8,0,0,1-12.8,12.8H149.26a12.8,12.8,0,0,1-12.8-12.8V454.23a12.8,12.8,0,0,1,12.8-12.8H594.54m0-45.5H149.26A58.37,58.37,0,0,0,91,454.23V574.74A58.37,58.37,0,0,0,149.26,633H594.54a58.36,58.36,0,0,0,58.3-58.3V454.23a58.36,58.36,0,0,0-58.3-58.3Z" class="Z"/></g><path d="M169.67 475.44H574M169.67 502H574m-404.33 26.48h202" stroke="#448fd3" stroke-width="8.01" class="X a"/><image class="Q" width="287" height="287" transform="translate(430.9 72.62)" opacity=".2"/><path d="M466.42 300.2V122.52a24.27 24.27 0 0 1 24.26-24.27h177.68a24.27 24.27 0 0 1 24.26 24.27V300.2a24.26 24.26 0 0 1-24.26 24.26H490.68a24.26 24.26 0 0 1-24.26-24.26z" fill="#fff" class="Y"/><path d="M578.68 283.06c-14.54 0-29.08.12-43.62-.05-11.26-.13-14.49-3.65-14.42-14.94.15-24.61 21.16-48.87 46.77-52.49 21.66-3.05 41.4 1.15 57 18.48a53.11 53.11 0 0 1 14 34.38c.43 10-3.64 14.42-13.84 14.57l-45.89.05zm34.72-109c1.68 15.92-11.81 34.75-34.09 35-19.6.17-34.86-18.16-34.23-34.08.76-19.07 16.29-36.1 34.54-35.32 20.7.85 35.75 18.64 33.78 34.4z" opacity=".5" class="Z"/><g opacity=".5" stroke-width="10" class="X a b"><path d="M59.58 122.33H220.2" stroke="#a1bedb"/><g stroke="#d0e6f6"><path d="M59.58 143.35h355.57M59.58 161.68h355.57M59.58 180.01h86.56"/></g></g><g opacity=".5" stroke-width="10" class="X a b"><path d="M59.58 243.54H220.2" stroke="#a1bedb"/><g stroke="#d0e6f6"><path d="M59.58 264.56h355.57M59.58 282.89h355.57M59.58 301.22h86.56"/></g></g><path d="M561.36 387.06l10.71-10.71 10.88 10.88m-10.8-8.92v20.7" stroke="#fff" stroke-width="5" class="X a b"/></g></svg>