<svg xmlns="http://www.w3.org/2000/svg" xmlns:xlink="http://www.w3.org/1999/xlink" viewBox="0 0 717.9 794.69"><defs><style>.cls-1,.cls-10,.cls-17,.cls-2,.cls-21,.cls-22,.cls-23,.cls-24,.cls-7{fill:none;}.cls-15,.cls-2{clip-path:url(#clip-path);}.cls-3{isolation:isolate;}.cls-4,.cls-6{fill:#3e6c98;}.cls-19,.cls-5{fill:#7fc1ff;}.cls-12,.cls-23,.cls-6{fill-rule:evenodd;}.cls-7{stroke:#91adc8;stroke-width:1.52px;}.cls-8{opacity:0.77;}.cls-9{fill:url(#linear-gradient);}.cls-10{stroke:#040404;stroke-opacity:0.62;stroke-width:0.88px;}.cls-11,.cls-16,.cls-18{mix-blend-mode:multiply;}.cls-11{opacity:0.4;}.cls-12,.cls-14{fill:#fff;}.cls-13{fill:#88c0ff;}.cls-16{opacity:0.6;}.cls-17{stroke:#448fd3;stroke-width:8.01px;}.cls-17,.cls-21,.cls-22,.cls-23,.cls-24{stroke-linecap:round;}.cls-18{opacity:0.2;}.cls-19,.cls-20{opacity:0.5;}.cls-21{stroke:#a1bedb;}.cls-21,.cls-22,.cls-23,.cls-24{stroke-linejoin:round;}.cls-21,.cls-22{stroke-width:10px;}.cls-22{stroke:#d0e6f6;}.cls-23,.cls-24{stroke:#fff;stroke-width:5px;}</style><clipPath id="clip-path"><rect class="cls-1" x="136.46" y="441.43" width="470.88" height="146.1" rx="12.8"/></clipPath><linearGradient id="linear-gradient" x1="340.7" y1="-664.49" x2="431.16" y2="-1642.41" gradientTransform="matrix(1, 0, 0, -1, 0, -602.76)" gradientUnits="userSpaceOnUse"><stop offset="0" stop-color="#d3f7ff"/><stop offset="1" stop-color="#dff4ff"/></linearGradient></defs><g class="cls-3"><g id="Layer_2" data-name="Layer 2"><g id="_6" data-name="6"><path class="cls-4" d="M655.47,174.65h0a6.07,6.07,0,0,1,6.07,6.07v85.82a6.07,6.07,0,0,1-6.07,6.07h0a6.07,6.07,0,0,1-6.07-6.07V180.72A6.07,6.07,0,0,1,655.47,174.65Z"/><rect class="cls-4" x="84.04" y="150.35" width="12.15" height="56.95" rx="6.07"/><rect class="cls-4" x="84.04" y="78.21" width="12.15" height="56.95" rx="6.07"/><rect class="cls-5" x="88.6" width="563.08" height="794.69" rx="52.4"/><path class="cls-6" d="M370.14,31.89a7.21,7.21,0,1,0-7.21-7.21A7.21,7.21,0,0,0,370.14,31.89Z"/><path class="cls-4" d="M349.26,39.48H391a5.32,5.32,0,0,1,5.32,5.32h0A5.32,5.32,0,0,1,391,50.11H349.26A5.31,5.31,0,0,1,344,44.8h0A5.32,5.32,0,0,1,349.26,39.48Z"/><path class="cls-6" d="M367.1,775.71a27,27,0,1,0-27-27A27,27,0,0,0,367.1,775.71Z"/><path class="cls-7" d="M367.48,762.8a13.67,13.67,0,1,0-13.66-13.67A13.65,13.65,0,0,0,367.48,762.8Z"/><g class="cls-8"><rect class="cls-9" x="109.09" y="65.31" width="522.85" height="637.5" rx="18.99"/><rect class="cls-10" x="109.53" y="65.75" width="521.97" height="636.62" rx="18.55"/></g><image class="cls-11" width="488" height="183" transform="translate(0 66.72)" /><path class="cls-12" d="M31.61,116.88A18.63,18.63,0,0,1,50.23,98.25H422.35A18.63,18.63,0,0,1,441,116.88v66.9a18.63,18.63,0,0,1-18.62,18.63H50.23a18.63,18.63,0,0,1-18.62-18.63Z"/><image class="cls-11" width="488" height="183" transform="translate(0 188.72)" /><path class="cls-12" d="M31.61,238.93a18.62,18.62,0,0,1,18.62-18.62H422.35A18.62,18.62,0,0,1,441,238.93v66.91a18.62,18.62,0,0,1-18.62,18.62H50.23a18.62,18.62,0,0,1-18.62-18.62Z"/><image class="cls-11" width="550" height="138" transform="translate(97 580.72)" /><path class="cls-12" d="M136.29,659.74v-34.6A12.17,12.17,0,0,1,148.46,613H595.17a12.17,12.17,0,0,1,12.17,12.17v34.6a12.17,12.17,0,0,1-12.17,12.17H148.46A12.17,12.17,0,0,1,136.29,659.74Z"/><path class="cls-13" d="M314.62,654.13a7,7,0,0,1-3-2.29,6.24,6.24,0,0,1-1.19-3.64H316a2.71,2.71,0,0,0,.83,1.83,2.68,2.68,0,0,0,1.86.64,2.89,2.89,0,0,0,1.85-.54,1.82,1.82,0,0,0,.68-1.5,1.77,1.77,0,0,0-.54-1.33,4.18,4.18,0,0,0-1.33-.86,18.54,18.54,0,0,0-2.24-.77,25.21,25.21,0,0,1-3.42-1.3,6.26,6.26,0,0,1-2.29-1.92,5.3,5.3,0,0,1-1-3.3,5.66,5.66,0,0,1,2.2-4.74,9,9,0,0,1,5.71-1.71,9.13,9.13,0,0,1,5.77,1.71,6.16,6.16,0,0,1,2.35,4.77H320.8a2.24,2.24,0,0,0-.78-1.65,2.72,2.72,0,0,0-1.82-.6,2.25,2.25,0,0,0-1.54.51,1.84,1.84,0,0,0-.59,1.46,1.82,1.82,0,0,0,1,1.64,16.78,16.78,0,0,0,3.09,1.27,28.8,28.8,0,0,1,3.41,1.35,6.7,6.7,0,0,1,2.27,1.89,5,5,0,0,1,1,3.18,6.2,6.2,0,0,1-1,3.36,6.51,6.51,0,0,1-2.73,2.41,9.29,9.29,0,0,1-4.23.9A11.27,11.27,0,0,1,314.62,654.13Z"/><path class="cls-13" d="M347,637.45v17.23h-5.28v-2.35a5.72,5.72,0,0,1-2.18,1.84,6.67,6.67,0,0,1-3,.7,6.88,6.88,0,0,1-3.49-.88,5.91,5.91,0,0,1-2.34-2.55,8.61,8.61,0,0,1-.84-3.92V637.45h5.25v9.36a3.74,3.74,0,0,0,.9,2.68,3.12,3.12,0,0,0,2.4,1,3.16,3.16,0,0,0,2.44-1,3.74,3.74,0,0,0,.9-2.68v-9.36Z"/><path class="cls-13" d="M358.25,638a6.55,6.55,0,0,1,3.18-.74,7.16,7.16,0,0,1,3.86,1.08,7.53,7.53,0,0,1,2.73,3.08,11.4,11.4,0,0,1,0,9.34,7.58,7.58,0,0,1-2.73,3.12,7.09,7.09,0,0,1-3.86,1.1,6.55,6.55,0,0,1-3.18-.73,5.46,5.46,0,0,1-2.13-1.93v2.41h-5.28V631.83h5.28v8.06A5.36,5.36,0,0,1,358.25,638Zm4.3,5a3.61,3.61,0,0,0-2.7-1.12,3.56,3.56,0,0,0-2.67,1.14,5,5,0,0,0,0,6.24,3.56,3.56,0,0,0,2.67,1.14,3.6,3.6,0,0,0,2.69-1.16,4.34,4.34,0,0,0,1.11-3.13A4.28,4.28,0,0,0,362.55,642.93Z"/><path class="cls-13" d="M398.89,639.21a7.4,7.4,0,0,1,1.9,5.41v10.06h-5.25v-9.35a3.54,3.54,0,0,0-.88-2.58,3.67,3.67,0,0,0-4.84,0,3.54,3.54,0,0,0-.88,2.58v9.35h-5.25v-9.35a3.58,3.58,0,0,0-.88-2.58,3.69,3.69,0,0,0-4.85,0,3.54,3.54,0,0,0-.88,2.58v9.35H371.8V637.45h5.28v2.16a5.55,5.55,0,0,1,2.1-1.71,6.6,6.6,0,0,1,2.93-.63,7.22,7.22,0,0,1,3.48.83,6.08,6.08,0,0,1,2.39,2.38,7,7,0,0,1,2.44-2.32,6.65,6.65,0,0,1,3.36-.89A6.83,6.83,0,0,1,398.89,639.21Z"/><path class="cls-13" d="M404.88,634.84a2.67,2.67,0,0,1-.88-2,2.7,2.7,0,0,1,.88-2.05,3.2,3.2,0,0,1,2.27-.82,3.14,3.14,0,0,1,2.24.82,2.66,2.66,0,0,1,.88,2.05,2.63,2.63,0,0,1-.88,2,3.14,3.14,0,0,1-2.24.82A3.2,3.2,0,0,1,404.88,634.84Zm4.9,2.61v17.23H404.5V637.45Z"/><path class="cls-13" d="M423.21,650.2v4.48h-2.69a6.62,6.62,0,0,1-4.48-1.4q-1.6-1.41-1.6-4.59v-6.85h-2.1v-4.39h2.1v-4.2h5.28v4.2h3.46v4.39h-3.46v6.91a1.41,1.41,0,0,0,.37,1.11,1.77,1.77,0,0,0,1.23.34Z"/><image class="cls-11" width="550" height="138" transform="translate(97 325.72)" /><path class="cls-14" d="M595.17,362.59a7.18,7.18,0,0,1,7.17,7.17v34.6a7.18,7.18,0,0,1-7.17,7.17H148.46a7.18,7.18,0,0,1-7.17-7.17v-34.6a7.18,7.18,0,0,1,7.17-7.17H595.17m0-5H148.46a12.17,12.17,0,0,0-12.17,12.17v34.6a12.17,12.17,0,0,0,12.17,12.17H595.17a12.17,12.17,0,0,0,12.17-12.17v-34.6a12.17,12.17,0,0,0-12.17-12.17Z"/><g class="cls-15"><rect class="cls-5" x="136.46" y="439.75" width="470.88" height="147.79"/><image class="cls-16" width="594" height="271" transform="translate(77.88 383.6)" /><path class="cls-5" d="M594.54,441.43a12.8,12.8,0,0,1,12.8,12.8V574.74a12.8,12.8,0,0,1-12.8,12.8H149.26a12.8,12.8,0,0,1-12.8-12.8V454.23a12.8,12.8,0,0,1,12.8-12.8H594.54m0-45.5H149.26A58.37,58.37,0,0,0,91,454.23V574.74A58.37,58.37,0,0,0,149.26,633H594.54a58.36,58.36,0,0,0,58.3-58.3V454.23a58.36,58.36,0,0,0-58.3-58.3Z"/><rect class="cls-1" x="136.46" y="441.43" width="470.88" height="146.1" rx="12.8"/></g><path class="cls-17" d="M169.67,475.44H574"/><path class="cls-17" d="M169.67,502H574"/><path class="cls-17" d="M169.67,528.48h202"/><image class="cls-18" width="287" height="287" transform="translate(430.9 72.62)" /><path class="cls-12" d="M466.42,300.2V122.52a24.27,24.27,0,0,1,24.26-24.27H668.36a24.27,24.27,0,0,1,24.26,24.27V300.2a24.26,24.26,0,0,1-24.26,24.26H490.68A24.26,24.26,0,0,1,466.42,300.2Z"/><path class="cls-19" d="M578.68,283.06c-14.54,0-29.08.12-43.62-.05-11.26-.13-14.49-3.65-14.42-14.94.15-24.61,21.16-48.87,46.77-52.49,21.66-3.05,41.4,1.15,57,18.48a53.11,53.11,0,0,1,14,34.38c.43,10-3.64,14.42-13.84,14.57C609.25,283.22,594,283.06,578.68,283.06Z"/><path class="cls-19" d="M613.4,174.06c1.68,15.92-11.81,34.75-34.09,35-19.6.17-34.86-18.16-34.23-34.08.76-19.07,16.29-36.1,34.54-35.32C600.32,140.51,615.37,158.3,613.4,174.06Z"/><g class="cls-20"><line class="cls-21" x1="59.58" y1="122.33" x2="220.2" y2="122.33"/><line class="cls-22" x1="59.58" y1="143.35" x2="415.15" y2="143.35"/><line class="cls-22" x1="59.58" y1="161.68" x2="415.15" y2="161.68"/><line class="cls-22" x1="59.58" y1="180.01" x2="146.14" y2="180.01"/></g><g class="cls-20"><line class="cls-21" x1="59.58" y1="243.54" x2="220.2" y2="243.54"/><line class="cls-22" x1="59.58" y1="264.56" x2="415.15" y2="264.56"/><line class="cls-22" x1="59.58" y1="282.89" x2="415.15" y2="282.89"/><line class="cls-22" x1="59.58" y1="301.22" x2="146.14" y2="301.22"/></g><polyline class="cls-23" points="561.36 387.06 572.07 376.35 582.95 387.23"/><line class="cls-24" x1="572.15" y1="378.31" x2="572.15" y2="399.01"/></g></g></g></svg>