<svg xmlns="http://www.w3.org/2000/svg" xmlns:xlink="http://www.w3.org/1999/xlink" viewBox="0 0 743.88 663.49"><defs><style>.cls-1{fill:none;}.cls-2{isolation:isolate;}.cls-3{fill:url(#Безымянный_градиент_278);}.cls-4,.cls-7{mix-blend-mode:screen;}.cls-4,.cls-6{opacity:0.2;}.cls-4{fill:url(#Безымянный_градиент_6);}.cls-5{fill:url(#Безымянный_градиент_6-2);}.cls-45,.cls-49,.cls-50,.cls-6,.cls-9{mix-blend-mode:multiply;}.cls-6{fill:url(#Безымянный_градиент_6-3);}.cls-7,.cls-9{opacity:0.9;}.cls-7{fill:url(#Безымянный_градиент_6-4);}.cls-8{fill:url(#Безымянный_градиент_6-5);}.cls-9{fill:url(#Безымянный_градиент_15);}.cls-10{clip-path:url(#clip-path);}.cls-11{fill:#bfbfbf;}.cls-12{clip-path:url(#clip-path-2);}.cls-13{clip-path:url(#clip-path-3);}.cls-14{clip-path:url(#clip-path-4);}.cls-15{clip-path:url(#clip-path-5);}.cls-16{clip-path:url(#clip-path-6);}.cls-17{clip-path:url(#clip-path-7);}.cls-18{clip-path:url(#clip-path-8);}.cls-19{fill:#c5c5c5;}.cls-20{fill:#c4c4c4;}.cls-21{clip-path:url(#clip-path-9);}.cls-22{clip-path:url(#clip-path-10);}.cls-23{clip-path:url(#clip-path-11);}.cls-24{clip-path:url(#clip-path-12);}.cls-25{clip-path:url(#clip-path-13);}.cls-26{clip-path:url(#clip-path-14);}.cls-27{clip-path:url(#clip-path-15);}.cls-28{clip-path:url(#clip-path-16);}.cls-29{clip-path:url(#clip-path-17);}.cls-30{clip-path:url(#clip-path-18);}.cls-31{clip-path:url(#clip-path-19);}.cls-32{clip-path:url(#clip-path-20);}.cls-33{clip-path:url(#clip-path-21);}.cls-34{clip-path:url(#clip-path-22);}.cls-35{clip-path:url(#clip-path-23);}.cls-36{clip-path:url(#clip-path-24);}.cls-37{clip-path:url(#clip-path-25);}.cls-38{fill:#eee;}.cls-39{clip-path:url(#clip-path-26);}.cls-40{clip-path:url(#clip-path-27);}.cls-41{clip-path:url(#clip-path-28);}.cls-42{clip-path:url(#clip-path-29);}.cls-43{clip-path:url(#clip-path-30);}.cls-44{fill:#c3c3c3;}.cls-45{opacity:0.3;}.cls-46{fill:url(#linear-gradient);}.cls-47{fill:#ffd473;}.cls-48{fill:#ffe39b;}.cls-49,.cls-50{opacity:0.5;}.cls-49{fill:url(#Безымянный_градиент_227);}.cls-50{fill:url(#Безымянный_градиент_227-2);}</style><radialGradient id="Безымянный_градиент_278" cx="480.51" cy="346.08" r="283.25" gradientTransform="translate(-54.07 117.89) rotate(-7.88)" gradientUnits="userSpaceOnUse"><stop offset="0" stop-color="#4d5273"/><stop offset="0.14" stop-color="#40445d"/><stop offset="0.34" stop-color="#303243"/><stop offset="0.55" stop-color="#242630"/><stop offset="0.77" stop-color="#1d1e25"/><stop offset="1" stop-color="#1b1c21"/></radialGradient><linearGradient id="Безымянный_градиент_6" x1="186.94" y1="217.29" x2="543.82" y2="217.29" gradientTransform="translate(-54.07 117.89) rotate(-7.88)" xlink:href="#Безымянный_градиент_278"/><linearGradient id="Безымянный_градиент_6-2" x1="334.28" y1="-137.07" x2="383.05" y2="247.15" gradientTransform="translate(-54.07 117.89) rotate(-7.88)" xlink:href="#Безымянный_градиент_278"/><linearGradient id="Безымянный_градиент_6-3" x1="430.61" y1="-135.87" x2="464.16" y2="128.45" gradientTransform="translate(8.67 109.21) rotate(-7.88)" xlink:href="#Безымянный_градиент_278"/><linearGradient id="Безымянный_градиент_6-4" x1="113.55" y1="-94.56" x2="146.37" y2="163.98" gradientTransform="translate(8.67 109.21) rotate(-7.88)" xlink:href="#Безымянный_градиент_278"/><linearGradient id="Безымянный_градиент_6-5" x1="335.02" y1="-126.96" x2="382.41" y2="246.37" gradientTransform="translate(-54.07 117.89) rotate(-7.88)" xlink:href="#Безымянный_градиент_278"/><radialGradient id="Безымянный_градиент_15" cx="75570.12" cy="-76638.26" r="5166.95" gradientTransform="matrix(0.03, -0.01, 0, 0.02, -1830.65, 2025.5)" gradientUnits="userSpaceOnUse"><stop offset="0.07" stop-color="#393434"/><stop offset="0.22" stop-color="#534f4f"/><stop offset="0.54" stop-color="#969494"/><stop offset="1" stop-color="#fff"/></radialGradient><clipPath id="clip-path"><path class="cls-1" d="M466.47,440c.93-13.12-1.66-23.52-3.38-25.4L473.54,412c1.71,1.89,4.3,12.29,3.37,25.4L466.49,440Z"/></clipPath><clipPath id="clip-path-2"><path class="cls-1" d="M463.09,414.56a8.61,8.61,0,0,0-3.93-2.06l10.45-2.61a14.71,14.71,0,0,1,2.28.88l-10.4,2.6,10.4-2.6h0l-10.4,2.59,5.88-1.47.68-.17.68-.16,1.31-.33,1.26-.31a2.44,2.44,0,0,1,.59-.15,5.61,5.61,0,0,1,1.63,1.18l-10.42,2.59L473.53,412h0l-10.45,2.61Z"/></clipPath><clipPath id="clip-path-3"><path class="cls-1" d="M459.12,412.48l10.45-2.6h0l-10.45,2.61Z"/></clipPath><clipPath id="clip-path-4"><path class="cls-1" d="M465.7,444.18a20.8,20.8,0,0,0,.77-4.21l10.44-2.61a20.13,20.13,0,0,1-.77,4.21Z"/></clipPath><clipPath id="clip-path-5"><path class="cls-1" d="M456.22,411.7l10.44-2.6c1.08.27,2,.52,2.91.78l-10.45,2.6C458.27,412.22,457.3,412,456.22,411.7Z"/></clipPath><clipPath id="clip-path-6"><path class="cls-1" d="M465.7,444.18l10.44-2.61c-3.52,12.23-17.53,25.8-25.12,28.49-3.57,1.28-5.33,3.25-10.15,4.46l-10.44,2.6c4.82-1.2,6.58-3.17,10.15-4.46C448.17,470,462.18,456.41,465.7,444.18Z"/></clipPath><clipPath id="clip-path-7"><path class="cls-1" d="M415.81,401.94a15.15,15.15,0,0,0-5.44-.07l10.44-2.6a15.15,15.15,0,0,1,5.44.07c4.77.64,31.27,7.41,36.67,8.81,1.37.37,2.62.67,3.74,1l-10.44,2.6c-1.12-.28-2.37-.58-3.74-.94C447.08,409.35,420.58,402.58,415.81,401.94Z"/></clipPath><clipPath id="clip-path-8"><path class="cls-1" d="M401.89,433l-10.44,2.61c1.95-.49,3.28-1.87,4.36-4.25,1.91-4.16,8.09-18.14,10-24.14,1.05-3.38,2.59-4.82,4.6-5.33l10.44-2.6c-2,.5-3.55,2-4.6,5.33-1.87,6-8,20-10,24.13C405.17,431.11,403.84,432.5,401.89,433Z"/></clipPath><clipPath id="clip-path-9"><path class="cls-1" d="M408,565.81l-10.44,2.6C487.34,546,540.46,447.81,516,349.5S398.42,189.39,308.63,211.78l10.44-2.61c89.79-22.38,182.8,39.38,207.32,137.73S497.78,543.42,408,565.81Z"/></clipPath><clipPath id="clip-path-10"><path class="cls-1" d="M358,427.27c4.64-1.16,7.41-1.85,10.37-2.63,13.94,5.74,24,6.92,27.92,8a11.55,11.55,0,0,0,5.6.38l-10.44,2.61a11.56,11.56,0,0,1-5.6-.39C381.9,434.17,371.9,433,358,427.27Z"/></clipPath><clipPath id="clip-path-11"><path class="cls-1" d="M353.11,425.14l10.44-2.61c1.65.77,3.26,1.46,4.82,2.11-3,.78-5.87,1.5-10.37,2.63Q355.63,426.3,353.11,425.14Z"/></clipPath><clipPath id="clip-path-12"><path class="cls-1" d="M397.55,568.41Q391.36,570,385.16,571l10.44-2.61.12,0-10.39,2.59,10.39-2.59c4.09-.67,8.19-1.52,12.27-2.53Z"/></clipPath><clipPath id="clip-path-13"><path class="cls-1" d="M372.77,572.49l10.44-2.61c4.12-.33,8.26-.84,12.39-1.52l-5.9,1.48-1.36.33-2.58.65c-.18,0-.44.23-.6.15Q378.95,572,372.77,572.49Z"/></clipPath><clipPath id="clip-path-14"><path class="cls-1" d="M317.74,401.4l10.45-2.61a144.56,144.56,0,0,0,23.48,17.54c4.17,2.44,8.14,4.48,11.88,6.2l-10.44,2.61c-3.74-1.72-7.71-3.77-11.88-6.21A145.09,145.09,0,0,1,317.74,401.4Z"/></clipPath><clipPath id="clip-path-15"><path class="cls-1" d="M372.77,572.49q-6.25.51-12.48.5l10.45-2.6h.12L360.47,573l10.39-2.59q6.15,0,12.35-.51Z"/></clipPath><clipPath id="clip-path-16"><path class="cls-1" d="M360.29,573q-6.15,0-12.25-.48l10.44-2.6h.12l-10.39,2.59,10.39-2.59q6,.47,12.14.47Z"/></clipPath><clipPath id="clip-path-17"><path class="cls-1" d="M262.21,231.89a154.07,154.07,0,0,1,46.42-20.11l10.44-2.6a154.07,154.07,0,0,0-46.42,20.11Z"/></clipPath><clipPath id="clip-path-18"><path class="cls-1" d="M285.77,313.7c-3-4.36-5.48-6.41-7.52-7.27l10.44-2.61c2,.87,4.49,2.91,7.52,7.28,6.56,9.43,22.44,32.65,24.26,34.95s3.4,5.12,2.68,9-1,6.24-2.59,9.88-3.3,8-4.86,10.88c-1.7,3.17-3.48,6.6.57,11.11,2,2.16,6.15,6.66,11.92,11.88l-10.45,2.61c-5.76-5.23-9.95-9.72-11.91-11.88-4.05-4.51-2.27-7.94-.57-11.12,1.56-2.88,3.24-7.26,4.86-10.88s1.87-6,2.59-9.87-.83-6.7-2.68-9S292.33,323.13,285.77,313.7Z"/></clipPath><clipPath id="clip-path-19"><path class="cls-1" d="M278.25,306.43a7.39,7.39,0,0,0-5.06-.22l10.45-2.6a7.35,7.35,0,0,1,5.05.21Z"/></clipPath><clipPath id="clip-path-20"><path class="cls-1" d="M283,303.76l-10.44,2.61.6-.16,10.44-2.6C283.43,303.66,283.23,303.72,283,303.76Z"/></clipPath><clipPath id="clip-path-21"><path class="cls-1" d="M348,572.51q-6.1-.48-12.14-1.44l10.45-2.6.12,0-10.4,2.59,10.4-2.59q6,.93,12,1.42l-5.22,1.3-2.71.67-1.29.33A9,9,0,0,1,348,572.51Z"/></clipPath><clipPath id="clip-path-22"><path class="cls-1" d="M275.37,306.63l-10.44,2.6a63,63,0,0,1,7.66-2.86L283,303.76A62.53,62.53,0,0,0,275.37,306.63Z"/></clipPath><clipPath id="clip-path-23"><path class="cls-1" d="M263.13,316.59l-10.44,2.6c3-6.28,11.78-9.77,12.24-10l10.44-2.6C274.91,306.81,266.18,310.3,263.13,316.59Z"/></clipPath><clipPath id="clip-path-24"><path class="cls-1" d="M335.9,571.07a162.78,162.78,0,0,1-35.32-9.8l10.45-2.6c3.82,1.53,7.69,2.93,11.6,4.17l-10.41,2.6,10.41-2.6q5.82,1.86,11.75,3.27L324,568.7h0l10.4-2.59q5.94,1.39,12,2.36Z"/></clipPath><clipPath id="clip-path-25"><path class="cls-1" d="M416.41,599.58,406,602.19a185.33,185.33,0,0,1-100.22-3l10.44-2.61A185.23,185.23,0,0,0,416.41,599.58Z"/></clipPath><clipPath id="clip-path-26"><path class="cls-1" d="M440.87,474.52l-10.44,2.6c-6.64,1.66-19.09,1.85-50.08-3.23-53.47-8.78-97.45-55.39-100.69-58.28s-26.4-23.35-32.78-48.92,2.76-41.22,5.81-47.5l10.44-2.6c-3.05,6.28-12.18,21.92-5.81,47.49S286.87,410.15,290.1,413s47.22,49.49,100.69,58.27C421.78,476.37,434.23,476.17,440.87,474.52Z"/></clipPath><clipPath id="clip-path-27"><path class="cls-1" d="M190.21,430.72c-19.92-79.9,11.39-159.69,72-198.83l10.44-2.6c-60.6,39.14-91.91,118.93-72,198.82a194.71,194.71,0,0,0,57.1,96.82l-10.44,2.6A194.72,194.72,0,0,1,190.21,430.72Z"/></clipPath><clipPath id="clip-path-28"><path class="cls-1" d="M319.07,209.18c89.79-22.39,182.8,39.37,207.32,137.72S497.78,543.42,408,565.81c-33.1,8.25-66.62,5.06-97-7.14l-57.11,37.54,3.83-71.28a194.71,194.71,0,0,1-57.1-96.82C176.13,329.77,229.25,231.57,319.07,209.18ZM476.91,437.36c.93-13.13-1.66-23.54-3.38-25.4s-5.23-2.38-10.61-3.81S431,400,426.25,399.34a15.15,15.15,0,0,0-5.44-.07c-2,.5-3.55,2-4.6,5.33-1.87,6-8,20-10,24.13-1.08,2.38-2.41,3.77-4.36,4.25a11.55,11.55,0,0,1-5.6-.38c-5.4-1.41-22.08-3.1-44.62-16.27-17.55-10.28-31.32-24.91-35.4-29.42S314,379,315.7,375.8c1.56-2.88,3.24-7.26,4.86-10.88s1.87-6,2.59-9.88-.82-6.69-2.68-9-17.7-25.52-24.26-34.95c-6.07-8.75-9.84-8.17-12.57-7.49l-.61.15a62.53,62.53,0,0,0-7.66,2.87c-.46.18-9.2,3.67-12.24,10s-12.18,21.92-5.81,47.49S286.87,410.15,290.1,413s47.22,49.49,100.69,58.27c31,5.09,43.44,4.89,50.08,3.24,4.82-1.21,6.58-3.18,10.15-4.46,8.48-3,25-19.57,25.89-32.7"/></clipPath><clipPath id="clip-path-29"><polyline class="cls-1" points="530.09 365.31 532.02 383.61 532.26 401.69 530.86 419.43 527.88 436.72 523.38 453.46 517.42 469.53 510.06 484.82 501.36 499.23 491.38 512.63 480.18 524.91 467.82 535.98 454.36 545.72 439.87 554 424.39 560.74 407.99 565.81 395.57 568.37 383.14 569.89 370.77 570.39 358.48 569.91 346.31 568.46 334.32 566.09 322.55 562.82 311.02 558.67 253.91 596.21 257.75 524.93 247.99 515.32 238.87 504.93 230.45 493.79 222.78 481.94 215.91 469.41 209.9 456.24 204.8 442.46 200.66 428.11 196.96 409.69 195.02 391.39 194.78 373.31 196.18 355.56 199.16 338.27 203.66 321.53 209.62 305.45 216.98 290.16 225.68 275.76 235.66 262.36 246.87 250.07 259.23 239 272.69 229.27 287.19 220.98 302.67 214.24 319.07 209.18 319.07 209.18 335.93 205.95 352.76 204.63 369.45 205.14 385.9 207.42 402.01 211.39 417.66 216.98 432.77 224.13 447.21 232.76 460.89 242.81 473.69 254.2 485.53 266.87 496.28 280.74 505.85 295.75 514.13 311.82 521.01 328.9 526.39 346.9 530.09 365.31"/></clipPath><clipPath id="clip-path-30"><path class="cls-1" d="M224.9,538.39,214.46,541a233.36,233.36,0,0,1-55.1-102.59C130.16,321.26,193.21,204.68,300.21,178l10.44-2.6c-107,26.68-170,143.26-140.84,260.41A233.27,233.27,0,0,0,224.9,538.39Z"/></clipPath><linearGradient id="linear-gradient" x1="150.24" y1="240.22" x2="501.54" y2="186.42" gradientUnits="userSpaceOnUse"><stop offset="0" stop-color="#1e2027"/><stop offset="0.09" stop-color="#21232b"/><stop offset="0.35" stop-color="#262833"/><stop offset="1" stop-color="#1e1f25"/></linearGradient><radialGradient id="Безымянный_градиент_227" cx="738.52" cy="167.62" r="81.61" gradientTransform="translate(-54.07 117.89) rotate(-7.88)" gradientUnits="userSpaceOnUse"><stop offset="0" stop-color="#ffe7a1"/><stop offset="0.36" stop-color="#ffcf4d"/><stop offset="0.53" stop-color="#ffc529"/><stop offset="0.87" stop-color="#996e00"/></radialGradient><radialGradient id="Безымянный_градиент_227-2" cx="760.58" cy="186.29" r="43.38" xlink:href="#Безымянный_градиент_227"/></defs><g class="cls-2"><g id="Layer_2" data-name="Layer 2"><g id="_6" data-name="6"><path class="cls-3" d="M513.52,252.31c2.92,16.72-73.45,44-170.59,61s-178.25,17.19-181.17.47,73.45-44,170.59-61S510.6,235.59,513.52,252.31Z"/><path class="cls-4" d="M332.35,252.78c-97.14,17-173.52,44.3-170.59,61s84,16.51,181.17-.47,173.51-44.3,170.59-61S429.49,235.8,332.35,252.78Zm9.57,54.79c-12,2.09-24,4-35.7,5.59-92.22,12.76-135.85,6-138.72-.44.68-8.81,58.2-35.35,165.86-54.17,12-2.1,24-4,35.7-5.6,92.22-12.76,135.85-6,138.71.44C507.1,262.2,449.58,288.75,341.92,307.57Z"/><polygon class="cls-5" points="337.84 284.51 1.1 254.91 0 246.93 284.18 0 645.05 97.65 646.18 105.84 337.84 284.51"/><polygon class="cls-6" points="645.05 97.65 285.48 0.35 285.48 0.35 284.18 0 284.13 0.04 286.1 14.25 287.38 14.08 312.05 192.41 322 195.47 646.18 105.84 645.05 97.65"/><polygon class="cls-7" points="286.1 14.25 284.13 0.04 0 246.93 1.1 254.91 313.41 193.33 287.47 14.07 286.1 14.25"/><polygon class="cls-8" points="337.84 284.51 1.1 254.91 285.31 8.18 646.13 105.83 337.84 284.51"/><path class="cls-9" d="M503.88,194.88c9.42,49.89-57.26,104.38-149,121.69s-173.68-9.08-183.1-58.93,57.28-104.36,149-121.69S494.45,145,503.88,194.88Z"/><g class="cls-2"><g class="cls-2"><g class="cls-10"><g class="cls-2"><path class="cls-11" d="M476.91,437.36,466.47,440c.93-13.14-1.67-23.55-3.38-25.41s-5.23-2.38-10.61-3.8-31.9-8.18-36.67-8.82a15.15,15.15,0,0,0-5.44-.07l10.44-2.6a15.15,15.15,0,0,1,5.44.07c4.77.64,31.27,7.41,36.67,8.81s8.87,1.94,10.61,3.81,4.31,12.27,3.38,25.4"/></g></g></g><g class="cls-2"><g class="cls-12"><g class="cls-2"><path class="cls-11" d="M476.91,437.36,466.47,440c.93-13.14-1.67-23.55-3.38-25.41s-5.23-2.38-10.61-3.8-31.9-8.18-36.67-8.82a15.15,15.15,0,0,0-5.44-.07l10.44-2.6a15.15,15.15,0,0,1,5.44.07c4.77.64,31.27,7.41,36.67,8.81s8.87,1.94,10.61,3.81,4.31,12.27,3.38,25.4"/></g></g></g><g class="cls-2"><g class="cls-13"><g class="cls-2"><path class="cls-11" d="M476.91,437.36,466.47,440c.93-13.14-1.67-23.55-3.38-25.41s-5.23-2.38-10.61-3.8-31.9-8.18-36.67-8.82a15.15,15.15,0,0,0-5.44-.07l10.44-2.6a15.15,15.15,0,0,1,5.44.07c4.77.64,31.27,7.41,36.67,8.81s8.87,1.94,10.61,3.81,4.31,12.27,3.38,25.4"/></g></g></g><g class="cls-2"><g class="cls-14"><g class="cls-2"><path class="cls-11" d="M455.5,467.71l-10.44,2.61c8.78-5.77,20.62-19.28,21.41-30.35l10.44-2.61c-.79,11.07-12.63,24.59-21.41,30.35"/></g></g></g><g class="cls-2"><g class="cls-15"><g class="cls-2"><path class="cls-11" d="M476.91,437.36,466.47,440c.93-13.14-1.67-23.55-3.38-25.41s-5.23-2.38-10.61-3.8-31.9-8.18-36.67-8.82a15.15,15.15,0,0,0-5.44-.07l10.44-2.6a15.15,15.15,0,0,1,5.44.07c4.77.64,31.27,7.41,36.67,8.81s8.87,1.94,10.61,3.81,4.31,12.27,3.38,25.4"/></g></g></g><g class="cls-2"><g class="cls-16"><g class="cls-2"><path class="cls-11" d="M440.87,474.52l-10.44,2.6c4.82-1.2,6.58-3.17,10.15-4.46a21.6,21.6,0,0,0,4.48-2.34l10.44-2.61a21.7,21.7,0,0,1-4.48,2.35c-3.57,1.28-5.33,3.25-10.15,4.46"/><path class="cls-11" d="M455.5,467.71l-10.44,2.61c8.78-5.77,20.62-19.28,21.41-30.35l10.44-2.61c-.79,11.07-12.63,24.59-21.41,30.35"/></g></g></g><g class="cls-2"><g class="cls-17"><g class="cls-2"><path class="cls-11" d="M476.91,437.36,466.47,440c.93-13.14-1.67-23.55-3.38-25.41s-5.23-2.38-10.61-3.8-31.9-8.18-36.67-8.82a15.15,15.15,0,0,0-5.44-.07l10.44-2.6a15.15,15.15,0,0,1,5.44.07c4.77.64,31.27,7.41,36.67,8.81s8.87,1.94,10.61,3.81,4.31,12.27,3.38,25.4"/></g></g></g><g class="cls-2"><g class="cls-18"><g class="cls-2"><path class="cls-19" d="M401.89,433l-10.44,2.61a5.47,5.47,0,0,0,1.64-.71l10.44-2.61a5.13,5.13,0,0,1-1.64.71"/><path class="cls-20" d="M403.53,432.27l-10.44,2.61a8,8,0,0,0,2.72-3.54c1.91-4.16,8.09-18.14,10-24.14.74-2.39,1.73-3.81,3-4.62l10.44-2.6c-1.23.8-2.22,2.23-3,4.62-1.87,6-8,20-10,24.13a7.9,7.9,0,0,1-2.72,3.54"/><path class="cls-19" d="M419.17,400l-10.44,2.6a5.44,5.44,0,0,1,1.64-.71l10.44-2.6a5.3,5.3,0,0,0-1.64.71"/></g></g></g><g class="cls-2"><g class="cls-21"><g class="cls-2"><path class="cls-19" d="M408,565.81l-10.44,2.6a154.18,154.18,0,0,0,47.3-20.69l10.44-2.61a154,154,0,0,1-47.3,20.7"/><path class="cls-20" d="M455.29,545.11l-10.44,2.61c60-39.34,90.92-118.75,71.1-198.22-24.52-98.35-117.53-160.11-207.32-137.72l10.44-2.61c89.79-22.38,182.8,39.38,207.32,137.73,19.82,79.47-11.1,158.87-71.1,198.21"/></g></g></g><g class="cls-2"><g class="cls-22"><g class="cls-2"><path class="cls-11" d="M401.89,433l-10.44,2.61a11.56,11.56,0,0,1-5.6-.39c-5.4-1.41-22.08-3.1-44.62-16.27-17.55-10.28-31.32-24.91-35.4-29.41s-2.27-7.94-.57-11.12c1.56-2.88,3.24-7.26,4.86-10.88s1.87-6,2.59-9.87-.83-6.7-2.68-9-17.7-25.52-24.26-34.95c-6.07-8.75-9.84-8.17-12.58-7.49l10.45-2.6c2.73-.68,6.5-1.26,12.57,7.49,6.56,9.43,22.44,32.65,24.26,34.95s3.4,5.12,2.68,9-1,6.24-2.59,9.88-3.3,8-4.86,10.88c-1.7,3.17-3.48,6.6.57,11.11s17.85,19.14,35.4,29.42c22.54,13.17,39.22,14.86,44.62,16.27a11.55,11.55,0,0,0,5.6.38"/></g></g></g><g class="cls-2"><g class="cls-23"><g class="cls-2"><path class="cls-11" d="M401.89,433l-10.44,2.61a11.56,11.56,0,0,1-5.6-.39c-5.4-1.41-22.08-3.1-44.62-16.27-17.55-10.28-31.32-24.91-35.4-29.41s-2.27-7.94-.57-11.12c1.56-2.88,3.24-7.26,4.86-10.88s1.87-6,2.59-9.87-.83-6.7-2.68-9-17.7-25.52-24.26-34.95c-6.07-8.75-9.84-8.17-12.58-7.49l10.45-2.6c2.73-.68,6.5-1.26,12.57,7.49,6.56,9.43,22.44,32.65,24.26,34.95s3.4,5.12,2.68,9-1,6.24-2.59,9.88-3.3,8-4.86,10.88c-1.7,3.17-3.48,6.6.57,11.11s17.85,19.14,35.4,29.42c22.54,13.17,39.22,14.86,44.62,16.27a11.55,11.55,0,0,0,5.6.38"/></g></g></g><g class="cls-2"><g class="cls-24"><g class="cls-2"><path class="cls-11" d="M408,565.81l-10.44,2.6c-33.1,8.25-66.62,5.06-97-7.14l10.45-2.6c30.34,12.2,63.86,15.39,97,7.14"/></g></g></g><g class="cls-2"><g class="cls-25"><g class="cls-2"><path class="cls-11" d="M408,565.81l-10.44,2.6c-33.1,8.25-66.62,5.06-97-7.14l10.45-2.6c30.34,12.2,63.86,15.39,97,7.14"/></g></g></g><g class="cls-2"><g class="cls-26"><g class="cls-2"><path class="cls-11" d="M401.89,433l-10.44,2.61a11.56,11.56,0,0,1-5.6-.39c-5.4-1.41-22.08-3.1-44.62-16.27-17.55-10.28-31.32-24.91-35.4-29.41s-2.27-7.94-.57-11.12c1.56-2.88,3.24-7.26,4.86-10.88s1.87-6,2.59-9.87-.83-6.7-2.68-9-17.7-25.52-24.26-34.95c-6.07-8.75-9.84-8.17-12.58-7.49l10.45-2.6c2.73-.68,6.5-1.26,12.57,7.49,6.56,9.43,22.44,32.65,24.26,34.95s3.4,5.12,2.68,9-1,6.24-2.59,9.88-3.3,8-4.86,10.88c-1.7,3.17-3.48,6.6.57,11.11s17.85,19.14,35.4,29.42c22.54,13.17,39.22,14.86,44.62,16.27a11.55,11.55,0,0,0,5.6.38"/></g></g></g><g class="cls-2"><g class="cls-27"><g class="cls-2"><path class="cls-11" d="M408,565.81l-10.44,2.6c-33.1,8.25-66.62,5.06-97-7.14l10.45-2.6c30.34,12.2,63.86,15.39,97,7.14"/></g></g></g><g class="cls-2"><g class="cls-28"><g class="cls-2"><path class="cls-11" d="M408,565.81l-10.44,2.6c-33.1,8.25-66.62,5.06-97-7.14l10.45-2.6c30.34,12.2,63.86,15.39,97,7.14"/></g></g></g><g class="cls-2"><g class="cls-29"><g class="cls-2"><path class="cls-11" d="M271.75,229.88l-10.45,2.6a154.13,154.13,0,0,1,47.33-20.7l10.44-2.6a154,154,0,0,0-47.32,20.7"/></g></g></g><g class="cls-2"><g class="cls-30"><g class="cls-2"><path class="cls-11" d="M401.89,433l-10.44,2.61a11.56,11.56,0,0,1-5.6-.39c-5.4-1.41-22.08-3.1-44.62-16.27-17.55-10.28-31.32-24.91-35.4-29.41s-2.27-7.94-.57-11.12c1.56-2.88,3.24-7.26,4.86-10.88s1.87-6,2.59-9.87-.83-6.7-2.68-9-17.7-25.52-24.26-34.95c-6.07-8.75-9.84-8.17-12.58-7.49l10.45-2.6c2.73-.68,6.5-1.26,12.57,7.49,6.56,9.43,22.44,32.65,24.26,34.95s3.4,5.12,2.68,9-1,6.24-2.59,9.88-3.3,8-4.86,10.88c-1.7,3.17-3.48,6.6.57,11.11s17.85,19.14,35.4,29.42c22.54,13.17,39.22,14.86,44.62,16.27a11.55,11.55,0,0,0,5.6.38"/></g></g></g><g class="cls-2"><g class="cls-31"><g class="cls-2"><path class="cls-11" d="M401.89,433l-10.44,2.61a11.56,11.56,0,0,1-5.6-.39c-5.4-1.41-22.08-3.1-44.62-16.27-17.55-10.28-31.32-24.91-35.4-29.41s-2.27-7.94-.57-11.12c1.56-2.88,3.24-7.26,4.86-10.88s1.87-6,2.59-9.87-.83-6.7-2.68-9-17.7-25.52-24.26-34.95c-6.07-8.75-9.84-8.17-12.58-7.49l10.45-2.6c2.73-.68,6.5-1.26,12.57,7.49,6.56,9.43,22.44,32.65,24.26,34.95s3.4,5.12,2.68,9-1,6.24-2.59,9.88-3.3,8-4.86,10.88c-1.7,3.17-3.48,6.6.57,11.11s17.85,19.14,35.4,29.42c22.54,13.17,39.22,14.86,44.62,16.27a11.55,11.55,0,0,0,5.6.38"/></g></g></g><g class="cls-2"><g class="cls-32"><g class="cls-2"><path class="cls-19" d="M283,303.76l-10.44,2.61.6-.16,10.44-2.6c-.2.05-.4.11-.6.15"/></g></g></g><g class="cls-2"><g class="cls-33"><g class="cls-2"><path class="cls-11" d="M408,565.81l-10.44,2.6c-33.1,8.25-66.62,5.06-97-7.14l10.45-2.6c30.34,12.2,63.86,15.39,97,7.14"/></g></g></g><g class="cls-2"><g class="cls-34"><g class="cls-2"><path class="cls-19" d="M275.37,306.63l-10.44,2.6a63,63,0,0,1,7.66-2.86L283,303.76a62.53,62.53,0,0,0-7.66,2.87"/></g></g></g><g class="cls-2"><g class="cls-35"><g class="cls-2"><path class="cls-20" d="M263.13,316.59l-10.44,2.6a19,19,0,0,1,6.83-7.09L270,309.49a19,19,0,0,0-6.83,7.1"/><path class="cls-19" d="M270,309.49l-10.44,2.61a33.28,33.28,0,0,1,5.41-2.87l10.44-2.6a32.34,32.34,0,0,0-5.41,2.86"/></g></g></g><g class="cls-2"><g class="cls-36"><g class="cls-2"><path class="cls-11" d="M408,565.81l-10.44,2.6c-33.1,8.25-66.62,5.06-97-7.14l10.45-2.6c30.34,12.2,63.86,15.39,97,7.14"/></g></g></g><g class="cls-2"><g class="cls-37"><g class="cls-2"><path class="cls-20" d="M416.41,599.58,406,602.19a185.33,185.33,0,0,1-100.22-3l10.44-2.61a185.23,185.23,0,0,0,100.22,3"/></g></g></g><path class="cls-38" d="M462.92,408.16c5.38,1.42,8.87,1.93,10.61,3.8s4.31,12.27,3.38,25.4S459.5,467.05,451,470.06c-3.57,1.28-5.33,3.25-10.15,4.46-6.64,1.65-19.09,1.85-50.08-3.24C337.32,462.5,293.34,415.89,290.1,413s-26.4-23.35-32.78-48.93,2.76-41.21,5.81-47.49,11.78-9.78,12.24-10a62.53,62.53,0,0,1,7.66-2.87c.2,0,.4-.1.6-.15,2.74-.68,6.51-1.26,12.58,7.49,6.56,9.43,22.44,32.65,24.26,34.95s3.4,5.12,2.68,9-1,6.24-2.59,9.88-3.3,8-4.86,10.88c-1.7,3.18-3.48,6.6.57,11.11s17.85,19.14,35.4,29.42c22.54,13.16,39.22,14.86,44.62,16.27a11.55,11.55,0,0,0,5.6.38c1.95-.48,3.28-1.87,4.36-4.25,1.91-4.16,8.09-18.14,10-24.13,1.05-3.38,2.6-4.83,4.6-5.33a15.15,15.15,0,0,1,5.44.07C431,400,457.52,406.75,462.92,408.16Z"/><g class="cls-2"><g class="cls-39"><g class="cls-2"><path class="cls-20" d="M440.87,474.52l-10.44,2.6c-6.64,1.66-19.09,1.85-50.08-3.23-53.47-8.78-97.45-55.39-100.69-58.28s-26.4-23.35-32.78-48.92,2.76-41.22,5.81-47.5l10.44-2.6c-3.05,6.28-12.18,21.92-5.81,47.49S286.87,410.15,290.1,413s47.22,49.49,100.69,58.27c31,5.09,43.44,4.89,50.08,3.24"/></g></g></g><polygon class="cls-19" points="253.92 596.21 243.47 598.81 300.59 561.27 311.03 558.67 253.92 596.21"/><polygon class="cls-11" points="253.91 596.21 243.47 598.81 247.31 527.53 257.75 524.93 253.91 596.21"/><g class="cls-2"><g class="cls-40"><g class="cls-2"><path class="cls-11" d="M257.75,524.93l-10.44,2.6a194.72,194.72,0,0,1-57.1-96.81c-19.82-79.5,11.08-158.89,71.09-198.24l10.45-2.6c-60,39.35-90.91,118.74-71.1,198.23a194.71,194.71,0,0,0,57.1,96.82"/><path class="cls-11" d="M271.75,229.88l-10.45,2.6a154.13,154.13,0,0,1,47.33-20.7l10.44-2.6a154,154,0,0,0-47.32,20.7"/></g></g></g><path class="cls-11" d="M319.07,209.18c89.79-22.39,182.8,39.37,207.32,137.72S497.78,543.42,408,565.81c-33.1,8.25-66.62,5.06-97-7.14l-57.11,37.54,3.83-71.28a194.71,194.71,0,0,1-57.1-96.82C176.13,329.77,229.25,231.57,319.07,209.18ZM476.91,437.36c.93-13.13-1.66-23.54-3.38-25.4s-5.23-2.38-10.61-3.81S431,400,426.25,399.34a15.15,15.15,0,0,0-5.44-.07c-2,.5-3.55,2-4.6,5.33-1.87,6-8,20-10,24.13-1.08,2.38-2.41,3.77-4.36,4.25a11.55,11.55,0,0,1-5.6-.38c-5.4-1.41-22.08-3.1-44.62-16.27-17.55-10.28-31.32-24.91-35.4-29.42S314,379,315.7,375.8c1.56-2.88,3.24-7.26,4.86-10.88s1.87-6,2.59-9.88-.82-6.69-2.68-9-17.7-25.52-24.26-34.95c-6.07-8.75-9.84-8.17-12.57-7.49l-.61.15a62.53,62.53,0,0,0-7.66,2.87c-.46.18-9.2,3.67-12.24,10s-12.18,21.92-5.81,47.49S286.87,410.15,290.1,413s47.22,49.49,100.69,58.27c31,5.09,43.44,4.89,50.08,3.24,4.82-1.21,6.58-3.18,10.15-4.46,8.48-3,25-19.57,25.89-32.7"/><g class="cls-2"><g class="cls-41"><g class="cls-42"><image width="338" height="392" transform="translate(194.78 204.63)" /></g></g></g><g class="cls-2"><g class="cls-43"><g class="cls-2"><path class="cls-20" d="M224.9,538.39,214.46,541a233.36,233.36,0,0,1-55.1-102.59c-23.59-94.65,13-188.92,84.4-235.72l10.44-2.6c-71.37,46.79-108,141.07-84.39,235.72A233.27,233.27,0,0,0,224.9,538.39"/><path class="cls-19" d="M254.2,200.09l-10.44,2.6A183.83,183.83,0,0,1,300.21,178l10.44-2.6a183.59,183.59,0,0,0-56.45,24.69"/></g></g></g><path class="cls-38" d="M310.65,175.4c107-26.68,217.38,46.66,246.59,163.81s-33.85,233.7-140.83,260.37a185.23,185.23,0,0,1-100.22-3l-97.88,64.35,6.59-122.5a233.27,233.27,0,0,1-55.09-102.58C140.6,318.66,203.65,202.08,310.65,175.4ZM408,565.81c89.79-22.39,142.91-120.6,118.4-218.91S408.86,186.79,319.07,209.17,176.14,329.77,200.66,428.11a194.73,194.73,0,0,0,57.09,96.82l-3.83,71.28L311,558.67c30.34,12.2,63.86,15.39,97,7.14"/><polygon class="cls-44" points="218.31 660.89 207.87 663.49 214.46 541 224.9 538.39 218.31 660.89"/></g><image class="cls-45" width="386" height="210" transform="translate(139.73 121.37)" /><path class="cls-46" d="M513.52,252.32c-2.93-16.72-84-16.51-181.18.47s-173.51,44.3-170.59,61C149.45,224.88,118.52,173,309.08,140.74,511.43,106.47,493.26,147.77,513.52,252.32Z"/><path class="cls-47" d="M447.89,44.31S499.31,56.38,527,92.86c32.52,42.78,53.83,90.06,94.74,108s72.39,10.67,72.39,10.67l-1.2-8.7S626.67,215,582.65,153.12C554.74,113.89,518.61,32,447.89,44.31Z"/><path class="cls-48" d="M743.88,204.48s-35.6,16.58-61.77,16.25-39.69-9.53-40.26-13.82,4-16.58,35.7-18.28a221.1,221.1,0,0,0,56.11-10.33C738.22,183.75,741.74,192.14,743.88,204.48Z"/><path class="cls-49" d="M737.05,183.28a132.72,132.72,0,0,1-27.88,8.45,197.4,197.4,0,0,1-35.09,3.3s18.31,2.67,44.25-2a210.75,210.75,0,0,0,21.15-4.71A47.19,47.19,0,0,0,737.05,183.28Z"/><path class="cls-50" d="M742.12,196.34c-1.77.78-3.57,1.54-5.44,2.25a197.68,197.68,0,0,1-33.84,9.83s17-.77,40-9.1C742.61,198.3,742.37,197.3,742.12,196.34Z"/></g></g></g></svg>