<svg xmlns="http://www.w3.org/2000/svg" xmlns:xlink="http://www.w3.org/1999/xlink" viewBox="0 0 750.92 331.85" xmlns:v="https://vecta.io/nano"><style><![CDATA[.B{isolation:isolate}.J,.X{mix-blend-mode:multiply}.w{fill:none}.x{fill:#20384f}.y{fill:#adadad}.z{fill:#ababab}.AA{fill:#f8f8f8}.AB{fill:#858585}.AC{fill:#a9a9a9}]]></style><defs><clipPath id="A"><path d="M70.28 319.1L58 322.17c-12.22 3.05-24.85-5.42-28.21-18.9l12.3-3.07c3.34 13.49 15.97 21.95 28.19 18.9z" class="w"/></clipPath><clipPath id="B"><path d="M13.13 184.14L.83 187.2c-3.36-13.48 3.81-26.88 16-29.93l12.3-3.07c-12.19 3.05-19.36 16.45-16 29.94z" class="w"/></clipPath><clipPath id="C"><path d="M379.6 163.81l-3.69.92a9.74 9.74 0 0 0 6.48-5.33l3.69-.92a9.74 9.74 0 0 1-6.48 5.33z" class="w"/></clipPath><clipPath id="D"><path d="M386.08 158.48l-3.69.92q2.16-4.26.68-10.21c-1-4-2.78-6.84-5.34-8.62a9.76 9.76 0 0 0-8.23-1.57l3.69-.92a9.76 9.76 0 0 1 8.23 1.55c2.57 1.78 4.35 4.64 5.34 8.62s.76 7.39-.68 10.23z" class="w"/></clipPath><clipPath id="E"><path d="M387.37,176.61l-3.69.92a17.06,17.06,0,0,1-16.52-4.39l3.69-.92a17.06,17.06,0,0,0,16.52,4.39Z" class="w"/></clipPath><clipPath id="F"><path d="M361.53,134.86l-3.69.92a16.75,16.75,0,0,1,12.51-11.72l3.69-.92a16.75,16.75,0,0,0-12.51,11.72Z" class="w"/></clipPath><clipPath id="G"><path d="M322.28 178.1l-3.69.92a9.7 9.7 0 0 0 6.47-5.33l3.69-.92a9.7 9.7 0 0 1-6.47 5.33z" class="w"/></clipPath><clipPath id="H"><path d="M328.75,172.77l-3.69.92q2.18-4.24.68-10.21t-5.32-8.62a9.79,9.79,0,0,0-8.24-1.55l3.69-.92a9.79,9.79,0,0,1,8.24,1.55q3.84,2.67,5.32,8.62T328.75,172.77Z" class="w"/></clipPath><clipPath id="I"><path d="M330,190.9l-3.69.92a17.06,17.06,0,0,1-9.2-.08,16.85,16.85,0,0,1-7.31-4.31l3.69-.92A17.07,17.07,0,0,0,330,190.9Z" class="w"/></clipPath><clipPath id="J"><path d="M304.22,149.15l-3.69.92a16.87,16.87,0,0,1,4.36-7.32,17.12,17.12,0,0,1,8.13-4.4l3.69-.92a16.73,16.73,0,0,0-12.49,11.72Z" class="w"/></clipPath><clipPath id="K"><path d="M735 199.49l-8 2.84a14.65 14.65 0 0 0 1.82-1.72l8-2.84a14.65 14.65 0 0 1-1.82 1.72z" class="w"/></clipPath><clipPath id="L"><path d="M732.09 201.15l-8 2.84 1-.54a11 11 0 0 0 1.91-1.12l8-2.84a11.22 11.22 0 0 1-1.9 1.12l-1.01.54z" class="w"/></clipPath><clipPath id="M"><path d="M736.83 197.77l-8 2.84a17.23 17.23 0 0 0-2-1.26c-12.34-6.75-25.08-13.28-37.4-19.58l8-2.85 37.4 19.59a16 16 0 0 1 2 1.26z" class="w"/></clipPath><clipPath id="N"><path d="M703.08 216.61l-8 2.84 12.19-6.31 12.69-6.89 8-2.84-12.69 6.89-12.19 6.31z" class="w"/></clipPath><clipPath id="O"><path d="M741.33 279.11l-8 2.84c-9.68-11.2-17.84-20.94-24.26-29-2.19-2.73-4.6-5.59-7.14-8.61-3.42-4-7-8.25-10.09-12.32a8.66 8.66 0 0 1-1.7-6.71 7.18 7.18 0 0 1 3.75-5.29l8-2.84a7.18 7.18 0 0 0-3.75 5.29 8.66 8.66 0 0 0 1.7 6.71c3.14 4.07 6.67 8.27 10.09 12.32l7.14 8.61c6.42 8.06 14.58 17.8 24.26 29z" class="w"/></clipPath><clipPath id="P"><path d="M719.47 302.13l-8 2.85 10.87-11.45 11-11.58 8-2.84-11 11.58-10.87 11.44z" class="w"/></clipPath><clipPath id="Q"><path d="M670.27,251l-6,2.16,6-2.16Z" class="w"/></clipPath><clipPath id="R"><path d="M662.31 253.87a6.73 6.73 0 0 0-2 .41l8-2.84a6.73 6.73 0 0 1 2-.41l-8 2.84.23-.08.23-.08.23-.08.24-.09.24-.08.25-.09.25-.09.25-.09.76-.27.78-.28.78-.28.78-.28.77-.27.75-.27.73-.26.69-.25c3.92-.18 7 2.76 9.84 6l35.32 40.57-7.95 2.84.93-.33 1-.35 1-.37 1-.37 1-.37 1-.36 1-.36.93-.33v.05l4 4.52-8 2.85-4-4.53-35.36-40.62c-2.63-3.24-5.75-6.18-9.67-6z" class="w"/></clipPath><clipPath id="S"><path d="M722.49 312.07l-8 2.84a8 8 0 0 1-8.63-2.42l-4.92-5.52-35.32-40.59a19.5 19.5 0 0 0-2.32-2.34l8-2.84a18.75 18.75 0 0 1 2.32 2.34l35.32 40.58 4.92 5.53a8 8 0 0 0 8.63 2.42z" class="w"/></clipPath><clipPath id="T"><path d="M660.45 261.22l-8 2.84a9 9 0 0 0 .43-1.07 14.28 14.28 0 0 1 1.33-2.91c1.49-2.4 3.35-4.85 6-5.8l8-2.84c-2.67.95-4.53 3.4-6 5.8a14.47 14.47 0 0 0-1.33 2.9 8.6 8.6 0 0 1-.43 1.08z" class="w"/></clipPath><clipPath id="U"><path d="M645.1 289l-8 2.84a1.72 1.72 0 0 0 .93-.8l11.26-21 3.16-6 8-2.84-3.16 6-11.26 21a1.72 1.72 0 0 1-.93.8z" class="w"/></clipPath><clipPath id="V"><path d="M695.18 175.77l-8 2.84-42.19-21.51q-11-5.58-22-11.19l-18-9.19-15.46-7.88-11.37-5.84a16.16 16.16 0 0 0-2.5-1.11l8-2.84a15.75 15.75 0 0 1 2.5 1.11l11.35 5.84 15.49 7.88 18 9.19q11 5.61 22 11.19l42.18 21.51z" class="w"/></clipPath><clipPath id="W"><path d="M633.15 259.37l-8 2.84q-24-67.35-48-134.71a35.56 35.56 0 0 1-1.48-5.57l8-2.84a35.85 35.85 0 0 0 1.48 5.57q23.95 67.34 48 134.71z" class="w"/></clipPath><clipPath id="X"><path d="M645.1 289l-8 2.84a1.34 1.34 0 0 1-1.14-.08c-.37-.22-.54-.53-1.15-2.37l-.42-1.27 8-2.84.42 1.27c.61 1.84.78 2.15 1.15 2.37a1.34 1.34 0 0 0 1.14.08z" class="w"/></clipPath><clipPath id="Y"><path d="M624.61 262.41l-8 2.85q-24-67.37-48-134.72a46.92 46.92 0 0 1-2.11-8.27c-.67-4.36.7-6.88 2-8.22a6.82 6.82 0 0 1 2.71-1.76l8-2.85a6.94 6.94 0 0 0-2.71 1.77c-1.27 1.34-2.64 3.86-2 8.22a46.92 46.92 0 0 0 2.11 8.27q23.95 67.37 48 134.71z" class="w"/></clipPath><clipPath id="Z"><path d="M634.18 289.3l-8 2.84-.33-1 8-2.84c.15.34.23.7.33 1z" class="w"/></clipPath><clipPath id="a"><path d="M648.47 298.41l-8 2.84a10 10 0 0 1-8.54-.91c-3.81-2.26-5-5.84-5.75-8.2l8-2.84c.77 2.36 1.94 5.94 5.75 8.2a10 10 0 0 0 8.54.91z" class="w"/></clipPath><path id="b" d="M719.47 302.13l-8 2.85-4-4.53-35.36-40.62c-2.8-3.2-5.92-6.14-9.84-6a6.73 6.73 0 0 0-2 .41l8-2.84a6.73 6.73 0 0 1 2-.41c3.92-.18 7 2.76 9.84 6l35.36 40.62 4 4.52"/></defs><g class="B"><g class="B"><path d="M29.16 154.21l-12.3 3.06L632.85 3.69l12.3-3.07L29.16 154.21z" fill="#864d3f"/><g class="B" clip-path="url(#A)"><g><path d="M70.28,319.1,58,322.17c-12.22,3.05-24.85-5.42-28.21-18.9l12.3-3.07c3.36,13.49,16,21.95,28.21,18.9" fill="#854c3e"/></g></g><path d="M.828 187.202l12.303-3.068L42.07 300.201l-12.303 3.068z" fill="#814a3d"/><g class="B" clip-path="url(#B)"><g><path d="M13.13,184.14.83,187.2c-2.72-10.91,1.46-21.77,9.63-27.13L22.77,157c-8.18,5.36-12.36,16.22-9.64,27.14" fill="#854c3e"/><path d="M22.77,157l-12.31,3.07a20.91,20.91,0,0,1,6.4-2.8l12.3-3.07a21,21,0,0,0-6.39,2.8" fill="#8a4f41"/></g></g><path d="M645.16.62C657.38-2.43,670,6,673.37,19.52l28.94,116.07c3.36,13.48-3.82,26.88-16,29.93L70.28,319.1c-12.22,3-24.85-5.41-28.21-18.9L13.13,184.14c-3.36-13.49,3.81-26.89,16-29.94Z" fill="#f48d73"/></g><image class="J" width="251" height="134" transform="translate(217.97 102.85)" opacity=".15"/><g class="B"><path d="M459.99 102.5l-3.69.92 15.62-3.89 3.69-.92-15.62 3.89z" class="y"/><path d="M457.29 137.7l-3.69.92 2.7-35.2 3.69-.92-2.7 35.2zm-7.65 48.81l-3.69.92 4.22-29.15 3.69-.92-4.22 29.15z" class="z"/><path d="M422.17 111.94l-3.69.92 16.13-4.03 3.69-.92-16.13 4.03z" class="y"/><path d="M453.86 157.36l-3.69.92-31.69-45.42 3.69-.92 31.69 45.42z" fill="#a8a8a8"/><path d="M475.61 98.61l-10.43 84.02-15.54 3.88 4.22-29.15-31.69-45.42 16.13-4.03 18.99 29.79 2.7-35.2 15.62-3.89z" class="AA"/><path d="M394.676 100.776l3.687-.919 17.189 68.94-3.687.919z" class="AC"/><path d="M398.355 99.852l14.438-3.6 17.189 68.94-14.438 3.6z" class="AA"/><path d="M398.36 99.86l-3.69.92 14.44-3.6 3.69-.92-14.44 3.6z" class="y"/><g class="B" clip-path="url(#C)"><g><path d="M379.6,163.81l-3.69.92a9.34,9.34,0,0,0,4.63-2.68l3.69-.92a9.34,9.34,0,0,1-4.63,2.68" class="y"/><path d="M384.23,161.13l-3.69.92a11.36,11.36,0,0,0,1.85-2.65l3.69-.92a11.07,11.07,0,0,1-1.85,2.65" class="z"/></g></g><g class="B z" clip-path="url(#D)"><g><path d="M386.08,158.48l-3.69.92q2.16-4.26.68-10.21c-1-4-2.78-6.84-5.34-8.62A9.76,9.76,0,0,0,369.5,139l3.69-.92a9.76,9.76,0,0,1,8.23,1.55c2.57,1.78,4.35,4.64,5.34,8.62s.76,7.37-.68,10.21"/></g></g><g class="B z" clip-path="url(#E)"><g><path d="M387.37,176.61l-3.69.92a17.06,17.06,0,0,1-16.52-4.39l3.69-.92a17.06,17.06,0,0,0,16.52,4.39"/></g></g><g class="B" clip-path="url(#F)"><g><path d="M361.53,134.86l-3.69.92a17,17,0,0,1,4-7l3.69-.92a17,17,0,0,0-4,7" class="z"/><path d="M365.56,127.89l-3.69.92.34-.35a17.06,17.06,0,0,1,8.14-4.4l3.69-.92a17.06,17.06,0,0,0-8.14,4.4l-.34.35" class="y"/></g></g><path d="M395.19 131.22a34.87 34.87 0 0 1 6.26 13.38 35.28 35.28 0 0 1 .77 14.8 22.93 22.93 0 0 1-5.13 11.27 18.54 18.54 0 0 1-9.72 5.94 17.06 17.06 0 0 1-16.52-4.39l8 32-14.44 3.6-19.13-76.75 14.43-3.6 1.83 7.35A16.75 16.75 0 0 1 374 123.14a18.75 18.75 0 0 1 11.36.63 22.68 22.68 0 0 1 9.83 7.45zm-9.11 27.26q2.16-4.26.68-10.21c-1-4-2.77-6.84-5.34-8.62a9.76 9.76 0 0 0-8.23-1.55 9.56 9.56 0 0 0-6.44 5.26c-1.42 2.8-1.65 6.19-.66 10.16s2.78 6.86 5.35 8.66a9.63 9.63 0 0 0 8.16 1.63 9.74 9.74 0 0 0 6.48-5.33" class="AA"/><path d="M345.26 131.11l-3.69.92 14.44-3.6 3.69-.92-14.44 3.6z" class="y"/><path d="M341.578 132.03l3.687-.919 19.136 76.75-3.687.919z" class="AC"/><g class="B" clip-path="url(#G)"><g><path d="M322.28,178.1l-3.69.92a9.44,9.44,0,0,0,4.63-2.67l3.69-.92a9.44,9.44,0,0,1-4.63,2.67" class="y"/><path d="M326.91,175.43l-3.69.92a11.39,11.39,0,0,0,1.84-2.66l3.69-.92a11.39,11.39,0,0,1-1.84,2.66" class="z"/></g></g><g class="B z" clip-path="url(#H)"><g><path d="M328.75,172.77l-3.69.92q2.18-4.24.68-10.21t-5.32-8.62a9.79,9.79,0,0,0-8.24-1.55l3.69-.92a9.79,9.79,0,0,1,8.24,1.55q3.84,2.67,5.32,8.62t-.68,10.21"/></g></g><g class="B z" clip-path="url(#I)"><g><path d="M330,190.9l-3.69.92a17.06,17.06,0,0,1-9.2-.08,16.85,16.85,0,0,1-7.31-4.31l3.69-.92A17.07,17.07,0,0,0,330,190.9"/></g></g><g class="B" clip-path="url(#J)"><g><path d="M304.22,149.15l-3.69.92a16.8,16.8,0,0,1,4-7l3.69-.92a16.8,16.8,0,0,0-4,7" class="z"/><path d="M308.24,142.18l-3.69.92.34-.35a17.12,17.12,0,0,1,8.13-4.4l3.69-.92a17.12,17.12,0,0,0-8.13,4.4l-.34.35" class="y"/></g></g><path d="M337.88,145.51a38.82,38.82,0,0,1,7,28.18A23,23,0,0,1,339.78,185,18.53,18.53,0,0,1,330,190.9a17.07,17.07,0,0,1-16.51-4.39l8,32-14.43,3.6L288,145.4l14.43-3.6,1.84,7.35a16.73,16.73,0,0,1,12.49-11.72,18.78,18.78,0,0,1,11.37.63A22.7,22.7,0,0,1,337.88,145.51Zm-9.13,27.26q2.17-4.25.68-10.21t-5.32-8.62a9.79,9.79,0,0,0-8.24-1.55,9.59,9.59,0,0,0-6.44,5.26q-2.15,4.2-.65,10.16t5.34,8.66a9.74,9.74,0,0,0,14.63-3.7" class="AA"/><path d="M287.95 145.4l-3.69.92 14.43-3.6 3.69-.92-14.43 3.6z" class="y"/><path d="M284.257 146.323l3.687-.919 19.136 76.75-3.687.919z" class="AC"/><path d="M279.13 202.81l-3.69.92-6.43-10.67 3.69-.92 6.43 10.67zm-13.21-22.04l-3.69.92-13.32-22.1 3.69-.93 13.32 22.11z" fill="#a8a8a8"/><path d="M251.31 184.41l-3.69.92 14.61-3.64 3.69-.92-14.61 3.64zm-11.37-41.29l-3.69.92 16.72-4.16 3.69-.92-16.72 4.16z" class="y"/><path d="M234.81 213.86l-3.69.92 5.13-70.74 3.69-.92-5.13 70.74z" class="z"/><path d="M256.66 139l37.74 60-15.27 3.81-6.43-10.67-22.12 5.51-.66 12.44-15.11 3.77 5.13-70.74zm-5.35 45.46l14.61-3.64-13.32-22.1-1.29 25.74" class="AA"/></g><image class="X" width="197" height="219" transform="translate(549.97 112.85)" opacity=".3"/><g class="B"><g class="B x" clip-path="url(#K)"><g><path d="M735,199.49l-8,2.84a14.65,14.65,0,0,0,1.82-1.72l8-2.84a14.65,14.65,0,0,1-1.82,1.72"/></g></g><g class="B x" clip-path="url(#L)"><g><path d="M732.09 201.15l-8 2.84 1-.54a11 11 0 0 0 1.91-1.12l8-2.84a11.22 11.22 0 0 1-1.9 1.12l-1 .54"/></g></g><path d="M727.96 203.41l-7.96 2.84 4.13-2.26 7.96-2.84-4.13 2.26z" class="x"/><g class="B x" clip-path="url(#M)"><g><path d="M736.83 197.77l-8 2.84a17.23 17.23 0 0 0-2-1.26c-12.34-6.75-25.08-13.28-37.4-19.58l8-2.85 37.4 19.59a16 16 0 0 1 2 1.26"/></g></g><path d="M697.43 176.93l-7.96 2.83-2.25-1.15 7.96-2.84 2.25 1.16z" fill="#1f364c"/><g class="B x" clip-path="url(#N)"><g><path d="M703.08 216.61l-8 2.84 12.19-6.31 12.69-6.89 8-2.84-12.69 6.89-12.19 6.31"/></g></g><path d="M701.89 217.22l-7.96 2.84 1.19-.61 7.96-2.84-1.19.61z" class="x"/><g class="B x" clip-path="url(#O)"><g><path d="M741.33 279.11l-8 2.84c-9.68-11.2-17.84-20.94-24.26-29-2.19-2.73-4.6-5.59-7.14-8.61-3.42-4-7-8.25-10.09-12.32a8.66 8.66 0 0 1-1.7-6.71 7.18 7.18 0 0 1 3.75-5.29l8-2.84a7.18 7.18 0 0 0-3.75 5.29 8.66 8.66 0 0 0 1.7 6.71c3.14 4.07 6.67 8.27 10.09 12.32l7.14 8.61c6.42 8 14.58 17.76 24.26 29"/></g></g><g class="B x" clip-path="url(#P)"><g><path d="M719.47 302.13l-8 2.85 10.87-11.45 11-11.58 8-2.84-21.87 23.02"/></g></g><g class="B AB" clip-path="url(#Q)"><g><use xlink:href="#b"/></g></g><g class="B AB" clip-path="url(#R)"><g><use xlink:href="#b"/></g></g><g class="B x" clip-path="url(#S)"><g><path d="M722.49 312.07l-8 2.84a8 8 0 0 1-8.63-2.42l-4.92-5.52-35.32-40.59a19.5 19.5 0 0 0-2.32-2.34l8-2.84a18.75 18.75 0 0 1 2.32 2.34l35.32 40.58 4.92 5.53a8 8 0 0 0 8.63 2.42"/></g></g><g class="B x" clip-path="url(#T)"><g><path d="M660.45,261.22l-8,2.84a9,9,0,0,0,.43-1.07,14.28,14.28,0,0,1,1.33-2.91c1.49-2.4,3.35-4.85,6-5.8l8-2.84c-2.67.95-4.53,3.4-6,5.8a14.47,14.47,0,0,0-1.33,2.9,8.6,8.6,0,0,1-.43,1.08"/></g></g><g class="B x" clip-path="url(#U)"><g><path d="M645.1 289l-8 2.84a1.72 1.72 0 0 0 .93-.8l11.26-21 3.16-6 8-2.84-3.16 6-11.26 21a1.72 1.72 0 0 1-.93.8"/></g></g><g class="B x" clip-path="url(#V)"><g><path d="M695.18 175.77l-8 2.84-42.19-21.51q-11-5.58-22-11.19l-18-9.19-15.46-7.88-11.37-5.84a16.16 16.16 0 0 0-2.5-1.11l8-2.84a15.75 15.75 0 0 1 2.5 1.11l11.35 5.84 15.49 7.88 18 9.19q11 5.61 22 11.19l42.19 21.51"/></g></g><path d="M625.189 262.194l7.958-2.84 9.243 25.9-7.958 2.84z" fill="gray"/><g class="B AB" clip-path="url(#W)"><g><path d="M633.15,259.37l-8,2.84q-24-67.35-48-134.71a35.56,35.56,0,0,1-1.48-5.57l8-2.84a35.85,35.85,0,0,0,1.48,5.57q24,67.36,48,134.71"/></g></g><path d="M583.62 119.09a15.75 15.75 0 0 1 2.5 1.11l11.39 5.8 15.49 7.88 18 9.19q11 5.61 22 11.19l42.19 21.51 2.25 1.15 37.4 19.59a16 16 0 0 1 2 1.26 14.65 14.65 0 0 1-1.82 1.72 11.22 11.22 0 0 1-1.9 1.12l-1 .54-4.12 2.26-12.69 6.89-12.19 6.31-1.19.61a7.18 7.18 0 0 0-3.75 5.29 8.66 8.66 0 0 0 1.7 6.71c3.14 4.07 6.67 8.27 10.09 12.32l7.14 8.61c6.42 8 14.58 17.76 24.26 29l-11 11.58-10.87 11.44-4-4.52-35.36-40.62c-2.8-3.2-5.92-6.14-9.84-6a6.73 6.73 0 0 0-2 .41c-2.67.95-4.53 3.4-6 5.8a14.47 14.47 0 0 0-1.33 2.9 8.6 8.6 0 0 1-.43 1.08l-3.16 6-11.25 21a1.77 1.77 0 0 1-.94.8 1.34 1.34 0 0 1-1.14-.08c-.37-.22-.54-.53-1.15-2.37-.13-.43-.27-.85-.42-1.27l-9.24-25.9q-24-67.35-48-134.71a35.85 35.85 0 0 1-1.62-5.6z" fill="#f6f6f6"/><g class="B AB" clip-path="url(#X)"><g><path d="M645.1 289l-8 2.84a1.34 1.34 0 0 1-1.14-.08c-.37-.22-.54-.53-1.15-2.37l-.42-1.27 8-2.84.42 1.27c.61 1.84.78 2.15 1.15 2.37a1.34 1.34 0 0 0 1.14.08"/></g></g><path d="M616.661 265.243l7.958-2.84 9.243 25.9-7.958 2.84z" fill="#1f364d"/><g class="B x" clip-path="url(#Y)"><g><path d="M624.61,262.41l-8,2.85q-24-67.37-48-134.72a46.92,46.92,0,0,1-2.11-8.27c-.67-4.36.7-6.88,2-8.22a6.82,6.82,0,0,1,2.71-1.76l8-2.85a6.94,6.94,0,0,0-2.71,1.77c-1.27,1.34-2.64,3.86-2,8.22a46.92,46.92,0,0,0,2.11,8.27q24,67.36,48.05,134.71"/></g></g><g class="B x" clip-path="url(#Z)"><g><path d="M634.18 289.3l-8 2.84-.33-1 8-2.84.33 1"/></g></g><g class="B x" clip-path="url(#a)"><g><path d="M648.47,298.41l-8,2.84a10,10,0,0,1-8.54-.91c-3.81-2.26-5-5.84-5.75-8.2l8-2.84c.77,2.36,1.94,5.94,5.75,8.2a10,10,0,0,0,8.54.91"/></g></g><path d="M738.57 187.74c3.07 1.68 7.24 4.48 7.85 9.26s-2.89 8.29-5.57 10.5a19 19 0 0 1-3.37 2.09l-.84.44-4.12 2.27-12.81 6.95-11.41 5.91c2.6 3.29 5.46 6.68 8.24 10l7.31 8.81c6.49 8.12 14.82 18 24.73 29.51 3.11 3.57 3.12 9.06 0 12.24l-11.64 12.26-11.69 12.28a7.31 7.31 0 0 1-2.8 1.83 8 8 0 0 1-8.63-2.42l-4.92-5.53-35.32-40.58a18.75 18.75 0 0 0-2.32-2.34 12.26 12.26 0 0 0-1.38 1.91 8.61 8.61 0 0 0-.46 1.12 16.24 16.24 0 0 1-1 2.3q-1.59 3-3.16 6l-11.34 21.12a10.29 10.29 0 0 1-5.52 4.77 10 10 0 0 1-8.54-.91c-3.81-2.26-5-5.84-5.75-8.2a23.31 23.31 0 0 0-.33-1l-9.24-25.91q-24-67.35-48.05-134.71a46.92 46.92 0 0 1-2.11-8.27c-.67-4.36.7-6.88 2-8.22a6.94 6.94 0 0 1 2.71-1.77 9.44 9.44 0 0 1 5.1-.21 21.28 21.28 0 0 1 5.38 2.06l11.38 5.8q7.74 3.93 15.47 7.89l18 9.19 22 11.18 42.23 21.52 2.25 1.16 37.67 19.7zM735 199.49a14.65 14.65 0 0 0 1.82-1.72 16 16 0 0 0-2-1.26c-12.34-6.75-25.08-13.28-37.4-19.59l-2.25-1.15-42.19-21.51q-11-5.58-22-11.19l-18-9.19-15.47-7.88-11.39-5.79a15.75 15.75 0 0 0-2.5-1.11 35.85 35.85 0 0 0 1.48 5.57q24 67.36 48 134.71l9.24 25.9c.15.42.29.84.42 1.27.61 1.84.78 2.15 1.15 2.37a1.34 1.34 0 0 0 1.14.08 1.72 1.72 0 0 0 .93-.8l11.26-21 3.16-6a8.6 8.6 0 0 0 .43-1.08 14.47 14.47 0 0 1 1.33-2.9c1.49-2.4 3.35-4.85 6-5.8a6.73 6.73 0 0 1 2-.41c3.92-.18 7 2.76 9.84 6l35.36 40.62 4 4.52 10.87-11.44 11-11.58c-9.68-11.2-17.84-20.94-24.26-29-2.19-2.73-4.59-5.59-7.14-8.61-3.42-4-6.95-8.25-10.09-12.32a8.66 8.66 0 0 1-1.7-6.71 7.18 7.18 0 0 1 3.75-5.29l1.19-.61 12.19-6.31 12.69-6.89 4.13-2.26c.33-.19.68-.36 1-.54a11.22 11.22 0 0 0 1.9-1.12" fill="#3c6892"/></g></g></svg>