<svg xmlns="http://www.w3.org/2000/svg" xmlns:xlink="http://www.w3.org/1999/xlink" viewBox="0 0 750.92 331.85"><defs><style>.cls-1{fill:none;}.cls-2{isolation:isolate;}.cls-3{fill:#864d3f;}.cls-4{clip-path:url(#clip-path);}.cls-5{fill:#854c3e;}.cls-6{fill:#814a3d;}.cls-7{clip-path:url(#clip-path-2);}.cls-8{fill:#8a4f41;}.cls-9{fill:#f48d73;}.cls-10,.cls-24{mix-blend-mode:multiply;}.cls-10{opacity:0.15;}.cls-11{fill:#adadad;}.cls-12{fill:#ababab;}.cls-13{fill:#a8a8a8;}.cls-14{fill:#f8f8f8;}.cls-15{fill:#a9a9a9;}.cls-16{clip-path:url(#clip-path-3);}.cls-17{clip-path:url(#clip-path-4);}.cls-18{clip-path:url(#clip-path-5);}.cls-19{clip-path:url(#clip-path-6);}.cls-20{clip-path:url(#clip-path-7);}.cls-21{clip-path:url(#clip-path-8);}.cls-22{clip-path:url(#clip-path-9);}.cls-23{clip-path:url(#clip-path-10);}.cls-24{opacity:0.3;}.cls-25{clip-path:url(#clip-path-11);}.cls-26{fill:#20384f;}.cls-27{clip-path:url(#clip-path-12);}.cls-28{clip-path:url(#clip-path-13);}.cls-29{fill:#1f364c;}.cls-30{clip-path:url(#clip-path-14);}.cls-31{clip-path:url(#clip-path-15);}.cls-32{clip-path:url(#clip-path-16);}.cls-33{clip-path:url(#clip-path-17);}.cls-34{fill:#858585;}.cls-35{clip-path:url(#clip-path-18);}.cls-36{clip-path:url(#clip-path-19);}.cls-37{clip-path:url(#clip-path-20);}.cls-38{clip-path:url(#clip-path-21);}.cls-39{clip-path:url(#clip-path-22);}.cls-40{fill:gray;}.cls-41{clip-path:url(#clip-path-23);}.cls-42{fill:#f6f6f6;}.cls-43{clip-path:url(#clip-path-24);}.cls-44{fill:#1f364d;}.cls-45{clip-path:url(#clip-path-25);}.cls-46{clip-path:url(#clip-path-26);}.cls-47{clip-path:url(#clip-path-27);}.cls-48{fill:#3c6892;}</style><clipPath id="clip-path"><path class="cls-1" d="M70.28,319.1,58,322.17c-12.22,3.05-24.85-5.42-28.21-18.9l12.3-3.07C45.43,313.69,58.06,322.15,70.28,319.1Z"/></clipPath><clipPath id="clip-path-2"><path class="cls-1" d="M13.13,184.14.83,187.2c-3.36-13.48,3.81-26.88,16-29.93l12.3-3.07C16.94,157.25,9.77,170.65,13.13,184.14Z"/></clipPath><clipPath id="clip-path-3"><path class="cls-1" d="M379.6,163.81l-3.69.92a9.74,9.74,0,0,0,6.48-5.33l3.69-.92A9.74,9.74,0,0,1,379.6,163.81Z"/></clipPath><clipPath id="clip-path-4"><path class="cls-1" d="M386.08,158.48l-3.69.92q2.16-4.26.68-10.21c-1-4-2.78-6.84-5.34-8.62A9.76,9.76,0,0,0,369.5,139l3.69-.92a9.76,9.76,0,0,1,8.23,1.55c2.57,1.78,4.35,4.64,5.34,8.62S387.52,155.64,386.08,158.48Z"/></clipPath><clipPath id="clip-path-5"><path class="cls-1" d="M387.37,176.61l-3.69.92a17.06,17.06,0,0,1-16.52-4.39l3.69-.92a17.06,17.06,0,0,0,16.52,4.39Z"/></clipPath><clipPath id="clip-path-6"><path class="cls-1" d="M361.53,134.86l-3.69.92a16.75,16.75,0,0,1,12.51-11.72l3.69-.92a16.75,16.75,0,0,0-12.51,11.72Z"/></clipPath><clipPath id="clip-path-7"><path class="cls-1" d="M322.28,178.1l-3.69.92a9.7,9.7,0,0,0,6.47-5.33l3.69-.92A9.7,9.7,0,0,1,322.28,178.1Z"/></clipPath><clipPath id="clip-path-8"><path class="cls-1" d="M328.75,172.77l-3.69.92q2.18-4.24.68-10.21t-5.32-8.62a9.79,9.79,0,0,0-8.24-1.55l3.69-.92a9.79,9.79,0,0,1,8.24,1.55q3.84,2.67,5.32,8.62T328.75,172.77Z"/></clipPath><clipPath id="clip-path-9"><path class="cls-1" d="M330,190.9l-3.69.92a17.06,17.06,0,0,1-9.2-.08,16.85,16.85,0,0,1-7.31-4.31l3.69-.92A17.07,17.07,0,0,0,330,190.9Z"/></clipPath><clipPath id="clip-path-10"><path class="cls-1" d="M304.22,149.15l-3.69.92a16.87,16.87,0,0,1,4.36-7.32,17.12,17.12,0,0,1,8.13-4.4l3.69-.92a16.73,16.73,0,0,0-12.49,11.72Z"/></clipPath><clipPath id="clip-path-11"><path class="cls-1" d="M735,199.49l-8,2.84a14.65,14.65,0,0,0,1.82-1.72l8-2.84A14.65,14.65,0,0,1,735,199.49Z"/></clipPath><clipPath id="clip-path-12"><path class="cls-1" d="M732.09,201.15l-8,2.84c.33-.19.68-.36,1-.54a11,11,0,0,0,1.91-1.12l8-2.84a11.22,11.22,0,0,1-1.9,1.12C732.77,200.79,732.42,201,732.09,201.15Z"/></clipPath><clipPath id="clip-path-13"><path class="cls-1" d="M736.83,197.77l-8,2.84a17.23,17.23,0,0,0-2-1.26c-12.34-6.75-25.08-13.28-37.4-19.58l8-2.85c12.32,6.31,25.06,12.84,37.4,19.59A16,16,0,0,1,736.83,197.77Z"/></clipPath><clipPath id="clip-path-14"><path class="cls-1" d="M703.08,216.61l-8,2.84c4-2,8.16-4.17,12.19-6.31,4.25-2.24,8.54-4.6,12.69-6.89l8-2.84c-4.15,2.29-8.44,4.65-12.69,6.89C711.24,212.44,707.09,214.56,703.08,216.61Z"/></clipPath><clipPath id="clip-path-15"><path class="cls-1" d="M741.33,279.11l-8,2.84c-9.68-11.2-17.84-20.94-24.26-29-2.19-2.73-4.6-5.59-7.14-8.61-3.42-4-7-8.25-10.09-12.32a8.66,8.66,0,0,1-1.7-6.71,7.18,7.18,0,0,1,3.75-5.29l8-2.84a7.18,7.18,0,0,0-3.75,5.29,8.66,8.66,0,0,0,1.7,6.71c3.14,4.07,6.67,8.27,10.09,12.32,2.55,3,5,5.88,7.14,8.61C723.49,258.17,731.65,267.91,741.33,279.11Z"/></clipPath><clipPath id="clip-path-16"><path class="cls-1" d="M719.47,302.13l-8,2.85c3.49-3.63,7.23-7.6,10.87-11.45s7.45-7.9,11-11.58l8-2.84c-3.54,3.67-7.32,7.69-11,11.58S723,298.51,719.47,302.13Z"/></clipPath><clipPath id="clip-path-17"><path class="cls-1" d="M670.27,251l-6,2.16,6-2.16Z"/></clipPath><clipPath id="clip-path-18"><path class="cls-1" d="M662.31,253.87a6.73,6.73,0,0,0-2,.41l8-2.84a6.73,6.73,0,0,1,2-.41l-8,2.84.23-.08.23-.08.23-.08.24-.09.24-.08.25-.09.25-.09.25-.09.76-.27.78-.28.78-.28.78-.28.77-.27.75-.27.73-.26.69-.25c3.92-.18,7,2.76,9.84,6,10.87,12.45,23.2,26.56,35.32,40.57l-7.95,2.84.93-.33,1-.35,1-.37,1-.37,1-.37,1-.36,1-.36.93-.33,0,.05c1.49,1.72,2.73,3.12,4,4.52l-8,2.85c-1.27-1.41-2.51-2.81-4-4.53-12.13-14-24.48-28.15-35.36-40.62C669.35,256.63,666.23,253.69,662.31,253.87Z"/></clipPath><clipPath id="clip-path-19"><path class="cls-1" d="M722.49,312.07l-8,2.84a8,8,0,0,1-8.63-2.42c-1.59-1.75-3.06-3.39-4.92-5.52-12.12-14-24.44-28.14-35.32-40.59a19.5,19.5,0,0,0-2.32-2.34l8-2.84a18.75,18.75,0,0,1,2.32,2.34c10.88,12.45,23.2,26.57,35.32,40.58,1.86,2.14,3.33,3.78,4.92,5.53A8,8,0,0,0,722.49,312.07Z"/></clipPath><clipPath id="clip-path-20"><path class="cls-1" d="M660.45,261.22l-8,2.84a9,9,0,0,0,.43-1.07,14.28,14.28,0,0,1,1.33-2.91c1.49-2.4,3.35-4.85,6-5.8l8-2.84c-2.67.95-4.53,3.4-6,5.8a14.47,14.47,0,0,0-1.33,2.9A8.6,8.6,0,0,1,660.45,261.22Z"/></clipPath><clipPath id="clip-path-21"><path class="cls-1" d="M645.1,289l-8,2.84a1.72,1.72,0,0,0,.93-.8c3.83-6.92,7.61-14.06,11.26-21l3.16-6,8-2.84-3.16,6c-3.65,6.91-7.43,14-11.26,21A1.72,1.72,0,0,1,645.1,289Z"/></clipPath><clipPath id="clip-path-22"><path class="cls-1" d="M695.18,175.77l-8,2.84c-14.05-7.21-28.36-14.48-42.19-21.51q-11-5.58-22-11.19l-18-9.19c-5.16-2.63-10.3-5.26-15.46-7.88L578.16,123a16.16,16.16,0,0,0-2.5-1.11l8-2.84a15.75,15.75,0,0,1,2.5,1.11L597.51,126,613,133.88l18,9.19q11,5.61,22,11.19C666.82,161.29,681.13,168.56,695.18,175.77Z"/></clipPath><clipPath id="clip-path-23"><path class="cls-1" d="M633.15,259.37l-8,2.84q-24-67.35-48-134.71a35.56,35.56,0,0,1-1.48-5.57l8-2.84a35.85,35.85,0,0,0,1.48,5.57Q609.1,192,633.15,259.37Z"/></clipPath><clipPath id="clip-path-24"><path class="cls-1" d="M645.1,289l-8,2.84a1.34,1.34,0,0,1-1.14-.08c-.37-.22-.54-.53-1.15-2.37-.13-.43-.27-.85-.42-1.27l8-2.84c.15.42.29.84.42,1.27.61,1.84.78,2.15,1.15,2.37A1.34,1.34,0,0,0,645.1,289Z"/></clipPath><clipPath id="clip-path-25"><path class="cls-1" d="M624.61,262.41l-8,2.85q-24-67.37-48-134.72a46.92,46.92,0,0,1-2.11-8.27c-.67-4.36.7-6.88,2-8.22a6.82,6.82,0,0,1,2.71-1.76l8-2.85a6.94,6.94,0,0,0-2.71,1.77c-1.27,1.34-2.64,3.86-2,8.22a46.92,46.92,0,0,0,2.11,8.27Q600.56,195.07,624.61,262.41Z"/></clipPath><clipPath id="clip-path-26"><path class="cls-1" d="M634.18,289.3l-8,2.84c-.11-.33-.21-.66-.33-1l8-2.84C634,288.64,634.08,289,634.18,289.3Z"/></clipPath><clipPath id="clip-path-27"><path class="cls-1" d="M648.47,298.41l-8,2.84a10,10,0,0,1-8.54-.91c-3.81-2.26-5-5.84-5.75-8.2l8-2.84c.77,2.36,1.94,5.94,5.75,8.2A10,10,0,0,0,648.47,298.41Z"/></clipPath></defs><g class="cls-2"><g id="Layer_2" data-name="Layer 2"><g id="_6" data-name="6"><g class="cls-2"><polygon class="cls-3" points="29.16 154.21 16.86 157.27 632.85 3.69 645.15 0.62 29.16 154.21"/><g class="cls-2"><g class="cls-4"><g class="cls-2"><path class="cls-5" d="M70.28,319.1,58,322.17c-12.22,3.05-24.85-5.42-28.21-18.9l12.3-3.07c3.36,13.49,16,21.95,28.21,18.9"/></g></g></g><rect class="cls-6" x="15.11" y="183.89" width="12.68" height="119.62" transform="translate(-58.32 12.43) rotate(-14)"/><g class="cls-2"><g class="cls-7"><g class="cls-2"><path class="cls-5" d="M13.13,184.14.83,187.2c-2.72-10.91,1.46-21.77,9.63-27.13L22.77,157c-8.18,5.36-12.36,16.22-9.64,27.14"/><path class="cls-8" d="M22.77,157l-12.31,3.07a20.91,20.91,0,0,1,6.4-2.8l12.3-3.07a21,21,0,0,0-6.39,2.8"/></g></g></g><path class="cls-9" d="M645.16.62C657.38-2.43,670,6,673.37,19.52l28.94,116.07c3.36,13.48-3.82,26.88-16,29.93L70.28,319.1c-12.22,3-24.85-5.41-28.21-18.9L13.13,184.14c-3.36-13.49,3.81-26.89,16-29.94Z"/></g><image class="cls-10" width="251" height="134" transform="translate(217.97 102.85)" /><g class="cls-2"><polygon class="cls-11" points="459.99 102.5 456.3 103.42 471.92 99.53 475.61 98.61 459.99 102.5"/><polygon class="cls-12" points="457.29 137.7 453.6 138.62 456.3 103.42 459.99 102.5 457.29 137.7"/><polygon class="cls-12" points="449.64 186.51 445.95 187.43 450.17 158.28 453.86 157.36 449.64 186.51"/><polygon class="cls-11" points="422.17 111.94 418.48 112.86 434.61 108.83 438.3 107.91 422.17 111.94"/><polygon class="cls-13" points="453.86 157.36 450.17 158.28 418.48 112.86 422.17 111.94 453.86 157.36"/><polygon class="cls-14" points="475.61 98.61 465.18 182.63 449.64 186.51 453.86 157.36 422.17 111.94 438.3 107.91 457.29 137.7 459.99 102.5 475.61 98.61"/></g><g class="cls-2"><rect class="cls-15" x="403.21" y="99.26" width="3.8" height="71.05" transform="translate(-20.57 102.01) rotate(-14)"/><rect class="cls-14" x="406.73" y="97" width="14.88" height="71.05" transform="translate(-19.76 104.13) rotate(-14)"/><polygon class="cls-11" points="398.36 99.86 394.67 100.78 409.11 97.18 412.8 96.26 398.36 99.86"/></g><g class="cls-2"><g class="cls-2"><g class="cls-16"><g class="cls-2"><path class="cls-11" d="M379.6,163.81l-3.69.92a9.34,9.34,0,0,0,4.63-2.68l3.69-.92a9.34,9.34,0,0,1-4.63,2.68"/><path class="cls-12" d="M384.23,161.13l-3.69.92a11.36,11.36,0,0,0,1.85-2.65l3.69-.92a11.07,11.07,0,0,1-1.85,2.65"/></g></g></g><g class="cls-2"><g class="cls-17"><g class="cls-2"><path class="cls-12" d="M386.08,158.48l-3.69.92q2.16-4.26.68-10.21c-1-4-2.78-6.84-5.34-8.62A9.76,9.76,0,0,0,369.5,139l3.69-.92a9.76,9.76,0,0,1,8.23,1.55c2.57,1.78,4.35,4.64,5.34,8.62s.76,7.37-.68,10.21"/></g></g></g><g class="cls-2"><g class="cls-18"><g class="cls-2"><path class="cls-12" d="M387.37,176.61l-3.69.92a17.06,17.06,0,0,1-16.52-4.39l3.69-.92a17.06,17.06,0,0,0,16.52,4.39"/></g></g></g><g class="cls-2"><g class="cls-19"><g class="cls-2"><path class="cls-12" d="M361.53,134.86l-3.69.92a17,17,0,0,1,4-7l3.69-.92a17,17,0,0,0-4,7"/><path class="cls-11" d="M365.56,127.89l-3.69.92.34-.35a17.06,17.06,0,0,1,8.14-4.4l3.69-.92a17.06,17.06,0,0,0-8.14,4.4l-.34.35"/></g></g></g><path class="cls-14" d="M395.19,131.22a34.87,34.87,0,0,1,6.26,13.38,35.28,35.28,0,0,1,.77,14.8,22.93,22.93,0,0,1-5.13,11.27,18.54,18.54,0,0,1-9.72,5.94,17.06,17.06,0,0,1-16.52-4.39l8,32-14.44,3.6-19.13-76.75,14.43-3.6,1.83,7.35A16.75,16.75,0,0,1,374,123.14a18.75,18.75,0,0,1,11.36.63A22.68,22.68,0,0,1,395.19,131.22Zm-9.11,27.26q2.16-4.26.68-10.21c-1-4-2.77-6.84-5.34-8.62a9.76,9.76,0,0,0-8.23-1.55,9.56,9.56,0,0,0-6.44,5.26c-1.42,2.8-1.65,6.19-.66,10.16s2.78,6.86,5.35,8.66a9.63,9.63,0,0,0,8.16,1.63,9.74,9.74,0,0,0,6.48-5.33"/><polygon class="cls-11" points="345.26 131.11 341.57 132.03 356.01 128.43 359.7 127.51 345.26 131.11"/><rect class="cls-15" x="351.09" y="130.4" width="3.8" height="79.1" transform="translate(-30.63 90.44) rotate(-14)"/></g><g class="cls-2"><g class="cls-2"><g class="cls-20"><g class="cls-2"><path class="cls-11" d="M322.28,178.1l-3.69.92a9.44,9.44,0,0,0,4.63-2.67l3.69-.92a9.44,9.44,0,0,1-4.63,2.67"/><path class="cls-12" d="M326.91,175.43l-3.69.92a11.39,11.39,0,0,0,1.84-2.66l3.69-.92a11.39,11.39,0,0,1-1.84,2.66"/></g></g></g><g class="cls-2"><g class="cls-21"><g class="cls-2"><path class="cls-12" d="M328.75,172.77l-3.69.92q2.18-4.24.68-10.21t-5.32-8.62a9.79,9.79,0,0,0-8.24-1.55l3.69-.92a9.79,9.79,0,0,1,8.24,1.55q3.84,2.67,5.32,8.62t-.68,10.21"/></g></g></g><g class="cls-2"><g class="cls-22"><g class="cls-2"><path class="cls-12" d="M330,190.9l-3.69.92a17.06,17.06,0,0,1-9.2-.08,16.85,16.85,0,0,1-7.31-4.31l3.69-.92A17.07,17.07,0,0,0,330,190.9"/></g></g></g><g class="cls-2"><g class="cls-23"><g class="cls-2"><path class="cls-12" d="M304.22,149.15l-3.69.92a16.8,16.8,0,0,1,4-7l3.69-.92a16.8,16.8,0,0,0-4,7"/><path class="cls-11" d="M308.24,142.18l-3.69.92.34-.35a17.12,17.12,0,0,1,8.13-4.4l3.69-.92a17.12,17.12,0,0,0-8.13,4.4l-.34.35"/></g></g></g><path class="cls-14" d="M337.88,145.51a38.82,38.82,0,0,1,7,28.18A23,23,0,0,1,339.78,185,18.53,18.53,0,0,1,330,190.9a17.07,17.07,0,0,1-16.51-4.39l8,32-14.43,3.6L288,145.4l14.43-3.6,1.84,7.35a16.73,16.73,0,0,1,12.49-11.72,18.78,18.78,0,0,1,11.37.63A22.7,22.7,0,0,1,337.88,145.51Zm-9.13,27.26q2.17-4.25.68-10.21t-5.32-8.62a9.79,9.79,0,0,0-8.24-1.55,9.59,9.59,0,0,0-6.44,5.26q-2.15,4.2-.65,10.16t5.34,8.66a9.74,9.74,0,0,0,14.63-3.7"/><polygon class="cls-11" points="287.95 145.4 284.26 146.32 298.69 142.72 302.38 141.8 287.95 145.4"/><rect class="cls-15" x="293.77" y="144.69" width="3.8" height="79.1" transform="translate(-35.79 77) rotate(-14)"/></g><g class="cls-2"><polygon class="cls-13" points="279.13 202.81 275.44 203.73 269.01 193.06 272.7 192.14 279.13 202.81"/><polygon class="cls-13" points="265.92 180.77 262.23 181.69 248.91 159.59 252.6 158.66 265.92 180.77"/><polygon class="cls-11" points="251.31 184.41 247.62 185.33 262.23 181.69 265.92 180.77 251.31 184.41"/><polygon class="cls-11" points="239.94 143.12 236.25 144.04 252.97 139.88 256.66 138.96 239.94 143.12"/><polygon class="cls-12" points="234.81 213.86 231.12 214.78 236.25 144.04 239.94 143.12 234.81 213.86"/><path class="cls-14" d="M256.66,139,294.4,199l-15.27,3.81-6.43-10.67-22.12,5.51-.66,12.44-15.11,3.77,5.13-70.74Zm-5.35,45.46,14.61-3.64-13.32-22.1-1.29,25.74"/></g><image class="cls-24" width="197" height="219" transform="translate(549.97 112.85)" /><g class="cls-2"><g class="cls-2"><g class="cls-25"><g class="cls-2"><path class="cls-26" d="M735,199.49l-8,2.84a14.65,14.65,0,0,0,1.82-1.72l8-2.84a14.65,14.65,0,0,1-1.82,1.72"/></g></g></g><g class="cls-2"><g class="cls-27"><g class="cls-2"><path class="cls-26" d="M732.09,201.15l-8,2.84c.33-.19.68-.36,1-.54a11,11,0,0,0,1.91-1.12l8-2.84a11.22,11.22,0,0,1-1.9,1.12c-.34.18-.69.35-1,.54"/></g></g></g><polygon class="cls-26" points="727.96 203.41 720 206.25 724.13 203.99 732.09 201.15 727.96 203.41"/><g class="cls-2"><g class="cls-28"><g class="cls-2"><path class="cls-26" d="M736.83,197.77l-8,2.84a17.23,17.23,0,0,0-2-1.26c-12.34-6.75-25.08-13.28-37.4-19.58l8-2.85c12.32,6.31,25.06,12.84,37.4,19.59a16,16,0,0,1,2,1.26"/></g></g></g><polygon class="cls-29" points="697.43 176.93 689.47 179.76 687.22 178.61 695.18 175.77 697.43 176.93"/><g class="cls-2"><g class="cls-30"><g class="cls-2"><path class="cls-26" d="M703.08,216.61l-8,2.84c4-2,8.16-4.17,12.19-6.31,4.25-2.24,8.54-4.6,12.69-6.89l8-2.84c-4.15,2.29-8.44,4.65-12.69,6.89-4,2.14-8.18,4.26-12.19,6.31"/></g></g></g><polygon class="cls-26" points="701.89 217.22 693.93 220.06 695.12 219.45 703.08 216.61 701.89 217.22"/><g class="cls-2"><g class="cls-31"><g class="cls-2"><path class="cls-26" d="M741.33,279.11l-8,2.84c-9.68-11.2-17.84-20.94-24.26-29-2.19-2.73-4.6-5.59-7.14-8.61-3.42-4-7-8.25-10.09-12.32a8.66,8.66,0,0,1-1.7-6.71,7.18,7.18,0,0,1,3.75-5.29l8-2.84a7.18,7.18,0,0,0-3.75,5.29,8.66,8.66,0,0,0,1.7,6.71c3.14,4.07,6.67,8.27,10.09,12.32,2.55,3,5,5.88,7.14,8.61,6.42,8,14.58,17.76,24.26,29"/></g></g></g><g class="cls-2"><g class="cls-32"><g class="cls-2"><path class="cls-26" d="M719.47,302.13l-8,2.85c3.49-3.63,7.23-7.6,10.87-11.45s7.45-7.9,11-11.58l8-2.84c-3.54,3.67-7.32,7.69-11,11.58s-7.38,7.82-10.87,11.44"/></g></g></g><g class="cls-2"><g class="cls-33"><g class="cls-2"><path class="cls-34" d="M719.47,302.13l-8,2.85c-1.27-1.41-2.51-2.81-4-4.53-12.13-14-24.48-28.15-35.36-40.62-2.8-3.2-5.92-6.14-9.84-6a6.73,6.73,0,0,0-2,.41l8-2.84a6.73,6.73,0,0,1,2-.41c3.92-.18,7,2.76,9.84,6,10.88,12.47,23.23,26.59,35.36,40.62,1.49,1.72,2.73,3.12,4,4.52"/></g></g></g><g class="cls-2"><g class="cls-35"><g class="cls-2"><path class="cls-34" d="M719.47,302.13l-8,2.85c-1.27-1.41-2.51-2.81-4-4.53-12.13-14-24.48-28.15-35.36-40.62-2.8-3.2-5.92-6.14-9.84-6a6.73,6.73,0,0,0-2,.41l8-2.84a6.73,6.73,0,0,1,2-.41c3.92-.18,7,2.76,9.84,6,10.88,12.47,23.23,26.59,35.36,40.62,1.49,1.72,2.73,3.12,4,4.52"/></g></g></g><g class="cls-2"><g class="cls-36"><g class="cls-2"><path class="cls-26" d="M722.49,312.07l-8,2.84a8,8,0,0,1-8.63-2.42c-1.59-1.75-3.06-3.39-4.92-5.52-12.12-14-24.44-28.14-35.32-40.59a19.5,19.5,0,0,0-2.32-2.34l8-2.84a18.75,18.75,0,0,1,2.32,2.34c10.88,12.45,23.2,26.57,35.32,40.58,1.86,2.14,3.33,3.78,4.92,5.53a8,8,0,0,0,8.63,2.42"/></g></g></g><g class="cls-2"><g class="cls-37"><g class="cls-2"><path class="cls-26" d="M660.45,261.22l-8,2.84a9,9,0,0,0,.43-1.07,14.28,14.28,0,0,1,1.33-2.91c1.49-2.4,3.35-4.85,6-5.8l8-2.84c-2.67.95-4.53,3.4-6,5.8a14.47,14.47,0,0,0-1.33,2.9,8.6,8.6,0,0,1-.43,1.08"/></g></g></g><g class="cls-2"><g class="cls-38"><g class="cls-2"><path class="cls-26" d="M645.1,289l-8,2.84a1.72,1.72,0,0,0,.93-.8c3.83-6.92,7.61-14.06,11.26-21l3.16-6,8-2.84-3.16,6c-3.65,6.91-7.43,14-11.26,21a1.72,1.72,0,0,1-.93.8"/></g></g></g><g class="cls-2"><g class="cls-39"><g class="cls-2"><path class="cls-26" d="M695.18,175.77l-8,2.84c-14.05-7.21-28.36-14.48-42.19-21.51q-11-5.58-22-11.19l-18-9.19c-5.16-2.63-10.3-5.26-15.46-7.88L578.16,123a16.16,16.16,0,0,0-2.5-1.11l8-2.84a15.75,15.75,0,0,1,2.5,1.11L597.51,126,613,133.88l18,9.19q11,5.61,22,11.19c13.83,7,28.14,14.3,42.19,21.51"/></g></g></g><rect class="cls-40" x="629.56" y="259.99" width="8.45" height="27.5" transform="translate(-55.13 228.93) rotate(-19.64)"/><g class="cls-2"><g class="cls-41"><g class="cls-2"><path class="cls-34" d="M633.15,259.37l-8,2.84q-24-67.35-48-134.71a35.56,35.56,0,0,1-1.48-5.57l8-2.84a35.85,35.85,0,0,0,1.48,5.57q24,67.36,48,134.71"/></g></g></g><path class="cls-42" d="M583.62,119.09a15.75,15.75,0,0,1,2.5,1.11L597.51,126,613,133.88l18,9.19q11,5.61,22,11.19c13.83,7,28.14,14.3,42.19,21.51l2.25,1.15c12.32,6.31,25.06,12.84,37.4,19.59a16,16,0,0,1,2,1.26,14.65,14.65,0,0,1-1.82,1.72,11.22,11.22,0,0,1-1.9,1.12c-.34.18-.69.35-1,.54L728,203.41c-4.15,2.29-8.44,4.65-12.69,6.89-4,2.14-8.18,4.26-12.19,6.31l-1.19.61a7.18,7.18,0,0,0-3.75,5.29,8.66,8.66,0,0,0,1.7,6.71c3.14,4.07,6.67,8.27,10.09,12.32,2.55,3,5,5.88,7.14,8.61,6.42,8,14.58,17.76,24.26,29-3.54,3.67-7.32,7.69-11,11.58s-7.38,7.82-10.87,11.44c-1.27-1.4-2.51-2.8-4-4.52-12.13-14-24.48-28.15-35.36-40.62-2.8-3.2-5.92-6.14-9.84-6a6.73,6.73,0,0,0-2,.41c-2.67.95-4.53,3.4-6,5.8a14.47,14.47,0,0,0-1.33,2.9,8.6,8.6,0,0,1-.43,1.08l-3.16,6c-3.65,6.91-7.43,14-11.25,21a1.77,1.77,0,0,1-.94.8,1.34,1.34,0,0,1-1.14-.08c-.37-.22-.54-.53-1.15-2.37-.13-.43-.27-.85-.42-1.27l-9.24-25.9q-24-67.35-48-134.71A35.85,35.85,0,0,1,583.62,119.09Z"/><g class="cls-2"><g class="cls-43"><g class="cls-2"><path class="cls-34" d="M645.1,289l-8,2.84a1.34,1.34,0,0,1-1.14-.08c-.37-.22-.54-.53-1.15-2.37-.13-.43-.27-.85-.42-1.27l8-2.84c.15.42.29.84.42,1.27.61,1.84.78,2.15,1.15,2.37a1.34,1.34,0,0,0,1.14.08"/></g></g></g><rect class="cls-44" x="621.03" y="263.04" width="8.45" height="27.5" transform="translate(-56.65 226.24) rotate(-19.64)"/><g class="cls-2"><g class="cls-45"><g class="cls-2"><path class="cls-26" d="M624.61,262.41l-8,2.85q-24-67.37-48-134.72a46.92,46.92,0,0,1-2.11-8.27c-.67-4.36.7-6.88,2-8.22a6.82,6.82,0,0,1,2.71-1.76l8-2.85a6.94,6.94,0,0,0-2.71,1.77c-1.27,1.34-2.64,3.86-2,8.22a46.92,46.92,0,0,0,2.11,8.27q24,67.36,48.05,134.71"/></g></g></g><g class="cls-2"><g class="cls-46"><g class="cls-2"><path class="cls-26" d="M634.18,289.3l-8,2.84c-.11-.33-.21-.66-.33-1l8-2.84c.12.32.23.65.33,1"/></g></g></g><g class="cls-2"><g class="cls-47"><g class="cls-2"><path class="cls-26" d="M648.47,298.41l-8,2.84a10,10,0,0,1-8.54-.91c-3.81-2.26-5-5.84-5.75-8.2l8-2.84c.77,2.36,1.94,5.94,5.75,8.2a10,10,0,0,0,8.54.91"/></g></g></g><path class="cls-48" d="M738.57,187.74c3.07,1.68,7.24,4.48,7.85,9.26s-2.89,8.29-5.57,10.5a19,19,0,0,1-3.37,2.09l-.84.44-4.12,2.27c-4.18,2.29-8.5,4.67-12.81,6.95-3.79,2-7.66,4-11.41,5.91,2.6,3.29,5.46,6.68,8.24,10,2.6,3.07,5,6,7.31,8.81,6.49,8.12,14.82,18,24.73,29.51,3.11,3.57,3.12,9.06,0,12.24-3.7,3.84-7.74,8.12-11.64,12.26s-8,8.43-11.69,12.28a7.31,7.31,0,0,1-2.8,1.83,8,8,0,0,1-8.63-2.42c-1.59-1.75-3.06-3.39-4.92-5.53-12.12-14-24.44-28.13-35.32-40.58a18.75,18.75,0,0,0-2.32-2.34,12.26,12.26,0,0,0-1.38,1.91,8.61,8.61,0,0,0-.46,1.12,16.24,16.24,0,0,1-1,2.3q-1.59,3-3.16,6c-3.67,7-7.47,14.13-11.34,21.12a10.29,10.29,0,0,1-5.52,4.77,10,10,0,0,1-8.54-.91c-3.81-2.26-5-5.84-5.75-8.2-.1-.33-.21-.66-.33-1l-9.24-25.91q-24-67.35-48.05-134.71a46.92,46.92,0,0,1-2.11-8.27c-.67-4.36.7-6.88,2-8.22a6.94,6.94,0,0,1,2.71-1.77,9.44,9.44,0,0,1,5.1-.21,21.28,21.28,0,0,1,5.38,2.06l11.38,5.8q7.74,3.93,15.47,7.89l18,9.19,22,11.18c13.85,7,28.17,14.31,42.23,21.52l2.25,1.16C713.31,174.36,726.1,180.92,738.57,187.74ZM735,199.49a14.65,14.65,0,0,0,1.82-1.72,16,16,0,0,0-2-1.26c-12.34-6.75-25.08-13.28-37.4-19.59l-2.25-1.15c-14-7.21-28.36-14.48-42.19-21.51q-11-5.58-22-11.19l-18-9.19L597.51,126l-11.39-5.79a15.75,15.75,0,0,0-2.5-1.11,35.85,35.85,0,0,0,1.48,5.57q24,67.36,48,134.71l9.24,25.9c.15.42.29.84.42,1.27.61,1.84.78,2.15,1.15,2.37a1.34,1.34,0,0,0,1.14.08,1.72,1.72,0,0,0,.93-.8c3.83-6.92,7.61-14.06,11.26-21l3.16-6a8.6,8.6,0,0,0,.43-1.08,14.47,14.47,0,0,1,1.33-2.9c1.49-2.4,3.35-4.85,6-5.8a6.73,6.73,0,0,1,2-.41c3.92-.18,7,2.76,9.84,6,10.88,12.47,23.23,26.59,35.36,40.62,1.49,1.72,2.73,3.12,4,4.52,3.49-3.62,7.23-7.59,10.87-11.44s7.45-7.91,11-11.58c-9.68-11.2-17.84-20.94-24.26-29-2.19-2.73-4.59-5.59-7.14-8.61-3.42-4-6.95-8.25-10.09-12.32a8.66,8.66,0,0,1-1.7-6.71,7.18,7.18,0,0,1,3.75-5.29l1.19-.61c4-2.05,8.16-4.17,12.19-6.31,4.25-2.24,8.54-4.6,12.69-6.89l4.13-2.26c.33-.19.68-.36,1-.54a11.22,11.22,0,0,0,1.9-1.12"/></g></g></g></g></svg>