<svg xmlns="http://www.w3.org/2000/svg" xmlns:xlink="http://www.w3.org/1999/xlink" viewBox="0 0 599.28 636.97"><defs><style>.cls-1,.cls-10,.cls-14,.cls-17,.cls-19,.cls-21,.cls-22,.cls-23,.cls-25,.cls-26,.cls-29,.cls-30,.cls-39,.cls-42,.cls-43{fill:none;}.cls-2{fill:#ffd3c8;}.cls-3{clip-path:url(#clip-path);}.cls-4{fill:#f1b2a2;}.cls-5{fill:#061537;}.cls-6{clip-path:url(#clip-path-2);}.cls-7{fill:#955454;}.cls-8{clip-path:url(#clip-path-3);}.cls-9{fill:#7d4545;}.cls-10{stroke:#7d4545;}.cls-10,.cls-14,.cls-17,.cls-19,.cls-21,.cls-22,.cls-26,.cls-27,.cls-42,.cls-44{stroke-miterlimit:10;}.cls-11{fill:#ffe39b;}.cls-12{clip-path:url(#clip-path-4);}.cls-13{fill:#ffbb20;}.cls-14,.cls-39{stroke:#301913;}.cls-14,.cls-17,.cls-19,.cls-21,.cls-22,.cls-26,.cls-27,.cls-44{stroke-width:0.5px;}.cls-15{clip-path:url(#clip-path-5);}.cls-16{fill:#230d99;}.cls-17,.cls-26{stroke:#fff;}.cls-18{clip-path:url(#clip-path-6);}.cls-19,.cls-29,.cls-30{stroke:#99776c;}.cls-20{clip-path:url(#clip-path-7);}.cls-21,.cls-23,.cls-25,.cls-42,.cls-43,.cls-44{stroke:#061537;}.cls-21,.cls-22,.cls-26,.cls-27,.cls-42,.cls-43,.cls-44{stroke-linecap:round;}.cls-22,.cls-27{stroke:#9d3f28;}.cls-23{stroke-miterlimit:10;stroke-width:0.5px;}.cls-24,.cls-27,.cls-44{fill:#fff;}.cls-25{stroke-miterlimit:10;stroke-width:0.5px;}.cls-28{clip-path:url(#clip-path-8);}.cls-29,.cls-39{stroke-miterlimit:10;stroke-width:0.5px;}.cls-30{stroke-miterlimit:10;stroke-width:0.5px;}.cls-31{fill:#2a3756;}.cls-32{clip-path:url(#clip-path-9);}.cls-33{fill:#fff9f9;}.cls-34{clip-path:url(#clip-path-10);}.cls-35{clip-path:url(#clip-path-11);}.cls-36{clip-path:url(#clip-path-12);}.cls-37{clip-path:url(#clip-path-13);}.cls-38{clip-path:url(#clip-path-14);}.cls-40{fill:#4c2603;}.cls-41{clip-path:url(#clip-path-15);}.cls-42{stroke-width:1px;}.cls-43{stroke-miterlimit:10;stroke-width:1px;}.cls-45{fill:#659cff;}.cls-46{clip-path:url(#clip-path-16);}.cls-47{fill:#4c7fff;}.cls-48{clip-path:url(#clip-path-17);}.cls-49{clip-path:url(#clip-path-18);}</style><clipPath id="clip-path"><path class="cls-1" d="M444.27,547.33H410.7V605.9H441s17.55-2.79,17.65-4.7l-21.57-7.9a5.43,5.43,0,0,1-3.38-6.49Z"/></clipPath><clipPath id="clip-path-2"><path class="cls-1" d="M328,553,313.65,538.7l-15.56,39.15a27.19,27.19,0,0,1-7.56,10.57l-15.3,13.12s10.22,4.53,18.51,2.37,25.38-15.1,25.38-15.1Z"/></clipPath><clipPath id="clip-path-3"><path class="cls-1" d="M468.63,254.37s11.33,23.95,5.67,83.42S447,564.35,447,564.35H406.92s3-181.24.18-229.85c0,0-17,104.06-73.44,230.22l-41.64.17,68.69-287.38,74.36-41.71Z"/></clipPath><clipPath id="clip-path-4"><path class="cls-1" d="M486.56,167l-34.72,18.24s-5.48,19.37-2.39,32.42S477,246,472,262c0,0-29.93-10.19-51.52,0s-44.62,31.78-65.41,26.89c0,0,8.82-83,1.62-106.65l-32.54-6.7S337.47,136,367.9,126.77a124.47,124.47,0,0,1,38.7-5C468.64,120.66,486.56,167,486.56,167Z"/></clipPath><clipPath id="clip-path-5"><path class="cls-1" d="M324.16,175.49s-25.19,63.4-25.39,84.17c0,2.84,10.16,1.78,10.45,4.35l36-8.08L358,178.14Z"/></clipPath><clipPath id="clip-path-6"><path class="cls-1" d="M299.06,264.36c14.2,15.6,58.86-6.44,76.12-20.63,0,0,22.1-7.8,23.08-12.55s-1.43-5.31-1.43-5.31,2.05-3.83.67-6c0,0,1.48-5.22-.19-6.34,0,0,1.36-6.44-8.26-7.15,0,0,1.08,4-1,5.39s-11.79,3.06-11.79.77,6.12-8,3.46-11.8-4.32,5.14-9.21,8.47-9.07,8.12-9.07,18.12c0,0,0,5.7-24.15,7-12.74.67-26,1-32.78,6.87C298.51,246.32,292.38,257,299.06,264.36Z"/></clipPath><clipPath id="clip-path-7"><path class="cls-1" d="M437.8,69.43s16.12,39.41-7.88,42.92c0,0-12.65,6.23-11.45,7.16A144,144,0,0,0,433,124.06s-7.38,17.64-27.23,16.55-24.16-17.35-24.16-17.35,4.3-.6,6.29-.83c5.31-.61,8.83-1.12,8.83-2.92a51.81,51.81,0,0,0-2.12-19.37,134.71,134.71,0,0,0-8.74-16.44S396.14,71.1,404.27,63s23.12-2.68,23.12-2.68a38,38,0,0,1,8.18,3.86A9.27,9.27,0,0,1,437.8,69.43Z"/></clipPath><clipPath id="clip-path-8"><path class="cls-1" d="M543.72,190.76s6.84-16.12,19-16.54S598,153.69,599.1,148.64c.74-3.28-1-2.89-2.09-2.58-.62.16-1.09.3-.93-.17a2.51,2.51,0,0,0-1.7-3.12,3,3,0,0,0-.6-.1c-1.69.06-5.48,5.73-5.48,5.73s1.92-9.7,1.91-10.34-4.47.16-4.88,5.35a8,8,0,0,1-4.14,6.86c-2.26-1.68-2.68.66-6.81,5s-12.1,4.79-12.13,4.05,8.82-8.87,11.13-11.28.67-8.91-3.9-4.5a131.6,131.6,0,0,1-16.86,11.74c-7.37,1.48-14.93,12.4-19.08,19.38l0-.08s-14.82,16.27-23.61,24.35-18,15-18,15l-6.64-46.56-33.45,17.9s5.22,54,24.7,64.86a10,10,0,0,0,6.64,1C505.11,247.61,543.72,190.76,543.72,190.76Z"/></clipPath><clipPath id="clip-path-9"><path class="cls-1" d="M133.7,578.14s3.94,5.41,2.71,23.7H52.07s1.15-9.51,10.26-11.85S99,571.67,102.47,574.06,133.7,578.14,133.7,578.14Z"/></clipPath><clipPath id="clip-path-10"><path class="cls-1" d="M134.78,552.61s-2.17,16.17-1.08,25.52-21.94,10.44-21.94,10.44-5.33-9.39-12.21-12.92a20.83,20.83,0,0,0,4-4.86,127.62,127.62,0,0,0,4.87-26.21C109.78,536.53,134.78,552.61,134.78,552.61Z"/></clipPath><clipPath id="clip-path-11"><path class="cls-1" d="M241.89,546s-1.59,29.69-.51,37.52-1.91,10.89-1.91,10.89l-31.1-5,3.78-8.86A49.74,49.74,0,0,0,215.33,566c0-6.23-1.87-29.1-1.87-29.1Z"/></clipPath><clipPath id="clip-path-12"><path class="cls-1" d="M241.34,587.6a32.67,32.67,0,0,0-28-3.69l-.63-4.32s-9.32,10.24-9.32,16.17,3.21,17,22,17a20.74,20.74,0,0,0,21.34-17l-5.33-13.21Z"/></clipPath><clipPath id="clip-path-13"><path class="cls-1" d="M142.17,265.45,96.87,553.91l40.71,3.44s24.78-74.64,33.79-112.25,17.08-100,17.08-100,5.21,41.74,8.45,84.87,7.49,127.36,7.49,127.36H247V340.47s9-53.06-5.13-80.63S142.17,265.45,142.17,265.45Z"/></clipPath><clipPath id="clip-path-14"><path class="cls-1" d="M68.77,155.06s-11.36-22.64-22.28-24.83a132.68,132.68,0,0,1-16.82-11.57c-4.55-4.35-6.17,2-3.87,4.41s11.13,10.39,11.11,11.11-8,.25-12.09-4-4.55-6.55-6.8-4.91a7.94,7.94,0,0,1-4.13-6.74c-.42-5.1-4.85-5.89-4.88-5.27s1.92,10.16,1.92,10.16-3.79-5.58-5.47-5.64a2.46,2.46,0,0,0-2.37,2.54,2.5,2.5,0,0,0,.09.61c.46,1.34-4.14-2.26-3,2.7s24.08,24.75,36.24,25.2,19,16.29,19,16.29Z"/></clipPath><clipPath id="clip-path-15"><path class="cls-1" d="M176.36,29.46A2.28,2.28,0,0,0,176,30.7V55c2.43,17.27,9.86,25.38,19.48,24.51l-.33,7s-.32,3.09-.68,5.14c-.48,2.7-2.68,4.75-2.36,7.74.51,4.85,9.66,9.63,12.35,10.43a10.63,10.63,0,0,0,4.95-.24c13.12-3.66,14.34-22.07,14.34-22.07s-2.15-1.24-2.52-8.91-.13-25.49-.13-25.49,2.91-1,3.53-7-1.61-6.88-3.9-6.78-4.73,5.27-5.14,9.36c-3.68,2-2.42-2.54-2.65-7.85s-6.19-5.13-7.32-8.43a25.83,25.83,0,0,1-.95-8.61,35.07,35.07,0,0,1-24.23-.68Z"/></clipPath><clipPath id="clip-path-16"><path class="cls-1" d="M194.59,89.68s-46.15,1.45-58.81,25.75L110,191.58a3.44,3.44,0,0,1-4.36,2.16,3.49,3.49,0,0,1-1.74-1.31l-31.8-46.38L50.41,169.44s37.68,69.41,57.4,71.37S141,218.27,141,218.27l-3.21,53s59.55,29,108.91,0l3.15-87.57,31-59.49s-12.11-20.49-53.63-32.1l-13.53,17.93L193.08,107Z"/></clipPath><clipPath id="clip-path-17"><path class="cls-1" d="M280.88,124.26S315.1,232.12,289,251.14,204,282.39,204,282.39L196,255.58l65.69-31.29-11.83-40.54Z"/></clipPath><clipPath id="clip-path-18"><path class="cls-1" d="M198.05,260.48s-8.19,1.61-10.63,0-4.69-4.89-14.49-2.44-13.82,5-16.31,3.71c0,0-.86,3.57,2.06,3.67,0,0-17.26,2.83-17,4.67s15.56,1.09,15.56,1.09-18.49,4.05-17.28,7.29a3.12,3.12,0,0,0,3.39,1.78,5.74,5.74,0,0,0,5.49,3.12h5.6s-.5,3.53,5,3.6,28.69-.11,43.51-8.5Z"/></clipPath></defs><g id="Layer_2" data-name="Layer 2"><g id="_2" data-name="2"><g id="girls-2"><g id="foot-15"><g id="left-8"><g id="Path_365-7" data-name="Path 365-7"><path id="Mask-315" class="cls-2" d="M444.27,547.33H410.7V605.9H441s17.55-2.79,17.65-4.7l-21.57-7.9a5.43,5.43,0,0,1-3.38-6.49Z"/><g class="cls-3"><g id="Path_365-8" data-name="Path 365-8"><path id="Path_365-9" data-name="Path 365-9" class="cls-4" d="M442.72,563.68l-34,12.94V556.14Z"/></g></g></g><path id="Path_364-3" data-name="Path 364-3" class="cls-5" d="M409.77,595a93.73,93.73,0,0,0,12,5c9.64,2.53,16.39,2.19,20.14,1.14,7.89-2.22,5.33-5.64,10.74-3.63,16.79,6.26,23.3,7.8,21.8,15.26l-62.33-1a3.25,3.25,0,0,1-3.2-3.31.92.92,0,0,1,0-.16Z"/></g><g id="right-8"><g id="Path_365_Copy" data-name="Path 365 Copy"><path id="Mask-316" class="cls-2" d="M328,553,313.65,538.7l-15.56,39.15a27.19,27.19,0,0,1-7.56,10.57l-15.3,13.12s10.22,4.53,18.51,2.37,25.38-15.1,25.38-15.1Z"/><g class="cls-6"><g id="Path_365_Copy-2" data-name="Path 365 Copy-2"><path id="Path_365_Copy-3" data-name="Path 365 Copy-3" class="cls-4" d="M330.1,563.68l-34,12.94V556.14Z"/></g></g></g><path id="Path_363" data-name="Path 363" class="cls-5" d="M323,576.62s-14.18,14.79-20.77,18.09c-.26.13-6.62,3.65-10.73,3.49a11.46,11.46,0,0,1-7.27-4c-9.13,4.74-17.29,3.58-19.73,18.56H285.7A27.12,27.12,0,0,0,305,604.72l3.81-3.85s10.62.27,10.62-3.88A197.58,197.58,0,0,1,323,576.62Z"/></g></g><g id="pants-21"><path id="Mask-317" class="cls-7" d="M468.63,254.37s11.33,23.95,5.67,83.42S447,564.35,447,564.35H406.92s3-181.24.18-229.85c0,0-17,104.06-73.44,230.22l-41.64.17,68.69-287.38,74.36-41.71Z"/><g class="cls-8"><g id="pants-22"><path id="Path_371" data-name="Path 371" class="cls-9" d="M424.54,259.32s28.87,6.06,28.87,46.14S434.7,572.33,434.7,572.33l34.07-6L500.51,264l-49.63-21.68Z"/><path id="Path_372" data-name="Path 372" class="cls-9" d="M406.57,332.73A287,287,0,0,1,404,377.45c-3.32,24.88-69.14,199.17-69.14,199.17l-21.82-4.29Z"/><path id="Path_370" data-name="Path 370" class="cls-10" d="M404.25,290.31s-5.19,27.59-4.06,35a8.23,8.23,0,0,0,7.93,7.41"/></g></g></g><g id="body-18"><path id="Mask-318" class="cls-11" d="M486.56,167l-34.72,18.24s-5.48,19.37-2.39,32.42S477,246,472,262c0,0-29.93-10.19-51.52,0s-44.62,31.78-65.41,26.89c0,0,8.82-83,1.62-106.65l-32.54-6.7S337.47,136,367.9,126.77a124.47,124.47,0,0,1,38.7-5C468.64,120.66,486.56,167,486.56,167Z"/><g class="cls-12"><g id="body-19"><path id="Path_366" data-name="Path 366" class="cls-13" d="M451.84,185.25s-6.95,31.08-26,33.69-25.59-8.5-25.59-8.5-9.16,15.38-23.44,13.72c0,0,1.64,20.45,15,13s27-3.07,22.5,4.47-6.13,23.62-38.82,34.13-47.12-7.15-47.12-7.15l22.89,30.82L479.4,275.72l5.75-39.92Z"/><path id="Path_369" data-name="Path 369" class="cls-14" d="M358,168.51l-3.61,16.4"/><path id="Path_348" data-name="Path 348" class="cls-14" d="M451.84,185.25l-1-10.93"/></g></g></g><g id="right_hand-15" data-name="right hand-15"><g id="Path_376" data-name="Path 376"><path id="Mask-319" class="cls-2" d="M324.16,175.49s-25.19,63.4-25.39,84.17c0,2.84,10.16,1.78,10.45,4.35l36-8.08L358,178.14Z"/><g class="cls-15"><g id="Path_376-2" data-name="Path 376-2"><path id="Path_376-3" data-name="Path 376-3" class="cls-4" d="M336,176.71s1.61,32.1-6.22,47.31c-2.44,4.73-11.8,6.23-16.69,9a35.51,35.51,0,0,0-14.31,16l45.91-16Z"/></g></g></g><rect id="Rectangle-29" class="cls-16" x="335.99" y="176.4" width="53.06" height="92.19"/><rect id="Rectangle_Copy_23" data-name="Rectangle Copy 23" class="cls-17" x="338.65" y="180.74" width="47.65" height="83.51"/><g id="Group_30" data-name="Group 30"><g id="Path_358" data-name="Path 358"><path id="Mask-320" class="cls-2" d="M299.06,264.36c14.2,15.6,58.86-6.44,76.12-20.63,0,0,22.1-7.8,23.08-12.55s-1.43-5.31-1.43-5.31,2.05-3.83.67-6c0,0,1.48-5.22-.19-6.34,0,0,1.36-6.44-8.26-7.15,0,0,1.08,4-1,5.39s-11.79,3.06-11.79.77,6.12-8,3.46-11.8-4.32,5.14-9.21,8.47-9.07,8.12-9.07,18.12c0,0,0,5.7-24.15,7-12.74.67-26,1-32.78,6.87C298.51,246.32,292.38,257,299.06,264.36Z"/><g class="cls-18"><g id="Path_358-2" data-name="Path 358-2"><path id="Path_358-3" data-name="Path 358-3" class="cls-4" d="M375.18,243.73S315.25,273.06,295.46,259s6,21.72,6,21.72L381.38,259Z"/></g></g></g><path id="Path_355" data-name="Path 355" class="cls-19" d="M361.29,228.33s-7.86,6.1-23.08,6.1-33.24,2.19-40,14.52"/><path id="Path_373" data-name="Path 373" class="cls-19" d="M397.31,213.51s-.73,2.32-5.05,3"/><path id="Path_374" data-name="Path 374" class="cls-19" d="M397.5,219.85a9.78,9.78,0,0,1-5.24,2.65"/><path id="Path_375" data-name="Path 375" class="cls-19" d="M396.83,225.87a10.78,10.78,0,0,1-5.47,2.68"/></g></g><g id="head-19"><g id="Path_33" data-name="Path 33"><path id="Mask-321" class="cls-2" d="M437.8,69.43s16.12,39.41-7.88,42.92c0,0-12.65,6.23-11.45,7.16A144,144,0,0,0,433,124.06s-7.38,17.64-27.23,16.55-24.16-17.35-24.16-17.35,4.3-.6,6.29-.83c5.31-.61,8.83-1.12,8.83-2.92a51.81,51.81,0,0,0-2.12-19.37,134.71,134.71,0,0,0-8.74-16.44S396.14,71.1,404.27,63s23.12-2.68,23.12-2.68a38,38,0,0,1,8.18,3.86A9.27,9.27,0,0,1,437.8,69.43Z"/><g class="cls-20"><g id="Path_33-2" data-name="Path 33-2"><path id="Path_33-3" data-name="Path 33-3" class="cls-4" d="M416.31,112a24.57,24.57,0,0,1-10.48-6.58s2.75,14.62,12.29,14S416.31,112,416.31,112Z"/></g></g></g><path id="Path_24-9" data-name="Path 24-9" class="cls-21" d="M415,81a8.06,8.06,0,0,1,7.82,0"/><path id="Path_25-8" data-name="Path 25-8" class="cls-21" d="M430.75,80.72a6.72,6.72,0,0,1,5.4.89"/><path id="Path_8" data-name="Path 8" class="cls-5" d="M432.6,65.41s-11.06,19.52-34.17,17.7c0,0-4.84-2.7-5.87.87s.95,5.17,4.64,6.58l-.47,28.94s-3.4,0-9-.12a36,36,0,0,1-9.4-1.34l1.45-7.17L374,116.22s-17.18-8.16-19.6-10.35c0,0,14.07-10.74,19.61-24.23s13.19-37.53,33.64-39.5,33.08,8.92,35.77,25.77,5.41,49.6,13.85,51c0,0-19.83.35-22,.48-1.7.1-3.05-6.28-3.05-6.28l-3.09,6.6-10.88-.23-2-7.56s22,.47,21.21-36.37a17.72,17.72,0,0,1-4.07-5A12,12,0,0,1,432.6,65.41Z"/><path id="Path_28" data-name="Path 28" class="cls-22" d="M428,84a5.36,5.36,0,0,0,.72,5.38c2,2.68,2,6-3.56,4.83"/><circle id="Oval-31" class="cls-5" cx="420.45" cy="85.3" r="1.08"/><path id="Path_31-10" data-name="Path 31-10" class="cls-23" d="M422,85a3.51,3.51,0,0,0-4.19.12"/><g id="Rectangle-30"><path class="cls-1" d="M412.87,82H427v.35a9.19,9.19,0,0,1-7,8.94h0a9.19,9.19,0,0,1-7-8.94Z"/><path class="cls-24" d="M425.68,83.26a7.92,7.92,0,0,1-5.77,6.81,7.92,7.92,0,0,1-5.77-6.81h11.54M427,82H412.87v.35a9.19,9.19,0,0,0,7,8.94,9.19,9.19,0,0,0,7-8.94Z"/></g><g id="Rectangle_Copy_6" data-name="Rectangle Copy 6"><path class="cls-1" d="M429.12,82h14.07v.35a9.19,9.19,0,0,1-7,8.94h0a9.19,9.19,0,0,1-7-8.94Z"/><path class="cls-24" d="M441.93,83.26a5.85,5.85,0,1,1-11.55,0h11.55M443.19,82H429.12v.35a7.24,7.24,0,1,0,14.07,0Z"/></g><circle id="Oval_Copy_2-8" data-name="Oval Copy 2-8" class="cls-5" cx="433.45" cy="85.3" r="1.08"/><path id="Path_31_Copy-8" data-name="Path 31 Copy-8" class="cls-25" d="M435,85a3.51,3.51,0,0,0-4.19.19"/><path id="Path_29" data-name="Path 29" class="cls-26" d="M413.13,82.57,398.19,82"/><path id="Path_30" data-name="Path 30" class="cls-17" d="M426.71,83.75h2.88"/><path id="Path_32-9" data-name="Path 32-9" class="cls-27" d="M425.87,103.69c-2.89.25-6-3.77-6-3.77a28.24,28.24,0,0,0,6,1.33,12.75,12.75,0,0,0,4.52-1.33S428.76,103.45,425.87,103.69Z"/></g><g id="left_hand-13" data-name="left hand-13"><g id="Path_357-7" data-name="Path 357-7"><path id="Mask-322" class="cls-2" d="M543.72,190.76s6.84-16.12,19-16.54S598,153.69,599.1,148.64c.74-3.28-1-2.89-2.09-2.58-.62.16-1.09.3-.93-.17a2.51,2.51,0,0,0-1.7-3.12,3,3,0,0,0-.6-.1c-1.69.06-5.48,5.73-5.48,5.73s1.92-9.7,1.91-10.34-4.47.16-4.88,5.35a8,8,0,0,1-4.14,6.86c-2.26-1.68-2.68.66-6.81,5s-12.1,4.79-12.13,4.05,8.82-8.87,11.13-11.28.67-8.91-3.9-4.5a131.6,131.6,0,0,1-16.86,11.74c-7.37,1.48-14.93,12.4-19.08,19.38l0-.08s-14.82,16.27-23.61,24.35-18,15-18,15l-6.64-46.56-33.45,17.9s5.22,54,24.7,64.86a10,10,0,0,0,6.64,1C505.11,247.61,543.72,190.76,543.72,190.76Z"/><g class="cls-28"><g id="Path_357-8" data-name="Path 357-8"><path id="Path_357-9" data-name="Path 357-9" class="cls-4" d="M557.26,175.56s-8.64,0-20.09,15.65-37.93,65.92-69.28,52.85S480,262.86,480,262.86l62.64-28.28Z"/><path id="Path_377-3" data-name="Path 377-3" class="cls-4" d="M485.15,222.49l-9-56.33L490,157.24l4.2,54.29Z"/></g></g></g><path id="Path_360-3" data-name="Path 360-3" class="cls-29" d="M548.18,166.48c7.73-5.92,10.05-2.56,18.86-4s9.29-9.33,11.23-11.51,2.56-1,2.56-1,2.66,6.49-9,18.09"/><path id="Path_361-3" data-name="Path 361-3" class="cls-29" d="M596.22,146.19,578,161"/><path id="Path_362-3" data-name="Path 362-3" class="cls-29" d="M589,147.11s-2.4,2.82-3.8,4.13a44.35,44.35,0,0,1-3.83,3"/><path id="Path_132" data-name="Path 132" class="cls-30" d="M533.39,175.56s-32.95,33-41.47,38.33c0,0-10.26,10.17-9.91,17.42"/></g></g><g id="boys-8"><g id="foot-6"><g id="right_foot-2" data-name="right foot-2"><g id="Path_250-7" data-name="Path 250-7"><path id="Mask-255" class="cls-31" d="M133.7,578.14s3.94,5.41,2.71,23.7H52.07s1.15-9.51,10.26-11.85S99,571.67,102.47,574.06,133.7,578.14,133.7,578.14Z"/><g class="cls-32"><g id="Path_250-8" data-name="Path 250-8"><path id="Path_250-9" data-name="Path 250-9" class="cls-33" d="M139.69,599.28H44.08l3.26,7H143Z"/></g></g></g><g id="Path_258-7" data-name="Path 258-7"><path id="Mask-256" class="cls-2" d="M134.78,552.61s-2.17,16.17-1.08,25.52-21.94,10.44-21.94,10.44-5.33-9.39-12.21-12.92a20.83,20.83,0,0,0,4-4.86,127.62,127.62,0,0,0,4.87-26.21C109.78,536.53,134.78,552.61,134.78,552.61Z"/><g class="cls-34"><g id="Path_258-8" data-name="Path 258-8"><path id="Path_258-9" data-name="Path 258-9" class="cls-4" d="M106.16,555.29l29.62,13.28,2-17.26Z"/></g></g></g></g><g id="left_foot-3" data-name="left foot-3"><g id="Path_259-7" data-name="Path 259-7"><path id="Mask-257" class="cls-2" d="M241.89,546s-1.59,29.69-.51,37.52-1.91,10.89-1.91,10.89l-31.1-5,3.78-8.86A49.74,49.74,0,0,0,215.33,566c0-6.23-1.87-29.1-1.87-29.1Z"/><g class="cls-35"><g id="Path_259-8" data-name="Path 259-8"><path id="Path_259-9" data-name="Path 259-9" class="cls-4" d="M211.8,559.59l44.77,22.06-11.42-30.43Z"/></g></g></g><g id="Path_251-7" data-name="Path 251-7"><path id="Mask-258" class="cls-31" d="M241.34,587.6a32.67,32.67,0,0,0-28-3.69l-.63-4.32s-9.32,10.24-9.32,16.17,3.21,17,22,17a20.74,20.74,0,0,0,21.34-17l-5.33-13.21Z"/><g class="cls-36"><g id="Path_251-8" data-name="Path 251-8"><path id="Path_251-9" data-name="Path 251-9" class="cls-33" d="M246.67,590.71s-4,17.28-18.26,18.35-23.86-4-25.94-20.23-6.77,14.59-6.77,14.59L221.18,637l34.47-24.19Z"/></g></g></g></g></g><g id="pants-9"><path id="Mask-259" class="cls-7" d="M142.17,265.45,96.87,553.91l40.71,3.44s24.78-74.64,33.79-112.25,17.08-100,17.08-100,5.21,41.74,8.45,84.87,7.49,127.36,7.49,127.36H247V340.47s9-53.06-5.13-80.63S142.17,265.45,142.17,265.45Z"/><g class="cls-37"><g id="pants-10"><path id="Path_399" data-name="Path 399" class="cls-9" d="M184.35,308.06s-3.44,22.38,4.1,37.06l-6.35,61.4s-7-21-6.63-39.16S184.35,308.06,184.35,308.06Z"/><path id="Path_398" data-name="Path 398" class="cls-14" d="M184.24,305.46s-5.7,38.45,4.62,38.45c0,0,2.79,10.36,9.61,10.72"/><path id="Path_400" data-name="Path 400" class="cls-14" d="M188.45,343.91s-10.1,70.49-19.57,110.37-29,94.19-29,94.19l-40.29-2.83"/><path id="Path_401" data-name="Path 401" class="cls-14" d="M207.27,548.47h39.4"/></g></g></g><g id="right_hand-8" data-name="right hand-8"><g id="Path_357" data-name="Path 357"><path id="Mask-260" class="cls-2" d="M68.77,155.06s-11.36-22.64-22.28-24.83a132.68,132.68,0,0,1-16.82-11.57c-4.55-4.35-6.17,2-3.87,4.41s11.13,10.39,11.11,11.11-8,.25-12.09-4-4.55-6.55-6.8-4.91a7.94,7.94,0,0,1-4.13-6.74c-.42-5.1-4.85-5.89-4.88-5.27s1.92,10.16,1.92,10.16-3.79-5.58-5.47-5.64a2.46,2.46,0,0,0-2.37,2.54,2.5,2.5,0,0,0,.09.61c.46,1.34-4.14-2.26-3,2.7s24.08,24.75,36.24,25.2,19,16.29,19,16.29Z"/><g class="cls-38"><g id="Path_357-2" data-name="Path 357-2"><path id="Path_357-3" data-name="Path 357-3" class="cls-4" d="M41.92,150.15s8.61,0,20,15.42,38,64.82,69.14,52-12,18.44-12,18.44l-62.46-27.9Z"/><path id="Path_377" data-name="Path 377" class="cls-4" d="M113.86,196.4l8.8-55.3-13.75-8.78-4.06,53.3Z"/></g></g></g><path id="Path_360" data-name="Path 360" class="cls-39" d="M50.94,141.27c-7.71-5.84-10-2.54-18.8-4S22.87,128.1,20.92,126s-2.54-1-2.54-1-2.64,6.37,9,17.8"/><path id="Path_361" data-name="Path 361" class="cls-39" d="M3,121.22l18.18,14.63"/><path id="Path_362" data-name="Path 362" class="cls-39" d="M10.21,122.14s2.4,2.78,3.79,4.06a42,42,0,0,0,3.83,3"/></g><g id="head-10"><path id="Path_40-6" data-name="Path 40-6" class="cls-40" d="M177,52.13s-2.45-8.4-3.54-13a41.17,41.17,0,0,1,.15-12.34s-6.91-8.93-5.06-14.67c5-15.6,19.76-15.33,47.14-4.15a8.64,8.64,0,0,1,5.77,9.74,13.28,13.28,0,0,1,10.47,9.11c2.91,8.34-2.51,25.89-5.63,31.93a71.09,71.09,0,0,1-8.05,11.78Z"/><g id="Path_60-16" data-name="Path 60-16"><path id="Mask-261" class="cls-2" d="M176.36,29.46A2.28,2.28,0,0,0,176,30.7V55c2.43,17.27,9.86,25.38,19.48,24.51l-.33,7s-.32,3.09-.68,5.14c-.48,2.7-2.68,4.75-2.36,7.74.51,4.85,9.66,9.63,12.35,10.43a10.63,10.63,0,0,0,4.95-.24c13.12-3.66,14.34-22.07,14.34-22.07s-2.15-1.24-2.52-8.91-.13-25.49-.13-25.49,2.91-1,3.53-7-1.61-6.88-3.9-6.78-4.73,5.27-5.14,9.36c-3.68,2-2.42-2.54-2.65-7.85s-6.19-5.13-7.32-8.43a25.83,25.83,0,0,1-.95-8.61,35.07,35.07,0,0,1-24.23-.68Z"/><g class="cls-41"><g id="Path_60-17" data-name="Path 60-17"><path id="Path_60-18" data-name="Path 60-18" class="cls-4" d="M194,79.69s14.25-1.86,17.82-12.34c0,0-4,19-15.78,22.87S194,79.69,194,79.69Z"/></g></g></g><path id="Path_24-7" data-name="Path 24-7" class="cls-42" d="M197.37,38.28a8.5,8.5,0,0,0-8,0"/><path id="Path_25-6" data-name="Path 25-6" class="cls-43" d="M181,39.53a7.22,7.22,0,0,0-5.74-1.29"/><circle id="Oval-16" class="cls-5" cx="191.66" cy="45.13" r="1.14"/><path id="Path_31-8" data-name="Path 31-8" class="cls-23" d="M190.45,45.37a3.77,3.77,0,0,1,4.5.13"/><circle id="Oval_Copy_2-6" data-name="Oval Copy 2-6" class="cls-5" cx="177.97" cy="45.13" r="1.14"/><path id="Path_31_Copy-6" data-name="Path 31 Copy-6" class="cls-25" d="M176.5,45.33a3.77,3.77,0,0,1,4.49.21"/><path id="Path_46-6" data-name="Path 46-6" class="cls-21" d="M185.31,42.84a21.07,21.07,0,0,1-1.38,7.5c-3.16,6.22-5.47,14.1,6.59,9.31"/><path id="Path_32-7" data-name="Path 32-7" class="cls-44" d="M186.31,69.11c3.15.29,6.49-4.56,6.49-4.56a28.42,28.42,0,0,1-6.49,1.61,12.92,12.92,0,0,1-4.91-1.61S183.17,68.81,186.31,69.11Z"/><ellipse id="Oval-17" class="cls-21" cx="175.69" cy="46.27" rx="6.84" ry="6.86"/><ellipse id="Oval_Copy_3-7" data-name="Oval Copy 3-7" class="cls-21" cx="192.8" cy="46.27" rx="6.84" ry="6.86"/><path id="Path_63-6" data-name="Path 63-6" class="cls-21" d="M199.65,44l17.11-2.29"/><path id="Path_64-6" data-name="Path 64-6" class="cls-21" d="M182.54,44.39l4.56.33"/></g><g id="body-9"><g id="Path_395" data-name="Path 395"><path id="Mask-262" class="cls-45" d="M194.59,89.68s-46.15,1.45-58.81,25.75L110,191.58a3.44,3.44,0,0,1-4.36,2.16,3.49,3.49,0,0,1-1.74-1.31l-31.8-46.38L50.41,169.44s37.68,69.41,57.4,71.37S141,218.27,141,218.27l-3.21,53s59.55,29,108.91,0l3.15-87.57,31-59.49s-12.11-20.49-53.63-32.1l-13.53,17.93L193.08,107Z"/><g class="cls-46"><g id="Path_395-2" data-name="Path 395-2"><path id="Path_395-3" data-name="Path 395-3" class="cls-24" d="M49.34,171l24.75-27.4,6.51,6.61L51.49,180.85Z"/><path id="Path_381" data-name="Path 381" class="cls-47" d="M149.61,135.47s-12.78,88.1-50.48,100.58S132.51,253,132.51,253L141,223.14Z"/><path id="Path_396" data-name="Path 396" class="cls-47" d="M248.16,135.47s-14.08,23.41-12.3,64.57-102.44,15.44-100.29,72,112.59,48.58,112.59,48.58L256.42,287,249.8,200V184.77s-5.08-16.39-5.38-25.51S248.16,135.47,248.16,135.47Z"/></g></g></g><path id="Path_380" data-name="Path 380" class="cls-24" d="M194.89,88.92s-1.27,13,6.77,18a23.59,23.59,0,0,0,21.59-20.33,20.93,20.93,0,0,1,4.56,9.21c.5,4.48-5.83,22.86-13.18,31.45,0,0-4.84-13.34-13.94-17.71,0,0-12.29,0-14.6,14.17,0,0-3-13,0-20.26A89,89,0,0,1,194.89,88.92Z"/><g id="Path_394" data-name="Path 394"><path id="Mask-263" class="cls-45" d="M280.88,124.26S315.1,232.12,289,251.14,204,282.39,204,282.39L196,255.58l65.69-31.29-11.83-40.54Z"/><g class="cls-48"><g id="Path_394-2" data-name="Path 394-2"><path id="Path_397" data-name="Path 397" class="cls-47" d="M202.91,278.3s85.2-19.5,91-42.25-2.62-77-2.62-77l-3.16-28.34,33.8,105.31-53.55,72Z"/><path id="Path_394-3" data-name="Path 394-3" class="cls-24" d="M196.9,255.89l7,26.5,10.23-2.14-7-29.29Z"/></g></g></g><path id="Path_384" data-name="Path 384" class="cls-14" d="M248.16,271.21,204,282.39l-7-26.49,64.82-31.61s16.84-2.85,27.71,5.48"/><path id="Path_389" data-name="Path 389" class="cls-14" d="M261.82,223.57l-11.93-39.82s-10-24.4-1.73-48.28"/><path id="Path_390" data-name="Path 390" class="cls-14" d="M249.79,184.78a26.59,26.59,0,0,1-12.15-13.64"/><path id="Path_391" data-name="Path 391" class="cls-14" d="M141,218.27l8.57-82.8"/><path id="Path_392" data-name="Path 392" class="cls-14" d="M50.41,169.44l21.72-23.39,32.82,48s8.92,10,4.21,21.58"/><path id="Path_393" data-name="Path 393" class="cls-14" d="M105,194.06a16.27,16.27,0,0,1,15.28,6"/><path id="Path_382" data-name="Path 382" class="cls-14" d="M261.81,223.57s2.92-5.74,13.09-5.74"/></g><g id="left_hand-8" data-name="left hand-8"><g id="Path_502" data-name="Path 502"><path id="Mask-264" class="cls-2" d="M198.05,260.48s-8.19,1.61-10.63,0-4.69-4.89-14.49-2.44-13.82,5-16.31,3.71c0,0-.86,3.57,2.06,3.67,0,0-17.26,2.83-17,4.67s15.56,1.09,15.56,1.09-18.49,4.05-17.28,7.29a3.12,3.12,0,0,0,3.39,1.78,5.74,5.74,0,0,0,5.49,3.12h5.6s-.5,3.53,5,3.6,28.69-.11,43.51-8.5Z"/><g class="cls-49"><g id="Path_502-2" data-name="Path 502-2"><path id="Path_502-3" data-name="Path 502-3" class="cls-4" d="M198.48,258.53l-1.58,23.85,9.69-3.56Z"/></g></g></g><path id="Path_385" data-name="Path 385" class="cls-14" d="M158.29,265.45l15.41-3"/><path id="Path_386" data-name="Path 386" class="cls-14" d="M156.19,271.29l8.9-1"/><path id="Path_387" data-name="Path 387" class="cls-14" d="M143.31,280.24l22.69-3.9"/><path id="Path_388" data-name="Path 388" class="cls-14" d="M154.4,283.37l12.78-2.29"/></g></g></g></g></svg>