<svg xmlns="http://www.w3.org/2000/svg" xmlns:xlink="http://www.w3.org/1999/xlink" viewBox="0 0 762 620" xmlns:v="https://vecta.io/nano"><style><![CDATA[.B{isolation:isolate}.AK,.I{mix-blend-mode:multiply}.AZ{fill:none}.Aa{stroke-miterlimit:10}.Ab{stroke-width:.5}.Ac{fill:#ffd3c8}.Ad{fill:#f1b2a2}.Ae{fill:#fff}.Af{stroke:#061537}.Ag{stroke-linecap:round}.Ah{fill:#061537}.Ai{stroke-width:.88}.Aj{stroke:#301913}.Ak{stroke:#99776c}.Al{stroke:#9d3f28}.Am{fill:#e6e6e6}.An{stroke-linejoin:round}.Ao{stroke:#a1bedb}.Ap{stroke-width:10}.Aq{stroke:#d0e6f6}.Ar{stroke-width:5}.As{stroke:#7fc1ff}.At{fill:#ffbc00}.Au{fill:#ff9378}]]></style><defs><linearGradient id="A" x1="1527.86" y1="7139.18" x2="1528.36" y2="7130.26" gradientTransform="matrix(93.47, 0, 0, -51.5, -142442.32, 367721.5)" gradientUnits="userSpaceOnUse"><stop offset="0" stop-color="#d3f7ff"/><stop offset="1" stop-color="#dff4ff"/></linearGradient><linearGradient id="B" gradientTransform="matrix(93.47, 0, 0, -51.5, -142442.53, 367721.5)" xlink:href="#A"/><clipPath id="C" transform="translate(0 82.63)"><path d="M229.51 220.81c.44 3.19-2.1 6-5.67 6.27h-.54l-125.3.09c-3.43 0-6.38-2.38-6.71-5.44l-2.06-19.47L78.09 97.88c-.33-3.2 2.29-5.95 5.86-6.14l125.22-.06c3.35 0 6.27 2.29 6.67 5.27l13 118.83z" class="AZ"/></clipPath><clipPath id="D" transform="translate(0 82.63)"><path d="M147.88 145.77a17.92 17.92 0 0 0-1.71-7.81c-6.07-.1-6.22-6-4.18-6.73s3.84 2.13 3.84 2.13c-1-5.71 5-1.25 7.38-10.58s10.62-5.44 11.94-3 12.21 27.67-3.7 30.65a31.64 31.64 0 0 0 1.6 8.16 41.89 41.89 0 0 0 1.62 4.34c2.76 4.41 11.44 15 3.78 20.42s-22.78-6.27-21.94-15.34 1.34-17.71 1.37-22.24z" class="AZ"/></clipPath><clipPath id="E" transform="translate(0 82.63)"><path d="M159.22,349.55s5.93,17.16,6.08,23.17-1,26.71,4.83,28.54,13.35-.94,10.14-18.82S169.43,342,169.43,342Z" class="AZ"/></clipPath><clipPath id="F" transform="translate(0 82.63)"><path d="M109.9,320.17s-6.08,8.31-6,11,1.63,4.17-8.43,11.68S71,363.49,67.63,355.76s17-17.26,25.2-31.45,12.58-18.26,12.58-18.26Z" class="AZ"/></clipPath><clipPath id="G" transform="translate(0 82.63)"><path d="M214.85 270.35s7.35 26.93-18.89 28.28-46.85-32.26-54.54-18.92-15 35-28.78 42.64l-15-9.29s22.65-64.33 35.94-65.95c6.12-.74 30.68-.43 54.21 7.25 10.53 3.44 27.06 15.99 27.06 15.99z" class="AZ"/></clipPath><clipPath id="H" transform="translate(0 82.63)"><path d="M234.67,177.9s6.47-13.77,13-15.08a78.36,78.36,0,0,0,9.93-7c2.67-2.64,3.75,1.25,2.4,2.69s-6.52,6.31-6.5,6.74,4.8.17,7.21-2.42,2.63-4,4-3a4.67,4.67,0,0,0,2.37-4.11c.17-3.1,2.83-3.58,2.85-3.2s-1,6.19-1,6.19,2.19-3.4,3.19-3.43a1.55,1.55,0,0,1,1.48,1.56,1.49,1.49,0,0,1-.05.36c-.24.82,2.46-1.38,1.86,1.64s-14.09,15-21.4,15.3-11.17,9.9-11.17,9.9Z" class="AZ"/></clipPath><clipPath id="I" transform="translate(0 82.63)"><path d="M208.08 251.05c-6.26-10.81-11.88-15.38-13.12-18.42-2.69-6.63.63-20.51.63-20.51s11 25.21 22.14 28.45 29.2-59 29.2-59l-13-5.75L218.27 210s-12.14-34.24-21.12-45.51c-5.76-7.21-20.85-7.47-33.17-6.2-.73.08 1.07.5 1.05 1.05 0 2.34 2.8 7.92.44 8.34-1.41.26-5.49 4.95-8.44 3.92-5.49-1.93-10.46-10.35-11-10.19-19.36 6.45-26 13.17-28.32 17.09l-.26-.34S96.24 229.44 105.69 238s56.57 15.38 56.57 15.38l.34-2.15c12.57 1.08 29.06 7.94 48.89 18.08 1.66.85 4.74 2.18 4.74 2.18s-5.33-15.58-8.15-20.44zm-67.65-17c-9.3-3.78-17.84-7.43-17.85-8.06 0-1.19 7.35-19.16 9.34-24a87.56 87.56 0 0 1 8.51 32.08z" class="AZ"/></clipPath><clipPath id="J" transform="translate(0 82.63)"><path d="M163.81,244.73a16.26,16.26,0,0,0,6.37,0c2.25-.77,4.54-3.63,11.76-1.81s14.75,4.42,12.25,5.15-10-1.27-10-1.27,9.89,5.1,9.55,9.25a1.45,1.45,0,0,1-2,.6,1.34,1.34,0,0,1-.31-.22s-.15,2.66-1.89,2-5.86-5.81-9.15-6.29c0,0,7,5.83,6,7.52s-6-5.57-9.73-6.34-1.39,3-13.88-1.06Z" class="AZ"/></clipPath><clipPath id="K" transform="translate(0 82.63)"><path d="M460.7 216.72c.58 4.21-2.77 7.91-7.48 8.28h-.72l-165.39.09c-4.53 0-8.42-3.15-8.85-7.18l-2.73-25.7-14.72-137.78c-.44-4.22 3-7.86 7.73-8.11l165.31-.08c4.42 0 8.27 3 8.81 7l17.17 156.87z" class="AZ"/></clipPath><clipPath id="L" transform="translate(0 82.63)"><path d="M302.57,434.08s.74,20.64-.1,26.08,1.2,7.57,1.2,7.57l21.67-3.49-2.52-6.15a34.1,34.1,0,0,1-2-10c.07-4.32,1.65-20.22,1.65-20.22Z" class="AZ"/></clipPath><clipPath id="M" transform="translate(0 82.63)"><path d="M302.45,463A22.85,22.85,0,0,1,322,460.46l.49-3s6.35,7.11,6.28,11.23-2.44,11.83-15.46,11.83a14.11,14.11,0,0,1-14.62-11.83l3.86-9.18Z" class="AZ"/></clipPath><clipPath id="N" transform="translate(0 82.63)"><path d="M363.67 458.38s-2.81 3.77-2.17 16.48h58.62s-.69-6.61-7-8.24-25.26-12.73-27.71-11.07-21.74 2.83-21.74 2.83z" class="AZ"/></clipPath><clipPath id="O" transform="translate(0 82.63)"><path d="M363.23 440.64s1.31 11.24.44 17.74 15.12 7.25 15.12 7.25 3.82-6.52 8.64-9a14.08 14.08 0 0 1-2.72-3.37 87.75 87.75 0 0 1-3.07-18.22c-.85-5.58-18.41 5.6-18.41 5.6z" class="AZ"/></clipPath><clipPath id="P" transform="translate(0 82.63)"><path d="M402.3,200.22s7.05-7.15,15.12-7.15h20.43a2.16,2.16,0,0,1,2.17,2.2h0a2.39,2.39,0,0,1-2.25,2.33l-13.74.72a4.65,4.65,0,0,1-.09,4.81s.49,3.47-1.48,4.89c0,0-.25,3.67-2.58,4s.5,3.31-15.64,2.44h-10l.25-14.2Z" class="AZ"/></clipPath><clipPath id="Q" transform="translate(0 82.63)"><path d="M414 173.22a47.89 47.89 0 0 1 9.23-9.42 69.48 69.48 0 0 0 5.84-4.43s1.23 1.14.22 3.66-6.36 5.71-3.91 6.32 12.53-3 18.9-3.33 3 2.56 1.11 3.32c0 0 3.5-.33 3.61 1.3.06.94-1.62 1.72-.93 1.66a1.31 1.31 0 0 1 1.44 1.18 1.37 1.37 0 0 1-.69 1.29c-.25.2-.61.41-1 .77s.84.73-.64 2.05a34.61 34.61 0 0 1-6.67 3.85 21.39 21.39 0 0 1-8.54 3.74c-5.48 1-11.72.84-15 1.44-1.53.28-5.8 3.28-7.84 2.49-4-1.53-7.38-7.59-4.54-11.81 1.41-2.07 4.85-2.66 9.41-4.08z" class="AZ"/></clipPath><clipPath id="R" transform="translate(0 82.63)"><path d="M373,125.59s10.39,15.42,7.25,52.08l30.17-5.46,1.65,18s-21.91,8.78-43.79,16.08C316.41,223.62,356,153.54,356,153.54s-.41-15.88,5.07-24.9S373,125.59,373,125.59Z" class="AZ"/></clipPath><clipPath id="S" transform="translate(0 82.63)"><path d="M335.71,113s-39.61,12.75-44.17,28.75-8.23,74.93,1.13,96.24c0,0,34.71,9.58,48.91,9.69,11.82.08,29.17-9.12,29.17-9.12l.33-19.51,24.84-.7.4-22.69H372.24s7.53-61.14,0-70.7S335.71,113,335.71,113Z" class="AZ"/></clipPath><clipPath id="T" transform="translate(0 82.63)"><path d="M364.09,74.74a1.59,1.59,0,0,1,.24.86L364,92.54c-1.91,12-7.2,17.7-13.91,17.1l.15,4.88a17,17,0,0,1,.16,3.19c-.24,1.84-1.08,3.48-1.34,5.57a10.64,10.64,0,0,1-5.59,7.5,7.63,7.63,0,0,1-3.46-.17c-9.13-2.56-9.75-15.39-9.75-15.39s1.52-.87,1.87-6.22.4-17.77.4-17.77-2-.72-2.38-4.86,1.21-4.8,2.81-4.73,3.24,3.69,3.48,6.52c2.54,1.42,1.72-1.77,1.95-5.47s4.38-3.58,5.22-5.88a18.21,18.21,0,0,0,.74-6,24.57,24.57,0,0,0,16.94-.47Z" class="AZ"/></clipPath><clipPath id="U" transform="translate(0 82.63)"><path d="M693.37 216.85c.65 4.74-3.11 8.9-8.42 9.32h-.81l-186.06.1c-5.09 0-9.47-3.54-10-8.08l-3.07-28.91-16.56-155c-.5-4.75 3.39-8.84 8.7-9.12l186-.09c5 0 9.31 3.4 9.91 7.84l19.32 176.49z" class="AZ"/></clipPath><clipPath id="V" transform="translate(0 82.63)"><path d="M599,152s42,31.71,49.81,18.18c0,0,5-9.13,1.07-28.23,0,0,5.77-.61,5.69-2.69s-.79-2.31-7.3-3-4.66-8.53-.25-7.52,8.53,7.68,11,6.39-.49-5-.49-5,3.07,4,4.7,1.7-.82-4.78-.82-4.78a4.11,4.11,0,0,0,4.53.76c2.37-1.3-4.26-9.91-7.61-9.91,0,0-3.33-.33-3.83,1.59,0,0-4.9-2-5.78,1,0,0-5.43-.79-7,3.36,0,0-5-.46-3.63,9.35s1.76,16.36-.28,16.36-29.52-37.1-43.51-41.32S599,152,599,152Z" class="AZ"/></clipPath><clipPath id="W" transform="translate(0 82.63)"><path d="M539,430.37h28.14l-.85,49H540.9s-14.68-2.34-14.74-3.94l18.21-6.62a4.61,4.61,0,0,0,2.92-5.43Z" class="AZ"/></clipPath><clipPath id="X" transform="translate(0 82.63)"><path d="M636.41,435.14l12.27-12,12.47,32.77a22.25,22.25,0,0,0,6.17,8.86l12.65,11s-8.63,3.79-15.56,2-21-12.65-21-12.65Z" class="AZ"/></clipPath><clipPath id="Y" transform="translate(0 82.63)"><path d="M552.73 220.3s-16.5 12-19.92 17.8c-7.62 13-3.75 27.56-2 50.45 3.88 49.78 8.44 153.34 8.44 153.34h30l18-156.1s1.6 50.8 47.06 156.41l32.18.14L627 238.09l-61.74-34.93z" class="AZ"/></clipPath><clipPath id="Z" transform="translate(0 82.63)"><path d="M551.48 106.91a5.78 5.78 0 0 0-2.27 0q-30 12.42-25.55 36.72c4.58 25.13 17.86 46.19 17.39 73.11l-12.94 29.12s22.12-7.33 39.45 2c33 17.8 60.86-10 60.86-10s-10.06-51.66-11.23-67.76c-.68-9.3 3.12-9.46 4.47-16 2.51-12.12-8-20.7-14.72-29.18-4.28-5.41-7.37-10.39-8.85-12.63-6.12-9.25-10-3.75-13.25-5.41-10.06-5.18-33.36.03-33.36.03z" class="AZ"/></clipPath><clipPath id="a" transform="translate(0 82.63)"><path d="M526.59 129.74c3.72-8.17 18.83-13.38 29.23 6.79s20.12 45.05 20.12 45.05 37.18-27.3 45.44-29.6 25.07-3 36.84 3.91 14.29 10.92 13.16 11.44c-.61.28-4.48-2-11.22-4.88a30.88 30.88 0 0 0-5-1.25s3.14 5-.09 5c0 0-1.09 2.8-3.35 2.61 0 0 .71 2.28-3.48 2.07s-7.1-.07-7-3.38c0 0-8-2.43-9.51-5.06 0 0-1.85-1.69-5.67 1s-46.73 72.27-74.55 39.15-28.63-64.67-24.92-72.85z" class="AZ"/></clipPath><clipPath id="b" transform="translate(0 82.63)"><path d="M595.47,61s12.94,33-7.23,35.93c0,0-10.7,5.22-9.72,6a119.3,119.3,0,0,0,12.13,3.82s11.09,14.94-4.26,19.36-38.27-18.7-38.27-18.7a33.07,33.07,0,0,1,5.22-1.68c4.53-.94,6.94-1.29,7-2.8a42.81,42.81,0,0,0-1.49-16.21,111.66,111.66,0,0,0-7.08-13.76s8.78-10.54,15.72-17.31,19.43-2.24,19.43-2.24a30.88,30.88,0,0,1,6.79,3.23A7.55,7.55,0,0,1,595.47,61Z" class="AZ"/></clipPath><path id="c" d="M135.97 359.3l3.67 5.35 6.08.86-3.47 4.17 2.14 5.89-5.82-2.78-4.75 2.78-.13-5.89-5.08-4.17 5.75-.86 1.61-5.35z"/><path id="d" d="M193.73 359.3l3.68 5.35 6.07.86-3.47 4.17 2.15 5.89-5.83-2.78-4.75 2.78-.12-5.89-5.08-4.17 5.74-.86 1.61-5.35z"/></defs><g class="B"><path d="M403.85 600.03h-152.7l42.34-91.4h150.64l-40.27 91.4zm-48.79-64.95c-9.349.006-16.924 7.588-16.92 16.937s7.584 16.925 16.933 16.923S372 561.359 372 552.01a16.93 16.93 0 0 0-16.94-16.93z" fill="#7fc1ff"/><path d="M270.34 508.63l-28.94 57.23a35.2 35.2 0 0 0 31.42 51.09h36.29v-18.32l-35.11-.37a13.53 13.53 0 0 1-12.15-19.15l32.04-70.48z" fill="#3e6c98"/><path d="M305.74 598.63l155 1.35a3.77 3.77 0 0 1 3.74 3.77v9.41a3.77 3.77 0 0 1-3.77 3.78h-155a3.77 3.77 0 0 1-3.77-3.78v-10.74a3.77 3.77 0 0 1 3.8-3.79z" fill="#5185b7"/><g fill="#3e6c98"><path d="M.12 143.13A16.93 16.93 0 0 1 15 124.37a17.88 17.88 0 0 1 1.94-.11h662.85c8.638 0 15.891 6.503 16.83 15.09l40.15 364c1.01 9.297-5.704 17.654-15 18.67-.61.06-1.22.1-1.84.1H54.58c-8.602-.004-15.835-6.455-16.82-15z"/><path d="M753.69 490.05c-1.731 17.895-16.556 31.677-34.53 32.1-32.23 1.89 34.53-32.1 34.53-32.1zM46 120.88s-46-.98-46 19.35 46-19.35 46-19.35z"/></g><path d="M17.1 139.79c-1.098-9.283 5.537-17.7 14.82-18.8a19 19 0 0 1 2-.11h662.84c8.609-.01 15.853 6.446 16.83 15l40.06 353.88a16.93 16.93 0 0 1-14.94 18.71 15.44 15.44 0 0 1-1.92.1H71.47c-8.583.008-15.81-6.416-16.81-14.94z" fill="#7fc1ff"/><g opacity=".77" transform="translate(0 82.63)"><path d="M37.37,70.36a13.54,13.54,0,0,1,11.8-15.09,14.89,14.89,0,0,1,1.64-.1H684.88A13.54,13.54,0,0,1,698.34,67.3l28.75,272.63A13.53,13.53,0,0,1,715,354.81a13.37,13.37,0,0,1-1.42.08H80.23A13.55,13.55,0,0,1,66.79,343Z" fill="url(#A)"/><path d="M50.81,58.56A10.17,10.17,0,0,0,40.73,70L70.15,342.58a10.16,10.16,0,0,0,10.08,8.92H713.62a10.16,10.16,0,0,0,10.11-11.21L695,67.66a10.14,10.14,0,0,0-10.1-9.1H50.81m0-3.39H684.88A13.54,13.54,0,0,1,698.34,67.3l28.75,272.63a13.54,13.54,0,0,1-13.47,15H80.23A13.55,13.55,0,0,1,66.79,343L37.37,70.36A13.54,13.54,0,0,1,50.81,55.17Z" fill="url(#B)"/></g><image class="I" width="255" height="318" transform="translate(26 132.63)" opacity=".6"/><path d="M244.39 414.77H95.8a10.48 10.48 0 0 1-10.47-9.45l-23.5-234.29a11.35 11.35 0 0 1 11.3-12.5h147.23a11.37 11.37 0 0 1 11.31 10.22l23.56 234.06a10.93 10.93 0 0 1-10.84 11.96z" class="Ae"/><image class="I" width="246" height="212" transform="translate(244 238.63)" opacity=".6"/><path d="M453.26 414.77h-148.6a10.47 10.47 0 0 1-10.46-9.45L280 263.72h170.05l14 139.09a10.91 10.91 0 0 1-10.79 11.96z" class="Ae"/><g clip-path="url(#C)"><path d="M336.19 371.79a11.41 11.41 0 0 1-10.44 13.12l-1 .05-241.75.13a13 13 0 0 1-12.84-11.37l-4.64-40.7-25-218.26a11.45 11.45 0 0 1 10.83-12.84l235.92-.12a13 13 0 0 1 12.78 11l34.7 248.45z" class="Am"/><g opacity=".8"><path d="M166.3 244.06s17 1.19 19-12.66-13.67-20.86-13.67-20.86 4.59-15-8.21-18.94c0 0-8.16-11.28-23.16-4.61s-7.59 21-14.65 24.49-16.22 5.72-12.9 16.83c0 0-11.41 9.71-5.19 27.34s35.57 9.31 31.67-6c0 0 10.1 2.77 11.91-3.48s15.2-2.11 15.2-2.11z" class="Ah"/><path d="M147.88 228.4a17.92 17.92 0 0 0-1.71-7.81c-6.07-.1-6.22-6-4.18-6.73s3.84 2.13 3.84 2.13c-1-5.71 5-1.25 7.38-10.58s10.62-5.44 11.94-3 12.21 27.67-3.7 30.65a31.64 31.64 0 0 0 1.6 8.16 41.89 41.89 0 0 0 1.62 4.34c2.76 4.41 11.44 15 3.78 20.42s-22.78-6.27-21.94-15.34 1.34-17.71 1.37-22.24z" class="Ac"/><g clip-path="url(#D)" class="Ad"><path d="M162.26 232.89s-6.75 1.88-12-6.84c0 0 2.56 16.56 12.53 16.92s-.53-10.08-.53-10.08z"/></g><path d="M161.72 210.42a20.63 20.63 0 0 0 2 6c1.42 2.52 2.61 4.11-1.73 4.37" class="AZ Aa Ag Ai Al"/><g class="Ah"><ellipse cx="165.5" cy="127.91" rx=".9" ry=".92" transform="matrix(.760859 -.648917 .648917 .760859 -43.43 220.6)"/><ellipse cx="157.37" cy="130.35" rx=".9" ry=".92" transform="matrix(.760859 -.648917 .648917 .760859 -46.95 215.91)"/></g><g stroke-width="1.47" class="AZ Aa Af Ag"><path d="M159 208.38s-4.62-.56-6.15 2.79m13.46-5.19a2.8 2.8 0 0 0-2.82.85"/></g><path d="M166.82 222.45a6.53 6.53 0 0 1-7.91 1.84c0 0 3 3.11 5.05 2.49s2.86-4.33 2.86-4.33z" class="Aa Ae Ai Al"/><path d="M174.85 443.1s5.54 4.78 7 10.77 1.93 16.48 3.55 24.75.05 20.78-11 22.17-12.87-25.31-9.09-32.69 9.54-25 9.54-25z" fill="#230d99"/><path d="M159.22 432.18s5.93 17.16 6.08 23.17-1 26.71 4.83 28.54 13.35-.94 10.14-18.82-10.84-40.44-10.84-40.44z" class="Ac"/><g clip-path="url(#E)" class="Ad"><path d="M158.41 433.44a21.64 21.64 0 0 0 15.17 4.57c8.57-1-2.48-9.72-2.48-9.72z"/><path d="M169.4 435.7s10.12 24.3 9.17 49.24 11.28-23.6 11.28-23.6l-13.63-33z"/></g><path d="M103.88 413.78s4.54 5.64 2 8.8-17.4 19.65-21.36 23.23-13.41 8.73-20.63 6.9-10.92-9.33 6.07-21.92a110.37 110.37 0 0 1 33.92-17.01z" fill="#230d99"/><path d="M109.9 402.8s-6.08 8.31-6 11 1.63 4.17-8.43 11.68S71 446.12 67.63 438.39s17-17.26 25.2-31.45 12.58-18.26 12.58-18.26z" class="Ac"/><g clip-path="url(#F)" class="Ad"><path d="M97.88 395.86l12.19 13.9 2.42-7.9z"/><path d="M106 403.55s-5.44 8.2-5.39 10.23-18.16 22.24-32.57 27 10.5 4.85 10.5 4.85l33.65-29.84z"/></g><path d="M155.54 358.54s17.64 18.5 18.93 69.73c0 0-8.76 7.2-17.05 5.09 0 0-7.13-21.7-10.61-30.42a133.13 133.13 0 0 0-10.73-22.44c-9.51-14.95 5.37-26.42 11.39-26.42s8.07 4.46 8.07 4.46z" fill="#dc5f58"/><path d="M214.85 352.98s7.35 26.93-18.89 28.28-46.85-32.26-54.54-18.92-15 35-28.78 42.64l-15-9.29s22.65-64.33 35.94-65.95c6.12-.74 30.68-.43 54.21 7.25 10.53 3.44 27.06 15.99 27.06 15.99z" fill="#ff6f66"/><g clip-path="url(#G)"><path d="M198.44 343.88s7.89 23.35-10.54 21.95-37.44-21.84-47.53-2.71 62.46 41.86 62.46 41.86l24.69-22.73-6.67-32.47z" fill="#dc5f58"/></g><path d="M215 354.08c7.16 32-23.25 28-29.38 26.3s-10.16-3.57-24.42-13.15-17-9.8-20.78-3-16.92 37.08-27.81 40.77l-14.75-9.12" class="AZ Aa Ai Aj"/><path d="M234.67 260.53s6.47-13.77 13-15.08a78.36 78.36 0 0 0 9.93-7c2.67-2.64 3.75 1.25 2.4 2.69s-6.52 6.31-6.5 6.74 4.8.17 7.21-2.42 2.63-4 4-3a4.67 4.67 0 0 0 2.37-4.11c.17-3.1 2.83-3.58 2.85-3.2s-1 6.19-1 6.19 2.19-3.4 3.19-3.43a1.55 1.55 0 0 1 1.48 1.56 1.49 1.49 0 0 1-.05.36c-.24.82 2.46-1.38 1.86 1.64s-14.09 15-21.4 15.3-11.17 9.9-11.17 9.9z" class="Ac"/><g clip-path="url(#H)" class="Ad"><path d="M250.75 257.63s-5.18 0-11.81 9.36-21.76 39.41-40.74 31.6 7.54 11.23 7.54 11.23l37.12-16.91zm-42.52 28L202 251.97l8.13-5.33 3.32 32.45z"/></g><g class="AZ Aa Ai Ak"><path d="M245.18 252.15c4.54-3.54 6-1.54 11.24-2.4s5.42-5.57 6.56-6.88 1.51-.62 1.51-.62 1.7 3.88-5.12 10.82"/><path d="M273.67 240.01L263 248.89"/><path d="M269.36 240.56l-2.21 2.47a26.22 26.22 0 0 1-2.26 1.8"/></g><path d="M208.08 333.68c-6.26-10.81-11.88-15.38-13.12-18.42-2.69-6.63.63-20.51.63-20.51s11 25.21 22.14 28.45 29.2-59 29.2-59l-13-5.75-15.66 34.18s-12.14-34.24-21.12-45.51c-5.76-7.21-20.85-7.47-33.17-6.2-.73.08 1.07.5 1.05 1.05 0 2.34 2.8 7.92.44 8.34-1.41.26-5.49 4.95-8.44 3.92-5.49-1.93-10.46-10.35-11-10.19-19.36 6.45-26 13.17-28.32 17.09l-.26-.34s-21.21 51.28-11.76 59.84 56.57 15.38 56.57 15.38l.34-2.15c12.57 1.08 29.06 7.94 48.89 18.08 1.66.85 4.74 2.18 4.74 2.18s-5.33-15.58-8.15-20.44zm-67.65-17c-9.3-3.78-17.84-7.43-17.85-8.06 0-1.19 7.35-19.16 9.34-24a87.56 87.56 0 0 1 8.51 32.08z" fill="#56d4b7"/><g clip-path="url(#I)" fill="#4bc5a9"><path d="M196.86 270.1s.76 30.08-12.38 32.18a17.81 17.81 0 0 1-15.62-4.81S158 310.05 146 302.7c0 0-4.67-2.77-8.44-15 0 0-5.29 20.54 3.11 22.84s23.55-1.65 27.76 3.73 13.17 2.14 13.28 6.41-17.9 4.28-17.9 4.28l-1.1 11 58.38 23.53-11.34-30-13.92-25-.25-9.72 1.06-14c.25-4.72.22-10.67.22-10.67z"/><path d="M196.86 270.1s10.66 61.43 27.58 48.95-4 14.71-4 14.71l-22.59-24-2.27-15s1.35-8.36 1.57-12.76-.29-11.9-.29-11.9zm41.97-11.62l-20.89 35.15-.7-27.52 16.41-12.57zm-100.97 15.43s-2.07 15.86 5.09 27.33 5.86 7.4 5.86 7.4-11.8-1.51-14-8.71a104 104 0 0 1-3.16-14.55z"/></g><path d="M162 238.27l.82 2.54c2.12 6.82 1.62 10.65-2.21 11.66-6.46 1.7-13.3-12.51-13.3-12.51s-5.8 20.77 1 22.11 12.39-7.36 12.39-7.36 15.3 3.55 15.92-1.08S162 238.27 162 238.27z" class="Ae"/><g class="AZ Aa Ai Aj"><path d="M246.93 264.23l-13-5.75-15.66 34.15s-4.53 7.53-2 14.41m2-14.41s-1.2 8.18 2.88 9.68m-58.72 33.66l1.37-11s-32-11.13-41.23-16.32a13.46 13.46 0 0 0-8.47.91"/><path d="M122.58 308.63a6 6 0 0 0-5-4.17m87.36 7.46l-9.35-17.17a182.64 182.64 0 0 0 1.27-24.65m-59.01 3.2s-8.22 15.47-10.71 22.63-4.57 12.31-4.57 12.31"/><path d="M195.57 293.96a79.64 79.64 0 0 0-1.7 13.61c-.1 6.46.79 8.29 6.14 14.54s14.91 24 15.87 31.5l-10.27-4.7"/></g><path d="M163.81 327.36a16.26 16.26 0 0 0 6.37 0c2.25-.77 4.54-3.63 11.76-1.81s14.75 4.42 12.25 5.15-10-1.27-10-1.27 9.89 5.1 9.55 9.25a1.45 1.45 0 0 1-2 .6 1.34 1.34 0 0 1-.31-.22s-.15 2.66-1.89 2-5.86-5.81-9.15-6.29c0 0 7 5.83 6 7.52s-6-5.57-9.73-6.34-1.39 3-13.88-1.06z" class="Ac"/><g clip-path="url(#J)" class="Ad"><path d="M163.86 327.05l1 9.27-3.73-1.3z"/></g><g class="AZ Aa Ai Ak"><path d="M171 327.03s5.35-3 10.66-1.48 13.61 3.25 13.07 4.76-9.21-.46-10.11-.84c0 0 8.5 5 9 7.87s-2.15 1.72-2.15 1.72m-.01.01s-2.18-4.17-8.65-7.24"/></g></g></g><image class="I" width="261" height="240" transform="translate(225 103.63)" opacity=".6"/><g clip-path="url(#K)"><path d="M601.54 389.63a15.07 15.07 0 0 1-13.79 17.33l-1.35.06-319.09.18c-8.604-.063-15.841-6.468-16.95-15l-6.12-53.75-33-288.13a15.1 15.1 0 0 1 14.26-17l311.5-.18a17.18 17.18 0 0 1 16.86 14.56l45.81 328z" class="Ae"/><path d="M302.57 516.71s.74 20.64-.1 26.08 1.2 7.57 1.2 7.57l21.67-3.49-2.52-6.15a34.1 34.1 0 0 1-2-10c.07-4.32 1.65-20.22 1.65-20.22z" class="Ac"/><g clip-path="url(#L)" class="Ad"><path d="M323.32 526.19l-31.39 15.34 8.31-21.15z"/></g><path d="M302.45 545.63a22.85 22.85 0 0 1 19.55-2.54l.49-3s6.35 7.11 6.28 11.23-2.44 11.83-15.46 11.83a14.11 14.11 0 0 1-14.62-11.83l3.86-9.18z" fill="#2a3756"/><g clip-path="url(#M)"><path d="M298.71 547.82s2.59 12 12.46 12.75 16.64-2.79 18.28-14.06 4.55 10.12 4.55 10.12l-18.12 23.33-23.68-16.8z" fill="#fff9f9"/></g><path d="M363.67 541.01s-2.81 3.77-2.17 16.48h58.62s-.69-6.61-7-8.24-25.26-12.73-27.71-11.07-21.74 2.83-21.74 2.83z" fill="#2a3756"/><g clip-path="url(#N)"><path d="M359.25 555.71h66.45l-2.35 4.92h-66.48z" fill="#fff9f9"/></g><path d="M363.23 523.27s1.31 11.24.44 17.74 15.12 7.25 15.12 7.25 3.82-6.52 8.64-9a14.08 14.08 0 0 1-2.72-3.37 87.75 87.75 0 0 1-3.07-18.22c-.85-5.58-18.41 5.6-18.41 5.6z" class="Ac"/><g clip-path="url(#O)" class="Ad"><path d="M383.08 525.93l-20.75 9.23-1.21-12z"/></g><path d="M402.3 282.85s7.05-7.15 15.12-7.15h20.43a2.16 2.16 0 0 1 2.17 2.2h0a2.39 2.39 0 0 1-2.25 2.33l-13.74.72a4.65 4.65 0 0 1-.09 4.81c0 0 .49 3.47-1.48 4.89 0 0-.25 3.67-2.58 4s.5 3.31-15.64 2.44h-10l.25-14.2z" class="Ac"/><g clip-path="url(#P)" class="Ad"><path d="M396.25 282.2l4 16.17-10.25 1z"/></g><g class="AZ Aa Ab Aj"><path d="M438.25 280.06l-14.23.9s1.14 3-.07 4.79c0 0 .33 3.86-1.49 4.73 0 0-.74 4.27-3.38 4.6m-22.84-12.18h6s5.53-5.64 9.17-6.07"/></g><path d="M414 255.85a47.89 47.89 0 0 1 9.23-9.42 69.48 69.48 0 0 0 5.84-4.43c0 0 1.23 1.14.22 3.66s-6.36 5.71-3.91 6.32 12.53-3 18.9-3.33 3 2.56 1.11 3.32c0 0 3.5-.33 3.61 1.3.06.94-1.62 1.72-.93 1.66a1.31 1.31 0 0 1 1.44 1.18 1.37 1.37 0 0 1-.69 1.29c-.25.2-.61.41-1 .77s.84.73-.64 2.05a34.61 34.61 0 0 1-6.67 3.85 21.39 21.39 0 0 1-8.54 3.74c-5.48 1-11.72.84-15 1.44-1.53.28-5.8 3.28-7.84 2.49-4-1.53-7.38-7.59-4.54-11.81 1.41-2.07 4.85-2.66 9.41-4.08z" class="Ac"/><g clip-path="url(#Q)" class="Ad"><path d="M410.57 256.12l6.07 15-9.36 1.51z"/></g><g class="AZ Aa Ab Aj"><path d="M445.35 251.98l-9.11 2m11.53 1.05l-10.63 2.18m10.61.98l-9.58 3"/><path d="M435.35 251.92a30.31 30.31 0 0 1 2.93 10.48m-9.01 2.45l-4.53-11.53s1.49 6.06-6 9.3"/></g><path d="M292.81 318.9a371.45 371.45 0 0 0-2.88 71.73c2.44 37.56 4.85 94.84 9.14 136.7h26.6l8.92-160.81s6 99.56 24.22 159.81h27.05l-7.62-128.84c-3.37-42.48-8.71-77.2-8.71-77.2z" fill="#ffe39b"/><g class="AZ Aa Ab Aj"><path d="M354.45 328.4s-18.9 5.42-61.78-7.81c0 0-3.84 33.23-3.46 50m48.14-32.68s4.75 27.82-2.78 28.4m-35.4 154.88h26.62m33.15 0h26.62l-9-143.69"/><path d="M329.2 455.56l5.39-89-7.7.57m30.95-32.91a16.74 16.74 0 0 0 11.69 9.72m-61.99-9.72a17.6 17.6 0 0 1-12 9.72"/></g><path d="M373 208.22s10.39 15.42 7.25 52.08l30.17-5.46 1.65 18s-21.91 8.78-43.79 16.08C316.41 306.25 356 236.17 356 236.17s-.41-15.88 5.07-24.9 11.93-3.05 11.93-3.05z" fill="#7d4545"/><g clip-path="url(#R)" class="Ae"><path d="M404.51 255.94l2.5 21.82 8.06-3-1.81-27.63z"/></g><path d="M335.71 195.63s-39.61 12.75-44.17 28.75-8.23 74.93 1.13 96.24c0 0 34.71 9.58 48.91 9.69 11.82.08 29.17-9.12 29.17-9.12l.33-19.51 24.84-.7.4-22.69h-24.08s7.53-61.14 0-70.7-36.53-11.96-36.53-11.96z" fill="#955454"/><g clip-path="url(#S)"><g fill="#7d4545"><path d="M294.37 218.28s20.34 70.66 39.27 70.66 33.82 11.32 33.82 11.32-11.33 8.26-36.91 6.57-14.36 16.36 40.1 14.34-47.43 24.64-47.43 24.64L263 334.17l15.29-125.95zm23.41.52s8.58 14.25 11.42 21.34c6.07 15.15 9.16 29.53 9.84 29.94 5.42 3.22 32 .89 33.2 8.18s-45.16 5.7-45.16 5.7z"/></g><path d="M390.66 278.48h5.58l-.42 23.91h-5.57l.41-23.91z" class="Ae"/></g><path d="M371.08 301.63s-45.21 4.65-54.71-3.06-21.91-41.21-24.06-52.88-5.49-31.12 14.4-33.29 27.28 59 28.8 62 36.73 3.86 36.73 3.86z" fill="#955454"/><g class="AZ Aa Ab Aj"><path d="M395.92 300.95l.4-22.69s-59.26.41-60.81-3.86-6.32-39.06-14.87-51.57-21.39-9-24.41-6"/><path d="M372.27 278.3s5.33-42 3-62.37m36.8 56.93l-1.65-18-30.17 5.46s-4.58 4.45-4.21 13.55m4.66-39.79c.58 10.73-.45 26.21-.45 26.21s-4-.31-4.8 2.19m-52.87 12.87c5.53-4.46 14 0 14 0s-10.4 2.35-11.58 12.93"/></g><path d="M363.36 173.17l2.63-9a28.51 28.51 0 0 0 .05-8.6c0 0 4.93-6.23 3.71-10.24-3.32-10.88-13.61-10.69-32.89-2.89a6.15 6.15 0 0 0-4.15 6.79 9.51 9.51 0 0 0-7.42 6.35c-2.14 5.82 1.43 18.06 3.54 22.27a49.26 49.26 0 0 0 5.49 8.22z" fill="#4c2603"/><path d="M364.09 157.37a1.59 1.59 0 0 1 .24.86l-.33 16.94c-1.91 12-7.2 17.7-13.91 17.1l.15 4.88a17 17 0 0 1 .16 3.19c-.24 1.84-1.08 3.48-1.34 5.57a10.64 10.64 0 0 1-5.59 7.5 7.63 7.63 0 0 1-3.46-.17c-9.13-2.56-9.75-15.39-9.75-15.39s1.52-.87 1.87-6.22.4-17.77.4-17.77-2-.72-2.38-4.86 1.21-4.8 2.81-4.73 3.24 3.69 3.48 6.52c2.54 1.42 1.72-1.77 1.95-5.47s4.38-3.58 5.22-5.88a18.21 18.21 0 0 0 .74-6 24.57 24.57 0 0 0 16.94-.47z" class="Ac"/><g clip-path="url(#T)" class="Ad"><path d="M351.15 192.4s-9.93-1.3-12.29-8.61c0 0 2.55 13.25 10.74 15.94s1.55-7.33 1.55-7.33z"/></g><g class="AZ Aa Af Ag"><path d="M349.31 163.51a5.91 5.91 0 0 1 5.57 0m5.85.87a5.09 5.09 0 0 1 4-.89"/></g><ellipse cx="353.21" cy="85.66" rx=".8" ry=".79" transform="matrix(.710185 -.704015 .704015 .710185 42.06 356.13)" class="Ah"/><path d="M354.05 168.46a2.64 2.64 0 0 0-3.15.09" class="AZ Aa Ab Af"/><ellipse cx="362.77" cy="85.66" rx=".8" ry=".79" transform="matrix(.710185 -.704015 .704015 .710185 44.83 362.86)" class="Ah"/><g class="AZ Aa Ab Af"><path d="M363.8 168.43a2.65 2.65 0 0 0-3.15.15"/><path d="M357.67 166.7a14.78 14.78 0 0 0 .88 5.23c2.13 4.33 3.65 9.83-4.72 6.49" class="Ag"/></g><path d="M356.65 185.01c-2.2.21-4.47-3.17-4.47-3.17a19.32 19.32 0 0 0 4.51 1.11 9 9 0 0 0 3.45-1.11c0 0-1.28 2.97-3.49 3.17z" class="Aa Ab Ae Af"/><g class="AZ Ab Af"><ellipse cx="364.35" cy="86.46" rx="4.82" ry="4.74" transform="matrix(.710185 -.704015 .704015 .710185 44.73 364.21)"/><ellipse cx="352.4" cy="86.46" rx="4.82" ry="4.74" transform="matrix(.710185 -.704015 .704015 .710185 41.27 355.79)"/><g class="Aa Ag"><path d="M347.64 167.49l-11.92-1.59m23.87 1.88l-3.19.23"/></g></g><g class="Ae"><path d="M331.15 196.69l-.68.29a4 4 0 0 0-2.19 5.23c0 .1.09.2.14.3l10 19.59s-.59-4.39.81-6.58a5.33 5.33 0 0 1 4.36-2.1 80.88 80.88 0 0 1-10.33-8c-2.5-2.79-2.11-8.73-2.11-8.73zm19.12.43a28.19 28.19 0 0 1-1.5 7.54 48.78 48.78 0 0 1-5.16 8.76 6.11 6.11 0 0 1 5-.55c2.44 1 3.89 5 3.89 5s.85-7.4 1.11-11.38l-.26-6.39a3.09 3.09 0 0 0-3.08-2.98z"/><path d="M340.2 213.97s2.53-.79 3.78 2.81c0 0 .41-5.13 4.24-4.32l-.34-1.27-3.45 1.6s-2.46 1-3.71.27-.52.91-.52.91z"/></g></g><g class="AZ"><g class="Ag An"><path d="M98.7 326.63h72.26" class="Ao Ap"/><path d="M98.7 342.25h137.67M99.7 351.42h52.22" class="Aq Ar"/></g><path d="M95.68 386.49l1.37 13.63a3.71 3.71 0 0 0 3.69 3.34h138.81a3.71 3.71 0 0 0 3.68-4.08l-1.37-13.63a3.7 3.7 0 0 0-3.69-3.33H99.37a3.71 3.71 0 0 0-3.69 4.07z" opacity=".5" class="Aa As"/></g><g class="At"><path d="M107.08 359.3l3.68 5.35 6.07.86-3.47 4.17 2.15 5.89-5.82-2.78-4.75 2.78-.13-5.89-5.08-4.17 5.74-.86 1.61-5.35z"/><use xlink:href="#c"/><path d="M164.85 359.3l3.68 5.35 6.07.86-3.47 4.17 2.14 5.89-5.82-2.78-4.75 2.78-.13-5.89-5.08-4.17 5.75-.86 1.61-5.35z"/></g><g class="Am"><use xlink:href="#d"/><path d="M222.61 359.3l3.68 5.35 6.08.86-3.48 4.17 2.15 5.89-5.82-2.78-4.75 2.78-.13-5.89-5.08-4.17 5.74-.86 1.61-5.35z"/></g><g class="AZ"><g class="Ag An"><path d="M308.71 326.63h72.27" class="Ao Ap"/><path d="M308.71 342.25h137.67m-136.67 9.17h52.22" class="Aq Ar"/></g><path d="M305.7 386.49l1.37 13.63a3.7 3.7 0 0 0 3.69 3.34h138.8a3.71 3.71 0 0 0 3.69-4.08l-1.37-13.63a3.71 3.71 0 0 0-3.69-3.33h-138.8a3.71 3.71 0 0 0-3.69 4.07z" opacity=".5" class="Aa As"/></g><g class="At"><path d="M317.1 359.3l3.68 5.35 6.07.86-3.47 4.17 2.14 5.89-5.82-2.78-4.75 2.78-.12-5.89-5.08-4.17 5.74-.86 1.61-5.35zm28.88 0l3.68 5.35 6.08.86-3.48 4.17 2.15 5.89-5.83-2.78-4.74 2.78-.13-5.89-5.08-4.17 5.74-.86 1.61-5.35z"/><use xlink:href="#c" x="238.9"/><path d="M403.75 359.3l3.68 5.35 6.07.86-3.47 4.17 2.14 5.89-5.82-2.78-4.75 2.78-.12-5.89-5.09-4.17 5.75-.86 1.61-5.35z"/></g><path d="M432.63 359.3l3.68 5.35 6.07.86-3.47 4.17 2.15 5.89-5.83-2.78-4.74 2.78-.13-5.89-5.08-4.17 5.74-.86 1.61-5.35z" class="Am"/><image class="I" width="245" height="212" transform="translate(468 238.63)" opacity=".6"/><path d="M676.94 414.77H528.35a10.48 10.48 0 0 1-10.47-9.45l-14.21-141.6h170.07l14 139.09a10.93 10.93 0 0 1-10.8 11.96z" class="Ae"/><image class="AK" width="286" height="262" transform="translate(433 82.63)" opacity=".5"/><g clip-path="url(#U)"><path d="M851.82 400.99a17 17 0 0 1-15.52 19.49l-1.52.07-359 .2c-9.684-.065-17.83-7.276-19.07-16.88l-6.89-60.46-37.1-324.16a17 17 0 0 1 16-19.06L779.12 0c9.499.047 17.555 6.992 19 16.38l51.54 369z" class="Ae"/><path d="M652.31 213.18s-3.47 4-3.54 7.58-7.8 0-7.8 0l1.26-10 6.28-1.75z" class="Ad"/><path d="M599 234.63s42 31.71 49.81 18.18c0 0 5-9.13 1.07-28.23 0 0 5.77-.61 5.69-2.69s-.79-2.31-7.3-3-4.66-8.53-.25-7.52 8.53 7.68 11 6.39-.49-5-.49-5 3.07 4 4.7 1.7-.82-4.78-.82-4.78a4.11 4.11 0 0 0 4.53.76c2.37-1.3-4.26-9.91-7.61-9.91 0 0-3.33-.33-3.83 1.59 0 0-4.9-2-5.78 1 0 0-5.43-.79-7 3.36 0 0-5-.46-3.63 9.35s1.76 16.36-.28 16.36-29.52-37.1-43.51-41.32 3.7 43.76 3.7 43.76z" class="Ac"/><g clip-path="url(#V)"><path d="M603.55 199.8S622 217.63 628 231.46s16.38 21.52 23.74 15.64 8 13.05-5 13.05-27.24-10.19-27.24-10.19l-19.66-47.75z" class="Ad"/><path d="M606.69 191.86l-6 17.52-7.74-21.61z" class="Au"/></g><g class="AZ Aa Ab Ak"><path d="M659.14 213.63s-5.72-7-10.57-7.74m14.12 3.95a25.1 25.1 0 0 0-7.24-7.73m-8.71 9.08a4.15 4.15 0 0 0-2.22 5.36 4.25 4.25 0 0 0 .46.8s1.31 1.78 6.34 1.9 5.2 3.45 3.26 4a9.69 9.69 0 0 1-7.25.35"/></g><path d="M539 513h28.14l-.85 49H540.9s-14.68-2.34-14.74-3.94l18.21-6.62a4.61 4.61 0 0 0 2.92-5.43z" class="Ac"/><g clip-path="url(#W)" class="Ad"><path d="M539.36 523.77l29.08 13.74.3-17.13z"/></g><path d="M567.27 552.93a80.52 80.52 0 0 1-10.13 4.18c-8.12 2.12-13.77 1.83-16.9.95-6.58-1.85-4.39-4.72-9-3-14.17 5.24-19.66 6.53-18.49 12.77l52.28-.86a2.77 2.77 0 0 0 2.72-2.77v-.13z" class="Ah"/><path d="M636.41 517.77l12.27-12 12.47 32.77a22.25 22.25 0 0 0 6.17 8.86l12.65 11s-8.63 3.79-15.56 2-21-12.65-21-12.65z" class="Ac"/><g clip-path="url(#X)" class="Ad"><path d="M633.67 523.77l29.2 13.74.3-17.13z"/></g><path d="M640.29 537.51s11.71 12.39 17.16 15.12c.22.11 5.5 3.07 8.94 2.92 3.87-.16 6-3.42 6.16-3.31 7.58 4 14.44 3 16.25 15.54H671a22.28 22.28 0 0 1-16-6.76l-3.13-3.23s-8.92.22-8.86-3.25-2.72-17.03-2.72-17.03z" class="Ah"/><path d="M552.73 302.93s-16.5 12-19.92 17.8c-7.62 13-3.75 27.56-2 50.45 3.88 49.78 8.44 153.34 8.44 153.34h30l18-156.1s1.6 50.8 47.06 156.41l32.18.14L627 320.72l-61.74-34.93z" fill="#56d4b7"/><g clip-path="url(#Y)"><g fill="#4bc5a9"><path d="M573.71 305.48s-24.29 5.08-24.88 38.64 11.81 223.39 11.81 223.39l-28.48-5-22.22-253.1 41.93-18.15zm14 61.46a238.66 238.66 0 0 0 1.46 37.43c2.42 20.83 55.07 166.74 55.07 166.74l18.37-3.6z"/></g><path d="M590.27 331.43s4 23.09 2.9 29.3a7.06 7.06 0 0 1-6.76 6.21" stroke="#4bc5a9" class="AZ Aa"/></g><path d="M551.48 189.54a5.78 5.78 0 0 0-2.27 0q-30 12.42-25.55 36.72c4.58 25.13 17.86 46.19 17.39 73.11l-12.94 29.12s22.12-7.33 39.45 2c33 17.8 60.86-10 60.86-10s-10.06-51.66-11.23-67.76c-.68-9.3 3.12-9.46 4.47-16 2.51-12.12-8-20.7-14.72-29.18-4.28-5.41-7.37-10.39-8.85-12.63-6.12-9.25-10-3.75-13.25-5.41-10.06-5.18-33.36.03-33.36.03z" class="Au"/><g clip-path="url(#Z)"><path d="M567 239.19c4 6.51 9.56 29.33 32.85 10.76s16.71 4.5 16.71 4.5l.81 3.77s-15 28.63-33 40.2-23 3.76-23.68 10.32 10-1.47 19.37 6.7 9.85 17.28 26 12.72 20-13.89 25.07-10-25.3 23.19-25.3 23.19L535 337.46h-27.6l11.33-60.83 36-58.85L567 239.19z" fill="#df775d"/></g><path d="M526.59 212.37c3.72-8.17 18.83-13.38 29.23 6.79s20.12 45.05 20.12 45.05 37.18-27.3 45.44-29.6 25.07-3 36.84 3.91 14.29 10.92 13.16 11.44c-.61.28-4.48-2-11.22-4.88a30.88 30.88 0 0 0-5-1.25c0 0 3.14 5-.09 5 0 0-1.09 2.8-3.35 2.61 0 0 .71 2.28-3.48 2.07s-7.1-.07-7-3.38c0 0-8-2.43-9.51-5.06 0 0-1.85-1.69-5.67 1s-46.73 72.27-74.55 39.15-28.63-64.67-24.92-72.85z" class="Ac"/><g clip-path="url(#a)"><path d="M524.78 235.05l36.6-13.64s-4-20.94-16.81-20.94-19.4 12-19.4 12a49.66 49.66 0 0 0-1.91 10 95.89 95.89 0 0 0 1.52 12.58z" class="Au"/><g class="AZ Aa Ab Ak"><path d="M620 253.43l5.08-6.67c2.37-3.2 5.47-2.6 6.15-2a24.58 24.58 0 0 1 1.83 1.85s9.28 4.72 14.27 4.72m7.86-2.4a6.88 6.88 0 0 0-3.46-3.66m-.11 6.02a4.22 4.22 0 0 0-3.53-3.06m20.34.7s-8.84-5.61-13.15-5.12"/></g></g><g class="AZ Aa Ab Ak"><path d="M658.22 238.53c-14.53-9.71-36.52-3.48-36.52-3.48s-15.12 5.67-45.76 29.16c0 0-16.26-39.25-18-41.18M576 264.21a14.34 14.34 0 0 0-6.14 14"/></g><path d="M595.47 143.63s12.94 33-7.23 35.93c0 0-10.7 5.22-9.72 6a119.3 119.3 0 0 0 12.13 3.82c0 0 11.09 14.94-4.26 19.36s-38.27-18.7-38.27-18.7a33.07 33.07 0 0 1 5.22-1.68c4.53-.94 6.94-1.29 7-2.8a42.81 42.81 0 0 0-1.49-16.21 111.66 111.66 0 0 0-7.08-13.76c0 0 8.78-10.54 15.72-17.31s19.43-2.24 19.43-2.24a30.88 30.88 0 0 1 6.79 3.23 7.55 7.55 0 0 1 1.76 4.36z" class="Ac"/><g clip-path="url(#b)" class="Ad"><path d="M576.83 179.19a20.06 20.06 0 0 1-8.69-5.51c0 0 2.09 12.24 10.1 11.71s-1.41-6.2-1.41-6.2z"/></g><g class="AZ Aa Ab Af Ag"><path d="M576.21 153.3a6.79 6.79 0 0 1 6.57 0m6.62-.27a5.6 5.6 0 0 1 4.51.75"/></g><path d="M591.16 140.22s-9.55 16.34-28.9 14.82c0 0-4-2.26-4.94.72s.73 4.33 3.8 5.52l-.82 24.23s-2.85 0-7.54-.1a30.27 30.27 0 0 1-7.86-1.12l1.32-6-4.92 4.47s-14.3-6.84-16.3-8.67c0 0 12-9 16.79-20.29s11.61-31.43 28.78-33.07 27.62 7.47 29.63 21.58 3.8 41.52 10.86 42.72l-18.41.4c-1.43.09-2.48-5.26-2.48-5.26l-2.68 5.52-9.12-.18-1.55-6.32s18.42.39 18.31-30.45a14.49 14.49 0 0 1-3.34-4.2 10.24 10.24 0 0 1-.63-4.32z" class="Ah"/><path d="M587 155.8a4.46 4.46 0 0 0 .52 4.51c1.67 2.24 1.62 5-3 4" class="AZ Aa Ab Ag Al"/><ellipse cx="580.69" cy="74.23" rx=".92" ry=".9" transform="matrix(.710185 -.704015 .704015 .710185 116.04 512.97)" class="Ah"/><path d="M582 156.63a2.94 2.94 0 0 0-3.51.11" class="AZ Aa Ab Af"/><ellipse cx="591.59" cy="74.23" rx=".92" ry=".9" transform="matrix(.710185 -.704015 .704015 .710185 119.2 520.64)" class="Ah"/><g class="Aa Ab"><path d="M592.91 156.63a3 3 0 0 0-3.51.17" class="AZ Af"/><path d="M585 172.27c-2.43.2-4.94-3.17-4.94-3.17a23.53 23.53 0 0 0 5 1.12 10.61 10.61 0 0 0 3.81-1.12s-1.47 2.96-3.87 3.17z" class="Ae Al"/></g></g><g class="AZ"><g class="Ag An"><path d="M530.78 326.63h72.26" class="Ao Ap"/><path d="M530.78 342.25h137.67m-136.67 9.17H584" class="Aq Ar"/></g><path d="M527.77 386.49l1.37 13.63a3.7 3.7 0 0 0 3.68 3.34h138.81a3.71 3.71 0 0 0 3.69-4.08L674 385.75a3.72 3.72 0 0 0-3.69-3.33H531.46a3.7 3.7 0 0 0-3.69 4.07z" opacity=".5" class="Aa As"/></g><g class="At"><use xlink:href="#c" x="403.2"/><path d="M568.05 359.3l3.68 5.35 6.07.86-3.47 4.17 2.14 5.89-5.82-2.78-4.75 2.78-.13-5.89-5.07-4.17 5.74-.86 1.61-5.35z"/><use xlink:href="#d" x="403.2"/><path d="M625.82 359.3l3.67 5.35 6.08.86-3.48 4.17 2.15 5.89-5.82-2.78-4.75 2.78-.13-5.89-5.08-4.17 5.75-.86 1.61-5.35z"/><use xlink:href="#c" x="518.73"/></g></g></svg>