<svg xmlns="http://www.w3.org/2000/svg" xmlns:xlink="http://www.w3.org/1999/xlink" viewBox="0 0 913.84 431.98" xmlns:v="https://vecta.io/nano"><style><![CDATA[.Aa{fill:none}.Ab{fill:#ffd3c8}.Ac{stroke-miterlimit:10}.Ad{stroke-width:.5}.Ae{fill:#f1b2a2}.Af{stroke:#061537}.Ag{fill:#061537}.Ah{fill:#101928}.Ai{fill:#01121c}.Aj{stroke-linecap:round}.Ak{fill:#efcbab}.Al{fill:#fff}.Am{stroke:#301913}.An{fill:#2a3756}.Ao{stroke:#9d3f28}.Ap{fill:#d8a987}.Aq{fill:#955454}.Ar{fill:#fff9f9}.As{fill:#ffb27d}.At{fill:#ff9378}.Au{fill:#4c2603}.Av{fill:#d2e3fc}.Aw{fill:#233862}.Ax{fill:#ddb08e}.Ay{fill:#c94c43}]]></style><defs><clipPath id="A"><path d="M64.06 403.27s1.93 2.64 1.32 11.56H24.22s.56-4.64 5-5.78 17.89-8.94 19.59-7.77 15.25 1.99 15.25 1.99z" class="Aa"/></clipPath><clipPath id="B"><path d="M64.59 390.81s-1.06 7.89-.53 12.45-10.7 5.1-10.7 5.1-2.61-4.59-6-6.31a10.15 10.15 0 0 0 2-2.37 61.77 61.77 0 0 0 2.38-12.79c.65-3.89 12.85 3.92 12.85 3.92z" class="Aa"/></clipPath><clipPath id="C"><path d="M116.86,387.56s-.77,14.49-.25,18.31-.93,5.31-.93,5.31l-15.18-2.44,1.85-4.33a24.32,24.32,0,0,0,1.55-7.05c0-3-.92-14.2-.92-14.2Z" class="Aa"/></clipPath><clipPath id="D"><path d="M116.59,407.89a15.92,15.92,0,0,0-13.67-1.81l-.3-2.1s-4.55,5-4.55,7.89,1.56,8.3,10.71,8.3a10.11,10.11,0,0,0,10.41-8.3l-2.6-6.45Z" class="Aa"/></clipPath><clipPath id="E"><path d="M20,248.69c-.58,2.64-1.55,5.26-3.15,6.47a58.45,58.45,0,0,0-4.39,7.69c-1,2.56-2.79.37-2.34-1s2.39-6.16,2.25-6.43-3.16,1.4-4,3.84-.54,3.41-1.73,3.2a3.45,3.45,0,0,0-.34,3.41c.79,2.07-.79,3.22-.91,3s-1.17-4.33-1.17-4.33-.43,2.89-1.07,3.23a1.07,1.07,0,0,1-1.41-.54,1.12,1.12,0,0,1-.08-.26c-.07-.61-1.19,1.67-1.68-.49s4.74-14.2,9.4-16.67,4.36-10,4.36-10l3-33.21,18.59,6.8a183.67,183.67,0,0,1-9.5,20.39A53.74,53.74,0,0,0,20,248.69Z" class="Ab"/></clipPath><clipPath id="F"><path d="M62.06,65.61a1.46,1.46,0,0,0-.22.76V81.12c1.47,10.49,6,15.42,11.83,14.89l-.2,4.26s-.2,1.87-.42,3.11c-.29,1.64-1.62,2.89-1.43,4.71.31,2.94,5.87,5.84,7.5,6.33a6.52,6.52,0,0,0,3-.14c8-2.23,8.71-13.41,8.71-13.41s-1.31-.75-1.53-5.41S89.23,80,89.23,80s1.76-.63,2.14-4.23-1-4.18-2.37-4.12-2.87,3.2-3.12,5.68c-2.23,1.24-1.47-1.54-1.61-4.76s-3.76-3.12-4.45-5.12a15.93,15.93,0,0,1-.57-5.23,21.36,21.36,0,0,1-14.72-.41Z" class="Aa"/></clipPath><clipPath id="G"><path d="M96.68 164.45s-3.84 5.56-5.57 5.12c0 0-2.89.4-3.46-.87a1.84 1.84 0 0 1-1.24-1.76c.11-1.27 3-3.57 3.63-3.57a3.75 3.75 0 0 1 1.74.36c.35.23 2.31-.5 2.87 0 .2.18.52-.25 1.28-.13a.88.88 0 0 1 .75.85z" class="Aa"/></clipPath><clipPath id="H"><path d="M302.15 253.83c.36 2.68 1.11 5.37 2.61 6.71a57.31 57.31 0 0 1 3.74 8c.75 2.63 2.75.6 2.42-.8l-1.71-6.59c.17-.27 3 1.66 3.63 4.16s.27 3.44 1.47 3.33a3.47 3.47 0 0 1 .06 3.43c-1 2 .52 3.27.66 3s1.52-4.22 1.52-4.22.19 2.92.8 3.31a1.07 1.07 0 0 0 1.45-.43 1.86 1.86 0 0 0 .1-.25c.12-.6 1.05 1.76 1.71-.35s-3.55-14.54-8-17.39-3.52-10.27-3.52-10.27l-.27-33.35-19.08 5.26a184 184 0 0 0 7.8 21.1 54 54 0 0 1 4.61 15.35z" class="Ab"/></clipPath><clipPath id="I"><path d="M253.06 403.27s-1.93 2.64-1.33 11.56h41.16s-.56-4.64-5-5.78-17.88-8.94-19.58-7.77-15.25 1.99-15.25 1.99z" class="Aa"/></clipPath><clipPath id="J"><path d="M252.53 390.81s1.06 7.89.53 12.45 10.7 5.1 10.7 5.1 2.6-4.59 6-6.31a10 10 0 0 1-2-2.37 62.42 62.42 0 0 1-2.37-12.79c-.66-3.89-12.86 3.92-12.86 3.92z" class="Aa"/></clipPath><clipPath id="K"><path d="M200.25,387.56s.78,14.49.26,18.31.93,5.31.93,5.31l15.17-2.44-1.84-4.33a24,24,0,0,1-1.55-7.05c0-3,.91-14.2.91-14.2Z" class="Aa"/></clipPath><clipPath id="L"><path d="M200.52,407.89a15.93,15.93,0,0,1,13.67-1.81l.31-2.1s4.55,5,4.55,7.89-1.57,8.3-10.71,8.3a10.11,10.11,0,0,1-10.41-8.3l2.59-6.45Z" class="Aa"/></clipPath><clipPath id="M"><path d="M271.65,80.18a1.4,1.4,0,0,1,.22.75V95.68c-1.47,10.49-6,15.42-11.83,14.89l.2,4.26s.2,1.88.42,3.12c.29,1.64,1.62,2.88,1.43,4.7-.31,2.95-5.87,5.85-7.5,6.34a6.66,6.66,0,0,1-3-.15c-8-2.22-8.71-13.41-8.71-13.41s1.31-.75,1.53-5.41.08-15.48.08-15.48-1.76-.62-2.14-4.23,1-4.17,2.37-4.11,2.87,3.2,3.12,5.68c2.23,1.23,1.47-1.54,1.61-4.77S253.2,84,253.89,82a15.9,15.9,0,0,0,.57-5.23,21.3,21.3,0,0,0,14.72-.41Z" class="Aa"/></clipPath><clipPath id="N"><path d="M178.81 13.8s9.19 4.11 11.06 2.2c0 0 4-1.73 3.73-3.8a2.71 2.71 0 0 0 .22-3.2c-1.13-1.54-6.61-2.22-7.39-1.75a5.64 5.64 0 0 0-1.93 1.8c-.27.57-3.33 1.16-3.66 2.23-.11.39-.85.09-1.72.83a1.32 1.32 0 0 0-.31 1.69z" class="Aa"/></clipPath><clipPath id="O"><path d="M890.05 106.81s-7.58.5-8.39-1.32c0 0-2.37-2.26-1.65-3.66a2.07 2.07 0 0 1 .68-2.31c1.2-.79 5.25.16 5.67.7a4.12 4.12 0 0 1 .9 1.78c0 .47 2 1.68 2 2.52 0 .31.58.29 1 1a1 1 0 0 1-.21 1.29z" class="Aa"/></clipPath><clipPath id="P"><path d="M712.53,362.14l-12.77-12.77-22.27,22.27L689,383.18s7.74,5.62,8.51,4.93l-5.23-11.27a2.86,2.86,0,0,1,1.16-3.67Z" class="Aa"/></clipPath><clipPath id="Q"><path d="M799.15,388.14h-18v31.38H797.4s9.43-1.49,9.48-2.52l-11.63-4.25a2.85,2.85,0,0,1-1.77-3.41Z" class="Aa"/></clipPath><clipPath id="R"><path d="M780.7,86a18.48,18.48,0,0,1-.93-8.28c6-2,4.18-7.89,1.88-8s-3.11,3.32-3.11,3.32c-1-6-5.38.33-11-8.16s-12.46-2.05-13,.75-2.8,31.28,14.12,29.22a32.41,32.41,0,0,1,1.17,8.59,42.69,42.69,0,0,1-.14,4.8c-1.26,5.25-6.34,18.43,3.17,21.44s20.62-13.37,16.7-22.11S782.27,90.49,780.7,86Z" class="Aa"/></clipPath><clipPath id="S"><path d="M418.64 108.67a18.43 18.43 0 0 0-.39-8.32c-6.27-1-5.39-7.12-3.14-7.59s3.6 2.79 3.6 2.79c0-6 5.37-.54 9.53-9.81s12-4 12.92-1.33 7.75 30.43-9.28 31.1a32.28 32.28 0 0 0 .21 8.67 42.7 42.7 0 0 0 .91 4.72c2.08 5 9.19 17.17.29 21.66s-22.49-9.91-20-19.16 4.52-18.06 5.35-22.73z" class="Aa"/></clipPath><clipPath id="T"><path d="M416.72,382.42h18v31.39H418.46s-9.42-1.49-9.48-2.52L420.61,407a2.85,2.85,0,0,0,1.77-3.42Z" class="Aa"/></clipPath><clipPath id="U"><path d="M486.52 353s4.79 6.32 4.79 8.35-1.16 3.17 6.65 8.89 19 15.71 21.41 9.83-13.28-13.07-19.78-23.92-9.92-13.89-9.92-13.89z" class="Aa"/></clipPath><clipPath id="V"><path d="M405.73 315.1s-5.07 20.48 14.91 21.52 35-24.55 41.13-14.4 12.08 26.62 22.72 32.44l11.23-7.07s-18.47-48.94-28.61-50.17c-4.67-.56-23.34-.33-41.1 5.52-7.94 2.61-20.28 12.16-20.28 12.16z" class="Aa"/></clipPath><clipPath id="W"><path d="M335.27 144.84s8.37-1.72 8.71-4c0 0 1.89-3.16.69-4.46a2.32 2.32 0 0 0-1.43-2.3c-1.54-.5-5.65 1.75-5.95 2.46a4.77 4.77 0 0 0-.44 2.2c.1.52-1.72 2.44-1.42 3.34.12.33-.54.48-.77 1.42a1.1 1.1 0 0 0 .61 1.34z" class="Aa"/></clipPath><clipPath id="X"><path d="M632.5 237.11c.26 2.68.9 5.4 2.34 6.8a57.68 57.68 0 0 1 3.42 8.16c.64 2.66 2.73.71 2.44-.7l-1.44-6.65c.18-.25 3 1.77 3.47 4.29s.12 3.46 1.33 3.39a3.47 3.47 0 0 1-.08 3.43c-1 2 .39 3.29.54 3.06s1.69-4.15 1.69-4.15.07 2.92.67 3.34a1.06 1.06 0 0 0 1.46-.37 1.12 1.12 0 0 0 .11-.25c.15-.59 1 1.8 1.73-.27s-3-14.68-7.31-17.7-3.11-10.4-3.11-10.4l1.07-33.34-19.28 4.49a182 182 0 0 0 7 21.4 53.55 53.55 0 0 1 3.95 15.47z" class="Ab"/></clipPath><clipPath id="Y"><path d="M573.09,386.92h18.5v32.21H574.88s-9.66-1.53-9.72-2.59L577,412.19a3,3,0,0,0,1.86-3.57Z" class="Aa"/></clipPath><clipPath id="Z"><path d="M637.12,390.05l7.93-7.88,8.56,21.53a15,15,0,0,0,4.16,5.82l8.44,7.21s-5.64,2.49-10.2,1.31-14-8.31-14-8.31Z" class="Aa"/></clipPath><clipPath id="a"><path d="M579.7 248.92s-10.71 7.86-12.89 11.69c-4.85 8.51-2.14 18.11-.71 33.15 3.11 32.7 7.29 100.73 7.29 100.73h19.69l10-102.55s1.62 33.37 32.7 102.75l21.14.1-28.25-134.18-41-23z" class="Aa"/></clipPath><clipPath id="b"><path d="M608 79.81s11.63 28.68-5.82 31.17c0 0-9.21 4.5-8.34 5.18a105.2 105.2 0 0 0 10.56 3.34s-5.41 12.8-19.83 12S567 118.8 567 118.8l4.57-.59c3.86-.44 6.41-.79 6.42-2.1a37.64 37.64 0 0 0-1.45-14.11 99.69 99.69 0 0 0-6.31-12s7.48-9.13 13.41-15 16.81-1.89 16.81-1.89a27.79 27.79 0 0 1 5.93 2.89 6.71 6.71 0 0 1 1.62 3.81z" class="Aa"/></clipPath><clipPath id="c"><path d="M575.79 187.71c3.51 7 21.7 3.61 29.31.27 0 0 8.69-.57 9.51-2.17s0-2.05 0-2.05 1.12-1.16.85-2.08c0 0 1-1.72.57-2.29 0 0 1.13-2.17-2.24-3.39 0 0 0 1.55-.89 1.83s-4.52-.08-4.29-.9 3-2.24 2.42-3.88-2.06 1.4-4.15 2.11-4.06 2-5.07 5.57c0 0-1 3.7-9.7 1.73-4.63-1-8.76-2.63-12-2.51-7.38-.17-5.97 4.46-4.32 7.76z" class="Aa"/></clipPath><path id="d" d="M93.69 185.83H70.63a.39.39 0 0 1-.39-.39h0a.39.39 0 0 1 .39-.39h23.06a.39.39 0 0 1 .39.39h0a.39.39 0 0 1-.39.39z"/></defs><path d="M35.96 48.08L79.22 31.4l38.64 20.13-40 18.56-41.9-22.01z" class="Ai"/><path d="M64.06 403.27s1.93 2.64 1.32 11.56H24.22s.56-4.64 5-5.78 17.89-8.94 19.59-7.77 15.25 1.99 15.25 1.99z" class="An"/><g clip-path="url(#A)" class="Ar"><path d="M67,413.58H20.33L21.92,417H68.6Z"/></g><path d="M64.59 390.81s-1.06 7.89-.53 12.45-10.7 5.1-10.7 5.1-2.61-4.59-6-6.31a10.15 10.15 0 0 0 2-2.37 61.77 61.77 0 0 0 2.38-12.79c.65-3.89 12.85 3.92 12.85 3.92z" class="Ab"/><g clip-path="url(#B)" class="Ae"><path d="M50.62,392.12l14.46,6.48,1-8.43Z"/></g><path d="M116.86,387.56s-.77,14.49-.25,18.31-.93,5.31-.93,5.31l-15.18-2.44,1.85-4.33a24.32,24.32,0,0,0,1.55-7.05c0-3-.92-14.2-.92-14.2Z" class="Ab"/><g clip-path="url(#C)" class="Ae"><path d="M102.17,394.21,124,405l-5.58-14.85Z"/></g><path d="M116.59,407.89a15.92,15.92,0,0,0-13.67-1.81l-.3-2.1s-4.55,5-4.55,7.89,1.56,8.3,10.71,8.3a10.11,10.11,0,0,0,10.41-8.3l-2.6-6.45Z" class="An"/><g clip-path="url(#D)" class="Ar"><path d="M119.19,409.4s-2,8.43-8.91,9-11.64-2-12.66-9.87-3.3,7.12-3.3,7.12L106.75,432l16.83-11.81Z"/></g><path d="M20,248.69c-.58,2.64-1.55,5.26-3.15,6.47a58.45,58.45,0,0,0-4.39,7.69c-1,2.56-2.79.37-2.34-1s2.39-6.16,2.25-6.43-3.16,1.4-4,3.84-.54,3.41-1.73,3.2a3.45,3.45,0,0,0-.34,3.41c.79,2.07-.79,3.22-.91,3s-1.17-4.33-1.17-4.33-.43,2.89-1.07,3.23a1.07,1.07,0,0,1-1.41-.54,1.12,1.12,0,0,1-.08-.26c-.07-.61-1.19,1.67-1.68-.49s4.74-14.2,9.4-16.67,4.36-10,4.36-10l3-33.21,18.59,6.8a183.67,183.67,0,0,1-9.5,20.39A53.74,53.74,0,0,0,20,248.69Z" class="Ab"/><g clip-path="url(#E)" class="Ae"><path d="M30.7 216.61l13.87 19.94-3.72 6-11.63-20.03zm-19.37 31.63s3.36-1.62 4.92-9.8 2.6-32.47 17.19-33.36-8.18-4.93-8.18-4.93L6.13 222.82z"/></g><g class="Aa Ac Ad Am"><path d="M16.53,250c-1.92,3.73-3.43,2.88-6.59,5.1s-1.89,5.34-2.25,6.54-.8.88-.8.88-2.23-2,.17-8.65"/><path d="M1.6 266.87l4.34-9.14m-1.71 7.43l.71-2.3a19.38 19.38 0 0 1 .94-1.86"/></g><path d="M62.46 79.38l-2.15-7.86A24.81 24.81 0 0 1 60.4 64c-3.47-1.64-2.07-5.06-1-8.79 3-9.48 9.92-9.43 26.55-2.64a5.26 5.26 0 0 1 3.51 5.92c3 .5 6 .78 6.9 3.68 1.77 5.06-2.07 17.57-4 21.25a43.52 43.52 0 0 1-4.9 7.15z" class="Au"/><path d="M62.06,65.61a1.46,1.46,0,0,0-.22.76V81.12c1.47,10.49,6,15.42,11.83,14.89l-.2,4.26s-.2,1.87-.42,3.11c-.29,1.64-1.62,2.89-1.43,4.71.31,2.94,5.87,5.84,7.5,6.33a6.52,6.52,0,0,0,3-.14c8-2.23,8.71-13.41,8.71-13.41s-1.31-.75-1.53-5.41S89.23,80,89.23,80s1.76-.63,2.14-4.23-1-4.18-2.37-4.12-2.87,3.2-3.12,5.68c-2.23,1.24-1.47-1.54-1.61-4.76s-3.76-3.12-4.45-5.12a15.93,15.93,0,0,1-.57-5.23,21.36,21.36,0,0,1-14.72-.41Z" class="Ab"/><g clip-path="url(#F)" class="Ae"><path d="M72.79 96.12s8.65-1.12 10.82-7.49c0 0-2.42 11.53-9.58 13.88s-1.24-6.39-1.24-6.39z"/></g><path d="M74.82 71A5.14 5.14 0 0 0 70 71m-5.12.73a4.4 4.4 0 0 0-3.49-.79" class="Aa Ac Af Aj"/><circle cx="71.36" cy="75.13" r=".69" class="Ag"/><path d="M70.63,75.27a2.28,2.28,0,0,1,2.73.09" class="Aa Ac Ad Af"/><circle cx="63.05" cy="75.13" r=".69" class="Ag"/><g class="Aa Ac Ad Af"><path d="M62.15,75.25a2.3,2.3,0,0,1,2.73.13"/><path d="M67.5,73.74a12.91,12.91,0,0,1-.83,4.56c-1.93,3.77-3.33,8.56,4,5.65" class="Aj"/></g><path d="M68.11 89.69c1.91.18 3.94-2.76 3.94-2.76a17.2 17.2 0 0 1-3.94 1 7.91 7.91 0 0 1-3-1s1.09 2.58 3 2.76z" class="Ac Ad Af Al"/><g class="Aa Ad Af"><circle cx="61.66" cy="75.82" r="4.16"/><circle cx="72.05" cy="75.82" r="4.16"/><path d="M76.21 74.44l10.39-1.39m-20.78 1.63l2.77.2" class="Ac Aj"/></g><path d="M42.09 69.43l.64-.78c-8.36-6.76-6.31-17.5-5.71-20a.81.81 0 0 0-.3-.84h0a.44.44 0 0 0-.7.26c-.67 2.93-2.64 14.31 6.07 21.36z" class="Ak"/><path d="M42.73 68.65l1.26.52-1.12 1.34-.78-1.08.64-.78z" class="Ap"/><path d="M44,69.17s1.55,1.21,2.12.88c0,0-.57,1.49-1.35,1.62a5.27,5.27,0,0,1-1.89-1.16Z" class="Ak"/><path d="M66.3 371.67l-2.89 12.17-3.84 8.88h-12l-.71-8.2-.56-11.93 20-.92z" class="As"/><path d="M68.84 106.97l12.27 2.75 12.41-2.99 3.16 19.04-13.92 47.38-15.22-56.78 1.3-9.4z" class="Al"/><path d="M68.24 110.86l9.75 7.28 3.19-5.23 2.96 5.23 10.38-9.04-2.05-2.37-11.36 2.99-12.27-.55-.6 1.69z" class="Av"/><path d="M119.29 214.19L90.1 216c-.17-.27-.36-.27-.57 0l-8.59.53-36.61-2.23s-3.08 42.41.53 98.42c1.16 17.86 3.17 61.94.07 81.84l25.1.27c3.25-21.17 7-66.71 9-75.78q1.38-6.18 2.57-12.24a76.92 76.92 0 0 1 1.18 10.66c0 3.72 5.11 8.75 6.61 15.89 2.11 10.06 6.9 47.53 6.14 62.14h26.33c-1.9-17-3-65.66-2.7-82.78.84-45.72.13-98.53.13-98.53z" class="Aq"/><g class="Ah"><path d="M139.45 361.85c-13.42 7-104.84 15.37-121.22-4-.76-.89 1.53-19.34 5.26-45.82l30.9-202.35s2.51-.72 6.75-1.52a126.09 126.09 0 0 1 7.71-1.19c0 .92 6.35 40.69 14.93 56.19 0 0 9.74-21.4 9.8-56a3.8 3.8 0 0 0-.06-.5q2.76.29 5.58.77c.79.13 1.58.29 2.37.45a75.18 75.18 0 0 1 9.06 2.38l6.87 54.84 22.05 196.75z"/><path d="M65 107.47S51 214.91 45.64 223c-2.25 3.37-5.53 3.92-9.4 3.16-.74-.14-1.5-.33-2.28-.56l-10.72-4.11h0l-5.24-1.9c-11-3.41-10.17-12.69-7.2-25.34s22.4-73.54 29-77.84c11.49-7.62 25.2-8.94 25.2-8.94z"/></g><path d="M85.48 173.15c-14.13-10.41-24.34-64.95-24.34-64.95 2.16-.41 4.76-.83 7.71-1.19 0 .92 6 38.5 14.58 54 0 0 10.09-19.22 10.15-53.78a4.18 4.18 0 0 0-.06-.51 92.28 92.28 0 0 1 5.58.78l2.38.45c.02 29.12-16 65.2-16 65.2z" class="At"/><path d="M58.05 55.2l.16 6.28S73 52.34 96.37 62v-9a6.28 6.28 0 0 0-2.86-4.31c-4.35-2.71-14.59-7.82-31.3-.46-2.36 1-3.92 4.42-4.16 6.97z" class="Ah"/><g class="Al"><path d="M69.92 101.2l-4.93 6.27 13.04 8.9 3.08-6.65-11.19-8.52z"/><path d="M92.51 101.2l-11.4 8.52 3.27 6.65 11.22-9.39-3.09-5.78z"/></g><g class="Av"><path d="M80.75,124.42a.9.9,0,0,1,1.27,0,.91.91,0,0,1,0,1.28.9.9,0,1,1-1.27-1.28Z"/><circle cx="81.38" cy="134.74" r=".9"/><path d="M80.75,144.06a.9.9,0,0,1,1.27,0,.91.91,0,0,1,0,1.28.9.9,0,0,1-1.27-1.28Z"/></g><path d="M110.53 110.34A28.3 28.3 0 0 1 124 124.75c4.7 10.77 24.2 40.16 23.63 53.93s-3.21 26.29-16.32 26.71c-9 .3-18.15-8.51-18.15-21.67s-2.63-73.38-2.63-73.38z" class="Ah"/><g class="Ai"><path d="M139.45 361.85c-13.42 7-104.84 15.37-121.22-4-.76-.89 1.53-19.34 5.26-45.82l.73-.33s23-38.9 54.63-54 38.15-43.25 38.55-47.85-3.06-42.95 0-44.67l22.05 196.67z"/><path d="M138.44 197.68c-.36 3.71-1.75 6.71-5.07 7.54-10.51 2.62-15.16-7.52-12.94-17.45a9.63 9.63 0 0 1 .25-1c2.24-7.26 10.31-8.37 13.29-8.53h1.12l.17.47c.74 2.29 3.85 11.9 3.18 18.97z"/></g><path d="M138.44 197.68s-32.66-14.62-44.79-30.45c-.89-1.17 3-2.78 3-2.78l2.76 2.21L134 178.28l1.29.44c.71 2.28 3.82 11.89 3.15 18.96z" class="Ab"/><path d="M61.92 166.21h40.48v53.34H61.92z" fill="#e6e6e6"/><g fill="#932424"><path d="M78.55 203.81l-4.55 7.6 2.88-.41 1.23 2.29 3.87-6.99-3.43-2.49z"/><path d="M84.58 203.34l4.56 7.6-2.88-.41-1.24 2.29-3.86-6.99 3.42-2.49z"/></g><path d="M77 202.13c.51-3.33 2.29-4.63 5-5 3.61-.55 5 2.26 5 5a5 5 0 0 1-5 5.05c-2.79 0-5.47-2.29-5-5.05z" fill="#bc3f3f"/><path d="M82 206.16a4.41 4.41 0 0 1-3.25-1.48 3.21 3.21 0 0 1-.78-2.59h0a4.24 4.24 0 0 1 4-4 3.29 3.29 0 0 1 2.77.66 4.41 4.41 0 0 1 1.3 3.36 4 4 0 0 1-4.04 4.05zm.66-7.65a4.7 4.7 0 0 0-.63.05 3.79 3.79 0 0 0-3.6 3.6h0a2.72 2.72 0 0 0 .68 2.21 3.91 3.91 0 0 0 2.89 1.32 3.57 3.57 0 0 0 3.56-3.57 3.93 3.93 0 0 0-1.14-3 2.58 2.58 0 0 0-1.76-.61z" fill="#932424"/><g fill="#1c468a"><path d="M87.79 172.63H76.53a.34.34 0 0 1-.34-.34h0a.34.34 0 0 1 .34-.34h11.26a.34.34 0 0 1 .34.34h0a.34.34 0 0 1-.34.34zm2.21 1.42H74.34a.34.34 0 0 1-.34-.34h0a.34.34 0 0 1 .34-.34H90a.35.35 0 0 1 .34.34h0a.34.34 0 0 1-.34.34z"/><use xlink:href="#d"/><use xlink:href="#d" y="1.94"/><path d="M93.69 189.46H70.63a.38.38 0 0 1-.39-.39h0a.38.38 0 0 1 .39-.38h23.06a.38.38 0 0 1 .39.38h0a.38.38 0 0 1-.39.39z"/><use xlink:href="#d" y="5.49"/><path d="M95.63 202.32a14.54 14.54 0 0 1-2.32 1.57 1.9 1.9 0 0 0 .12-.64c0-.28-.24-.4-.46-.52l-.16-.09a.28.28 0 0 0 .08-.32.24.24 0 0 0-.45 0v.11a.27.27 0 0 1-.08-.07l.37-.77a.13.13 0 0 0 0-.16.46.46 0 0 0-.62.08.87.87 0 0 0 0 .8v.05l-.56.91-.06-.06a1.6 1.6 0 0 1-.16-.19 2.74 2.74 0 0 0 .18-.75.15.15 0 0 0-.21-.14.62.62 0 0 0-.38.66.78.78 0 0 0 .09.27 2.08 2.08 0 0 1-.22.38.14.14 0 0 0 0 .2 1.8 1.8 0 0 1-.41.8c-.16.18-.47.31-.67.1a.79.79 0 0 1-.16-.52 7.84 7.84 0 0 1-.06-1.28 1.71 1.71 0 0 1 .09-.6c0-.12.11-.3.16-.1a1.08 1.08 0 0 1 0 .36.15.15 0 0 0 .29 0c0-.21.11-.66-.13-.79s-.38.05-.48.21a3.82 3.82 0 0 0-.15 2.07c0 .52.24 1.16.9 1s.85-.95 1-1.49a.14.14 0 0 0 0-.09h0l.08.08.1.1-.2.27a.15.15 0 0 0 0 .17.33.33 0 0 0 .58-.24.59.59 0 0 0 0-.2l.55-.87a.42.42 0 0 0 .34.13h0a1.06 1.06 0 0 0 .24.19 1.19 1.19 0 0 1 .25.13c.13.11.09.24.06.39a6.06 6.06 0 0 1-.16.61 1.29 1.29 0 0 0-.66.7.71.71 0 0 0 .24.8.14.14 0 0 0 .22-.07l.43-1.2h0l.76-.42a14.43 14.43 0 0 0 1.88-1.32c.12-.14-.1-.35-.25-.24zm-3.44-.32c0-.12.06-.33.19-.32l-.18.38-.01-.06zm.36 3.27c-.12-.23.06-.5.25-.68l-.25.63zm8.26 12.73h-37v-50h37zm-36.59-.43h36.16v-49.09H64.22z"/></g><path d="M45.64 150.77l-9.4 75.36c-.74-.14-1.5-.33-2.28-.56l-10.72-4.11h0S26.5 218 31 206.16s14.64-55.39 14.64-55.39z" class="Ai"/><path d="M96.68 164.45s-3.84 5.56-5.57 5.12c0 0-2.89.4-3.46-.87a1.84 1.84 0 0 1-1.24-1.76c.11-1.27 3-3.57 3.63-3.57a3.75 3.75 0 0 1 1.74.36c.35.23 2.31-.5 2.87 0 .2.18.52-.25 1.28-.13a.88.88 0 0 1 .75.85z" class="Ab"/><g clip-path="url(#G)" class="Aa Ac Ad Am"><path d="M90.63 169.67l4-5.94m-6.15 5.94l4.17-6.28m-5.65 4.9l3.61-5.45"/></g><path d="M48.89 388.14h21.87l6.69-51.95m20.41 51.95h23.38" stroke="#1a1a1a" class="Aa Ac"/><path d="M302.15 253.83c.36 2.68 1.11 5.37 2.61 6.71a57.31 57.31 0 0 1 3.74 8c.75 2.63 2.75.6 2.42-.8l-1.71-6.59c.17-.27 3 1.66 3.63 4.16s.27 3.44 1.47 3.33a3.47 3.47 0 0 1 .06 3.43c-1 2 .52 3.27.66 3s1.52-4.22 1.52-4.22.19 2.92.8 3.31a1.07 1.07 0 0 0 1.45-.43 1.86 1.86 0 0 0 .1-.25c.12-.6 1.05 1.76 1.71-.35s-3.55-14.54-8-17.39-3.52-10.27-3.52-10.27l-.27-33.35-19.08 5.26a184 184 0 0 0 7.8 21.1 54 54 0 0 1 4.61 15.35z" class="Ab"/><g clip-path="url(#H)" class="Ae"><path d="M294.14 221l-15.46 18.73 3.21 6.31 13.25-19zm16.71 33.1s-3.22-1.89-4.1-10.17.08-32.58-14.39-34.67 8.55-4.24 8.55-4.24l17.21 24.17z"/></g><g class="Aa Ac Ad Am"><path d="M305.53,255.43c1.59,3.88,3.18,3.15,6.14,5.63s1.45,5.47,1.7,6.7.73.94.73.94,2.39-1.8.54-8.63"/><path d="M319 273.46l-3.56-9.46m1.1 7.54l-.53-2.35a18 18 0 0 0-.78-1.95"/></g><path d="M253.06 403.27s-1.93 2.64-1.33 11.56h41.16s-.56-4.64-5-5.78-17.88-8.94-19.58-7.77-15.25 1.99-15.25 1.99z" class="An"/><g clip-path="url(#I)" class="Ar"><path d="M250.13,413.58h46.66L295.2,417H248.52Z"/></g><path d="M252.53 390.81s1.06 7.89.53 12.45 10.7 5.1 10.7 5.1 2.6-4.59 6-6.31a10 10 0 0 1-2-2.37 62.42 62.42 0 0 1-2.37-12.79c-.66-3.89-12.86 3.92-12.86 3.92z" class="Ab"/><g clip-path="url(#J)" class="Ae"><path d="M266.5,392.12,252,398.6l-1-8.43Z"/></g><path d="M200.25,387.56s.78,14.49.26,18.31.93,5.31.93,5.31l15.17-2.44-1.84-4.33a24,24,0,0,1-1.55-7.05c0-3,.91-14.2.91-14.2Z" class="Ab"/><g clip-path="url(#K)" class="Ae"><path d="M214.94,394.21,193.09,405l5.57-14.85Z"/></g><path d="M200.52,407.89a15.93,15.93,0,0,1,13.67-1.81l.31-2.1s4.55,5,4.55,7.89-1.57,8.3-10.71,8.3a10.11,10.11,0,0,1-10.41-8.3l2.59-6.45Z" class="An"/><g clip-path="url(#L)" class="Ar"><path d="M197.93,409.4s2,8.43,8.9,9,11.65-2,12.66-9.87,3.31,7.12,3.31,7.12L210.36,432l-16.82-11.81Z"/></g><path d="M250.81 371.67l2.9 12.17 3.84 8.88h12l.71-8.2.55-11.93-20-.92z" class="As"/><path d="M197.82 214.19L227 216c.17-.27.36-.27.56 0l8.59.53 36.61-2.28s3.09 42.41-.53 98.42c-1.15 17.86-3.16 61.94-.06 81.84l-25.1.27c-3.25-21.17-7-66.71-9-75.78q-1.38-6.18-2.56-12.24a77.28 77.28 0 0 0-1.19 10.66c0 3.72-5.1 8.75-6.61 15.89-2.11 10.06-6.9 47.53-6.13 62.14h-26.35c1.9-17 3-65.66 2.7-82.78-.8-45.67-.11-98.48-.11-98.48z" class="Aq"/><path d="M268.23 388.14h-21.87l-5.79-51.7m-21.31 51.7h-23.38" stroke="#1a1a1a" class="Aa Ac"/><path d="M297.57 62.33l-43.26-16.68-38.63 20.13 39.99 18.56 41.9-22.01z" class="Ai"/><path d="M271.25 94l2.15-7.87a24.75 24.75 0 0 0-.09-7.49c3.47-1.65 2.07-5.06 1-8.8-3-9.47-9.92-9.43-26.55-2.63a5.23 5.23 0 0 0-3.5 5.91c-3 .5-6 .79-6.91 3.68-1.77 5.07 2.07 17.58 4 21.25a43.1 43.1 0 0 0 4.9 7.15z" class="Ag"/><path d="M271.65,80.18a1.4,1.4,0,0,1,.22.75V95.68c-1.47,10.49-6,15.42-11.83,14.89l.2,4.26s.2,1.88.42,3.12c.29,1.64,1.62,2.88,1.43,4.7-.31,2.95-5.87,5.85-7.5,6.34a6.66,6.66,0,0,1-3-.15c-8-2.22-8.71-13.41-8.71-13.41s1.31-.75,1.53-5.41.08-15.48.08-15.48-1.76-.62-2.14-4.23,1-4.17,2.37-4.11,2.87,3.2,3.12,5.68c2.23,1.23,1.47-1.54,1.61-4.77S253.2,84,253.89,82a15.9,15.9,0,0,0,.57-5.23,21.3,21.3,0,0,0,14.72-.41Z" class="Ab"/><g clip-path="url(#M)" class="Ae"><path d="M260.92 110.69s-8.65-1.14-10.82-7.5c0 0 2.42 11.54 9.59 13.89s1.23-6.39 1.23-6.39z"/></g><path d="M258.89 85.53a5.2 5.2 0 0 1 4.85 0m5.09.76a4.39 4.39 0 0 1 3.49-.78" class="Aa Ac Af Aj"/><circle cx="262.35" cy="89.69" r=".69" class="Ag"/><path d="M263.09,89.84a2.3,2.3,0,0,0-2.74.08" class="Aa Ac Ad Af"/><circle cx="270.67" cy="89.69" r=".69" class="Ag"/><g class="Aa Ac Ad Af"><path d="M271.56,89.82a2.27,2.27,0,0,0-2.73.13"/><path d="M266.21,88.31a12.86,12.86,0,0,0,.83,4.55c1.93,3.78,3.33,8.56-4,5.66" class="Aj"/></g><g class="Al"><path d="M265.6 104.26c-1.91.18-3.94-2.77-3.94-2.77a17.22 17.22 0 0 0 3.94 1 7.75 7.75 0 0 0 3-1s-1.09 2.59-3 2.77z" class="Ac Ad Af"/><path d="M250.26,122.78,237,117s-6.88,54.68,2.3,58.07c0,0,26.19-46.52,24.41-52.49Z"/></g><g class="Av"><path d="M241.85 113.55s-3.75.65-5.71 2.52c0 0 2.85 9.27 10.42 12l3.25-5.32s-6.18-2.89-7.96-9.2z"/><path d="M249.81,122.78s12.39-.47,14.24-6.44a10.07,10.07,0,0,1,2.38,6.77s-3.92,5.92-13.72,6Z"/></g><path d="M310.05 248.24l-4.51 1.87c-7.21 2.57-15-.89-17.35-8.18-3.17-9.81-3.5-20.38-4.68-29.09-.58-4.27-1.25-13.09-3.84-20l.52 17.49 4 134.62c-67.89 4.81-101-34.22-101-34.22a280.25 280.25 0 0 1 1.16-33.25c3.78-45.62 14.85-107.75 19.54-132.88-2.89-6.53-23.43-25.29-26.87-43.7-1.59-8.55 3.4-14.6 9.47-18.68a55.73 55.73 0 0 1 17-7.18l21.95 29.34a13.48 13.48 0 0 1 1.84 2.4c1.69 3.45 10.48 9.18 10.48 9.18 0 .17.94 49.44 2.73 51 2.59-1 19.91-35.64 23.73-47.2a129.54 129.54 0 0 1 17.73 6.34s11.89 6.34 13.57 34c1.43 23.44 15.76 53.36 19 80.55a7.24 7.24 0 0 1-4.47 7.59z" class="Ah"/><path d="M235.25,114.28s1.6,47.78,3.65,59.74l30.47-52.65-4.2-1.56-24.08,43.63L238.71,116Z" class="At"/><g class="Al"><path d="M241.85 112.43s-3.75.64-5.71 2.51c0 0 2.85 9.27 10.42 12l3.25-4.19s-6.18-4.02-7.96-10.32z"/><path d="M249.81,122.78s12.39-1.6,14.24-7.57a10.07,10.07,0,0,1,2.38,6.77s-3.92,5.92-13.72,6Z"/></g><g class="Aw"><circle cx="233.89" cy="179.12" r="2.25"/><path d="M227.4 199.39a2.25 2.25 0 1 1 2.25 2.25 2.25 2.25 0 0 1-2.25-2.25z"/></g><path d="M203.88 144.63c-2.9-6.53-23.43-25.29-26.87-43.7-1.59-8.55 3.4-14.6 9.47-18.68 0 0-2.84 12.93 5.22 24.6s12.18 37.78 12.18 37.78zm101.66 105.48c-7.21 2.57-15-.89-17.35-8.18-3.18-9.81-3.51-20.39-4.68-29.09-.58-4.27-1.25-13.1-3.84-20 .24.38 8.06 12.73 15.07 32.72 7.13 20.33 4.91 23.3 10.8 24.55z" class="Ai"/><path d="M194.14 26.1h0l.92-4.4v-.26c0-.09 0-.2.05-.3l.06-.34a2.74 2.74 0 0 0 0-.28c0-.13.05-.26.07-.39s0-.17 0-.26l.06-.4v-.27l.06-.41a2.51 2.51 0 0 1 0-.27v-.42a2.34 2.34 0 0 0 0-.26c0-.14 0-.28.05-.43v-.25c0-.15 0-.3.05-.45v-.23-.5-.17c0-.22 0-.43.05-.64s0-.18 0-.27v-.36-.33a2.62 2.62 0 0 0 0-.28v-.34-.25V13v-.21-.34-.19-.33-.16-.33a.36.36 0 0 0 0-.11c0-.12 0-.22-.06-.33s0-.05 0-.07l-.09-.32h0a2.75 2.75 0 0 0-.28-.62c-1.93-3.06-17.55 6.11-16.24 8a21.61 21.61 0 0 1 2.42 4.15c.27.72 1.18 1.08 1.35 1.84a16.6 16.6 0 0 1 .28 1.74v.12c0 .42.06.84.11 1.26 0 .19 0 .38.08.57s0 .24.05.36c-.67 11.1-2.68 47.92-.81 59.83a24.82 24.82 0 0 0 .71 3c6.67-4 14.83-9.14 20.81-12.91-2.14-8.8-9.7-51.85-9.7-51.85z" class="Ab"/><path d="M151.41,33a55,55,0,0,1-2.15-6.23,23.18,23.18,0,0,1-.81-4.38,6.53,6.53,0,0,1,.13-2S184,13,187.47,11.62,221.42,0,221.42,0a45.41,45.41,0,0,1,2,5c.35,1.08.7,2.27,1,3.49a18.53,18.53,0,0,1,.43,6.74s-35.89,4.27-39.61,6S151.41,33,151.41,33Z" class="Ak"/><path d="M149.26 26.76a23.18 23.18 0 0 1-.81-4.38 6.53 6.53 0 0 1 .13-2S184 13 187.47 11.62 221.42 0 221.42 0a45.41 45.41 0 0 1 2 5 50.7 50.7 0 0 1 1 3.49c-10.11 1.24-37.52 4.73-40.93 6.36s-25.2 8.91-34.23 11.91z" class="Ax"/><path d="M193.49,9.47s-9.46.92-12.88,3.95l2,8.92s8.68-.88,13-3.18Z" class="Ay"/><path d="M291.44 83.68l-.64-.78c8.36-6.76 6.31-17.5 5.71-20a.81.81 0 0 1 .3-.84h0a.44.44 0 0 1 .7.26c.67 2.9 2.64 14.31-6.07 21.36z" class="Ak"/><path d="M290.8 82.9l-1.26.52 1.12 1.33.78-1.07-.64-.78z" class="Ap"/><path d="M289.54,83.42s-1.55,1.21-2.12.88c0,0,.57,1.49,1.35,1.62a5.19,5.19,0,0,0,1.89-1.17Z" class="Ak"/><path d="M275.48 69.45l-.16 6.28s-14.78-9.14-38.16.55v-9.07A6.28 6.28 0 0 1 240 62.9c4.35-2.71 14.59-7.82 31.3-.46 2.38 1.03 3.94 4.46 4.18 7.01z" class="Ah"/><path d="M284.19 345c-67.89 4.81-101-34.22-101-34.22a280.25 280.25 0 0 1 1.16-33.25c10.17-12.18 27.68-30.19 48.1-38.6 32.44-13.33 40.49-41.1 41.13-45.67s-.69-43.07 2.46-44.61l4.16 61.73z" class="Ai"/><path d="M178.81 13.8s9.19 4.11 11.06 2.2c0 0 4-1.73 3.73-3.8a2.71 2.71 0 0 0 .22-3.2c-1.13-1.54-6.61-2.22-7.39-1.75a5.64 5.64 0 0 0-1.93 1.8c-.27.57-3.33 1.16-3.66 2.23-.11.39-.85.09-1.72.83a1.32 1.32 0 0 0-.31 1.69z" class="Ab"/><g clip-path="url(#N)" class="Aa Ac Ad Am"><path d="M190.56 15.77l-9.71-4.46m12.45 2.79l-10.18-4.77m10.97 1.89l-8.82-4.15"/></g><path d="M758.25 138.9s-2.44-.38-3.33 1.25-2 4.26-.32 5.31 3.65-6.56 3.65-6.56z" class="As"/><g class="Ab"><path d="M881.47 112.68a10.1 10.1 0 0 0 3.53-2.58c1.33-1.67 3.15-4.37.91-3.68s-6.24 3.49-7.75 3.75-1 1.44-1.07 1.77 4.38.74 4.38.74z"/><path d="M890.05 106.81s-7.58.5-8.39-1.32c0 0-2.37-2.26-1.65-3.66a2.07 2.07 0 0 1 .68-2.31c1.2-.79 5.25.16 5.67.7a4.12 4.12 0 0 1 .9 1.78c0 .47 2 1.68 2 2.52 0 .31.58.29 1 1a1 1 0 0 1-.21 1.29z"/></g><g clip-path="url(#O)" class="Aa Ac Ad Am"><path d="M881.24 105.13l8-.61m-9.5-1.28l8.43-.71m-8.24-1.53l7.31-.63"/></g><path d="M712.53,362.14l-12.77-12.77-22.27,22.27L689,383.18s7.74,5.62,8.51,4.93l-5.23-11.27a2.86,2.86,0,0,1,1.16-3.67Z" class="Ab"/><g clip-path="url(#P)" class="Ae"><path d="M705.73,367.76l-17.88-8,7.79-7.79Z"/></g><path d="M681.26,367.15a51.9,51.9,0,0,0,2.66,6.46c2.71,4.63,5.41,7.07,7.23,8.1,3.85,2.16,4.17-.12,5.47,2.71,4,8.77,5.9,11.83,2.49,14.09l-23.36-24.14a1.71,1.71,0,0,1,0-2.41l.06-.06Z" class="An"/><path d="M754.35,234.92s19.18,61,11.28,75.64-62.58,57.95-62.58,57.95L692,353.18l51.66-53.49L730,268.47l2.76-31.5Z" fill="#7d4545"/><path d="M799.15,388.14h-18v31.38H797.4s9.43-1.49,9.48-2.52l-11.63-4.25a2.85,2.85,0,0,1-1.77-3.41Z" class="Ab"/><g clip-path="url(#Q)" class="Ae"><path d="M798.31,396.9,780,403.83v-11Z"/></g><path d="M780.62,413.7a51.11,51.11,0,0,0,6.44,2.68c5.18,1.35,8.79,1.17,10.81.6,4.23-1.18,2.86-3,5.76-1.94,9,3.36,12.51,4.18,11.7,8.18l-33.49-.55a1.72,1.72,0,0,1-1.68-1.74v-.08Z" class="An"/><path d="M811 256.54s-1 7.89-2.06 12.36-3.76 12.1-3.76 12.1l-7.46 116h-17.78s-.09-50.38-1.2-64.75c-1.37-17.71-5-27.39-6.11-29.14-2.93-4.76-10.73-19.17-5.36-36.34S811 256.54 811 256.54z" class="Aq"/><path d="M716.66 51.31c.38-2.32.44-4.74-.47-6.24a50.4 50.4 0 0 1-1.07-7.63c0-2.38-2.14-1.2-2.22.05l-.25 5.92c-.25.18-2.1-2.15-2-4.38s.66-2.94-.37-3.15a3 3 0 0 1 .82-2.87c1.31-1.42.4-2.85.22-2.7S709 33.44 709 33.44s.59-2.48.17-3a.92.92 0 0 0-1.31 0 .86.86 0 0 0-.14.18c-.26.47-.43-1.73-1.52-.15s-.73 13 2.25 16.51 2.25 5.42 2.25 5.42l-2.4 31.79 5.94-.16s1.83-10.16.6-19c-.62-4.63 1.07-9.12 1.82-13.72z" class="Ab"/><g class="Aa Ac Ad Am"><path d="M714.26,49.12c-.34-3.63-1.85-3.43-3.69-6.24s.19-4.92.29-6-.37-1-.37-1-2.44.89-2.64,7.05"/><path d="M707.61 30.68l.57 8.8m1-6.56L709 35a16 16 0 0 0 .16 1.82"/></g><path d="M713.54 101.74a6.8 6.8 0 0 1-3.71 1.09c-1.43-3.9-1.91-11.71-1.93-20.24 0-6.13.21-12.64.48-18.33l.1-.52 2.38-12.07 3.93-.23h.15l1.44-.09s.27 5.85.41 13.56v1.61c.21 14.06-.1 33.14-3.25 35.22z" class="Ab"/><path d="M815.93 55.3l-47.42-27.46-32.23 22.99 45.13 25.8 34.52-21.33z" class="Ai"/><path d="M791,61s-.78,6,3.35,8.55c8.55,5.22-.8,8.42,7.21,16.08,1.84,1.76,2,11-12.47,10.27s-16.41.18-16.41.18a22.3,22.3,0,0,1-22.27-3.51c-6.18-5,4-15,1.35-18.36-3.63-4.48-2.31-17.21,4.58-21.52s17.1-5.89,17.1-5.89Z" fill="#132644"/><path d="M829 80l.57-1.22c-12.89-6-13.7-20.43-13.71-23.77a1.07 1.07 0 0 0-.65-1h0a.59.59 0 0 0-.83.55c.07 3.9 1.19 19.18 14.62 25.44z" class="Ak"/><path d="M829.58 78.78l1.79.27-1.01 2.07-1.35-1.12.57-1.22z" class="Ap"/><path d="M831.37,79.05s2.38,1.06,3,.45c0,0-.25,2.1-1.22,2.52a6.9,6.9,0,0,1-2.79-.9Z" class="Ak"/><path d="M780.7,86a18.48,18.48,0,0,1-.93-8.28c6-2,4.18-7.89,1.88-8s-3.11,3.32-3.11,3.32c-1-6-5.38.33-11-8.16s-12.46-2.05-13,.75-2.8,31.28,14.12,29.22a32.41,32.41,0,0,1,1.17,8.59,42.69,42.69,0,0,1-.14,4.8c-1.26,5.25-6.34,18.43,3.17,21.44s20.62-13.37,16.7-22.11S782.27,90.49,780.7,86Z" class="Ab"/><g clip-path="url(#R)" class="Ae"><path d="M767.88,95s7.37-.26,9.65-10.55c0,0,3.08,17.23-6.76,20.72S767.88,95,767.88,95Z"/></g><path d="M760.77,72.55a21.54,21.54,0,0,1,.07,6.56c-.57,3-1.21,4.9,3.21,3.79" class="Aa Ac Ad Aj Ao"/><g class="Ag"><circle cx="757.03" cy="73.85" r=".95" transform="matrix(.986314 -.164875 .164875 .986314 -1.82 125.84)"/><circle cx="765.98" cy="73.71" r=".95" transform="matrix(.99 -.16 .16 .99 -1.67 127.31)"/></g><path d="M762.78 69.67s4.43-2 7.1.84m-15.21-.93a3 3 0 0 1 3.11 0" stroke-width=".69" class="Aa Ac Af Aj"/><path d="M759.77 86.07a6.91 6.91 0 0 0 8.52-.66s-1.89 4-4.2 4.06-4.32-3.4-4.32-3.4z" class="Ac Ad Al Ao"/><path d="M761.49 110.81l-2 20.33s-44.94-16.09-49.39-26.31a3.94 3.94 0 0 1-.22-.55c-1.51-4.11-2-12.6-1.93-21.69 0-5.7.23-11.63.48-16.87 0-.67.07-1.33.1-2l2.38-12.07 3.93-.23.15 1.44c.38 3.37 1 8.21 1.85 13.48v.15c2 13.12 5 28.77 6.51 30.6 2.51 3 38.14 13.72 38.14 13.72z" class="Ab"/><path d="M789.36,101.06s-4.38,13.65-21.52,5.06l18,39.59,4.7-35.4Z" class="Al"/><path d="M803.92,105.08s-2.16,7.1,39.11,29.6l30.45-20.85,3.65,3.06s-29.19,35.18-33.75,34.44-35.89-21.39-35.89-21.39Z" class="Ab"/><path d="M849.59 162.2c-.48 8.44-4.05 16.42-14.31 19.87-4.67 1.57-16.07-1.23-18.28-9.74l.53 3.18c2.82 17.42 5.06 44 6.78 70.68 2.94 45.86 4.32 91.93 4.32 91.93-36.41 8.48-89.42-9-105.79-18.17-14.43-8.06-23.05-21.5-27.44-30.28a67.91 67.91 0 0 1-3.68-8.64l8-17.83c7.07-16 16.9-38.94 21-51.33 6.86-20.56 14-34.38 14-49.59-59.11.87-11.38-65.17-11.38-65.17 16 6.52 44.5 9 44.52 9l17.71 32.8 3.8-37.86c.85-.09 18.27-1.36 25.57 3.48 8.16 5.41 11.29 20.57 28.11 30.13.74.44 7.3 14.55 6.54 27.54z" class="Ah"/><path d="M873.48,113.83s3.24-7.69,4.32-9.27c2.14-3.14,8.23-5.1,8.62-3.71s-3.9,3.43-4.09,6.63c-.05.88,1.76-.84,2.89-1.51.67-.4,1.08-.07.73.45-1.79,2.6-2.77,5.28-4.48,6.26s-4.34,4.21-4.34,4.21Z" class="Ab"/><path d="M789.36 101.06l-3.82 37.87-17.63-33.52-6.41.03 25.93 47.19 6.66-51.77-4.73.2z" class="At"/><g fill="#132644"><path d="M758.85,55s-7.2,6.3,11.57,12.69A9.6,9.6,0,0,1,776.23,81c-3.62,7.14,1.51,16.16,11.26,14.63,7.77-1.21.83-37.66-5.68-39.17S758.85,55,758.85,55Z"/><path d="M765.37 57.66s-6.86 3.53-7.92 7-3.26 8.37-5.09 4.41-1.51-8.88 1.74-11.76 9.66-3.44 10.81-2.11a2.08 2.08 0 0 1 .46 2.46z"/></g><path d="M754.72,54S768.08,45.53,791,64.28l1.26-6.16c-.42-3.83-1.6-4-4.7-6.27-3.5-2.58-9.06-5.43-17.42-6.61-5.75-.8-9-2-12.35,2.69Z" class="Ah"/><path d="M691.72 281a68.59 68.59 0 0 0 3.67 8.64c9.57-10.12 22.9-26.23 32.19-45.62 16-33.43 7.12-81.77 7.12-81.77 0 15.21-7.11 29-14 49.59-6.77 20.42-28.98 69.16-28.98 69.16z" class="Ai"/><path d="M790.54 166.29a1.6 1.6 0 1 0-1.59 1.59 1.6 1.6 0 0 0 1.59-1.59zm0 28.99a1.6 1.6 0 1 0-1.59 1.6 1.59 1.59 0 0 0 1.59-1.6z" class="Aw"/><path d="M817.53 175.51l-.53-3.18c2.22 8.51 13.61 11.31 18.28 9.74 10.26-3.45 13.83-11.43 14.32-19.87-1.11.58-17.76 9.09-25.51 4.09s-12.77-16.63-12.92-17z" class="Ai"/><path d="M906.64 133a55.86 55.86 0 0 0 4.28-5.21 24 24 0 0 0 2.33-3.92 7 7 0 0 0 .59-2s-31.39-19.58-34.22-22.17-28.45-23.2-28.45-23.2a44.4 44.4 0 0 0-3.71 4.09l-2.18 3a18.73 18.73 0 0 0-2.8 6.32s32.93 16.82 35.86 19.84 28.3 23.25 28.3 23.25z" class="Ak"/><path d="M910.92 127.76a24 24 0 0 0 2.33-3.92 7 7 0 0 0 .59-2s-31.39-19.58-34.22-22.17-28.45-23.17-28.45-23.17a44.4 44.4 0 0 0-3.71 4.09l-2.18 3c9.26 4.78 34.33 17.84 37 20.62s21.03 17.47 28.64 23.55z" class="Ax"/><path d="M874.61,95.49s8.75,4.23,11,8.35l-5.09,7.85s-8-3.92-11.39-7.68Z" class="Ay"/><path d="M828.63 338.12c-36.41 8.48-89.42-9-105.79-18.17-14.43-8.06-23.05-21.5-27.44-30.28a67.91 67.91 0 0 1-3.68-8.64l8-17.83c16.77-5.89 50.46-18.15 73.42-29.11 31.65-15.11 38.16-43.28 38.54-47.88s-3.06-43 0-44.67a707.1 707.1 0 0 1 12.66 104.65c2.91 45.86 4.29 91.93 4.29 91.93z" class="Ai"/><path d="M494.35 197.12c2 1.15 4.31 2 6 1.7a48.56 48.56 0 0 1 7.53 1.62c2.22.85 1.86-1.61.71-2.1l-5.47-2.28c-.1-.28 2.74-1.23 4.79-.34s2.54 1.63 3.08.73a3 3 0 0 1 2.42 1.76c.88 1.72 2.54 1.35 2.46 1.13s-2.14-3.26-2.14-3.26 2.13 1.39 2.72 1.17A.92.92 0 0 0 517 196a.69.69 0 0 0-.13-.2c-.35-.4 1.78.19.66-1.38s-12-5.16-16.27-3.56-5.86.25-5.86.25l-29-13.18-1.89 5.63s8.91 5.21 17.67 7.12c4.47 1.01 8.11 4.15 12.17 6.44z" class="Ab"/><g class="Aa Ac Ad Am"><path d="M497.23,195.61c3.53.93,3.86-.55,7.13-1.32s4.56,1.87,5.55,2.34,1,0,1,0,0-2.61-5.71-4.91"/><path d="M516.83 195.7l-8.45-2.48m5.82 3.19l-1.91-.87c-.67-.25-1.17-.35-1.76-.48"/></g><path d="M448.07 176.84a6.76 6.76 0 0 1 .25-3.85c4.15 0 11.65 2.23 19.67 5.14 5.77 2.1 11.8 4.54 17.05 6.76l.45.27 10.51 6.38-1.13 3.78-.05.14-.41 1.38-14.86-3.92c-13.27-4.64-30.61-12.4-31.48-16.08z" class="Ab"/><path d="M388.45 73.53l45.82-23.67 29.25 23.07-43.58 22.22-31.49-21.62z" class="Ah"/><g class="Au"><path d="M424,92.58s-8.73,6.39-2,16.4c0,0-8.27-.68-10.26-2.92a5.93,5.93,0,0,0,.66,1.46s-9.63-.25-11.74-3.62c-4.34-7,4.47-7.37,7.5-15.33,4-10.41,11-19,22.49-14.6,0,0,15.28-2.37,10.3,18s1.75,21.46,1.75,21.46a9.84,9.84,0,0,1-2.92.48s-1.24-.72-1.39-1.49a4.8,4.8,0,0,0,.36,1.61s-7.38-.48-10.57-3.81S422.3,96.68,424,92.58Z"/><path d="M416.22,100.75s-3.34-7.8-3.44-14c-.08-4.45,5.7-17.65,21.43-12.76,0,0,3.6-1.25,7.51,2.43,3.12,2.92,7.35,8.82-.54,21.9L439,102.78Z"/></g><path d="M418.64 108.67a18.43 18.43 0 0 0-.39-8.32c-6.27-1-5.39-7.12-3.14-7.59s3.6 2.79 3.6 2.79c0-6 5.37-.54 9.53-9.81s12-4 12.92-1.33 7.75 30.43-9.28 31.1a32.28 32.28 0 0 0 .21 8.67 42.7 42.7 0 0 0 .91 4.72c2.08 5 9.19 17.17.29 21.66s-22.49-9.91-20-19.16 4.52-18.06 5.35-22.73z" class="Ab"/><g clip-path="url(#S)" class="Ae"><path d="M432.74 115.48s-7.32.92-11.22-8.87c0 0-.29 17.49 10 19.37s1.22-10.5 1.22-10.5z"/></g><path d="M436.17,92.2a22,22,0,0,0,1,6.49c1,2.83,2,4.65-2.57,4.26" class="Aa Ac Ad Aj Ao"/><circle cx="440.07" cy="92.89" r=".95" transform="matrix(.00541 -.999985 .999985 .00541 344.78 532.45)" class="Ag"/><g stroke="#324a83" class="Aa Ad"><ellipse cx="441.11" cy="93.04" rx="3.91" ry="3.88" transform="matrix(.00541 -.999985 .999985 .00541 345.67 533.63)"/><ellipse cx="431.34" cy="94.29" rx="3.91" ry="3.88" transform="matrix(.00541 -.999985 .999985 .00541 334.7 525.11)"/></g><circle cx="431.22" cy="94.18" r=".95" transform="matrix(.00541 -.999985 .999985 .00541 334.69 524.88)" class="Ag"/><path d="M433.73 89.69s-4.69-1.28-6.88 2m14.87-3.39a3 3 0 0 0-3.07.47" stroke-width=".69" class="Aa Ac Af Aj"/><g class="Ad Ac"><path d="M439.32 105.39a6.9 6.9 0 0 1-8.52.71s2.51 3.65 4.8 3.33 3.72-4.04 3.72-4.04z" class="Al Ao"/><g stroke="#324a83" class="Aa"><path d="M427.47,93.5l-9.6-1" class="Aj"/><path d="M437.27,92.61l-2.15.46"/></g></g><path d="M416.72,382.42h18v31.39H418.46s-9.42-1.49-9.48-2.52L420.61,407a2.85,2.85,0,0,0,1.77-3.42Z" class="Ab"/><g clip-path="url(#T)" class="Ae"><path d="M417.55,391.18l18.27,6.94v-11Z"/></g><path d="M435.24,408a51.54,51.54,0,0,1-6.43,2.67c-5.18,1.36-8.8,1.18-10.81.61-4.24-1.18-2.86-3-5.77-1.94-9,3.35-12.51,4.18-11.7,8.18L434,417a1.71,1.71,0,0,0,1.68-1.74v-.08Z" class="An"/><path d="M404.85 250.83s1 7.89 2.06 12.36 3.78 12.08 3.78 12.08l7.45 116h17.78s.09-50.38 1.2-64.75c1.38-17.71 5-27.39 6.11-29.14 2.93-4.77 10.73-19.18 5.37-36.34s-43.75-10.21-43.75-10.21z" class="Aq"/><path d="M491.31 361.35S488 365.64 490 368s13.62 14.95 16.69 17.68 10.38 6.64 15.83 5.25 8.13-7.1-5-16.68a86.58 86.58 0 0 0-26.21-12.9z" class="An"/><path d="M486.52 353s4.79 6.32 4.79 8.35-1.16 3.17 6.65 8.89 19 15.71 21.41 9.83-13.28-13.07-19.78-23.92-9.92-13.89-9.92-13.89z" class="Ab"/><g clip-path="url(#U)" class="Ae"><path d="M495.54,347.72l-9,10.58-2-6Z"/><path d="M489.53,353.57s4.29,6.24,4.29,7.78,14.24,16.92,25.3,20.52-7.91,3.73-7.91,3.73L485,362.89Z"/></g><path d="M405.73 315.1s-5.07 20.48 14.91 21.52 35-24.55 41.13-14.4 12.08 26.62 22.72 32.44l11.23-7.07s-18.47-48.94-28.61-50.17c-4.67-.56-23.34-.33-41.1 5.52-7.94 2.61-20.28 12.16-20.28 12.16z" class="Aq"/><g clip-path="url(#V)"><path d="M418,308.18s-5.55,17.76,8.44,16.69,28.06-16.61,36.1-2.06-46.71,31.85-46.71,31.85l-19.22-17.29,4.46-24.71Z" fill="#7d4545"/></g><path d="M405.62,315.93c-4.84,24.32,18.23,21.29,22.85,20s7.67-2.72,18.33-10,12.75-7.46,15.75-2.3,13.58,28.21,21.94,31l11.05-6.94" class="Aa Ac Ad Am"/><g class="Ab"><path d="M343.91,155.39a20.28,20.28,0,0,0-3.45-3.68c-1.83-1.41-3.76-4.06-3.2-4.92s6.08-4.91,6.08-4.91l2.93,7.27Z"/><path d="M365.26 173.13l-19.08-24.52-2.27 6.78s19.55 44.47 28.5 40.33c4.18-1.93-7.15-22.59-7.15-22.59z"/></g><path d="M411.48 125h0c-.09 0-.07 0 0 0z" class="As"/><g class="Au"><path d="M440.79 77.87S432.88 91.76 424 92.58s-12.18-2-12.18-2a24.34 24.34 0 0 0 10.16-13s15.76-7.41 18.81.29z"/><path d="M439.22 78.85s3.61 4 4.1 7.34-.11 10 1.85 10.13c0 0 5.79-9.38 2-15.81-3.99-6.83-7.95-1.66-7.95-1.66z"/><path d="M439.91 79.47s-6.43 14.85-18 18.08c0 0 12.25-7.78 14.8-17.85s3.2-.23 3.2-.23z"/></g><path d="M424.37 294.9c-9.63-7-23.19-19.34-28.1-39.63-.94-10.09 7-19.68 15.89-22.71 6.94-.6 13.46 1.61 16.69 10.13 4.69 12.41-.06 33.83-4.48 52.21z" fill="#ed975d"/><path d="M506.83 314.7c-30.56 44-109.42 49-109.42 49-6.35-23.17-8.26-63.89-8.22-104.41 0-41.23 2.11-82.26 3.59-104.41-.18-7.67.11-14.16 1.37-16.65 2-3.89 12.62-10.64 16.45-14a6.68 6.68 0 0 1 1.65-.42c.58 2 7.68 26.13 8.39 25.62s12.69-23.4 13.95-26.11c1.29 0 2.17.07 2.42.09 2.11.1 13.52 2.38 14.47 4.22.34.64 3.62 9.32 7.73 20.81h0c7.72 21.55 19 17.5 23.52 23.89 2.82 4 1.61 11.49-3.63 18a30.29 30.29 0 0 1-1.42 1.61c-4 4.22-9.39 6.71-18.19 5.42a18.42 18.42 0 0 1-5.57-2.28 28.81 28.81 0 0 1-4.65-3.28c8.66 32.48 57.56 122.9 57.56 122.9z" class="Ah"/><path d="M412.78 122.66l-4.14 2.34s11.3 32 11.86 31.82 17.5-33.33 17.5-33.33l-3.43-1.49-13.93 27.37z" class="At"/><path d="M445.82,78.62S430.6,72,408.21,88.57l.64-4a13,13,0,0,1,5.6-8.8c3.4-2.27,8.76-4.7,16.67-5.43A14.66,14.66,0,0,1,444.78,77Z" class="Ah"/><path d="M375,96.16,374.56,95c12.39-5.06,13.8-18.59,14-21.72a1,1,0,0,1,.66-.9h0a.56.56,0,0,1,.75.56C389.69,76.57,388,90.88,375,96.16Z" class="Ak"/><path d="M374.56 94.99l-1.7.17.86 2 1.32-1-.48-1.17z" class="Ap"/><path d="M372.86,95.16s-2.28.89-2.84.29c0,0,.15,2,1,2.42a6.54,6.54,0,0,0,2.67-.71Z" class="Ak"/><path d="M413.62,125.54s3.79,7,18.85.62l-11.83,23.25Z" class="Al"/><path d="M408.64 125s-2 66.17-18.29 79a9.92 9.92 0 0 1-3.67 1.87c-8.24 2.11-14.23-2.8-18.29-9.61-5.64-9.45-7.54-22.56-6.58-25.58 1.82-5.75 6 4.42 14.81 1.63S387.8 134.07 394 128.9c1.55-1.34 14.64-3.9 14.64-3.9z" class="Ah"/><path d="M346.18 148.61s.42-3.87-.47-5.23-1-5.11-1.8-4.71-.3 3.47-.83 5-1.29 8.39.83 9.7 2.27-4.76 2.27-4.76z" class="Ab"/><path d="M417.51 169.83a2.29 2.29 0 1 1 2.29 2.28 2.28 2.28 0 0 1-2.29-2.28zm0 16.97a2.29 2.29 0 1 1 2.29 2.29 2.28 2.28 0 0 1-2.29-2.29z" class="Aw"/><path d="M479.1 190.28l-1.42 1.62c-4 4.22-9.39 6.71-18.18 5.42-2.19-.32-6.62-2.44-10.23-5.56 0 0-7.25-19.82-6.28-22.62s14.95 18.94 26.55 20a87.83 87.83 0 0 1 9.56 1.14zm-85.29-15.41L390.35 204a9.92 9.92 0 0 1-3.67 1.87c-8.24 2.11-14.23-2.8-18.29-9.61 4.23.59 14.48 1.5 16.72-3 2.83-5.6 8.7-18.39 8.7-18.39z" class="Ah"/><path d="M325.91 171.62a46.19 46.19 0 0 1-4.57-3.22 19.48 19.48 0 0 1-2.72-2.62 6 6 0 0 1-.92-1.45s20.76-22.58 22.45-25.27 17.61-24.81 17.61-24.81a36.22 36.22 0 0 1 3.86 2.46l2.41 1.91a15.53 15.53 0 0 1 3.63 4.43s-22.59 20.71-24.27 23.77-17.48 24.8-17.48 24.8z" class="Ak"/><path d="M321.34 168.4a19.48 19.48 0 0 1-2.72-2.62 6 6 0 0 1-.92-1.45s20.76-22.58 22.45-25.27 17.61-24.81 17.61-24.81a36.22 36.22 0 0 1 3.86 2.46l2.41 1.91c-6.35 5.86-23.49 21.84-25 24.65s-12.95 18.6-17.69 25.13z" class="Ax"/><path d="M343.23,134.6s-6.06,5.31-6.91,9.1l5.79,5.15s5.54-4.91,7.41-8.66Z" class="Ay"/><path d="M335.27 144.84s8.37-1.72 8.71-4c0 0 1.89-3.16.69-4.46a2.32 2.32 0 0 0-1.43-2.3c-1.54-.5-5.65 1.75-5.95 2.46a4.77 4.77 0 0 0-.44 2.2c.1.52-1.72 2.44-1.42 3.34.12.33-.54.48-.77 1.42a1.1 1.1 0 0 0 .61 1.34z" class="Ab"/><g clip-path="url(#W)" class="Aa Ac Ad Am"><path d="M344.33 140.38l-8.9 1.74m9.96-4.24l-9.39 1.76m8.5-4.13l-8.11 1.49"/></g><path d="M506.83 314.7c-30.56 44-109.42 49-109.42 49-6.35-23.17-8.26-63.89-8.22-104.41 7.29-3.63 14.34-7.31 20.56-10.82 30.53-17.28 35.07-45.83 35.14-50.45s-6.05-42.63-3.11-44.56A273 273 0 0 0 453.92 195a28.81 28.81 0 0 1-4.65-3.28c8.66 32.56 57.56 122.98 57.56 122.98z" class="Ai"/><path d="M632.5 237.11c.26 2.68.9 5.4 2.34 6.8a57.68 57.68 0 0 1 3.42 8.16c.64 2.66 2.73.71 2.44-.7l-1.44-6.65c.18-.25 3 1.77 3.47 4.29s.12 3.46 1.33 3.39a3.47 3.47 0 0 1-.08 3.43c-1 2 .39 3.29.54 3.06s1.69-4.15 1.69-4.15.07 2.92.67 3.34a1.06 1.06 0 0 0 1.46-.37 1.12 1.12 0 0 0 .11-.25c.15-.59 1 1.8 1.73-.27s-3-14.68-7.31-17.7-3.11-10.4-3.11-10.4l1.07-33.34-19.28 4.49a182 182 0 0 0 7 21.4 53.55 53.55 0 0 1 3.95 15.47z" class="Ab"/><g clip-path="url(#X)" class="Ae"><path d="M625.8 204l-16.19 18.1 3 6.44 14-18.49zm15.38 33.71s-3.14-2-3.69-10.32 1.37-32.55-13-35.21 8.72-3.9 8.72-3.9l16.22 24.84z"/></g><g class="Aa Ac Ad Am"><path d="M635.81,238.84c1.44,3.94,3.05,3.27,5.92,5.86s1.22,5.53,1.43,6.77.69,1,.69,1,2.46-1.71.89-8.61"/><path d="M648.57 257.39l-3.2-9.6m.8 7.58l-.43-2.37a20.25 20.25 0 0 0-.7-2"/></g><path d="M573.09,386.92h18.5v32.21H574.88s-9.66-1.53-9.72-2.59L577,412.19a3,3,0,0,0,1.86-3.57Z" class="Ab"/><g clip-path="url(#Y)" class="Ae"><path d="M573.44,394l19.26,9V391.77Z"/></g><path d="M592.1,413.15a52.19,52.19,0,0,1-6.6,2.75c-5.31,1.39-9,1.2-11.09.62-4.35-1.21-2.94-3.1-5.92-2-9.25,3.44-12.84,4.29-12,8.39l34.33-.56a1.79,1.79,0,0,0,1.76-1.82v-.09Z" class="Ag"/><path d="M637.12,390.05l7.93-7.88,8.56,21.53a15,15,0,0,0,4.16,5.82l8.44,7.21s-5.64,2.49-10.2,1.31-14-8.31-14-8.31Z" class="Ab"/><g clip-path="url(#Z)" class="Ae"><path d="M635.39,394l19.34,9V391.77Z"/></g><path d="M639.9,403s7.81,8.14,11.44,10c.15.08,3.65,2,5.91,1.93,2.54-.11,3.87-2.25,4-2.18,5,2.6,9.52,2,10.85,10.2H660.42a14.87,14.87,0,0,1-10.62-4.43l-2.09-2.13s-5.86.15-5.86-2.13S639.9,403,639.9,403Z" class="Ag"/><path d="M579.7 248.92s-10.71 7.86-12.89 11.69c-4.85 8.51-2.14 18.11-.71 33.15 3.11 32.7 7.29 100.73 7.29 100.73h19.69l10-102.55s1.62 33.37 32.7 102.75l21.14.1-28.25-134.18-41-23z" fill="#56d4b7"/><g clip-path="url(#a)"><g fill="#4bc5a9"><path d="M593.51 250.59s-15.9 3.34-15.9 25.39 10.3 146.75 10.3 146.75l-18.76-3.27-17.49-166.29L579 241.25zm9.9 40.41a158 158 0 0 0 1.38 24.59c1.83 13.68 38.09 109.53 38.09 109.53l12-2.36z"/></g><path d="M604.68,267.64s2.87,15.17,2.24,19.25a4.53,4.53,0,0,1-4.37,4.08" stroke="#4bc5a9" class="Aa Ac"/></g><path d="M545.5 69.43l44.41-26.21 30.51 21.37-42.26 24.64-32.66-19.8z" class="Ai"/><path d="M568.32 81.51A15 15 0 0 1 561 91.3c-6.21 3.33-11.54 4.3-10.2 15s-6 13.16-7.32 20.26-1.17 20.07 16.63 16.19 58.57-1.11 63-6.88 1.33-17.74-6.21-26.84 2.44-15-1.11-23.05-10.39-16.23-10.39-16.23-29.29-5.56-37.08 11.76z" class="Ag"/><path d="M533.28 93.3l-.54-1.14c12.09-5.75 12.73-19.34 12.72-22.48a1 1 0 0 1 .6-.93h0a.56.56 0 0 1 .78.52c-.02 3.65-.95 18.03-13.56 24.03z" class="Ak"/><path d="M532.74 92.16l-1.68.27.97 1.94 1.25-1.07-.54-1.14z" class="Ap"/><path d="M531.06,92.43s-2.23,1-2.82.44c0,0,.25,2,1.16,2.36a6.63,6.63,0,0,0,2.63-.86Z" class="Ak"/><path d="M575.94 125.62s13.2 5.24 23.54.54-7.09 27.47-7.09 27.47-18.62-13.63-16.45-28.01z" class="Al"/><g class="Ag"><path d="M582.45,100.9s-6.3-6.58-8.74-12.79c-1.75-4.44-2.84-22,14.8-23a23.69,23.69,0,0,1,10.4,1.7c4.24,1.77,10.7,6.11,7.7,22.22l-.55,5.34Z"/><path d="M594.29 69.06S591.57 86 583 90.15s-13 2.52-13 2.52a26.17 26.17 0 0 0 5.33-16.84s13-13.37 18.96-6.77z"/><path d="M588.73 71.36s5.11 2.63 6.88 5.83 5.43 4.34 5.67 9.49c0 0 2.28-11.6-3.93-16.65-6.59-5.36-8.62 1.33-8.62 1.33z"/></g><path d="M611.29 92a6.7 6.7 0 0 1-4.55 3.77h0c-3.46 15.2-14.46 14.93-14.46 14.93l1.43 5.5h.13a104.84 104.84 0 0 0 10.54 3.34s-5.4 12.8-19.82 12S567 118.8 567 118.8l4.57-.59c3.86-.44 6.41-.79 6.42-2.1a37.89 37.89 0 0 0 .09-4.88 37.5 37.5 0 0 0-1.58-9.2 98.34 98.34 0 0 0-6.32-12s7.49-9.13 13.42-15 16.81-1.9 16.81-1.9a27.79 27.79 0 0 1 5.97 2.87 6.64 6.64 0 0 1 1.6 3.81 62 62 0 0 1 2.75 9.19l.19.89h-3.32a40.73 40.73 0 0 1-.65 4.88 5.77 5.77 0 0 0 4-4.78c.12.64.24 1.3.34 2.01z" class="Ab"/><g clip-path="url(#b)" class="Ae"><path d="M592.27,110.67a17.81,17.81,0,0,1-7.6-4.8s10.53,16.94,8.9,10.18Z"/></g><path d="M591.42 88.2a5.85 5.85 0 0 1 5.69 0m5.73-.2a4.93 4.93 0 0 1 3.92.66" class="Aa Ac Ad Af Aj"/><path d="M612.44 88.92v.26a6.69 6.69 0 0 1-.6 2.79 6.87 6.87 0 0 1-4.67 3.87h0l.22-1a5.91 5.91 0 0 0 4.1-4.9v-.1h-3.4c0-.3.06-.6.07-.91l.1-4.82a13.55 13.55 0 0 1-3-3.75 9.23 9.23 0 0 1-.62-3.85S598.81 86.55 587 89.12h0a26.89 26.89 0 0 1-7.9.49s-3.61-2-4.39.63.7 3.87 3.45 4.93l-.32 16.6a38.58 38.58 0 0 0-1.62-9.46A101.47 101.47 0 0 0 569.66 90s7.69-9.38 13.78-15.38 17.26-2 17.26-2a28.37 28.37 0 0 1 6.09 2.9 6.83 6.83 0 0 1 1.65 3.91 62.64 62.64 0 0 1 2.82 9.42z" class="Ag"/><path d="M600.83,90.4a3.89,3.89,0,0,0,.51,3.91c1.47,2,1.47,4.39-2.6,3.5" class="Aa Ac Ad Aj Ao"/><circle cx="595.34" cy="91.3" r=".79" transform="matrix(.003316 -.999995 .999995 .003316 502.08 686.34)" class="Ag"/><path d="M596.49,91.11a2.57,2.57,0,0,0-3,.07" class="Aa Ac Ad Af"/><path d="M589.85 88.92v.37.3.27c0 .09 0 .37.08.55s.07.34.11.51a1.83 1.83 0 0 0 .08.25c0 .11.07.23.11.34v.06a.42.42 0 0 1 0 .1c0 .1.08.2.13.3a3 3 0 0 0 .16.31 1 1 0 0 0 .13.23 4.18 4.18 0 0 0 .4.63 1.57 1.57 0 0 0 .2.25 4 4 0 0 0 .32.38 3.85 3.85 0 0 0 .35.35h0l.38.33h0a3.88 3.88 0 0 0 .33.23.2.2 0 0 0 .07.06 1.34 1.34 0 0 0 .23.13 6.77 6.77 0 0 0 .8.43l.52.2.55.16.46-.13.22-.08h0l.32-.12h0 .07l.31-.15h0l.29-.15a.91.91 0 0 0 .16-.11l.24-.14.26-.18h0l.44-.35c.16-.14.31-.3.46-.45l.33-.38a7.75 7.75 0 0 0 .56-.81l.23-.44.21-.46c0-.14.11-.28.15-.43h0 0c.05-.15.09-.31.13-.47s.07-.34.09-.5a4.26 4.26 0 0 0 .06-.5v-.49V89zm5.09 5.85a5.78 5.78 0 0 1-4.18-5h8.39a5.77 5.77 0 0 1-4.21 5zm6.71-5.77v.25a6.5 6.5 0 0 0 .07 1 6.69 6.69 0 0 0 5 5.53h0a6.71 6.71 0 0 0 5.14-6.48V89zm5.3 5.79l-.21.06a5.78 5.78 0 0 1-3.85-3.57 5.51 5.51 0 0 1-.32-1.39h8.38a.28.28 0 0 1 0 .09 5.77 5.77 0 0 1-3.95 4.77z" class="Al"/><circle cx="604.79" cy="91.33" r=".79" transform="matrix(.003316 -.999995 .999995 .003316 511.46 695.82)" class="Ag"/><g class="Aa Ac Ad"><path d="M605.93,91.11a2.55,2.55,0,0,0-3,.13" class="Af"/><g stroke="#fff"><path d="M590,89.3l-10.86-.42" class="Aj"/><path d="M599.89,90.2H602"/></g></g><path d="M599.24 104.68c-2.11.17-4.33-2.75-4.33-2.75a20.88 20.88 0 0 0 4.33 1 9.24 9.24 0 0 0 3.29-1s-1.19 2.58-3.29 2.75z" class="Ac Ad Al Ao"/><g class="Ah"><path d="M636.31 204.63a40 40 0 0 1-7 1.52c-3.86.56-7.63.92-10 2-7.12 3.23-24.38-92.08-24.38-92.08s12.56.12 18.33 9.21 28.21 54 30.21 68.38c.8 6.49-2.55 9.42-7.16 10.97z"/><path d="M662.17 333.17a31.63 31.63 0 0 1-4.32 6.92 51 51 0 0 1-6.33 6.7c-7.06 6.24-18.31 13-35.68 16.36l-2.82.51c-5.24.86-10.26 1.48-15 1.9a194.75 194.75 0 0 1-26 .56c-5.1-.24-9.58-.66-13.35-1.13a109.18 109.18 0 0 1-13.36-2.36s0-33 1.68-70.34c1-22.92 2.71-47.47 5.41-66.94 3.92-28.35 17.1-108.87 17.1-108.87l6.56-1 15.71 35 3.07-34.37 7.15 2.28a10.7 10.7 0 0 1 7.08 7.56l9.84 38.41z"/></g><path d="M550.42,171.59S592.71,184,600.47,182.9c0,0,8.07,4,4.42,5.42-13.51,5.21-22.74,4.28-48.82-1Z" class="Ab"/><path d="M576 115.48s-19.14 2.31-22.36 6.18c-10.19 12.22-19.42 64.41-11.44 76.46 9.54 14.4 24.23-8.19 28.84-21.5 2.38-6.9 6.27-48.62 4.96-61.14z" class="Ah"/><path d="M575.94 170.44l-.74 7.49a25.41 25.41 0 0 1-4.17-1.31c-10.5-4.2-6.36-25.07-6.36-25.07 1.64 8.35 6.9 14.8 11.27 18.89z" class="Ai"/><path d="M605.4,69.75s-15.53-5.89-37.08,11.76l.44-4a13,13,0,0,1,5.16-9.06c3.29-2.44,8.52-5.12,16.39-6.23a14.62,14.62,0,0,1,14,6Z" class="Ah"/><g class="Ai"><path d="M636.31 204.63a40 40 0 0 1-7 1.52l-10.08-44.46s16.9 34.17 17.08 42.94z"/><path d="M662.17 333.17a31.63 31.63 0 0 1-4.32 6.92 51 51 0 0 1-6.33 6.7c-7.06 6.24-18.31 13-35.68 16.36l-2.82.51c-5.24.86-10.26 1.48-15 1.9a194.75 194.75 0 0 1-26 .56c-5.1-.24-9.58-.66-13.35-1.13a109.18 109.18 0 0 1-13.36-2.36s0-33 1.68-70.34c15.37-9 33.86-20.17 47.72-30 28.61-20.29 30.21-49.16 29.8-53.76-.36-4.07-6.19-35.57-5.59-44.18z"/></g><path d="M580.867 197.099l12.213-43.477 25.022 7.029-12.213 43.477z" fill="#230d99"/><path d="M582.695 195.414l11.063-39.386 22.47 6.312-11.063 39.386z" stroke="#fff" class="Aa Ac Ad"/><path d="M575.79 187.71c3.51 7 21.7 3.61 29.31.27 0 0 8.69-.57 9.51-2.17s0-2.05 0-2.05 1.12-1.16.85-2.08c0 0 1-1.72.57-2.29 0 0 1.13-2.17-2.24-3.39 0 0 0 1.55-.89 1.83s-4.52-.08-4.29-.9 3-2.24 2.42-3.88-2.06 1.4-4.15 2.11-4.06 2-5.07 5.57c0 0-1 3.7-9.7 1.73-4.63-1-8.88-2.62-12-2.51-2.71 1.25-5.97 4.46-4.32 7.76z" class="Ab"/><g clip-path="url(#c)" class="Ab"><path d="M605.1,188s-24.39,4.47-30.06-2.55,0,8.38,0,8.38l30.77.26Z"/></g><path d="M616.05 179.39s-.49.76-2.11.55m1.54 1.74a3.61 3.61 0 0 1-2.14.42m1.29 1.66a3.88 3.88 0 0 1-2.22.41" stroke="#99776c" class="Aa Ac Ad"/></svg>