<svg xmlns="http://www.w3.org/2000/svg" xmlns:xlink="http://www.w3.org/1999/xlink" viewBox="0 0 913.84 431.98"><defs><style>.cls-1,.cls-12,.cls-15,.cls-16,.cls-18,.cls-19,.cls-20,.cls-35,.cls-36,.cls-53,.cls-54,.cls-57,.cls-58,.cls-70,.cls-72,.cls-73,.cls-74,.cls-78{fill:none;}.cls-2{fill:#ffd3c8;}.cls-3{fill:#01121c;}.cls-4{fill:#2a3756;}.cls-5{clip-path:url(#clip-path);}.cls-6{fill:#fff9f9;}.cls-7{clip-path:url(#clip-path-2);}.cls-8{fill:#f1b2a2;}.cls-9{clip-path:url(#clip-path-3);}.cls-10{clip-path:url(#clip-path-4);}.cls-11{clip-path:url(#clip-path-5);}.cls-12,.cls-35{stroke:#301913;}.cls-12{stroke-miterlimit:10;stroke-width:0.5px;}.cls-13{fill:#4c2603;}.cls-14{clip-path:url(#clip-path-6);}.cls-15,.cls-16,.cls-18,.cls-19,.cls-20,.cls-21,.cls-54{stroke:#061537;}.cls-15,.cls-16,.cls-20,.cls-21,.cls-53,.cls-54,.cls-55,.cls-57,.cls-72,.cls-73,.cls-75{stroke-linecap:round;}.cls-15,.cls-20,.cls-21,.cls-35,.cls-36,.cls-70,.cls-72,.cls-73,.cls-74,.cls-75,.cls-78{stroke-miterlimit:10;}.cls-15{stroke-width:1px;}.cls-16{stroke-miterlimit:10;stroke-width:1px;}.cls-17{fill:#061537;}.cls-18{stroke-miterlimit:10;stroke-width:0.5px;}.cls-19{stroke-miterlimit:10;stroke-width:0.5px;}.cls-20,.cls-21,.cls-35,.cls-72,.cls-73,.cls-74,.cls-75,.cls-78{stroke-width:0.5px;}.cls-21,.cls-25,.cls-55,.cls-75{fill:#fff;}.cls-22{fill:#efcbab;}.cls-23{fill:#d8a987;}.cls-24{fill:#ffb27d;}.cls-26{fill:#d2e3fc;}.cls-27{fill:#955454;}.cls-28{fill:#101928;}.cls-29{fill:#ff9378;}.cls-30{fill:#e6e6e6;}.cls-31{fill:#932424;}.cls-32{fill:#bc3f3f;}.cls-33{fill:#1c468a;}.cls-34{clip-path:url(#clip-path-7);}.cls-36{stroke:#1a1a1a;}.cls-37{clip-path:url(#clip-path-8);}.cls-38{clip-path:url(#clip-path-9);}.cls-39{clip-path:url(#clip-path-10);}.cls-40{clip-path:url(#clip-path-11);}.cls-41{clip-path:url(#clip-path-12);}.cls-42{clip-path:url(#clip-path-13);}.cls-43{fill:#233862;}.cls-44{fill:#ddb08e;}.cls-45{fill:#c94c43;}.cls-46{clip-path:url(#clip-path-14);}.cls-47{clip-path:url(#clip-path-15);}.cls-48{clip-path:url(#clip-path-16);}.cls-49{fill:#7d4545;}.cls-50{clip-path:url(#clip-path-17);}.cls-51{fill:#132644;}.cls-52{clip-path:url(#clip-path-18);}.cls-53,.cls-55,.cls-72,.cls-75{stroke:#9d3f28;}.cls-53,.cls-54,.cls-55,.cls-57,.cls-58{stroke-miterlimit:10;}.cls-53,.cls-55,.cls-57,.cls-58{stroke-width:0.5px;}.cls-54{stroke-width:0.69px;}.cls-56{clip-path:url(#clip-path-19);}.cls-57,.cls-58{stroke:#324a83;}.cls-59{clip-path:url(#clip-path-20);}.cls-60{clip-path:url(#clip-path-21);}.cls-61{clip-path:url(#clip-path-22);}.cls-62{fill:#ed975d;}.cls-63{clip-path:url(#clip-path-23);}.cls-64{clip-path:url(#clip-path-24);}.cls-65{clip-path:url(#clip-path-25);}.cls-66{clip-path:url(#clip-path-26);}.cls-67{fill:#56d4b7;}.cls-68{clip-path:url(#clip-path-27);}.cls-69{fill:#4bc5a9;}.cls-70{stroke:#4bc5a9;}.cls-71{clip-path:url(#clip-path-28);}.cls-73,.cls-74{stroke:#fff;}.cls-76{fill:#230d99;}.cls-77{clip-path:url(#clip-path-29);}.cls-78{stroke:#99776c;}</style><clipPath id="clip-path"><path class="cls-1" d="M64.06,403.27s1.93,2.64,1.32,11.56H24.22s.56-4.64,5-5.78,17.89-8.94,19.59-7.77S64.06,403.27,64.06,403.27Z"/></clipPath><clipPath id="clip-path-2"><path class="cls-1" d="M64.59,390.81s-1.06,7.89-.53,12.45-10.7,5.1-10.7,5.1-2.61-4.59-6-6.31a10.15,10.15,0,0,0,2-2.37,61.77,61.77,0,0,0,2.38-12.79C52.39,383,64.59,390.81,64.59,390.81Z"/></clipPath><clipPath id="clip-path-3"><path class="cls-1" d="M116.86,387.56s-.77,14.49-.25,18.31-.93,5.31-.93,5.31l-15.18-2.44,1.85-4.33a24.32,24.32,0,0,0,1.55-7.05c0-3-.92-14.2-.92-14.2Z"/></clipPath><clipPath id="clip-path-4"><path class="cls-1" d="M116.59,407.89a15.92,15.92,0,0,0-13.67-1.81l-.3-2.1s-4.55,5-4.55,7.89,1.56,8.3,10.71,8.3a10.11,10.11,0,0,0,10.41-8.3l-2.6-6.45Z"/></clipPath><clipPath id="clip-path-5"><path class="cls-2" d="M20,248.69c-.58,2.64-1.55,5.26-3.15,6.47a58.45,58.45,0,0,0-4.39,7.69c-1,2.56-2.79.37-2.34-1s2.39-6.16,2.25-6.43-3.16,1.4-4,3.84-.54,3.41-1.73,3.2a3.45,3.45,0,0,0-.34,3.41c.79,2.07-.79,3.22-.91,3s-1.17-4.33-1.17-4.33-.43,2.89-1.07,3.23a1.07,1.07,0,0,1-1.41-.54,1.12,1.12,0,0,1-.08-.26c-.07-.61-1.19,1.67-1.68-.49s4.74-14.2,9.4-16.67,4.36-10,4.36-10l3-33.21,18.59,6.8a183.67,183.67,0,0,1-9.5,20.39A53.74,53.74,0,0,0,20,248.69Z"/></clipPath><clipPath id="clip-path-6"><path class="cls-1" d="M62.06,65.61a1.46,1.46,0,0,0-.22.76V81.12c1.47,10.49,6,15.42,11.83,14.89l-.2,4.26s-.2,1.87-.42,3.11c-.29,1.64-1.62,2.89-1.43,4.71.31,2.94,5.87,5.84,7.5,6.33a6.52,6.52,0,0,0,3-.14c8-2.23,8.71-13.41,8.71-13.41s-1.31-.75-1.53-5.41S89.23,80,89.23,80s1.76-.63,2.14-4.23-1-4.18-2.37-4.12-2.87,3.2-3.12,5.68c-2.23,1.24-1.47-1.54-1.61-4.76s-3.76-3.12-4.45-5.12a15.93,15.93,0,0,1-.57-5.23,21.36,21.36,0,0,1-14.72-.41Z"/></clipPath><clipPath id="clip-path-7"><path class="cls-1" d="M96.68,164.45s-3.84,5.56-5.57,5.12c0,0-2.89.4-3.46-.87a1.84,1.84,0,0,1-1.24-1.76c.11-1.27,3-3.57,3.63-3.57a3.75,3.75,0,0,1,1.74.36c.35.23,2.31-.5,2.87,0,.2.18.52-.25,1.28-.13A.88.88,0,0,1,96.68,164.45Z"/></clipPath><clipPath id="clip-path-8"><path class="cls-2" d="M302.15,253.83c.36,2.68,1.11,5.37,2.61,6.71a57.31,57.31,0,0,1,3.74,8c.75,2.63,2.75.6,2.42-.8s-1.88-6.32-1.71-6.59,3,1.66,3.63,4.16.27,3.44,1.47,3.33a3.47,3.47,0,0,1,.06,3.43c-1,2,.52,3.27.66,3s1.52-4.22,1.52-4.22.19,2.92.8,3.31a1.07,1.07,0,0,0,1.45-.43,1.86,1.86,0,0,0,.1-.25c.12-.6,1.05,1.76,1.71-.35s-3.55-14.54-8-17.39-3.52-10.27-3.52-10.27l-.27-33.35-19.08,5.26a184,184,0,0,0,7.8,21.1A54,54,0,0,1,302.15,253.83Z"/></clipPath><clipPath id="clip-path-9"><path class="cls-1" d="M253.06,403.27s-1.93,2.64-1.33,11.56h41.16s-.56-4.64-5-5.78-17.88-8.94-19.58-7.77S253.06,403.27,253.06,403.27Z"/></clipPath><clipPath id="clip-path-10"><path class="cls-1" d="M252.53,390.81s1.06,7.89.53,12.45,10.7,5.1,10.7,5.1,2.6-4.59,6-6.31a10,10,0,0,1-2-2.37,62.42,62.42,0,0,1-2.37-12.79C264.73,383,252.53,390.81,252.53,390.81Z"/></clipPath><clipPath id="clip-path-11"><path class="cls-1" d="M200.25,387.56s.78,14.49.26,18.31.93,5.31.93,5.31l15.17-2.44-1.84-4.33a24,24,0,0,1-1.55-7.05c0-3,.91-14.2.91-14.2Z"/></clipPath><clipPath id="clip-path-12"><path class="cls-1" d="M200.52,407.89a15.93,15.93,0,0,1,13.67-1.81l.31-2.1s4.55,5,4.55,7.89-1.57,8.3-10.71,8.3a10.11,10.11,0,0,1-10.41-8.3l2.59-6.45Z"/></clipPath><clipPath id="clip-path-13"><path class="cls-1" d="M271.65,80.18a1.4,1.4,0,0,1,.22.75V95.68c-1.47,10.49-6,15.42-11.83,14.89l.2,4.26s.2,1.88.42,3.12c.29,1.64,1.62,2.88,1.43,4.7-.31,2.95-5.87,5.85-7.5,6.34a6.66,6.66,0,0,1-3-.15c-8-2.22-8.71-13.41-8.71-13.41s1.31-.75,1.53-5.41.08-15.48.08-15.48-1.76-.62-2.14-4.23,1-4.17,2.37-4.11,2.87,3.2,3.12,5.68c2.23,1.23,1.47-1.54,1.61-4.77S253.2,84,253.89,82a15.9,15.9,0,0,0,.57-5.23,21.3,21.3,0,0,0,14.72-.41Z"/></clipPath><clipPath id="clip-path-14"><path class="cls-1" d="M178.81,13.8S188,17.91,189.87,16c0,0,4-1.73,3.73-3.8A2.71,2.71,0,0,0,193.82,9c-1.13-1.54-6.61-2.22-7.39-1.75a5.64,5.64,0,0,0-1.93,1.8c-.27.57-3.33,1.16-3.66,2.23-.11.39-.85.09-1.72.83A1.32,1.32,0,0,0,178.81,13.8Z"/></clipPath><clipPath id="clip-path-15"><path class="cls-1" d="M890.05,106.81s-7.58.5-8.39-1.32c0,0-2.37-2.26-1.65-3.66a2.07,2.07,0,0,1,.68-2.31c1.2-.79,5.25.16,5.67.7a4.12,4.12,0,0,1,.9,1.78c0,.47,2,1.68,2,2.52,0,.31.58.29,1,1A1,1,0,0,1,890.05,106.81Z"/></clipPath><clipPath id="clip-path-16"><path class="cls-1" d="M712.53,362.14l-12.77-12.77-22.27,22.27L689,383.18s7.74,5.62,8.51,4.93l-5.23-11.27a2.86,2.86,0,0,1,1.16-3.67Z"/></clipPath><clipPath id="clip-path-17"><path class="cls-1" d="M799.15,388.14h-18v31.38H797.4s9.43-1.49,9.48-2.52l-11.63-4.25a2.85,2.85,0,0,1-1.77-3.41Z"/></clipPath><clipPath id="clip-path-18"><path class="cls-1" d="M780.7,86a18.48,18.48,0,0,1-.93-8.28c6-2,4.18-7.89,1.88-8s-3.11,3.32-3.11,3.32c-1-6-5.38.33-11-8.16s-12.46-2.05-13,.75-2.8,31.28,14.12,29.22a32.41,32.41,0,0,1,1.17,8.59,42.69,42.69,0,0,1-.14,4.8c-1.26,5.25-6.34,18.43,3.17,21.44s20.62-13.37,16.7-22.11S782.27,90.49,780.7,86Z"/></clipPath><clipPath id="clip-path-19"><path class="cls-1" d="M418.64,108.67a18.43,18.43,0,0,0-.39-8.32c-6.27-1-5.39-7.12-3.14-7.59s3.6,2.79,3.6,2.79c0-6,5.37-.54,9.53-9.81s12-4,12.92-1.33,7.75,30.43-9.28,31.1a32.28,32.28,0,0,0,.21,8.67,42.7,42.7,0,0,0,.91,4.72c2.08,5,9.19,17.17.29,21.66s-22.49-9.91-20-19.16S417.81,113.34,418.64,108.67Z"/></clipPath><clipPath id="clip-path-20"><path class="cls-1" d="M416.72,382.42h18v31.39H418.46s-9.42-1.49-9.48-2.52L420.61,407a2.85,2.85,0,0,0,1.77-3.42Z"/></clipPath><clipPath id="clip-path-21"><path class="cls-1" d="M486.52,353s4.79,6.32,4.79,8.35-1.16,3.17,6.65,8.89,19,15.71,21.41,9.83S506.09,367,499.59,356.15s-9.92-13.89-9.92-13.89Z"/></clipPath><clipPath id="clip-path-22"><path class="cls-1" d="M405.73,315.1s-5.07,20.48,14.91,21.52,35-24.55,41.13-14.4,12.08,26.62,22.72,32.44l11.23-7.07s-18.47-48.94-28.61-50.17c-4.67-.56-23.34-.33-41.1,5.52C418.07,305.55,405.73,315.1,405.73,315.1Z"/></clipPath><clipPath id="clip-path-23"><path class="cls-1" d="M335.27,144.84s8.37-1.72,8.71-4c0,0,1.89-3.16.69-4.46a2.32,2.32,0,0,0-1.43-2.3c-1.54-.5-5.65,1.75-5.95,2.46a4.77,4.77,0,0,0-.44,2.2c.1.52-1.72,2.44-1.42,3.34.12.33-.54.48-.77,1.42A1.1,1.1,0,0,0,335.27,144.84Z"/></clipPath><clipPath id="clip-path-24"><path class="cls-2" d="M632.5,237.11c.26,2.68.9,5.4,2.34,6.8a57.68,57.68,0,0,1,3.42,8.16c.64,2.66,2.73.71,2.44-.7s-1.62-6.4-1.44-6.65,3,1.77,3.47,4.29.12,3.46,1.33,3.39a3.47,3.47,0,0,1-.08,3.43c-1,2,.39,3.29.54,3.06s1.69-4.15,1.69-4.15.07,2.92.67,3.34a1.06,1.06,0,0,0,1.46-.37,1.12,1.12,0,0,0,.11-.25c.15-.59,1,1.8,1.73-.27s-3-14.68-7.31-17.7-3.11-10.4-3.11-10.4l1.07-33.34-19.28,4.49a182,182,0,0,0,7,21.4A53.55,53.55,0,0,1,632.5,237.11Z"/></clipPath><clipPath id="clip-path-25"><path class="cls-1" d="M573.09,386.92h18.5v32.21H574.88s-9.66-1.53-9.72-2.59L577,412.19a3,3,0,0,0,1.86-3.57Z"/></clipPath><clipPath id="clip-path-26"><path class="cls-1" d="M637.12,390.05l7.93-7.88,8.56,21.53a15,15,0,0,0,4.16,5.82l8.44,7.21s-5.64,2.49-10.2,1.31-14-8.31-14-8.31Z"/></clipPath><clipPath id="clip-path-27"><path class="cls-1" d="M579.7,248.92s-10.71,7.86-12.89,11.69c-4.85,8.51-2.14,18.11-.71,33.15,3.11,32.7,7.29,100.73,7.29,100.73h19.69s8.49-75.82,10-102.55c0,0,1.62,33.37,32.7,102.75l21.14.1L628.67,260.61l-41-23Z"/></clipPath><clipPath id="clip-path-28"><path class="cls-1" d="M608,79.81s11.63,28.68-5.82,31.17c0,0-9.21,4.5-8.34,5.18a105.2,105.2,0,0,0,10.56,3.34s-5.41,12.8-19.83,12S567,118.8,567,118.8s3.12-.43,4.57-.59c3.86-.44,6.41-.79,6.42-2.1A37.64,37.64,0,0,0,576.54,102a99.69,99.69,0,0,0-6.31-12s7.48-9.13,13.41-15,16.81-1.89,16.81-1.89A27.79,27.79,0,0,1,606.38,76,6.71,6.71,0,0,1,608,79.81Z"/></clipPath><clipPath id="clip-path-29"><path class="cls-1" d="M575.79,187.71c3.51,7,21.7,3.61,29.31.27,0,0,8.69-.57,9.51-2.17s0-2.05,0-2.05,1.12-1.16.85-2.08c0,0,1-1.72.57-2.29,0,0,1.13-2.17-2.24-3.39,0,0,0,1.55-.89,1.83s-4.52-.08-4.29-.9,3-2.24,2.42-3.88-2.06,1.4-4.15,2.11-4.06,2-5.07,5.57c0,0-1,3.7-9.7,1.73-4.63-1-8.76-2.63-12-2.51C572.73,179.78,574.14,184.41,575.79,187.71Z"/></clipPath></defs><g id="Layer_2" data-name="Layer 2"><g id="_2" data-name="2"><polygon class="cls-3" points="35.96 48.08 79.22 31.4 117.86 51.53 77.86 70.09 35.96 48.08"/><g id="foot-6"><g id="right_foot-2" data-name="right foot-2"><g id="Path_250-7" data-name="Path 250-7"><path id="Mask-255" class="cls-4" d="M64.06,403.27s1.93,2.64,1.32,11.56H24.22s.56-4.64,5-5.78,17.89-8.94,19.59-7.77S64.06,403.27,64.06,403.27Z"/><g class="cls-5"><g id="Path_250-8" data-name="Path 250-8"><path id="Path_250-9" data-name="Path 250-9" class="cls-6" d="M67,413.58H20.33L21.92,417H68.6Z"/></g></g></g><g id="Path_258-7" data-name="Path 258-7"><path id="Mask-256" class="cls-2" d="M64.59,390.81s-1.06,7.89-.53,12.45-10.7,5.1-10.7,5.1-2.61-4.59-6-6.31a10.15,10.15,0,0,0,2-2.37,61.77,61.77,0,0,0,2.38-12.79C52.39,383,64.59,390.81,64.59,390.81Z"/><g class="cls-7"><g id="Path_258-8" data-name="Path 258-8"><path id="Path_258-9" data-name="Path 258-9" class="cls-8" d="M50.62,392.12l14.46,6.48,1-8.43Z"/></g></g></g></g><g id="left_foot-3" data-name="left foot-3"><g id="Path_259-7" data-name="Path 259-7"><path id="Mask-257" class="cls-2" d="M116.86,387.56s-.77,14.49-.25,18.31-.93,5.31-.93,5.31l-15.18-2.44,1.85-4.33a24.32,24.32,0,0,0,1.55-7.05c0-3-.92-14.2-.92-14.2Z"/><g class="cls-9"><g id="Path_259-8" data-name="Path 259-8"><path id="Path_259-9" data-name="Path 259-9" class="cls-8" d="M102.17,394.21,124,405l-5.58-14.85Z"/></g></g></g><g id="Path_251-7" data-name="Path 251-7"><path id="Mask-258" class="cls-4" d="M116.59,407.89a15.92,15.92,0,0,0-13.67-1.81l-.3-2.1s-4.55,5-4.55,7.89,1.56,8.3,10.71,8.3a10.11,10.11,0,0,0,10.41-8.3l-2.6-6.45Z"/><g class="cls-10"><g id="Path_251-8" data-name="Path 251-8"><path id="Path_251-9" data-name="Path 251-9" class="cls-6" d="M119.19,409.4s-2,8.43-8.91,9-11.64-2-12.66-9.87-3.3,7.12-3.3,7.12L106.75,432l16.83-11.81Z"/></g></g></g></g></g><g id="right_hand-8" data-name="right hand-8"><g id="Path_357" data-name="Path 357"><path class="cls-2" d="M20,248.69c-.58,2.64-1.55,5.26-3.15,6.47a58.45,58.45,0,0,0-4.39,7.69c-1,2.56-2.79.37-2.34-1s2.39-6.16,2.25-6.43-3.16,1.4-4,3.84-.54,3.41-1.73,3.2a3.45,3.45,0,0,0-.34,3.41c.79,2.07-.79,3.22-.91,3s-1.17-4.33-1.17-4.33-.43,2.89-1.07,3.23a1.07,1.07,0,0,1-1.41-.54,1.12,1.12,0,0,1-.08-.26c-.07-.61-1.19,1.67-1.68-.49s4.74-14.2,9.4-16.67,4.36-10,4.36-10l3-33.21,18.59,6.8a183.67,183.67,0,0,1-9.5,20.39A53.74,53.74,0,0,0,20,248.69Z"/><g class="cls-11"><g id="Path_357-2" data-name="Path 357-2"><path id="Path_377" data-name="Path 377" class="cls-8" d="M30.7,216.61l13.87,19.94-3.72,6L29.22,222.52Z"/><path id="Path_357-3" data-name="Path 357-3" class="cls-8" d="M11.33,248.24s3.36-1.62,4.92-9.8,2.6-32.47,17.19-33.36-8.18-4.93-8.18-4.93L6.13,222.82Z"/></g></g></g><path id="Path_360" data-name="Path 360" class="cls-12" d="M16.53,250c-1.92,3.73-3.43,2.88-6.59,5.1s-1.89,5.34-2.25,6.54-.8.88-.8.88-2.23-2,.17-8.65"/><path id="Path_361" data-name="Path 361" class="cls-12" d="M1.6,266.87l4.34-9.14"/><path id="Path_362" data-name="Path 362" class="cls-12" d="M4.23,265.16s.41-1.53.71-2.3A19.38,19.38,0,0,1,5.88,261"/></g><g id="head-10"><path id="Path_40-6" data-name="Path 40-6" class="cls-13" d="M62.46,79.38s-1.49-5.1-2.15-7.86A24.81,24.81,0,0,1,60.4,64c-3.47-1.64-2.07-5.06-1-8.79,3-9.48,9.92-9.43,26.55-2.64a5.26,5.26,0,0,1,3.51,5.92c3,.5,6,.78,6.9,3.68,1.77,5.06-2.07,17.57-4,21.25a43.52,43.52,0,0,1-4.9,7.15Z"/><g id="Path_60-16" data-name="Path 60-16"><path id="Mask-261" class="cls-2" d="M62.06,65.61a1.46,1.46,0,0,0-.22.76V81.12c1.47,10.49,6,15.42,11.83,14.89l-.2,4.26s-.2,1.87-.42,3.11c-.29,1.64-1.62,2.89-1.43,4.71.31,2.94,5.87,5.84,7.5,6.33a6.52,6.52,0,0,0,3-.14c8-2.23,8.71-13.41,8.71-13.41s-1.31-.75-1.53-5.41S89.23,80,89.23,80s1.76-.63,2.14-4.23-1-4.18-2.37-4.12-2.87,3.2-3.12,5.68c-2.23,1.24-1.47-1.54-1.61-4.76s-3.76-3.12-4.45-5.12a15.93,15.93,0,0,1-.57-5.23,21.36,21.36,0,0,1-14.72-.41Z"/><g class="cls-14"><g id="Path_60-17" data-name="Path 60-17"><path id="Path_60-18" data-name="Path 60-18" class="cls-8" d="M72.79,96.12S81.44,95,83.61,88.63c0,0-2.42,11.53-9.58,13.88S72.79,96.12,72.79,96.12Z"/></g></g></g><path id="Path_24-7" data-name="Path 24-7" class="cls-15" d="M74.82,71A5.14,5.14,0,0,0,70,71"/><path id="Path_25-6" data-name="Path 25-6" class="cls-16" d="M64.88,71.73a4.4,4.4,0,0,0-3.49-.79"/><circle id="Oval-16" class="cls-17" cx="71.36" cy="75.13" r="0.69"/><path id="Path_31-8" data-name="Path 31-8" class="cls-18" d="M70.63,75.27a2.28,2.28,0,0,1,2.73.09"/><circle id="Oval_Copy_2-6" data-name="Oval Copy 2-6" class="cls-17" cx="63.05" cy="75.13" r="0.69"/><path id="Path_31_Copy-6" data-name="Path 31 Copy-6" class="cls-19" d="M62.15,75.25a2.3,2.3,0,0,1,2.73.13"/><path id="Path_46-6" data-name="Path 46-6" class="cls-20" d="M67.5,73.74a12.91,12.91,0,0,1-.83,4.56c-1.93,3.77-3.33,8.56,4,5.65"/><path id="Path_32-7" data-name="Path 32-7" class="cls-21" d="M68.11,89.69c1.91.18,3.94-2.76,3.94-2.76a17.2,17.2,0,0,1-3.94,1,7.91,7.91,0,0,1-3-1S66.2,89.51,68.11,89.69Z"/><ellipse id="Oval-17" class="cls-20" cx="61.66" cy="75.82" rx="4.16" ry="4.16"/><ellipse id="Oval_Copy_3-7" data-name="Oval Copy 3-7" class="cls-20" cx="72.05" cy="75.82" rx="4.16" ry="4.16"/><path id="Path_63-6" data-name="Path 63-6" class="cls-20" d="M76.21,74.44,86.6,73.05"/><path id="Path_64-6" data-name="Path 64-6" class="cls-20" d="M65.82,74.68l2.77.2"/></g><path class="cls-22" d="M42.09,69.43l.64-.78c-8.36-6.76-6.31-17.5-5.71-20a.81.81,0,0,0-.3-.84h0a.44.44,0,0,0-.7.26C35.35,51,33.38,62.38,42.09,69.43Z"/><polygon class="cls-23" points="42.73 68.65 43.99 69.17 42.87 70.51 42.09 69.43 42.73 68.65"/><path class="cls-22" d="M44,69.17s1.55,1.21,2.12.88c0,0-.57,1.49-1.35,1.62a5.27,5.27,0,0,1-1.89-1.16Z"/><polygon class="cls-24" points="66.3 371.67 63.41 383.84 59.57 392.72 47.57 392.72 46.86 384.52 46.3 372.59 66.3 371.67"/><polygon class="cls-25" points="68.84 106.97 81.11 109.72 93.52 106.73 96.68 125.77 82.76 173.15 67.54 116.37 68.84 106.97"/><polygon class="cls-26" points="68.24 110.86 77.99 118.14 81.18 112.91 84.14 118.14 94.52 109.1 92.47 106.73 81.11 109.72 68.84 109.17 68.24 110.86"/><path class="cls-27" d="M119.29,214.19,90.1,216c-.17-.27-.36-.27-.57,0l-8.59.53L44.33,214.3s-3.08,42.41.53,98.42c1.16,17.86,3.17,61.94.07,81.84l25.1.27c3.25-21.17,7-66.71,9-75.78q1.38-6.18,2.57-12.24a76.92,76.92,0,0,1,1.18,10.66c0,3.72,5.11,8.75,6.61,15.89,2.11,10.06,6.9,47.53,6.14,62.14h26.33c-1.9-17-3-65.66-2.7-82.78C120,267,119.29,214.19,119.29,214.19Z"/><path class="cls-28" d="M139.45,361.85c-13.42,7-104.84,15.37-121.22-4-.76-.89,1.53-19.34,5.26-45.82,10.12-71.72,30.9-202.35,30.9-202.35s2.51-.72,6.75-1.52c2.16-.4,4.76-.83,7.71-1.19,0,.92,6.35,40.69,14.93,56.19,0,0,9.74-21.4,9.8-56a3.8,3.8,0,0,0-.06-.5q2.76.29,5.58.77c.79.13,1.58.29,2.37.45a75.18,75.18,0,0,1,9.06,2.38s2.9,22.88,6.87,54.84C126.56,238.87,141.4,360.82,139.45,361.85Z"/><path class="cls-28" d="M65,107.47S51,214.91,45.64,223c-2.25,3.37-5.53,3.92-9.4,3.16-.74-.14-1.5-.33-2.28-.56l-10.72-4.11h0c-1.74-.7-3.49-1.36-5.24-1.9-11-3.41-10.17-12.69-7.2-25.34s22.4-73.54,29-77.84C51.29,108.79,65,107.47,65,107.47Z"/><path class="cls-29" d="M85.48,173.15C71.35,162.74,61.14,108.2,61.14,108.2c2.16-.41,4.76-.83,7.71-1.19,0,.92,6,38.5,14.58,54,0,0,10.09-19.22,10.15-53.78a4.18,4.18,0,0,0-.06-.51c1.84.2,3.71.46,5.58.78.79.14,1.58.28,2.38.45C101.5,137.07,85.48,173.15,85.48,173.15Z"/><path class="cls-28" d="M58.05,55.2l.16,6.28S73,52.34,96.37,62V53a6.28,6.28,0,0,0-2.86-4.31c-4.35-2.71-14.59-7.82-31.3-.46C59.85,49.23,58.29,52.65,58.05,55.2Z"/><polygon class="cls-25" points="69.92 101.2 64.99 107.47 78.03 116.37 81.11 109.72 69.92 101.2"/><polygon class="cls-25" points="92.51 101.2 81.11 109.72 84.38 116.37 95.6 106.98 92.51 101.2"/><path class="cls-26" d="M80.75,124.42a.9.9,0,0,1,1.27,0,.91.91,0,0,1,0,1.28.9.9,0,1,1-1.27-1.28Z"/><circle class="cls-26" cx="81.38" cy="134.74" r="0.9"/><path class="cls-26" d="M80.75,144.06a.9.9,0,0,1,1.27,0,.91.91,0,0,1,0,1.28.9.9,0,0,1-1.27-1.28Z"/><path class="cls-28" d="M110.53,110.34A28.3,28.3,0,0,1,124,124.75c4.7,10.77,24.2,40.16,23.63,53.93s-3.21,26.29-16.32,26.71c-9,.3-18.15-8.51-18.15-21.67S110.53,110.34,110.53,110.34Z"/><path class="cls-3" d="M139.45,361.85c-13.42,7-104.84,15.37-121.22-4-.76-.89,1.53-19.34,5.26-45.82l.73-.33s23-38.9,54.63-54S117,214.45,117.4,209.85s-3.06-42.95,0-44.67C126.56,238.87,141.4,360.82,139.45,361.85Z"/><path class="cls-3" d="M138.44,197.68c-.36,3.71-1.75,6.71-5.07,7.54-10.51,2.62-15.16-7.52-12.94-17.45a9.63,9.63,0,0,1,.25-1c2.24-7.26,10.31-8.37,13.29-8.53.7,0,1.12,0,1.12,0l.17.47C136,181,139.11,190.61,138.44,197.68Z"/><path class="cls-2" d="M138.44,197.68s-32.66-14.62-44.79-30.45c-.89-1.17,3-2.78,3-2.78l2.76,2.21L134,178.28l1.29.44C136,181,139.11,190.61,138.44,197.68Z"/><rect class="cls-30" x="61.92" y="166.21" width="40.48" height="53.34"/><polygon class="cls-31" points="78.55 203.81 74 211.41 76.88 211 78.11 213.29 81.98 206.3 78.55 203.81"/><polygon class="cls-31" points="84.58 203.34 89.14 210.94 86.26 210.53 85.02 212.82 81.16 205.83 84.58 203.34"/><path class="cls-32" d="M77,202.13c.51-3.33,2.29-4.63,5-5,3.61-.55,5,2.26,5,5a5,5,0,0,1-5,5.05C79.21,207.18,76.53,204.89,77,202.13Z"/><path class="cls-31" d="M82,206.16a4.41,4.41,0,0,1-3.25-1.48,3.21,3.21,0,0,1-.78-2.59h0a4.24,4.24,0,0,1,4-4,3.29,3.29,0,0,1,2.77.66,4.41,4.41,0,0,1,1.3,3.36A4,4,0,0,1,82,206.16Zm.66-7.65a4.7,4.7,0,0,0-.63.05,3.79,3.79,0,0,0-3.6,3.6h0a2.72,2.72,0,0,0,.68,2.21A3.91,3.91,0,0,0,82,205.69a3.57,3.57,0,0,0,3.56-3.57,3.93,3.93,0,0,0-1.14-3A2.58,2.58,0,0,0,82.66,198.51Z"/><path class="cls-33" d="M87.79,172.63H76.53a.34.34,0,0,1-.34-.34h0a.34.34,0,0,1,.34-.34H87.79a.34.34,0,0,1,.34.34h0A.34.34,0,0,1,87.79,172.63Z"/><path class="cls-33" d="M90,174.05H74.34a.34.34,0,0,1-.34-.34h0a.34.34,0,0,1,.34-.34H90a.35.35,0,0,1,.34.34h0A.34.34,0,0,1,90,174.05Z"/><path class="cls-33" d="M93.69,185.83H70.63a.39.39,0,0,1-.39-.39h0a.39.39,0,0,1,.39-.39H93.69a.39.39,0,0,1,.39.39h0A.39.39,0,0,1,93.69,185.83Z"/><path class="cls-33" d="M93.69,187.77H70.63a.39.39,0,0,1-.39-.39h0a.39.39,0,0,1,.39-.39H93.69a.39.39,0,0,1,.39.39h0A.39.39,0,0,1,93.69,187.77Z"/><path class="cls-33" d="M93.69,189.46H70.63a.38.38,0,0,1-.39-.39h0a.38.38,0,0,1,.39-.38H93.69a.38.38,0,0,1,.39.38h0A.38.38,0,0,1,93.69,189.46Z"/><path class="cls-33" d="M93.69,191.32H70.63a.39.39,0,0,1-.39-.39h0a.39.39,0,0,1,.39-.39H93.69a.39.39,0,0,1,.39.39h0A.39.39,0,0,1,93.69,191.32Z"/><path class="cls-33" d="M95.63,202.32a14.54,14.54,0,0,1-2.32,1.57,1.9,1.9,0,0,0,.12-.64c0-.28-.24-.4-.46-.52l-.16-.09a.28.28,0,0,0,.08-.32.24.24,0,0,0-.45,0l0,.11a.27.27,0,0,1-.08-.07c.13-.25.26-.51.37-.77a.13.13,0,0,0,0-.16.46.46,0,0,0-.62.08.87.87,0,0,0,0,.8l0,.05c-.18.31-.36.61-.56.91l-.06-.06a1.6,1.6,0,0,1-.16-.19,2.74,2.74,0,0,0,.18-.75.15.15,0,0,0-.21-.14.62.62,0,0,0-.38.66.78.78,0,0,0,.09.27,2.08,2.08,0,0,1-.22.38.14.14,0,0,0,0,.2,1.8,1.8,0,0,1-.41.8c-.16.18-.47.31-.67.1a.79.79,0,0,1-.16-.52,7.84,7.84,0,0,1-.06-1.28,1.71,1.71,0,0,1,.09-.6c0-.12.11-.3.16-.1a1.08,1.08,0,0,1,0,.36.15.15,0,0,0,.29,0c0-.21.11-.66-.13-.79s-.38.05-.48.21a3.82,3.82,0,0,0-.15,2.07c0,.52.24,1.16.9,1s.85-.95,1-1.49a.14.14,0,0,0,0-.09h0l.08.08.1.1-.2.27a.15.15,0,0,0,0,.17.33.33,0,0,0,.58-.24.59.59,0,0,0,0-.2c.19-.28.38-.57.55-.87a.42.42,0,0,0,.34.13h0a1.06,1.06,0,0,0,.24.19,1.19,1.19,0,0,1,.25.13c.13.11.09.24.06.39a6.06,6.06,0,0,1-.16.61,1.29,1.29,0,0,0-.66.7.71.71,0,0,0,.24.8.14.14,0,0,0,.22-.07c.16-.39.3-.79.43-1.2v0c.25-.14.52-.27.76-.42a14.43,14.43,0,0,0,1.88-1.32C96,202.42,95.78,202.21,95.63,202.32ZM92.19,202c0-.12.06-.33.19-.32l-.18.38S92.19,202,92.19,202Zm.36,3.27c-.12-.23.06-.5.25-.68C92.72,204.77,92.64,205,92.55,205.22Z"/><path class="cls-33" d="M100.81,218h-37v-50h37Zm-36.59-.43h36.16V168.48H64.22Z"/><path class="cls-3" d="M45.64,150.77l-9.4,75.36c-.74-.14-1.5-.33-2.28-.56l-10.72-4.11h0S26.5,218,31,206.16,45.64,150.77,45.64,150.77Z"/><g id="right_hand-4" data-name="right hand-4"><path id="Mask-227" class="cls-2" d="M96.68,164.45s-3.84,5.56-5.57,5.12c0,0-2.89.4-3.46-.87a1.84,1.84,0,0,1-1.24-1.76c.11-1.27,3-3.57,3.63-3.57a3.75,3.75,0,0,1,1.74.36c.35.23,2.31-.5,2.87,0,.2.18.52-.25,1.28-.13A.88.88,0,0,1,96.68,164.45Z"/><g class="cls-34"><g id="right_hand-5" data-name="right hand-5"><path id="Path_523" data-name="Path 523" class="cls-35" d="M90.63,169.67l4-5.94"/><path id="Path_524" data-name="Path 524" class="cls-35" d="M88.48,169.67l4.17-6.28"/><path id="Path_525" data-name="Path 525" class="cls-35" d="M87,168.29l3.61-5.45"/></g></g></g><polyline class="cls-36" points="48.89 388.14 70.76 388.14 77.45 336.19"/><line class="cls-36" x1="97.86" y1="388.14" x2="121.24" y2="388.14"/><g id="right_hand-8-2" data-name="right hand-8"><g id="Path_357-2-2" data-name="Path 357"><path class="cls-2" d="M302.15,253.83c.36,2.68,1.11,5.37,2.61,6.71a57.31,57.31,0,0,1,3.74,8c.75,2.63,2.75.6,2.42-.8s-1.88-6.32-1.71-6.59,3,1.66,3.63,4.16.27,3.44,1.47,3.33a3.47,3.47,0,0,1,.06,3.43c-1,2,.52,3.27.66,3s1.52-4.22,1.52-4.22.19,2.92.8,3.31a1.07,1.07,0,0,0,1.45-.43,1.86,1.86,0,0,0,.1-.25c.12-.6,1.05,1.76,1.71-.35s-3.55-14.54-8-17.39-3.52-10.27-3.52-10.27l-.27-33.35-19.08,5.26a184,184,0,0,0,7.8,21.1A54,54,0,0,1,302.15,253.83Z"/><g class="cls-37"><g id="Path_357-2-3" data-name="Path 357-2"><path id="Path_377-2" data-name="Path 377" class="cls-8" d="M294.14,221l-15.46,18.73,3.21,6.31,13.25-19Z"/><path id="Path_357-3-2" data-name="Path 357-3" class="cls-8" d="M310.85,254.1s-3.22-1.89-4.1-10.17.08-32.58-14.39-34.67,8.55-4.24,8.55-4.24l17.21,24.17Z"/></g></g></g><path id="Path_360-2" data-name="Path 360" class="cls-12" d="M305.53,255.43c1.59,3.88,3.18,3.15,6.14,5.63s1.45,5.47,1.7,6.7.73.94.73.94,2.39-1.8.54-8.63"/><path id="Path_361-2" data-name="Path 361" class="cls-12" d="M319,273.46,315.44,264"/><path id="Path_362-2" data-name="Path 362" class="cls-12" d="M316.54,271.54s-.29-1.56-.53-2.35a18,18,0,0,0-.78-1.95"/></g><g id="foot-6-2" data-name="foot-6"><g id="right_foot-2-2" data-name="right foot-2"><g id="Path_250-7-2" data-name="Path 250-7"><path id="Mask-255-2" data-name="Mask-255" class="cls-4" d="M253.06,403.27s-1.93,2.64-1.33,11.56h41.16s-.56-4.64-5-5.78-17.88-8.94-19.58-7.77S253.06,403.27,253.06,403.27Z"/><g class="cls-38"><g id="Path_250-8-2" data-name="Path 250-8"><path id="Path_250-9-2" data-name="Path 250-9" class="cls-6" d="M250.13,413.58h46.66L295.2,417H248.52Z"/></g></g></g><g id="Path_258-7-2" data-name="Path 258-7"><path id="Mask-256-2" data-name="Mask-256" class="cls-2" d="M252.53,390.81s1.06,7.89.53,12.45,10.7,5.1,10.7,5.1,2.6-4.59,6-6.31a10,10,0,0,1-2-2.37,62.42,62.42,0,0,1-2.37-12.79C264.73,383,252.53,390.81,252.53,390.81Z"/><g class="cls-39"><g id="Path_258-8-2" data-name="Path 258-8"><path id="Path_258-9-2" data-name="Path 258-9" class="cls-8" d="M266.5,392.12,252,398.6l-1-8.43Z"/></g></g></g></g><g id="left_foot-3-2" data-name="left foot-3"><g id="Path_259-7-2" data-name="Path 259-7"><path id="Mask-257-2" data-name="Mask-257" class="cls-2" d="M200.25,387.56s.78,14.49.26,18.31.93,5.31.93,5.31l15.17-2.44-1.84-4.33a24,24,0,0,1-1.55-7.05c0-3,.91-14.2.91-14.2Z"/><g class="cls-40"><g id="Path_259-8-2" data-name="Path 259-8"><path id="Path_259-9-2" data-name="Path 259-9" class="cls-8" d="M214.94,394.21,193.09,405l5.57-14.85Z"/></g></g></g><g id="Path_251-7-2" data-name="Path 251-7"><path id="Mask-258-2" data-name="Mask-258" class="cls-4" d="M200.52,407.89a15.93,15.93,0,0,1,13.67-1.81l.31-2.1s4.55,5,4.55,7.89-1.57,8.3-10.71,8.3a10.11,10.11,0,0,1-10.41-8.3l2.59-6.45Z"/><g class="cls-41"><g id="Path_251-8-2" data-name="Path 251-8"><path id="Path_251-9-2" data-name="Path 251-9" class="cls-6" d="M197.93,409.4s2,8.43,8.9,9,11.65-2,12.66-9.87,3.31,7.12,3.31,7.12L210.36,432l-16.82-11.81Z"/></g></g></g></g></g><polygon class="cls-24" points="250.81 371.67 253.71 383.84 257.55 392.72 269.55 392.72 270.26 384.52 270.81 372.59 250.81 371.67"/><path class="cls-27" d="M197.82,214.19,227,216c.17-.27.36-.27.56,0l8.59.53,36.61-2.28s3.09,42.41-.53,98.42c-1.15,17.86-3.16,61.94-.06,81.84l-25.1.27c-3.25-21.17-7-66.71-9-75.78q-1.38-6.18-2.56-12.24a77.28,77.28,0,0,0-1.19,10.66c0,3.72-5.1,8.75-6.61,15.89-2.11,10.06-6.9,47.53-6.13,62.14H195.23c1.9-17,3-65.66,2.7-82.78C197.13,267,197.82,214.19,197.82,214.19Z"/><polyline class="cls-36" points="268.23 388.14 246.36 388.14 240.57 336.44"/><line class="cls-36" x1="219.26" y1="388.14" x2="195.88" y2="388.14"/><polygon class="cls-3" points="297.57 62.33 254.31 45.65 215.68 65.78 255.67 84.34 297.57 62.33"/><g id="head-10-2" data-name="head-10"><path id="Path_40-6-2" data-name="Path 40-6" class="cls-17" d="M271.25,94s1.49-5.11,2.15-7.87a24.75,24.75,0,0,0-.09-7.49c3.47-1.65,2.07-5.06,1-8.8-3-9.47-9.92-9.43-26.55-2.63a5.23,5.23,0,0,0-3.5,5.91c-3,.5-6,.79-6.91,3.68-1.77,5.07,2.07,17.58,4,21.25a43.1,43.1,0,0,0,4.9,7.15Z"/><g id="Path_60-16-2" data-name="Path 60-16"><path id="Mask-261-2" data-name="Mask-261" class="cls-2" d="M271.65,80.18a1.4,1.4,0,0,1,.22.75V95.68c-1.47,10.49-6,15.42-11.83,14.89l.2,4.26s.2,1.88.42,3.12c.29,1.64,1.62,2.88,1.43,4.7-.31,2.95-5.87,5.85-7.5,6.34a6.66,6.66,0,0,1-3-.15c-8-2.22-8.71-13.41-8.71-13.41s1.31-.75,1.53-5.41.08-15.48.08-15.48-1.76-.62-2.14-4.23,1-4.17,2.37-4.11,2.87,3.2,3.12,5.68c2.23,1.23,1.47-1.54,1.61-4.77S253.2,84,253.89,82a15.9,15.9,0,0,0,.57-5.23,21.3,21.3,0,0,0,14.72-.41Z"/><g class="cls-42"><g id="Path_60-17-2" data-name="Path 60-17"><path id="Path_60-18-2" data-name="Path 60-18" class="cls-8" d="M260.92,110.69s-8.65-1.14-10.82-7.5c0,0,2.42,11.54,9.59,13.89S260.92,110.69,260.92,110.69Z"/></g></g></g><path id="Path_24-7-2" data-name="Path 24-7" class="cls-15" d="M258.89,85.53a5.2,5.2,0,0,1,4.85,0"/><path id="Path_25-6-2" data-name="Path 25-6" class="cls-16" d="M268.83,86.29a4.39,4.39,0,0,1,3.49-.78"/><circle id="Oval-16-2" data-name="Oval-16" class="cls-17" cx="262.35" cy="89.69" r="0.69"/><path id="Path_31-8-2" data-name="Path 31-8" class="cls-18" d="M263.09,89.84a2.3,2.3,0,0,0-2.74.08"/><circle id="Oval_Copy_2-6-2" data-name="Oval Copy 2-6" class="cls-17" cx="270.67" cy="89.69" r="0.69"/><path id="Path_31_Copy-6-2" data-name="Path 31 Copy-6" class="cls-19" d="M271.56,89.82a2.27,2.27,0,0,0-2.73.13"/><path id="Path_46-6-2" data-name="Path 46-6" class="cls-20" d="M266.21,88.31a12.86,12.86,0,0,0,.83,4.55c1.93,3.78,3.33,8.56-4,5.66"/><path id="Path_32-7-2" data-name="Path 32-7" class="cls-21" d="M265.6,104.26c-1.91.18-3.94-2.77-3.94-2.77a17.22,17.22,0,0,0,3.94,1,7.75,7.75,0,0,0,3-1S267.51,104.08,265.6,104.26Z"/></g><path class="cls-25" d="M250.26,122.78,237,117s-6.88,54.68,2.3,58.07c0,0,26.19-46.52,24.41-52.49Z"/><path class="cls-26" d="M241.85,113.55s-3.75.65-5.71,2.52c0,0,2.85,9.27,10.42,12l3.25-5.32S243.63,119.86,241.85,113.55Z"/><path class="cls-26" d="M249.81,122.78s12.39-.47,14.24-6.44a10.07,10.07,0,0,1,2.38,6.77s-3.92,5.92-13.72,6Z"/><path class="cls-28" d="M310.05,248.24l-4.51,1.87c-7.21,2.57-15-.89-17.35-8.18-3.17-9.81-3.5-20.38-4.68-29.09-.58-4.27-1.25-13.09-3.84-20l.52,17.49,4,134.62c-67.89,4.81-101-34.22-101-34.22a280.25,280.25,0,0,1,1.16-33.25c3.78-45.62,14.85-107.75,19.54-132.88-2.89-6.53-23.43-25.29-26.87-43.7-1.59-8.55,3.4-14.6,9.47-18.68a55.73,55.73,0,0,1,17-7.18l21.95,29.34a13.48,13.48,0,0,1,1.84,2.4c1.69,3.45,10.48,9.18,10.48,9.18,0,.17.94,49.44,2.73,51,2.59-1,19.91-35.64,23.73-47.2a129.54,129.54,0,0,1,17.73,6.34s11.89,6.34,13.57,34c1.43,23.44,15.76,53.36,19,80.55A7.24,7.24,0,0,1,310.05,248.24Z"/><path class="cls-29" d="M235.25,114.28s1.6,47.78,3.65,59.74l30.47-52.65-4.2-1.56-24.08,43.63L238.71,116Z"/><path class="cls-25" d="M241.85,112.43s-3.75.64-5.71,2.51c0,0,2.85,9.27,10.42,12l3.25-4.19S243.63,118.73,241.85,112.43Z"/><path class="cls-25" d="M249.81,122.78s12.39-1.6,14.24-7.57a10.07,10.07,0,0,1,2.38,6.77s-3.92,5.92-13.72,6Z"/><circle class="cls-43" cx="233.89" cy="179.12" r="2.25"/><path class="cls-43" d="M227.4,199.39a2.25,2.25,0,1,1,2.25,2.25A2.25,2.25,0,0,1,227.4,199.39Z"/><path class="cls-3" d="M203.88,144.63c-2.9-6.53-23.43-25.29-26.87-43.7-1.59-8.55,3.4-14.6,9.47-18.68,0,0-2.84,12.93,5.22,24.6S203.88,144.63,203.88,144.63Z"/><path class="cls-3" d="M305.54,250.11c-7.21,2.57-15-.89-17.35-8.18-3.18-9.81-3.51-20.39-4.68-29.09-.58-4.27-1.25-13.1-3.84-20,.24.38,8.06,12.73,15.07,32.72C301.87,245.89,299.65,248.86,305.54,250.11Z"/><path class="cls-2" d="M194.14,26.1h0c.15-.64.54-2.33.92-4.4,0-.08,0-.17,0-.26s0-.2.05-.3l.06-.34a2.74,2.74,0,0,0,0-.28c0-.13.05-.26.07-.39s0-.17,0-.26l.06-.4c0-.09,0-.18,0-.27l.06-.41a2.51,2.51,0,0,1,0-.27c0-.14,0-.28,0-.42a2.34,2.34,0,0,0,0-.26c0-.14,0-.28.05-.43l0-.25c0-.15,0-.3.05-.45l0-.23c0-.17,0-.33,0-.5s0-.11,0-.17c0-.22,0-.43.05-.64s0-.18,0-.27,0-.24,0-.36,0-.22,0-.33a2.62,2.62,0,0,0,0-.28c0-.12,0-.23,0-.34v-.25c0-.11,0-.23,0-.34v-.21c0-.12,0-.23,0-.34s0-.13,0-.19l0-.33c0-.06,0-.11,0-.16s0-.22,0-.33a.36.36,0,0,0,0-.11c0-.12,0-.22-.06-.33s0-.05,0-.07l-.09-.32h0a2.75,2.75,0,0,0-.28-.62c-1.93-3.06-17.55,6.11-16.24,8a21.61,21.61,0,0,1,2.42,4.15c.27.72,1.18,1.08,1.35,1.84a16.6,16.6,0,0,1,.28,1.74s0,.08,0,.12c0,.42.06.84.11,1.26,0,.19,0,.38.08.57s0,.24.05.36c-.67,11.1-2.68,47.92-.81,59.83a24.82,24.82,0,0,0,.71,3c6.67-4,14.83-9.14,20.81-12.91C201.7,69.15,194.14,26.1,194.14,26.1Z"/><path class="cls-22" d="M151.41,33a55,55,0,0,1-2.15-6.23,23.18,23.18,0,0,1-.81-4.38,6.53,6.53,0,0,1,.13-2S184,13,187.47,11.62,221.42,0,221.42,0a45.41,45.41,0,0,1,2,5c.35,1.08.7,2.27,1,3.49a18.53,18.53,0,0,1,.43,6.74s-35.89,4.27-39.61,6S151.41,33,151.41,33Z"/><path class="cls-44" d="M149.26,26.76a23.18,23.18,0,0,1-.81-4.38,6.53,6.53,0,0,1,.13-2S184,13,187.47,11.62,221.42,0,221.42,0a45.41,45.41,0,0,1,2,5c.35,1.08.7,2.27,1,3.49-10.11,1.24-37.52,4.73-40.93,6.36S158.29,23.76,149.26,26.76Z"/><path class="cls-45" d="M193.49,9.47s-9.46.92-12.88,3.95l2,8.92s8.68-.88,13-3.18Z"/><path class="cls-22" d="M291.44,83.68l-.64-.78c8.36-6.76,6.31-17.5,5.71-20a.81.81,0,0,1,.3-.84h0a.44.44,0,0,1,.7.26C298.18,65.22,300.15,76.63,291.44,83.68Z"/><polygon class="cls-23" points="290.8 82.9 289.54 83.42 290.66 84.75 291.44 83.68 290.8 82.9"/><path class="cls-22" d="M289.54,83.42s-1.55,1.21-2.12.88c0,0,.57,1.49,1.35,1.62a5.19,5.19,0,0,0,1.89-1.17Z"/><path class="cls-28" d="M275.48,69.45l-.16,6.28s-14.78-9.14-38.16.55V67.21A6.28,6.28,0,0,1,240,62.9c4.35-2.71,14.59-7.82,31.3-.46C273.68,63.47,275.24,66.9,275.48,69.45Z"/><path class="cls-3" d="M284.19,345c-67.89,4.81-101-34.22-101-34.22a280.25,280.25,0,0,1,1.16-33.25c10.17-12.18,27.68-30.19,48.1-38.6,32.44-13.33,40.49-41.1,41.13-45.67s-.69-43.07,2.46-44.61c1.27,18.45,2.72,39.9,4.16,61.73Z"/><g id="right_hand-4-2" data-name="right hand-4"><path id="Mask-227-2" data-name="Mask-227" class="cls-2" d="M178.81,13.8S188,17.91,189.87,16c0,0,4-1.73,3.73-3.8A2.71,2.71,0,0,0,193.82,9c-1.13-1.54-6.61-2.22-7.39-1.75a5.64,5.64,0,0,0-1.93,1.8c-.27.57-3.33,1.16-3.66,2.23-.11.39-.85.09-1.72.83A1.32,1.32,0,0,0,178.81,13.8Z"/><g class="cls-46"><g id="right_hand-5-2" data-name="right hand-5"><path id="Path_523-2" data-name="Path 523" class="cls-35" d="M190.56,15.77l-9.71-4.46"/><path id="Path_524-2" data-name="Path 524" class="cls-35" d="M193.3,14.1,183.12,9.33"/><path id="Path_525-2" data-name="Path 525" class="cls-35" d="M194.09,11.22l-8.82-4.15"/></g></g></g><path class="cls-24" d="M758.25,138.9s-2.44-.38-3.33,1.25-2,4.26-.32,5.31S758.25,138.9,758.25,138.9Z"/><path class="cls-2" d="M881.47,112.68A10.1,10.1,0,0,0,885,110.1c1.33-1.67,3.15-4.37.91-3.68s-6.24,3.49-7.75,3.75-1,1.44-1.07,1.77S881.47,112.68,881.47,112.68Z"/><g id="right_hand-4-3" data-name="right hand-4"><path id="Mask-227-3" data-name="Mask-227" class="cls-2" d="M890.05,106.81s-7.58.5-8.39-1.32c0,0-2.37-2.26-1.65-3.66a2.07,2.07,0,0,1,.68-2.31c1.2-.79,5.25.16,5.67.7a4.12,4.12,0,0,1,.9,1.78c0,.47,2,1.68,2,2.52,0,.31.58.29,1,1A1,1,0,0,1,890.05,106.81Z"/><g class="cls-47"><g id="right_hand-5-3" data-name="right hand-5"><path id="Path_523-3" data-name="Path 523" class="cls-35" d="M881.24,105.13l8-.61"/><path id="Path_524-3" data-name="Path 524" class="cls-35" d="M879.74,103.24l8.43-.71"/><path id="Path_525-3" data-name="Path 525" class="cls-35" d="M879.93,101l7.31-.63"/></g></g></g><g id="left-3"><g id="Path_365" data-name="Path 365"><path id="Mask-275" class="cls-2" d="M712.53,362.14l-12.77-12.77-22.27,22.27L689,383.18s7.74,5.62,8.51,4.93l-5.23-11.27a2.86,2.86,0,0,1,1.16-3.67Z"/><g class="cls-48"><g id="Path_365-2" data-name="Path 365-2"><path id="Path_365-3" data-name="Path 365-3" class="cls-8" d="M705.73,367.76l-17.88-8,7.79-7.79Z"/></g></g></g><path id="Path_364" data-name="Path 364" class="cls-4" d="M681.26,367.15a51.9,51.9,0,0,0,2.66,6.46c2.71,4.63,5.41,7.07,7.23,8.1,3.85,2.16,4.17-.12,5.47,2.71,4,8.77,5.9,11.83,2.49,14.09l-23.36-24.14a1.71,1.71,0,0,1,0-2.41l.06-.06Z"/></g><path id="Path_572" data-name="Path 572" class="cls-49" d="M754.35,234.92s19.18,61,11.28,75.64-62.58,57.95-62.58,57.95L692,353.18l51.66-53.49L730,268.47l2.76-31.5Z"/><g id="right-3"><g id="Path_365-4" data-name="Path 365-4"><path id="Mask-276" class="cls-2" d="M799.15,388.14h-18v31.38H797.4s9.43-1.49,9.48-2.52l-11.63-4.25a2.85,2.85,0,0,1-1.77-3.41Z"/><g class="cls-50"><g id="Path_365-5" data-name="Path 365-5"><path id="Path_365-6" data-name="Path 365-6" class="cls-8" d="M798.31,396.9,780,403.83v-11Z"/></g></g></g><path id="Path_364-2" data-name="Path 364-2" class="cls-4" d="M780.62,413.7a51.11,51.11,0,0,0,6.44,2.68c5.18,1.35,8.79,1.17,10.81.6,4.23-1.18,2.86-3,5.76-1.94,9,3.36,12.51,4.18,11.7,8.18l-33.49-.55a1.72,1.72,0,0,1-1.68-1.74v-.08Z"/></g><path id="Path_573" data-name="Path 573" class="cls-27" d="M811,256.54s-1,7.89-2.06,12.36S805.18,281,805.18,281l-7.46,116H779.94s-.09-50.38-1.2-64.75c-1.37-17.71-5-27.39-6.11-29.14-2.93-4.76-10.73-19.17-5.36-36.34S811,256.54,811,256.54Z"/><g id="right_hand-8-3" data-name="right hand-8"><g id="Path_357-3-3" data-name="Path 357"><path class="cls-2" d="M716.66,51.31c.38-2.32.44-4.74-.47-6.24a50.4,50.4,0,0,1-1.07-7.63c0-2.38-2.14-1.2-2.22.05s0,5.74-.25,5.92-2.1-2.15-2-4.38.66-2.94-.37-3.15a3,3,0,0,1,.82-2.87c1.31-1.42.4-2.85.22-2.7S709,33.44,709,33.44s.59-2.48.17-3a.92.92,0,0,0-1.31,0,.86.86,0,0,0-.14.18c-.26.47-.43-1.73-1.52-.15s-.73,13,2.25,16.51,2.25,5.42,2.25,5.42l-2.4,31.79,5.94-.16s1.83-10.16.6-19C714.22,60.4,715.91,55.91,716.66,51.31Z"/></g><path id="Path_360-3" data-name="Path 360" class="cls-12" d="M714.26,49.12c-.34-3.63-1.85-3.43-3.69-6.24s.19-4.92.29-6-.37-1-.37-1-2.44.89-2.64,7.05"/><path id="Path_361-3" data-name="Path 361" class="cls-12" d="M707.61,30.68l.57,8.8"/><path id="Path_362-3" data-name="Path 362" class="cls-12" d="M709.18,32.92S709,34.29,709,35a16,16,0,0,0,.16,1.82"/></g><path class="cls-2" d="M713.54,101.74a6.8,6.8,0,0,1-3.71,1.09c-1.43-3.9-1.91-11.71-1.93-20.24,0-6.13.21-12.64.48-18.33l.1-.52,2.38-12.07,3.93-.23h.15l1.44-.09s.27,5.85.41,13.56c0,.53,0,1.06,0,1.61C717,80.58,716.69,99.66,713.54,101.74Z"/><polygon class="cls-3" points="815.93 55.3 768.51 27.84 736.28 50.83 781.41 76.63 815.93 55.3"/><path class="cls-51" d="M791,61s-.78,6,3.35,8.55c8.55,5.22-.8,8.42,7.21,16.08,1.84,1.76,2,11-12.47,10.27s-16.41.18-16.41.18a22.3,22.3,0,0,1-22.27-3.51c-6.18-5,4-15,1.35-18.36-3.63-4.48-2.31-17.21,4.58-21.52s17.1-5.89,17.1-5.89Z"/><path class="cls-22" d="M829,80l.57-1.22c-12.89-6-13.7-20.43-13.71-23.77a1.07,1.07,0,0,0-.65-1h0a.59.59,0,0,0-.83.55C814.45,58.46,815.57,73.74,829,80Z"/><polygon class="cls-23" points="829.58 78.78 831.37 79.05 830.36 81.12 829.01 80 829.58 78.78"/><path class="cls-22" d="M831.37,79.05s2.38,1.06,3,.45c0,0-.25,2.1-1.22,2.52a6.9,6.9,0,0,1-2.79-.9Z"/><g id="Path_354" data-name="Path 354"><path id="Mask-274" class="cls-2" d="M780.7,86a18.48,18.48,0,0,1-.93-8.28c6-2,4.18-7.89,1.88-8s-3.11,3.32-3.11,3.32c-1-6-5.38.33-11-8.16s-12.46-2.05-13,.75-2.8,31.28,14.12,29.22a32.41,32.41,0,0,1,1.17,8.59,42.69,42.69,0,0,1-.14,4.8c-1.26,5.25-6.34,18.43,3.17,21.44s20.62-13.37,16.7-22.11S782.27,90.49,780.7,86Z"/><g class="cls-52"><g id="Path_354-2" data-name="Path 354-2"><path id="Path_354-3" data-name="Path 354-3" class="cls-8" d="M767.88,95s7.37-.26,9.65-10.55c0,0,3.08,17.23-6.76,20.72S767.88,95,767.88,95Z"/></g></g></g><path id="Path_350" data-name="Path 350" class="cls-53" d="M760.77,72.55a21.54,21.54,0,0,1,.07,6.56c-.57,3-1.21,4.9,3.21,3.79"/><circle id="Oval-20" class="cls-17" cx="757.03" cy="73.85" r="0.95" transform="translate(-1.82 125.84) rotate(-9.49)"/><circle id="Oval_Copy_28" data-name="Oval Copy 28" class="cls-17" cx="765.98" cy="73.71" r="0.95" transform="matrix(0.99, -0.16, 0.16, 0.99, -1.67, 127.31)"/><path id="Path_351" data-name="Path 351" class="cls-54" d="M762.78,69.67s4.43-2,7.1.84"/><path id="Path_352" data-name="Path 352" class="cls-54" d="M754.67,69.58a3,3,0,0,1,3.11,0"/><path id="Path_353" data-name="Path 353" class="cls-55" d="M759.77,86.07a6.91,6.91,0,0,0,8.52-.66s-1.89,4-4.2,4.06S759.77,86.07,759.77,86.07Z"/><path class="cls-2" d="M761.49,110.81l-2,20.33s-44.94-16.09-49.39-26.31a3.94,3.94,0,0,1-.22-.55c-1.51-4.11-2-12.6-1.93-21.69,0-5.7.23-11.63.48-16.87,0-.67.07-1.33.1-2l2.38-12.07,3.93-.23c.05.44.1.93.15,1.44.38,3.37,1,8.21,1.85,13.48l0,.15c2,13.12,5,28.77,6.51,30.6C725.86,100.09,761.49,110.81,761.49,110.81Z"/><path class="cls-25" d="M789.36,101.06s-4.38,13.65-21.52,5.06l18,39.59,4.7-35.4Z"/><path class="cls-2" d="M803.92,105.08s-2.16,7.1,39.11,29.6l30.45-20.85,3.65,3.06s-29.19,35.18-33.75,34.44-35.89-21.39-35.89-21.39Z"/><path class="cls-28" d="M849.59,162.2c-.48,8.44-4.05,16.42-14.31,19.87-4.67,1.57-16.07-1.23-18.28-9.74.18,1,.36,2.09.53,3.18,2.82,17.42,5.06,44,6.78,70.68,2.94,45.86,4.32,91.93,4.32,91.93-36.41,8.48-89.42-9-105.79-18.17-14.43-8.06-23.05-21.5-27.44-30.28a67.91,67.91,0,0,1-3.68-8.64s3.41-7.49,8-17.83c7.07-16,16.9-38.94,21-51.33,6.86-20.56,14-34.38,14-49.59-59.11.87-11.38-65.17-11.38-65.17,16,6.52,44.5,9,44.52,9l17.71,32.8,3.8-37.86c.85-.09,18.27-1.36,25.57,3.48,8.16,5.41,11.29,20.57,28.11,30.13C843.79,135.1,850.35,149.21,849.59,162.2Z"/><path class="cls-2" d="M873.48,113.83s3.24-7.69,4.32-9.27c2.14-3.14,8.23-5.1,8.62-3.71s-3.9,3.43-4.09,6.63c-.05.88,1.76-.84,2.89-1.51.67-.4,1.08-.07.73.45-1.79,2.6-2.77,5.28-4.48,6.26s-4.34,4.21-4.34,4.21Z"/><polygon class="cls-29" points="789.36 101.06 785.54 138.93 767.91 105.41 761.5 105.44 787.43 152.63 794.09 100.86 789.36 101.06"/><path class="cls-51" d="M758.85,55s-7.2,6.3,11.57,12.69A9.6,9.6,0,0,1,776.23,81c-3.62,7.14,1.51,16.16,11.26,14.63,7.77-1.21.83-37.66-5.68-39.17S758.85,55,758.85,55Z"/><path class="cls-51" d="M765.37,57.66s-6.86,3.53-7.92,7-3.26,8.37-5.09,4.41-1.51-8.88,1.74-11.76,9.66-3.44,10.81-2.11A2.08,2.08,0,0,1,765.37,57.66Z"/><path class="cls-28" d="M754.72,54S768.08,45.53,791,64.28l1.26-6.16c-.42-3.83-1.6-4-4.7-6.27-3.5-2.58-9.06-5.43-17.42-6.61-5.75-.8-9-2-12.35,2.69Z"/><path class="cls-3" d="M691.72,281a68.59,68.59,0,0,0,3.67,8.64c9.57-10.12,22.9-26.23,32.19-45.62,16-33.43,7.12-81.77,7.12-81.77,0,15.21-7.11,29-14,49.59C713.93,232.26,691.72,281,691.72,281Z"/><path class="cls-43" d="M790.54,166.29a1.6,1.6,0,1,0-1.59,1.59A1.6,1.6,0,0,0,790.54,166.29Z"/><path class="cls-43" d="M790.54,195.28a1.6,1.6,0,1,0-1.59,1.6A1.59,1.59,0,0,0,790.54,195.28Z"/><path class="cls-3" d="M817.53,175.51c-.17-1.1-.35-2.16-.53-3.18,2.22,8.51,13.61,11.31,18.28,9.74,10.26-3.45,13.83-11.43,14.32-19.87-1.11.58-17.76,9.09-25.51,4.09s-12.77-16.63-12.92-17Z"/><path class="cls-22" d="M906.64,133a55.86,55.86,0,0,0,4.28-5.21,24,24,0,0,0,2.33-3.92,7,7,0,0,0,.59-2s-31.39-19.58-34.22-22.17S851.17,76.5,851.17,76.5a44.4,44.4,0,0,0-3.71,4.09c-.72.91-1.48,1.93-2.18,3a18.73,18.73,0,0,0-2.8,6.32s32.93,16.82,35.86,19.84S906.64,133,906.64,133Z"/><path class="cls-44" d="M910.92,127.76a24,24,0,0,0,2.33-3.92,7,7,0,0,0,.59-2s-31.39-19.58-34.22-22.17S851.17,76.5,851.17,76.5a44.4,44.4,0,0,0-3.71,4.09c-.72.91-1.48,1.93-2.18,3,9.26,4.78,34.33,17.84,37,20.62S903.31,121.68,910.92,127.76Z"/><path class="cls-45" d="M874.61,95.49s8.75,4.23,11,8.35l-5.09,7.85s-8-3.92-11.39-7.68Z"/><path class="cls-3" d="M828.63,338.12c-36.41,8.48-89.42-9-105.79-18.17-14.43-8.06-23.05-21.5-27.44-30.28a67.91,67.91,0,0,1-3.68-8.64s3.41-7.49,8-17.83c16.77-5.89,50.46-18.15,73.42-29.11,31.65-15.11,38.16-43.28,38.54-47.88s-3.06-43,0-44.67a707.1,707.1,0,0,1,12.66,104.65C827.25,292.05,828.63,338.12,828.63,338.12Z"/><g id="right_hand-8-4" data-name="right hand-8"><g id="Path_357-4" data-name="Path 357"><path class="cls-2" d="M494.35,197.12c2,1.15,4.31,2,6,1.7a48.56,48.56,0,0,1,7.53,1.62c2.22.85,1.86-1.61.71-2.1s-5.37-2-5.47-2.28,2.74-1.23,4.79-.34,2.54,1.63,3.08.73a3,3,0,0,1,2.42,1.76c.88,1.72,2.54,1.35,2.46,1.13s-2.14-3.26-2.14-3.26,2.13,1.39,2.72,1.17A.92.92,0,0,0,517,196a.69.69,0,0,0-.13-.2c-.35-.4,1.78.19.66-1.38s-12-5.16-16.27-3.56-5.86.25-5.86.25l-29-13.18-1.89,5.63s8.91,5.21,17.67,7.12C486.65,191.69,490.29,194.83,494.35,197.12Z"/></g><path id="Path_360-4" data-name="Path 360" class="cls-12" d="M497.23,195.61c3.53.93,3.86-.55,7.13-1.32s4.56,1.87,5.55,2.34,1,0,1,0,0-2.61-5.71-4.91"/><path id="Path_361-4" data-name="Path 361" class="cls-12" d="M516.83,195.7l-8.45-2.48"/><path id="Path_362-4" data-name="Path 362" class="cls-12" d="M514.2,196.41s-1.24-.62-1.91-.87-1.17-.35-1.76-.48"/></g><path class="cls-2" d="M448.07,176.84a6.76,6.76,0,0,1,.25-3.85c4.15,0,11.65,2.23,19.67,5.14,5.77,2.1,11.8,4.54,17.05,6.76l.45.27L496,191.54l-1.13,3.78-.05.14-.41,1.38s-14.34-3.74-14.86-3.92C466.28,188.28,448.94,180.52,448.07,176.84Z"/><polygon class="cls-28" points="388.45 73.53 434.27 49.86 463.52 72.93 419.94 95.15 388.45 73.53"/><path class="cls-13" d="M424,92.58s-8.73,6.39-2,16.4c0,0-8.27-.68-10.26-2.92a5.93,5.93,0,0,0,.66,1.46s-9.63-.25-11.74-3.62c-4.34-7,4.47-7.37,7.5-15.33,4-10.41,11-19,22.49-14.6,0,0,15.28-2.37,10.3,18s1.75,21.46,1.75,21.46a9.84,9.84,0,0,1-2.92.48s-1.24-.72-1.39-1.49a4.8,4.8,0,0,0,.36,1.61s-7.38-.48-10.57-3.81S422.3,96.68,424,92.58Z"/><path class="cls-13" d="M416.22,100.75s-3.34-7.8-3.44-14c-.08-4.45,5.7-17.65,21.43-12.76,0,0,3.6-1.25,7.51,2.43,3.12,2.92,7.35,8.82-.54,21.9L439,102.78Z"/><g id="Path_354-2-2" data-name="Path 354"><path id="Mask-274-2" data-name="Mask-274" class="cls-2" d="M418.64,108.67a18.43,18.43,0,0,0-.39-8.32c-6.27-1-5.39-7.12-3.14-7.59s3.6,2.79,3.6,2.79c0-6,5.37-.54,9.53-9.81s12-4,12.92-1.33,7.75,30.43-9.28,31.1a32.28,32.28,0,0,0,.21,8.67,42.7,42.7,0,0,0,.91,4.72c2.08,5,9.19,17.17.29,21.66s-22.49-9.91-20-19.16S417.81,113.34,418.64,108.67Z"/><g class="cls-56"><g id="Path_354-2-3" data-name="Path 354-2"><path id="Path_354-3-2" data-name="Path 354-3" class="cls-8" d="M432.74,115.48s-7.32.92-11.22-8.87c0,0-.29,17.49,10,19.37S432.74,115.48,432.74,115.48Z"/></g></g></g><path id="Path_350-2" data-name="Path 350" class="cls-53" d="M436.17,92.2a22,22,0,0,0,1,6.49c1,2.83,2,4.65-2.57,4.26"/><circle id="Oval-20-2" data-name="Oval-20" class="cls-17" cx="440.07" cy="92.89" r="0.95" transform="translate(344.78 532.45) rotate(-89.69)"/><ellipse id="Oval-21" class="cls-57" cx="441.11" cy="93.04" rx="3.91" ry="3.88" transform="translate(345.67 533.63) rotate(-89.69)"/><ellipse id="Oval_Copy_29" data-name="Oval Copy 29" class="cls-57" cx="431.34" cy="94.29" rx="3.91" ry="3.88" transform="translate(334.7 525.11) rotate(-89.69)"/><circle id="Oval_Copy_28-2" data-name="Oval Copy 28" class="cls-17" cx="431.22" cy="94.18" r="0.95" transform="translate(334.69 524.88) rotate(-89.69)"/><path id="Path_351-2" data-name="Path 351" class="cls-54" d="M433.73,89.69s-4.69-1.28-6.88,2"/><path id="Path_352-2" data-name="Path 352" class="cls-54" d="M441.72,88.3a3,3,0,0,0-3.07.47"/><path id="Path_353-2" data-name="Path 353" class="cls-55" d="M439.32,105.39a6.9,6.9,0,0,1-8.52.71s2.51,3.65,4.8,3.33S439.32,105.39,439.32,105.39Z"/><path id="Path_378" data-name="Path 378" class="cls-57" d="M427.47,93.5l-9.6-1"/><path id="Path_379" data-name="Path 379" class="cls-58" d="M437.27,92.61l-2.15.46"/><g id="right-3-2" data-name="right-3"><g id="Path_365-4-2" data-name="Path 365-4"><path id="Mask-276-2" data-name="Mask-276" class="cls-2" d="M416.72,382.42h18v31.39H418.46s-9.42-1.49-9.48-2.52L420.61,407a2.85,2.85,0,0,0,1.77-3.42Z"/><g class="cls-59"><g id="Path_365-5-2" data-name="Path 365-5"><path id="Path_365-6-2" data-name="Path 365-6" class="cls-8" d="M417.55,391.18l18.27,6.94v-11Z"/></g></g></g><path id="Path_364-2-2" data-name="Path 364-2" class="cls-4" d="M435.24,408a51.54,51.54,0,0,1-6.43,2.67c-5.18,1.36-8.8,1.18-10.81.61-4.24-1.18-2.86-3-5.77-1.94-9,3.35-12.51,4.18-11.7,8.18L434,417a1.71,1.71,0,0,0,1.68-1.74v-.08Z"/></g><path id="Path_573-2" data-name="Path 573" class="cls-27" d="M404.85,250.83s1,7.89,2.06,12.36,3.78,12.08,3.78,12.08l7.45,116h17.78s.09-50.38,1.2-64.75c1.38-17.71,5-27.39,6.11-29.14,2.93-4.77,10.73-19.18,5.37-36.34S404.85,250.83,404.85,250.83Z"/><g id="left-7"><path id="Path_409" data-name="Path 409" class="cls-4" d="M491.31,361.35S488,365.64,490,368s13.62,14.95,16.69,17.68,10.38,6.64,15.83,5.25,8.13-7.1-5-16.68A86.58,86.58,0,0,0,491.31,361.35Z"/><g id="Path_459" data-name="Path 459"><path id="Mask-310" class="cls-2" d="M486.52,353s4.79,6.32,4.79,8.35-1.16,3.17,6.65,8.89,19,15.71,21.41,9.83S506.09,367,499.59,356.15s-9.92-13.89-9.92-13.89Z"/><g class="cls-60"><g id="Path_459-2" data-name="Path 459-2"><path id="Path_459-3" data-name="Path 459-3" class="cls-8" d="M495.54,347.72l-9,10.58-2-6Z"/><path id="Path_464" data-name="Path 464" class="cls-8" d="M489.53,353.57s4.29,6.24,4.29,7.78,14.24,16.92,25.3,20.52-7.91,3.73-7.91,3.73L485,362.89Z"/></g></g></g></g><g id="Path_421" data-name="Path 421"><path id="Mask-311" class="cls-27" d="M405.73,315.1s-5.07,20.48,14.91,21.52,35-24.55,41.13-14.4,12.08,26.62,22.72,32.44l11.23-7.07s-18.47-48.94-28.61-50.17c-4.67-.56-23.34-.33-41.1,5.52C418.07,305.55,405.73,315.1,405.73,315.1Z"/><g class="cls-61"><g id="Path_421-2" data-name="Path 421-2"><path id="Path_421-3" data-name="Path 421-3" class="cls-49" d="M418,308.18s-5.55,17.76,8.44,16.69,28.06-16.61,36.1-2.06-46.71,31.85-46.71,31.85l-19.22-17.29,4.46-24.71Z"/></g></g></g><path id="Path_420" data-name="Path 420" class="cls-35" d="M405.62,315.93c-4.84,24.32,18.23,21.29,22.85,20s7.67-2.72,18.33-10,12.75-7.46,15.75-2.3,13.58,28.21,21.94,31l11.05-6.94"/><path class="cls-2" d="M343.91,155.39a20.28,20.28,0,0,0-3.45-3.68c-1.83-1.41-3.76-4.06-3.2-4.92s6.08-4.91,6.08-4.91l2.93,7.27Z"/><path class="cls-2" d="M365.26,173.13l-19.08-24.52-2.27,6.78s19.55,44.47,28.5,40.33C376.59,193.79,365.26,173.13,365.26,173.13Z"/><path class="cls-24" d="M411.48,125h0C411.39,125,411.41,125,411.48,125Z"/><path class="cls-13" d="M440.79,77.87S432.88,91.76,424,92.58s-12.18-2-12.18-2a24.34,24.34,0,0,0,10.16-13S437.74,70.17,440.79,77.87Z"/><path class="cls-13" d="M439.22,78.85s3.61,4,4.1,7.34-.11,10,1.85,10.13c0,0,5.79-9.38,2-15.81C443.18,73.68,439.22,78.85,439.22,78.85Z"/><path class="cls-13" d="M439.91,79.47s-6.43,14.85-18,18.08c0,0,12.25-7.78,14.8-17.85S439.91,79.47,439.91,79.47Z"/><path class="cls-62" d="M424.37,294.9c-9.63-7-23.19-19.34-28.1-39.63-.94-10.09,7-19.68,15.89-22.71,6.94-.6,13.46,1.61,16.69,10.13C433.54,255.1,428.79,276.52,424.37,294.9Z"/><path class="cls-28" d="M506.83,314.7c-30.56,44-109.42,49-109.42,49-6.35-23.17-8.26-63.89-8.22-104.41,0-41.23,2.11-82.26,3.59-104.41-.18-7.67.11-14.16,1.37-16.65,2-3.89,12.62-10.64,16.45-14a6.68,6.68,0,0,1,1.65-.42c.58,2,7.68,26.13,8.39,25.62s12.69-23.4,13.95-26.11c1.29,0,2.17.07,2.42.09,2.11.1,13.52,2.38,14.47,4.22.34.64,3.62,9.32,7.73,20.81v0c7.72,21.55,19,17.5,23.52,23.89,2.82,4,1.61,11.49-3.63,18-.45.54-.92,1.09-1.42,1.61-4,4.22-9.39,6.71-18.19,5.42a18.42,18.42,0,0,1-5.57-2.28,28.81,28.81,0,0,1-4.65-3.28C457.93,224.28,506.83,314.7,506.83,314.7Z"/><path class="cls-29" d="M412.78,122.66,408.64,125s11.3,32,11.86,31.82S438,123.49,438,123.49L434.57,122l-13.93,27.37Z"/><path class="cls-28" d="M445.82,78.62S430.6,72,408.21,88.57l.64-4a13,13,0,0,1,5.6-8.8c3.4-2.27,8.76-4.7,16.67-5.43A14.66,14.66,0,0,1,444.78,77Z"/><path class="cls-22" d="M375,96.16,374.56,95c12.39-5.06,13.8-18.59,14-21.72a1,1,0,0,1,.66-.9h0a.56.56,0,0,1,.75.56C389.69,76.57,388,90.88,375,96.16Z"/><polygon class="cls-23" points="374.56 94.99 372.86 95.16 373.72 97.16 375.04 96.16 374.56 94.99"/><path class="cls-22" d="M372.86,95.16s-2.28.89-2.84.29c0,0,.15,2,1,2.42a6.54,6.54,0,0,0,2.67-.71Z"/><path class="cls-25" d="M413.62,125.54s3.79,7,18.85.62l-11.83,23.25Z"/><path class="cls-28" d="M408.64,125s-2,66.17-18.29,79a9.92,9.92,0,0,1-3.67,1.87c-8.24,2.11-14.23-2.8-18.29-9.61-5.64-9.45-7.54-22.56-6.58-25.58,1.82-5.75,6,4.42,14.81,1.63S387.8,134.07,394,128.9C395.55,127.56,408.64,125,408.64,125Z"/><path class="cls-2" d="M346.18,148.61s.42-3.87-.47-5.23-1-5.11-1.8-4.71-.3,3.47-.83,5-1.29,8.39.83,9.7S346.18,148.61,346.18,148.61Z"/><path class="cls-43" d="M417.51,169.83a2.29,2.29,0,1,1,2.29,2.28A2.28,2.28,0,0,1,417.51,169.83Z"/><path class="cls-43" d="M417.51,186.8a2.29,2.29,0,1,1,2.29,2.29A2.28,2.28,0,0,1,417.51,186.8Z"/><path class="cls-28" d="M479.1,190.28c-.45.55-.92,1.09-1.42,1.62-4,4.22-9.39,6.71-18.18,5.42-2.19-.32-6.62-2.44-10.23-5.56,0,0-7.25-19.82-6.28-22.62s14.95,18.94,26.55,20A87.83,87.83,0,0,1,479.1,190.28Z"/><path class="cls-28" d="M393.81,174.87,390.35,204a9.92,9.92,0,0,1-3.67,1.87c-8.24,2.11-14.23-2.8-18.29-9.61,4.23.59,14.48,1.5,16.72-3C387.94,187.66,393.81,174.87,393.81,174.87Z"/><path class="cls-22" d="M325.91,171.62a46.19,46.19,0,0,1-4.57-3.22,19.48,19.48,0,0,1-2.72-2.62,6,6,0,0,1-.92-1.45s20.76-22.58,22.45-25.27,17.61-24.81,17.61-24.81a36.22,36.22,0,0,1,3.86,2.46c.78.56,1.61,1.21,2.41,1.91a15.53,15.53,0,0,1,3.63,4.43s-22.59,20.71-24.27,23.77S325.91,171.62,325.91,171.62Z"/><path class="cls-44" d="M321.34,168.4a19.48,19.48,0,0,1-2.72-2.62,6,6,0,0,1-.92-1.45s20.76-22.58,22.45-25.27,17.61-24.81,17.61-24.81a36.22,36.22,0,0,1,3.86,2.46c.78.56,1.61,1.21,2.41,1.91-6.35,5.86-23.49,21.84-25,24.65S326.08,161.87,321.34,168.4Z"/><path class="cls-45" d="M343.23,134.6s-6.06,5.31-6.91,9.1l5.79,5.15s5.54-4.91,7.41-8.66Z"/><g id="right_hand-4-4" data-name="right hand-4"><path id="Mask-227-4" data-name="Mask-227" class="cls-2" d="M335.27,144.84s8.37-1.72,8.71-4c0,0,1.89-3.16.69-4.46a2.32,2.32,0,0,0-1.43-2.3c-1.54-.5-5.65,1.75-5.95,2.46a4.77,4.77,0,0,0-.44,2.2c.1.52-1.72,2.44-1.42,3.34.12.33-.54.48-.77,1.42A1.1,1.1,0,0,0,335.27,144.84Z"/><g class="cls-63"><g id="right_hand-5-4" data-name="right hand-5"><path id="Path_523-4" data-name="Path 523" class="cls-35" d="M344.33,140.38l-8.9,1.74"/><path id="Path_524-4" data-name="Path 524" class="cls-35" d="M345.39,137.88,336,139.64"/><path id="Path_525-4" data-name="Path 525" class="cls-35" d="M344.5,135.51,336.39,137"/></g></g></g><path class="cls-3" d="M506.83,314.7c-30.56,44-109.42,49-109.42,49-6.35-23.17-8.26-63.89-8.22-104.41,7.29-3.63,14.34-7.31,20.56-10.82,30.53-17.28,35.07-45.83,35.14-50.45s-6.05-42.63-3.11-44.56A273,273,0,0,0,453.92,195a28.81,28.81,0,0,1-4.65-3.28C457.93,224.28,506.83,314.7,506.83,314.7Z"/><g id="right_hand-8-5" data-name="right hand-8"><g id="Path_357-5" data-name="Path 357"><path class="cls-2" d="M632.5,237.11c.26,2.68.9,5.4,2.34,6.8a57.68,57.68,0,0,1,3.42,8.16c.64,2.66,2.73.71,2.44-.7s-1.62-6.4-1.44-6.65,3,1.77,3.47,4.29.12,3.46,1.33,3.39a3.47,3.47,0,0,1-.08,3.43c-1,2,.39,3.29.54,3.06s1.69-4.15,1.69-4.15.07,2.92.67,3.34a1.06,1.06,0,0,0,1.46-.37,1.12,1.12,0,0,0,.11-.25c.15-.59,1,1.8,1.73-.27s-3-14.68-7.31-17.7-3.11-10.4-3.11-10.4l1.07-33.34-19.28,4.49a182,182,0,0,0,7,21.4A53.55,53.55,0,0,1,632.5,237.11Z"/><g class="cls-64"><g id="Path_357-2-4" data-name="Path 357-2"><path id="Path_377-3" data-name="Path 377" class="cls-8" d="M625.8,204l-16.19,18.1,3,6.44,14-18.49Z"/><path id="Path_357-3-4" data-name="Path 357-3" class="cls-8" d="M641.18,237.71s-3.14-2-3.69-10.32,1.37-32.55-13-35.21,8.72-3.9,8.72-3.9l16.22,24.84Z"/></g></g></g><path id="Path_360-5" data-name="Path 360" class="cls-12" d="M635.81,238.84c1.44,3.94,3.05,3.27,5.92,5.86s1.22,5.53,1.43,6.77.69,1,.69,1,2.46-1.71.89-8.61"/><path id="Path_361-5" data-name="Path 361" class="cls-12" d="M648.57,257.39l-3.2-9.6"/><path id="Path_362-5" data-name="Path 362" class="cls-12" d="M646.17,255.37s-.22-1.57-.43-2.37a20.25,20.25,0,0,0-.7-2"/></g><g id="right_foot-6" data-name="right foot-6"><g id="right_foot-7" data-name="right foot-7"><path id="Mask-343" class="cls-2" d="M573.09,386.92h18.5v32.21H574.88s-9.66-1.53-9.72-2.59L577,412.19a3,3,0,0,0,1.86-3.57Z"/><g class="cls-65"><g id="right_foot-8" data-name="right foot-8"><path id="Path_365-16" data-name="Path 365-16" class="cls-8" d="M573.44,394l19.26,9V391.77Z"/></g></g></g><path id="Path_364-6" data-name="Path 364-6" class="cls-17" d="M592.1,413.15a52.19,52.19,0,0,1-6.6,2.75c-5.31,1.39-9,1.2-11.09.62-4.35-1.21-2.94-3.1-5.92-2-9.25,3.44-12.84,4.29-12,8.39l34.33-.56a1.79,1.79,0,0,0,1.76-1.82v-.09Z"/></g><g id="left_foot-7" data-name="left foot-7"><g id="Path_365_Copy-4" data-name="Path 365 Copy-4"><path id="Mask-344" class="cls-2" d="M637.12,390.05l7.93-7.88,8.56,21.53a15,15,0,0,0,4.16,5.82l8.44,7.21s-5.64,2.49-10.2,1.31-14-8.31-14-8.31Z"/><g class="cls-66"><g id="Path_365_Copy-5" data-name="Path 365 Copy-5"><path id="Path_365_Copy-6" data-name="Path 365 Copy-6" class="cls-8" d="M635.39,394l19.34,9V391.77Z"/></g></g></g><path id="Path_363-2" data-name="Path 363-2" class="cls-17" d="M639.9,403s7.81,8.14,11.44,10c.15.08,3.65,2,5.91,1.93,2.54-.11,3.87-2.25,4-2.18,5,2.6,9.52,2,10.85,10.2H660.42a14.87,14.87,0,0,1-10.62-4.43l-2.09-2.13s-5.86.15-5.86-2.13S639.9,403,639.9,403Z"/></g><g id="pants-27"><path id="Mask-345" class="cls-67" d="M579.7,248.92s-10.71,7.86-12.89,11.69c-4.85,8.51-2.14,18.11-.71,33.15,3.11,32.7,7.29,100.73,7.29,100.73h19.69s8.49-75.82,10-102.55c0,0,1.62,33.37,32.7,102.75l21.14.1L628.67,260.61l-41-23Z"/><g class="cls-68"><g id="pants-28"><path id="Path_371-2" data-name="Path 371-2" class="cls-69" d="M593.51,250.59s-15.9,3.34-15.9,25.39,10.3,146.75,10.3,146.75l-18.76-3.27L551.66,253.17,579,241.25Z"/><path id="Path_372-2" data-name="Path 372-2" class="cls-69" d="M603.41,291a158,158,0,0,0,1.38,24.59c1.83,13.68,38.09,109.53,38.09,109.53l12-2.36Z"/><path id="Path_370-2" data-name="Path 370-2" class="cls-70" d="M604.68,267.64s2.87,15.17,2.24,19.25a4.53,4.53,0,0,1-4.37,4.08"/></g></g></g><polygon class="cls-3" points="545.5 69.43 589.91 43.22 620.42 64.59 578.16 89.23 545.5 69.43"/><path class="cls-17" d="M568.32,81.51A15,15,0,0,1,561,91.3c-6.21,3.33-11.54,4.3-10.2,15s-6,13.16-7.32,20.26-1.17,20.07,16.63,16.19,58.57-1.11,63-6.88,1.33-17.74-6.21-26.84,2.44-15-1.11-23.05S605.4,69.75,605.4,69.75,576.11,64.19,568.32,81.51Z"/><path class="cls-22" d="M533.28,93.3l-.54-1.14c12.09-5.75,12.73-19.34,12.72-22.48a1,1,0,0,1,.6-.93h0a.56.56,0,0,1,.78.52C546.82,72.92,545.89,87.3,533.28,93.3Z"/><polygon class="cls-23" points="532.74 92.16 531.06 92.43 532.03 94.37 533.28 93.3 532.74 92.16"/><path class="cls-22" d="M531.06,92.43s-2.23,1-2.82.44c0,0,.25,2,1.16,2.36a6.63,6.63,0,0,0,2.63-.86Z"/><path class="cls-25" d="M575.94,125.62s13.2,5.24,23.54.54-7.09,27.47-7.09,27.47S573.77,140,575.94,125.62Z"/><path class="cls-17" d="M582.45,100.9s-6.3-6.58-8.74-12.79c-1.75-4.44-2.84-22,14.8-23a23.69,23.69,0,0,1,10.4,1.7c4.24,1.77,10.7,6.11,7.7,22.22l-.55,5.34Z"/><path class="cls-17" d="M594.29,69.06S591.57,86,583,90.15s-13,2.52-13,2.52a26.17,26.17,0,0,0,5.33-16.84S588.33,62.46,594.29,69.06Z"/><path class="cls-17" d="M588.73,71.36s5.11,2.63,6.88,5.83,5.43,4.34,5.67,9.49c0,0,2.28-11.6-3.93-16.65C590.76,64.67,588.73,71.36,588.73,71.36Z"/><g id="head-19"><g id="Path_33" data-name="Path 33"><path class="cls-2" d="M611.29,92a6.7,6.7,0,0,1-4.55,3.77h0c-3.46,15.2-14.46,14.93-14.46,14.93l1.43,5.5h.13a104.84,104.84,0,0,0,10.54,3.34s-5.4,12.8-19.82,12S567,118.8,567,118.8s3.13-.43,4.57-.59c3.86-.44,6.41-.79,6.42-2.1a37.89,37.89,0,0,0,.09-4.88,37.5,37.5,0,0,0-1.58-9.2,98.34,98.34,0,0,0-6.32-12s7.49-9.13,13.42-15,16.81-1.9,16.81-1.9A27.79,27.79,0,0,1,606.38,76a6.64,6.64,0,0,1,1.6,3.81A62,62,0,0,1,610.73,89c.06.29.13.59.19.89H607.6a40.73,40.73,0,0,1-.65,4.88,5.77,5.77,0,0,0,4-4.78C611.07,90.63,611.19,91.29,611.29,92Z"/><g class="cls-71"><g id="Path_33-2" data-name="Path 33-2"><path id="Path_33-3" data-name="Path 33-3" class="cls-8" d="M592.27,110.67a17.81,17.81,0,0,1-7.6-4.8s10.53,16.94,8.9,10.18Z"/></g></g></g><path id="Path_24-9" data-name="Path 24-9" class="cls-20" d="M591.42,88.2a5.85,5.85,0,0,1,5.69,0"/><path id="Path_25-8" data-name="Path 25-8" class="cls-20" d="M602.84,88a4.93,4.93,0,0,1,3.92.66"/><path class="cls-17" d="M612.44,88.92v.26a6.69,6.69,0,0,1-.6,2.79,6.87,6.87,0,0,1-4.67,3.87h0c.08-.33.15-.66.22-1a5.91,5.91,0,0,0,4.1-4.9l0-.1h-3.4c0-.3.06-.6.07-.91.1-1.5.13-3.11.1-4.82a13.55,13.55,0,0,1-3-3.75,9.23,9.23,0,0,1-.62-3.85S598.81,86.55,587,89.12h0a26.89,26.89,0,0,1-7.9.49s-3.61-2-4.39.63.7,3.87,3.45,4.93l-.32,16.6a38.58,38.58,0,0,0-1.62-9.46A101.47,101.47,0,0,0,569.66,90s7.69-9.38,13.78-15.38,17.26-2,17.26-2a28.37,28.37,0,0,1,6.09,2.9,6.83,6.83,0,0,1,1.65,3.91,62.64,62.64,0,0,1,2.82,9.42Z"/><path id="Path_28" data-name="Path 28" class="cls-72" d="M600.83,90.4a3.89,3.89,0,0,0,.51,3.91c1.47,2,1.47,4.39-2.6,3.5"/><circle id="Oval-31" class="cls-17" cx="595.34" cy="91.3" r="0.79" transform="translate(502.08 686.34) rotate(-89.81)"/><path id="Path_31-10" data-name="Path 31-10" class="cls-18" d="M596.49,91.11a2.57,2.57,0,0,0-3,.07"/><g id="Rectangle-30"><path class="cls-1" d="M589.84,88.92l10.23,0v.26a6.68,6.68,0,0,1-5.13,6.48h0a6.69,6.69,0,0,1-5.1-6.51Z"/><path class="cls-25" d="M589.85,88.92v.37c0,.1,0,.2,0,.3s0,.18,0,.27,0,.37.08.55.07.34.11.51a1.83,1.83,0,0,0,.08.25c0,.11.07.23.11.34l0,.06a.42.42,0,0,1,0,.1c0,.1.08.2.13.3a3,3,0,0,0,.16.31,1,1,0,0,0,.13.23,4.18,4.18,0,0,0,.4.63,1.57,1.57,0,0,0,.2.25,4,4,0,0,0,.32.38,3.85,3.85,0,0,0,.35.35l0,0c.12.11.24.22.38.33h0a3.88,3.88,0,0,0,.33.23.2.2,0,0,0,.07.06,1.34,1.34,0,0,0,.23.13,6.77,6.77,0,0,0,.8.43l.52.2.55.16.46-.13.22-.08h0l.32-.12h0l.07,0,.31-.15h0l.29-.15a.91.91,0,0,0,.16-.11l.24-.14.26-.18,0,0,.44-.35c.16-.14.31-.3.46-.45l.33-.38a7.75,7.75,0,0,0,.56-.81c.08-.15.16-.29.23-.44l.21-.46c0-.14.11-.28.15-.43l0,0v0c.05-.15.09-.31.13-.47s.07-.34.09-.5a4.26,4.26,0,0,0,.06-.5c0-.16,0-.32,0-.49V89Zm5.09,5.85a5.78,5.78,0,0,1-4.18-5l8.39,0A5.77,5.77,0,0,1,594.94,94.77Z"/></g><g id="Rectangle_Copy_6" data-name="Rectangle Copy 6"><path class="cls-1" d="M601.65,89v.25a6.5,6.5,0,0,0,.07,1,6.69,6.69,0,0,0,5,5.53h0a6.71,6.71,0,0,0,5.14-6.48V89Zm5.3,5.79a40.73,40.73,0,0,0,.65-4.88h3.32a.29.29,0,0,0,0,.09A5.77,5.77,0,0,1,607,94.75Z"/><path class="cls-25" d="M601.65,89v.25a6.5,6.5,0,0,0,.07,1,6.69,6.69,0,0,0,5,5.53h0a6.71,6.71,0,0,0,5.14-6.48V89Zm5.3,5.79-.21.06a5.78,5.78,0,0,1-3.85-3.57,5.51,5.51,0,0,1-.32-1.39l8.38,0a.28.28,0,0,1,0,.09A5.77,5.77,0,0,1,607,94.75Z"/></g><circle id="Oval_Copy_2-8" data-name="Oval Copy 2-8" class="cls-17" cx="604.79" cy="91.33" r="0.79" transform="translate(511.46 695.82) rotate(-89.81)"/><path id="Path_31_Copy-8" data-name="Path 31 Copy-8" class="cls-19" d="M605.93,91.11a2.55,2.55,0,0,0-3,.13"/><path id="Path_29" data-name="Path 29" class="cls-73" d="M590,89.3l-10.86-.42"/><path id="Path_30" data-name="Path 30" class="cls-74" d="M599.89,90.2H602"/><path id="Path_32-9" data-name="Path 32-9" class="cls-75" d="M599.24,104.68c-2.11.17-4.33-2.75-4.33-2.75a20.88,20.88,0,0,0,4.33,1,9.24,9.24,0,0,0,3.29-1S601.34,104.51,599.24,104.68Z"/></g><path class="cls-28" d="M636.31,204.63a40,40,0,0,1-7,1.52c-3.86.56-7.63.92-10,2-7.12,3.23-24.38-92.08-24.38-92.08s12.56.12,18.33,9.21,28.21,54,30.21,68.38C644.27,200.15,640.92,203.08,636.31,204.63Z"/><path class="cls-28" d="M662.17,333.17a31.63,31.63,0,0,1-4.32,6.92,51,51,0,0,1-6.33,6.7c-7.06,6.24-18.31,13-35.68,16.36-.93.18-1.86.35-2.82.51-5.24.86-10.26,1.48-15,1.9a194.75,194.75,0,0,1-26,.56c-5.1-.24-9.58-.66-13.35-1.13a109.18,109.18,0,0,1-13.36-2.36s0-33,1.68-70.34c1-22.92,2.71-47.47,5.41-66.94C556.32,197,569.5,116.48,569.5,116.48l6.56-1,15.71,35,3.07-34.37,7.15,2.28a10.7,10.7,0,0,1,7.08,7.56l9.84,38.41Z"/><path class="cls-2" d="M550.42,171.59S592.71,184,600.47,182.9c0,0,8.07,4,4.42,5.42-13.51,5.21-22.74,4.28-48.82-1Z"/><path class="cls-28" d="M576,115.48s-19.14,2.31-22.36,6.18c-10.19,12.22-19.42,64.41-11.44,76.46,9.54,14.4,24.23-8.19,28.84-21.5C573.42,169.72,577.31,128,576,115.48Z"/><path class="cls-3" d="M575.94,170.44l-.74,7.49a25.41,25.41,0,0,1-4.17-1.31c-10.5-4.2-6.36-25.07-6.36-25.07C566.31,159.9,571.57,166.35,575.94,170.44Z"/><path class="cls-28" d="M605.4,69.75s-15.53-5.89-37.08,11.76l.44-4a13,13,0,0,1,5.16-9.06c3.29-2.44,8.52-5.12,16.39-6.23a14.62,14.62,0,0,1,14,6Z"/><path class="cls-3" d="M636.31,204.63a40,40,0,0,1-7,1.52l-10.08-44.46S636.13,195.86,636.31,204.63Z"/><path class="cls-3" d="M662.17,333.17a31.63,31.63,0,0,1-4.32,6.92,51,51,0,0,1-6.33,6.7c-7.06,6.24-18.31,13-35.68,16.36-.93.18-1.86.35-2.82.51-5.24.86-10.26,1.48-15,1.9a194.75,194.75,0,0,1-26,.56c-5.1-.24-9.58-.66-13.35-1.13a109.18,109.18,0,0,1-13.36-2.36s0-33,1.68-70.34c15.37-9,33.86-20.17,47.72-30,28.61-20.29,30.21-49.16,29.8-53.76-.36-4.07-6.19-35.57-5.59-44.18Z"/><g id="right_hand-15" data-name="right hand-15"><rect id="Rectangle-29" class="cls-76" x="576.92" y="165.89" width="45.16" height="25.99" transform="translate(265.14 707.66) rotate(-74.31)"/><rect id="Rectangle_Copy_23" data-name="Rectangle Copy 23" class="cls-74" x="579.02" y="167.21" width="40.91" height="23.34" transform="translate(265.13 707.64) rotate(-74.31)"/><g id="Group_30" data-name="Group 30"><g id="Path_358" data-name="Path 358"><path id="Mask-320" class="cls-2" d="M575.79,187.71c3.51,7,21.7,3.61,29.31.27,0,0,8.69-.57,9.51-2.17s0-2.05,0-2.05,1.12-1.16.85-2.08c0,0,1-1.72.57-2.29,0,0,1.13-2.17-2.24-3.39,0,0,0,1.55-.89,1.83s-4.52-.08-4.29-.9,3-2.24,2.42-3.88-2.06,1.4-4.15,2.11-4.06,2-5.07,5.57c0,0-1,3.7-9.7,1.73-4.63-1-8.88-2.62-12-2.51C577.4,181.2,574.14,184.41,575.79,187.71Z"/><g class="cls-77"><g id="Path_358-2" data-name="Path 358-2"><path id="Path_358-3" data-name="Path 358-3" class="cls-2" d="M605.1,188s-24.39,4.47-30.06-2.55,0,8.38,0,8.38l30.77.26Z"/></g></g></g><path id="Path_373" data-name="Path 373" class="cls-78" d="M616.05,179.39s-.49.76-2.11.55"/><path id="Path_374" data-name="Path 374" class="cls-78" d="M615.48,181.68a3.61,3.61,0,0,1-2.14.42"/><path id="Path_375" data-name="Path 375" class="cls-78" d="M614.63,183.76a3.88,3.88,0,0,1-2.22.41"/></g></g></g></g></svg>