<?xml version="1.0" standalone="no"?>
<!DOCTYPE svg PUBLIC "-//W3C//DTD SVG 20010904//EN"
 "http://www.w3.org/TR/2001/REC-SVG-20010904/DTD/svg10.dtd">
<svg version="1.0" xmlns="http://www.w3.org/2000/svg"
 width="129.000000pt" height="129.000000pt" viewBox="0 0 129.000000 129.000000"
 preserveAspectRatio="xMidYMid meet">
<metadata>
Created by potrace 1.14, written by Peter Selinger 2001-2017
</metadata>
<g transform="translate(0.000000,129.000000) scale(0.100000,-0.100000)"
fill="#000000" stroke="none">
<path d="M510 1274 c-226 -47 -426 -241 -484 -470 -9 -34 -16 -79 -16 -100 l0
-37 31 62 c65 131 189 229 424 337 71 32 150 75 176 96 50 40 111 109 103 117
-11 11 -173 8 -234 -5z"/>
<path d="M747 1218 c-46 -72 -119 -143 -197 -194 -95 -61 -155 -118 -180 -169
-23 -48 -23 -88 0 -45 29 55 125 121 195 134 17 4 53 9 80 12 156 18 331 82
389 143 24 25 27 33 16 46 -32 39 -209 125 -256 125 -7 0 -29 -24 -47 -52z"/>
<path d="M1040 1064 c-25 -31 -53 -62 -62 -68 -16 -12 -14 -16 27 -45 61 -43
129 -115 172 -180 39 -58 92 -182 93 -216 0 -16 2 -17 9 -6 5 8 8 60 6 115 -5
162 -59 298 -166 419 l-34 38 -45 -57z"/>
<path d="M804 906 c-28 -28 -34 -42 -34 -76 0 -34 6 -48 34 -76 38 -38 85 -45
134 -20 63 32 73 123 21 175 -25 26 -39 31 -76 31 -38 0 -50 -5 -79 -34z"/>
<path d="M170 812 c-58 -19 -80 -97 -40 -140 46 -49 131 -26 145 37 14 63 -47
122 -105 103z"/>
<path d="M422 722 c-16 -82 -8 -313 13 -387 9 -33 34 -96 55 -140 39 -83 115
-192 123 -178 2 4 8 30 12 57 27 188 141 391 318 567 l82 81 -55 -27 c-30 -15
-108 -63 -172 -107 -126 -85 -172 -108 -215 -108 -71 0 -120 88 -137 249 -3
24 -7 45 -9 47 -2 2 -9 -22 -15 -54z"/>
<path d="M537 740 c-71 -56 -25 -170 68 -170 42 0 85 50 85 98 0 79 -90 121
-153 72z"/>
<path d="M302 618 c-12 -51 -26 -124 -32 -163 -6 -38 -12 -81 -14 -95 -3 -14
-5 -33 -5 -42 -1 -10 -5 -18 -10 -18 -23 0 -136 97 -177 152 -47 64 -49 59
-13 -37 76 -203 271 -364 486 -400 l33 -5 -44 67 c-113 176 -179 361 -192 543
-4 47 -8 86 -9 88 -1 1 -12 -39 -23 -90z"/>
<path d="M1082 614 c-18 -7 -32 -14 -32 -16 0 -2 -4 -17 -9 -34 -21 -74 49
-131 120 -97 59 28 57 129 -3 149 -37 12 -43 12 -76 -2z"/>
<path d="M155 583 c-30 -8 -42 -21 -48 -50 -9 -50 13 -76 72 -88 24 -5 70 39
66 63 -2 9 -4 24 -4 32 -1 13 -51 53 -63 49 -1 -1 -12 -4 -23 -6z"/>
<path d="M889 470 c-97 -73 -168 -166 -208 -274 -27 -72 -39 -175 -22 -185 18
-11 125 6 203 33 144 50 280 168 352 305 21 40 35 75 32 78 -3 4 -6 2 -6 -4 0
-16 -50 -63 -107 -99 -90 -58 -313 -137 -313 -111 1 52 48 171 92 237 50 74
50 74 -23 20z"/>
<path d="M974 429 c-27 -10 -53 -45 -49 -67 2 -9 4 -20 4 -24 2 -18 46 -47 65
-43 12 2 27 4 34 4 7 1 20 17 28 38 14 33 14 38 -3 61 -23 31 -51 42 -79 31z"/>
</g>
</svg>
