<svg xmlns="http://www.w3.org/2000/svg" viewBox="0 0 846.19 510.76" xmlns:v="https://vecta.io/nano"><style><![CDATA[.A{isolation:isolate}.L{mix-blend-mode:multiply}.R{fill:#070606}.S{fill:#f2f2f2}.T{fill:#1e1d22}.U{fill:#c4eaff}.V{fill:#b5334c}.W{fill:#3e6c98}]]></style><g class="A"><path d="M812.39 325.62l11.25-10.68s1 8.29-.57 14.9l-17.84.28-.56-2s-10.54 1.88-11.67 2.7-5.62 3.94-11 4.08-14.19 1-14.19 1l-6.6-6.89z" class="R"/><path d="M845.17,276.86s-.42,23.93.84,24.66-4.11,18.55-21.71,22.13S781.73,330,781.73,330L821,290.14l7.58-12.65Z" fill="#191717"/><path d="M242.67,192.13s97.38-56.7,146-70.92l11.07,2.42v4.64L265.86,198Z" class="U"/><path d="M91.69 343.19l31.75 7.3 122-3.93 472.7-2.25 38.78-15.46 9.7 4.64 9.38-44.82-12.65-21.92c-.29-.84-64.07-36.54-64.07-36.54h-67.45l-413.4 29.51L160 238.08l-69.44 37.38z" fill="#29292d"/><path d="M737.57,128.16s55.29,29.54,81.15,50.9l-75.6-9.55-52.83-33.44,17.14-6.47Z" class="U"/><path d="M845 258.6s-3-1-9-4.78c-3.79-10.82-8.15-11.81-9.83-16.3s2.38-23.75 2.38-26.84 4.08-6.32 4.08-6.32c.42-8-4.08-23.47-6-24.17s-50.91-8.29-65.38-11.19-60.67-32-60.67-32l37-8.85 3.26 1.76c1-3.77 6.63-4.69 6.44-5.66s-5.91-1.05-12.23-1.9l-49.11-7c-3.79 0-37.94-5.27-59.44-6.53s-67.17-4-101.17-4-66.18 2.53-86.56 5.34-50.13 11-50.13 11l6.64 3.68c-47.42 16.66-103.91 54.17-114.66 59.44s-18.55 6.54-29.09 6.75-33.72-.85-33.72-.85l-54.17 6.12a713.48 713.48 0 0 0-95.27 17.28c-34.28 8.85-66.74 31.76-66.74 31.76v3.23s10.82 5.9 11.38 8.57.84 3.79-5.62 15.74c-8 16-4.57 35.34-4.57 35.34l1.9 6.53 2.11.63s2.31 6.54 3.79 11.39c-6.75-.21-9.7 5.9-9.49 8s24.45 10.53 29.09 11 65.13.49 65.13.49-10.3-93.45 70.82-97.8c83.75-4.5 78.69 93.86 78.69 93.86l376-3.09s-7.87-91.33 70.4-95c77.06-3.59 75.32 89.23 75.32 89.23l16.86-3.37s38.64-37 44-44.4 17.85-7.59 17.85-7.59l-.29-19.5z" fill="#7fc1ff"/><circle cx="170.66" cy="315.08" r="61.83" class="R"/><circle cx="170.66" cy="315.08" r="50.45" class="S"/><circle cx="170.66" cy="315.08" r="46.79" class="T"/><circle cx="170.13" cy="315.4" r="31.9" fill="#999"/><circle cx="170.24" cy="315.5" r="22.69" class="T"/><path d="M186.16,287.76l.27,8.85a66.21,66.21,0,0,0,1.79,7.83,55.36,55.36,0,0,1,2,8.89c.28,2.07-.06,9.29-1.17,11.69a23.46,23.46,0,0,0-2,7c-.5,3-1.06,7.33-1.06,7.78a3.82,3.82,0,0,0,1.17,3.86c1.79,1.39,5.6-1,6.83-3.19s6-7.44,6.82-9.17,2.63-4.09,1.9-5.15a24.61,24.61,0,0,0,1.73-7.94c0-3.75-.33-10.4-1.95-14s-2.91-6.71-5.09-9.51-8.89-7.94-8.89-7.94Z" class="V"/><g class="S"><path d="M178.54 267.11l1.22 7.86s-3.9 13.8-6 16.86a5 5 0 0 1-3.48 2.45h-.84a5 5 0 0 1-3.48-2.45c-2.11-3.06-6-16.86-6-16.86l1.21-7.86-12 4 1 1.84 11.07 28.67 5.58 9h6.12l5.58-9L189.56 273l1-1.84zm-43.82 82.53l3.72-7s11.37-8.75 14.88-9.94a5 5 0 0 1 4.26.11l.68.5a5 5 0 0 1 1.32 4c-.14 3.71-5.25 17.11-5.25 17.11l-5.66 5.58 12 4 .3-2.08 8.25-29.6.87-10.52-2.09-1.58-.67-.51-2.12-1.57-9.84 3.86-26 16.38-1.91.88zm-8.07-56.84l7.85 1.2s12 7.91 14.24 10.84a5 5 0 0 1 1.29 4.06l-.26.8a5 5 0 0 1-3.39 2.57c-3.55 1.08-17.89.61-17.89.61l-7.12-3.53.18 12.66 2.06-.39 30.67-1.86 10.23-2.6.8-2.51.25-.81.8-2.51-6.84-8-24-19.23-1.45-1.52zm86.71 0l-7.85 1.2s-12 7.91-14.24 10.84a5 5 0 0 0-1.29 4.06l.26.8a5 5 0 0 0 3.39 2.57c3.55 1.08 17.89.61 17.89.61l7.12-3.53-.18 12.65-2.06-.39-30.67-1.86-10.23-2.6-.8-2.51-.25-.81-.8-2.51 6.84-8 24-19.23 1.45-1.52z"/><path d="M205.44,349.64l-3.72-7s-11.37-8.75-14.89-9.94a4.93,4.93,0,0,0-4.25.11l-.68.5a5,5,0,0,0-1.32,4c.13,3.71,5.25,17.11,5.25,17.11l5.66,5.58-12,4-.3-2.08-8.24-29.6-.87-10.52,2.11-1.57.68-.51,2.11-1.57,9.83,3.85,26,16.38,1.9.88Z"/></g><circle cx="692.82" cy="315.08" r="61.83" class="R"/><circle cx="692.82" cy="315.08" r="50.45" class="S"/><circle cx="692.82" cy="315.08" r="46.79" class="T"/><circle cx="693.34" cy="315.4" r="31.9" fill="#999"/><circle cx="693.24" cy="315.5" r="22.69" class="T"/><path d="M677.32,287.76l-.28,8.85a66.21,66.21,0,0,1-1.79,7.83,55.36,55.36,0,0,0-2,8.89c-.28,2.07.06,9.29,1.18,11.69a23.17,23.17,0,0,1,2,7c.5,3,1.06,7.33,1.06,7.78a3.82,3.82,0,0,1-1.17,3.86c-1.79,1.39-5.59-1-6.82-3.19s-6-7.44-6.83-9.17-2.63-4.09-1.9-5.15a24.61,24.61,0,0,1-1.73-7.94c0-3.75.33-10.4,1.95-14s2.91-6.71,5.09-9.51,8.9-7.94,8.9-7.94Z" class="V"/><g class="S"><path d="M684.93 267.11l-1.21 7.89s3.9 13.8 6 16.86a5 5 0 0 0 3.48 2.45h.8a5 5 0 0 0 3.48-2.45c2.11-3.06 6-16.86 6-16.86l-1.21-7.86 12 4-1 1.84-11.07 28.67-5.58 9h-6.11l-5.59-9-11-28.65-1-1.84zm43.82 82.53l-3.71-7s-11.38-8.75-14.89-9.94a5 5 0 0 0-4.26.11l-.67.5a5 5 0 0 0-1.33 4c.14 3.71 5.26 17.11 5.26 17.11l5.66 5.58-12 4-.3-2.08-8.24-29.6-.87-10.52 2.11-1.57.68-.51 2.11-1.57 9.8 3.85 26 16.38 1.91.88zm8.07-56.84L729 294s-12 7.91-14.25 10.84a5 5 0 0 0-1.29 4.06l.26.8a5 5 0 0 0 3.39 2.57c3.56 1.08 17.89.61 17.89.61l7.12-3.53-.2 12.65-2.06-.39-30.67-1.86-10.19-2.57-.8-2.51-.25-.81-.8-2.51 6.84-8 24-19.23 1.45-1.52zm-86.71 0L658 294s12 7.91 14.25 10.84a5 5 0 0 1 1.28 4.06l-.25.8a5 5 0 0 1-3.4 2.57c-3.55 1.08-17.89.61-17.89.61l-7.11-3.53L645 322l2.06-.39 30.67-1.86 10.23-2.6.8-2.51.26-.81.8-2.51-6.85-8-24-19.23-1.45-1.52z"/><path d="M658 349.64l3.72-7s11.37-8.75 14.89-9.94a5 5 0 0 1 4.26.11l.67.5a5 5 0 0 1 1.33 4c-.14 3.71-5.26 17.11-5.26 17.11L672 360l12 4 .3-2.08 8.24-29.6.87-10.52-2.11-1.57-.68-.51-2.11-1.57-9.82 3.85-26 16.38-1.9.88z"/></g><path d="M283.35 199.86S357 139.44 427 127.07s136-7 175.92-1.4 76.16 20.51 80.38 28.1c0 0-13.21 16.58-31.19 21.08s-220.05 22.2-263.33 25-105.43.01-105.43.01z" fill="#2e2e2e"/><path d="M25.22,296.11s8.57-3.37,12.09-1.82,26.91,26.06,27.68,29-8.22,5.69-11.17,6-16.44,1.33-19.32.56A3.52,3.52,0,0,1,32,326a116.44,116.44,0,0,1-7.87-18.12Z" class="R"/><path d="M13.56 260.21s4 4.85 9.7 5.69 30.49-5.48 51.85-14.47 44.4-20.94 42.15-24.45-23.61-1.55-36.81 2S19.32 247.35 9.2 253c0 0 5.48 2.36 4.36 7.21z" class="S"/><path d="M826 199.51s1 9.59-4.74 13.17-18.34 4.53-29.3 1.37-41.84-20.34-42.05-25.4 48.06-.73 55.86 1.37 18.32 7.59 20.23 9.49z" class="V"/><g fill="#8c1321" class="L"><path d="M280.18 331.39l-.2-.12a17.25 17.25 0 0 1-6.69-7.87c-3-11.95-3.27-37.81-3.45-54.92l-.26-13.78c-.56-12 2.36-42.38 3.39-48.24l.15-.36c2.86-3.88 7.58-6.47 9.56-7.44l-7.62-11.83 1.41-.92 8.69 13.49-.92.39c-.06 0-6.29 2.72-9.65 7.16-1 6.27-3.87 35.86-3.33 47.67.15 3.08.2 8.07.26 13.84.19 17 .46 42.78 3.38 54.43a15.48 15.48 0 0 0 5.73 6.8l300.9-5.61c6.32 0 15.81-3.94 21.74-15l2.49-4.72c6.67-12.71 16.74-31.92 30.92-47.71 12-13.4 24.34-30.36 35.6-49 7.58-12.59 11.19-19.77 11.69-23.3.55-3.81-.28-26.66-.29-26.9 0-.66-.2-2.48-1.11-3.25l1.1-1.28c1.65 1.4 1.7 4.19 1.7 4.5 0 .92.84 23.21.27 27.17-.54 3.81-4.11 11-11.92 23.92-11.31 18.79-23.68 35.84-35.78 49.31-14 15.64-24.06 34.74-30.68 47.37l-2.51 4.74c-6.27 11.73-16.11 15.9-23.22 15.9-5.83 0-298.16 5.57-301.11 5.62z"/><path d="M480.26 327.29l-5.28-16.46c-.64-2.08-.11-4.66.7-8.56l1.17-6.15a626.58 626.58 0 0 1 7.15-75.24c2.08-14 5.45-29.82 5.49-30l15.38-71 1.65.35-15.39 71c0 .15-3.39 15.94-5.47 29.87a627.12 627.12 0 0 0-7.15 75.15c-.42 2.52-.84 4.57-1.2 6.33-.75 3.65-1.25 6.06-.74 7.73l5.27 16.43z"/></g><path d="M1.62,248.62a184.47,184.47,0,0,0,1.26,20.87l-2.6-.07L0,293H2.6l7-39.8Z" class="R"/><path d="M722.54 223.12a16.66 16.66 0 1 1 16.65-16.66 16.67 16.67 0 0 1-16.65 16.66zm0-31.62a15 15 0 1 0 15 15 15 15 0 0 0-15-15zm13.35 66.06l-.86-1.45 12.85-7.66 21.39-44.67 1.52.73-21.61 45.12-13.29 7.93z" fill="#8c1321" class="L"/><path d="M641.39,109.79s10.39-12.09,37-8.15c-2.11,6.32-3.09,6.88-3.09,6.88l3.37,6.75Z" class="W"/><path d="M324.94,199l6.75-22.21s50.58-35.41,94.43-43.27S489.91,126,489.91,126L470,190.45S382.84,199,363.16,199Z" fill="#061537"/><path d="M351.78,173.16s28.25-19.25,64.08-28.8c28.39-7.58,58.59-10,60.28-8.93s7.59,3.38,6.95,9.7S470,190.45,470,190.45s-102.19,9.48-131.7,5.9Z" class="U"/><path d="M522 125.39l-10.4 62.67 107.3-11.53 5.62-40.46s-42.15-9.28-102.52-10.68z" fill="#061537"/><path d="M629 136.07l-4.92 40.18s24.87-2.95 28-3.93a90 90 0 0 0 8.57-3.65l2.35-21.22s-13.6-7.03-34-11.38z" fill="#191717"/><path d="M520.68,137.89s2-3.23,4.78-3.23c1.51,0,25.64.16,49.29,2.56,20.34,2.07,40.78,6.43,40.78,6.43l-4.92,34-99.2,9.62Z" class="U"/><path d="M326.24 195.5s-3.69-7.37-3.79-11.06 17.11-16.9 28.91-13.67c5.9 2 8.85 4.36 8.85 5.13s.07 16.23-4.07 21.08c-2.74 1.83-11.66 3.79-11.66 3.79s.84 8-.36 10.26-2.81 4.57-11.24 3.51-10.68-6.6-10.33-7.51 4.71-6.19 4.71-8.22a5.63 5.63 0 0 0-1.02-3.31z" fill="#7fc1ff"/><path d="M836.7 283.75s-11.38 3.37-13.2 14.75l10.25-.28zM9.56 253.15s-8.08 19.22-7.24 41.14L14.47 261s.14-5.12 0-5.34-4.91-2.51-4.91-2.51z" class="R"/><g opacity=".21" class="W"><path d="M238.81 263.09s16.86-6.32 52.69-8.85 183.8-15.6 242.81-13.91 66.19 0 83.47 16c9.7 9.27 13.91 8.43 16 5.9s11.8-12.65 11.8-12.65-14.75-21.5-60.7-24.45S281 231.9 220.68 249.6c0 0 12.23 7.59 18.13 13.49z"/></g><g opacity=".21" class="W"><path d="M318.34,316.91a81.57,81.57,0,0,0,25.29,2.53C357.54,318.6,466.72,311,508.88,306s90.63-12.23,87.26-16.86S347,308.48,318.34,316.91Z"/></g><g class="T"><circle cx="169.81" cy="302.37" r="2.95"/><circle cx="158.43" cy="311.85" r="2.95"/><circle cx="163" cy="325.76" r="2.95"/><circle cx="176.56" cy="325.48" r="2.95"/><circle cx="181.27" cy="311.43" r="2.95"/><circle cx="693.45" cy="302.37" r="2.95"/><circle cx="682.07" cy="311.85" r="2.95"/><circle cx="686.63" cy="325.76" r="2.95"/><circle cx="700.19" cy="325.48" r="2.95"/><circle cx="704.9" cy="311.43" r="2.95"/></g><g fill="#cc5c6c"><path d="M677.12 246.15q-.29-8-1.06-15.94c-.66-6.77-1.59-13.48-2.78-20.09l-.46-2.5a252.35 252.35 0 0 0-9.82-36.78l-1.52-4.2h0a253.51 253.51 0 0 0-10.58-24.49l-3.29-6.39a251.35 251.35 0 0 0-16.27-26.57A255.07 255.07 0 0 0 421.9 0C301.57 0 200.67 83.23 173.65 195.26l44.73-5 6.23.25C251.84 107.27 330 47.13 422.29 46.93h1.57q8.19.11 16.44.82A209.84 209.84 0 0 1 489.09 58h0L463 107.61l-8.16 15.47-3.4 6.46L447 138l-29.84 56.63-.4.76-1.32 2.51h0l-17 32.28-8.72 16.56-.42.8-33.3 63.13-4.38 8.33-5 9.5-.89 1.7-6 11.41-2.41 4.57-39.93 75.79a209.13 209.13 0 0 1-62-75l-11.38.38a62.06 62.06 0 0 1-29.26 25A255.34 255.34 0 0 0 421.9 510.76c102.77 0 191.37-60.7 231.87-148.21q2.52-5.43 4.78-11h0l1.46-3.69a93.48 93.48 0 0 0 1.22-3.16h0a.49.49 0 0 0 0-.11q2-5.34 3.75-10.8h0l1-3c.06-.17.1-.33.15-.49q1.51-4.93 2.82-9.92h0c.72-2.73 1.4-5.47 2-8.24h0c.57-2.5 1.1-5 1.58-7.52a218.74 218.74 0 0 0 1.57-8.86q.48-3 .88-6h0l.36-2.76c.38-3.06.7-6.15 1-9.25q.28-3.19.48-6.39c0-.44.05-.88.06-1.33.06-.87.11-1.76.14-2.63q.29-6 .29-12-.02-4.65-.19-9.25zm-68.34 101.73q-.75 1.51-1.53 3l-1.35 2.57c-.07.15-.16.29-.23.44l-1.93 3.51-1 1.81c-.09.15-.18.32-.28.48-.44.78-.9 1.54-1.35 2.31l-.09.14-1.47 2.43c0 .08-.09.15-.14.23s-.11.17-.16.27l-1.12 1.77-2.28 3.51q-.57.87-1.17 1.74c-.53.8-1.08 1.6-1.64 2.39-.73 1.06-1.48 2.11-2.25 3.16l-1.71 2.31-1.75 2.3a.94.94 0 0 1-.09.12 175.7 175.7 0 0 1-5.75 7.13l-1.34 1.56-1.34 1.56-1.66 1.86-1.67 1.83-1.7 1.82a129.62 129.62 0 0 1-3.46 3.58l-1 1a123.36 123.36 0 0 1-2.58 2.53c-1.57 1.52-3.18 3-4.8 4.49l-.34.31-2.65 2.36a.84.84 0 0 0-.18.15l-3.06 2.61h0c-1.1.93-2.22 1.84-3.33 2.73a206.77 206.77 0 0 1-121.15 45.72l-2.11.07a126.24 126.24 0 0 1-4.35.09h-2.48c-1.63 0-3.26 0-4.88-.06q-6.93-.17-13.88-.77a208.71 208.71 0 0 1-66-16.92l.18-.34 52.6-99.86 2.5-4.74 6.32-12 .9-1.71 6.51-12.37 5.89-11.17h0l31.71-60.19.27-.49 8.25-15.68 18-34.16 32.1-60.94 2.93-5.56 3.81-7.22 7.73-14.68 14.21-27h0a206.35 206.35 0 0 1 35.61 27.84q5.28 5.16 10.24 10.72h0a104.78 104.78 0 0 1 2.21 2.52l1.59 1.87.3.35c.11.11.2.23.3.35.42.5.85 1 1.25 1.52l.11.12c.09.11.18.23.28.34l2.33 2.91.61.78.25.32q.8 1 1.59 2.07l.41.55h0a60.17 60.17 0 0 1 1.14 1.52l1.22 1.68c.39.57.81 1.11 1.21 1.67l1.19 1.69 1.17 1.7.95 1.42c.45.65.88 1.3 1.31 2s.76 1.18 1.13 1.77l1.09 1.74a0 0 0 0 1 0 0c.11.16.21.32.31.49q1.74 2.81 3.4 5.67c.69 1.2 1.38 2.42 2 3.64s1.38 2.53 2 3.8q.53 1 1 1.92l1.94 3.87.91 1.91q.84 1.8 1.65 3.6c0 .1.09.2.13.29.3.65.58 1.29.86 1.95l.85 2 .83 2c.06.17.14.33.2.5l.82 2.07c.08.17.15.36.22.54l.73 1.88a15.14 15.14 0 0 0 .23.61q.89 2.35 1.7 4.73a.94.94 0 0 1 .06.15l.51 1.46.64 1.94q1.79 5.44 3.26 11 .3 1.07.57 2.13l.52 2.09.32 1.33.66 2.87.4 1.83.17.8c.15.69.29 1.39.42 2.09q.6 3 1.11 6l.26 1.6q.64 4 1.14 8.13v.25l.2 1.85.24 2.25c0 .45.09.9.13 1.35v.54c0 .37.07.74.1 1.11l.12 1.52c0 .76.11 1.5.16 2.26l.14 2.27.11 2.28c0 .72.06 1.44.08 2.16v.82 1.76q.13 6.6-.14 13.26c0 .48 0 1-.07 1.44l-.17 3-.41 5.41-.3 3.2q-.35 3.31-.8 6.6a64.15 64.15 0 0 1-.28 2l-.56 3.65c-.1.69-.23 1.36-.35 2 0 .25-.07.48-.12.71-.09.56-.2 1.11-.3 1.66l-.25 1.35c-.08.45-.18.92-.27 1.38 0 .13 0 .25-.08.38l-.46 2.27c-.15.76-.33 1.52-.5 2.28l-.45 2c-.49 2.13-1 4.26-1.61 6.37-.07.31-.16.63-.24.93l-.55 2-.65 2.23-.66 2.22-1.07 3.34a58.32 58.32 0 0 1-.61 1.87l-.72 2.09-.58 1.67-1 2.8c-.31.94-.79 2.07-1.2 3.11a2.09 2.09 0 0 0-.08.23l-1.27 3.12-1.22 2.91-.25.57c-.09.19-.17.39-.26.59l-1 2.29-1.48 3.21c-.3 1.04-.78 2.05-1.29 3.07z" opacity=".5"/><path d="M416.79 463.76q-6.93-.17-13.89-.77a208.65 208.65 0 0 1-66-16.92l.17-.34a207.52 207.52 0 0 0 79.72 18.03z" opacity=".5"/></g></g></svg>