<svg xmlns="http://www.w3.org/2000/svg" viewBox="0 0 801.61 625.06" xmlns:v="https://vecta.io/nano"><style><![CDATA[.A{isolation:isolate}.D,.F,.I{mix-blend-mode:multiply}.Z{fill:none}.a{stroke-linejoin:round}.b{fill:#d0d1d3}.c{fill:#ff6f66}.d{fill:#45aa92}.e{stroke-miterlimit:10}.f{stroke-width:1.22}]]></style><g class="A"><g class="Z"><path d="M660.48 56.81l-88.62 326.07-312.28-52.72 10.49-65.57L332.34 1.14l328.14 55.67z" stroke="#3f4348" stroke-width="2" class="e"/><path d="M238.34 534.78l212.9 75.32 283.45-100.12-201.14-67.33-295.21 92.13z" stroke="#003b42" class="a"/></g><path class="D" d="M225.89 530.31l225.96 94.75 282.84-115.08-208.31-49.59-300.49 69.92z" fill="#deddef"/><g fill="#4c7fff"><path d="M734.69 510l-1.21-12.57L450 597.52l-213.9-74.89-3.56-51.63 211.59 77.59 284.14-99.21-.75-13.66-201.14-67.29-295.21 92.12s-23.68 7-16.52 41.21 23.69 33 23.69 33l212.9 75.32z"/><path d="M231.17 460.55l212.9 75.32 283.45-100.11-201.14-67.33-295.21 92.12z"/></g><path class="F" d="M231.17,460.55l99.24,35.11c13.87-32,45.39-72.36,116.87-102.55Z" fill="#1976bb" opacity=".35"/><path d="M305.5 452.86l217.77-67.95a9.56 9.56 0 0 1 5.89.06l126.46 42.33a9.57 9.57 0 0 1 .15 18.1L447.27 519a9.57 9.57 0 0 1-6.38 0l-135.73-48a9.57 9.57 0 0 1 .34-18.14z" stroke="#fff" class="Z a f"/><path d="M232.54 471.04l211.59 77.59 284.14-99.21 5.21 47.99-283.45 100.11-213.9-74.89-3.59-51.59z" fill="#f0f0f1"/><path class="I b" d="M439.92 559.78s-183.76-74.65-175.84-65.24S453 568.38 439.92 559.78zm-52.03-11.11S253.16 493.94 259 500.83 397.51 555 387.89 548.67zm41.34 25.06S294.51 519 300.31 525.9s138.54 54.1 128.92 47.83zm4.77 9S261.58 512.2 269.7 520s177.01 70.29 164.3 62.73z" opacity=".5"/><path d="M728.27 449.42l-284.14 99.21 5.9 48.89 283.45-100.11-5.21-47.99z" fill="#fff"/><path class="I b" d="M713.92 460.42s-257.13 84.82-243.8 89.26 263.34-91.04 243.8-89.26zm-69.19 37.13S456.22 559.73 466 563s193.06-66.76 178.73-65.45zm60.84-8.27s-188.51 62.19-178.74 65.44S719.9 488 705.57 489.28zm9.27 7s-241.47 79-228.47 81.15 247.07-83.85 228.47-81.15z" opacity=".5"/><path d="M251.45,514.58s-3.83,12.07-8.83,18.86c-5.25,7.14-24.48,12.46-24.37,24.24L234,554.44l2,11.63s33.59-14.85,34.15-44.86Z" class="c"/><path d="M232.54 471l3.59 51.59c21.64-20.72-3.59-51.59-3.59-51.59z" fill="#003774"/><path d="M776.56 465.68L563.67 541 280.21 440.89l201.15-67.33 295.2 92.12z" stroke="#003b42" class="Z a"/><path class="D" d="M789.02 461.22l-225.96 94.74-282.85-115.07 208.32-49.59 300.49 69.92z" fill="#deddef"/><path d="M280.21 440.89l1.22-12.58 283.45 100.12 213.89-74.9 3.6-51.59-211.6 77.59-284.14-99.21.75-13.66 201.15-67.33 295.2 92.12s23.69 7 16.53 41.21-23.7 33-23.7 33L563.67 541z" class="d"/><path d="M783.73 391.45l-212.89 75.32-283.46-100.11 201.15-67.33 295.2 92.12z" fill="#56d4b7"/><path d="M783.73,391.45l-99.24,35.11c-13.86-32-45.39-72.36-116.87-102.55Z" class="d"/><path d="M709.41 383.77l-217.77-68a9.56 9.56 0 0 0-5.89.06L359.29 358.2a9.57 9.57 0 0 0-.15 18.1l208.5 73.7a9.57 9.57 0 0 0 6.38 0l135.73-48a9.57 9.57 0 0 0-.34-18.23z" stroke="#fff" class="Z a f"/><path d="M782.37 401.94l-211.6 77.59-284.14-99.21-5.2 47.99 283.45 100.12 213.89-74.9 3.6-51.59z" fill="#f0f0f1"/><path class="I b" d="M575 490.69S758.75 416 750.82 425.44 561.86 499.29 575 490.69zm52-11.12s134.73-54.73 128.92-47.83S617.4 485.88 627 479.57zm-41.33 25.07s134.73-54.73 128.92-47.84-138.54 54.14-128.92 47.84zm-4.8 8.99s172.45-70.52 164.33-62.71-177 70.27-164.33 62.71z" opacity=".5"/><path d="M286.63 380.32l284.14 99.21-5.89 48.9-283.45-100.12 5.2-47.99z" fill="#fff"/><path class="I b" d="M301 391.32s257.12 84.82 243.8 89.26-263.35-91.04-243.8-89.26zm69.17 37.13s188.52 62.19 178.75 65.44-193.07-66.74-178.75-65.44zm-60.84-8.27s188.52 62.19 178.75 65.45S295 418.88 309.33 420.18zm-9.26 7s241.46 79 228.47 81.15-247.08-83.84-228.47-81.15z" opacity=".5"/><path d="M763.45,445.48s3.84,12.07,8.84,18.87c5.25,7.13,24.48,12.46,24.37,24.24l-15.75-3.25-2,11.63s-33.59-14.84-34.15-44.85Z" class="c"/><path d="M782.37 401.94l-3.6 51.59c-21.64-20.76 3.6-51.59 3.6-51.59z" fill="#2f8971"/><g fill="#e6e6e6"><path d="M644.87 81.75l-43.57-8.53L533 389.51l24.54-16.6 87.33-291.16z"/><path d="M547,324.66a89.52,89.52,0,0,0,17.9,23.69L582.7,289l-2.67-.81-7,9.89-15.89-4.79,40.75-54.79,13.25-44.14a90,90,0,0,0-39.79,17.73Z"/><path d="M572.98 298.12l7.05-9.89 2.67.81 15.14-50.5-40.75 54.79 15.89 4.79z"/></g><path d="M640 68.17l-81.9 300.34-.73 2.64a0 0 0 0 1 0 .05 26.72 26.72 0 0 1-51.86-11.88c.06-.53.15-1.05.26-1.57h0l.26-1.17-256.4-80.64 62.28-263.45z" fill="#f2f2f2"/><path d="M558.14,368.51a21,21,0,0,1-.73,2.64Z" fill="#fff"/><path d="M303.06 49.93l226.93 77.35-236.08-38.67 9.15-38.68M533 389.51a26.7 26.7 0 0 1-11.75-25.77l.26-1.57h0l.26-1.17a19.22 19.22 0 0 1 .75-2.56l49.17-181.72c0-.21.12-.42.17-.63a35.93 35.93 0 0 0-34.66-45.37l-2.88.12-2.65.3-1.35.24-.83.18-.78.17-1.25.33-1.13.34-.76.25-1.69.63-1.22.51-1.09.51-.18.08-1 .51-.22.1-.85.48-.33.19-.93.58a.21.21 0 0 0-.12.07l-.93.62a.77.77 0 0 0-.21.14l-.87.62-.83.63-.82.66a.07.07 0 0 0 0 0c-.35.27-.67.57-1 .86l-.93.86a.77.77 0 0 0-.13.12l-.62.62a9.2 9.2 0 0 0-.68.72l-.73.79-.21.24-.7.85-.79 1-1 1.35q-.28.41-.54.81a34.92 34.92 0 0 0-2.46 4.5l-.54 1.25-.05.1-.45 1.18v.07a34.7 34.7 0 0 0-1.51 5.46h0l-.65 2.33L452.1 339.6l-.61 2.2-6.65 24 77.73 22 4.41 1.25z" fill="#e6e6e6"/><path d="M557.55 162.22a35.43 35.43 0 0 1-1.27 9.44c0 .22-.12.41-.17.63L507 354a19.08 19.08 0 0 0-.75 2.55l-.27 1.17h0l-.25 1.57a27.07 27.07 0 0 0-.23 3.5A26.73 26.73 0 0 0 523 387.9l-58.87-16.66-2.81-.79-5.2-1.47-26.81-7.58 6.65-24 49.74-179.66.64-2.32h0a37.82 37.82 0 0 1 1.51-5.47v-.06l.45-1.18a.31.31 0 0 1 .05-.1l.54-1.26a35 35 0 0 1 2.45-4.5l.54-.8a16.51 16.51 0 0 1 1-1.35l.79-1 .71-.85.2-.25.73-.78a9.2 9.2 0 0 1 .68-.72l.62-.63a.92.92 0 0 0 .13-.14l.93-.84 1-.87a.06.06 0 0 1 .06 0 9.75 9.75 0 0 1 .81-.66l.83-.63.87-.63a.72.72 0 0 1 .21-.12l.94-.63a.2.2 0 0 1 .12-.06 13.03 13.03 0 0 1 .93-.58 2.23 2.23 0 0 1 .33-.2l.85-.48.22-.1c.31-.18.64-.34 1-.5a1.51 1.51 0 0 1 .18-.09l1.09-.51 1.23-.51 1.69-.62a4.5 4.5 0 0 1 .76-.25l1.12-.34 1.26-.34a6.33 6.33 0 0 1 .78-.16l.83-.2 1.34-.23 2.65-.3 2.88-.11a36.3 36.3 0 0 1 6.31.54h0l2 .44.53.13 1.16.32 2.23.72a36 36 0 0 1 12.39 7.66l1.62 1.64a35.78 35.78 0 0 1 9.66 24.4z" fill="#659cff"/><path d="M546.3 136.12a36 36 0 0 0-26.3 22.8.21.21 0 0 0 0 .07 36.66 36.66 0 0 0-1.51 5.46h0l-.64 2.32-56.57 203.68-44.22 159.3-318.54-89.22L200.3 76.7v-.07l.84-3a36 36 0 0 1 34.16-24.76q.72 0 1.44 0A36.19 36.19 0 0 1 246 50.5h.11 0l103.49 28h.1l178.19 48.25h0l.84.23 5.11 1.38a36 36 0 0 1 12.46 7.76z" opacity=".15"/><path d="M530.24 127.11l-.25.17a35.52 35.52 0 0 0-8.37-1 35.94 35.94 0 0 0-33.75 23.58.64.64 0 0 0 0 .07 34.4 34.4 0 0 0-1.51 5.46h0l-.65 2.33-103.62 373.9-318.54-89.21L168.2 67.65v-.07l.84-3a36 36 0 0 1 34.16-24.75h1.44a35.76 35.76 0 0 1 9.24 1.58h.12 0l103.5 28h.1L496.69 118z" fill="#f2f2f2"/><g stroke-linecap="round" stroke-width="15" class="Z a"><path d="M196.69 115.52l114.41 31.64" stroke="#ccc"/><path d="M181.38 169.84l242.93 67.2m-258.24-12.87l242.94 67.19m-258.25-12.87l242.94 67.2m-258.24-12.87l242.93 67.19m-258.24-12.87l118.65 33.6" stroke="#e6e6e6"/></g><path d="M4.87,126.46,9,123.22a2.08,2.08,0,0,1,2.93.33l11.35,14.27-5.72,4.55-5.72,4.54L.45,132.65a2.1,2.1,0,0,1,.34-2.94Z" class="d"/><path d="M17.52,142.37l10.32-8.21,1.79-1.43a.83.83,0,0,1,.93-.07l12.66,7.18a.79.79,0,0,1,.24.21l69.88,87.87a.83.83,0,0,1-.13,1.17l-3.54,2.82a.87.87,0,0,1-.62.18l-5.45-.63a.78.78,0,0,1-.55-.3l-3.18-4a.84.84,0,0,1-.18-.61l.62-5.39a.84.84,0,0,0-.18-.61L41.06,146.27a.84.84,0,0,0-1.17-.14l-.89.71a.84.84,0,0,0-.14,1.17l6.1,7.68a.83.83,0,0,1-.13,1.17l-9.67,7.69-9.67,7.69a.84.84,0,0,1-1.17-.14L7.71,151.23a.84.84,0,0,1,.14-1.17Z" fill="#56d4b7"/><path d="M35.16 164.55l9.14-7.27 171.11 215.17-9.14 7.27-9.14 7.26L26.02 171.81l9.14-7.26z" fill="#e1e1e1"/><path d="M206.27,379.72l9.14-7.27,18.73,36.88a.79.79,0,0,1-.22,1l-2,1.61-2,1.61a.81.81,0,0,1-1,0L197.13,387Z" fill="#607385"/><path d="M230.29 413.22l3.02 3.8.7-.56 2.22 2.79.5-.39 1.33 1.67.74.09.09-.75-1.33-1.67.48-.38-2.22-2.8.7-.55-3.02-3.8-3.21 2.55z" fill="#1a2e35"/><path d="M164.74 308.73l-18.28 14.54m26.79-3.83l-18.27 14.53m26.79-3.82l-18.28 14.53m26.79-3.83l-18.27 14.54m26.79-3.83l-18.28 14.53" stroke="#1a2e35" stroke-width="1.92" class="Z e"/><path d="M238.01 417.742l-1.808 1.438-2.178-2.74 1.808-1.438z" fill="#607385"/><path d="M366.83 183.36l-23.27-7-7 9.89-15.9-4.78L362 125.9l17.58 5.3 3.79 69.13-16.07-4.84zm-.38-12.9l-.85-25.15-14.51 20.52zm77.81 21.78l-15.45-4.65-4.76 15.8-14.39-4.33 4.76-15.8L399 178.6l4.06-13.6 15.45 4.66 4.79-15.9 14.38 4.33L432.9 174l15.45 4.65z" class="c"/></g></svg>