<svg xmlns="http://www.w3.org/2000/svg" viewBox="0 0 801.61 625.06"><defs><style>.cls-1{isolation:isolate;}.cls-2,.cls-20,.cls-21,.cls-25,.cls-3,.cls-7{fill:none;}.cls-2{stroke:#3f4348;stroke-width:2px;}.cls-2,.cls-25{stroke-miterlimit:10;}.cls-3{stroke:#003b42;}.cls-20,.cls-21,.cls-3,.cls-7{stroke-linecap:round;stroke-linejoin:round;}.cls-4{fill:#deddef;}.cls-4,.cls-6,.cls-9{mix-blend-mode:multiply;}.cls-5{fill:#4c7fff;}.cls-6{fill:#1976bb;opacity:0.35;}.cls-7{stroke:#fff;stroke-width:1.22px;}.cls-8{fill:#f0f0f1;}.cls-9{fill:#d0d1d3;opacity:0.5;}.cls-10{fill:#fff;}.cls-11{fill:#ff6f66;}.cls-12{fill:#003774;}.cls-13{fill:#45aa92;}.cls-14{fill:#56d4b7;}.cls-15{fill:#2f8971;}.cls-16{fill:#e6e6e6;}.cls-17{fill:#f2f2f2;}.cls-18{fill:#659cff;}.cls-19{opacity:0.15;}.cls-20{stroke:#ccc;}.cls-20,.cls-21{stroke-width:15px;}.cls-21{stroke:#e6e6e6;}.cls-22{fill:#e1e1e1;}.cls-23{fill:#607385;}.cls-24{fill:#1a2e35;}.cls-25{stroke:#1a2e35;stroke-width:1.92px;}</style></defs><g class="cls-1"><g id="Layer_2" data-name="Layer 2"><g id="_7" data-name="7"><polygon class="cls-2" points="660.48 56.81 571.86 382.88 259.58 330.16 270.07 264.59 332.34 1.14 660.48 56.81"/><polygon class="cls-3" points="238.34 534.78 451.24 610.1 734.69 509.98 533.55 442.65 238.34 534.78"/><polygon class="cls-4" points="225.89 530.31 451.85 625.06 734.69 509.98 526.38 460.39 225.89 530.31"/><path class="cls-5" d="M734.69,510l-1.21-12.57L450,597.52l-213.9-74.89L232.54,471l211.59,77.59,284.14-99.21-.75-13.66L526.38,368.43,231.17,460.55s-23.68,7-16.52,41.21,23.69,33,23.69,33l212.9,75.32Z"/><polygon class="cls-5" points="231.17 460.55 444.07 535.87 727.52 435.76 526.38 368.43 231.17 460.55"/><path class="cls-6" d="M231.17,460.55l99.24,35.11c13.87-32,45.39-72.36,116.87-102.55Z"/><path class="cls-7" d="M305.5,452.86l217.77-67.95a9.56,9.56,0,0,1,5.89.06L655.62,427.3a9.57,9.57,0,0,1,.15,18.1L447.27,519a9.57,9.57,0,0,1-6.38,0L305.16,471A9.57,9.57,0,0,1,305.5,452.86Z"/><polygon class="cls-8" points="232.54 471.04 444.13 548.63 728.27 449.42 733.48 497.41 450.03 597.52 236.13 522.63 232.54 471.04"/><path class="cls-9" d="M439.92,559.78s-183.76-74.65-175.84-65.24S453,568.38,439.92,559.78Z"/><path class="cls-9" d="M387.89,548.67S253.16,493.94,259,500.83,397.51,555,387.89,548.67Z"/><path class="cls-9" d="M429.23,573.73S294.51,519,300.31,525.9,438.85,580,429.23,573.73Z"/><path class="cls-9" d="M434,582.73S261.58,512.2,269.7,520,446.71,590.29,434,582.73Z"/><polygon class="cls-10" points="728.27 449.42 444.13 548.63 450.03 597.52 733.48 497.41 728.27 449.42"/><path class="cls-9" d="M713.92,460.42s-257.13,84.82-243.8,89.26S733.46,458.64,713.92,460.42Z"/><path class="cls-9" d="M644.73,497.55S456.22,559.73,466,563,659.06,496.24,644.73,497.55Z"/><path class="cls-9" d="M705.57,489.28s-188.51,62.19-178.74,65.44S719.9,488,705.57,489.28Z"/><path class="cls-9" d="M714.84,496.28s-241.47,79-228.47,81.15S733.44,493.58,714.84,496.28Z"/><path class="cls-11" d="M251.45,514.58s-3.83,12.07-8.83,18.86c-5.25,7.14-24.48,12.46-24.37,24.24L234,554.44l2,11.63s33.59-14.85,34.15-44.86Z"/><path class="cls-12" d="M232.54,471l3.59,51.59C257.77,501.87,232.54,471,232.54,471Z"/><polygon class="cls-3" points="776.56 465.68 563.67 541 280.21 440.89 481.36 373.56 776.56 465.68"/><polygon class="cls-4" points="789.02 461.22 563.06 555.96 280.21 440.89 488.53 391.3 789.02 461.22"/><path class="cls-13" d="M280.21,440.89l1.22-12.58L564.88,528.43l213.89-74.9,3.6-51.59-211.6,77.59L286.63,380.32l.75-13.66,201.15-67.33,295.2,92.12s23.69,7,16.53,41.21-23.7,33-23.7,33L563.67,541Z"/><polygon class="cls-14" points="783.73 391.45 570.84 466.77 287.38 366.66 488.53 299.33 783.73 391.45"/><path class="cls-13" d="M783.73,391.45l-99.24,35.11c-13.86-32-45.39-72.36-116.87-102.55Z"/><path class="cls-7" d="M709.41,383.77l-217.77-68a9.56,9.56,0,0,0-5.89.06L359.29,358.2a9.57,9.57,0,0,0-.15,18.1L567.64,450a9.57,9.57,0,0,0,6.38,0l135.73-48A9.57,9.57,0,0,0,709.41,383.77Z"/><polygon class="cls-8" points="782.37 401.94 570.77 479.53 286.63 380.32 281.43 428.31 564.88 528.43 778.77 453.53 782.37 401.94"/><path class="cls-9" d="M575,490.69S758.75,416,750.82,425.44,561.86,499.29,575,490.69Z"/><path class="cls-9" d="M627,479.57s134.73-54.73,128.92-47.83S617.4,485.88,627,479.57Z"/><path class="cls-9" d="M585.67,504.64S720.4,449.91,714.59,456.8,576.05,510.94,585.67,504.64Z"/><path class="cls-9" d="M580.87,513.63s172.45-70.52,164.33-62.71S568.2,521.19,580.87,513.63Z"/><polygon class="cls-10" points="286.63 380.32 570.77 479.53 564.88 528.43 281.43 428.31 286.63 380.32"/><path class="cls-9" d="M301,391.32s257.12,84.82,243.8,89.26S281.45,389.54,301,391.32Z"/><path class="cls-9" d="M370.17,428.45s188.52,62.19,178.75,65.44S355.85,427.15,370.17,428.45Z"/><path class="cls-9" d="M309.33,420.18s188.52,62.19,178.75,65.45S295,418.88,309.33,420.18Z"/><path class="cls-9" d="M300.07,427.18s241.46,79,228.47,81.15S281.46,424.49,300.07,427.18Z"/><path class="cls-11" d="M763.45,445.48s3.84,12.07,8.84,18.87c5.25,7.13,24.48,12.46,24.37,24.24l-15.75-3.25-2,11.63s-33.59-14.84-34.15-44.85Z"/><path class="cls-15" d="M782.37,401.94l-3.6,51.59C757.13,432.77,782.37,401.94,782.37,401.94Z"/><polygon class="cls-16" points="644.87 81.75 601.3 73.22 533 389.51 557.54 372.91 644.87 81.75"/><path class="cls-16" d="M547,324.66a89.52,89.52,0,0,0,17.9,23.69L582.7,289l-2.67-.81-7,9.89-15.89-4.79,40.75-54.79,13.25-44.14a90,90,0,0,0-39.79,17.73Z"/><polygon class="cls-16" points="572.98 298.12 580.03 288.23 582.7 289.04 597.84 238.54 557.09 293.33 572.98 298.12"/><path class="cls-17" d="M640,68.17l-81.9,300.34-.73,2.64a0,0,0,0,1,0,.05,26.72,26.72,0,0,1-51.86-11.88c.06-.53.15-1.05.26-1.57v0c.08-.39.16-.78.26-1.17L249.63,275.94,311.91,12.49Z"/><path class="cls-10" d="M558.14,368.51a21,21,0,0,1-.73,2.64Z"/><polyline class="cls-16" points="303.06 49.93 529.99 127.28 293.91 88.61 303.06 49.93"/><path class="cls-16" d="M533,389.51a26.7,26.7,0,0,1-11.75-25.77c.07-.53.16-1.05.26-1.57h0c.08-.4.16-.79.26-1.17a19.22,19.22,0,0,1,.75-2.56l49.17-181.72c0-.21.12-.42.17-.63a35.93,35.93,0,0,0-34.66-45.37c-1,0-1.93,0-2.88.12s-1.79.17-2.65.3c-.45.07-.91.15-1.35.24l-.83.18-.78.17c-.42.11-.84.21-1.25.33s-.75.22-1.13.34l-.76.25c-.57.2-1.13.4-1.69.63-.41.16-.81.33-1.22.51s-.73.33-1.09.51l-.18.08c-.33.17-.66.33-1,.51l-.22.1-.85.48-.33.19-.93.58a.21.21,0,0,0-.12.07c-.32.2-.63.41-.93.62a.77.77,0,0,0-.21.14c-.29.19-.59.41-.87.62s-.56.41-.83.63-.56.43-.82.66a.07.07,0,0,0,0,0c-.35.27-.67.57-1,.86s-.63.57-.93.86a.77.77,0,0,0-.13.12c-.22.2-.42.42-.62.62a9.2,9.2,0,0,0-.68.72c-.25.26-.49.52-.73.79l-.21.24c-.23.29-.47.57-.7.85s-.54.67-.79,1-.67.88-1,1.35q-.28.41-.54.81a34.92,34.92,0,0,0-2.46,4.5c-.19.41-.37.83-.54,1.25l-.05.1c-.16.4-.3.78-.45,1.18,0,0,0,.05,0,.07a34.7,34.7,0,0,0-1.51,5.46h0l-.65,2.33L452.1,339.6l-.61,2.2-6.65,24,77.73,22,4.41,1.25Z"/><path class="cls-18" d="M557.55,162.22a35.43,35.43,0,0,1-1.27,9.44c0,.22-.12.41-.17.63L507,354a19.08,19.08,0,0,0-.75,2.55c-.11.39-.18.77-.27,1.17h0c-.1.52-.19,1.05-.25,1.57a27.07,27.07,0,0,0-.23,3.5A26.73,26.73,0,0,0,523,387.9l-58.87-16.66-2.81-.79-5.2-1.47-26.81-7.58,6.65-24L485.7,157.74l.64-2.32v0a37.82,37.82,0,0,1,1.51-5.47s0,0,0-.06c.15-.39.29-.79.45-1.18a.31.31,0,0,1,.05-.1c.16-.42.35-.84.54-1.26a35,35,0,0,1,2.45-4.5c.17-.26.35-.53.54-.8a16.51,16.51,0,0,1,1-1.35c.25-.35.53-.7.79-1s.47-.57.71-.85l.2-.25c.24-.28.48-.53.73-.78a9.2,9.2,0,0,1,.68-.72l.62-.63a.92.92,0,0,0,.13-.14l.93-.84c.33-.3.66-.59,1-.87a.06.06,0,0,1,.06,0,9.75,9.75,0,0,1,.81-.66c.28-.21.55-.44.83-.63l.87-.63a.72.72,0,0,1,.21-.12c.31-.22.61-.43.94-.63a.2.2,0,0,1,.12-.06c.3-.21.62-.4.93-.58a2.23,2.23,0,0,1,.33-.2c.28-.17.56-.32.85-.48l.22-.1c.31-.18.64-.34,1-.5a1.51,1.51,0,0,1,.18-.09c.37-.18.73-.36,1.09-.51s.82-.35,1.23-.51,1.11-.43,1.69-.62a4.5,4.5,0,0,1,.76-.25c.38-.12.75-.24,1.12-.34s.83-.23,1.26-.34a6.33,6.33,0,0,1,.78-.16l.83-.2,1.34-.23c.87-.12,1.75-.24,2.65-.3s1.9-.11,2.88-.11a36.3,36.3,0,0,1,6.31.54h0c.69.12,1.36.27,2,.44l.53.13,1.16.32c.76.22,1.49.46,2.23.72a36,36,0,0,1,12.39,7.66c.55.53,1.09,1.08,1.62,1.64A35.78,35.78,0,0,1,557.55,162.22Z"/><path class="cls-19" d="M546.3,136.12A36,36,0,0,0,520,158.92a.21.21,0,0,0,0,.07,36.66,36.66,0,0,0-1.51,5.46h0l-.64,2.32L461.28,370.45l-44.22,159.3L98.52,440.53,200.3,76.7s0,0,0-.07c.24-1,.52-2,.84-3a36,36,0,0,1,34.16-24.76q.72,0,1.44,0A36.19,36.19,0,0,1,246,50.5l.11,0h0l103.49,28,.1,0,178.19,48.25h0l.84.23,5.11,1.38A36,36,0,0,1,546.3,136.12Z"/><path class="cls-17" d="M530.24,127.11l-.25.17a35.52,35.52,0,0,0-8.37-1,35.94,35.94,0,0,0-33.75,23.58.64.64,0,0,0,0,.07,34.4,34.4,0,0,0-1.51,5.46h0l-.65,2.33L382.09,531.62,63.55,442.41,168.2,67.65s0-.05,0-.07c.24-1,.53-2,.84-3a36,36,0,0,1,34.16-24.75c.48,0,1,0,1.44,0a35.76,35.76,0,0,1,9.24,1.58l.12,0h0l103.5,28,.1,0L496.69,118Z"/><line class="cls-20" x1="196.69" y1="115.52" x2="311.1" y2="147.16"/><line class="cls-21" x1="181.38" y1="169.84" x2="424.31" y2="237.04"/><line class="cls-21" x1="166.07" y1="224.17" x2="409.01" y2="291.36"/><line class="cls-21" x1="150.76" y1="278.49" x2="393.7" y2="345.69"/><line class="cls-21" x1="135.46" y1="332.82" x2="378.39" y2="400.01"/><line class="cls-21" x1="120.15" y1="387.14" x2="238.8" y2="420.74"/><path class="cls-13" d="M4.87,126.46,9,123.22a2.08,2.08,0,0,1,2.93.33l11.35,14.27-5.72,4.55-5.72,4.54L.45,132.65a2.1,2.1,0,0,1,.34-2.94Z"/><path class="cls-14" d="M17.52,142.37l10.32-8.21,1.79-1.43a.83.83,0,0,1,.93-.07l12.66,7.18a.79.79,0,0,1,.24.21l69.88,87.87a.83.83,0,0,1-.13,1.17l-3.54,2.82a.87.87,0,0,1-.62.18l-5.45-.63a.78.78,0,0,1-.55-.3l-3.18-4a.84.84,0,0,1-.18-.61l.62-5.39a.84.84,0,0,0-.18-.61L41.06,146.27a.84.84,0,0,0-1.17-.14l-.89.71a.84.84,0,0,0-.14,1.17l6.1,7.68a.83.83,0,0,1-.13,1.17l-9.67,7.69-9.67,7.69a.84.84,0,0,1-1.17-.14L7.71,151.23a.84.84,0,0,1,.14-1.17Z"/><polygon class="cls-22" points="35.16 164.55 44.3 157.28 215.41 372.45 206.27 379.72 197.13 386.98 26.02 171.81 35.16 164.55"/><path class="cls-23" d="M206.27,379.72l9.14-7.27,18.73,36.88a.79.79,0,0,1-.22,1l-2,1.61-2,1.61a.81.81,0,0,1-1,0L197.13,387Z"/><polygon class="cls-24" points="230.29 413.22 233.31 417.02 234.01 416.46 236.23 419.25 236.73 418.86 238.06 420.53 238.8 420.62 238.89 419.87 237.56 418.2 238.04 417.82 235.82 415.02 236.52 414.47 233.5 410.67 230.29 413.22"/><line class="cls-25" x1="164.74" y1="308.73" x2="146.46" y2="323.27"/><line class="cls-25" x1="173.25" y1="319.44" x2="154.98" y2="333.97"/><line class="cls-25" x1="181.77" y1="330.15" x2="163.49" y2="344.68"/><line class="cls-25" x1="190.28" y1="340.85" x2="172.01" y2="355.39"/><line class="cls-25" x1="198.8" y1="351.56" x2="180.52" y2="366.09"/><rect class="cls-23" x="234.86" y="415.36" width="2.31" height="3.5" transform="translate(680.35 596.68) rotate(141.51)"/><path class="cls-11" d="M366.83,183.36l-23.27-7-7,9.89-15.9-4.78L362,125.9l17.58,5.3,3.79,69.13-16.07-4.84Zm-.38-12.9-.85-25.15-14.51,20.52Z"/><path class="cls-11" d="M444.26,192.24l-15.45-4.65-4.76,15.8-14.39-4.33,4.76-15.8L399,178.6,403.06,165l15.45,4.66,4.79-15.9,14.38,4.33L432.9,174l15.45,4.65Z"/></g></g></g></svg>