<svg xmlns="http://www.w3.org/2000/svg" xmlns:xlink="http://www.w3.org/1999/xlink" viewBox="0 0 691.13 759.59" xmlns:v="https://vecta.io/nano"><style><![CDATA[.B{isolation:isolate}.m{mix-blend-mode:multiply}.v{fill:none}.w{stroke-miterlimit:10}.x{stroke-width:1.38}.y{stroke:#a1bedb}.z{stroke:#d0e6f6}.AA{fill:#f1b2a2}.AB{stroke-width:2}.AC{stroke-width:1.26}.AD{fill:#ffd3c8}.AE{stroke:#301913}.AF{fill:#7fc1ff}.AG{fill:#3e6c98}.AH{fill:#a1bedb}.AI{stroke-width:5}.AJ{stroke-linecap:round}]]></style><defs><linearGradient id="A" x1="6017.54" y1="181.82" x2="6017.77" y2="177.64" gradientTransform="matrix(93.47, 0, 0, -51.5, -562187.06, 9539.53)" gradientUnits="userSpaceOnUse"><stop offset="0" stop-color="#d3f7ff"/><stop offset="1" stop-color="#dff4ff"/></linearGradient><linearGradient id="B" gradientTransform="matrix(93.47, 0, 0, -51.5, -562187.9, 9539.53)" xlink:href="#A"/><clipPath id="C"><path d="M419.35,696.93l-1,20.09,19,13.05s11.21,5,17-.49S459,709.41,459,709.41l.31-14.87Z" class="v"/></clipPath><clipPath id="D"><path d="M459.47,715.4s-5.92,1.48-10.61,2.93c-16.62,5.15-30.38,1.22-30.38-6.75,0,0-59.16,11-52.59,32.82h89.69a4.15,4.15,0,0,0,4.15-4.14v0Z" class="v"/></clipPath><clipPath id="E"><path d="M297.85,701.07l-1,15.95,19,13.05s13.71.8,18.06-3.37,3.46-17.29,3.46-17.29l.31-14.87Z" class="v"/></clipPath><clipPath id="F"><path d="M338,716.79a37.94,37.94,0,0,0-11.23,1.07c-15.85,4.74-29.76,1.51-29.76-6.28,0,0-59,12.08-52.6,32.82h89.7a4.14,4.14,0,0,0,4.14-4.14v0Z" class="v"/></clipPath><clipPath id="G"><path d="M590.41,273.33l1.57-20a9,9,0,0,1-8.15-6.06,236.4,236.4,0,0,1-5.2-23.54c9.52-5.44,4.51-18.54,0-17.45s-5.14,10.9-6.73,10.78,0-10.78,0-10.78c-9.17-1-5.84-12.87-5.84-12.87-15.45-1.41-22.28-8.2-22.28-8.2s-2.73,13-4.54,25.21c-.64,4.28-6.17,12.62-6.55,14.21S537,228,537,228s-.77,30.44,22.49,30.44l-1.66,21.44Z" class="v"/></clipPath><clipPath id="H"><path d="M466.93,400.21s-3.8,1.56-13.22-3-20.14-3.09-20.87-3.61,2.74-10.7,20.16-5.35c0,0-11.65-19.35-23.2-23.34s-2.66-5-2.66-5-1.28-2.84,3.49-2.61a18.62,18.62,0,0,1,7.81,2s-1.47-3.68,2.62-2.83a39.24,39.24,0,0,1,10.19,4.95s-8-6.28-8-8,2.1-1.2,3.14,0,26,16.26,29.24,22.24,11.73,9,11.73,9Z" class="v"/></clipPath><clipPath id="I"><path d="M409.41,533s-2.59,52.38-2.59,80.7,2.59,85,2.59,85h53.44l4.56-167.41-55.26-.91Z" class="v"/></clipPath><clipPath id="J"><path d="M595.58 478.82S330.83 457 295.28 487s-5.08 214.11-5.08 214.11h53s-2.2-154.54 6.37-157.32c3.62-1.17 21.11.73 53.05 1 18.57.18 172.52-1 172.52-1s20.44-3.27 24.72-23.85-4.28-41.12-4.28-41.12z" class="v"/></clipPath><clipPath id="K"><path d="M653.94 326.82s-3.72-37.21-30-47-50.1-13.12-89.59 4.08-74.7 139.53-81.28 143.1l-66.7-37-19.11 25.43s84.26 80.91 109.63 62.86l16.65.87 105 5.65s22.88-6.89 34.09-38.83 21.31-119.16 21.31-119.16z" class="v"/></clipPath><clipPath id="L"><path d="M382.45 395.06s-10.08-18.2-16.59-21.51-37.19-21.13-39.59-18.17 6.73 9.19 16.44 14.62-21.73-8.49-24.1-7.69-4 3.08 0 6a3.73 3.73 0 0 0-1.11 5.16 3.6 3.6 0 0 0 1.18 1.15l14.82 11.13s-12.65-5.2-13.73-4c-.54.57 4.47 6.27 22.94 16.9 6.53 3.75 27.12 13 27.12 13z" class="v"/></clipPath><clipPath id="M"><path d="M397.1 310.79c.57 3.58-3.56 6.72-9.23 7h-.86l-198.33.07c-5.42 0-10-2.67-10.4-6.09L175.79 290 143.46 26.5c-.4-3.58 3.85-6.66 9.52-6.87l198.23-.07c5.3 0 9.83 2.56 10.35 5.9l34.69 279.71z" class="v"/></clipPath></defs><g class="B"><path d="M291.29 384.13H229l17.26-37.28h61.43l-16.42 37.28zm-19.9-26.49a6.91 6.91 0 1 0 6.9 6.91 6.9 6.9 0 0 0-6.9-6.91z" class="AF"/><path d="M236.84,346.85,225,370.2A14.35,14.35,0,0,0,237.85,391h14.8v-7.47l-14.34-.15a5.51,5.51,0,0,1-4.95-7.81l13.08-28.75Z" class="AG"/><path d="M251.28 383.57l63.19.54a1.55 1.55 0 0 1 1.53 1.54v3.84a1.54 1.54 0 0 1-1.54 1.54h-63.19a1.54 1.54 0 0 1-1.54-1.54v-4.39a1.53 1.53 0 0 1 1.55-1.53z" fill="#5185b7"/><g class="AG"><path d="M136,177.82a6.9,6.9,0,0,1,6.06-7.65,7.16,7.16,0,0,1,.8,0h245a6.92,6.92,0,0,1,6.86,6.16l18.41,168.44a6.89,6.89,0,0,1-6.11,7.61,6.28,6.28,0,0,1-.75,0h-244a6.89,6.89,0,0,1-6.86-6.11Z"/><path d="M420.09 339.28A14.48 14.48 0 0 1 406 352.37c-13.14.77 14.09-13.09 14.09-13.09zM154.73 168.74s-18.76-.39-18.76 7.9 18.76-7.9 18.76-7.9z"/></g><path d="M142.94,176.46a6.91,6.91,0,0,1,6.05-7.67,7.34,7.34,0,0,1,.81,0h245a6.9,6.9,0,0,1,6.86,6.14l18.37,164.3a6.9,6.9,0,0,1-6.09,7.63,6.79,6.79,0,0,1-.78,0h-244a6.91,6.91,0,0,1-6.86-6.09Z" class="AF"/><g opacity=".77"><path d="M151.21,181.84a5.52,5.52,0,0,1,4.81-6.15,5.12,5.12,0,0,1,.67,0H390a5.51,5.51,0,0,1,5.49,4.94l13.76,131.17a5.52,5.52,0,0,1-5.49,6.1h-231a5.53,5.53,0,0,1-5.48-4.85Z" fill="url(#A)"/><path d="M156.69 177a4.13 4.13 0 0 0-4.11 4.64l16.08 131.17a4.15 4.15 0 0 0 4.11 3.64h231a4.14 4.14 0 0 0 4.12-4.58l-13.78-131.13A4.13 4.13 0 0 0 390 177H156.69m0-1.38H390a5.51 5.51 0 0 1 5.49 4.94l13.77 131.17a5.53 5.53 0 0 1-5.5 6.1h-231a5.52 5.52 0 0 1-5.48-4.85l-16.07-131.14a5.52 5.52 0 0 1 5.48-6.19z" fill="url(#B)"/></g><path d="M11.61 463.67v273.42m97.27-273.42v273.42" stroke="#607385" stroke-width="5.52" class="v w AJ"/><path d="M0 390.77h111.64v18.78H0z" class="AH"/><path d="M110.54 408.44h165.8v65.17h-165.8z" fill="#d0e6f6"/><path d="M7.74 408.44h103.9v65.17H7.74z" class="AH"/><path d="M7.74 409.55h103.9v14.36H7.74z" fill="#91adc8"/><path d="M110.54 409.55h165.8v14.36h-165.8z" class="AH"/><g stroke="#7c95ac" class="v w x"><path d="M122.28 403.61H264.6v59.37H122.28z"/><rect x="175.34" y="435.64" width="40.62" height="9.66" rx="1.52"/></g><path d="M110.54 390.77h477.72v18.78H110.54z" fill="#d0e6f6"/><path d="M209.68 382.59h259.83v8.18H209.68z" fill="#5185b7"/><path d="M156.38 379.75l53.3 2.92v8.1h-53c-1.17 0-2.11-1.43-2.11-3.19v-5.17c-.01-1.5.82-2.71 1.81-2.66z" class="AG"/><path d="M154.56 379.65h259.86l55.09 2.94H209.68l-55.12-2.94z" class="AF"/><path d="M419.35,696.93l-1,20.09,19,13.05s11.21,5,17-.49S459,709.41,459,709.41l.31-14.87Z" class="AD"/><g clip-path="url(#C)" class="AA"><path d="M417,697.18l48.73,12.23V689.17Z"/></g><path d="M459.47,715.4s-5.92,1.48-10.61,2.93c-16.62,5.15-30.38,1.22-30.38-6.75,0,0-59.16,11-52.59,32.82h89.69a4.15,4.15,0,0,0,4.15-4.14v0Z" fill="#2a3756"/><g clip-path="url(#D)"><path d="M360.36 740.26h107.69v19.33H360.36z" fill="#fff9f9"/></g><path d="M297.85,701.07l-1,15.95,19,13.05s13.71.8,18.06-3.37,3.46-17.29,3.46-17.29l.31-14.87Z" class="AD"/><g clip-path="url(#E)" class="AA"><path d="M289.94,697.18l48.74,12.23V689.17Z"/></g><path d="M338,716.79a37.94,37.94,0,0,0-11.23,1.07c-15.85,4.74-29.76,1.51-29.76-6.28,0,0-59,12.08-52.6,32.82h89.7a4.14,4.14,0,0,0,4.14-4.14v0Z" fill="#2a3756"/><g clip-path="url(#F)"><path d="M236.1 740.26h107.69v19.33H236.1z" fill="#fff9f9"/></g><path d="M544.3,184.54s-12.35-17.31,1.45-29.12,74.61,9.79,71.16,32.37c0,0,25.33,16.7-25.35,66,0,0-6.08.6-7.46-1.15L549,198.48Z" fill="#4c2603"/><circle cx="537.09" cy="204.55" r="8.28" stroke="#061537" class="v x"/><path d="M590.41,273.33l1.57-20a9,9,0,0,1-8.15-6.06,236.4,236.4,0,0,1-5.2-23.54c9.52-5.44,4.51-18.54,0-17.45s-5.14,10.9-6.73,10.78,0-10.78,0-10.78c-9.17-1-5.84-12.87-5.84-12.87-15.45-1.41-22.28-8.2-22.28-8.2s-2.73,13-4.54,25.21c-.64,4.28-6.17,12.62-6.55,14.21S537,228,537,228s-.77,30.44,22.49,30.44l-1.66,21.44Z" class="AD"/><g clip-path="url(#G)" class="AA"><path d="M559.53 258.48s7.87-2.32 9.79-5.89c0 0-1.9 13.14-13.23 16.42s3.44-10.53 3.44-10.53z"/></g><path d="M528.8,203.17l48.33,1.38" stroke="#061537" class="v w x"/><path d="M466.93,400.21s-3.8,1.56-13.22-3-20.14-3.09-20.87-3.61,2.74-10.7,20.16-5.35c0,0-11.65-19.35-23.2-23.34s-2.66-5-2.66-5-1.28-2.84,3.49-2.61a18.62,18.62,0,0,1,7.81,2s-1.47-3.68,2.62-2.83a39.24,39.24,0,0,1,10.19,4.95s-8-6.28-8-8,2.1-1.2,3.14,0,26,16.26,29.24,22.24,11.73,9,11.73,9Z" class="AD"/><g clip-path="url(#H)" class="AA"><path d="M475.63,373l-19.09,29.64,24,3.06Z"/></g><path d="M426.63 360.57s12.28 2.08 19.33 8.28m-8.28-9.66a40.09 40.09 0 0 1 12.42 6.9" class="v w x AE"/><path d="M409.41,533s-2.59,52.38-2.59,80.7,2.59,85,2.59,85h53.44l4.56-167.41-55.26-.91Z" fill="#955454"/><g clip-path="url(#I)"><path d="M471 535.21l-64.18 165.63-3.66-170.46z" fill="#834e4e"/></g><path d="M595.58 478.82S330.83 457 295.28 487s-5.08 214.11-5.08 214.11h53s-2.2-154.54 6.37-157.32c3.62-1.17 21.11.73 53.05 1 18.57.18 172.52-1 172.52-1s20.44-3.27 24.72-23.85-4.28-41.12-4.28-41.12z" fill="#955454"/><g clip-path="url(#J)"><path d="M442.42,472.49s-6.5,25.9-6.5,38c0,6.13-44.8-6.11-96.1,3.37-14.74,2.72-26.13,14.7-26.13,14.7s-2.75,5.35-1.74,48.25,5.93,130.23,5.93,130.23l48.42-3.27,6.14-151,235.37-1.66,21.51-78.6Z" fill="#834e4e"/></g><path d="M316.55 686.41L312 537.18c0-41.41 112.27-24.43 141.81-24.43S477 477.57 477 477.57s13.64-9.34 42-67.29 48.31-97.37 18.49-117.36M333.08 563.53a13.7 13.7 0 0 0 12.09-13s-10 2.48-19.33-7.71M288.56 687.1h53.85m66.27 0h53.85" class="v w x AE"/><path d="M593.57,272.28s2.3-11.19-37.67,0a31.91,31.91,0,0,0-4.38,4.69,26.59,26.59,0,0,0-2,6.28Z" fill="#fff"/><path d="M653.94 326.82s-3.72-37.21-30-47-50.1-13.12-89.59 4.08-74.7 139.53-81.28 143.1l-66.7-37-19.11 25.43s84.26 80.91 109.63 62.86l16.65.87 105 5.65s22.88-6.89 34.09-38.83 21.31-119.16 21.31-119.16z" fill="#659cff"/><g clip-path="url(#K)"><g fill="#4c7fff"><path d="M639.89 287.38s6.16 15.76 7 22.12A182.28 182.28 0 0 1 646 335c-.62 8.62 2.93 105.49 2.93 105.49l15-104.85-10-38.77zm-85.41 70.17s-17.05 37.28-25 52.41C523 422.2 518.73 432.81 511.7 442c-23.57 30.93-35.61 37.36-35.61 37.36L498.9 484s20.79 2.21 30.56-24 25.02-102.45 25.02-102.45z"/></g><path d="M395.63,394.32l-28.37,37.42-7-11.56,30.89-40.45Z" fill="#fff"/><path d="M549.51 313.63s13.06 13.71 4.34 42.13c-1.85 6-54.52 146.28-49.25 147.47 3.59.8 112.39 37.38 142.94 11.14 18.63-16-1.07-175.1 4.37-176.8 14-4.38-65.24.28-84.84-16.42-5.31-4.52-17.56-7.52-17.56-7.52z" fill="#4c7fff"/></g><g class="v w x AE"><path d="M639.26 291.53a62.75 62.75 0 0 1 6.5 44.19m-154.99 5.04l-23.25 51.68c-8.88 22.62-12.9 34.91-14.71 34.39-4.26-1.23-66.49-36.83-66.49-36.83l-19.06 25.3m85.38 11.54a18.68 18.68 0 0 0 1.6 15.19"/><path d="M452.86 426.84s-11.73 3.71-11 12.43m67.61 6.9l23.51-43.9c20.09-40 34.59-71.17 16.74-90"/></g><path d="M350.69 365.46s-.06-4.68 3.36-3.12 16.42 9.79 17.32 17.08-20.68-13.96-20.68-13.96z" class="AA"/><path d="M382.45 395.06s-10.08-18.2-16.59-21.51-37.19-21.13-39.59-18.17 6.73 9.19 16.44 14.62-21.73-8.49-24.1-7.69-4 3.08 0 6a3.73 3.73 0 0 0-1.11 5.16 3.6 3.6 0 0 0 1.18 1.15l14.82 11.13s-12.65-5.2-13.73-4c-.54.57 4.47 6.27 22.94 16.9 6.53 3.75 27.12 13 27.12 13z" class="AD"/><g clip-path="url(#L)" class="AA"><path d="M383.93,393.39l-27.42,18.26,14.89,3.56Z"/></g><path d="M318.94 368.85l23.47 12.43m8.28-16.57s19 9 20.71 13.81" class="v w x AE"/><path d="M517.52,566l7.66,151.12a4.14,4.14,0,0,0,8.26.1l11.78-154.62Z"/><path d="M481.86 740.26a64.65 64.65 0 0 1 96.13-2l1.9 2zm0-154.99a64.65 64.65 0 0 0 96.13 2l1.9-2z"/><path d="M599 334.69c-35.22-8.23-54.77 13.73-59.08 47.93s-3.51 129.1-125.74 155.31a78 78 0 0 1-20.11 3.07c-16.09 0-21.4-.32-22.46 4.51-2.3 10.4 20.1 8.58 20.1 8.58s65.75 47.18 167.89 40.31 100-76.51 100-89.77-4.46-58.1 17.82-94.05 15.17-69.93-5.67-73.73-37.51 6.07-72.75-2.16z" fill="#ff6f66"/><path d="M674.78 360.07s-4.89-13.56-22.45-8.28-40 .47-58.47-2.77-37.86-3.14-39 37.12S535 511 476.51 528.83m-101.65 23.84s26.81 6 61.25-7.73" stroke="#701f1a" class="v w x"/><image class="m" width="300" height="345" transform="translate(116.77)" opacity=".3"/><g clip-path="url(#M)"><rect x="195.65" y="118.99" width="175.79" height="248.62" rx="6.47" fill="#fff"/><g stroke-linejoin="round" class="v AJ"><path d="M207.14 137.06h46.92" class="y AI"/><g class="z"><g class="AB"><path d="M220.91 145.26h140.24m-155.21 3.77h155.21m-155.21 3.77h155.21m-155.21 3.77h155.21"/></g><g class="AC"><path d="M225.91 166.05h61.15m-61.15 3.77h61.15m-61.15 3.77h61.15"/></g><path d="M205.94 160.34h48.12" class="AB"/></g><path d="M207.14 183.83h46.92" class="y AI"/><g class="z AB"><path d="M215.71 192.03h91.49m-101.26 3.77H307.2m-101.26 3.77H307.2m-101.26 3.77H307.2m-101.26 3.77h48.12"/></g><path d="M207.14 296.57h46.92" class="y AI"/><g class="z AB"><path d="M220.91 304.76h140.24m-155.21 3.77h155.21m-155.21 3.77h155.21m-155.21 3.77h155.21m-155.21 3.77h48.12m-24.59-80.63h131.68m-145.73 3.77h145.73m-145.73 3.77h145.73m-145.73 3.77h145.73m-145.73 3.77h48.12"/></g><path d="M216.29 231.7h34.2" stroke-width="4" class="y"/><g class="z AB"><path d="M229.47 270.77h131.68m-145.73 3.77h145.73m-145.73 3.76h145.73m-145.73 3.77h145.73m-145.73 3.77h48.12"/></g><path d="M216.29 263.25h34.2" stroke-width="4" class="y"/><g class="z AB"><path d="M215.71 214.67h91.49m-101.26 3.76H307.2m-101.26 3.77h48.12"/></g><g class="y AC"><path d="M221.38 166.05h0m0 3.77h0m0 3.77h0"/></g><g class="z AC"><path d="M225.91 327.37h39.55m-39.55 3.77h39.55m-39.55 3.77h39.55"/></g><g class="y AC"><path d="M221.38 327.37h0m0 3.77h0m0 3.77h0"/></g><g class="z AC"><path d="M282.82 327.37h39.55m-39.55 3.77h39.55m-39.55 3.77h39.55"/></g><g class="y AC"><path d="M278.29 327.37h0m0 3.77h0m0 3.77h0"/></g></g><path d="M361.15 186.32v42.88a2.49 2.49 0 0 1-2.49 2.49h-42.88a2.48 2.48 0 0 1-2.49-2.49v-42.88a2.48 2.48 0 0 1 2.49-2.49h42.88a2.49 2.49 0 0 1 2.49 2.49z" fill="#f2f2f2"/><path d="M361.15,223.15v6a2.49,2.49,0,0,1-2.49,2.49H315.78a2.48,2.48,0,0,1-2.49-2.49v-7.29l9.8-9.8,5.6,5.61,13.52-13.52Z" fill="#e6e6e6"/></g></g></svg>