<svg xmlns="http://www.w3.org/2000/svg" xmlns:xlink="http://www.w3.org/1999/xlink" viewBox="0 0 568.18 625.39"><defs><style>.cls-1{fill:#ffd3c8;}.cls-2{fill:#cae9ff;opacity:0.5;}.cls-3{fill:#2a3756;}.cls-4,.cls-9{fill:#fff;}.cls-5{fill:#4bc5a9;}.cls-6{fill:#56d4b7;}.cls-7{fill:#fafafa;}.cls-8{fill:#ffe39b;}.cls-10,.cls-13,.cls-9{stroke:#1a2e35;}.cls-10,.cls-12,.cls-13,.cls-9{stroke-linecap:round;}.cls-10,.cls-12,.cls-13,.cls-18,.cls-9{stroke-miterlimit:10;}.cls-10{fill:#1a2e35;}.cls-11{opacity:0.3;}.cls-12,.cls-13,.cls-18{fill:none;}.cls-12{stroke:#000;}.cls-14{clip-path:url(#clip-path);}.cls-15{fill:#af0;}.cls-16{fill:#f1b2a2;}.cls-17{fill:#d89b8f;}.cls-18{stroke:#301913;stroke-width:0.5px;}.cls-19{clip-path:url(#clip-path-2);}.cls-20{fill:#ff6f66;}.cls-21{clip-path:url(#clip-path-3);}</style><clipPath id="clip-path"><path class="cls-1" d="M552.51,596.07A21.82,21.82,0,0,0,562.06,566c-18.36-33.59-53.72-98.81-57.92-110.65-5.71-16.08-4.49-132.51-1.63-149.15s-3.87-24.74-23.1-30.39-87.3-40-97.45-42S322.47,262.82,303,279,317.1,318.28,341,349.94s35.1,110.32,35.1,110.32l88,152.12a26,26,0,0,0,34,10.35Z"/></clipPath><clipPath id="clip-path-2"><path class="cls-1" d="M421.19,343.21s-22.94,5.38-33.18,3-31.2-31.88-45.57-41.57-23.14-12-38.2-14.26-25.44,5-22.21,18.77,20.71,30.46,33.46,41.5,24.94,30,32.51,51.89,12.31,42.12,29.13,64.3S415,498.08,422,499.32"/></clipPath><clipPath id="clip-path-3"><path class="cls-1" d="M502.25,301l2.75-8.87c2.76-8.88.66-21.94-6.89-29.36s-34.33-20.49-42.23-27.35-66.61-48.72-77.16-46.25-23,17.5-33.62,25.8-48.8,39.53-48.8,39.53-26.79,11.61-25.5,17.12,6.79,12.44,23.6,11.88,44.82-17.3,49.08-19.75,30.68-19.79,30.68-19.79,10.81,11,23.3,16.79,14.08,6.38,14.08,6.38S414.8,278.89,424,285"/></clipPath></defs><g id="Layer_2" data-name="Layer 2"><g id="_7" data-name="7"><path class="cls-2" d="M423.18,39.26a1.92,1.92,0,0,0,1.57-2.39,2,2,0,0,0-2.27-1.4l-7.56,1.18-.23-1.47L422.25,34A2,2,0,0,0,424,32a1.93,1.93,0,0,0-2.22-1.81l-7.68,1.19-1.64-10.56L389.42,0,87.88,554.22l15.57,10.51A23.13,23.13,0,0,0,120,568.42L488.74,511l-4.22-27.11,7.57-1.18a2,2,0,0,0,1.73-2,1.92,1.92,0,0,0-2.22-1.8l-7.67,1.19-.23-1.46,7.57-1.18a2,2,0,0,0,1.73-2,1.93,1.93,0,0,0-2.22-1.81l-7.67,1.2-2.22-14.26,7.56-1.18a2,2,0,0,0,1.74-2,1.92,1.92,0,0,0-2.22-1.8l-7.67,1.19-.23-1.46,7.56-1.18a2,2,0,0,0,1.74-2,1.93,1.93,0,0,0-2.22-1.81l-7.68,1.2-2.21-14.26,7.56-1.18a2,2,0,0,0,1.74-2,1.92,1.92,0,0,0-2.22-1.8l-7.68,1.19-.22-1.46,7.56-1.18a2,2,0,0,0,1.74-2,1.93,1.93,0,0,0-2.22-1.81l-7.68,1.2-2.22-14.26,7.57-1.18a2,2,0,0,0,1.74-2,1.93,1.93,0,0,0-2.23-1.8L473,410.09l-.23-1.46,7.57-1.18a2,2,0,0,0,1.74-2,1.94,1.94,0,0,0-2.23-1.81l-7.67,1.2L470,390.56l7.57-1.18a2,2,0,0,0,1.73-2,1.91,1.91,0,0,0-2.22-1.8l-7.67,1.19-.23-1.46,7.57-1.18a2,2,0,0,0,1.73-2,1.93,1.93,0,0,0-2.22-1.81l-7.67,1.2-2.22-14.26,7.56-1.18a2,2,0,0,0,1.74-2,1.91,1.91,0,0,0-2.22-1.8l-7.67,1.19-.23-1.46,7.56-1.18a2,2,0,0,0,1.74-2,1.93,1.93,0,0,0-2.22-1.81l-7.67,1.2-2.22-14.26,7.56-1.18a2,2,0,0,0,1.74-2,1.92,1.92,0,0,0-2.22-1.8l-7.68,1.19-.22-1.46,7.56-1.18a2,2,0,0,0,1.74-2A1.93,1.93,0,0,0,469,333.6l-7.68,1.2-2.22-14.26,7.57-1.18a2,2,0,0,0,1.74-2,1.92,1.92,0,0,0-2.22-1.8l-7.68,1.19-.23-1.47,7.57-1.17a2,2,0,0,0,1.74-2,1.94,1.94,0,0,0-2.23-1.81l-7.67,1.2-2.22-14.26L463,296a2,2,0,0,0,1.74-2,1.93,1.93,0,0,0-2.23-1.8l-7.67,1.19-.23-1.47,7.57-1.17a2,2,0,0,0,1.73-2,1.93,1.93,0,0,0-2.22-1.81l-7.67,1.2-2.22-14.26,7.57-1.18a2,2,0,0,0,1.73-2,1.91,1.91,0,0,0-2.22-1.8l-7.67,1.19-.23-1.47,7.56-1.17a2,2,0,0,0,1.74-2,1.93,1.93,0,0,0-2.22-1.81l-7.67,1.2-2.22-14.26,7.56-1.18a2,2,0,0,0,1.74-2,1.91,1.91,0,0,0-2.22-1.8l-7.67,1.19-.23-1.47,7.56-1.17a2,2,0,0,0,1.74-2,1.93,1.93,0,0,0-2.22-1.81l-7.68,1.2-2.21-14.26,7.56-1.18a2,2,0,0,0,1.74-2,1.92,1.92,0,0,0-2.22-1.8L444,223.37l-.22-1.47,7.56-1.17a2,2,0,0,0,1.74-2,1.94,1.94,0,0,0-2.22-1.81l-7.68,1.2-2.22-14.26,7.57-1.18a2,2,0,0,0,1.74-2,1.93,1.93,0,0,0-2.23-1.8L440.34,200l-.23-1.47,7.57-1.17a2,2,0,0,0,1.74-2,1.94,1.94,0,0,0-2.23-1.81l-7.67,1.19L437.3,180.5l7.57-1.18a2,2,0,0,0,1.73-2,1.91,1.91,0,0,0-2.22-1.8l-7.67,1.19-.23-1.47,7.57-1.17a2,2,0,0,0,1.73-2,1.93,1.93,0,0,0-2.22-1.81l-7.67,1.19-2.22-14.25,7.56-1.18a2,2,0,0,0,1.74-2,1.91,1.91,0,0,0-2.22-1.8l-7.67,1.19-.23-1.47,7.56-1.17a2,2,0,0,0,1.74-2,1.93,1.93,0,0,0-2.22-1.81l-7.67,1.19L430,133.82l7.56-1.18a2,2,0,0,0,1.74-2,1.92,1.92,0,0,0-2.22-1.8L429.44,130l-.22-1.47,7.56-1.17a2,2,0,0,0,1.74-2,1.93,1.93,0,0,0-2.22-1.81l-7.68,1.19-2.22-14.25L434,109.3a2,2,0,0,0,1.74-2,1.92,1.92,0,0,0-2.22-1.8l-7.68,1.19-.23-1.47,7.57-1.17a2,2,0,0,0,1.74-2,1.94,1.94,0,0,0-2.23-1.81L425,101.39l-2.22-14.25L430.34,86a2,2,0,0,0,1.74-2,1.94,1.94,0,0,0-2.23-1.81l-7.67,1.2L422,81.86l7.57-1.17a2,2,0,0,0,1.73-2A1.93,1.93,0,0,0,429,76.86l-7.67,1.19L419.14,63.8l7.57-1.18a2,2,0,0,0,1.73-2,1.93,1.93,0,0,0-2.22-1.81L418.55,60l-.23-1.47,7.56-1.17a2,2,0,0,0,1.74-2,1.93,1.93,0,0,0-2.22-1.81l-7.67,1.19-2.22-14.25Z"/><path class="cls-3" d="M92,562.24,442.3,507.73,364.13,5.37,13.86,59.88A16.37,16.37,0,0,0,.2,78.58l73.14,470A16.38,16.38,0,0,0,92,562.24Z"/><path class="cls-4" d="M76.89,487.82H97.08a5.36,5.36,0,0,1,5.36,5.36v45.72a5.36,5.36,0,0,1-5.36,5.36H76.89a0,0,0,0,1,0,0V487.82A0,0,0,0,1,76.89,487.82Z" transform="translate(257.62 1012.16) rotate(171.15)"/><path class="cls-5" d="M67.76,429.19H88a5.36,5.36,0,0,1,5.36,5.36v45.72A5.36,5.36,0,0,1,88,485.63H67.76a0,0,0,0,1,0,0V429.19A0,0,0,0,1,67.76,429.19Z" transform="translate(230.47 897) rotate(171.15)"/><path class="cls-4" d="M58.64,370.56H78.84a5.36,5.36,0,0,1,5.36,5.36v45.72A5.36,5.36,0,0,1,78.84,427H58.64a0,0,0,0,1,0,0V370.56a0,0,0,0,1,0,0Z" transform="matrix(-0.99, 0.15, -0.15, -0.99, 203.31, 781.84)"/><path class="cls-6" d="M49.52,311.93H69.71a5.36,5.36,0,0,1,5.36,5.36V363a5.36,5.36,0,0,1-5.36,5.36H49.52a0,0,0,0,1,0,0V311.93a0,0,0,0,1,0,0Z" transform="translate(176.15 666.67) rotate(171.15)"/><path class="cls-7" d="M41.5,254.77l12-1.86L23,57,389.42,0,467.6,502.37l-366.44,57-39-250.71-12,1.87a5.37,5.37,0,0,1-6.12-4.48l-7-45.18A5.36,5.36,0,0,1,41.5,254.77Z"/><polygon class="cls-8" points="80.69 164.06 81.89 191.5 218.65 169.2 215.07 146.21 80.69 164.06"/><path class="cls-3" d="M369.05,30.79a7.16,7.16,0,1,0,6-8.18A7.16,7.16,0,0,0,369.05,30.79Z"/><path class="cls-9" d="M376.87,28.56l21.39-3.33a1.92,1.92,0,0,0,1.61-2.2h0a1.93,1.93,0,0,0-2.2-1.61l-21.39,3.33a1.94,1.94,0,0,0-1.61,2.2h0A1.92,1.92,0,0,0,376.87,28.56Z"/><path class="cls-9" d="M377.69,33.84l21.39-3.33a1.92,1.92,0,0,0,1.61-2.2h0a1.93,1.93,0,0,0-2.2-1.61L377.1,30a1.93,1.93,0,0,0-1.61,2.2h0A1.94,1.94,0,0,0,377.69,33.84Z"/><path class="cls-3" d="M372.69,54.13a7.16,7.16,0,1,0,6-8.18A7.15,7.15,0,0,0,372.69,54.13Z"/><path class="cls-9" d="M380.5,51.9l21.4-3.33a1.92,1.92,0,0,0,1.6-2.2h0a1.93,1.93,0,0,0-2.2-1.61l-21.39,3.33a1.94,1.94,0,0,0-1.61,2.2h0A1.92,1.92,0,0,0,380.5,51.9Z"/><path class="cls-9" d="M381.32,57.18l21.4-3.33a1.94,1.94,0,0,0,1.61-2.2h0A1.94,1.94,0,0,0,402.12,50l-21.39,3.33a1.93,1.93,0,0,0-1.61,2.2h0A1.94,1.94,0,0,0,381.32,57.18Z"/><path class="cls-3" d="M376.32,77.47a7.16,7.16,0,1,0,6-8.18A7.16,7.16,0,0,0,376.32,77.47Z"/><path class="cls-9" d="M384.14,75.24l21.39-3.33a1.93,1.93,0,0,0,1.61-2.2h0a1.94,1.94,0,0,0-2.2-1.61l-21.4,3.33a1.92,1.92,0,0,0-1.6,2.2h0A1.91,1.91,0,0,0,384.14,75.24Z"/><path class="cls-9" d="M385,80.52l21.39-3.33A1.94,1.94,0,0,0,408,75h0a1.94,1.94,0,0,0-2.2-1.61l-21.4,3.33a1.92,1.92,0,0,0-1.6,2.2h0A1.93,1.93,0,0,0,385,80.52Z"/><path class="cls-3" d="M380,100.81a7.16,7.16,0,1,0,6-8.18A7.16,7.16,0,0,0,380,100.81Z"/><path class="cls-9" d="M387.77,98.58l21.39-3.33a1.93,1.93,0,0,0,1.61-2.2h0a1.93,1.93,0,0,0-2.2-1.61l-21.39,3.33a1.92,1.92,0,0,0-1.61,2.2h0A1.92,1.92,0,0,0,387.77,98.58Z"/><path class="cls-9" d="M388.59,103.86,410,100.53a1.93,1.93,0,0,0,1.61-2.2h0a1.93,1.93,0,0,0-2.2-1.61L388,100.05a1.92,1.92,0,0,0-1.61,2.2h0A1.93,1.93,0,0,0,388.59,103.86Z"/><path class="cls-3" d="M383.58,124.15a7.16,7.16,0,1,0,6-8.18A7.16,7.16,0,0,0,383.58,124.15Z"/><path class="cls-9" d="M391.4,121.92l21.39-3.33a1.92,1.92,0,0,0,1.61-2.2h0a1.93,1.93,0,0,0-2.2-1.61l-21.39,3.33a1.94,1.94,0,0,0-1.61,2.2h0A1.92,1.92,0,0,0,391.4,121.92Z"/><path class="cls-9" d="M392.22,127.2l21.39-3.33a1.92,1.92,0,0,0,1.61-2.2h0a1.93,1.93,0,0,0-2.2-1.61l-21.39,3.33a1.93,1.93,0,0,0-1.61,2.2h0A1.93,1.93,0,0,0,392.22,127.2Z"/><path class="cls-3" d="M387.21,147.49a7.16,7.16,0,1,0,6-8.18A7.16,7.16,0,0,0,387.21,147.49Z"/><path class="cls-9" d="M395,145.26l21.4-3.33a1.92,1.92,0,0,0,1.6-2.2h0a1.93,1.93,0,0,0-2.2-1.61l-21.39,3.33a1.94,1.94,0,0,0-1.61,2.2h0A1.92,1.92,0,0,0,395,145.26Z"/><path class="cls-9" d="M395.85,150.54l21.4-3.33a1.92,1.92,0,0,0,1.6-2.2h0a1.93,1.93,0,0,0-2.2-1.61l-21.39,3.33a1.93,1.93,0,0,0-1.61,2.2h0A1.94,1.94,0,0,0,395.85,150.54Z"/><path class="cls-3" d="M390.85,170.83a7.16,7.16,0,1,0,6-8.18A7.16,7.16,0,0,0,390.85,170.83Z"/><path class="cls-9" d="M398.67,168.6l21.39-3.33a1.93,1.93,0,0,0,1.61-2.2h0a1.94,1.94,0,0,0-2.21-1.61l-21.39,3.33a1.94,1.94,0,0,0-1.61,2.21h0A1.93,1.93,0,0,0,398.67,168.6Z"/><path class="cls-9" d="M399.49,173.88l21.39-3.33a1.93,1.93,0,0,0,1.61-2.2h0a1.94,1.94,0,0,0-2.2-1.61l-21.4,3.33a1.93,1.93,0,0,0-1.61,2.2h0A1.94,1.94,0,0,0,399.49,173.88Z"/><path class="cls-3" d="M394.48,194.17a7.16,7.16,0,1,0,6-8.18A7.16,7.16,0,0,0,394.48,194.17Z"/><path class="cls-9" d="M402.3,191.94l21.39-3.33a1.93,1.93,0,0,0,1.61-2.2h0a1.94,1.94,0,0,0-2.2-1.61l-21.4,3.33a1.93,1.93,0,0,0-1.6,2.21h0A1.92,1.92,0,0,0,402.3,191.94Z"/><path class="cls-9" d="M403.12,197.22l21.39-3.33a1.93,1.93,0,0,0,1.61-2.2h0a1.93,1.93,0,0,0-2.2-1.61l-21.39,3.33a1.92,1.92,0,0,0-1.61,2.2h0A1.93,1.93,0,0,0,403.12,197.22Z"/><path class="cls-10" d="M398.11,217.51a7.16,7.16,0,1,0,6-8.18A7.16,7.16,0,0,0,398.11,217.51Z"/><path class="cls-9" d="M405.93,215.28,427.32,212a1.93,1.93,0,0,0,1.61-2.2h0a1.93,1.93,0,0,0-2.2-1.61l-21.39,3.33a1.93,1.93,0,0,0-1.61,2.21h0A1.92,1.92,0,0,0,405.93,215.28Z"/><path class="cls-9" d="M406.75,220.56l21.39-3.33a1.92,1.92,0,0,0,1.61-2.2h0a1.93,1.93,0,0,0-2.2-1.61l-21.39,3.33a1.93,1.93,0,0,0-1.61,2.2h0A1.93,1.93,0,0,0,406.75,220.56Z"/><path class="cls-10" d="M401.74,240.85a7.16,7.16,0,1,0,6-8.18A7.16,7.16,0,0,0,401.74,240.85Z"/><path class="cls-9" d="M409.56,238.62,431,235.29a1.91,1.91,0,0,0,1.61-2.2h0a1.92,1.92,0,0,0-2.2-1.6L409,234.81a1.94,1.94,0,0,0-1.61,2.21h0A1.92,1.92,0,0,0,409.56,238.62Z"/><path class="cls-9" d="M410.38,243.9l21.4-3.33a1.92,1.92,0,0,0,1.6-2.2h0a1.93,1.93,0,0,0-2.2-1.61l-21.39,3.33a1.93,1.93,0,0,0-1.61,2.2h0A1.94,1.94,0,0,0,410.38,243.9Z"/><path class="cls-10" d="M405.38,264.19a7.16,7.16,0,1,0,6-8.18A7.15,7.15,0,0,0,405.38,264.19Z"/><path class="cls-9" d="M413.19,262l21.4-3.33a1.91,1.91,0,0,0,1.6-2.2h0a1.91,1.91,0,0,0-2.2-1.6l-21.39,3.32a1.94,1.94,0,0,0-1.61,2.21h0A1.92,1.92,0,0,0,413.19,262Z"/><path class="cls-9" d="M414,267.24l21.39-3.33a1.93,1.93,0,0,0,1.61-2.2h0a1.94,1.94,0,0,0-2.21-1.61l-21.39,3.33a1.93,1.93,0,0,0-1.61,2.2h0A1.94,1.94,0,0,0,414,267.24Z"/><path class="cls-10" d="M409,287.53a7.16,7.16,0,1,0,6-8.18A7.16,7.16,0,0,0,409,287.53Z"/><path class="cls-9" d="M416.83,285.3,438.22,282a1.93,1.93,0,0,0,1.61-2.2h0a1.92,1.92,0,0,0-2.2-1.6l-21.4,3.32a1.93,1.93,0,0,0-1.6,2.21h0A1.91,1.91,0,0,0,416.83,285.3Z"/><path class="cls-9" d="M417.65,290.58,439,287.25a1.93,1.93,0,0,0,1.61-2.2h0a1.94,1.94,0,0,0-2.2-1.61l-21.4,3.33a1.92,1.92,0,0,0-1.6,2.2h0A1.93,1.93,0,0,0,417.65,290.58Z"/><path class="cls-10" d="M412.64,310.87a7.16,7.16,0,1,0,6-8.18A7.16,7.16,0,0,0,412.64,310.87Z"/><path class="cls-9" d="M420.46,308.64l21.39-3.33a1.93,1.93,0,0,0,1.61-2.2h0a1.92,1.92,0,0,0-2.2-1.6l-21.39,3.32a1.93,1.93,0,0,0-1.61,2.21h0A1.92,1.92,0,0,0,420.46,308.64Z"/><path class="cls-9" d="M421.28,313.92l21.39-3.33a1.93,1.93,0,0,0,1.61-2.2h0a1.93,1.93,0,0,0-2.2-1.61l-21.39,3.33a1.92,1.92,0,0,0-1.61,2.2h0A1.93,1.93,0,0,0,421.28,313.92Z"/><path class="cls-10" d="M416.27,334.21a7.16,7.16,0,1,0,6-8.18A7.16,7.16,0,0,0,416.27,334.21Z"/><path class="cls-9" d="M424.09,332l21.39-3.32a1.93,1.93,0,0,0,1.61-2.21h0a1.92,1.92,0,0,0-2.2-1.6l-21.39,3.32a1.94,1.94,0,0,0-1.61,2.21h0A1.92,1.92,0,0,0,424.09,332Z"/><path class="cls-9" d="M424.91,337.26l21.39-3.33a1.92,1.92,0,0,0,1.61-2.2h0a1.93,1.93,0,0,0-2.2-1.61l-21.39,3.33a1.93,1.93,0,0,0-1.61,2.2h0A1.93,1.93,0,0,0,424.91,337.26Z"/><path class="cls-10" d="M419.9,357.55a7.16,7.16,0,1,0,6-8.18A7.16,7.16,0,0,0,419.9,357.55Z"/><path class="cls-9" d="M427.72,355.32l21.4-3.32a1.93,1.93,0,0,0,1.6-2.21h0a1.92,1.92,0,0,0-2.2-1.6l-21.39,3.32a1.94,1.94,0,0,0-1.61,2.21h0A1.92,1.92,0,0,0,427.72,355.32Z"/><path class="cls-9" d="M428.54,360.6l21.4-3.33a1.92,1.92,0,0,0,1.6-2.2h0a1.93,1.93,0,0,0-2.2-1.61L428,356.79a1.93,1.93,0,0,0-1.61,2.2h0A1.94,1.94,0,0,0,428.54,360.6Z"/><path class="cls-10" d="M423.54,380.89a7.16,7.16,0,1,0,6-8.18A7.15,7.15,0,0,0,423.54,380.89Z"/><path class="cls-9" d="M431.36,378.66l21.39-3.32a1.94,1.94,0,0,0,1.61-2.21h0a1.93,1.93,0,0,0-2.21-1.6l-21.39,3.32a1.94,1.94,0,0,0-1.61,2.21h0A1.93,1.93,0,0,0,431.36,378.66Z"/><path class="cls-9" d="M432.18,383.94l21.39-3.33a1.93,1.93,0,0,0,1.61-2.2h0a1.94,1.94,0,0,0-2.2-1.61l-21.4,3.33a1.92,1.92,0,0,0-1.6,2.2h0A1.93,1.93,0,0,0,432.18,383.94Z"/><path class="cls-10" d="M427.17,404.23a7.16,7.16,0,1,0,6-8.18A7.16,7.16,0,0,0,427.17,404.23Z"/><path class="cls-9" d="M435,402l21.39-3.32a1.94,1.94,0,0,0,1.61-2.21h0a1.92,1.92,0,0,0-2.2-1.6l-21.4,3.32a1.93,1.93,0,0,0-1.6,2.21h0A1.92,1.92,0,0,0,435,402Z"/><path class="cls-9" d="M435.81,407.28,457.2,404a1.93,1.93,0,0,0,1.61-2.2h0a1.93,1.93,0,0,0-2.2-1.61l-21.39,3.33a1.92,1.92,0,0,0-1.61,2.2h0A1.93,1.93,0,0,0,435.81,407.28Z"/><path class="cls-10" d="M430.8,427.57a7.16,7.16,0,1,0,6-8.18A7.16,7.16,0,0,0,430.8,427.57Z"/><path class="cls-9" d="M438.62,425.34,460,422a1.94,1.94,0,0,0,1.61-2.21h0a1.92,1.92,0,0,0-2.2-1.6L438,421.54a1.93,1.93,0,0,0-1.61,2.2h0A1.92,1.92,0,0,0,438.62,425.34Z"/><path class="cls-9" d="M439.44,430.62l21.39-3.33a1.92,1.92,0,0,0,1.61-2.2h0a1.93,1.93,0,0,0-2.2-1.61l-21.39,3.33a1.93,1.93,0,0,0-1.61,2.2h0A1.93,1.93,0,0,0,439.44,430.62Z"/><path class="cls-10" d="M434.43,450.91a7.16,7.16,0,1,0,6-8.18A7.16,7.16,0,0,0,434.43,450.91Z"/><path class="cls-9" d="M442.25,448.68l21.39-3.32a1.93,1.93,0,0,0,1.61-2.21h0a1.92,1.92,0,0,0-2.2-1.6l-21.39,3.33a1.93,1.93,0,0,0-1.61,2.2h0A1.92,1.92,0,0,0,442.25,448.68Z"/><path class="cls-9" d="M443.07,454l21.4-3.33a1.92,1.92,0,0,0,1.6-2.2h0a1.93,1.93,0,0,0-2.2-1.61l-21.39,3.33a1.93,1.93,0,0,0-1.61,2.2h0A1.94,1.94,0,0,0,443.07,454Z"/><path class="cls-10" d="M438.07,474.25a7.16,7.16,0,1,0,6-8.18A7.14,7.14,0,0,0,438.07,474.25Z"/><path class="cls-9" d="M445.88,472l21.4-3.32a1.94,1.94,0,0,0,1.61-2.21h0a1.93,1.93,0,0,0-2.21-1.6l-21.39,3.33a1.93,1.93,0,0,0-1.61,2.2h0A1.92,1.92,0,0,0,445.88,472Z"/><path class="cls-9" d="M446.71,477.3,468.1,474a1.93,1.93,0,0,0,1.61-2.2h0a1.94,1.94,0,0,0-2.21-1.61l-21.39,3.33a1.93,1.93,0,0,0-1.61,2.2h0A1.94,1.94,0,0,0,446.71,477.3Z"/><g class="cls-11"><line class="cls-12" x1="132.21" y1="78.36" x2="137.53" y2="77.54"/><line class="cls-12" x1="142.84" y1="76.71" x2="148.16" y2="75.88"/><line class="cls-12" x1="80.21" y1="93.95" x2="85.53" y2="93.13"/><line class="cls-12" x1="90.84" y1="92.3" x2="96.15" y2="91.47"/><line class="cls-12" x1="101.47" y1="90.64" x2="106.78" y2="89.82"/><line class="cls-12" x1="112.1" y1="88.99" x2="117.41" y2="88.16"/><line class="cls-12" x1="122.72" y1="87.34" x2="128.04" y2="86.51"/><line class="cls-12" x1="133.35" y1="85.68" x2="138.67" y2="84.86"/><line class="cls-12" x1="143.98" y1="84.03" x2="149.3" y2="83.2"/><line class="cls-12" x1="81.35" y1="101.27" x2="86.66" y2="100.45"/><line class="cls-12" x1="91.98" y1="99.62" x2="97.29" y2="98.79"/><line class="cls-12" x1="102.61" y1="97.97" x2="107.92" y2="97.14"/><line class="cls-12" x1="113.24" y1="96.31" x2="118.55" y2="95.48"/><line class="cls-12" x1="123.86" y1="94.66" x2="129.18" y2="93.83"/><line class="cls-12" x1="134.49" y1="93" x2="139.81" y2="92.18"/><line class="cls-12" x1="145.12" y1="91.35" x2="150.43" y2="90.52"/><line class="cls-12" x1="82.49" y1="108.59" x2="87.8" y2="107.77"/><line class="cls-12" x1="93.12" y1="106.94" x2="98.43" y2="106.11"/><line class="cls-12" x1="103.75" y1="105.29" x2="109.06" y2="104.46"/><line class="cls-12" x1="114.37" y1="103.63" x2="119.69" y2="102.8"/><line class="cls-12" x1="125" y1="101.98" x2="130.32" y2="101.15"/><line class="cls-12" x1="135.63" y1="100.32" x2="140.95" y2="99.5"/><line class="cls-12" x1="146.26" y1="98.67" x2="151.57" y2="97.84"/><line class="cls-12" x1="83.63" y1="115.91" x2="88.94" y2="115.09"/><line class="cls-12" x1="94.26" y1="114.26" x2="99.57" y2="113.43"/><line class="cls-12" x1="104.89" y1="112.61" x2="110.2" y2="111.78"/><line class="cls-12" x1="115.51" y1="110.95" x2="120.83" y2="110.12"/><line class="cls-12" x1="126.14" y1="109.3" x2="131.46" y2="108.47"/><line class="cls-12" x1="136.77" y1="107.64" x2="142.08" y2="106.82"/><line class="cls-12" x1="147.4" y1="105.99" x2="152.71" y2="105.16"/><line class="cls-12" x1="77.58" y1="77.03" x2="82.89" y2="76.2"/><line class="cls-12" x1="88.21" y1="75.37" x2="93.52" y2="74.54"/><line class="cls-12" x1="98.83" y1="73.72" x2="104.15" y2="72.89"/><line class="cls-12" x1="109.46" y1="72.06" x2="114.78" y2="71.24"/><line class="cls-12" x1="120.09" y1="70.41" x2="125.4" y2="69.58"/><line class="cls-12" x1="130.72" y1="68.76" x2="136.03" y2="67.93"/><line class="cls-12" x1="141.35" y1="67.1" x2="146.66" y2="66.27"/><line class="cls-12" x1="147.76" y1="70.32" x2="77.76" y2="81.21"/><line class="cls-12" x1="97.2" y1="64.6" x2="124.19" y2="60.4"/><line class="cls-12" x1="63.65" y1="140.09" x2="361.47" y2="93.74"/><line class="cls-12" x1="67.38" y1="164.08" x2="365.2" y2="117.73"/><line class="cls-12" x1="71.12" y1="188.06" x2="368.94" y2="141.72"/><line class="cls-12" x1="74.85" y1="212.05" x2="372.67" y2="165.7"/><line class="cls-12" x1="78.58" y1="236.03" x2="376.4" y2="189.69"/><line class="cls-12" x1="82.31" y1="260.02" x2="380.13" y2="213.67"/><line class="cls-12" x1="86.05" y1="284.01" x2="383.87" y2="237.66"/><line class="cls-12" x1="89.78" y1="307.99" x2="387.6" y2="261.64"/><line class="cls-12" x1="93.51" y1="331.98" x2="391.33" y2="285.63"/><line class="cls-12" x1="97.24" y1="355.96" x2="395.07" y2="309.62"/><line class="cls-12" x1="100.98" y1="379.95" x2="398.8" y2="333.6"/><line class="cls-12" x1="104.71" y1="403.93" x2="402.53" y2="357.59"/><line class="cls-12" x1="108.44" y1="427.92" x2="406.26" y2="381.57"/><line class="cls-12" x1="117.31" y1="484.89" x2="415.13" y2="438.54"/><line class="cls-12" x1="120.26" y1="503.87" x2="418.08" y2="457.53"/><line class="cls-12" x1="123.22" y1="522.86" x2="421.04" y2="476.51"/></g><path class="cls-13" d="M106.14,163.16s-25.41,27.5-10.73,23.17,34.78-33.05,30.49-21.12-4,20.07,2.87,11.83,10.75-9.86,9.37-5.55,4.31,1.38,4.31,1.38,14.06-8.33,12.68-4-2.38,4.46,1.62,3.84l13-2s-.84,1.15,11.15-.71,16.68-4.65,22.68-5.58"/><path class="cls-13" d="M94.59,200.79s19.59-12.26,22-9.58-.91,7.31,7.93,4.91,16.9-9.79,17.53-5.8,6.3,1.07,6.3,1.07l5-.78s9.15-.4,12-1.86,5.82-15.24,3.62,3.53-9.84,2.55,8.38-5.4,21.61.73,21.61.73a28.46,28.46,0,0,0,5.84-1.93c3.84-1.62,7.21-6.24,10.83-2.71s10.06-7.71,10.06-7.71a59.45,59.45,0,0,1,7.47,1.91,17.37,17.37,0,0,0,7.3.91,56.13,56.13,0,0,0,9.15-.4c4-.62,7.38-5.24,10.69-3.71s8.28-12.55,5.77,4.22S247.39,202.6,254,192.36a83.77,83.77,0,0,1,22-22.88c7.37-5.24,9.52-4.55,11.14-.71s3.62,3.53,7.47,1.91.53-3.15,3.84-1.62,4.31,1.38,7.31.91-11.06,7.86,3-.47,19.08-41.86,11.73-23.32-4.58,23.23,5.26,20.68"/><path class="cls-13" d="M96.73,234.23s24-23.18,22.56-26-9.15.4-14.75,10.49-1.66,15.61,13.39,7.13-6.84,2.08,8.62,2.75,20.06-9.26,20.52-6.26-4.68,2.77,7.46,1.9,6.22-6.08,18.68-5,18-2.8,18-2.8l8-1.24s-16.15,1.49,4.84-1.78,30.25-29.27,20.12-15.41-5.35,18.23,5,12.52l10.37-5.71s13.12-14.32,6.93,5.07S233,215.08,256,205.35s22.45-.42,30.13-3.66,6.44-11.24,11.53-4.87,4.78,4.38,12.77,3.13,5.84-1.93,12.84-3l15-2.33"/><path class="cls-13" d="M100.77,306.28s16.75-10.79,19.41-26.56-10.53,4.71-9.1,27-6.4-8.21,17-15.94-2.06,6.46.56,10.15,21.74-11.58,21.52-6.42S154.21,301,166,291s-7.39-8.06-8.3-.76,4.77,4.38,19.3-.95.31,2,9.3.6,28.81-18.82,24.9-11-.13,12.3,4.24,7.53,13.66-17.48,14.44-12.49a12.07,12.07,0,0,1-1.8,8.47"/><path class="cls-2" d="M528.94,458.28c-3.88-10.94-4.56-68.35-3.69-109.17L548,354a16.6,16.6,0,0,0,11.59-1.7,16.82,16.82,0,0,0,2.43-1.66,16.34,16.34,0,0,0,2-2,16.74,16.74,0,0,0,4.13-10.22,16.34,16.34,0,0,0-.51-4.91,16.6,16.6,0,0,0-1.87-4.44,16.89,16.89,0,0,0-1.9-2.57,16.6,16.6,0,0,0-9.93-5.32l-27.43-4.08c.25-3.57.53-6.33.82-8a38.34,38.34,0,0,0,.59-8c.4-1.31,1-3.24,1.9-6.12,2.75-8.87.66-21.93-6.89-29.35s-34.33-20.49-42.24-27.35-66.6-48.72-77.15-46.25-23,17.5-33.63,25.8-48.79,39.53-48.79,39.53c.12-1.33-19.66,6.67-24.47,14.42a3.31,3.31,0,0,0-1,2.69c.79,3.38,3.18,7.29,8.78,9.68l-17.15-2.55a5.17,5.17,0,0,0-5.07,2.28c-6.08-.92-18.44-2.27-27.38.18,0,0,14.59,7.13,25.5,9.51a5.16,5.16,0,0,0,3.79,3.39l22.76,4.92a25.68,25.68,0,0,0-.94,4.05,7.16,7.16,0,0,0,.51,3.68,24.13,24.13,0,0,0,.43,2.39c3.23,13.76,20.7,30.47,33.46,41.51s24.93,30,32.5,51.89,12.31,42.12,29.13,64.3a102.36,102.36,0,0,0,9.33,10.66l156.92,99.06S534.66,474.36,528.94,458.28ZM324.3,285.79a14.3,14.3,0,0,0-.75,1.22l-4.34-.65A35.08,35.08,0,0,0,324.3,285.79Z"/><path class="cls-1" d="M552.51,596.07A21.82,21.82,0,0,0,562.06,566c-18.36-33.59-53.72-98.81-57.92-110.65-5.71-16.08-4.49-132.51-1.63-149.15s-3.87-24.74-23.1-30.39-87.3-40-97.45-42S322.47,262.82,303,279,317.1,318.28,341,349.94s35.1,110.32,35.1,110.32l88,152.12a26,26,0,0,0,34,10.35Z"/><g class="cls-14"><path class="cls-15" d="M504.14,455.36c-5.71-16.08-4.49-132.51-1.63-149.15,1.76-10.2-.11-17.18-6.23-22.36.45,9.11-1.61,19.08-4.43,27.09-5.41,15.31-8.11,26.11-8.11,26.11s-.9,54.93,2.7,82.85,21.61,77.44,38.72,104.45c12.66,20,30.74,38,39.29,46C547,538.44,508.53,467.74,504.14,455.36Z"/><path class="cls-16" d="M504.14,455.36c-5.71-16.08-4.49-132.51-1.63-149.15,1.76-10.2-.11-17.18-6.23-22.36.45,9.11-1.61,19.08-4.43,27.09-5.41,15.31-8.11,26.11-8.11,26.11s-.9,54.93,2.7,82.85,21.61,77.44,38.72,104.45c12.66,20,30.74,38,39.29,46C547,538.44,508.53,467.74,504.14,455.36Z"/></g><path class="cls-15" d="M276.63,282.12s21.61,0,44.12-14.41,15.31-17.1,15.31-17.1S347.77,247,355,244.3s17.11-9.9,17.11-9.9,28.82,18.91,42.32,24.31,19.89,6.8,19.89,6.8l18.83,24.72A64.61,64.61,0,0,0,427,312.74C416.2,329,402.7,350.56,396.39,353.26s-3.6,5.4-31.51-5.4S274.83,298.33,276.63,282.12Z"/><path class="cls-17" d="M276.63,282.12s21.61,0,44.12-14.41,15.31-17.1,15.31-17.1S347.77,247,355,244.3s17.11-9.9,17.11-9.9,28.82,18.91,42.32,24.31,19.89,6.8,19.89,6.8l18.83,24.72A64.61,64.61,0,0,0,427,312.74C416.2,329,402.7,350.56,396.39,353.26s-3.6,5.4-31.51-5.4S274.83,298.33,276.63,282.12Z"/><path class="cls-18" d="M326.53,290.42s21.63-2.66,36.89-30.44c0,0,18,7.61,36.65,2.74"/><path class="cls-18" d="M385.21,270.35S374.76,298,396.77,334.53"/><path class="cls-13" d="M362.09,272.88S373,286.29,374.76,298"/><path class="cls-18" d="M382.5,347.45s18.11-11.51,27.88-23.48,14.07-24.6,29.34-29.63"/><line class="cls-18" x1="363.42" y1="259.98" x2="358.98" y2="254.74"/><path class="cls-3" d="M261.06,281.6s-18.8-3.82-31.08-.45c0,0,18.05,8.83,29,10.13Z"/><path class="cls-6" d="M529.13,318.32,262.44,278.7a5.17,5.17,0,0,0-5.79,3.85l-1.3,5.18a5.18,5.18,0,0,0,3.93,6.33l263.87,57.05a16.69,16.69,0,0,0,20-13.85h0A16.68,16.68,0,0,0,529.13,318.32Z"/><path class="cls-3" d="M529.13,318.32l-40.31-6a20.19,20.19,0,0,0-9.17,22.12,20.56,20.56,0,0,0,3.88,8.09l39.62,8.56a16.67,16.67,0,0,0,20-13.84h0A16.68,16.68,0,0,0,529.13,318.32Z"/><path class="cls-1" d="M421.19,343.21s-22.94,5.38-33.18,3-31.2-31.88-45.57-41.57-23.14-12-38.2-14.26-25.44,5-22.21,18.77,20.71,30.46,33.46,41.5,24.94,30,32.51,51.89,12.31,42.12,29.13,64.3S415,498.08,422,499.32"/><g class="cls-19"><path class="cls-15" d="M409.81,346.46l-1.62-.83c-7,1-15.12,1.73-20.18.53-10.25-2.43-31.2-31.88-45.57-41.57s-23.14-12-38.2-14.26A32.85,32.85,0,0,0,297,290a97.92,97.92,0,0,1,32.33,14.78c16,11.57,27.57,40.92,45.37,46.26S409.81,346.46,409.81,346.46Z"/><path class="cls-16" d="M409.81,346.46l-1.62-.83c-7,1-15.12,1.73-20.18.53-10.25-2.43-31.2-31.88-45.57-41.57s-23.14-12-38.2-14.26A32.85,32.85,0,0,0,297,290a97.92,97.92,0,0,1,32.33,14.78c16,11.57,27.57,40.92,45.37,46.26S409.81,346.46,409.81,346.46Z"/></g><path class="cls-20" d="M293.55,319s1.08-11.86,17.35-22.94c0,0-10.86-7.13-18.31-5.87s-10.36,5.34-11.5,12.87S293.55,319,293.55,319Z"/><path class="cls-18" d="M304.23,331.58a21.3,21.3,0,0,0,4.17,3.26"/><path class="cls-18" d="M316.05,303.53s-17.27,8.89-14.49,22.76"/><path class="cls-1" d="M502.25,301l2.75-8.87c2.76-8.88.66-21.94-6.89-29.36s-34.33-20.49-42.23-27.35-66.61-48.72-77.16-46.25-23,17.5-33.62,25.8-48.8,39.53-48.8,39.53-26.79,11.61-25.5,17.12,6.79,12.44,23.6,11.88,44.82-17.3,49.08-19.75,30.68-19.79,30.68-19.79,10.81,11,23.3,16.79,14.08,6.38,14.08,6.38S414.8,278.89,424,285"/><g class="cls-21"><path class="cls-15" d="M487.34,263.21c9.71,7.63,10.33,22.72,7.64,36.26l7.27,1.48,2.75-8.87c2.76-8.88.66-21.94-6.89-29.36s-34.33-20.49-42.23-27.35c-2.06-1.79-7.6-6-14.82-11.11l-1.44.23S474.74,253.31,487.34,263.21Z"/><path class="cls-16" d="M487.34,263.21c9.71,7.63,10.33,22.72,7.64,36.26l7.27,1.48,2.75-8.87c2.76-8.88.66-21.94-6.89-29.36s-34.33-20.49-42.23-27.35c-2.06-1.79-7.6-6-14.82-11.11l-1.44.23S474.74,253.31,487.34,263.21Z"/><path class="cls-15" d="M276.63,282.12s21.61,0,44.12-14.41,15.31-17.1,15.31-17.1S347.77,247,355,244.3s17.11-9.9,17.11-9.9,28.82,18.91,42.32,24.31,19.89,6.8,19.89,6.8l18.83,24.72A64.61,64.61,0,0,0,427,312.74C416.2,329,402.7,350.56,396.39,353.26s-3.6,5.4-31.51-5.4S274.83,298.33,276.63,282.12Z"/><path class="cls-16" d="M276.63,282.12s21.61,0,44.12-14.41,15.31-17.1,15.31-17.1S347.77,247,355,244.3s17.11-9.9,17.11-9.9,28.82,18.91,42.32,24.31,19.89,6.8,19.89,6.8l18.83,24.72A64.61,64.61,0,0,0,427,312.74C416.2,329,402.7,350.56,396.39,353.26s-3.6,5.4-31.51-5.4S274.83,298.33,276.63,282.12Z"/></g><path class="cls-20" d="M270.8,271.57s2.73,1.29,8.47-1,16.9-14.61,17-16.09S271.72,263.12,270.8,271.57Z"/><path class="cls-18" d="M373.09,224.29a33.33,33.33,0,0,1,1-3.58"/><path class="cls-18" d="M374.16,243.91a39.39,39.39,0,0,1-1.73-15"/></g></g></svg>