<svg xmlns="http://www.w3.org/2000/svg" xmlns:xlink="http://www.w3.org/1999/xlink" viewBox="0 0 568.18 625.39" xmlns:v="https://vecta.io/nano"><style><![CDATA[.V{stroke-miterlimit:10}.W{stroke:#1a2e35}.X{fill:#fff}.Y{fill:#1a2e35}.Z{fill:#2a3756}.a{fill:#ffd3c8}.b{fill:#f1b2a2}.c{stroke:#301913}.d{stroke-width:.5}.e{stroke-linecap:round}]]></style><defs><clipPath id="A"><path d="M552.51 596.07a21.82 21.82 0 0 0 9.55-30.07c-18.36-33.59-53.72-98.81-57.92-110.65-5.71-16.08-4.49-132.51-1.63-149.15s-3.87-24.74-23.1-30.39-87.3-40-97.45-42S322.47 262.82 303 279s14.1 39.28 38 70.94 35.1 110.32 35.1 110.32l88 152.12a26 26 0 0 0 34 10.35z" class="a"/></clipPath><clipPath id="B"><path d="M421.19,343.21s-22.94,5.38-33.18,3-31.2-31.88-45.57-41.57-23.14-12-38.2-14.26-25.44,5-22.21,18.77,20.71,30.46,33.46,41.5,24.94,30,32.51,51.89,12.31,42.12,29.13,64.3S415,498.08,422,499.32" class="a"/></clipPath><clipPath id="C"><path d="M502.25 301l2.75-8.87c2.76-8.88.66-21.94-6.89-29.36s-34.33-20.49-42.23-27.35-66.61-48.72-77.16-46.25-23 17.5-33.62 25.8-48.8 39.53-48.8 39.53-26.79 11.61-25.5 17.12 6.79 12.44 23.6 11.88 44.82-17.3 49.08-19.75 30.68-19.79 30.68-19.79 10.81 11 23.3 16.79l14.08 6.38S414.8 278.89 424 285" class="a"/></clipPath><path id="D" d="M369.05 30.79a7.16 7.16 0 1 0 6-8.18 7.16 7.16 0 0 0-6 8.18z"/><path id="E" d="M376.87 28.56l21.39-3.33a1.92 1.92 0 0 0 1.61-2.2h0a1.93 1.93 0 0 0-2.2-1.61l-21.39 3.33a1.94 1.94 0 0 0-1.61 2.2h0a1.92 1.92 0 0 0 2.2 1.61z"/><path id="F" d="M380.5 51.9l21.4-3.33a1.92 1.92 0 0 0 1.6-2.2h0a1.93 1.93 0 0 0-2.2-1.61l-21.39 3.33a1.94 1.94 0 0 0-1.61 2.2h0a1.92 1.92 0 0 0 2.2 1.61z"/><path id="G" d="M392.22 127.2l21.39-3.33a1.92 1.92 0 0 0 1.61-2.2h0a1.93 1.93 0 0 0-2.2-1.61l-21.39 3.33a1.93 1.93 0 0 0-1.61 2.2h0a1.93 1.93 0 0 0 2.2 1.61z"/><path id="H" d="M395.85 150.54l21.4-3.33a1.92 1.92 0 0 0 1.6-2.2h0a1.93 1.93 0 0 0-2.2-1.61l-21.39 3.33a1.93 1.93 0 0 0-1.61 2.2h0a1.94 1.94 0 0 0 2.2 1.61z"/><path id="I" d="M403.12 197.22l21.39-3.33a1.93 1.93 0 0 0 1.61-2.2h0a1.93 1.93 0 0 0-2.2-1.61l-21.39 3.33a1.92 1.92 0 0 0-1.61 2.2h0a1.93 1.93 0 0 0 2.2 1.61z"/><path id="J" d="M504.14 455.36c-5.71-16.08-4.49-132.51-1.63-149.15 1.76-10.2-.11-17.18-6.23-22.36.45 9.11-1.61 19.08-4.43 27.09-5.41 15.31-8.11 26.11-8.11 26.11s-.9 54.93 2.7 82.85 21.61 77.44 38.72 104.45c12.66 20 30.74 38 39.29 46-17.45-31.91-55.92-102.61-60.31-114.99z"/><path id="K" d="M276.63 282.12s21.61 0 44.12-14.41 15.31-17.1 15.31-17.1S347.77 247 355 244.3s17.11-9.9 17.11-9.9 28.82 18.91 42.32 24.31 19.89 6.8 19.89 6.8l18.83 24.72A64.61 64.61 0 0 0 427 312.74c-10.8 16.26-24.3 37.82-30.61 40.52s-3.6 5.4-31.51-5.4-90.05-49.53-88.25-65.74z"/><path id="L" d="M409.81 346.46l-1.62-.83c-7 1-15.12 1.73-20.18.53-10.25-2.43-31.2-31.88-45.57-41.57s-23.14-12-38.2-14.26A32.85 32.85 0 0 0 297 290a97.92 97.92 0 0 1 32.33 14.78c16 11.57 27.57 40.92 45.37 46.26s35.11-4.58 35.11-4.58z"/><path id="M" d="M487.34 263.21c9.71 7.63 10.33 22.72 7.64 36.26l7.27 1.48 2.75-8.87c2.76-8.88.66-21.94-6.89-29.36s-34.33-20.49-42.23-27.35c-2.06-1.79-7.6-6-14.82-11.11l-1.44.23 47.72 38.72z"/></defs><path d="M423.18 39.26a1.92 1.92 0 0 0 1.57-2.39 2 2 0 0 0-2.27-1.4l-7.56 1.18-.23-1.47 7.56-1.18a2 2 0 0 0 1.75-2 1.93 1.93 0 0 0-2.22-1.81l-7.68 1.19-1.64-10.56L389.42 0 87.88 554.22l15.57 10.51a23.13 23.13 0 0 0 16.55 3.69L488.74 511l-4.22-27.11 7.57-1.18a2 2 0 0 0 1.73-2 1.92 1.92 0 0 0-2.22-1.8l-7.67 1.19-.23-1.46 7.57-1.18a2 2 0 0 0 1.73-2 1.93 1.93 0 0 0-2.22-1.81l-7.67 1.2-2.22-14.26 7.56-1.18a2 2 0 0 0 1.74-2 1.92 1.92 0 0 0-2.22-1.8l-7.67 1.19-.23-1.46 7.56-1.18a2 2 0 0 0 1.74-2 1.93 1.93 0 0 0-2.22-1.81l-7.68 1.2-2.21-14.26 7.56-1.18a2 2 0 0 0 1.74-2 1.92 1.92 0 0 0-2.22-1.8l-7.68 1.19-.22-1.46 7.56-1.18a2 2 0 0 0 1.74-2 1.93 1.93 0 0 0-2.22-1.81l-7.68 1.2-2.22-14.26 7.57-1.18a2 2 0 0 0 1.74-2 1.93 1.93 0 0 0-2.23-1.8l-7.7 1.08-.23-1.46 7.57-1.18a2 2 0 0 0 1.74-2 1.94 1.94 0 0 0-2.23-1.81l-7.67 1.2-2.18-14.28 7.57-1.18a2 2 0 0 0 1.73-2 1.91 1.91 0 0 0-2.22-1.8l-7.67 1.19-.23-1.46 7.57-1.18a2 2 0 0 0 1.73-2 1.93 1.93 0 0 0-2.22-1.81l-7.67 1.2-2.22-14.26 7.56-1.18a2 2 0 0 0 1.74-2 1.91 1.91 0 0 0-2.22-1.8l-7.67 1.19-.23-1.46 7.56-1.18a2 2 0 0 0 1.74-2 1.93 1.93 0 0 0-2.22-1.81l-7.67 1.2-2.22-14.26 7.56-1.18a2 2 0 0 0 1.74-2 1.92 1.92 0 0 0-2.22-1.8l-7.68 1.19-.22-1.46 7.56-1.18a2 2 0 0 0 1.74-2 1.93 1.93 0 0 0-2.22-1.93l-7.68 1.2-2.22-14.26 7.57-1.18a2 2 0 0 0 1.74-2 1.92 1.92 0 0 0-2.22-1.8l-7.68 1.19-.23-1.47 7.57-1.17a2 2 0 0 0 1.74-2 1.94 1.94 0 0 0-2.23-1.81l-7.67 1.2-2.22-14.26L463 296a2 2 0 0 0 1.74-2 1.93 1.93 0 0 0-2.23-1.8l-7.67 1.19-.23-1.47 7.57-1.17a2 2 0 0 0 1.73-2 1.93 1.93 0 0 0-2.22-1.81l-7.67 1.2-2.22-14.26 7.57-1.18a2 2 0 0 0 1.73-2 1.91 1.91 0 0 0-2.22-1.8l-7.67 1.19-.23-1.47 7.56-1.17a2 2 0 0 0 1.74-2 1.93 1.93 0 0 0-2.22-1.81l-7.67 1.2-2.22-14.26 7.56-1.18a2 2 0 0 0 1.74-2 1.91 1.91 0 0 0-2.22-1.8l-7.67 1.19-.23-1.47 7.56-1.17a2 2 0 0 0 1.74-2 1.93 1.93 0 0 0-2.22-1.81l-7.68 1.2-2.21-14.26 7.56-1.18a2 2 0 0 0 1.74-2 1.92 1.92 0 0 0-2.22-1.8l-7.62 1.07-.22-1.47 7.56-1.17a2 2 0 0 0 1.74-2 1.94 1.94 0 0 0-2.22-1.81l-7.68 1.2-2.22-14.26 7.57-1.18a2 2 0 0 0 1.74-2 1.93 1.93 0 0 0-2.23-1.8l-7.7 1.12-.23-1.47 7.57-1.17a2 2 0 0 0 1.74-2 1.94 1.94 0 0 0-2.23-1.81l-7.67 1.19-2.22-14.24 7.57-1.18a2 2 0 0 0 1.73-2 1.91 1.91 0 0 0-2.22-1.8l-7.67 1.19-.23-1.47 7.57-1.17a2 2 0 0 0 1.73-2 1.93 1.93 0 0 0-2.22-1.81l-7.67 1.19-2.22-14.25 7.56-1.18a2 2 0 0 0 1.74-2 1.91 1.91 0 0 0-2.22-1.8l-7.67 1.19-.23-1.47 7.56-1.17a2 2 0 0 0 1.74-2 1.93 1.93 0 0 0-2.22-1.81l-7.67 1.19-2.26-14.33 7.56-1.18a2 2 0 0 0 1.74-2 1.92 1.92 0 0 0-2.22-1.8l-7.64 1.16-.22-1.47 7.56-1.17a2 2 0 0 0 1.74-2 1.93 1.93 0 0 0-2.22-1.81l-7.68 1.19-2.22-14.25 7.6-1.19a2 2 0 0 0 1.74-2 1.92 1.92 0 0 0-2.22-1.8l-7.68 1.19-.23-1.47 7.57-1.17a2 2 0 0 0 1.74-2 1.94 1.94 0 0 0-2.23-1.81l-7.69 1.15-2.22-14.25 7.56-1.14a2 2 0 0 0 1.74-2 1.94 1.94 0 0 0-2.23-1.81l-7.67 1.2-.18-1.53 7.57-1.17a2 2 0 0 0 1.73-2 1.93 1.93 0 0 0-2.3-1.83l-7.67 1.19-2.19-14.25 7.57-1.18a2 2 0 0 0 1.73-2 1.93 1.93 0 0 0-2.22-1.81L418.55 60l-.23-1.47 7.56-1.17a2 2 0 0 0 1.74-2 1.93 1.93 0 0 0-2.22-1.81l-7.67 1.19-2.22-14.25z" fill="#cae9ff" opacity=".5"/><path d="M92 562.24l350.3-54.51L364.13 5.37 13.86 59.88A16.37 16.37 0 0 0 .2 78.58l73.14 470A16.38 16.38 0 0 0 92 562.24z" class="Z"/><path d="M106.595 541.977l-19.95 3.106a5.36 5.36 0 0 1-6.121-4.472l-7.034-45.176a5.36 5.36 0 0 1 4.472-6.121l19.95-3.106h0l8.683 55.768h0z" class="X"/><path d="M97.487 483.344l-19.999 3.114a5.36 5.36 0 0 1-6.121-4.472l-7.034-45.176a5.36 5.36 0 0 1 4.472-6.121l19.999-3.114h0l8.683 55.768h0z" fill="#4bc5a9"/><path d="M89.672 423.782l-19.998 3.03c-1.407.213-2.842-.141-3.988-.986s-1.909-2.109-2.123-3.517l-6.858-45.263c-.213-1.407.141-2.842.986-3.988s2.109-1.909 3.517-2.123l19.998-3.03h0l8.466 55.876h0z" class="X"/><path d="M79.23 366.072l-19.95 3.106a5.36 5.36 0 0 1-6.121-4.472l-7.032-45.166a5.36 5.36 0 0 1 4.472-6.121l19.95-3.106h0l8.682 55.758h0z" fill="#56d4b7"/><path d="M41.5 254.77l12-1.86L23 57 389.42 0l78.18 502.37-366.44 57-39-250.71-12 1.87a5.37 5.37 0 0 1-6.12-4.48l-7-45.18a5.36 5.36 0 0 1 4.46-6.1z" fill="#fafafa"/><path d="M80.69 164.06l1.2 27.44 136.76-22.3-3.58-22.99-134.38 17.85z" fill="#ffe39b"/><use xlink:href="#D" class="Z"/><g class="V W X"><use xlink:href="#E"/><path d="M377.69 33.84l21.39-3.33a1.92 1.92 0 0 0 1.61-2.2h0a1.93 1.93 0 0 0-2.2-1.61L377.1 30a1.93 1.93 0 0 0-1.61 2.2h0a1.94 1.94 0 0 0 2.2 1.64z"/></g><path d="M372.69 54.13a7.16 7.16 0 1 0 6-8.18 7.15 7.15 0 0 0-6 8.18z" class="Z"/><g class="V W X"><use xlink:href="#F"/><path d="M381.32 57.18l21.4-3.33a1.94 1.94 0 0 0 1.61-2.2h0a1.94 1.94 0 0 0-2.21-1.65l-21.39 3.33a1.93 1.93 0 0 0-1.61 2.2h0a1.94 1.94 0 0 0 2.2 1.65z"/></g><use xlink:href="#D" x="7.27" y="46.68" class="Z"/><path d="M384.14 75.24l21.39-3.33a1.93 1.93 0 0 0 1.61-2.2h0a1.94 1.94 0 0 0-2.2-1.61l-21.4 3.33a1.92 1.92 0 0 0-1.6 2.2h0a1.91 1.91 0 0 0 2.2 1.61zm.86 5.28l21.39-3.33A1.94 1.94 0 0 0 408 75h0a1.94 1.94 0 0 0-2.2-1.61l-21.4 3.33a1.92 1.92 0 0 0-1.6 2.2h0a1.93 1.93 0 0 0 2.2 1.6z" class="V W X"/><use xlink:href="#D" x="10.95" y="70.02" class="Z"/><path d="M387.77 98.58l21.39-3.33a1.93 1.93 0 0 0 1.61-2.2h0a1.93 1.93 0 0 0-2.2-1.61l-21.39 3.33a1.92 1.92 0 0 0-1.61 2.2h0a1.92 1.92 0 0 0 2.2 1.61zm.82 5.28l21.41-3.33a1.93 1.93 0 0 0 1.61-2.2h0a1.93 1.93 0 0 0-2.2-1.61L388 100.05a1.92 1.92 0 0 0-1.61 2.2h0a1.93 1.93 0 0 0 2.2 1.61z" class="V W X"/><use xlink:href="#D" x="14.53" y="93.36" class="Z"/><g class="V W X"><use xlink:href="#E" x="14.53" y="93.36"/><use xlink:href="#G"/></g><use xlink:href="#D" x="18.16" y="116.7" class="Z"/><g class="V W X"><use xlink:href="#F" x="14.5" y="93.36"/><use xlink:href="#H"/></g><use xlink:href="#D" x="21.8" y="140.04" class="Z"/><path d="M398.67 168.6l21.39-3.33a1.93 1.93 0 0 0 1.61-2.2h0a1.94 1.94 0 0 0-2.21-1.61l-21.39 3.33a1.94 1.94 0 0 0-1.61 2.21h0a1.93 1.93 0 0 0 2.21 1.6zm.82 5.28l21.39-3.33a1.93 1.93 0 0 0 1.61-2.2h0a1.94 1.94 0 0 0-2.2-1.61l-21.4 3.33a1.93 1.93 0 0 0-1.61 2.2h0a1.94 1.94 0 0 0 2.21 1.61z" class="V W X"/><use xlink:href="#D" x="25.43" y="163.38" class="Z"/><g class="V W X"><path d="M402.3 191.94l21.39-3.33a1.93 1.93 0 0 0 1.61-2.2h0a1.94 1.94 0 0 0-2.2-1.61l-21.4 3.33a1.93 1.93 0 0 0-1.6 2.21h0a1.92 1.92 0 0 0 2.2 1.6z"/><use xlink:href="#I"/></g><use xlink:href="#D" x="29.06" y="186.72" class="V W Y"/><g class="X V W"><path d="M405.93 215.28l21.39-3.28a1.93 1.93 0 0 0 1.61-2.2h0a1.93 1.93 0 0 0-2.2-1.61l-21.39 3.33a1.93 1.93 0 0 0-1.61 2.21h0a1.92 1.92 0 0 0 2.2 1.55z"/><use xlink:href="#G" x="14.53" y="93.36"/></g><use xlink:href="#D" x="32.69" y="210.06" class="V W Y"/><g class="X V W"><path d="M409.56 238.62l21.44-3.33a1.91 1.91 0 0 0 1.61-2.2h0a1.92 1.92 0 0 0-2.2-1.6L409 234.81a1.94 1.94 0 0 0-1.61 2.21h0a1.92 1.92 0 0 0 2.17 1.6z"/><use xlink:href="#H" x="14.53" y="93.36"/></g><path d="M405.38 264.19a7.16 7.16 0 1 0 6-8.18 7.15 7.15 0 0 0-6 8.18z" class="V W Y"/><path d="M413.19 262l21.4-3.33a1.91 1.91 0 0 0 1.6-2.2h0a1.91 1.91 0 0 0-2.2-1.6l-21.39 3.32a1.94 1.94 0 0 0-1.61 2.21h0a1.92 1.92 0 0 0 2.2 1.6zm.81 5.24l21.39-3.33a1.93 1.93 0 0 0 1.61-2.2h0a1.94 1.94 0 0 0-2.21-1.61l-21.39 3.33a1.93 1.93 0 0 0-1.61 2.2h0a1.94 1.94 0 0 0 2.21 1.61z" class="X V W"/><use xlink:href="#D" x="39.95" y="256.74" class="V W Y"/><path d="M416.83 285.3l21.39-3.3a1.93 1.93 0 0 0 1.61-2.2h0a1.92 1.92 0 0 0-2.2-1.6l-21.4 3.32a1.93 1.93 0 0 0-1.6 2.21h0a1.91 1.91 0 0 0 2.2 1.57zm.82 5.28l21.35-3.33a1.93 1.93 0 0 0 1.61-2.2h0a1.94 1.94 0 0 0-2.2-1.61l-21.4 3.33a1.92 1.92 0 0 0-1.6 2.2h0a1.93 1.93 0 0 0 2.24 1.61z" class="X V W"/><use xlink:href="#D" x="43.59" y="280.08" class="V W Y"/><g class="X V W"><path d="M420.46 308.64l21.39-3.33a1.93 1.93 0 0 0 1.61-2.2h0a1.92 1.92 0 0 0-2.2-1.6l-21.39 3.32a1.93 1.93 0 0 0-1.61 2.21h0a1.92 1.92 0 0 0 2.2 1.6z"/><use xlink:href="#I" x="18.16" y="116.7"/></g><use xlink:href="#D" x="47.22" y="303.42" class="V W Y"/><g class="X V W"><path d="M424.09 332l21.39-3.32a1.93 1.93 0 0 0 1.61-2.21h0a1.92 1.92 0 0 0-2.2-1.6l-21.39 3.32a1.94 1.94 0 0 0-1.61 2.21h0a1.92 1.92 0 0 0 2.2 1.6z"/><use xlink:href="#G" x="32.69" y="210.06"/></g><use xlink:href="#D" x="50.85" y="326.76" class="V W Y"/><path d="M427.72 355.32l21.4-3.32a1.93 1.93 0 0 0 1.6-2.21h0a1.92 1.92 0 0 0-2.2-1.6l-21.39 3.32a1.94 1.94 0 0 0-1.61 2.21h0a1.92 1.92 0 0 0 2.2 1.6zm.82 5.28l21.4-3.33a1.92 1.92 0 0 0 1.6-2.2h0a1.93 1.93 0 0 0-2.2-1.61L428 356.79a1.93 1.93 0 0 0-1.61 2.2h0a1.94 1.94 0 0 0 2.15 1.61z" class="X V W"/><path d="M423.54 380.89a7.16 7.16 0 1 0 6-8.18 7.15 7.15 0 0 0-6 8.18z" class="V W Y"/><path d="M431.36 378.66l21.39-3.32a1.94 1.94 0 0 0 1.61-2.21h0a1.93 1.93 0 0 0-2.21-1.6l-21.39 3.32a1.94 1.94 0 0 0-1.61 2.21h0a1.93 1.93 0 0 0 2.21 1.6zm.82 5.28l21.39-3.33a1.93 1.93 0 0 0 1.61-2.2h0a1.94 1.94 0 0 0-2.2-1.61l-21.4 3.33a1.92 1.92 0 0 0-1.6 2.2h0a1.93 1.93 0 0 0 2.2 1.61z" class="X V W"/><use xlink:href="#D" x="58.12" y="373.44" class="V W Y"/><path d="M435 402l21.39-3.32a1.94 1.94 0 0 0 1.61-2.21h0a1.92 1.92 0 0 0-2.2-1.6l-21.4 3.32a1.93 1.93 0 0 0-1.6 2.21h0a1.92 1.92 0 0 0 2.2 1.6zm.81 5.28L457.2 404a1.93 1.93 0 0 0 1.61-2.2h0a1.93 1.93 0 0 0-2.2-1.61l-21.39 3.33a1.92 1.92 0 0 0-1.61 2.2h0a1.93 1.93 0 0 0 2.2 1.56z" class="X V W"/><use xlink:href="#D" x="61.75" y="396.78" class="V W Y"/><g class="X V W"><path d="M438.62 425.34L460 422a1.94 1.94 0 0 0 1.61-2.21h0a1.92 1.92 0 0 0-2.2-1.6L438 421.54a1.93 1.93 0 0 0-1.61 2.2h0a1.92 1.92 0 0 0 2.23 1.6z"/><use xlink:href="#G" x="47.22" y="303.42"/></g><use xlink:href="#D" x="65.38" y="420.12" class="V W Y"/><g class="X V W"><path d="M442.25 448.68l21.39-3.32a1.93 1.93 0 0 0 1.61-2.21h0a1.92 1.92 0 0 0-2.2-1.6l-21.39 3.33a1.93 1.93 0 0 0-1.61 2.2h0a1.92 1.92 0 0 0 2.2 1.6z"/><use xlink:href="#H" x="47.22" y="303.46"/></g><path d="M438.07 474.25a7.16 7.16 0 1 0 6-8.18 7.14 7.14 0 0 0-6 8.18z" class="V W Y"/><path d="M445.88 472l21.4-3.32a1.94 1.94 0 0 0 1.61-2.21h0a1.93 1.93 0 0 0-2.21-1.6l-21.39 3.33a1.93 1.93 0 0 0-1.61 2.2h0a1.92 1.92 0 0 0 2.2 1.6zm.83 5.3l21.39-3.3a1.93 1.93 0 0 0 1.61-2.2h0a1.94 1.94 0 0 0-2.21-1.61l-21.39 3.33a1.93 1.93 0 0 0-1.61 2.2h0a1.94 1.94 0 0 0 2.21 1.58z" class="X V W"/><g opacity=".3" fill="none" stroke="#000" class="V e"><path d="M132.21 78.36l5.32-.82m5.31-.83l5.32-.83M80.21 93.95l5.32-.82m5.31-.83l5.31-.83m5.32-.83l5.31-.82m5.32-.83l5.31-.83m5.31-.82l5.32-.83m5.31-.83l5.32-.82m5.31-.83l5.32-.83m-67.95 18.07l5.31-.82m5.32-.83l5.31-.83m5.32-.82l5.31-.83m5.32-.83l5.31-.83m5.31-.82l5.32-.83m5.31-.83l5.32-.82m5.31-.83l5.31-.83m-67.94 18.07l5.31-.82m5.32-.83l5.31-.83m5.32-.82l5.31-.83m5.31-.83l5.32-.83m5.31-.82l5.32-.83m5.31-.83l5.32-.82m5.31-.83l5.31-.83m-67.94 18.07l5.31-.82m5.32-.83l5.31-.83m5.32-.82l5.31-.83m5.31-.83l5.32-.83m5.31-.82l5.32-.83m5.31-.83l5.31-.82m5.32-.83l5.31-.83M77.58 77.03l5.31-.83m5.32-.83l5.31-.83m5.31-.82l5.32-.83m5.31-.83l5.32-.82m5.31-.83l5.31-.83m5.32-.82l5.31-.83m5.32-.83l5.31-.83m1.1 4.05l-70 10.89M97.2 64.6l26.99-4.2m-60.54 79.69l297.82-46.35M67.38 164.08l297.82-46.35M71.12 188.06l297.82-46.34M74.85 212.05l297.82-46.35M78.58 236.03l297.82-46.34M82.31 260.02l297.82-46.35M86.05 284.01l297.82-46.35M89.78 307.99l297.82-46.35M93.51 331.98l297.82-46.35M97.24 355.96l297.83-46.34m-294.09 70.33L398.8 333.6m-294.09 70.33l297.82-46.34m-294.09 70.33l297.82-46.35M117.31 484.89l297.82-46.35m-294.87 65.33l297.82-46.34m-294.86 65.33l297.82-46.35"/></g><g fill="none" class="V W e"><path d="M106.14,163.16s-25.41,27.5-10.73,23.17,34.78-33.05,30.49-21.12-4,20.07,2.87,11.83,10.75-9.86,9.37-5.55,4.31,1.38,4.31,1.38,14.06-8.33,12.68-4-2.38,4.46,1.62,3.84l13-2s-.84,1.15,11.15-.71,16.68-4.65,22.68-5.58"/><path d="M94.59 200.79s19.59-12.26 22-9.58-.91 7.31 7.93 4.91 16.9-9.79 17.53-5.8 6.3 1.07 6.3 1.07l5-.78s9.15-.4 12-1.86 5.82-15.24 3.62 3.53-9.84 2.55 8.38-5.4 21.61.73 21.61.73a28.46 28.46 0 0 0 5.84-1.93c3.84-1.62 7.21-6.24 10.83-2.71s10.06-7.71 10.06-7.71a59.45 59.45 0 0 1 7.47 1.91 17.37 17.37 0 0 0 7.3.91 56.13 56.13 0 0 0 9.15-.4c4-.62 7.38-5.24 10.69-3.71s8.28-12.55 5.77 4.22-18.68 24.41-12.07 14.17a83.77 83.77 0 0 1 22-22.88c7.37-5.24 9.52-4.55 11.14-.71s3.62 3.53 7.47 1.91.53-3.15 3.84-1.62 4.31 1.38 7.31.91-11.06 7.86 3-.47 19.08-41.86 11.73-23.32-4.58 23.23 5.26 20.68M96.73 234.23s24-23.18 22.56-26-9.15.4-14.75 10.49-1.66 15.61 13.39 7.13-6.84 2.08 8.62 2.75 20.06-9.26 20.52-6.26-4.68 2.77 7.46 1.9 6.22-6.08 18.68-5 18-2.8 18-2.8l8-1.24s-16.15 1.49 4.84-1.78 30.25-29.27 20.12-15.41-5.35 18.23 5 12.52l10.37-5.71s13.12-14.32 6.93 5.07-13.47 5.19 9.53-4.54 22.45-.42 30.13-3.66 6.44-11.24 11.53-4.87 4.78 4.38 12.77 3.13 5.84-1.93 12.84-3l15-2.33m-237.5 111.66s16.75-10.79 19.41-26.56-10.53 4.71-9.1 27-6.4-8.21 17-15.94-2.06 6.46.56 10.15 21.74-11.58 21.52-6.42S154.21 301 166 291s-7.39-8.06-8.3-.76 4.77 4.38 19.3-.95.31 2 9.3.6 28.81-18.82 24.9-11-.13 12.3 4.24 7.53 13.66-17.48 14.44-12.49a12.07 12.07 0 0 1-1.8 8.47"/></g><path d="M528.94 458.28c-3.88-10.94-4.56-68.35-3.69-109.17L548 354a16.6 16.6 0 0 0 11.59-1.7 16.82 16.82 0 0 0 2.43-1.66 16.34 16.34 0 0 0 2-2 16.74 16.74 0 0 0 4.13-10.22 16.34 16.34 0 0 0-.51-4.91 16.6 16.6 0 0 0-1.87-4.44 16.89 16.89 0 0 0-1.9-2.57 16.6 16.6 0 0 0-9.93-5.32l-27.43-4.08c.25-3.57.53-6.33.82-8a38.34 38.34 0 0 0 .59-8l1.9-6.12c2.75-8.87.66-21.93-6.89-29.35s-34.33-20.49-42.24-27.35-66.6-48.72-77.15-46.25-23 17.5-33.63 25.8-48.79 39.53-48.79 39.53c.12-1.33-19.66 6.67-24.47 14.42a3.31 3.31 0 0 0-1 2.69c.79 3.38 3.18 7.29 8.78 9.68l-17.15-2.55a5.17 5.17 0 0 0-5.07 2.28c-6.08-.92-18.44-2.27-27.38.18 0 0 14.59 7.13 25.5 9.51a5.16 5.16 0 0 0 3.79 3.39l22.76 4.92a25.68 25.68 0 0 0-.94 4.05 7.16 7.16 0 0 0 .51 3.68 24.13 24.13 0 0 0 .43 2.39c3.23 13.76 20.7 30.47 33.46 41.51s24.93 30 32.5 51.89 12.31 42.12 29.13 64.3a102.36 102.36 0 0 0 9.33 10.66l156.92 99.06-39.28-121.14zM324.3 285.79a14.3 14.3 0 0 0-.75 1.22l-4.34-.65a35.08 35.08 0 0 0 5.09-.57z" fill="#cae9ff" opacity=".5"/><path d="M552.51 596.07a21.82 21.82 0 0 0 9.55-30.07c-18.36-33.59-53.72-98.81-57.92-110.65-5.71-16.08-4.49-132.51-1.63-149.15s-3.87-24.74-23.1-30.39-87.3-40-97.45-42S322.47 262.82 303 279s14.1 39.28 38 70.94 35.1 110.32 35.1 110.32l88 152.12a26 26 0 0 0 34 10.35z" class="a"/><g clip-path="url(#A)"><use xlink:href="#J" fill="#af0"/><use xlink:href="#J" class="b"/></g><use xlink:href="#K" fill="#af0"/><use xlink:href="#K" fill="#d89b8f"/><g fill="none" class="V"><path d="M326.53 290.42s21.63-2.66 36.89-30.44c0 0 18 7.61 36.65 2.74m-14.86 7.63s-10.45 27.65 11.56 64.18" class="c d"/><path d="M362.09,272.88S373,286.29,374.76,298" class="W e"/><path d="M382.5 347.45s18.11-11.51 27.88-23.48 14.07-24.6 29.34-29.63m-76.3-34.36l-4.44-5.24" class="c d"/></g><path d="M261.06,281.6s-18.8-3.82-31.08-.45c0,0,18.05,8.83,29,10.13Z" class="Z"/><path d="M529.13 318.32L262.44 278.7a5.17 5.17 0 0 0-5.79 3.85l-1.3 5.18a5.18 5.18 0 0 0 3.93 6.33l263.87 57.05a16.69 16.69 0 0 0 20-13.85h0a16.68 16.68 0 0 0-14.02-18.94z" fill="#56d4b7"/><path d="M529.13 318.32l-40.31-6a20.19 20.19 0 0 0-9.17 22.12 20.56 20.56 0 0 0 3.88 8.09l39.62 8.56a16.67 16.67 0 0 0 20-13.84h0a16.68 16.68 0 0 0-14.02-18.93z" class="Z"/><path d="M421.19,343.21s-22.94,5.38-33.18,3-31.2-31.88-45.57-41.57-23.14-12-38.2-14.26-25.44,5-22.21,18.77,20.71,30.46,33.46,41.5,24.94,30,32.51,51.89,12.31,42.12,29.13,64.3S415,498.08,422,499.32" class="a"/><g clip-path="url(#B)"><use xlink:href="#L" fill="#af0"/><use xlink:href="#L" class="b"/></g><path d="M293.55,319s1.08-11.86,17.35-22.94c0,0-10.86-7.13-18.31-5.87s-10.36,5.34-11.5,12.87S293.55,319,293.55,319Z" fill="#ff6f66"/><path d="M304.23 331.58a21.3 21.3 0 0 0 4.17 3.26m7.65-31.31s-17.27 8.89-14.49 22.76" fill="none" class="V c d"/><path d="M502.25 301l2.75-8.87c2.76-8.88.66-21.94-6.89-29.36s-34.33-20.49-42.23-27.35-66.61-48.72-77.16-46.25-23 17.5-33.62 25.8-48.8 39.53-48.8 39.53-26.79 11.61-25.5 17.12 6.79 12.44 23.6 11.88 44.82-17.3 49.08-19.75 30.68-19.79 30.68-19.79 10.81 11 23.3 16.79l14.08 6.38S414.8 278.89 424 285" class="a"/><g clip-path="url(#C)"><use xlink:href="#M" fill="#af0"/><use xlink:href="#M" class="b"/><use xlink:href="#K" fill="#af0"/><use xlink:href="#K" class="b"/></g><path d="M270.8 271.57s2.73 1.29 8.47-1 16.9-14.61 17-16.09-24.55 8.64-25.47 17.09z" fill="#ff6f66"/><path d="M373.09 224.29a33.33 33.33 0 0 1 1-3.58m.07 23.2a39.39 39.39 0 0 1-1.73-15" fill="none" class="V c d"/></svg>