<svg xmlns="http://www.w3.org/2000/svg" xmlns:xlink="http://www.w3.org/1999/xlink" viewBox="0 0 718 936.86" xmlns:v="https://vecta.io/nano"><style><![CDATA[.B{isolation:isolate}.I{mix-blend-mode:multiply}.S{stroke-width:10}.T{stroke:#d0e6f6}.U{stroke:#f7825e}.V{stroke:#f95d6c}.W{stroke-width:1.26}.X{stroke:#a1bedb}.Y{stroke:#f4d760}]]></style><defs><linearGradient id="A" x1="7166.28" y1="237.11" x2="7166.81" y2="227.64" gradientTransform="matrix(93.47, 0, 0, -51.5, -669474.14, 12584.53)" gradientUnits="userSpaceOnUse"><stop offset="0" stop-color="#d3f7ff"/><stop offset="1" stop-color="#dff4ff"/></linearGradient><linearGradient id="B" gradientTransform="matrix(93.47, 0, 0, -51.5, -669475.14, 12584.53)" xlink:href="#A"/><clipPath id="C"><path d="M667.92,679.24c1.43,8.11-9,15.23-23.33,15.94-.73,0-1.45.06-2.18.06L141,695.4c-13.72,0-25.28-6-26.29-13.81l-6.3-49.44L26.66,34.49c-1-8.11,9.74-15.11,24.07-15.59l501.17-.15c13.4,0,24.86,5.81,59.13,11.18l87.7,634.35Z" fill="none"/></clipPath></defs><g class="B"><path d="M400.47 845.55H259.25L298.4 761h139.33l-37.25 84.54zm-45.12-60.06A15.66 15.66 0 1 0 371 801.14a15.66 15.66 0 0 0-15.65-15.65z" fill="#7fc1ff"/><path d="M277 761l-26.77 53a32.56 32.56 0 0 0 29.06 47.26h33.56v-17l-32.52-.33a12.53 12.53 0 0 1-11.24-17.71L298.77 761z" fill="#3e6c98"/><path d="M309.74 844.28l143.32 1.24a3.48 3.48 0 0 1 3.45 3.49v8.7a3.49 3.49 0 0 1-3.51 3.49H309.71a3.49 3.49 0 0 1-3.49-3.49v-9.94a3.49 3.49 0 0 1 3.52-3.49z" fill="#5185b7"/><g fill="#3e6c98"><path d="M48.34,377.67A15.66,15.66,0,0,1,62.1,360.32a15.22,15.22,0,0,1,1.79-.11H619.61a15.67,15.67,0,0,1,15.57,14l41.75,382a15.64,15.64,0,0,1-13.86,17.26,16,16,0,0,1-1.7.1H108a15.65,15.65,0,0,1-15.56-13.86Z"/><path d="M692.58 743.84a32.86 32.86 0 0 1-31.93 29.69c-29.81 1.75 31.93-29.69 31.93-29.69zM90.78 357.08s-42.55-.9-42.55 17.9 42.55-17.9 42.55-17.9z"/></g><path d="M64.05,374.57a15.65,15.65,0,0,1,13.71-17.38,16.08,16.08,0,0,1,1.84-.11H635.31A15.66,15.66,0,0,1,650.87,371l41.68,372.61a15.66,15.66,0,0,1-13.82,17.3,15.05,15.05,0,0,1-1.78.1H123.58A15.66,15.66,0,0,1,108,747.19Z" fill="#7fc1ff"/><g opacity=".77"><path d="M82.8 386.79a12.53 12.53 0 0 1 10.91-14 12.79 12.79 0 0 1 1.52-.09h529.09a12.52 12.52 0 0 1 12.45 11.3L668 681.42a12.54 12.54 0 0 1-11.15 13.77l-1.31.06H131.69a12.52 12.52 0 0 1-12.43-11z" fill="url(#A)"/><path d="M95.23 375.87a9.4 9.4 0 0 0-9.33 10.54l36.46 297.46a9.41 9.41 0 0 0 9.33 8.25h523.84a9.38 9.38 0 0 0 9.34-10.37l-31.21-297.47a9.37 9.37 0 0 0-9.34-8.41H95.23m0-3.13h529.09A12.52 12.52 0 0 1 636.77 384L668 681.42a12.53 12.53 0 0 1-12.46 13.83H131.69a12.53 12.53 0 0 1-12.44-11L82.8 386.79a12.52 12.52 0 0 1 12.43-14.05z" fill="url(#B)"/></g><image class="I" width="718" height="722" opacity=".3"/><g clip-path="url(#C)"><rect x="142.96" y="258.13" width="479.91" height="678.73" rx="17.67" fill="#fff"/><g fill="none" stroke-linecap="round" stroke-linejoin="round"><path d="M496.62 307.49H269.21" stroke-width="15" class="X"/><g class="S T"><path d="M505.27 339.87h89.5m-315.62 0h202.04m-310.13 0h84.01"/></g><path d="M580.34 359.39h14.43" class="S Y"/><path d="M424.12 359.39h132.15" class="S T"/><path d="M319.78 359.39h80.26" class="S U"/><g class="T S"><path d="M171.06 359.39h124.65m247.65 21.13h51.41m-190.53 0h115.04"/></g><path d="M265.68 380.52h114.49" class="S V"/><g class="T S"><path d="M171.06 380.52h70.55m242.68 22.33h110.48m-156.3 0h21.74m-121.11 0h75.29m-243.33 0h143.97m-58.18 22.32h45.58"/></g><path d="M224.39 425.17h8.38" class="S U"/><path d="M171.06 425.17h29.25" class="S T"/><path d="M465.27 456.25h129.5" class="S Y"/><g class="T S"><path d="M379.15 456.25h62.04m-270.13 0h184.01m19.05 19.52h222.15m-266.49 0h20.26m-178.98 0h134.65m207.65 21.13h81.41"/></g><path d="M444.24 496.9h45.04" class="S U"/><path d="M215.68 496.9h204.49" class="S V"/><g class="T S"><path d="M171.06 496.9h20.55m322.68 22.33h80.48m-116.3 0h11.74m-121.11 0h85.29m-283.33 0h173.97m-28.18 22.33h45.58"/></g><path d="M274.39 541.56h18.38" class="S U"/><g class="T S"><path d="M171.06 541.56h79.25m164.96 31.07h179.5"/></g><path d="M209.15 572.63h182.04" class="S U"/><g class="T S"><path d="M171.06 572.63h14.01m289.05 19.52h122.15m-366.49 0h220.26"/></g><path d="M171.06 592.15h34.65" class="S Y"/><path d="M563.36 613.29h31.41" class="S T"/><path d="M464.24 613.29h75.04" class="S V"/><g class="T S"><path d="M325.68 613.29h114.49m-269.11 0h130.55m222.68 22.32h70.48m-186.3 0h91.74m-131.11 0h15.29m-213.33 0h173.97m11.82 22.33h25.58m-168.04 0h118.38"/></g><path d="M171.06 657.94h19.25" class="S V"/><path d="M505.27 689.02h89.5" class="S T"/><path d="M279.15 689.02h202.04" class="S U"/><g class="T"><path d="M171.06 689.02h84.01m169.05 19.52h132.15m-236.49 0h80.26m-228.98 0h124.65m247.65 21.13h51.41m-190.53 0h115.04m-253.6 0h114.49m-209.11 0h70.55M484.29 752h110.48m-156.3 0h21.74m-121.11 0h75.29m-243.33 0h143.97m-58.18 22.33h45.58m-78.04 0h8.38m-61.71 0h29.25" class="S"/><g class="W"><path d="M225.57 847.59h107.97"/></g></g><path d="M213.2 847.59h0" class="W X"/><path d="M380.94 847.59h107.97" class="T W"/><path d="M368.57 847.59h0" class="W X"/></g></g></g></svg>