<svg xmlns="http://www.w3.org/2000/svg" xmlns:xlink="http://www.w3.org/1999/xlink" viewBox="0 0 718 936.86"><defs><style>.cls-1,.cls-12,.cls-13,.cls-14,.cls-15,.cls-16,.cls-17,.cls-18{fill:none;}.cls-2{isolation:isolate;}.cls-3{fill:#7fc1ff;}.cls-4{fill:#3e6c98;}.cls-5{fill:#5185b7;}.cls-6{opacity:0.77;}.cls-7{fill:url(#linear-gradient);}.cls-8{fill:url(#linear-gradient-2);}.cls-9{mix-blend-mode:multiply;opacity:0.3;}.cls-10{clip-path:url(#clip-path);}.cls-11{fill:#fff;}.cls-12,.cls-18{stroke:#a1bedb;}.cls-12,.cls-13,.cls-14,.cls-15,.cls-16,.cls-17,.cls-18{stroke-linecap:round;stroke-linejoin:round;}.cls-12{stroke-width:15px;}.cls-13,.cls-17{stroke:#d0e6f6;}.cls-13,.cls-14,.cls-15,.cls-16{stroke-width:10px;}.cls-14{stroke:#f4d760;}.cls-15{stroke:#f7825e;}.cls-16{stroke:#f95d6c;}.cls-17,.cls-18{stroke-width:1.26px;}</style><linearGradient id="linear-gradient" x1="7166.28" y1="237.11" x2="7166.81" y2="227.64" gradientTransform="matrix(93.47, 0, 0, -51.5, -669474.14, 12584.53)" gradientUnits="userSpaceOnUse"><stop offset="0" stop-color="#d3f7ff"/><stop offset="1" stop-color="#dff4ff"/></linearGradient><linearGradient id="linear-gradient-2" x1="7166.28" y1="237.11" x2="7166.81" y2="227.64" gradientTransform="matrix(93.47, 0, 0, -51.5, -669475.14, 12584.53)" xlink:href="#linear-gradient"/><clipPath id="clip-path"><path class="cls-1" d="M667.92,679.24c1.43,8.11-9,15.23-23.33,15.94-.73,0-1.45.06-2.18.06L141,695.4c-13.72,0-25.28-6-26.29-13.81l-6.3-49.44L26.66,34.49c-1-8.11,9.74-15.11,24.07-15.59l501.17-.15c13.4,0,24.86,5.81,59.13,11.18l87.7,634.35Z"/></clipPath></defs><g class="cls-2"><g id="Layer_2" data-name="Layer 2"><g id="_7" data-name="7"><g id="imac"><path id="Combined_Shape" data-name="Combined Shape" class="cls-3" d="M400.47,845.55H259.25L298.4,761H437.73l-37.25,84.54Zm-45.12-60.06A15.66,15.66,0,1,0,371,801.14,15.66,15.66,0,0,0,355.35,785.49Z"/><path id="Path_310" data-name="Path 310" class="cls-4" d="M277,761,250.23,814a32.56,32.56,0,0,0,29.06,47.26h33.56v-17l-32.52-.33a12.53,12.53,0,0,1-11.24-17.71L298.77,761Z"/><path id="Rectangle_Copy_21" data-name="Rectangle Copy 21" class="cls-5" d="M309.74,844.28l143.32,1.24a3.48,3.48,0,0,1,3.45,3.49v8.7A3.49,3.49,0,0,1,453,861.2H309.71a3.49,3.49,0,0,1-3.49-3.49v-9.94A3.49,3.49,0,0,1,309.74,844.28Z"/><path id="Rectangle" class="cls-4" d="M48.34,377.67A15.66,15.66,0,0,1,62.1,360.32a15.22,15.22,0,0,1,1.79-.11H619.61a15.67,15.67,0,0,1,15.57,14l41.75,382a15.64,15.64,0,0,1-13.86,17.26,16,16,0,0,1-1.7.1H108a15.65,15.65,0,0,1-15.56-13.86Z"/><path id="Path_608" data-name="Path 608" class="cls-4" d="M692.58,743.84a32.86,32.86,0,0,1-31.93,29.69C630.84,775.28,692.58,743.84,692.58,743.84Z"/><path id="Path_607" data-name="Path 607" class="cls-4" d="M90.78,357.08s-42.55-.9-42.55,17.9S90.78,357.08,90.78,357.08Z"/><path id="Rectangle_Copy_25" data-name="Rectangle Copy 25" class="cls-3" d="M64.05,374.57a15.65,15.65,0,0,1,13.71-17.38,16.08,16.08,0,0,1,1.84-.11H635.31A15.66,15.66,0,0,1,650.87,371l41.68,372.61a15.66,15.66,0,0,1-13.82,17.3,15.05,15.05,0,0,1-1.78.1H123.58A15.66,15.66,0,0,1,108,747.19Z"/><g id="Rectangle_Copy_24" data-name="Rectangle Copy 24" class="cls-6"><path class="cls-7" d="M82.8,386.79a12.53,12.53,0,0,1,10.91-14,12.79,12.79,0,0,1,1.52-.09H624.32A12.52,12.52,0,0,1,636.77,384L668,681.42a12.54,12.54,0,0,1-11.15,13.77c-.44,0-.87.06-1.31.06H131.69a12.52,12.52,0,0,1-12.43-11Z"/><path class="cls-8" d="M95.23,375.87a9.4,9.4,0,0,0-9.33,10.54l36.46,297.46a9.41,9.41,0,0,0,9.33,8.25H655.53a9.38,9.38,0,0,0,9.34-10.37L633.66,384.28a9.37,9.37,0,0,0-9.34-8.41H95.23m0-3.13H624.32A12.52,12.52,0,0,1,636.77,384L668,681.42a12.53,12.53,0,0,1-12.46,13.83H131.69a12.53,12.53,0,0,1-12.44-11L82.8,386.79A12.52,12.52,0,0,1,95.23,372.74Z"/></g></g><g id="Group_52" data-name="Group 52"><image class="cls-9" width="718" height="722" /><g class="cls-10"><rect class="cls-11" x="142.96" y="258.13" width="479.91" height="678.73" rx="17.67"/><line class="cls-12" x1="496.62" y1="307.49" x2="269.21" y2="307.49"/><line class="cls-13" x1="505.27" y1="339.87" x2="594.77" y2="339.87"/><line class="cls-13" x1="279.15" y1="339.87" x2="481.19" y2="339.87"/><line class="cls-13" x1="171.06" y1="339.87" x2="255.07" y2="339.87"/><line class="cls-14" x1="580.34" y1="359.39" x2="594.77" y2="359.39"/><line class="cls-13" x1="424.12" y1="359.39" x2="556.27" y2="359.39"/><line class="cls-15" x1="319.78" y1="359.39" x2="400.04" y2="359.39"/><line class="cls-13" x1="171.06" y1="359.39" x2="295.71" y2="359.39"/><line class="cls-13" x1="543.36" y1="380.52" x2="594.77" y2="380.52"/><line class="cls-13" x1="404.24" y1="380.52" x2="519.28" y2="380.52"/><line class="cls-16" x1="265.68" y1="380.52" x2="380.17" y2="380.52"/><line class="cls-13" x1="171.06" y1="380.52" x2="241.61" y2="380.52"/><line class="cls-13" x1="484.29" y1="402.85" x2="594.77" y2="402.85"/><line class="cls-13" x1="438.47" y1="402.85" x2="460.21" y2="402.85"/><line class="cls-13" x1="339.1" y1="402.85" x2="414.39" y2="402.85"/><line class="cls-13" x1="171.06" y1="402.85" x2="315.03" y2="402.85"/><line class="cls-13" x1="256.85" y1="425.17" x2="302.43" y2="425.17"/><line class="cls-15" x1="224.39" y1="425.17" x2="232.77" y2="425.17"/><line class="cls-13" x1="171.06" y1="425.17" x2="200.31" y2="425.17"/><line class="cls-14" x1="465.27" y1="456.25" x2="594.77" y2="456.25"/><line class="cls-13" x1="379.15" y1="456.25" x2="441.19" y2="456.25"/><line class="cls-13" x1="171.06" y1="456.25" x2="355.07" y2="456.25"/><line class="cls-13" x1="374.12" y1="475.77" x2="596.27" y2="475.77"/><line class="cls-13" x1="329.78" y1="475.77" x2="350.04" y2="475.77"/><line class="cls-13" x1="171.06" y1="475.77" x2="305.71" y2="475.77"/><line class="cls-13" x1="513.36" y1="496.9" x2="594.77" y2="496.9"/><line class="cls-15" x1="444.24" y1="496.9" x2="489.28" y2="496.9"/><line class="cls-16" x1="215.68" y1="496.9" x2="420.17" y2="496.9"/><line class="cls-13" x1="171.06" y1="496.9" x2="191.61" y2="496.9"/><line class="cls-13" x1="514.29" y1="519.23" x2="594.77" y2="519.23"/><line class="cls-13" x1="478.47" y1="519.23" x2="490.21" y2="519.23"/><line class="cls-13" x1="369.1" y1="519.23" x2="454.39" y2="519.23"/><line class="cls-13" x1="171.06" y1="519.23" x2="345.03" y2="519.23"/><line class="cls-13" x1="316.85" y1="541.56" x2="362.43" y2="541.56"/><line class="cls-15" x1="274.39" y1="541.56" x2="292.77" y2="541.56"/><line class="cls-13" x1="171.06" y1="541.56" x2="250.31" y2="541.56"/><line class="cls-13" x1="415.27" y1="572.63" x2="594.77" y2="572.63"/><line class="cls-15" x1="209.15" y1="572.63" x2="391.19" y2="572.63"/><line class="cls-13" x1="171.06" y1="572.63" x2="185.07" y2="572.63"/><line class="cls-13" x1="474.12" y1="592.15" x2="596.27" y2="592.15"/><line class="cls-13" x1="229.78" y1="592.15" x2="450.04" y2="592.15"/><line class="cls-14" x1="171.06" y1="592.15" x2="205.71" y2="592.15"/><line class="cls-13" x1="563.36" y1="613.29" x2="594.77" y2="613.29"/><line class="cls-16" x1="464.24" y1="613.29" x2="539.28" y2="613.29"/><line class="cls-13" x1="325.68" y1="613.29" x2="440.17" y2="613.29"/><line class="cls-13" x1="171.06" y1="613.29" x2="301.61" y2="613.29"/><line class="cls-13" x1="524.29" y1="635.61" x2="594.77" y2="635.61"/><line class="cls-13" x1="408.47" y1="635.61" x2="500.21" y2="635.61"/><line class="cls-13" x1="369.1" y1="635.61" x2="384.39" y2="635.61"/><line class="cls-13" x1="171.06" y1="635.61" x2="345.03" y2="635.61"/><line class="cls-13" x1="356.85" y1="657.94" x2="382.43" y2="657.94"/><line class="cls-13" x1="214.39" y1="657.94" x2="332.77" y2="657.94"/><line class="cls-16" x1="171.06" y1="657.94" x2="190.31" y2="657.94"/><line class="cls-13" x1="505.27" y1="689.02" x2="594.77" y2="689.02"/><line class="cls-15" x1="279.15" y1="689.02" x2="481.19" y2="689.02"/><line class="cls-13" x1="171.06" y1="689.02" x2="255.07" y2="689.02"/><line class="cls-13" x1="424.12" y1="708.54" x2="556.27" y2="708.54"/><line class="cls-13" x1="319.78" y1="708.54" x2="400.04" y2="708.54"/><line class="cls-13" x1="171.06" y1="708.54" x2="295.71" y2="708.54"/><line class="cls-13" x1="543.36" y1="729.67" x2="594.77" y2="729.67"/><line class="cls-13" x1="404.24" y1="729.67" x2="519.28" y2="729.67"/><line class="cls-13" x1="265.68" y1="729.67" x2="380.17" y2="729.67"/><line class="cls-13" x1="171.06" y1="729.67" x2="241.61" y2="729.67"/><line class="cls-13" x1="484.29" y1="752" x2="594.77" y2="752"/><line class="cls-13" x1="438.47" y1="752" x2="460.21" y2="752"/><line class="cls-13" x1="339.1" y1="752" x2="414.39" y2="752"/><line class="cls-13" x1="171.06" y1="752" x2="315.03" y2="752"/><line class="cls-13" x1="256.85" y1="774.33" x2="302.43" y2="774.33"/><line class="cls-13" x1="224.39" y1="774.33" x2="232.77" y2="774.33"/><line class="cls-13" x1="171.06" y1="774.33" x2="200.31" y2="774.33"/><line class="cls-17" x1="225.57" y1="847.59" x2="333.54" y2="847.59"/><line class="cls-18" x1="213.2" y1="847.59" x2="213.2" y2="847.59"/><line class="cls-17" x1="380.94" y1="847.59" x2="488.91" y2="847.59"/><line class="cls-18" x1="368.57" y1="847.59" x2="368.57" y2="847.59"/></g></g></g></g></g></svg>