<svg xmlns="http://www.w3.org/2000/svg" xmlns:xlink="http://www.w3.org/1999/xlink" viewBox="0 0 651.39 666.4"><defs><style>.cls-1,.cls-19,.cls-23,.cls-24{fill:none;}.cls-2{fill:#607385;}.cls-3{fill:#fafafa;}.cls-4{fill:#7fc1ff;}.cls-5{fill:#bedcff;}.cls-6{fill:#955454;}.cls-7{fill:#b3b3b3;}.cls-8{fill:#56d4b7;}.cls-9{fill:#4bc5a9;}.cls-10{clip-path:url(#clip-path);}.cls-11{fill:#ffd3c8;}.cls-12{clip-path:url(#clip-path-2);}.cls-13{fill:#f1b2a2;}.cls-14{fill:#2a3756;}.cls-15{clip-path:url(#clip-path-3);}.cls-16,.cls-17{fill:#fff;stroke:#000;stroke-miterlimit:10;stroke-width:1.37px;}.cls-16{opacity:0.6;}.cls-18{clip-path:url(#clip-path-4);}.cls-19{stroke:#99776c;}.cls-19,.cls-23,.cls-24{stroke-miterlimit:10;stroke-width:1.37px;}.cls-20{fill:#dc5f58;}.cls-21{fill:#ff6f66;}.cls-22{clip-path:url(#clip-path-5);}.cls-23{stroke:#301913;}.cls-24{stroke:#324a83;stroke-linecap:round;}.cls-25{fill:#061537;}.cls-26{clip-path:url(#clip-path-6);}.cls-27{fill:#347f6e;}</style><clipPath id="clip-path" transform="translate(16.44)"><ellipse id="Oval_Copy_5" data-name="Oval Copy 5" class="cls-1" cx="308.28" cy="107.32" rx="29.71" ry="16.82" transform="translate(144.11 389.46) rotate(-79)"/></clipPath><clipPath id="clip-path-2" transform="translate(16.44)"><path class="cls-1" d="M567.35,646.94s18.46-5.58,18.46-9.65-23.2-36.65-23.2-36.65l29.26-2.13s16.6,37.23,16.6,50.28-42.09,9-42.09,9Z"/></clipPath><clipPath id="clip-path-3" transform="translate(16.44)"><path class="cls-1" d="M487.72,646.94s18.45-5.58,18.45-9.65-19.78-36.65-19.78-36.65l29.26-2.13s13.19,37.23,13.19,50.28-42.1,9-42.1,9Z"/></clipPath><clipPath id="clip-path-4" transform="translate(16.44)"><path class="cls-1" d="M309.64,187.3a41.09,41.09,0,0,1-1.76-15.73c.88-8.1.27-12.44-18.48-26.63,0,0-5.93-2.29-6.13,3.92a8.15,8.15,0,0,0-2.85,7.07s-3,3-1.71,9.83a9.8,9.8,0,0,0,2.11,10.54c4.71,4.79,11.23,5.48,11.23,16.07S309.64,187.3,309.64,187.3Z"/></clipPath><clipPath id="clip-path-5" transform="translate(16.44)"><path class="cls-1" d="M605.62,270.37s44.56,39.86-20.08,101.44S486.75,473.9,486.75,473.9l40.17,141H486.48S425,489.81,428.22,456.51,493.13,310.9,493.13,310.9L556,257.82Z"/></clipPath><clipPath id="clip-path-6" transform="translate(16.44)"><path class="cls-1" d="M534.69,214.17c-34.76-39-32.51-48.72-68-52.38s-71.81-3.59-95.78,32.93-33.05,64.88-37.09,58.78S312.38,185,312.38,185l-28.27,6.8s23.3,124.9,45.19,119.62,80.84-66.69,80.84-66.69,5.2,18.69,18.38,26c11.19,6.2,35.63-2.7,40,4.06,11.35,17.72,3.06,37.94,2,79.06,0,0,32.45-62.22,89.41-70.95s62.07,17,62.07,17a97.19,97.19,0,0,0-21-49.21C582.43,229,546.42,227.33,534.69,214.17Z"/></clipPath></defs><g id="Layer_2" data-name="Layer 2"><g id="_7" data-name="7"><polygon class="cls-2" points="444.79 502.6 98.09 544.27 16.44 60.19 363.13 18.52 444.79 502.6"/><polygon class="cls-3" points="431.1 495.1 108.77 533.84 30.88 72.13 353.21 33.39 431.1 495.1"/><polygon class="cls-4" points="339.3 108.13 76.16 139.76 73.64 124.8 336.78 93.17 339.3 108.13"/><polygon class="cls-5" points="353.34 191.36 90.2 222.99 89.04 216.12 352.19 184.5 353.34 191.36"/><polygon class="cls-5" points="356.07 207.51 92.92 239.14 91.77 232.28 354.91 200.65 356.07 207.51"/><polygon class="cls-5" points="358.79 223.66 95.65 255.29 94.49 248.43 357.63 216.8 358.79 223.66"/><polygon class="cls-5" points="361.52 239.81 98.37 271.44 97.21 264.58 360.36 232.95 361.52 239.81"/><polygon class="cls-5" points="364.24 255.97 101.09 287.59 99.94 280.73 363.08 249.1 364.24 255.97"/><polygon class="cls-5" points="366.96 272.12 103.82 303.74 102.66 296.88 365.81 265.25 366.96 272.12"/><path class="cls-6" d="M179.1,381.42a19.32,19.32,0,0,1-16.9,22.63,21.68,21.68,0,0,1-23.71-17.75,19.33,19.33,0,0,1,16.9-22.63A21.67,21.67,0,0,1,179.1,381.42Z" transform="translate(16.44)"/><path class="cls-7" d="M267.38,390.61h-.17a1.07,1.07,0,0,1-1-1.06c0-1.13.22-27.81,13.29-38.45a1.6,1.6,0,0,1,2-.28c1.46.93.95,3.82-1.67,14.81-1,4.37-2.28,9.56-2.63,12.67,1.21-2.21,3-5.95,4.33-8.93,4.31-9.29,5.2-10.83,6.32-11a1.34,1.34,0,0,1,1.12.4c.76.8.54,2.32-.33,6.8a49.19,49.19,0,0,0-.89,5.73,27.32,27.32,0,0,0,2.23-3.6c1.56-2.83,2.36-4.18,3.59-4.14a1.57,1.57,0,0,1,1.32.88,6.76,6.76,0,0,1,.42,1.08,3.72,3.72,0,0,0,2.08,2.71c2.77,1.12,10,.16,29-10.73a1.07,1.07,0,0,1,1.42.39,1,1,0,0,1-.33,1.38c-16,9.19-26.06,12.74-30.77,10.84a5.74,5.74,0,0,1-3.33-4c-.47.67-1.1,1.81-1.56,2.64-1.72,3.12-2.88,5-4.38,5.07a1.51,1.51,0,0,1-1.19-.52c-.89-1-.57-3.28.39-8.18.15-.79.32-1.69.47-2.53-1.09,2.09-2.52,5.18-3.68,7.68-4.83,10.41-5.76,11.95-7.12,11.75a1.35,1.35,0,0,1-1.12-1.13c-.51-2.24.72-7.72,2.66-15.84,1-4.12,2.27-9.52,2.42-11.84-11.76,10.44-12,36.15-12,36.42A1,1,0,0,1,267.38,390.61Z" transform="translate(16.44)"/><path class="cls-8" d="M248,22.39,207.08,27.3a21.62,21.62,0,0,0,.12-7.91A23.48,23.48,0,0,0,181.51.16a20.94,20.94,0,0,0-18.3,24.52,22.71,22.71,0,0,0,2.72,7.56l-40.88,4.92a5.65,5.65,0,0,0-5,6.63l2.77,16.42a6.34,6.34,0,0,0,6.95,5.21L252.73,50.65a5.68,5.68,0,0,0,5-6.64l-2.77-16.42A6.35,6.35,0,0,0,248,22.39Zm-61.39,7.72a8.67,8.67,0,0,1-9.49-7.1,7.73,7.73,0,0,1,6.76-9,8.68,8.68,0,0,1,9.49,7.1A7.73,7.73,0,0,1,186.57,30.11Z" transform="translate(16.44)"/><path class="cls-9" d="M129.82,65.42,252.73,50.65a5.68,5.68,0,0,0,5-6.64l-2.77-16.42Z" transform="translate(16.44)"/><g class="cls-10"><polygon class="cls-4" points="343.58 108.37 3.26 149.27 0 129.92 340.32 89.02 343.58 108.37"/></g><g id="women-6"><g id="foot-13"><g id="right-6"><g id="Path_480" data-name="Path 480"><path id="Mask-303" class="cls-11" d="M567.35,646.94s18.46-5.58,18.46-9.65-23.2-36.65-23.2-36.65l29.26-2.13s16.6,37.23,16.6,50.28-42.09,9-42.09,9Z" transform="translate(16.44)"/><g class="cls-12"><g id="Path_480-2" data-name="Path 480-2"><path id="Path_480-3" data-name="Path 480-3" class="cls-13" d="M599.55,607.09l-43.87,2.82,48.17,16.84Z" transform="translate(16.44)"/></g></g></g><path id="Path_479_Copy" data-name="Path 479 Copy" class="cls-14" d="M608.47,645.34s-19,9.71-25,10.24c-18.36,1.65-12.35-10.29-16.09-8.64-9.87,4.36-44.21,6.63-35.44,19.45h72.74a4.54,4.54,0,0,0,4.47-3.75l1.26-7.06A54.21,54.21,0,0,0,608.47,645.34Z" transform="translate(16.44)"/></g><g id="left-6"><g id="Path_475" data-name="Path 475"><path id="Mask-304" class="cls-11" d="M487.72,646.94s18.45-5.58,18.45-9.65-19.78-36.65-19.78-36.65l29.26-2.13s13.19,37.23,13.19,50.28-42.1,9-42.1,9Z" transform="translate(16.44)"/><g class="cls-15"><g id="Path_475-2" data-name="Path 475-2"><path id="Path_475-3" data-name="Path 475-3" class="cls-13" d="M479.61,608.1l51.72,24.74-14.74-29.16Z" transform="translate(16.44)"/></g></g></g><path id="Path_479" data-name="Path 479" class="cls-14" d="M528.84,645.34s-19,9.71-25,10.24c-18.36,1.65-12.35-10.29-16.09-8.64-9.89,4.36-45.3,8.64-35.44,19.46h72.64a4.55,4.55,0,0,0,4.5-3.87l1.07-6.95A59.24,59.24,0,0,0,528.84,645.34Z" transform="translate(16.44)"/></g></g><g id="glass"><g id="Path_478" data-name="Path 478"><path d="M303.21,136.62l-.06.38-3.26,23.55L292,159.46l3.36-24.29.37-2.71a11.81,11.81,0,0,0,5.88,4.22A14.26,14.26,0,0,0,303.21,136.62Z" transform="translate(16.44)"/></g><path d="M314.61,77.87a5.43,5.43,0,0,0-.58-.13c-9.26-1.8-19.32,10-22.5,26.33-2.27,11.67-.41,22.49,4.21,28.39a11.81,11.81,0,0,0,5.88,4.22,14.65,14.65,0,0,1-6.25-1.51c-9-4.38-14.12-17.69-11.8-32.3,2.65-16.74,14.11-28.85,25.59-27A14.81,14.81,0,0,1,314.61,77.87Z" transform="translate(16.44)"/><ellipse id="Oval_Copy_5-2" data-name="Oval Copy 5" class="cls-16" cx="308.28" cy="107.32" rx="30.14" ry="17.06" transform="translate(160.54 389.46) rotate(-79)"/><path class="cls-17" d="M325,110.57c-3.11,16-12.8,27.6-21.88,26.43a6.17,6.17,0,0,1-.62-.1,6.71,6.71,0,0,1-.91-.22,14.26,14.26,0,0,0,1.59-.06c10.15-.94,19.56-12.19,21.93-27.16,2.2-13.9-2.36-26.63-10.53-31.59C323.48,80.16,328.13,94.59,325,110.57Z" transform="translate(16.44)"/></g><g id="Hand-5"><g id="Path_483" data-name="Path 483"><path id="Mask-305" class="cls-11" d="M309.64,187.3a41.09,41.09,0,0,1-1.76-15.73c.88-8.1.27-12.44-18.48-26.63,0,0-5.93-2.29-6.13,3.92a8.15,8.15,0,0,0-2.85,7.07s-3,3-1.71,9.83a9.8,9.8,0,0,0,2.11,10.54c4.71,4.79,11.23,5.48,11.23,16.07S309.64,187.3,309.64,187.3Z" transform="translate(16.44)"/><g class="cls-18"><g id="Path_483-2" data-name="Path 483-2"><path id="Path_483-3" data-name="Path 483-3" class="cls-13" d="M310.85,185.61l-33.06-3.39,13.91,17.71Z" transform="translate(16.44)"/></g></g></g><path id="Path_490" data-name="Path 490" class="cls-19" d="M292,192.68c-.43-4.81-.43-7.75-8.5-14.14s-4.78-12.69-4.78-12.69c-1.37-7.12,1.75-9.92,1.75-9.92a7.48,7.48,0,0,1,2.83-7.07c.34-5.38,4.61-4.16,4.61-4.16s17.91,11.34,19.66,19.06" transform="translate(16.44)"/></g><g id="Pants-19"><path id="Path_474" data-name="Path 474" class="cls-20" d="M599.55,345.27S565,411.16,555.84,434.2a316.16,316.16,0,0,0-13.4,39.7l61,141H562.35s-77-133.33-77-145.2" transform="translate(16.44)"/><g id="Path_489" data-name="Path 489"><path id="Mask-306" class="cls-21" d="M605.62,270.37s44.56,39.86-20.08,101.44S486.75,473.9,486.75,473.9l40.17,141H486.48S425,489.81,428.22,456.51,493.13,310.9,493.13,310.9L556,257.82Z" transform="translate(16.44)"/><g class="cls-22"><g id="Path_489-2" data-name="Path 489-2"><path id="Path_488" data-name="Path 488" class="cls-23" d="M618.93,288.59c15.33,30.77-21.62,71.35-21.62,71.35s-44.72,43.83-67.12,66.92-43.45,47-43.45,47l9.43,32.32" transform="translate(16.44)"/></g></g></g></g><g id="Head-17"><ellipse id="Oval_Copy_29-6" data-name="Oval Copy 29-6" class="cls-24" cx="378.74" cy="120.17" rx="6.5" ry="6.55"/><path id="Path_477" data-name="Path 477" class="cls-25" d="M365,113.52s-7.35-17.21,5-20.8c0,0,6.6-14,29.11-14.35s40,15.19,35.66,47.38c0,0,5.67,14,33.11,25.85s29.56,22.52,23,36.55-34.05,20.14-52.93-7.33c0,0-13.91,9.83-23.72.05,0,0-25.77,17.24-35,0s9.25-28.08,0-48.54S365,113.52,365,113.52Z" transform="translate(16.44)"/><path id="Path_476" data-name="Path 476" class="cls-11" d="M405.51,164c-10.79-3.79-14.37-27.84-14.37-27.84,6.3-5.48,5.14-14.53-5.94-11.21s-17.61-22.7-17.61-22.7a67.82,67.82,0,0,0-3.22,17.16c0,7.41-3.39,9-5.41,11.87s4.31,4,4.31,4.88S364.21,166,378,164.07s14.87-5,20.29,3.78S416.33,167.79,405.51,164Z" transform="translate(16.44)"/><path id="Path_472" data-name="Path 472" class="cls-24" d="M355.8,119.5s29.69,1.32,34.08,3.49" transform="translate(16.44)"/></g><g id="Body-16"><g id="Path_482" data-name="Path 482"><path id="Mask-307" class="cls-8" d="M534.69,214.17c-34.76-39-32.51-48.72-68-52.38s-71.81-3.59-95.78,32.93-33.05,64.88-37.09,58.78S312.38,185,312.38,185l-28.27,6.8s23.3,124.9,45.19,119.62,80.84-66.69,80.84-66.69,5.2,18.69,18.38,26c11.19,6.2,35.63-2.7,40,4.06,11.35,17.72,3.06,37.94,2,79.06,0,0,32.45-62.22,89.41-70.95s62.07,17,62.07,17a97.19,97.19,0,0,0-21-49.21C582.43,229,546.42,227.33,534.69,214.17Z" transform="translate(16.44)"/><g class="cls-26"><g id="Path_482-2" data-name="Path 482-2"><path id="Path" class="cls-9" d="M405.41,250.3l18.26-22s25.18,24.76,73.31,43.58,88.45-47,125,16.49-15.7,19.73-15.7,19.73L500.2,326.29l-58.42-44a175.22,175.22,0,0,1-18.11-12.88C417.22,263.68,405.41,250.3,405.41,250.3Z" transform="translate(16.44)"/><path id="Path_482-3" data-name="Path 482-3" class="cls-27" d="M472.18,282.85q10.33,25.89,31.22,37c27.34,14.53-39.74,70.37-39.74,70.37l-31.87-70.38S470.05,277.51,472.18,282.85Z" transform="translate(16.44)"/><path id="Path_2" data-name="Path 2" class="cls-9" d="M304.35,180.67s7.27,36.87,12.57,55.29,15.92,43.64,15.92,43.64a100.42,100.42,0,0,1,2.27-24.5c2.94-14,13.63-28.84,13.63-28.84l-34.33-47.38Z" transform="translate(16.44)"/></g></g></g><path id="Path_481" data-name="Path 481" class="cls-25" d="M391.14,136.16s-6.44,3.05-7,19.32,4.78,19.2,4.78,19.2,11.27-5,16.15,5.71c0,0,27,53.14,47.62,28.44,0,0,50.58-2.74,59.39-33.78S489.37,139.77,462.37,142s-39.59-47.69-39.59-47.69l-23.39,50.28Z" transform="translate(16.44)"/><path id="Path_484" data-name="Path 484" class="cls-23" d="M391.58,173.25S367.45,189.76,347,237.46a112.18,112.18,0,0,1-7.52,12.24c-7.9,9.33-8.85,19.61-6.64,29.9" transform="translate(16.44)"/><path id="Path_485" data-name="Path 485" class="cls-23" d="M336,254.3s-9.93,2.51-10.71,10.59" transform="translate(16.44)"/><path id="Path_486" data-name="Path 486" class="cls-23" d="M423.53,229.24S408,247.77,398.79,257" transform="translate(16.44)"/><path id="Path_487" data-name="Path 487" class="cls-23" d="M472.18,282.85s7.9,20.42,21.75,31.93" transform="translate(16.44)"/></g></g></g></g></svg>