<svg xmlns="http://www.w3.org/2000/svg" viewBox="0 0 651.39 666.4" xmlns:v="https://vecta.io/nano"><style><![CDATA[.b{fill:none}.c{stroke-width:1.37}.d{stroke-miterlimit:10}.e{fill:#ffd3c8}.f{fill:#4bc5a9}.g{fill:#f1b2a2}]]></style><defs><clipPath id="A" transform="translate(16.44)"><ellipse cx="308.28" cy="107.32" rx="29.71" ry="16.82" transform="matrix(.190809 -.981627 .981627 .190809 144.11 389.46)" class="b"/></clipPath><clipPath id="B" transform="translate(16.44)"><path d="M567.35,646.94s18.46-5.58,18.46-9.65-23.2-36.65-23.2-36.65l29.26-2.13s16.6,37.23,16.6,50.28-42.09,9-42.09,9Z" class="b"/></clipPath><clipPath id="C" transform="translate(16.44)"><path d="M487.72,646.94s18.45-5.58,18.45-9.65-19.78-36.65-19.78-36.65l29.26-2.13s13.19,37.23,13.19,50.28-42.1,9-42.1,9Z" class="b"/></clipPath><clipPath id="D" transform="translate(16.44)"><path d="M309.64 187.3a41.09 41.09 0 0 1-1.76-15.73c.88-8.1.27-12.44-18.48-26.63 0 0-5.93-2.29-6.13 3.92a8.15 8.15 0 0 0-2.85 7.07s-3 3-1.71 9.83a9.8 9.8 0 0 0 2.11 10.54c4.71 4.79 11.23 5.48 11.23 16.07s17.59-5.07 17.59-5.07z" class="b"/></clipPath><clipPath id="E" transform="translate(16.44)"><path d="M605.62,270.37s44.56,39.86-20.08,101.44S486.75,473.9,486.75,473.9l40.17,141H486.48S425,489.81,428.22,456.51,493.13,310.9,493.13,310.9L556,257.82Z" class="b"/></clipPath><clipPath id="F" transform="translate(16.44)"><path d="M534.69 214.17c-34.76-39-32.51-48.72-68-52.38s-71.81-3.59-95.78 32.93-33.05 64.88-37.09 58.78-21.44-68.5-21.44-68.5l-28.27 6.8s23.3 124.9 45.19 119.62 80.84-66.69 80.84-66.69 5.2 18.69 18.38 26c11.19 6.2 35.63-2.7 40 4.06 11.35 17.72 3.06 37.94 2 79.06 0 0 32.45-62.22 89.41-70.95s62.07 17 62.07 17a97.19 97.19 0 0 0-21-49.21c-18.57-21.69-54.58-23.36-66.31-36.52z" class="b"/></clipPath></defs><path d="M444.79 502.6l-346.7 41.67L16.44 60.19l346.69-41.67 81.66 484.08z" fill="#607385"/><path d="M431.1 495.1l-322.33 38.74L30.88 72.13l322.33-38.74L431.1 495.1z" fill="#fafafa"/><path d="M339.3 108.13L76.16 139.76l-2.52-14.96 263.14-31.63 2.52 14.96z" fill="#7fc1ff"/><path d="M353.34 191.36L90.2 222.99l-1.16-6.87 263.15-31.62 1.15 6.86zm2.73 16.15L92.92 239.14l-1.15-6.86 263.14-31.63 1.16 6.86zm2.72 16.15L95.65 255.29l-1.16-6.86 263.14-31.63 1.16 6.86zm2.73 16.15L98.37 271.44l-1.16-6.86 263.15-31.63 1.16 6.86zm2.72 16.16l-263.15 31.62-1.15-6.86 263.14-31.63 1.16 6.87zm2.72 16.15l-263.14 31.62-1.16-6.86 263.15-31.63 1.15 6.87z" fill="#bedcff"/><path d="M195.54 381.42a19.32 19.32 0 0 1-16.9 22.63c-11.343 1.245-21.71-6.516-23.71-17.75a19.33 19.33 0 0 1 16.9-22.63c11.344-1.25 21.714 6.513 23.71 17.75z" fill="#955454"/><path d="M283.82 390.61h-.17a1.07 1.07 0 0 1-1-1.06c0-1.13.22-27.81 13.29-38.45a1.6 1.6 0 0 1 2-.28c1.46.93.95 3.82-1.67 14.81-1 4.37-2.28 9.56-2.63 12.67 1.21-2.21 3-5.95 4.33-8.93 4.31-9.29 5.2-10.83 6.32-11a1.34 1.34 0 0 1 1.12.4c.76.8.54 2.32-.33 6.8a49.19 49.19 0 0 0-.89 5.73 27.32 27.32 0 0 0 2.23-3.6c1.56-2.83 2.36-4.18 3.59-4.14a1.57 1.57 0 0 1 1.32.88 6.76 6.76 0 0 1 .42 1.08 3.72 3.72 0 0 0 2.08 2.71c2.77 1.12 10 .16 29-10.73a1.07 1.07 0 0 1 1.42.39 1 1 0 0 1-.33 1.38c-16 9.19-26.06 12.74-30.77 10.84a5.74 5.74 0 0 1-3.33-4c-.47.67-1.1 1.81-1.56 2.64-1.72 3.12-2.88 5-4.38 5.07a1.51 1.51 0 0 1-1.19-.52c-.89-1-.57-3.28.39-8.18l.47-2.53c-1.09 2.09-2.52 5.18-3.68 7.68-4.83 10.41-5.76 11.95-7.12 11.75a1.35 1.35 0 0 1-1.12-1.13c-.51-2.24.72-7.72 2.66-15.84 1-4.12 2.27-9.52 2.42-11.84-11.76 10.44-12 36.15-12 36.42a1 1 0 0 1-.89.98z" fill="#b3b3b3"/><path d="M264.44 22.39l-40.92 4.91a21.62 21.62 0 0 0 .12-7.91C221.476 7.215 210.241-1.195 197.95.16a20.94 20.94 0 0 0-18.3 24.52 22.71 22.71 0 0 0 2.72 7.56l-40.88 4.92a5.65 5.65 0 0 0-5 6.63l2.77 16.42a6.34 6.34 0 0 0 6.95 5.21l122.96-14.77a5.68 5.68 0 0 0 5-6.64l-2.77-16.42a6.35 6.35 0 0 0-6.96-5.2zm-61.39 7.72a8.67 8.67 0 0 1-9.49-7.1 7.73 7.73 0 0 1 6.76-9 8.68 8.68 0 0 1 9.49 7.1 7.73 7.73 0 0 1-6.8 9z" fill="#56d4b7"/><path d="M146.26 65.42l122.91-14.77a5.68 5.68 0 0 0 5-6.64l-2.77-16.42z" class="f"/><g clip-path="url(#A)"><path d="M343.58 108.37L3.26 149.27 0 129.92l340.32-40.9 3.26 19.35z" fill="#7fc1ff"/></g><path d="M583.79 646.94s18.46-5.58 18.46-9.65-23.2-36.65-23.2-36.65l29.26-2.13s16.6 37.23 16.6 50.28-42.09 9-42.09 9z" class="e"/><g clip-path="url(#B)" class="g"><path d="M615.99 607.09l-43.87 2.82 48.17 16.84z"/></g><path d="M624.91 645.34s-19 9.71-25 10.24c-18.36 1.65-12.35-10.29-16.09-8.64-9.87 4.36-44.21 6.63-35.44 19.45h72.74a4.54 4.54 0 0 0 4.47-3.75l1.26-7.06a54.21 54.21 0 0 0-1.94-10.24z" fill="#2a3756"/><path d="M504.16 646.94s18.45-5.58 18.45-9.65-19.78-36.65-19.78-36.65l29.26-2.13s13.19 37.23 13.19 50.28-42.1 9-42.1 9z" class="e"/><g clip-path="url(#C)" class="g"><path d="M496.05 608.1l51.72 24.74-14.74-29.16z"/></g><path d="M545.28 645.34s-19 9.71-25 10.24c-18.36 1.65-12.35-10.29-16.09-8.64-9.89 4.36-45.3 8.64-35.44 19.46h72.64a4.55 4.55 0 0 0 4.5-3.87l1.07-6.95a59.24 59.24 0 0 0-1.68-10.24z" fill="#2a3756"/><path d="M319.65 136.62l-.06.38-3.26 23.55-7.89-1.09 3.36-24.29.37-2.71a11.81 11.81 0 0 0 5.88 4.22 14.26 14.26 0 0 0 1.6-.06z"/><path d="M331.05 77.87a5.43 5.43 0 0 0-.58-.13c-9.26-1.8-19.32 10-22.5 26.33-2.27 11.67-.41 22.49 4.21 28.39a11.81 11.81 0 0 0 5.88 4.22 14.65 14.65 0 0 1-6.25-1.51c-9-4.38-14.12-17.69-11.8-32.3 2.65-16.74 14.11-28.85 25.59-27a14.81 14.81 0 0 1 5.45 2z"/><g stroke="#000" fill="#fff" class="c"><ellipse cx="308.28" cy="107.32" rx="30.14" ry="17.06" transform="matrix(.190809 -.981627 .981627 .190809 160.54 389.46)" opacity=".6"/><path d="M341.44 110.57c-3.11 16-12.8 27.6-21.88 26.43a6.17 6.17 0 0 1-.62-.1 6.71 6.71 0 0 1-.91-.22 14.26 14.26 0 0 0 1.59-.06c10.15-.94 19.56-12.19 21.93-27.16 2.2-13.9-2.36-26.63-10.53-31.59 8.9 2.29 13.55 16.72 10.42 32.7z" class="d"/></g><path d="M326.08 187.3a41.09 41.09 0 0 1-1.76-15.73c.88-8.1.27-12.44-18.48-26.63 0 0-5.93-2.29-6.13 3.92a8.15 8.15 0 0 0-2.85 7.07s-3 3-1.71 9.83a9.8 9.8 0 0 0 2.11 10.54c4.71 4.79 11.23 5.48 11.23 16.07s17.59-5.07 17.59-5.07z" class="e"/><g clip-path="url(#D)" class="g"><path d="M327.29 185.61l-33.06-3.39 13.91 17.71z"/></g><path d="M308.44 192.68c-.43-4.81-.43-7.75-8.5-14.14s-4.78-12.69-4.78-12.69c-1.37-7.12 1.75-9.92 1.75-9.92a7.48 7.48 0 0 1 2.83-7.07c.34-5.38 4.61-4.16 4.61-4.16s17.91 11.34 19.66 19.06" stroke="#99776c" class="b c d"/><path d="M615.99 345.27s-34.55 65.89-43.71 88.93a316.16 316.16 0 0 0-13.4 39.7l61 141h-41.09s-77-133.33-77-145.2" fill="#dc5f58"/><path d="M622.06 270.37s44.56 39.86-20.08 101.44-98.79 102.09-98.79 102.09l40.17 141h-40.44s-61.48-125.09-58.26-158.39 64.91-145.61 64.91-145.61l62.87-53.08z" fill="#ff6f66"/><g clip-path="url(#E)" class="b c d"><path d="M635.37 288.59c15.33 30.77-21.62 71.35-21.62 71.35l-67.12 66.92c-22.4 23.09-43.45 47-43.45 47l9.43 32.32" stroke="#301913"/></g><ellipse cx="378.74" cy="120.17" rx="6.5" ry="6.55" stroke="#324a83" class="b c"/><path d="M381.44 113.52s-7.35-17.21 5-20.8c0 0 6.6-14 29.11-14.35s40 15.19 35.66 47.38c0 0 5.67 14 33.11 25.85s29.56 22.52 23 36.55-34.05 20.14-52.93-7.33c0 0-13.91 9.83-23.72.05 0 0-25.77 17.24-35 0s9.25-28.08 0-48.54-14.23-18.81-14.23-18.81z" fill="#061537"/><path d="M421.95 164c-10.79-3.79-14.37-27.84-14.37-27.84 6.3-5.48 5.14-14.53-5.94-11.21s-17.61-22.7-17.61-22.7a67.82 67.82 0 0 0-3.22 17.16c0 7.41-3.39 9-5.41 11.87s4.31 4 4.31 4.88.94 29.84 14.73 27.91 14.87-5 20.29 3.78 18.04-.06 7.22-3.85z" class="e"/><path d="M372.24 119.5s29.69 1.32 34.08 3.49" stroke="#324a83" stroke-linecap="round" class="b c d"/><path d="M551.13 214.17c-34.76-39-32.51-48.72-68-52.38s-71.81-3.59-95.78 32.93-33.05 64.88-37.09 58.78-21.44-68.5-21.44-68.5l-28.27 6.8s23.3 124.9 45.19 119.62 80.84-66.69 80.84-66.69 5.2 18.69 18.38 26c11.19 6.2 35.63-2.7 40 4.06 11.35 17.72 3.06 37.94 2 79.06 0 0 32.45-62.22 89.41-70.95s62.07 17 62.07 17a97.19 97.19 0 0 0-21-49.21c-18.57-21.69-54.58-23.36-66.31-36.52z" fill="#56d4b7"/><g clip-path="url(#F)"><path d="M421.85 250.3l18.26-22s25.18 24.76 73.31 43.58 88.45-47 125 16.49-15.7 19.73-15.7 19.73l-106.08 18.19-58.42-44a175.22 175.22 0 0 1-18.11-12.88c-6.45-5.73-18.26-19.11-18.26-19.11z" class="f"/><path d="M488.62 282.85q10.33 25.89 31.22 37c27.34 14.53-39.74 70.37-39.74 70.37l-31.87-70.38s38.26-42.33 40.39-36.99z" fill="#347f6e"/><path d="M320.79 180.67s7.27 36.87 12.57 55.29 15.92 43.64 15.92 43.64a100.42 100.42 0 0 1 2.27-24.5c2.94-14 13.63-28.84 13.63-28.84l-34.33-47.38z" class="f"/></g><path d="M407.58 136.16s-6.44 3.05-7 19.32 4.78 19.2 4.78 19.2 11.27-5 16.15 5.71c0 0 27 53.14 47.62 28.44 0 0 50.58-2.74 59.39-33.78s-22.71-35.28-49.71-33.05-39.59-47.69-39.59-47.69l-23.39 50.28z" fill="#061537"/><path d="M408.02 173.25s-24.13 16.51-44.58 64.21a112.18 112.18 0 0 1-7.52 12.24c-7.9 9.33-8.85 19.61-6.64 29.9m3.16-25.3s-9.93 2.51-10.71 10.59m98.24-35.65s-15.53 18.53-24.74 27.76m73.39 25.85s7.9 20.42 21.75 31.93" stroke="#301913" class="b c d"/></svg>