<svg xmlns="http://www.w3.org/2000/svg" viewBox="0 0 758.3 603.24" xmlns:v="https://vecta.io/nano"><style><![CDATA[.R{letter-spacing:-0.03em}.S{letter-spacing:0.03em}.T{letter-spacing:-0.03em}.U{letter-spacing:0.01em}.V{letter-spacing:-0.01em}.W{fill:none}.X{stroke-linecap:round}.Y{stroke-linejoin:round}.Z{stroke:#301913}.a{stroke-width:.5}.b{fill:#2a3756}.c{fill:#ffd3c8}.d{fill:#ff6f66}.e{stroke-dasharray:12.1 12.1}.f{stroke-dasharray:13.51 13.51}]]></style><path d="M228.847 65.472L516.119-.006l89.901 394.424-287.272 65.478z" class="b"/><path d="M231.676 83.136L502.697 7.975 605.894 380.09l-271.021 75.161z" fill="#e6e6e6"/><path d="M234.221 76.296l272.693-68.85 94.532 374.411-272.693 68.85z" fill="#f2f2f2"/><path d="M237.412 72.945l274.217-62.502 85.816 376.504-274.217 62.502z" fill="#fafafa"/><g stroke="#1a2e35" class="W X Y"><path d="M425.05 68.43l72.57-16.63m-231.17 52.95l32.94-7.54m204.28 32.43l10.95-2.51m-60.89 13.95l43.86-10.05m-69.34 15.89l18.24-4.18m-69.92 16.02l43.57-9.99m-76.87 17.61l25.63-5.87m-85.45 19.57l51.71-11.84m150.89-9.77l37.37-8.56m-114.82 26.3l68.91-15.79m-121.75 27.89l40.39-9.25m-103.9 23.8L348.38 190m154.67-9.87l23.98-5.49m-90 20.61l58.49-13.39m-73.4 16.81l9.41-2.16m-53.85 12.34l37.78-8.66m-106.25 24.34l62.54-14.32m-75.88 17.38l7.83-1.8m177.96-15.97l50.04-11.46m-133.57 30.59l74.56-17.08m-95.41 21.86l13.03-2.99m-89.78 20.57l66.62-15.26m62.58 10.45l7.57-1.73m-68.95 15.79l53.85-12.33m-117 26.8l54.46-12.48m97.59 123.53l1.35 5.85-5.85 1.35"/><path d="M440.96 396l-88.41 20.41" class="e"/><path d="M346.65 417.77l-5.84 1.35-1.35-5.85"/><path d="M336.42 400.11l-16.71-72.39" class="f"/><path d="M318.19 321.14l-1.35-5.85 5.84-1.35"/><path d="M334.47 311.22l88.41-20.41" class="e"/><path d="M428.78 289.45l5.84-1.35 1.35 5.84"/><path d="M439.01 307.11l16.72 72.39" class="f"/><path d="M480.16 370.31l8.54-34.81 21.94 13.09 16.39-48.06 15.25 6.53 2.72-6.53 3.25-31.74 8.28 3.45" stroke-dasharray="12"/></g><g fill="#1a2e35"><circle cx="488.7" cy="335.5" r="1.26"/><circle cx="480.16" cy="370.31" r="1.26"/><circle cx="509.01" cy="347.67" r="1.26"/><circle cx="525.47" cy="304.6" r="1.26"/><circle cx="542.19" cy="307.12" r="1.26"/><circle cx="548.25" cy="268.79" r="1.26"/><circle cx="556.53" cy="272.05" r="1.26"/></g><path d="M620.73 394.05c-2-24.27-17.19-78.88-37.42-86-12.52-4.38-44.13 9-66.41 19.75 1.79-8.25 3.15-16.42 3.15-16.42l-62-64.73.88 8.4 22.15 58.25s-8.67 9.63-6.74 13 14.44 5.78 14.44 5.78-3.85 1-1.44 7.22 7.7 12.52 7.7 12.52l.67-.3a31.85 31.85 0 0 0 4.15 3.67c12.13 9.1 14.72 9.49 14.72 9.49s5.05-1 7.07 25.28-6.06 35.4 7.08 51.58S638.93 568 638.93 568l-18.2-173.95z" fill="#cae9ff" opacity=".5"/><path d="M513.59 265.44s-11.91 13-21.66 19.49-16.54 15.09-7.58 19.5c5.37 2.64 13-1.09 13-1.09s-11.91 3.25-14.07 14.08 21.66 6.5 21.66 6.5-17.34 11.91-11.94 16.25 16.25 1.08 21.66 1.08 32.49-17.33 39-17.33 19.49 14.08 19.49 24.91 17.33 9.75 19.5-23.83-6.5-61.73-20.58-70.39-58.48 10.83-58.48 10.83z" fill="#f1b2a2"/><path d="M507.09 302.26l43.23-16.15s19-4.12 32.58 18.32m-68.23 10.83l39-6.5s17.33-1.08 28.16 19.49" class="W X Y Z a"/><path d="M748.7,561.44A18.92,18.92,0,0,0,752.07,531c-37.54-34-105.54-93.86-106.35-98.73-1.09-6.5-5.42-82.31-5.42-93.14s-21.66-36.82-21.66-36.82-8.89-12.75-13.22-34.41-24.23-30.56-35.06-29.47-40.53,4.32-52.44,13S495.18,270.85,506,274.1c18,5.39,47.43-18.58,61.63-2,6.5,7.58,14.18,41,15.26,45.33,0,0,1.62,7.53-4.07,12.59s-16.51,11.24-16.51,11.24-17.61,5.19-25.19,5.82-7.59,37.28.63,48S558,455.76,568.09,468.4c7.63,9.53,63.26,92.35,86.11,126.45a18.92,18.92,0,0,0,25,5.93Z" class="c"/><path d="M453.78 241.19a1 1 0 0 1 1.31-.14l5.22 2.35a2 2 0 0 1-2.29 3.3l-4.08-4a1 1 0 0 1-.25-1.4z" class="b"/><path d="M458.37 244.16a4.59 4.59 0 0 1 6-.63l13.87 7.16 136.24 89.62A10.77 10.77 0 1 1 602.15 358l-132.23-97.54-10.83-9.39a4.6 4.6 0 0 1-1.15-6.39 4.4 4.4 0 0 1 .43-.52z" fill="#56d4b7"/><path d="M614.44,340.31l-39.31-25.86c-6.25,2-10.74,7.5-10.74,13.93a14.59,14.59,0,0,0,.14,1.88L602.15,358a10.77,10.77,0,1,0,12.29-17.69Z" class="b"/><path d="M564.93,462.71c-42.8-48.4-35.66-75.08-42.16-83.74s-10.36-16.81-16.86-36.3-10.73-35-10.73-51.24,14-19.05,24.79-1.73,23.94,44,23.94,44,8.67,10.83,26,7.58" class="c"/><path d="M543.91,333.67s12.08,11.47,17.74,20.9" class="W X Y Z a"/><path d="M508.76 284.64l3.62 7.24s-.83 0-6.6 3.3a23.62 23.62 0 0 0-8.44 8.16s-5.58-15.58-.64-20.53a7.93 7.93 0 0 1 4.5-2.36 7.44 7.44 0 0 1 7.56 4.19z" class="d"/><path d="M524.22 324.06l1.75-.2M508 333.05s1-5.93 12.91-8.43m.09 4.25s-.84 2.51-9.19 5.85m8.8-13.79s-7.25 1.09-11.6 4.71" class="W X Y Z a"/><path d="M294.3,168.72s-7.6,21.08-10.64,26.13-19.21,24.27-22.24,29.33-9.1,21.24-9.1,21.24L301.44,233s-13.73,20.51-21.82,30.62S254.34,295,254.34,298s-4.05,15.17-4.05,15.17l23.26,17.19,47.53-17.19,19.21-7.08s-38.42,24.27-50.56,36.41S235.12,378.9,224,387s-34.38,12.14-43.48,14.16-89,66.74-89,66.74L206.81,231.26l33.37-55.62,29.33-21.24-3,33.38Z" fill="#cae9ff" opacity=".5"/><path d="M62.5 499.46l104.32-107.35S178.36 391 197 385s24.17-7.7 33-14.29 45.05-25.82 60.43-35.71 42.31-20.87 47.25-25.27 1.1-9.89-12.09-12.63-26.37.55-43.95 8.24-35.71 14.28-35.16 10.43 3.85-23.07 7.14-29.66 36.28-42.1 36.83-43.74 4.4-3.3 11-9.34 17-13.19 18.68-23.63-6.59-6.59-9.89-4.94-26.38 11.54-32.42 15.35-41.32 41-41.32 41l24.83-52a79.62 79.62 0 0 0 8.79-9.34c3.3-4.39 23.08-25.82 24.18-30.76s-3.85-11-9.89-9.34-25 18.43-31.32 23.07c-13 9.63-34.06 46.15-34.06 46.15l23.08-42.3s17.58-15.93 22-20.88 9.69-15.89 4.95-20.87c-5-5.3-16 3.61-24.18 12.08-7.55 7.8-18.68 17.58-18.68 17.58s6.6-7.69 5-14.28-14.29 2.75-18.13 3.85-36.89 30.23-41.83 34.07-15.24 35.4-15.24 35.4l-40 83.28L6.81 395.11a16.37 16.37 0 0 0-5.47 19.78l34.38 79.65a16.38 16.38 0 0 0 26.78 4.92z" class="c"/><path d="M226.17,174.21l-16.1,13.93a22.24,22.24,0,0,0-4.46,5.26L177,240.2" class="W X Y Z a"/><path d="M336.73 301l-8.29.55s5.53 5 .55 12.17c.01-.02 16.11-5.47 7.74-12.72zm-17.02-94c-.16 3.69-4 5.94-4 5.94-4-6.43-7.62-5.94-7.62-5.94s12.07-10.12 11.62 0zm-27.1-41.47h0c-1.14 1.49-3.89 3.52-5.36 2.37-3.37-2.63-9.58-4-9.58-4s12.18-12.77 14.94 1.63zm-23.23-17.14c0 3.85-4.43 4.42-4.43 4.42a35.16 35.16 0 0 0-5-3.32 11.05 11.05 0 0 0-4.42-1.1s13.87-12.26 13.85 0zm-38.72 13.83c-.07 2.33-5 3.87-5 3.87s1.55-1.05-1.11-3.32c-1.74-1.49-5.53-1.11-5.53-1.11s11.9-8.79 11.64.56z" class="d"/><g class="W Z a"><path d="M280.44 225.27a25.58 25.58 0 0 1 7.74 8.85m-11.06-7.74a46.77 46.77 0 0 0 7.19 6.63m4.42-6.08l3.88 4.98m5.4 75.15l3.88 6.64m1.1 3.87l1.11 2.21m2.76-11.06a52.2 52.2 0 0 1 1.14 13.83m-60.2-129.91s5.54-.56 10 6.08m-7.23.55l4.98 2.77m-3.32-11.06l3.32 2.21m-37.06-8.3a11.65 11.65 0 0 1 10.51 2.77m-8.3.55a42.08 42.08 0 0 0 7.75 2.77m-1.11-8.85l3.87 1.1M182 194.3s3.87-1.11 10.5 0m1.1-3.32l5.53 2.21" class="X Y"/><path d="M219.03 228.6l-11.88 22.6" stroke-miterlimit="10"/></g><path d="M529.34 85.13l-1 .61-.62-2.7.12-.07a1.56 1.56 0 0 1 1.1-.3 1.33 1.33 0 0 1 1.06 1.09 1.27 1.27 0 0 1-.66 1.37zm4.95-10.06a7 7 0 0 1-3.29 4.42l-3.61 2.1-15.54 9-2.06 1.19a5.36 5.36 0 0 1-8-5.37 5 5 0 0 1 2.51-3.87q8.79-5.14 17.62-10.25a1.32 1.32 0 1 1 1.3 2.29l-4.06 2.37-13.38 7.77a2.65 2.65 0 0 0-1.39 2.42 2.52 2.52 0 0 0 1.46 2.37 2.65 2.65 0 0 0 2.68-.07l10-5.82 8.19-4.76 2.78-1.63a4.75 4.75 0 1 0-4.78-8.21l-.22.13-.61-2.67a7.82 7.82 0 0 1 2.29-.71 7.45 7.45 0 0 1 7.44 3.84 7.32 7.32 0 0 1 .67 5.46z" class="d"/><text transform="matrix(.975342 -.220697 .220697 .975342 277.1 145.89)" font-size="31.43" fill="gray" font-family="BarcelonyRegular,Barcelony">P<tspan class="R" x="31.43" y="0">r</tspan><tspan class="S" x="39.41" y="0">o</tspan><tspan class="T" x="49.53" y="0">p</tspan><tspan class="U" x="62.57" y="0">o</tspan><tspan x="72.25" y="0">sal Writ</tspan><tspan class="V" x="183.27" y="0">i</tspan><tspan class="U" x="190.41" y="0">n</tspan><tspan x="201.62" y="0">g</tspan></text></svg>