<svg xmlns="http://www.w3.org/2000/svg" viewBox="0 0 758.3 603.24"><defs><style>.cls-1{fill:#2a3756;}.cls-2{fill:#e6e6e6;}.cls-3{fill:#f2f2f2;}.cls-4{fill:#fafafa;}.cls-12,.cls-16,.cls-5,.cls-6,.cls-7,.cls-8{fill:none;}.cls-5,.cls-6,.cls-7,.cls-8{stroke:#1a2e35;}.cls-12,.cls-5,.cls-6,.cls-7,.cls-8{stroke-linecap:round;stroke-linejoin:round;}.cls-6{stroke-dasharray:12.1 12.1;}.cls-7{stroke-dasharray:13.51 13.51;}.cls-8{stroke-dasharray:12;}.cls-9{fill:#1a2e35;}.cls-10{fill:#cae9ff;opacity:0.5;}.cls-11{fill:#f1b2a2;}.cls-12,.cls-16{stroke:#301913;stroke-width:0.5px;}.cls-13{fill:#ffd3c8;}.cls-14{fill:#56d4b7;}.cls-15{fill:#ff6f66;}.cls-16{stroke-miterlimit:10;}.cls-17{font-size:31.43px;fill:gray;font-family:BarcelonyRegular, Barcelony;}.cls-18{letter-spacing:-0.03em;}.cls-19{letter-spacing:0.03em;}.cls-20{letter-spacing:-0.03em;}.cls-21{letter-spacing:0.01em;}.cls-22{letter-spacing:-0.01em;}</style></defs><g id="Layer_2" data-name="Layer 2"><g id="_7" data-name="7"><rect class="cls-1" x="270.11" y="27.68" width="294.64" height="404.54" transform="translate(-40.66 98.51) rotate(-12.84)"/><rect class="cls-2" x="278.15" y="38.55" width="281.25" height="386.16" transform="translate(-46.66 120.32) rotate(-15.5)"/><rect class="cls-3" x="277.2" y="36.01" width="281.25" height="386.16" transform="translate(-43.36 109.24) rotate(-14.17)"/><rect class="cls-4" x="276.8" y="36.87" width="281.25" height="386.16" transform="translate(-40.66 98.51) rotate(-12.84)"/><line class="cls-5" x1="425.05" y1="68.43" x2="497.62" y2="51.8"/><line class="cls-5" x1="266.45" y1="104.75" x2="299.39" y2="97.21"/><line class="cls-5" x1="503.67" y1="129.64" x2="514.62" y2="127.13"/><line class="cls-5" x1="453.73" y1="141.08" x2="497.59" y2="131.03"/><line class="cls-5" x1="428.25" y1="146.92" x2="446.49" y2="142.74"/><line class="cls-5" x1="376.57" y1="158.76" x2="420.14" y2="148.77"/><line class="cls-5" x1="343.27" y1="166.38" x2="368.9" y2="160.51"/><line class="cls-5" x1="283.45" y1="180.08" x2="335.16" y2="168.24"/><line class="cls-5" x1="486.05" y1="158.47" x2="523.42" y2="149.91"/><line class="cls-5" x1="408.6" y1="176.21" x2="477.51" y2="160.42"/><line class="cls-5" x1="355.76" y1="188.31" x2="396.15" y2="179.06"/><line class="cls-5" x1="292.25" y1="202.86" x2="348.38" y2="190"/><line class="cls-5" x1="503.05" y1="180.13" x2="527.03" y2="174.64"/><line class="cls-5" x1="437.03" y1="195.25" x2="495.52" y2="181.86"/><line class="cls-5" x1="422.12" y1="198.67" x2="431.53" y2="196.51"/><line class="cls-5" x1="377.68" y1="208.85" x2="415.46" y2="200.19"/><line class="cls-5" x1="309.21" y1="224.53" x2="371.75" y2="210.21"/><line class="cls-5" x1="295.87" y1="227.59" x2="303.7" y2="225.79"/><line class="cls-5" x1="481.66" y1="209.82" x2="531.7" y2="198.36"/><line class="cls-5" x1="398.13" y1="228.95" x2="472.69" y2="211.87"/><line class="cls-5" x1="377.28" y1="233.73" x2="390.31" y2="230.74"/><line class="cls-5" x1="300.53" y1="251.31" x2="367.15" y2="236.05"/><line class="cls-5" x1="429.73" y1="246.5" x2="437.3" y2="244.77"/><line class="cls-5" x1="368.35" y1="260.56" x2="422.2" y2="248.23"/><line class="cls-5" x1="305.2" y1="275.03" x2="359.66" y2="262.55"/><polyline class="cls-5" points="457.25 386.08 458.6 391.93 452.75 393.28"/><line class="cls-6" x1="440.96" y1="396" x2="352.55" y2="416.41"/><polyline class="cls-5" points="346.65 417.77 340.81 419.12 339.46 413.27"/><line class="cls-7" x1="336.42" y1="400.11" x2="319.71" y2="327.72"/><polyline class="cls-5" points="318.19 321.14 316.84 315.29 322.68 313.94"/><line class="cls-6" x1="334.47" y1="311.22" x2="422.88" y2="290.81"/><polyline class="cls-5" points="428.78 289.45 434.62 288.1 435.97 293.94"/><line class="cls-7" x1="439.01" y1="307.11" x2="455.73" y2="379.5"/><polyline class="cls-8" points="480.16 370.31 488.7 335.5 510.64 348.59 527.03 300.53 542.28 307.06 545 300.53 548.25 268.79 556.53 272.24"/><circle class="cls-9" cx="488.7" cy="335.5" r="1.26"/><circle class="cls-9" cx="480.16" cy="370.31" r="1.26"/><circle class="cls-9" cx="509.01" cy="347.67" r="1.26"/><circle class="cls-9" cx="525.47" cy="304.6" r="1.26"/><circle class="cls-9" cx="542.19" cy="307.12" r="1.26"/><circle class="cls-9" cx="548.25" cy="268.79" r="1.26"/><circle class="cls-9" cx="556.53" cy="272.05" r="1.26"/><path class="cls-10" d="M620.73,394.05c-2-24.27-17.19-78.88-37.42-86-12.52-4.38-44.13,9-66.41,19.75,1.79-8.25,3.15-16.42,3.15-16.42l-62-64.73.88,8.4,22.15,58.25s-8.67,9.63-6.74,13,14.44,5.78,14.44,5.78-3.85,1-1.44,7.22,7.7,12.52,7.7,12.52l.67-.3a31.85,31.85,0,0,0,4.15,3.67c12.13,9.1,14.72,9.49,14.72,9.49s5.05-1,7.07,25.28-6.06,35.4,7.08,51.58S638.93,568,638.93,568,622.75,418.32,620.73,394.05Z"/><path class="cls-11" d="M513.59,265.44s-11.91,13-21.66,19.49-16.54,15.09-7.58,19.5c5.37,2.64,13-1.09,13-1.09s-11.91,3.25-14.07,14.08,21.66,6.5,21.66,6.5S487.6,335.83,493,340.17s16.25,1.08,21.66,1.08,32.49-17.33,39-17.33,19.49,14.08,19.49,24.91,17.33,9.75,19.5-23.83-6.5-61.73-20.58-70.39S513.59,265.44,513.59,265.44Z"/><path class="cls-12" d="M507.09,302.26l43.23-16.15s19-4.12,32.58,18.32"/><path class="cls-12" d="M514.67,315.26l39-6.5s17.33-1.08,28.16,19.49"/><path class="cls-13" d="M748.7,561.44A18.92,18.92,0,0,0,752.07,531c-37.54-34-105.54-93.86-106.35-98.73-1.09-6.5-5.42-82.31-5.42-93.14s-21.66-36.82-21.66-36.82-8.89-12.75-13.22-34.41-24.23-30.56-35.06-29.47-40.53,4.32-52.44,13S495.18,270.85,506,274.1c18,5.39,47.43-18.58,61.63-2,6.5,7.58,14.18,41,15.26,45.33,0,0,1.62,7.53-4.07,12.59s-16.51,11.24-16.51,11.24-17.61,5.19-25.19,5.82-7.59,37.28.63,48S558,455.76,568.09,468.4c7.63,9.53,63.26,92.35,86.11,126.45a18.92,18.92,0,0,0,25,5.93Z"/><path class="cls-1" d="M453.78,241.19a1,1,0,0,1,1.31-.14l5.22,2.35a2,2,0,0,1,.51,2.79,2,2,0,0,1-2.8.51l-4.08-4a1,1,0,0,1-.25-1.4Z"/><path class="cls-14" d="M458.37,244.16a4.59,4.59,0,0,1,6-.63l13.87,7.16,136.24,89.62A10.77,10.77,0,1,1,602.15,358L469.92,260.46l-10.83-9.39a4.6,4.6,0,0,1-1.15-6.39A4.4,4.4,0,0,1,458.37,244.16Z"/><path class="cls-1" d="M614.44,340.31l-39.31-25.86c-6.25,2-10.74,7.5-10.74,13.93a14.59,14.59,0,0,0,.14,1.88L602.15,358a10.77,10.77,0,1,0,12.29-17.69Z"/><path class="cls-13" d="M564.93,462.71c-42.8-48.4-35.66-75.08-42.16-83.74s-10.36-16.81-16.86-36.3-10.73-35-10.73-51.24,14-19.05,24.79-1.73,23.94,44,23.94,44,8.67,10.83,26,7.58"/><path class="cls-12" d="M543.91,333.67s12.08,11.47,17.74,20.9"/><path class="cls-15" d="M508.76,284.64l3.62,7.24s-.83,0-6.6,3.3a23.62,23.62,0,0,0-8.44,8.16s-5.58-15.58-.64-20.53a7.93,7.93,0,0,1,4.5-2.36A7.44,7.44,0,0,1,508.76,284.64Z"/><path class="cls-12" d="M524.22,324.06l1.75-.2"/><path class="cls-12" d="M508,333.05s1-5.93,12.91-8.43"/><path class="cls-12" d="M521,328.87s-.84,2.51-9.19,5.85"/><path class="cls-12" d="M520.61,320.93s-7.25,1.09-11.6,4.71"/><path class="cls-10" d="M294.3,168.72s-7.6,21.08-10.64,26.13-19.21,24.27-22.24,29.33-9.1,21.24-9.1,21.24L301.44,233s-13.73,20.51-21.82,30.62S254.34,295,254.34,298s-4.05,15.17-4.05,15.17l23.26,17.19,47.53-17.19,19.21-7.08s-38.42,24.27-50.56,36.41S235.12,378.9,224,387s-34.38,12.14-43.48,14.16-89,66.74-89,66.74L206.81,231.26l33.37-55.62,29.33-21.24-3,33.38Z"/><path class="cls-13" d="M62.5,499.46,166.82,392.11S178.36,391,197,385s24.17-7.7,33-14.29,45.05-25.82,60.43-35.71,42.31-20.87,47.25-25.27,1.1-9.89-12.09-12.63-26.37.55-43.95,8.24-35.71,14.28-35.16,10.43,3.85-23.07,7.14-29.66,36.28-42.1,36.83-43.74,4.4-3.3,11-9.34,17-13.19,18.68-23.63-6.59-6.59-9.89-4.94S283.86,216,277.82,219.81s-41.32,41-41.32,41l24.83-52a79.62,79.62,0,0,0,8.79-9.34c3.3-4.39,23.08-25.82,24.18-30.76s-3.85-11-9.89-9.34-25,18.43-31.32,23.07c-13,9.63-34.06,46.15-34.06,46.15l23.08-42.3s17.58-15.93,22-20.88,9.69-15.89,4.95-20.87c-5-5.3-16,3.61-24.18,12.08-7.55,7.8-18.68,17.58-18.68,17.58s6.6-7.69,5-14.28-14.29,2.75-18.13,3.85S176.18,194,171.24,197.84,156,233.24,156,233.24L116,316.52,6.81,395.11a16.37,16.37,0,0,0-5.47,19.78l34.38,79.65A16.38,16.38,0,0,0,62.5,499.46Z"/><path class="cls-12" d="M226.17,174.21l-16.1,13.93a22.24,22.24,0,0,0-4.46,5.26L177,240.2"/><path class="cls-15" d="M336.73,301l-8.29.55s5.53,5,.55,12.17C329,313.7,345.1,308.25,336.73,301Z"/><path class="cls-15" d="M319.71,207c-.16,3.69-4,5.94-4,5.94-4-6.43-7.62-5.94-7.62-5.94S320.16,196.88,319.71,207Z"/><path class="cls-15" d="M292.61,165.53h0c-1.14,1.49-3.89,3.52-5.36,2.37-3.37-2.63-9.58-4-9.58-4S289.85,151.13,292.61,165.53Z"/><path class="cls-15" d="M269.38,148.39c0,3.85-4.43,4.42-4.43,4.42a35.16,35.16,0,0,0-5-3.32,11.05,11.05,0,0,0-4.42-1.1S269.4,136.13,269.38,148.39Z"/><path class="cls-15" d="M230.66,162.22c-.07,2.33-5,3.87-5,3.87s1.55-1.05-1.11-3.32c-1.74-1.49-5.53-1.11-5.53-1.11S230.92,152.87,230.66,162.22Z"/><path class="cls-12" d="M280.44,225.27a25.58,25.58,0,0,1,7.74,8.85"/><path class="cls-12" d="M277.12,226.38a46.77,46.77,0,0,0,7.19,6.63"/><line class="cls-12" x1="288.73" y1="226.93" x2="292.61" y2="231.91"/><line class="cls-12" x1="298.01" y1="307.06" x2="301.89" y2="313.7"/><line class="cls-12" x1="302.99" y1="317.57" x2="304.1" y2="319.78"/><path class="cls-12" d="M306.86,308.72A52.2,52.2,0,0,1,308,322.55"/><path class="cls-12" d="M247.8,192.64s5.54-.56,10,6.08"/><line class="cls-12" x1="250.57" y1="199.27" x2="255.55" y2="202.04"/><line class="cls-12" x1="252.23" y1="190.98" x2="255.55" y2="193.19"/><path class="cls-12" d="M218.49,184.89A11.65,11.65,0,0,1,229,187.66"/><path class="cls-12" d="M220.7,188.21a42.08,42.08,0,0,0,7.75,2.77"/><line class="cls-12" x1="227.34" y1="182.13" x2="231.21" y2="183.23"/><path class="cls-12" d="M182,194.3s3.87-1.11,10.5,0"/><line class="cls-12" x1="193.6" y1="190.98" x2="199.13" y2="193.19"/><line class="cls-16" x1="219.03" y1="228.6" x2="207.15" y2="251.2"/><path class="cls-15" d="M529.34,85.13l-1,.61-.62-2.7.12-.07a1.56,1.56,0,0,1,1.1-.3A1.33,1.33,0,0,1,530,83.76,1.27,1.27,0,0,1,529.34,85.13Z"/><path class="cls-15" d="M534.29,75.07A7,7,0,0,1,531,79.49l-3.61,2.1-15.54,9c-.68.39-1.36.81-2.06,1.19a5.36,5.36,0,0,1-8-5.37,5,5,0,0,1,2.51-3.87q8.79-5.14,17.62-10.25a1.32,1.32,0,1,1,1.3,2.29c-1.35.8-2.7,1.58-4.06,2.37l-13.38,7.77a2.65,2.65,0,0,0-1.39,2.42,2.52,2.52,0,0,0,1.46,2.37,2.65,2.65,0,0,0,2.68-.07l10-5.82,8.19-4.76,2.78-1.63a4.75,4.75,0,1,0-4.78-8.21l-.22.13-.61-2.67a7.82,7.82,0,0,1,2.29-.71,7.45,7.45,0,0,1,7.44,3.84A7.32,7.32,0,0,1,534.29,75.07Z"/><text class="cls-17" transform="translate(277.1 145.89) rotate(-12.75)">P<tspan class="cls-18" x="31.43" y="0">r</tspan><tspan class="cls-19" x="39.41" y="0">o</tspan><tspan class="cls-20" x="49.53" y="0">p</tspan><tspan class="cls-21" x="62.57" y="0">o</tspan><tspan x="72.25" y="0">sal Writ</tspan><tspan class="cls-22" x="183.27" y="0">i</tspan><tspan class="cls-21" x="190.41" y="0">n</tspan><tspan x="201.62" y="0">g</tspan></text></g></g></svg>