<svg xmlns="http://www.w3.org/2000/svg" viewBox="0 0 621.19 636.21" xmlns:v="https://vecta.io/nano"><style><![CDATA[.A{isolation:isolate}.d,.h{mix-blend-mode:multiply}.n{fill:#ccc}.o{fill:#3e6c98}.p{fill:#e1e1e1}.q{fill:#dfdfdf}.r{fill:#ddd}.s{fill:#d0d0d0}.t{fill:#e5e5e5}.u{fill:#e3e3e3}.v{fill:#dbdbdb}.w{fill:#cecece}.x{fill:#d7d7d7}.y{fill:#d9d9d9}.z{fill:#f8f8f8}.AA{fill:#d2d2d2}]]></style><defs><linearGradient id="A" x1="178.07" y1="594.95" x2="440.53" y2="147.82" gradientUnits="userSpaceOnUse"><stop offset=".06" stop-color="#e6e7e8"/><stop offset=".08" stop-color="#ecedee"/><stop offset=".12" stop-color="#f3f4f5"/><stop offset=".22" stop-color="#e6e7e8"/><stop offset=".58" stop-color="#fafafb"/><stop offset=".69" stop-color="#e6e7e8"/></linearGradient></defs><g class="A"><g fill="#fdfdfd"><path d="M600.69 474.49h0 0 0zm3.13 2.51l-.05-.05h0zm.04 0h0 0zm.03 0h0 0 0z"/><path d="M246.85 268.91h0zm.05 0h0zm0 0h0zm364.26-89.56L249.47 1.38c-5.53-3.2-10-.64-10 5.69l-.7 248.48a21.31 21.31 0 0 0 4.23 11.89l.28.07.2.05.18.05h0c.13 0 .26.06.38.09l.17.06a13.33 13.33 0 0 1 1.68.67l.25.12a.15.15 0 0 1 .07 0h0 .07l.12.07h0 0l.21.11h.07.06.18a.94.94 0 0 1 .22.12h0l106 61.61 2.73 1.59.4-.23-106.22-61.15c-5.64-3.26-10.18-11.13-10.16-17.61l.69-243.52c0-6.47 4.59-9.11 10.23-5.86L609.26 179.8c5.64 3.25 10.18 11.15 10.16 17.63L608.71 466c0 6.48-4.59 9.09-10.23 5.83l-152.6-88.1-.68.4 1.15.67 13 7.54 35.34 20.54L530 433.42 565.36 454l35.18 20.45h0 .06 0 0 0l.26.16.23.16.24.18.21.14a.94.94 0 0 1 .12.09.21.21 0 0 0 .1.06l.45.31.18.13h0c.13.1.25.21.36.31l.35.31.31.31.23.24h0 0l.06.05h0 .07 0 0 0 0 0c3.75.51 6.44-2.1 6.45-7l10.73-273.53c.26-6.06-4.21-13.79-9.74-16.98z"/><path d="M600.68 474.49h0zM244.15 267.73zm359.77 209.34h0 0zm.02.03h0 0zm.06.06h-.01l-.02-.03.03.03z"/></g><path d="M358 331.2l-1.57.9-106.4-61.43c-5.64-3.26-10.18-11.13-10.16-17.61l.69-243.52c0-6.48 4.59-9.11 10.23-5.86L609.25 179.8c5.64 3.25 10.19 11.15 10.17 17.63L608.71 466c0 6.48-4.59 9.09-10.23 5.83l-152.6-88.1 1.8-1zm239.64 126l10.68-257c0-5.52-3.86-12.23-8.66-15L261.85 20.34c-4.8-2.77-8.73-.56-8.74 4.95l-.66 231.9c0 5.55 3.88 12.27 8.69 15l327.8 189.92c4.81 2.82 8.7.59 8.72-4.95z" class="o"/><path d="M251.71 257.19l.66-231.9c0-5.51 3.94-7.72 8.74-4.95l337.83 164.87c4.8 2.77 8.67 9.48 8.65 15l-10.67 257c0 5.54-3.92 7.77-8.72 5L260.39 272.23c-4.8-2.77-8.7-9.49-8.68-15.04z" fill="#cae9ff"/><path d="M245.31 268.55h0 0 0z" class="u"/><g class="p"><path d="M246.91 268.93v.01l-.01-.01h.01zm.03.01h0zm.06.06h0z"/><path d="M247,269h0a0,0,0,0,0,0,0Z"/><path d="M247,269h0Z"/><path d="M247 269h0zm-.14-.09v.01l-.01-.01h.01z"/></g><g class="q"><path d="M246.86 268.91v.01l-.01-.01h.01zm.05.02v.01l-.01-.01h.01zm.03.01h0zm.06.06h0z"/><path d="M247,269h0a0,0,0,0,0,0,0Z"/><path d="M247,269h0Z"/><path d="M247 269h0zm-.21-.12h0zm.07.03v.01l-.01-.01h.01zm-.04-.02h0zm.09.04v.01l-.01-.01h.01z"/><path d="M247,269h0Z"/><path d="M247 269h0zm-.37-.18h0zm.15.05h0zm.03.01h0zm.05.02h0zm.04.02h0zm.03.01h0z"/><path d="M246.94 268.94h0zm.06.06h0z"/><path d="M247,269h0a0,0,0,0,0,0,0Z"/><path d="M247,269h0Z"/><path d="M247 269h0zm-.37-.18h0zm.15.05h0zm.03.01h0zm.05.02h0zm.04.02h0zm.03.01h0z"/><path d="M246.94 268.94h0zm.06.06h0z"/><path d="M247,269h0a0,0,0,0,0,0,0Z"/><path d="M247,269h0Z"/><path d="M247 269h0zm-4-1.51l-.89-.24.44.1.44.12z"/><path d="M243.61 267.63c-.2-.06-.39-.09-.59-.14h0c.19.04.38.07.59.14z"/></g><g class="r"><path d="M244 267.73c-.15-.05-.28-.06-.42-.1l-.6-.16h0 0l.28.07.2.05.18.05h0zm2.44.96l-.19-.09h.07zm.19.13h0zm.22.07h-.15 0-.05l-.2-.11h0 0l.21.11h.07zm.01.01h0zm.05.02h0zm.02.01h0z"/><path d="M246.44 268.69l-.19-.09h.07zm.19.13h0zm.28.1h-.21 0-.05l-.2-.11h0 0l.21.11h.07 0 0zm.02.01h0z"/><path d="M246.94 268.94h0zm.06.06h0z"/><path d="M247,269h0a0,0,0,0,0,0,0Z"/><path d="M247,269h0Z"/></g><path d="M246.09 268.53a13.83 13.83 0 0 0-1.36-.55l-.56-.21h-.14l-.36-.12c.13 0 .26.06.38.09l.17.06a13.33 13.33 0 0 1 1.68.67zm.54.29h0zm.15.05h0zm.03.01h0zm.04.01h0zm.06.03h0zm.02.01h0zm.07.07h0z" class="v"/><path d="M246.15 268.55h-.06l-.19-.1zm.7.34h-.13-.05l-.2-.11-.19-.09h0 .1l.16.08h0l.21.11h.07zm.01.01h0zm.05.02h0zm.02.01h0zm-2.78-1.2h0 .07l-.17-.06z" class="y"/><path d="M238.4 270.11h0 0 0z" class="t"/><path d="M238.43 270.13h-.01.01 0z" class="q"/><g class="r"><path d="M238.44 270.15h0 0 0z"/><path d="M238.44 270.15h0 0 0z"/><path d="M238.44 270.15h0 0 0z"/><path d="M238.44 270.15h0 0 0z"/><path d="M238.44 270.15h0 0 0z"/><path d="M238.43 270.15h0 0 0z"/></g><path d="M8 407.27v-.1a.43.43 0 0 1 0 .07 0 0 0 0 1 0 .03z" class="w"/><g class="n"><path d="M12.2 413h0zm-4.73-7.59h0 0a.06.06 0 0 1 0 0zm.02.26h0 0zm.17 1.22a.19.19 0 0 1 0-.07 1.55 1.55 0 0 0 0-.21.28.28 0 0 1 0-.09c-.05.12-.02.24 0 .37zm.61 1.89h0a.64.64 0 0 1-.06-.16 1.11 1.11 0 0 1 .07.16s-.02-.01-.01 0zm.33.68a2.6 2.6 0 0 1-.15-.28l.11.19z"/><path d="M7.47 405.41h0zm.01.15h0 0a.06.06 0 0 1 0 0z"/></g><path d="M240.21 269.47h-.01.01 0z" fill="#f0f0f0"/><path d="M529.87 435.15l-86.53-49.95.28-.17 11.72 6.81 17.67 10.27 17.67 10.27 17.66 10.27 17.67 10.26 3.86 2.24z" fill="#ebebeb"/><path d="M245.02 268.57h0-.01.01z" class="t"/><path d="M245.45 268.59h0 0 0z" class="p"/><path d="M600.69 474.49h0 0 0z" class="x"/><path d="M22.14 395.03h0 0 0z" fill="#f4f4f4"/><path d="M229.69 269.1h0 0 0z" class="v"/><path d="M7.47 405.41h0 0a.06.06 0 0 1 0 0zm.01.15h0 0a.06.06 0 0 1 0 0zm.01.11h0 0z" class="n"/><path d="M13.89,403.26Z" class="z"/><path d="M12.72,405.32h0Z" fill="#ededed"/><path d="M15.19 393.5h0-.01.01zm.13-.01h0 0 0z" fill="#e7e7e7"/><g class="v"><path d="M11.74 408.69h0zm1.6-14.68h0 0 0z"/><path d="M13.34 394.01h0 0 0zm-1.6 14.69a0 0 0 0 0 0 0h0z"/><path d="M11.74 408.7a1.28 1.28 0 0 0 0 .19v-.16a0 0 0 0 1 0-.03zm1.6-14.69h0 0 0z"/><path d="M13.34 394.01h0 0 0z"/><path d="M13.34 394.01h0 0 0z"/><path d="M13.34 394.01h0 0 0z"/><path d="M13.34 394.01h0 0 0z"/><path d="M13.34 394.01h0 0 0z"/><path d="M13.35 394v.01h0V394z"/><path d="M13.34 394.01h0 0 0z"/></g><path d="M11.74,408.69h0a1.28,1.28,0,0,0,0,.19v-.19h0Z" class="x"/><path d="M11.74,408.69h0a1.28,1.28,0,0,0,0,.19v-.19h0Z" fill="#d5d5d5"/><path d="M11.74,408.69h0a1.28,1.28,0,0,0,0,.19v-.19h0Z" class="AA"/><path d="M22.14 395.03h-.01 0 .01z" class="p"/><path d="M22.14 395.03h0 0 0z" class="q"/><path d="M8.63,406.4a.39.39,0,0,0-.08-.1l.06.06Z" class="s"/><path d="M8.61,406.36l-.06-.06-.05-.06a6.57,6.57,0,0,1-.47-.91q.17.32.36.63c0,.09.07.16.12.25l.07.09Z" class="w"/><path d="M8.67 406.44h0 0v.05zm-1.16-3.97v.12a3.43 3.43 0 0 1-.06.34c.01-.15.04-.3.06-.46zm1.07 3.83l-.07-.09c0-.09-.07-.16-.12-.25.08.11.12.23.19.34z" class="n"/><path d="M603.93 477.1h0z" class="z"/><path d="M598.62 473.96h0 0 0z" class="u"/><path d="M598.85 473.96h0 0 0zm2.91 13.26h0 0 0z" class="p"/><path d="M601.76 487.2h0 0 0z" class="q"/><g class="x"><path d="M600.69 474.49h0 0 0zm-.01 0h0z"/><path d="M600.69 474.49h0 0 0z"/><path d="M600.69 474.49h0 0 0zm-.04-.02h0zm.03.02h0z"/><path d="M600.69 474.49h0 0 0z"/><path d="M600.69 474.49l.49.32-.09-.05a3.1 3.1 0 0 0-.4-.27zm.96.67l-.23-.17.21.14s.02.02.02.03z"/><path d="M600.69 474.49h0 0 0z"/><path d="M600.69 474.49h0 0-.01.01zm.73.51l-.33-.23-.44-.28h0l.26.16.23.16z"/><path d="M600.69 474.49h0 0 0z"/></g><g fill="#d5d5d5"><path d="M601.75 475.22l-.1-.06a.94.94 0 0 1 .1.06zm.73.5h0l-.18-.14z"/><path d="M602.49,475.73h0Z"/><path d="M602.48,475.72h0l-.18-.14Z"/><path d="M602.49,475.73h0Z"/></g><g class="AA"><path d="M602.48 475.72h0zm1.34 1.28l-.05-.05h0z"/><path d="M603.82 477l-.05-.05h0z"/></g><g class="s"><path d="M604.06 477.23l-.07-.07h0zm-.16-.17l.01.01-.01-.01h0zm-.04-.06h0 0 0z"/><path d="M603.98 477.16h0 0 0zm-.06-.09h0 0zm.02.03h0 0zm.91 1.18l-.31-.44.25.33z"/></g><path d="M605.6 479.59a9.89 9.89 0 0 0-.75-1.31l-.06-.11v.05l.27.42.43.76v.06h0z" class="w"/><path d="M604.49 487.82a11.28 11.28 0 0 1-2.28 1.7h0a11.64 11.64 0 0 0 2.28-1.7z" class="o"/><g fill="#e9e9e9"><path d="M591.9 475.54h0-.01 0 .01z"/><path d="M591.9 475.54h-.01.01 0z"/></g><g class="t"><path d="M591.88 475.53h0 0 0z"/><path d="M591.88 475.53h0 0 0z"/><path d="M591.88 475.53h0 0 0z"/><path d="M591.88 475.53h0 0 0z"/><path d="M591.88 475.53h0 0 0z"/><path d="M591.88 475.53h0 0 0z"/><path d="M591.88 475.53h0 0 0z"/><path d="M591.88 475.53h0 0 0z"/><path d="M591.88 475.53h0 0 0z"/><path d="M591.88 475.53h0 0 0z"/><path d="M591.87 475.52h0 0-.01.01zm.02-.04h.01-.01 0z"/></g><path d="M605.65 479.65c0-.06-.06-.11-.08-.16h0 0a1.11 1.11 0 0 0 .08.16z" class="n"/><path d="M12.91 404.98h0 0 0z" fill="#eee"/><g class="p"><path d="M12.12 406.91h0-.01.01z"/><path d="M12.12 406.91h0 0 0z"/></g><g class="q"><path d="M22.19 413.1h0 0 0z"/><path d="M22.19 413.1h0-.01.01 0 0z"/><path d="M22.19 413.1h0 0 0zm-10.12-6.06h0 0 0z"/></g><path d="M600.19 483.99h0 0 0z" fill="#eee"/><g class="y"><path d="M591.94 493.53h0zm-.09.03h0 0 0zm.03.01h0 0 0zm.05.01h0 0 0z"/><path d="M591.89 493.57h0-.01 0 0 .01z"/><path d="M591.88 493.57h0 0 0 0 0zm.03-.02h0 0 0zm.02.03h-.01 0 .01z"/><path d="M591.93 493.58h-.01 0 .01 0 0z"/></g><path d="M589.75,494.93l-.21.14h0Z" class="x"/><path d="M602.21 489.51v.01L385.86 614.44v-.02l216.35-124.91z" class="n"/><g fill="#7fc1ff"><path d="M606.36 481.88v-.1l-.23-.95h0a10.01 10.01 0 0 0-.34-.89c0-.09-.08-.17-.11-.25s-.06-.11-.08-.16v.1a9.89 9.89 0 0 0-.75-1.31l-.31-.44-.34-.43a.76.76 0 0 1-.11-.14h0l-.07-.07h0 0 0 0 0 0 0 0l-.05-.05h0l-.23-.24-.31-.31-.35-.31-.36-.31h0l-.18-.14-.45-.31a.21.21 0 0 1-.1-.06l-.1-.06-.23-.17-.33-.23-.44-.28h0-.06 0-.06.06L565.36 454 530 433.42l-35.34-20.54-35.34-20.54-13-7.54-1.15-.67h0 0-.06l-.09.05-.13.07-.15.09-.2.11-.24.14-.3.18-.37.2 11.72 6.81L473 402.11l17.67 10.27 17.66 10.27L526 432.91l3.86 2.24-86.52-49.95-.15.09-.53.3-.66.41-.77.45-.95.55-1.17.67-1.46.85h0l-.33.18-89.13-51.8.32-.18h0l1.46-.85 1.17-.67.94-.55.78-.45.63-.36.38-.22.14-.08.44-.25.36-.21.3-.18.24-.14.2-.11.16-.09.12-.07.09-.05h.06 0l-2.73-1.59-106-61.61h0a.94.94 0 0 0-.22-.12H247a0 0 0 0 0 0 0h-.28 0-.05l-.2-.11-.19-.09h0a.11.11 0 0 1-.07 0h-.06a13.83 13.83 0 0 0-1.36-.55l-.56-.21h-.14c-.15-.05-.28-.06-.42-.1l-.59-.14-.89-.24.44.1.43.11h0l-1-.25-.3-.08h-.13-.27-.06c-.35-.06-.75-.07-1.12-.1a15.7 15.7 0 0 0-1.6-.13h0q-.81 0-1.8.09h-.09c-.25 0-.53.09-.8.12h.11-.17 0l-1.23.19h-.08c-.27.06-.55.17-.83.24h-.09l-1.35.4h0-.06c-.12 0-.25.13-.38.18a16.47 16.47 0 0 0-1.67.77h0 0 0l-.1.05-.14.07h0L88.5 350.62l-10.25 5.92L56.61 369 35 381.52 13.4 394h-.05 0l-.08.05h-.05l-.19.13-.33.21-.2.13-.38.28-.53.41h-.06a12.45 12.45 0 0 0-1.29 1.18l-.06.07h0 0l-.08.07-.23.25-.12.17-.06.09-.11.14a3 3 0 0 0-.22.28h0l-.19.26a2.66 2.66 0 0 0-.21.33v.07c-.11.17-.19.36-.29.54l-.13.24c-.05.11-.12.2-.17.31l-.07.17h0a0 0 0 0 0 0 0v.09a4.32 4.32 0 0 0-.16.51c0 .15-.11.3-.15.46s-.06.18-.09.28 0 .08 0 .13h0 0 0a.7.7 0 0 1 0 .14h0a.5.5 0 0 0 0 .12v.16c0 .27-.07.56-.09.85v.12a3.43 3.43 0 0 1-.06.34v.15a4.8 4.8 0 0 0 .08.85 7.23 7.23 0 0 0 .21.8h0a.34.34 0 0 0 .06.12l.08.16a1 1 0 0 1 .08.14 1.39 1.39 0 0 0 .06.13q.17.32.36.63c.08.11.12.23.19.34v.06.05h0c.1.13.24.25.34.38s.37.44.59.65.13.15.21.23l.1.08a.39.39 0 0 0 .1.08l.57.4.55.39c.19.12.28.21.42.32l.17.11L365.1 614.44h0a16.6 16.6 0 0 0 2.84 1.25h0l.88.27h.09l.37.08.47.13 1.46.32h.07l1.1.19a5.32 5.32 0 0 0 .56.06c.38 0 .77.05 1.15.07h.34 1.87.41.11.35.34 0c.62 0 1.23-.13 1.83-.23l1.13-.2c.54-.11 1.05-.27 1.57-.42l.33-.09c.16 0 .33-.09.48-.15l.27-.08.26-.09h.12l1.1-.46.91-.47.11-.05.12-.06h.06 0 0l216.41-125a11.64 11.64 0 0 0 2.28-1.69 6.1 6.1 0 0 0 2-4.35 11.38 11.38 0 0 0-.13-1.59zM11.74 408.7a1.28 1.28 0 0 0 0 .19v-.19h0zm234.87-139.88h0zM237.32 289h0l.51-.33.44-.3h0 0 .05.06 0 0 .2 0 0l2.13 1.36a5.13 5.13 0 0 1-4.67 0l1.28-.73zM299 495.73L248.85 524l-1.85 1-2.26 1.27-1.44.82a4 4 0 0 1-1.63.46 3.88 3.88 0 0 1-2.3-.49L132.8 465.1a3.87 3.87 0 0 1-1.58-1.76 3.95 3.95 0 0 1 1.32-4.88c.11-.07.19-.16.3-.22l1.49-.84 54.12-30.54a4 4 0 0 1 3.93 0l106.65 62a4 4 0 0 1-.03 6.87zm86.65 117.11h0 0 0zm203.9-117.77h0l.22-.13z"/><path d="M238.46,288.16h0Z"/><path d="M238.47 288.17v.01l-.01-.01h.01zm2.36 1.52a5.13 5.13 0 0 1-4.67 0l1.16-.7h0l.51-.33.44-.3h0 0 .05.06 0 .18 0 0l2.27 1.33z"/></g><g fill="#fbfbfb"><path d="M238.49 288.21v.01h-.01v-.02l.01.01zm-.12.09h0zm-.02.8c-.29 0-.62-.16-.48-.46l.44-.3-.09.08-.1.08-.1.07-.09.07a1.75 1.75 0 0 0 .87.09s.04.36-.45.37zm.1-.94h.01v.01h-.01z"/><path d="M238.49 288.21v.01h-.01v-.02l.01.01z"/><path d="M240.83 289.69a5.13 5.13 0 0 1-4.67 0l1.16-.7h0l.51-.33c-.14.3.19.46.48.46.49 0 .51-.36.49-.38s0 0 0 0a1.75 1.75 0 0 1-.87-.09l.09-.07a1.56 1.56 0 0 0 1 0l-.09-.07-.1-.08a1 1 0 0 1-.11-.1l2.11 1.36zm-2.46-1.39h0z"/><path d="M238.34 288.33h0 0 0 0l.09-.08h0z"/><path d="M239 288.58a1.56 1.56 0 0 1-1 0l.2-.15-.1.08a1.36 1.36 0 0 0 .79 0zm-.63-.28h0zm-.03.03h0 0z"/><path d="M238.91 288.51a1.36 1.36 0 0 1-.79 0l.1-.08.08-.05a.24.24 0 0 0-.08.06 1.07 1.07 0 0 0 .59 0zm-.25-.21h0 0z"/><path d="M238.81 288.43a1.07 1.07 0 0 1-.59 0h0 0 0 .1a.64.64 0 0 0 .29 0h0a1 1 0 0 0 .2 0zm-.44-.12h0 0z"/><path d="M238.38 288.3h0zm.28.01h0 0 0zm.05.05a.64.64 0 0 1-.29 0h-.1 0 0a.43.43 0 0 0 .31 0h0s.07-.01.08 0zm-.18-.15h0zm.03.02h0zm.07.06h0z"/><path d="M238.66 288.32a.43.43 0 0 1-.31 0h0a.41.41 0 0 0 .26 0z"/><path d="M238.44 288.26l-.01.01v-.01h.01z"/><path d="M238.63,288.3a.41.41,0,0,1-.26,0h0a.38.38,0,0,0,.21,0h0Z"/><path d="M238.44 288.26l-.01.01v-.01h.01z"/><path d="M238.45 288.25h0zm.01-.01h0zm.12.01h0 0 0zm.03.03a.38.38 0 0 1-.21 0h0a.38.38 0 0 0 .15 0h0zm-.06-.05h0z"/><path d="M238.58,288.26a.38.38,0,0,1-.15,0h.13Z"/><path d="M238.48 288.22h.01v.01h-.01z"/><path d="M238.48 288.23h0 0 0v-.01.01z"/><path d="M238.48 288.23v-.01h.01 0 0 0-.01v.01h0 0 0zm-.03-.07h.01v.01h-.01z"/><path d="M238.47 288.17v.01l-.01-.01h.01zm.02.01h0zm.06.05h0 0zm-.07-.01h0v.01-.01h0 0z"/><path d="M238.48 288.22h.01 0 0 0l-.01.01h0v-.01z"/><path d="M238.49 288.22h-.01 0 0 .01 0z"/><path d="M238.49 288.22h0 0 0z"/><path d="M238.49 288.22h0 0 0-.01 0 .01 0z"/><path d="M238.48 288.23h0 0 0zm.01-.01h0 0 0z"/><path d="M238.49 288.22h0 0 0 0 0z"/><path d="M238.49 288.22h0 0 0zm.03 0h0 0 0z"/><path d="M238.49 288.22h0 0 0z"/><path d="M238.49 288.22h0 0 0z"/><path d="M238.49 288.22h0 0 0z"/><path d="M238.49 288.22h0 0 0z"/><path d="M238.49 288.22h0 0 0z"/><path d="M238.49 288.22h0 0 0z"/><path d="M238.49 288.22h0 0 0z"/><path d="M238.49 288.22h0 0 0z"/><path d="M238.49 288.22h0 0 0 0 0zm-.02-.05v.01l-.01-.01h.01z"/><path d="M238.49 288.18v.01l-.01.01v-.01l-.01-.01h.02zm-.03-.02h0z"/></g><g class="n"><path d="M13.31 414.13h0 0 0zm353.38 205.36h0 0 0zm17.59.01h0 0 0z"/><path d="M366.69 619.49h0 0 0z"/></g><g class="s"><path d="M375.55 618.47h0 0 0 0 0 0z"/><path d="M375.55 618.47h0 0 0z"/><path d="M375.54 618.46h0 0 0 0 0 0 0z"/><path d="M375.55 618.47h0 0 0 0 0z"/><path d="M375.54 618.46h0 0 0z"/></g><path d="M375.54 618.46h0 0 0z" class="o"/><path d="M375.56 618.49h0 0 0z" class="s"/><path d="M385.63 614.56l-1 .49.91-.47z" class="o"/><path d="M365.84 611.29v-.01.01h0z" class="z"/><path d="M366.11 610.71h0 0 0z" fill="#f4f4f4"/><path d="M384.51 610.09h0 0 0z" fill="#eee"/><path d="M384.32 609.72h0 0 0z" fill="#ebebeb"/><path d="M365.83 611.29h.01 0-.01z" fill="#e7e7e7"/><path d="M384.95 610.97h0 0 0zm-19.27.81h0 0z" class="t"/><g class="u"><path d="M365.59 612h0 0zm.01 0h0 0zm.02-.06h0 0z"/><path d="M365.61 612h0zm-.21.58h0 0 0zm.19-.58h0 0z"/><path d="M365.6 612h0 0z"/></g><path d="M365.56 612.11h0 0 0z" class="p"/><g class="q"><path d="M365.44 612.44h0 0 0zm19.8-.76h0 0 0z"/><path d="M385.23 611.68v.01-.01h0z"/><path d="M385.22 611.69h0 0 0z"/></g><path d="M365.36 612.72h0 0 0zm.03-.11h0 0 0z" class="r"/><g class="t"><path d="M375.44 600.44h.01-.01 0z"/><path d="M375.44 600.44h.01-.01 0zm.06-.03h0 0 0zm.02.04h0 0 0z"/></g><path d="M375.5 600.42h0 .01-.01zm-.01-.03h0 0 0z" class="u"/><path d="M385.44 612.27h0v-.01.01z" class="v"/><path d="M385.54 612.57h0 0 0z" class="y"/><path d="M370 616.26c-.35-.07-.7-.17-1-.27l.37.08.47.13zm9.39.32l-1.47.21h-.36a15.76 15.76 0 0 0 1.83-.21zm2.7-.58h-.06 0l-.61.18-.87.2 1.54-.38z" class="AA"/><g class="w"><path d="M382.42 615.87l-.42.13h.06zm3.25-1.34h0 0l-1 .49.91-.47z"/><path d="M385.67 614.53h0 0l-1 .49.91-.47z"/></g><g class="s"><path d="M365.1 614.44h0 0 0z"/><path d="M365.1 614.44h0 0 0z"/><path d="M365.1 614.44h0 0 0z"/><path d="M365.1 614.44h0 0 0z"/><path d="M365.1 614.44h0 0 0z"/><path d="M365.1 614.44h0 0 0z"/><path d="M365.1 614.44h0 0 0z"/><path d="M365.1 614.44h0 0 0z"/><path d="M365.1 614.44h0 0 0z"/><path d="M365.11 614.43l-.01.01v-.01h.01z"/><path d="M365.1 614.44h0 0 0z"/><path d="M365.11 614.43l-.01.01v-.01h.01z"/><path d="M365.1 614.44h0 0 0z"/><path d="M365.1 614.44h0 0 0z"/><path d="M365.11 614.43l-.01.01v-.01h.01z"/></g><g class="o"><path d="M604.49 487.82a11.28 11.28 0 0 1-2.28 1.7L385.86 614.44l-.13.07h-.08 0l-1 .49-1.1.46h-.12l-.26.09-.27.08c-.15.06-.32.1-.48.15l-.42.22h0c-.12 0-.21.1-.34.13a2.56 2.56 0 0 1-.27 0l-.87.2-1.13.2-1.47.21h-.36 0-.34-.35-.11-.41-1.87-.34-.47l-.68-.08a5.32 5.32 0 0 1-.56-.06l-.53-.05c-.2 0-.38-.1-.57-.14h-.07l-.6-.1-.66-.16c-.35-.07-.7-.17-1-.27h-.09l-.88-.27h0a16.6 16.6 0 0 1-2.84-1.25L11.72 409.08l-.17-.11a10.32 10.32 0 0 1-1.55-1.11.39.39 0 0 1-.1-.08l-.1-.08c-.08-.08-.13-.16-.21-.23a8.51 8.51 0 0 1-.84-.87c0-.06-.06-.11-.09-.16h0a.39.39 0 0 0-.08-.1l-.05-.06a6.57 6.57 0 0 1-.47-.91 1.39 1.39 0 0 1-.06-.17 1 1 0 0 0-.08-.14l-.08-.16a.34.34 0 0 1-.06-.12h0a7.23 7.23 0 0 1-.21-.8 4.8 4.8 0 0 1-.08-.85v2.29a.06.06 0 0 1 0 0h0v.09a.06.06 0 0 1 0 0h0v.08h0c0 .24 0 .52.1.83 0 .12 0 .24.07.37a8.54 8.54 0 0 0 .21.88h0a3.25 3.25 0 0 0 .15.4c0 .09.07.19.11.29s0 .05 0 .08a1.11 1.11 0 0 1 .07.16l.18.39h0l.11.19v.09l.05.1.25.42.26.4.35.48.5.59.16.17a12.23 12.23 0 0 0 1.09 1.05l.64.51a8.9 8.9 0 0 0 1.06.71h0 0 0 0a.05.05 0 0 0 .05 0l.16.1h0l35.34 20.53L84 455.2l35.34 20.54 35.34 20.53L190 516.81l35.34 20.53 35.34 20.54L296 578.42 331.36 599l35.27 20.5h.06a18.53 18.53 0 0 0 3.15 1.39h0a17.18 17.18 0 0 0 2.45.61h.13.32c.38.06.82.07 1.23.1a14.39 14.39 0 0 0 1.51.13c.54 0 1.15 0 1.81-.09h.08c.24 0 .51-.08.77-.12h.09l1.2-.19h.07c.26-.06.54-.16.81-.24h.15l.33-.09a7.94 7.94 0 0 0 1-.3h.09c.12 0 .25-.13.37-.17a17.67 17.67 0 0 0 2-1h0L405.92 607l21.64-12.49L449.19 582l21.64-12.49 21.63-12.49 21.64-12.49 21.63-12.49 21.64-12.5L579 507.08l21.64-12.49a13.93 13.93 0 0 0 4.28-3.9l.2-.32a12.03 12.03 0 0 0 .47-.87l.24-.51a9.54 9.54 0 0 0 .44-1.37c0-.13.05-.26.08-.39a8.31 8.31 0 0 0 .19-1.68v-2.08a6.1 6.1 0 0 1-2.05 4.35zM7.71 406.72a5.11 5.11 0 0 1-.18-.75 5.2 5.2 0 0 0 .23.86.54.54 0 0 0-.05-.11z"/><path d="M12.07,412.58a0,0,0,0,1,0,0,0,0,0,0,1,0,0Z"/></g><path d="M371.23 616.52l-.6-.1-.66-.16-.2-.06 1.46.32z" class="s"/><path d="M385.79 614.47h.06-.06zm.07-.03h-.07.06z" class="n"/><g class="o"><path d="M248.85 524l-1.85 1-114.46-66.54c.11-.07.19-.16.3-.22l1.49-.84 1.14.67 1.13.65 2.23 1.29 1.08.63 1.09.63 1.21.71.4.23.51.3 3.11 1.8.82.48 2.77 1.61.68.4 3.19 1.85.41.24.84.48 1.06.63.76.44 1.69 1 3 1.72h0l.09.05.14.08h0l.11.07.29.16h0 0 .06 0l.22.12h0l.18.1.13.08.25.14.32.19a3.37 3.37 0 0 1 .32.19l.1.05h0l.11.06.92.54.74.43a.27.27 0 0 1 .1.06l.23.13 1.22.71 2.49 1.45.18.1.57.33 1.22.71.37.21.52.31.57.33a.57.57 0 0 1 .13.08h0l1.89 1.1 4.94 2.87 2.65 1.54 3 1.73 1.12.65.09.05h0l.44.25h0l.64.37 2.1 1.22 1.38.8.42.24h.06l.13.07a2.26 2.26 0 0 1 .26.16h.06 0 0l.34.19.94.55.83.48 2.24 1.3 3.86 2.25 1.43.83 3.3 1.92.43.24 1.19.69.56.33.19.11.83.49h0 0l.34.2h0l3 1.72.3.18 1.25.72.16.1 1.75 1 1.47.85 1.83 1.06a0 0 0 0 0 0 0l2.58 1.5.24.14 1.18.69 1.3.75.84.49 1.74 1 2 1.17.44.25 3.69 2.15 1.67 1 .83.48 1.2.7.63.36 2.13 1.24 2.4 1.39 1.36.8 1 .57z"/><path d="M247,525l-2.26,1.27-113.61-66a3.92,3.92,0,0,1,1.4-1.77Z"/><path d="M244.75,526.25l-1.44.82a4,4,0,0,1-1.63.46L131.22,463.34a3.91,3.91,0,0,1-.08-3.11Z"/><path d="M241.68 527.53a3.88 3.88 0 0 1-2.3-.49L132.8 465.1a3.87 3.87 0 0 1-1.58-1.76zm57.32-31.8L248.85 524l-4.85-2.87-1-.57-1.36-.8-2.4-1.39-2.13-1.24-.63-.36-1.2-.7-.83-.48-1.67-1-3.69-2.15-.44-.25-2-1.17-1.74-1-.84-.49-1.3-.75-1.18-.69-.24-.14-2.58-1.5a0 0 0 0 1 0 0l-1.83-1.06-1.47-.85-1.75-1-.16-.1-1.25-.72-.3-.18-3-1.72h0l-.34-.2h0 0l-.83-.49-.19-.11-.56-.33-1.19-.69-.43-.24-3.3-1.92-1.43-.83-3.86-2.25-2.24-1.3-.83-.48-.94-.55-.34-.19h0 0-.06a2.26 2.26 0 0 0-.26-.16l-.13-.07h-.06l-.42-.24-1.38-.8-2.1-1.22-.64-.37h0l-.44-.25h0l-.09-.05-1.12-.65-3-1.73-2.83-1.76-4.94-2.87-1.89-1.1h0a.57.57 0 0 0-.13-.08l-.57-.33-.52-.31-.37-.21-1.22-.71-.57-.33-.18-.1-2.49-1.45-1.22-.71-.23-.13a.27.27 0 0 0-.1-.06l-.74-.43-.92-.54-.11-.06h0l-.1-.05a3.37 3.37 0 0 0-.32-.19l-.32-.19-.25-.14-.13-.08-.18-.1h0l-.22-.12h0-.06 0 0l-.29-.16-.11-.07h0l-.14-.08-.09-.05h0l-3-1.72-1.69-1-.9-.57-1.07-.63-.84-.48-.41-.24-3.19-1.85-.68-.4-2.77-1.61-.82-.48-3.11-1.8-.51-.3-.4-.23-1.21-.71-1.09-.63-1.08-.63-2.23-1.29-1.13-.65-1.14-.67 54.12-30.54a4 4 0 0 1 3.93 0l106.65 62a4 4 0 0 1-.02 6.87z"/><path d="M134.33,457.4h0L248.85,524h0Z"/></g><g fill="#0e0e0e"><path d="M356.06 332.32h0l32.6 18.95-32.6-18.95zm81.62 56.15l-.03.02-89.14-51.8.04-.02 11.27 6.55 17.67 10.27 17.67 10.27 17.67 10.26 17.67 10.27 7.18 4.18z"/><path d="M447.68 382.69l-1.8 1.04-.68.4h-.01l-.03.02-.06.04-.09.05-.13.07-.15.09-.2.11-.24.14-.3.18-.37.2-.28.17-.15.09-.53.3-.63.36-.77.45-.95.55-1.17.67-1.46.85-7.18-4.18-17.67-10.27-17.67-10.26-17.67-10.27-17.67-10.27-11.27-6.55 1.46-.85 1.17-.67.94-.55.78-.45.63-.36.38-.22.14-.08.44-.25.36-.21.3-.18.24-.14.2-.11.16-.09.12-.07.09-.05.06-.04.04-.02.4-.23 1.56-.9 89.66 51.49zm-10.03 5.8l-.33.18-89.13-51.8.32-.18 89.14 51.8z"/></g><path d="M384.56 393.13c-1.66 1-1.67 2.48-.07 3.41l15.18 8.88a6.54 6.54 0 0 0 5.88 0l15.81-9.08c1.66-.95 1.67-2.48 0-3.43l-15.17-8.88a6.46 6.46 0 0 0-5.84 0zM158 326.44a1.24 1.24 0 0 0-.06 2.33l45.14 26.35a4.33 4.33 0 0 0 4 0L224.73 345c1.17-.68 1.11-1.68 0-2.31l-45.09-26.38a4.33 4.33 0 0 0-4 0zm86.2 17.07c-1.61.93-1.62 2.45 0 3.38l15.18 8.88a6.54 6.54 0 0 0 5.88 0l15.82-9.08c1.61-.93 1.62-2.45 0-3.41l-15.13-8.84a6.47 6.47 0 0 0-5.89 0zM272.18 360c-1.56.9-1.57 2.36 0 3.29l15.37 9a6.23 6.23 0 0 0 5.64 0l16-9.18c1.56-.91 1.62-2.4.07-3.3l-15.37-9a6.45 6.45 0 0 0-5.7 0zm-142.24-17.48c-1.13.65-1.18 1.7-.06 2.34l58.57 34.21a4.33 4.33 0 0 0 4 0l17.7-10.07c1.12-.65 1.08-1.7 0-2.34l-58.53-34.24a4.42 4.42 0 0 0-4 0zm70.41 40.24c-1.57.9-1.57 2.37 0 3.27l15.37 9a6.23 6.23 0 0 0 5.64 0l16-9.19.09-.05c1.52-.88 1.55-2.33 0-3.24l-15.37-9a6.23 6.23 0 0 0-5.64 0zm28.12 16.4c-1.61.93-1.62 2.4-.07 3.3l15.37 9a6.23 6.23 0 0 0 5.64 0l16.06-9.22.09-.05c1.52-.87 1.5-2.3-.07-3.22l-15.37-9a6.19 6.19 0 0 0-5.65 0zm128.07 10.15c-1.56.9-1.57 2.36 0 3.27l15.37 9a6.3 6.3 0 0 0 5.69 0l16-9.18c1.56-.91 1.57-2.37 0-3.27l-15.42-9a6.14 6.14 0 0 0-5.64 0zm28.04 16.5c-1.52.88-1.5 2.31.07 3.22L400 438a6.23 6.23 0 0 0 5.64 0l16-9.19c1.56-.9 1.62-2.39.07-3.29l-15.37-9a6.25 6.25 0 0 0-5.65 0l-16.05 9.21zM284.61 432c-1.56.9-1.56 2.36 0 3.27l15.37 9a6.17 6.17 0 0 0 5.64 0l16-9.18h.08c1.53-.88 1.46-2.33-.06-3.22l-15.37-9a6.16 6.16 0 0 0-5.65 0zm69.96 8.39c-1.56.9-1.62 2.39-.07 3.29l15.42 9a6.23 6.23 0 0 0 5.64 0l16.06-9.21c1.56-.91 1.57-2.37 0-3.27l-15.37-9a6.24 6.24 0 0 0-5.69 0zm58.32 1.72c-1.66.95-1.67 2.48-.07 3.41l15.18 8.87a6.49 6.49 0 0 0 5.94 0l15.76-9c1.66-1 1.67-2.48 0-3.44l-15.13-8.85a6.45 6.45 0 0 0-5.88 0zm-30.25 14.7c-1.56.91-1.57 2.37 0 3.27l15.37 9a6.26 6.26 0 0 0 5.7 0l16-9.19c1.57-.9 1.57-2.36 0-3.26l-15.37-9a6.24 6.24 0 0 0-5.69 0zm58.28 1.8c-1.57.91-1.55 2.39 0 3.36l15.23 8.85a6.26 6.26 0 0 0 5.83 0l15.82-9.07c1.61-.93 1.61-2.46 0-3.39l-15.17-8.87a6.66 6.66 0 0 0-5.89 0L441 458.56zm55.98.21c-1.66.95-1.67 2.47-.07 3.4L512 471.1a6.57 6.57 0 0 0 5.89 0l15.81-9.07c1.66-1 1.67-2.48 0-3.44l-15.18-8.88a6.46 6.46 0 0 0-5.84 0zM168.93 398c-1.37.79-1.52 2-.6 2.88l130.23 76.36a6.67 6.67 0 0 0 5.94 0l15.76-9c1.66-1 1.67-2.48 0-3.44l-6.16-3.58-124.39-72.6a6.73 6.73 0 0 0-5 .34zm241.88 75.19c-1.61.93-1.61 2.45 0 3.38l15.19 8.87a6.47 6.47 0 0 0 5.89 0l15.81-9.07c1.61-.93 1.67-2.48.07-3.41l-15.18-8.88a6.47 6.47 0 0 0-5.93 0zM525 475.24c-1.61.93-1.66 2.48-.06 3.41l15.17 8.88a6.67 6.67 0 0 0 5.94 0l15.81-9.07c1.61-.93 1.62-2.46 0-3.41l-15.17-8.88a6.46 6.46 0 0 0-5.84 0zm-156.12 6.03c-1.56.9-1.57 2.37-.06 3.3l15.42 9a6 6 0 0 0 5.64 0l16-9.19c1.56-.9 1.62-2.33 0-3.26l-15.38-9a6.17 6.17 0 0 0-5.64 0zm-57.69.57c-1.27.73-1.28 1.91-.07 2.62l32.49 19a5 5 0 0 0 4.57 0l17.13-9.84c1.27-.73 1.28-1.91 0-2.64l-32.44-19a5 5 0 0 0-4.52 0zm163.57-3.55c-1.62.93-1.67 2.48 0 3.43l37.38 21.84a6.47 6.47 0 0 0 5.89 0l15.81-9.07c1.61-.93 1.67-2.48.07-3.41l-37.44-21.87a6.54 6.54 0 0 0-5.88 0zM355.9 507.2c-1.61.93-1.62 2.45-.07 3.41l15.22 8.84a6.38 6.38 0 0 0 5.89 0l15.81-9.07c1.61-.93 1.62-2.45 0-3.41l-15.17-8.88a6.46 6.46 0 0 0-5.84 0zm85.17-16.38c-1.66 1-1.67 2.48 0 3.44l43.25 25.31a6.47 6.47 0 0 0 5.89 0l15.76-9c1.66-.95 1.67-2.48.07-3.41l-43.25-25.3a6.58 6.58 0 0 0-5.94 0zm-41.88 8.06c-1.61.93-1.62 2.45 0 3.38l57.07 33.4a6.46 6.46 0 0 0 5.84 0l15.81-9.08c1.71-1 1.68-2.47.07-3.41l-57.12-33.36a6.46 6.46 0 0 0-5.84 0zM384 523.62c-1.61.93-1.62 2.45 0 3.38l15.18 8.88a6.54 6.54 0 0 0 5.88 0l15.82-9.07c1.61-.93 1.61-2.46 0-3.44l-15.17-8.82a6.3 6.3 0 0 0-5.89 0zM214.71 293.86c-1.61.93-1.62 2.45 0 3.38L257.07 322a6.54 6.54 0 0 0 5.88 0l15.82-9c1.61-.93 1.66-2.48 0-3.44l-42.38-24.74a6.47 6.47 0 0 0-5.89 0zm-27.62 16.34c-1.62.93-1.6 2.42 0 3.36l16 9.35a6.57 6.57 0 0 0 5.89 0l15.81-9.07c1.66-1 1.67-2.48 0-3.44l-16-9.35a6.46 6.46 0 0 0-5.84 0l-15.81 9.07zm28.99 16.86c-1.61.93-1.67 2.48 0 3.43l15.18 8.88a6.45 6.45 0 0 0 5.88 0l15.82-9.07c1.61-.93 1.61-2.45 0-3.38L237.78 318a6.57 6.57 0 0 0-5.89 0zm56.14.39c-1.66 1-1.67 2.48-.07 3.41l15.17 8.88a6.57 6.57 0 0 0 5.89 0l15.79-9.05c1.66-1 1.67-2.48 0-3.44l-15.18-8.87a6.45 6.45 0 0 0-5.88 0zm28.07 16.43c-1.61.93-1.67 2.48-.07 3.41l15.18 8.87a6.56 6.56 0 0 0 5.93 0l15.77-9c1.65-1 1.66-2.48 0-3.44l-15.1-8.89a6.47 6.47 0 0 0-5.89 0zM214.1 358.3c-1.56.91-1.57 2.37 0 3.27l15.41 9a6.25 6.25 0 0 0 5.65 0l16-9.19c1.62-.93 1.62-2.39.07-3.29l-15.37-9a6.24 6.24 0 0 0-5.69 0zm114.26 2.01c-1.61.93-1.62 2.45 0 3.38l15.18 8.87a6.47 6.47 0 0 0 5.89 0l15.81-9.07c1.61-.93 1.62-2.45 0-3.41L350 351.23a6.46 6.46 0 0 0-5.84 0zm-86.13 14.39c-1.57.91-1.62 2.4-.07 3.3l15.42 9a6.23 6.23 0 0 0 5.64 0l16.06-9.22c1.56-.9 1.57-2.36 0-3.26l-15.38-9a6.24 6.24 0 0 0-5.69 0zm58.12 1.72c-1.61.93-1.62 2.4-.07 3.3l15.37 9a6.33 6.33 0 0 0 5.69 0l16.06-9.22c1.56-.9 1.57-2.36 0-3.27l-15.42-9a6.23 6.23 0 0 0-5.64 0zM126.7 374a1.38 1.38 0 0 0 0 2.59l32.49 19a4.91 4.91 0 0 0 4.52 0l17.18-9.86c1.22-.71 1.23-1.89 0-2.62l-32.44-19a4.9 4.9 0 0 0-4.53 0zm143.6 17.13c-1.56.9-1.57 2.37 0 3.27l15.42 9a6.14 6.14 0 0 0 5.64 0l16-9.19c1.56-.9 1.57-2.37 0-3.27L292 382a6.21 6.21 0 0 0-5.69 0zm58.12 1.72c-1.56.9-1.62 2.4 0 3.33l15.37 9a6.23 6.23 0 0 0 5.7 0l16-9.19c1.56-.9 1.57-2.37 0-3.27l-15.37-9a6.4 6.4 0 0 0-5.69 0zm-30.05 14.71c-1.56.9-1.57 2.37 0 3.27l15.41 9a6.19 6.19 0 0 0 5.65 0l16-9.18c1.57-.9 1.62-2.4.07-3.3l-15.37-9a6.25 6.25 0 0 0-5.74 0zm114.26 2c-1.61.93-1.67 2.48-.07 3.41l15.18 8.88a6.59 6.59 0 0 0 5.93 0l15.77-9.05c1.66-1 1.67-2.48 0-3.44l-15.18-8.87a6.46 6.46 0 0 0-5.84 0zm-156.09 6.03c-1.56.9-1.62 2.4-.07 3.3l15.37 9a6.26 6.26 0 0 0 5.7 0l16-9.19.09-.05c1.52-.88 1.5-2.3-.07-3.22l-15.37-9a6.23 6.23 0 0 0-5.64 0zM326.5 424c-1.61.93-1.62 2.39-.07 3.3l15.42 9a6.23 6.23 0 0 0 5.64 0l16-9.18c1.61-.93 1.62-2.4.07-3.3l-15.38-9a6.24 6.24 0 0 0-5.69 0zm114.21 2c-1.62.93-1.62 2.45 0 3.38l15.17 8.88a6.57 6.57 0 0 0 5.89 0l15.81-9.07c1.61-.93 1.62-2.45 0-3.41l-15.17-8.87a6.49 6.49 0 0 0-5.84 0zm28.07 16.42c-1.61.93-1.62 2.45 0 3.38l15.18 8.87a6.64 6.64 0 0 0 5.88 0l15.81-9.07c1.62-.93 1.67-2.48 0-3.44l-15.17-8.88a6.47 6.47 0 0 0-5.89 0zm-156.09 6.03c-1.56.9-1.57 2.36 0 3.26l15.37 9a6.23 6.23 0 0 0 5.64 0l16-9.18h.09c1.52-.88 1.55-2.34 0-3.25l-15.37-9a6.25 6.25 0 0 0-5.65 0zm28.12 16.39c-1.61.93-1.62 2.4-.07 3.3l15.37 9a6.25 6.25 0 0 0 5.65 0l16.05-9.21.09-.05c1.52-.88 1.46-2.34-.07-3.22l-15.37-9a6.23 6.23 0 0 0-5.64 0zm15.63-88.11c-1.61.93-1.62 2.45 0 3.38l15.15 8.89a6.57 6.57 0 0 0 5.89 0l15.81-9c1.61-.93 1.62-2.46 0-3.44l-15.18-8.88a6.45 6.45 0 0 0-5.88 0zM412.09 540c-1.66 1-1.67 2.48-.07 3.41l15.18 8.88a6.57 6.57 0 0 0 5.89 0l15.81-9.08c1.66-1 1.67-2.48 0-3.43L433.74 531a6.45 6.45 0 0 0-5.88 0zM101.83 358.64c-1.66 1-1.67 2.48 0 3.44l15.12 8.85a6.49 6.49 0 0 0 5.94 0l15.76-9.05c1.66-1 1.67-2.48.07-3.41l-15.17-8.87a6.47 6.47 0 0 0-5.89 0z" class="o"/><path class="d" d="M527.53 204.55L305.62 78.45c-.56 29.54-.05 122.1-.21 152.35-.27 49-7.6 87.54-64.14 131.8-18 14.08-97.36 57.32-161.76 91.16-26.13 13.73-28.11 19.52-41.32 30.71C25.38 495.32 5.74 505.4 0 508.75l220.44 127.46c4.12-2.44 25.57-13.2 39.65-25.13 13.21-11.19 15.19-23.12 41.32-36.85 64.41-33.85 174.75-101.61 194.34-113.36 25.13-15.08 31.56-24.58 31.56-64.22l.22-192.1z" fill="#231f20" opacity=".2"/><path d="M527.53 190L305.62 63.93c-.56 29.54-.05 122.1-.21 152.35-.27 49-7.6 87.54-64.14 131.8-18 14.08-97.36 57.32-161.76 91.16C53.38 453 49.17 470.49 36 481.68c-12.8 10.85-27 13.81-32.74 17.16l220.39 127.47c4.12-2.45 20.12-6.09 34.2-18 13.22-11.19 17.43-28.71 43.56-42.44 64.41-33.84 143.78-77.08 161.77-91.16 56.53-44.25 63.86-82.83 64.13-131.8l.22-152.91z" fill="url(#A)"/><path d="M397.46 292a1.12 1.12 0 0 1-.56-.15l-.22-.13a1.12 1.12 0 0 1-.41-1.53 1 1 0 0 1 .08-.11v-5.64a1.12 1.12 0 1 1 2.23 0v6.44a1.11 1.11 0 0 1-.56 1 1.09 1.09 0 0 1-.56.12zm-6-3.5a1 1 0 0 1-.56-.15l-5.8-3.36a1.12 1.12 0 0 1 1.13-1.93l5.79 3.36a1.11 1.11 0 0 1-.56 2.08zm-11.59-6.72a1.12 1.12 0 0 1-.56-.15l-5.8-3.36a1.12 1.12 0 0 1-.4-1.53 1.11 1.11 0 0 1 1.52-.41l5.8 3.37a1.12 1.12 0 0 1-.56 2.08zm17.61-2.92a1.12 1.12 0 0 1-1.11-1.12V271a1.12 1.12 0 1 1 2.23 0v6.7a1.12 1.12 0 0 1-1.14 1.13zM368.26 275a1 1 0 0 1-.56-.15l-5.8-3.36a1.12 1.12 0 1 1 1.12-1.93l5.8 3.36a1.12 1.12 0 0 1-.56 2.08zm-11.6-6.72a1.15 1.15 0 0 1-.56-.15l-5.79-3.36a1.12 1.12 0 1 1 1.12-1.94l5.79 3.36a1.12 1.12 0 0 1-.56 2.09zm40.8-2.88a1.11 1.11 0 0 1-1.11-1.11v-6.7a1.12 1.12 0 1 1 2.23 0v6.7a1.12 1.12 0 0 1-1.12 1.13zm-52.39-3.85a1.15 1.15 0 0 1-.56-.15l-5.8-3.36a1.12 1.12 0 0 1 1.12-1.93l5.8 3.36A1.12 1.12 0 0 1 346 261a1.14 1.14 0 0 1-.93.57zm-11.59-6.72a1.09 1.09 0 0 1-.56-.15l-5.8-3.37a1.11 1.11 0 0 1-.56-1v-3.75a1.12 1.12 0 0 1 2.24 0v3.1l5.24 3a1.12 1.12 0 0 1 .4 1.53 1.1 1.1 0 0 1-.96.66zm64-2.83a1.12 1.12 0 0 1-1.11-1.12v-6.7a1.12 1.12 0 0 1 2.23 0v6.7a1.12 1.12 0 0 1-1.14 1.12zm-69.78-11a1.12 1.12 0 0 1-1.12-1.12v-6.7a1.12 1.12 0 1 1 2.24 0v6.7a1.12 1.12 0 0 1-1.14 1.12zm69.78-2.42a1.12 1.12 0 0 1-1.11-1.12v-6.7a1.12 1.12 0 1 1 2.23 0v6.7a1.12 1.12 0 0 1-1.14 1.16zm-69.78-11a1.12 1.12 0 0 1-1.12-1.12v-6.7a1.12 1.12 0 0 1 2.24 0v6.7a1.12 1.12 0 0 1-1.14 1.18zm69.78-2.42a1.12 1.12 0 0 1-1.11-1.12v-1.23l-3.62-2.1a1.12 1.12 0 1 1 1.12-1.93l4.17 2.42a1.11 1.11 0 0 1 .56 1v1.87a1.12 1.12 0 0 1-1.14 1.15zm-10-7.66a1.15 1.15 0 0 1-.56-.15l-5.8-3.36a1.12 1.12 0 0 1-.4-1.53 1.11 1.11 0 0 1 1.52-.41l5.8 3.36a1.12 1.12 0 0 1-.56 2.09zm-59.81-3.33a1.12 1.12 0 0 1-1.12-1.11v-6.7a1.12 1.12 0 0 1 2.24 0v6.7a1.12 1.12 0 0 1-1.11 1.17zm48.22-3.4a1.12 1.12 0 0 1-.56-.15l-5.8-3.36a1.12 1.12 0 1 1 1.12-1.93l5.8 3.36a1.12 1.12 0 0 1-.56 2.08zm-11.6-6.72a1.15 1.15 0 0 1-.56-.15l-5.73-3.31a1.11 1.11 0 0 1-.41-1.52 1.12 1.12 0 0 1 1.53-.41l5.79 3.36a1.12 1.12 0 0 1-.56 2.09zm-36.62-3.28a1.12 1.12 0 0 1-1.12-1.12V193a1.12 1.12 0 0 1 2.24 0v6.7a1.12 1.12 0 0 1-1.11 1.13zm25-3.45a1.15 1.15 0 0 1-.56-.15l-5.79-3.36a1.12 1.12 0 1 1 1.12-1.93l5.79 3.36a1.11 1.11 0 0 1 .41 1.53 1.13 1.13 0 0 1-.93.61zm-11.59-6.72a1.12 1.12 0 0 1-.56-.15l-5.8-3.37a1.12 1.12 0 0 1 1.12-1.93l5.8 3.36a1.12 1.12 0 0 1 .4 1.53 1.1 1.1 0 0 1-.92.62zm-13.44-3.23a1.12 1.12 0 0 1-1.12-1.12v-4.57a1.12 1.12 0 0 1 1.68-1l1.85 1.07a1.12 1.12 0 0 1-1.12 1.93l-.17-.1v2.63a1.12 1.12 0 0 1-1.08 1.22zm177.04 131.41a1.12 1.12 0 0 1-1.11-1.12V311a1.12 1.12 0 1 1 2.23 0v6.7a1.12 1.12 0 0 1-1.12 1.08zm-5-1.83a1.08 1.08 0 0 1-.55-.15l-5.82-3.32a1.12 1.12 0 1 1 1.1-1.94l5.82 3.32a1.12 1.12 0 0 1-.55 2.09zm-11.64-6.64a1.14 1.14 0 0 1-.56-.14l-5.82-3.32a1.12 1.12 0 1 1 1.1-1.94l5.83 3.32a1.11 1.11 0 0 1-.55 2.08zm16.6-4.94a1.11 1.11 0 0 1-1.11-1.11v-6.71a1.12 1.12 0 0 1 2.23 0v6.71a1.12 1.12 0 0 1-1.08 1.11zm-28.25-1.69a1.07 1.07 0 0 1-.55-.14l-5.83-3.32a1.12 1.12 0 1 1 1.1-1.94l5.89 3.32a1.11 1.11 0 0 1-.55 2.08zm-11.65-6.63a1.07 1.07 0 0 1-.55-.14l-5.83-3.32a1.12 1.12 0 0 1 1.11-1.94l5.82 3.32a1.11 1.11 0 0 1-.55 2.08zm39.9-5.08a1.12 1.12 0 0 1-1.11-1.12v-6.7a1.12 1.12 0 1 1 2.23 0v6.7a1.12 1.12 0 0 1-1.08 1.15zm-51.55-1.55a1.07 1.07 0 0 1-.55-.14l-5.78-3.28a1.12 1.12 0 0 1 1.1-1.94l5.82 3.32a1.11 1.11 0 0 1-.55 2.08zm-11.65-6.63a1.12 1.12 0 0 1-.55-.14l-5.82-3.32a1.12 1.12 0 1 1 1.1-1.94l5.83 3.31a1.12 1.12 0 0 1 .41 1.53 1.1 1.1 0 0 1-.93.56zm57.86-2.12a1.07 1.07 0 0 1-.55-.14l-5.75-3.32a1.12 1.12 0 1 1 1.1-1.94l5.82 3.31a1.12 1.12 0 0 1 .42 1.53 1.1 1.1 0 0 1-1 .56zm-69.5-4.51a1.07 1.07 0 0 1-.55-.14l-5.83-3.32a1.12 1.12 0 0 1 1.1-1.94l5.83 3.31a1.12 1.12 0 0 1-.55 2.09zm57.89-2.16a1.12 1.12 0 0 1-.55-.14l-5.82-3.32a1.12 1.12 0 0 1 1.1-1.94l5.83 3.31a1.12 1.12 0 0 1 .41 1.53 1.1 1.1 0 0 1-.97.56zm-69.5-4.51a1.07 1.07 0 0 1-.55-.14l-5.83-3.32a1.12 1.12 0 0 1 1.11-1.94l5.82 3.31a1.12 1.12 0 0 1-.55 2.09zm57.86-2.12a1.14 1.14 0 0 1-.56-.14l-5.82-3.23a1.12 1.12 0 1 1 1.11-1.94l5.82 3.32a1.11 1.11 0 0 1-.55 2.08zm-68.16-5.29a1.12 1.12 0 0 1-1.12-1.12v-6.7a1.12 1.12 0 0 1 2.24 0V262a1.12 1.12 0 0 1-1.12 1.12zm56.51-1.34a1.07 1.07 0 0 1-.55-.14l-5.85-3.28a1.12 1.12 0 1 1 1.11-1.94l5.82 3.31a1.12 1.12 0 0 1-.55 2.09zm-11.65-6.63a1.07 1.07 0 0 1-.55-.14l-5.82-3.32a1.12 1.12 0 0 1 1.1-1.94l5.82 3.31a1.12 1.12 0 0 1 .42 1.53 1.1 1.1 0 0 1-.97.6zm-44.86-5.43a1.12 1.12 0 0 1-1.12-1.12v-6.7a1.12 1.12 0 1 1 2.24 0v6.7a1.12 1.12 0 0 1-1.12 1.16zm33.21-1.2a1.12 1.12 0 0 1-.55-.14l-5.82-3.32a1.12 1.12 0 1 1 1.1-1.94l5.83 3.31a1.12 1.12 0 0 1 .41 1.53 1.1 1.1 0 0 1-.97.6zm-11.64-6.63a1.25 1.25 0 0 1-.56-.14l-5.82-3.32a1.12 1.12 0 1 1 1.11-1.94l5.81 3.35a1.12 1.12 0 0 1-.55 2.09zm-21.57-5.58a1.11 1.11 0 0 1-1.12-1.11v-6.7a1.12 1.12 0 0 1 2.24 0v6.7a1.11 1.11 0 0 1-1.12 1.15zm9.92-1.05a1.18 1.18 0 0 1-.55-.14l-5.83-3.32a1.12 1.12 0 1 1 1.11-1.94l5.82 3.31a1.12 1.12 0 0 1-.55 2.09z" class="r"/><path d="M336.4 139.53a1.6 1.6 0 0 1-.24-.81v-21.65l-6.33-3.66a1.65 1.65 0 0 1-.59-.61 1.69 1.69 0 0 1-.24-.8v-3a.65.65 0 0 1 .23-.58c.14-.1.34-.08.6.07l17.5 10.1a1.76 1.76 0 0 1 .61.63 1.69 1.69 0 0 1 .24.85v3a.5.5 0 0 1-.85.48l-6.33-3.67v21.65a.6.6 0 0 1-.22.54c-.15.1-.35.08-.6-.07l-3.18-1.86a1.63 1.63 0 0 1-.6-.61zm14.73-15.27a1.63 1.63 0 0 1-.24-.81v-2.87a.6.6 0 0 1 .24-.57.57.57 0 0 1 .58.06l3.15 1.82a1.78 1.78 0 0 1 .62.63 1.69 1.69 0 0 1 .24.85v2.87a.53.53 0 0 1-.26.52.64.64 0 0 1-.6-.07l-3.15-1.82a1.63 1.63 0 0 1-.58-.61zm.13 23.85a1.66 1.66 0 0 1-.23-.8v-18.55c0-.29.08-.47.23-.55a.62.62 0 0 1 .59.08l2.91 1.68a1.56 1.56 0 0 1 .58.61 1.58 1.58 0 0 1 .24.81v18.54a.5.5 0 0 1-.82.48l-2.91-1.69a1.65 1.65 0 0 1-.59-.61zm12.23 5.47a12.72 12.72 0 0 1-1.57-6.39v-8.89l-2.71-1.56a1.81 1.81 0 0 1-.82-1.41V133a.56.56 0 0 1 .24-.53.57.57 0 0 1 .58.06l2.71 1.56v-6.52c0-.29.08-.48.24-.55a.6.6 0 0 1 .58.08l2.84 1.64a1.57 1.57 0 0 1 .6.6 1.6 1.6 0 0 1 .22.82v6.52l4.28 2.47a1.65 1.65 0 0 1 .59.61 1.63 1.63 0 0 1 .24.81v2.32a.56.56 0 0 1-.24.53.59.59 0 0 1-.59-.06l-4.28-2.47v8.45a7.11 7.11 0 0 0 .52 2.85 3.91 3.91 0 0 0 1.68 1.81l2.39 1.38a1.67 1.67 0 0 1 .6.61 1.54 1.54 0 0 1 .22.81v2.48a.6.6 0 0 1-.22.54c-.15.1-.35.07-.6-.07l-2.81-1.63a12.35 12.35 0 0 1-4.69-4.54zm11.65 8.32a1.63 1.63 0 0 1-.24-.81v-26c0-.29.08-.47.24-.55a.6.6 0 0 1 .58.08l2.88 1.66a1.64 1.64 0 0 1 .82 1.42v26a.62.62 0 0 1-.22.54c-.15.1-.35.07-.6-.07l-2.88-1.66a1.71 1.71 0 0 1-.58-.61zm10.46 4.19a17.46 17.46 0 0 1-2.38-8.53v-1c0-3.27.74-5.43 2.24-6.45s3.57-.77 6.22.76a16.19 16.19 0 0 1 6.28 6.46 18.38 18.38 0 0 1 2.21 8.82v.85a.57.57 0 0 1-.24.53.63.63 0 0 1-.62-.08l-11.37-6.57v.31a10.47 10.47 0 0 0 1 4.24 6.8 6.8 0 0 0 2.7 3q2 1.13 3.18 0a.84.84 0 0 1 .48-.25 1.44 1.44 0 0 1 .58.24l3 1.73a1.71 1.71 0 0 1 .53.51 1.17 1.17 0 0 1 .22.68 2 2 0 0 1-1 1.65 4.21 4.21 0 0 1-2.79.61 9.78 9.78 0 0 1-4.21-1.49 16.41 16.41 0 0 1-6.03-6.02zm9.81-4.24v-.08a9.39 9.39 0 0 0-1-4.3 7 7 0 0 0-2.75-3c-1.17-.68-2.08-.74-2.75-.19s-1 1.59-1 3.14v.08z" fill="#999"/><path d="M495.94 206.48v5.4l6.14 3.55V210zm-.24 55.1l6.38 3.69v-5.4l-6.38-3.69zm-64.39-79.82l-20.82-12v5.4l20.82 12zm59.32 39.52l7.33 4.23v-5.4l-7.33-4.23zm-47.49-45.16l-16.41-9.47v5.4l16.41 9.47zm48.94 28.13l-15.3-8.78v5.4l15.3 8.78zm-19.16-11L447 178.35v5.4l25.92 14.89zm-5.8 34L440.48 212v5.4l26.64 15.3zm19.65-13.62l-34.46-19.77v5.4l34.46 19.77zm-33.5-6.76l-16.41-9.47v5.4l16.41 9.47zm-4.82-15.24L435.17 184v5.39l13.28 7.67zm28.09 58.92l15.29 8.78V254l-15.29-8.79zM471 234.9l19.73 11.35v-5.4L471 229.5zm-44.5-13.15l16.41 9.47v-5.4l-16.41-9.47zm30.64-7.23l17 9.73v-5.4l-17-9.73zm20.85 12l24.1 13.87V235L478 221.08zm-41.36-16.74l-13.27-7.66v5.4l13.27 7.66zM433 195.19l-22.51-12.94v5.4L433 200.59zm-26.59 15l16.22 9.3v-5.4l-16.22-9.3zm40.35 23.23l25.91 14.89v-5.4l-25.91-14.89zm-89.67-51.7L402.55 208v-5.4l-45.46-26.23zm65.78-17.33l-12.38-7.1v5.4l12.38 7.1zm-3.38 35.43l-30.69-17.63v5.4l30.69 17.66zm-66.26-25.72L330 160.47v5.4l23.2 13.66zm31.7 5.83L353 161.53v5.4l31.95 18.43zm-35.81-20.63L330 148v5.4l19.09 11.29zm146.82 168.9v5.4l6.14 3.55v-5.4zm-64.63-24.72l-20.82-12v5.4l20.82 12zM490.63 343l7.33 4.23v-5.4l-7.33-4.23zm-47.49-45.16l-16.41-9.47v5.4l16.41 9.47zM492.08 326l-15.3-8.78v5.4l15.3 8.78zm-19.16-11L447 300.07v5.4l25.92 14.89zm13.85 20.41l-34.46-19.81v5.4l34.46 19.77zm-38.32-22l-13.28-7.66v5.39l13.28 7.67zm-25.58-27.23L410.49 279v5.4l12.38 7.1z" class="n"/><g class="r"><path d="M442.69 462.9a1.2 1.2 0 0 1-.57-.16l-2.41-1.45a1.12 1.12 0 0 1 1.15-1.92l1.81 1.09 2.62-1.76a1.12 1.12 0 1 1 1.27 1.84l-3.25 2.18a1.15 1.15 0 0 1-.62.18zm-8.15-4.9a1.1 1.1 0 0 1-.57-.16l-5.75-3.45a1.13 1.13 0 0 1-.38-1.53 1.11 1.11 0 0 1 1.53-.38l5.75 3.45a1.11 1.11 0 0 1-.58 2.07zm16.75-1.26a1.12 1.12 0 0 1-.87-.42 1.1 1.1 0 0 1 .18-1.57q2.65-2.13 5.15-4.23a1.12 1.12 0 0 1 1.44 1.71l-5.2 4.26a1.09 1.09 0 0 1-.7.24zm-28.23-5.64a1.21 1.21 0 0 1-.58-.16l-5.74-3.46a1.115 1.115 0 0 1 1.15-1.91l5.74 3.45a1.12 1.12 0 0 1 .39 1.53 1.14 1.14 0 0 1-.96.54zm38.47-3a1.14 1.14 0 0 1-.83-.37 1.12 1.12 0 0 1 .09-1.58l4.88-4.52a1.12 1.12 0 0 1 1.55 1.61l-5 4.58a1.09 1.09 0 0 1-.69.27zm-50-3.91a1.1 1.1 0 0 1-.53-.19l-5.75-3.46a1.115 1.115 0 0 1 1.15-1.91l5.75 3.45a1.12 1.12 0 0 1-.58 2.08zm59.62-5.36a1.13 1.13 0 0 1-.8-1.9q2.37-2.44 4.52-4.87a1.12 1.12 0 1 1 1.67 1.48q-2.18 2.46-4.58 5a1.14 1.14 0 0 1-.77.28zm-71.1-1.55a1.1 1.1 0 0 1-.58-.16l-5.74-3.45a1.12 1.12 0 0 1 1.15-1.92l5.74 3.46a1.11 1.11 0 0 1-.57 2.07zm-11.49-6.91a1.1 1.1 0 0 1-.57-.16l-5.75-3.45a1.12 1.12 0 0 1 1.15-1.92l5.75 3.46a1.11 1.11 0 0 1-.58 2.07zm91.47-1.57a1.14 1.14 0 0 1-.7-.24 1.11 1.11 0 0 1-.17-1.57l4-5.28A1.124 1.124 0 0 1 485 423l-4.1 5.38a1.11 1.11 0 0 1-.83.41zm-102.95-5.34a1.1 1.1 0 0 1-.58-.16l-5.74-3.45a1.115 1.115 0 1 1 1.15-1.91l5.74 3.45a1.11 1.11 0 0 1-.57 2.07zm110.76-5.53a1.06 1.06 0 0 1-.59-.17 1.11 1.11 0 0 1-.35-1.54l3.37-5.7a1.134 1.134 0 1 1 2 1.07l-3.44 5.82a1.12 1.12 0 0 1-.95.51zm-122.25-1.37a1.2 1.2 0 0 1-.57-.16l-5.75-3.46a1.115 1.115 0 1 1 1.15-1.91l5.75 3.45a1.11 1.11 0 0 1 .38 1.53 1.12 1.12 0 0 1-.92.54zm-11.48-6.91a1.1 1.1 0 0 1-.58-.16l-5.7-3.49a1.115 1.115 0 1 1 1.15-1.91l5.74 3.45a1.12 1.12 0 0 1-.57 2.08zm140.17-3.45a1.1 1.1 0 0 1-.47-.1 1.13 1.13 0 0 1-.54-1.49l2.59-6.09a1.121 1.121 0 0 1 2.09.81l-2.65 6.22a1.13 1.13 0 0 1-.98.64zm-151.66-3.46a1.1 1.1 0 0 1-.57-.16l-5.75-3.45a1.14 1.14 0 0 1-.38-1.54 1.12 1.12 0 0 1 1.53-.38l5.75 3.46a1.11 1.11 0 0 1-.58 2.07zm-11.48-6.91a1.1 1.1 0 0 1-.58-.16l-5.74-3.45a1.11 1.11 0 0 1-.38-1.53 1.12 1.12 0 0 1 1.53-.39l5.74 3.46a1.11 1.11 0 0 1-.57 2.07zm168-2.12a1.32 1.32 0 0 1-.33-.05 1.11 1.11 0 0 1-.73-1.4l1.76-6.39a1.13 1.13 0 0 1 1.35-.82 1.11 1.11 0 0 1 .82 1.35l-1.8 6.52a1.12 1.12 0 0 1-1.07.78zm-179.45-4.79a1.1 1.1 0 0 1-.57-.16l-5.75-3.45a1.13 1.13 0 0 1-.38-1.53 1.11 1.11 0 0 1 1.53-.38l5.75 3.45a1.11 1.11 0 0 1-.58 2.07zM308.21 382a1.21 1.21 0 0 1-.58-.16l-5.74-3.46a1.115 1.115 0 1 1 1.15-1.91l5.74 3.45a1.12 1.12 0 0 1 .39 1.53 1.14 1.14 0 0 1-.96.55zm194.1-1.32a.71.71 0 0 1-.2 0 1.12 1.12 0 0 1-.9-1.3l1-6.56a1.12 1.12 0 0 1 2.22.29l-1 6.68a1.12 1.12 0 0 1-1.12.9zm-205.59-5.58a1.1 1.1 0 0 1-.57-.16l-5.75-3.46a1.115 1.115 0 1 1 1.15-1.91l5.75 3.43a1.12 1.12 0 0 1-.58 2.08zm-11.48-6.91a1.1 1.1 0 0 1-.58-.16l-5.74-3.45a1.12 1.12 0 0 1 1.15-1.92l5.74 3.46a1.11 1.11 0 0 1-.57 2.07zm218.83-.77H504a1.12 1.12 0 0 1-1-1.13l-5.2-3a1.12 1.12 0 1 1 1.12-1.94l5.8 3.34a1.13 1.13 0 0 1 .56 1.06l-.05.64a1.12 1.12 0 0 1-1.16 1.03zm-230.32-6.14a1.1 1.1 0 0 1-.57-.16l-5.75-3.45a1.12 1.12 0 0 1-.38-1.53 1.13 1.13 0 0 1 1.54-.39l5.74 3.46a1.11 1.11 0 0 1-.58 2.07zm218.75-1.18a1.08 1.08 0 0 1-.5-.1l-5.81-3.34a1.12 1.12 0 1 1 1.11-1.94l5.81 3.34a1.12 1.12 0 0 1-.56 2.09zm-221.76-6.51a1.11 1.11 0 0 1-.75-1.94l4.89-4.54a1.12 1.12 0 1 1 1.54 1.62l-4.93 4.58a1.13 1.13 0 0 1-.75.28zm210.15-.18a1.12 1.12 0 0 1-.56-.15l-5.81-3.34a1.12 1.12 0 0 1 1.12-1.94l5.8 3.35a1.11 1.11 0 0 1-.55 2.08zm-11.62-6.69a1 1 0 0 1-.55-.15l-5.81-3.34a1.11 1.11 0 0 1 1.09-1.93l5.81 3.34a1.11 1.11 0 0 1-.56 2.08zm-188.84-2.38a1.12 1.12 0 0 1-.79-1.91l4.6-4.81a1.12 1.12 0 0 1 1.64 1.52q-2.25 2.43-4.66 4.87a1.09 1.09 0 0 1-.79.33zM457.66 340a1.12 1.12 0 0 1-.56-.15l-5.81-3.34a1.12 1.12 0 1 1 1.12-1.94l5.8 3.34a1.11 1.11 0 0 1 .41 1.53 1.1 1.1 0 0 1-.96.56zm-168.14-5.5a1.12 1.12 0 0 1-.85-1.85q2.2-2.55 4.25-5.12a1.12 1.12 0 0 1 1.75 1.39q-2.07 2.59-4.31 5.19a1.1 1.1 0 0 1-.84.39zM446 333.35a1.15 1.15 0 0 1-.56-.15l-5.8-3.34a1.12 1.12 0 0 1 1.11-1.94l5.81 3.34a1.12 1.12 0 0 1-.56 2.09zm-11.61-6.69a1.15 1.15 0 0 1-.56-.15l-5.81-3.34a1.12 1.12 0 0 1-.41-1.53 1.13 1.13 0 0 1 1.53-.41l5.81 3.35a1.11 1.11 0 0 1-.56 2.08zM297.87 324a1.09 1.09 0 0 1-.66-.22 1.11 1.11 0 0 1-.24-1.56l3.82-5.44a1.12 1.12 0 0 1 1.86 1.24q-1.86 2.76-3.88 5.52a1.12 1.12 0 0 1-.9.46zm124.94-4a1 1 0 0 1-.56-.15l-5.8-3.34a1.12 1.12 0 0 1 1.11-1.94l5.81 3.35a1.11 1.11 0 0 1-.56 2.08zm-11.61-6.69a1.14 1.14 0 0 1-.56-.14l-5.81-3.35a1.12 1.12 0 1 1 1.12-1.93l5.81 3.34a1.11 1.11 0 0 1-.56 2.08zm-105.88-.38a1.13 1.13 0 0 1-.58-.16 1.12 1.12 0 0 1-.37-1.53l3.32-5.76a1.12 1.12 0 0 1 1.51-.45 1.13 1.13 0 0 1 .45 1.52l-3.37 5.85a1.13 1.13 0 0 1-.96.5zm94.26-6.3a1.08 1.08 0 0 1-.55-.15l-5.81-3.35a1.113 1.113 0 0 1 1.11-1.93l5.81 3.34a1.12 1.12 0 0 1-.56 2.09zm-87.84-5.46a1.06 1.06 0 0 1-.49-.11 1.11 1.11 0 0 1-.52-1.49l2.76-6.05a1.12 1.12 0 1 1 2.05.88l-2.8 6.14a1.11 1.11 0 0 1-1 .6zm76.26-1.26a1.15 1.15 0 0 1-.56-.15l-5.81-3.34a1.13 1.13 0 0 1-.41-1.53 1.11 1.11 0 0 1 1.53-.41l5.81 3.35a1.11 1.11 0 0 1-.56 2.08zm-11.61-6.69a1.12 1.12 0 0 1-.56-.15l-5.83-3.34a1.12 1.12 0 0 1 1.11-1.94l5.81 3.35a1.11 1.11 0 0 1-.55 2.08zM317 288.83a1.34 1.34 0 0 1-.39-.07 1.13 1.13 0 0 1-.66-1.44l2.17-6.28a1.12 1.12 0 0 1 1.4-.73 1.13 1.13 0 0 1 .73 1.41l-2.2 6.38a1.13 1.13 0 0 1-1.05.73zm47.74-2.3a1.14 1.14 0 0 1-.56-.14l-5.8-3.35a1.113 1.113 0 1 1 1.11-1.93l5.81 3.34a1.11 1.11 0 0 1-.56 2.08zm-11.61-6.68a1.12 1.12 0 0 1-.56-.15l-5.81-3.35a1.12 1.12 0 1 1 1.12-1.93l5.81 3.34a1.12 1.12 0 0 1-.56 2.09zm-32.05-3.78a1 1 0 0 1-.29 0 1.11 1.11 0 0 1-.79-1.37l1.6-6.46a1.12 1.12 0 1 1 2.18.5q-.75 3.3-1.62 6.54a1.13 1.13 0 0 1-1.08.79zm20.43-2.91a1.15 1.15 0 0 1-.51-.16l-5.8-3.35a1.113 1.113 0 1 1 1.11-1.93l5.81 3.34a1.12 1.12 0 0 1-.56 2.09zm-11.61-6.69a1.15 1.15 0 0 1-.56-.15l-5.81-3.32a1.12 1.12 0 0 1 1.12-1.94l5.81 3.35a1.11 1.11 0 0 1-.56 2.08zM186 465.52a1.12 1.12 0 0 1-.56-.15l-5.8-3.35a1.12 1.12 0 1 1 1.12-1.93l5.24 3 2.68-1.55a1.12 1.12 0 0 1 1.12 1.94l-3.24 1.87a1.12 1.12 0 0 1-.56.17zm9.05-5.22a1.12 1.12 0 0 1-.56-2.09l5.8-3.35a1.12 1.12 0 1 1 1.12 1.94l-5.8 3.35a1.15 1.15 0 0 1-.52.15zm-20.66-1.48a1.15 1.15 0 0 1-.56-.15l-5.8-3.35a1.12 1.12 0 1 1 1.12-1.94l5.8 3.35a1.12 1.12 0 0 1-.56 2.09zm32.26-5.22a1.1 1.1 0 0 1-1-.56 1.12 1.12 0 0 1 .4-1.53l5.81-3.35a1.12 1.12 0 0 1 1.12 1.93l-5.81 3.36a1.15 1.15 0 0 1-.48.15zm-43.87-1.48a1.11 1.11 0 0 1-.55-.15l-5.81-3.35a1.12 1.12 0 0 1 1.12-1.94l5.8 3.35a1.12 1.12 0 0 1-.56 2.09zm55.48-5.23a1.14 1.14 0 0 1-1-.55 1.12 1.12 0 0 1 .41-1.53l5.81-3.35a1.113 1.113 0 0 1 1.11 1.93l-5.8 3.35a1 1 0 0 1-.49.15zm-67.08-1.47a1.15 1.15 0 0 1-.56-.15l-5.8-3.36A1.123 1.123 0 0 1 146 440l5.81 3.35a1.12 1.12 0 0 1-.56 2.09zm78.69-5.23a1.13 1.13 0 0 1-1-.55 1.11 1.11 0 0 1 .41-1.53l5.8-3.35a1.12 1.12 0 1 1 1.12 1.93l-5.8 3.35a1 1 0 0 1-.49.15zm-90.3-1.48a1 1 0 0 1-.56-.15l-3.87-2.23a1.12 1.12 0 0 1-.55-1 1.11 1.11 0 0 1 .55-1l1.94-1.12a1.12 1.12 0 0 1 1.12 1.93l-.26.15 2.19 1.27a1.11 1.11 0 0 1 .41 1.53 1.13 1.13 0 0 1-.93.62zm90.92-5.22a1.15 1.15 0 0 1-.56-.15l-5.8-3.35a1.12 1.12 0 1 1 1.12-1.93l5.8 3.35a1.11 1.11 0 0 1-.56 2.08zM143.48 432a1.13 1.13 0 0 1-1-.56 1.11 1.11 0 0 1 .41-1.52l5.81-3.35a1.113 1.113 0 1 1 1.11 1.93l-5.8 3.35a1 1 0 0 1-.53.15zm75.45-5.22a1.12 1.12 0 0 1-.56-.15l-5.81-3.35a1.12 1.12 0 0 1 1.12-1.93l5.8 3.35a1.11 1.11 0 0 1-.55 2.08zm-63.84-1.48a1.11 1.11 0 0 1-.56-2.08l5.8-3.35a1.12 1.12 0 1 1 1.12 1.93l-5.8 3.35a1.15 1.15 0 0 1-.56.16zm52.23-5.22a1.15 1.15 0 0 1-.56-.15l-5.8-3.35a1.113 1.113 0 1 1 1.11-1.93l5.81 3.35a1.11 1.11 0 0 1-.56 2.08zm-40.63-1.48a1.11 1.11 0 0 1-.55-2.08l5.8-3.35a1.12 1.12 0 1 1 1.12 1.93l-5.81 3.35a1.12 1.12 0 0 1-.56.16zm29-5.22a1.15 1.15 0 0 1-.56-.15l-5.8-3.35a1.12 1.12 0 0 1-.41-1.53 1.13 1.13 0 0 1 1.53-.41l5.8 3.36a1.11 1.11 0 0 1-.56 2.08zm-17.41-1.48a1.12 1.12 0 0 1-.56-2.08l5.81-3.35a1.1 1.1 0 0 1 1.52.4 1.11 1.11 0 0 1-.41 1.53l-5.8 3.35a1.15 1.15 0 0 1-.54.16z"/><path d="M260.65 567.53a1.06 1.06 0 0 1-.56-.16l-5.81-3.37a1.12 1.12 0 0 1 1.12-1.93l5.81 3.35a1.12 1.12 0 0 1-.56 2.09zm5.2-3a1.11 1.11 0 0 1-.56-2.08l5.82-3.33a1.12 1.12 0 0 1 1.11 1.94l-5.82 3.33a1.07 1.07 0 0 1-.55.16zm-16.85-3.7a1.15 1.15 0 0 1-.56-.15l-5.8-3.35a1.12 1.12 0 0 1 1.11-1.94l5.81 3.35a1.12 1.12 0 0 1-.56 2.09zm28.45-2.93a1.13 1.13 0 0 1-1-.56 1.12 1.12 0 0 1 .42-1.52l5.82-3.33a1.12 1.12 0 0 1 1.11 1.94l-5.8 3.33a1.12 1.12 0 0 1-.51.14zm-40.06-3.78a1 1 0 0 1-.56-.15l-5.8-3.35a1.11 1.11 0 0 1-.41-1.52 1.12 1.12 0 0 1 1.53-.41L238 552a1.11 1.11 0 0 1 .41 1.53 1.13 1.13 0 0 1-.98.59zm51.69-2.87a1.11 1.11 0 0 1-.55-2.08l5.81-3.33a1.13 1.13 0 0 1 1.53.42 1.12 1.12 0 0 1-.42 1.52l-5.82 3.33a1.07 1.07 0 0 1-.51.14zm-63.29-3.82a1.12 1.12 0 0 1-.56-.15l-5.81-3.36a1.11 1.11 0 0 1-.41-1.52 1.13 1.13 0 0 1 1.53-.41l5.8 3.35a1.11 1.11 0 0 1 .41 1.53 1.1 1.1 0 0 1-.92.56zm72.89-2.83a1.15 1.15 0 0 1-.56-.15l-5.8-3.35a1.113 1.113 0 1 1 1.11-1.93l5.81 3.35a1.11 1.11 0 0 1 .41 1.52 1.13 1.13 0 0 1-.93.56zm-84.5-3.88a1 1 0 0 1-.56-.15l-5.8-3.35a1.113 1.113 0 1 1 1.11-1.93l5.8 3.35a1.11 1.11 0 0 1-.55 2.08zm72.89-2.82a1.15 1.15 0 0 1-.56-.15l-5.8-3.35a1.12 1.12 0 1 1 1.12-1.93l5.8 3.35a1.11 1.11 0 0 1-.56 2.08zm-84.46-3.9a1.15 1.15 0 0 1-.56-.15l-5.8-3.36a1.113 1.113 0 1 1 1.11-1.93l5.81 3.35a1.12 1.12 0 0 1-.56 2.09zm72.89-2.83a1.08 1.08 0 0 1-.55-.15l-5.81-3.35a1.12 1.12 0 0 1 1.12-1.93l5.8 3.35a1.11 1.11 0 0 1-.56 2.08zm-84.5-3.85a1 1 0 0 1-.56-.15l-5.8-3.35a1.1 1.1 0 0 1-.41-1.52 1.11 1.11 0 0 1 1.53-.41l5.8 3.35a1.11 1.11 0 0 1-.56 2.08zm72.9-2.82a1.15 1.15 0 0 1-.56-.15l-5.81-3.35a1.12 1.12 0 0 1 1.12-1.93l5.81 3.35a1.12 1.12 0 0 1-.56 2.08zm-84.51-3.87a1 1 0 0 1-.55-.16l-5.84-3.35a1.11 1.11 0 0 1-.41-1.52 1.13 1.13 0 0 1 1.53-.41l5.8 3.35a1.12 1.12 0 0 1-.56 2.09zm72.9-2.83a1.15 1.15 0 0 1-.56-.15l-5.8-3.35a1.113 1.113 0 1 1 1.11-1.93l5.81 3.35a1.11 1.11 0 0 1 .41 1.52 1.13 1.13 0 0 1-.97.56zm-84.5-3.88a1 1 0 0 1-.56-.15l-5.81-3.35a1.12 1.12 0 0 1 1.12-1.93l5.81 3.35a1.12 1.12 0 0 1-.56 2.08zm72.89-2.82a1.15 1.15 0 0 1-.56-.15l-5.8-3.35a1.12 1.12 0 1 1 1.12-1.93l5.8 3.35a1.1 1.1 0 0 1 .41 1.52 1.12 1.12 0 0 1-.97.56zm-84.5-3.87a1.06 1.06 0 0 1-.56-.16l-5.8-3.35a1.113 1.113 0 0 1 1.11-1.93l5.81 3.35a1.12 1.12 0 0 1 .41 1.53 1.15 1.15 0 0 1-.97.56zm72.9-2.83a1.12 1.12 0 0 1-.56-.15l-5.81-3.35a1.12 1.12 0 1 1 1.12-1.93l5.8 3.35a1.11 1.11 0 0 1-.55 2.08zm-84.51-3.88a1 1 0 0 1-.56-.15l-5.8-3.35a1.12 1.12 0 1 1 1.12-1.93l5.8 3.35a1.11 1.11 0 0 1-.56 2.08zm72.9-2.82a1.12 1.12 0 0 1-.56-.15l-5.8-3.35a1.113 1.113 0 1 1 1.11-1.93l5.8 3.35a1.11 1.11 0 0 1-.55 2.08zM133 493.82a1 1 0 0 1-.55-.15l-5.81-3.35a1.12 1.12 0 0 1 1.12-1.93l5.8 3.35a1.11 1.11 0 0 1-.56 2.08zm72.9-2.82a1.15 1.15 0 0 1-.56-.15l-5.8-3.35a1.12 1.12 0 1 1 1.12-1.93l5.8 3.35a1.11 1.11 0 0 1 .41 1.52 1.13 1.13 0 0 1-1.01.56zm-84.5-3.88a1 1 0 0 1-.56-.15l-5.8-3.35a1.113 1.113 0 1 1 1.11-1.93l5.81 3.35a1.12 1.12 0 0 1-.56 2.08zm72.89-2.82a1.15 1.15 0 0 1-.56-.15l-5.8-3.35a1.12 1.12 0 1 1 1.12-1.93l5.8 3.35a1.1 1.1 0 0 1 .41 1.52 1.12 1.12 0 0 1-1.01.56zm-84.5-3.88a1 1 0 0 1-.56-.15l-5.8-3.35a1.11 1.11 0 1 1 1.07-1.92l5.81 3.35a1.12 1.12 0 0 1 .41 1.53 1.14 1.14 0 0 1-.97.54zm72.9-2.82a1.12 1.12 0 0 1-.56-.15l-5.81-3.35a1.12 1.12 0 1 1 1.12-1.93l5.8 3.35a1.11 1.11 0 0 1-.55 2.08zm-84.51-3.88a1 1 0 0 1-.56-.15l-5.8-3.35a1.12 1.12 0 1 1 1.12-1.93l5.8 3.35a1.11 1.11 0 0 1 .41 1.53 1.13 1.13 0 0 1-1.01.55zM171 470.9a1.15 1.15 0 0 1-.56-.15l-5.81-3.35a1.12 1.12 0 1 1 1.12-1.93l5.81 3.35a1.12 1.12 0 0 1-.56 2.08zM86.54 467a1 1 0 0 1-.56-.15l-1.33-.76a1.12 1.12 0 0 1 0-1.94l4.48-2.56a1.12 1.12 0 1 1 1.11 1.94l-2.86 1.63a1.13 1.13 0 0 1 .11 1.29 1.11 1.11 0 0 1-.95.55zm72.89-2.82a1.15 1.15 0 0 1-.56-.15l-5.8-3.35a1.113 1.113 0 1 1 1.11-1.93l5.81 3.35a1.11 1.11 0 0 1 .41 1.52 1.13 1.13 0 0 1-.97.58zm-63.91-3.83a1.1 1.1 0 0 1-1-.56 1.12 1.12 0 0 1 .41-1.53l5.82-3.32a1.12 1.12 0 1 1 1.11 1.94l-5.82 3.32a1.08 1.08 0 0 1-.52.17zm52.3-2.87a1.15 1.15 0 0 1-.56-.15l-5.8-3.35a1.12 1.12 0 1 1 1.12-1.93l5.8 3.35a1.11 1.11 0 0 1-.56 2.08zm-40.67-3.78a1.1 1.1 0 0 1-1-.56 1.11 1.11 0 0 1 .41-1.53l5.82-3.32a1.12 1.12 0 0 1 1.11 1.94l-5.82 3.32a1.15 1.15 0 0 1-.52.17zm29.06-2.92a1.08 1.08 0 0 1-.55-.15l-5.81-3.35a1.12 1.12 0 0 1-.4-1.53 1.11 1.11 0 0 1 1.52-.4l5.8 3.35a1.11 1.11 0 0 1-.56 2.08zm-17.42-3.73a1.12 1.12 0 0 1-.55-2.09l5.51-3.15a1.13 1.13 0 0 1 1.11 0l.3.17a1.13 1.13 0 0 1 .42 1.53 1.16 1.16 0 0 1-1.24.53l-5 2.85a1.08 1.08 0 0 1-.55.18zm130.91 55.7a1.12 1.12 0 0 1-.56-.15l-5.8-3.35a1.12 1.12 0 0 1-.41-1.53 1.13 1.13 0 0 1 1.53-.41l5.24 3 2.69-1.55a1.113 1.113 0 1 1 1.11 1.93l-3.24 1.88a1.12 1.12 0 0 1-.56.18zm9.05-5.23a1.14 1.14 0 0 1-1-.55 1.12 1.12 0 0 1 .41-1.53l5.8-3.35a1.12 1.12 0 1 1 1.12 1.93l-5.8 3.35a1 1 0 0 1-.53.15zm-20.66-1.47a1.08 1.08 0 0 1-.55-.15l-5.81-3.36a1.11 1.11 0 0 1-.41-1.52 1.13 1.13 0 0 1 1.53-.41l5.8 3.35a1.11 1.11 0 0 1 .41 1.53 1.14 1.14 0 0 1-.97.56zm32.26-5.23a1.11 1.11 0 0 1-.55-2.08l5.8-3.35a1.12 1.12 0 1 1 1.12 1.93l-5.81 3.35a1 1 0 0 1-.56.15zm-43.86-1.48a1 1 0 0 1-.56-.15l-5.8-3.35a1.113 1.113 0 1 1 1.11-1.93l5.8 3.35a1.11 1.11 0 0 1-.55 2.08zm55.51-5.22a1.11 1.11 0 0 1-.56-2.08l5.81-3.35a1.113 1.113 0 1 1 1.11 1.93l-5.8 3.35a1.15 1.15 0 0 1-.56.15zm-67.08-1.48a1 1 0 0 1-.56-.15l-5.8-3.35a1.11 1.11 0 0 1-.41-1.52 1.13 1.13 0 0 1 1.53-.41l5.8 3.35a1.11 1.11 0 0 1 .41 1.52 1.13 1.13 0 0 1-1.01.56zm78.69-5.22a1.11 1.11 0 0 1-.56-2.08l5.8-3.35a1.12 1.12 0 1 1 1.12 1.93l-5.8 3.35a1.15 1.15 0 0 1-.6.15zm-90.3-1.48a1.08 1.08 0 0 1-.55-.15l-3.87-2.23a1.11 1.11 0 0 1-.56-1 1.09 1.09 0 0 1 .56-1l1.93-1.12a1.12 1.12 0 1 1 1.12 1.93l-.26.15 2.19 1.27a1.11 1.11 0 0 1-.56 2.08zm90.92-5.22a1.08 1.08 0 0 1-.55-.15l-5.81-3.35a1.12 1.12 0 1 1 1.12-1.93l5.8 3.35a1.11 1.11 0 0 1-.56 2.08zm-87.05-1.48a1.12 1.12 0 0 1-.56-2.08l5.81-3.35a1.1 1.1 0 0 1 1.52.4 1.12 1.12 0 0 1-.4 1.53l-5.81 3.35a1.15 1.15 0 0 1-.6.15zm75.41-5.24a1.15 1.15 0 0 1-.56-.15l-5.8-3.35a1.12 1.12 0 0 1 1.11-1.94l5.81 3.36a1.12 1.12 0 0 1-.56 2.08zm-63.84-1.48a1.13 1.13 0 0 1-1-.56 1.11 1.11 0 0 1 .41-1.52l5.81-3.35a1.1 1.1 0 0 1 1.52.4 1.11 1.11 0 0 1-.41 1.53l-5.8 3.35a1.15 1.15 0 0 1-.53.17zm52.25-5.2a1.15 1.15 0 0 1-.56-.15l-5.8-3.35a1.12 1.12 0 1 1 1.12-1.94l5.8 3.35a1.12 1.12 0 0 1-.56 2.09zm-40.62-1.48a1.11 1.11 0 0 1-.56-2.08l5.8-3.36a1.12 1.12 0 0 1 1.12 1.94l-5.81 3.35a1.08 1.08 0 0 1-.57.15zm29-5.22a1.15 1.15 0 0 1-.56-.15l-5.8-3.35a1.12 1.12 0 0 1 1.12-1.94l5.8 3.35a1.12 1.12 0 0 1-.56 2.09zM242 449.14a1.1 1.1 0 0 1-1-.56 1.12 1.12 0 0 1 .4-1.53l5.81-3.35a1.12 1.12 0 0 1 1.11 1.94l-5.8 3.35a1.12 1.12 0 0 1-.52.15zm69.5 89.35a1.15 1.15 0 0 1-.56-.15l-5.8-3.35a1.12 1.12 0 0 1 1.12-1.94l5.24 3 2.68-1.55a1.12 1.12 0 0 1 1.53.41 1.1 1.1 0 0 1-.41 1.52l-3.24 1.88a1.12 1.12 0 0 1-.56.18zm9.05-5.23a1.11 1.11 0 0 1-.56-2.08l5.8-3.35a1.12 1.12 0 0 1 1.12 1.93l-5.81 3.35a1 1 0 0 1-.55.15zm-20.66-1.47a1 1 0 0 1-.55-.16l-5.81-3.35a1.12 1.12 0 0 1 1.12-1.93l5.8 3.35a1.12 1.12 0 0 1-.56 2.09zm32.26-5.23a1.12 1.12 0 0 1-.56-2.08l5.81-3.35a1.113 1.113 0 0 1 1.11 1.93l-5.8 3.35a1 1 0 0 1-.56.15zm-43.86-1.48a1 1 0 0 1-.56-.15l-5.8-3.35a1.113 1.113 0 1 1 1.11-1.93l5.81 3.35a1.12 1.12 0 0 1-.56 2.08zm55.47-5.22a1.13 1.13 0 0 1-1-.56 1.11 1.11 0 0 1 .41-1.52l5.8-3.35a1.12 1.12 0 1 1 1.12 1.93l-5.8 3.35a1.15 1.15 0 0 1-.53.15zm-67.08-1.48a1 1 0 0 1-.56-.15l-5.8-3.35a1.12 1.12 0 1 1 1.12-1.93l5.8 3.35a1.11 1.11 0 0 1 .41 1.52 1.13 1.13 0 0 1-.97.56zm78.69-5.22a1.11 1.11 0 0 1-.56-2.08l5.8-3.35a1.12 1.12 0 1 1 1.12 1.93l-5.8 3.35a1.15 1.15 0 0 1-.56.15zm-90.29-1.48a1.12 1.12 0 0 1-.56-.15l-3.87-2.23a1.12 1.12 0 0 1 0-1.94l1.93-1.11a1.12 1.12 0 1 1 1.12 1.93l-.26.15 2.19 1.27a1.11 1.11 0 0 1-.55 2.08zm90.92-5.22a1.12 1.12 0 0 1-.56-.15l-5.81-3.31a1.12 1.12 0 1 1 1.12-1.93l5.8 3.35a1.11 1.11 0 0 1-.55 2.08zM268.94 505a1.12 1.12 0 0 1-.56-2.08l5.81-3.35a1.1 1.1 0 0 1 1.52.4 1.12 1.12 0 0 1-.4 1.53l-5.81 3.35a1.15 1.15 0 0 1-.56.15zm75.45-5.22a1.15 1.15 0 0 1-.56-.15l-5.83-3.37a1.12 1.12 0 0 1 1.12-1.94l5.81 3.36a1.12 1.12 0 0 1-.56 2.08zm-63.84-1.48a1.13 1.13 0 0 1-1-.56 1.11 1.11 0 0 1 .41-1.52l5.81-3.35a1.113 1.113 0 1 1 1.11 1.93l-5.8 3.35a1.15 1.15 0 0 1-.53.13zm52.23-5.22a1.15 1.15 0 0 1-.56-.15l-5.8-3.35a1.12 1.12 0 1 1 1.12-1.94l5.8 3.35a1.12 1.12 0 0 1-.56 2.09zm-40.62-1.48a1.12 1.12 0 0 1-1-.56 1.1 1.1 0 0 1 .41-1.52l5.8-3.36a1.12 1.12 0 1 1 1.12 1.94l-5.8 3.35a1.15 1.15 0 0 1-.53.13zm29-5.22a1.08 1.08 0 0 1-.55-.15l-5.81-3.36a1.12 1.12 0 1 1 1.12-1.93l5.8 3.35a1.12 1.12 0 0 1-.56 2.09zm-17.41-1.48a1.1 1.1 0 0 1-1-.56 1.11 1.11 0 0 1 .41-1.53l5.8-3.35a1.12 1.12 0 0 1 1.12 1.94l-5.81 3.35a1.12 1.12 0 0 1-.51.13z"/></g><path d="M368.87,370l30.83,3.73-14.3-28.59A134.76,134.76,0,0,1,368.87,370Z" fill="#e6e6e6"/><path d="M286.48,448.27l5.61-3.24-11.3-6.52-5.61,3.24Zm47.09,6.82-63.34-36.57-5.61,3.24L328,458.33Zm-21.83-20,5.62-3.24L297.18,420.2l-5.61,3.24Zm31-2.5-45.39-26.2-5.61,3.24,45.38,26.2ZM225,412.75,270.34,439l5.61-3.24-45.38-26.2Zm16.39-18.31,45.39,26.2,5.61-3.24L247,391.2ZM377.75,480.6l-39.34-22.71-5.61,3.24,39.33,22.71ZM400.31,452,337,415.39l-5.61,3.24L394.7,455.2ZM332.13,412.6l-45.38-26.21-5.62,3.24,45.39,26.21Zm15.41,22.78-5.61,3.24,11.29,6.52,5.62-3.24Zm-.38,41.45-50.23-29-5.61,3.24,50.23,29Zm-30.58-38.95L354.91,460l5.61-3.25L322.2,434.64Zm43.17,24.92,41,23.68,5.61-3.24-41-23.68ZM377,486.63l11.77,6.8,5.61-3.24-11.76-6.8ZM225.72,406.71l-20.1-11.6L200,398.35,220.11,410Zm179.44,48.05L399.54,458l25.28,14.59,5.62-3.24Zm8.75,18.94-50.23-29-5.62,3.24,50.23,29Zm-132-90.1-28.17-16.27-5.61,3.24,28.17,16.27Zm-16.51,32.13-47.74-27.57L212,391.4,259.78,419ZM242.11,388.4l-12.43-7.18-5.62,3.24,12.44,7.18Zm50.36,15.18L241.7,374.27l-5.61,3.25,50.77,29.31Z" class="n"/><path d="M235.24 598a1.12 1.12 0 0 1-.56-.15l-1.9-1.12a1.11 1.11 0 1 1 1.12-1.92l1.35.78a51.91 51.91 0 0 0 5-3.22 1.12 1.12 0 1 1 1.32 1.8 57.47 57.47 0 0 1-5.75 3.69 1.18 1.18 0 0 1-.58.14zm-7.69-4.49a1.12 1.12 0 0 1-.56-.15L221.2 590a1.12 1.12 0 0 1 1.13-1.93l5.78 3.38a1.11 1.11 0 0 1 .41 1.53 1.14 1.14 0 0 1-.97.51zm18.34-3.55a1.16 1.16 0 0 1-.75-.29 1.12 1.12 0 0 1-.07-1.58c1.42-1.57 2.9-3.47 4.15-5.13a1.12 1.12 0 1 1 1.78 1.35l-4.28 5.28a1.09 1.09 0 0 1-.83.35zM216 586.73a1.15 1.15 0 0 1-.56-.15l-5.79-3.38a1.12 1.12 0 0 1 1.13-1.93l5.79 3.38a1.12 1.12 0 0 1-.57 2.08zM204.4 580a1 1 0 0 1-.56-.16l-5.79-3.37a1.12 1.12 0 1 1 1.13-1.93l5.82 3.36a1.12 1.12 0 0 1-.56 2.08zm49.65-.6a1.08 1.08 0 0 1-.55-.15l-5.82-3.32a1.12 1.12 0 0 1-.42-1.52 1.13 1.13 0 0 1 1.53-.42l5.82 3.32a1.12 1.12 0 0 1 .41 1.53 1.1 1.1 0 0 1-.97.54zm-61.22-6.16a1.16 1.16 0 0 1-.57-.15l-5.78-3.38a1.12 1.12 0 1 1 1.12-1.93l5.79 3.38a1.12 1.12 0 0 1-.56 2.08zm49.58-.48a1.08 1.08 0 0 1-.55-.15l-5.86-3.34a1.12 1.12 0 1 1 1.11-1.94l5.82 3.32a1.12 1.12 0 0 1 .41 1.53 1.1 1.1 0 0 1-.93.56zm-61.16-6.27a1.06 1.06 0 0 1-.56-.16l-5.79-3.38A1.11 1.11 0 1 1 176 561l5.78 3.37a1.12 1.12 0 0 1-.56 2.09zm49.52-.37a1.08 1.08 0 0 1-.55-.15l-5.82-3.32a1.12 1.12 0 1 1 1.1-1.94l5.83 3.32a1.12 1.12 0 0 1-.56 2.09zm-61.09-6.39a1.07 1.07 0 0 1-.57-.16l-5.78-3.37a1.12 1.12 0 0 1 1.12-1.93l5.79 3.38a1.12 1.12 0 0 1-.56 2.08zm49.45-.26a1.07 1.07 0 0 1-.55-.14l-5.82-3.33a1.12 1.12 0 0 1 1.1-2l5.82 3.33a1.1 1.1 0 0 1 .42 1.52 1.12 1.12 0 0 1-.97.6zm-61-6.5a1.12 1.12 0 0 1-.56-.15l-5.79-3.38a1.12 1.12 0 1 1 1.13-1.93l5.78 3.38a1.12 1.12 0 0 1-.56 2.08zm49.39-.14a1.18 1.18 0 0 1-.55-.14l-5.82-3.33a1.1 1.1 0 0 1-.42-1.52 1.13 1.13 0 0 1 1.53-.42l5.81 3.32a1.12 1.12 0 0 1-.55 2.09zm-61-6.61a1.07 1.07 0 0 1-.52-.22l-5.14-3a1.12 1.12 0 0 1 0-1.92l.64-.38a1.12 1.12 0 0 1 1.53.38 1.05 1.05 0 0 1 .15.69l4 2.3a1.12 1.12 0 0 1-.56 2.09zm49.32 0a1.15 1.15 0 0 1-.56-.15l-5.82-3.32a1.12 1.12 0 0 1 1.11-1.94l5.82 3.32a1.12 1.12 0 0 1-.55 2.09zm-11.64-6.64a1.15 1.15 0 0 1-.56-.15l-5.82-3.32a1.12 1.12 0 0 1 1.11-1.94l5.82 3.32a1.11 1.11 0 0 1 .42 1.52 1.13 1.13 0 0 1-.96.52zm-36.68-.58a1.14 1.14 0 0 1-.87-.42 1.1 1.1 0 0 1 .18-1.57l.93-.77a32.15 32.15 0 0 0 3.65-3.79 1.11 1.11 0 0 1 1.57-.15 1.13 1.13 0 0 1 .14 1.58 33.6 33.6 0 0 1-3.91 4.06q-.5.42-1 .81a1.09 1.09 0 0 1-.69.25zm25-6.11a1.07 1.07 0 0 1-.55-.14l-5.83-3.32a1.12 1.12 0 0 1 1.11-1.94l5.82 3.32a1.11 1.11 0 0 1-.55 2.08zM156.37 529a1.16 1.16 0 0 1-.67-.21 1.13 1.13 0 0 1-.24-1.56l.68-.91 2.13-2.85a1.12 1.12 0 0 1 1.44-.29l1.77 1a1.11 1.11 0 0 1 .42 1.52 1.14 1.14 0 0 1-1.53.42l-.91-.52-1.46 1.95-.73 1a1.11 1.11 0 0 1-.9.45z" class="r"/><image class="h" width="314" height="378" transform="translate(72.28 137.85)" opacity=".25"/><path d="M99.69 164.22l4.43-3.52a2.26 2.26 0 0 1 3.19.36l12.31 15.49-6.21 4.93-6.2 4.94-12.32-15.49a2.27 2.27 0 0 1 .36-3.19z" fill="#45aa92"/><path d="M113.41,181.48l11.21-8.91,1.95-1.54a.89.89,0,0,1,1-.08l13.73,7.79a1,1,0,0,1,.26.23l75.87,95.4a.91.91,0,0,1-.15,1.27l-3.84,3.05a.9.9,0,0,1-.67.19l-5.91-.67a.92.92,0,0,1-.61-.34l-3.45-4.33a1,1,0,0,1-.19-.67l.67-5.85a.89.89,0,0,0-.19-.66L139,185.72a.91.91,0,0,0-1.27-.15l-1,.78a.9.9,0,0,0-.14,1.27l6.62,8.32a.9.9,0,0,1-.15,1.27l-10.5,8.35-10.5,8.35a.91.91,0,0,1-1.27-.14l-18-22.67a.91.91,0,0,1,.15-1.27Z" fill="#56d4b7"/><path d="M132.56 205.56l9.92-7.88 185.76 233.58-9.92 7.89-9.92 7.89-185.76-233.59 9.92-7.89z" class="p"/><path d="M318.32,439.15l9.92-7.89,20.34,40a.89.89,0,0,1-.24,1.1l-2.2,1.74-2.2,1.75a.87.87,0,0,1-1.11,0L308.4,447Z" fill="#607385"/><path d="M344.4 475.52l3.28 4.12.76-.6 2.41 3.03.54-.43 1.44 1.82.81.09.09-.8-1.44-1.82.52-.42-2.41-3.03.76-.6-3.28-4.13-3.48 2.77z" fill="#1a2e35"/><path d="M273.23 362.09l-19.84 15.78m29.09-4.16l-19.84 15.78m29.08-4.15l-19.84 15.77m29.08-4.15l-19.83 15.78m29.08-4.16l-19.84 15.78" fill="none" stroke="#1a2e35" stroke-miterlimit="10" stroke-width="1.92"/><path d="M348.435 479.073l1.965-1.562 2.365 2.974-1.965 1.562z" fill="#607385"/></g></svg>