<svg xmlns="http://www.w3.org/2000/svg" xmlns:xlink="http://www.w3.org/1999/xlink" viewBox="0 0 780.24 526.07" xmlns:v="https://vecta.io/nano"><style><![CDATA[.A{isolation:isolate}.Z,.g,.i{mix-blend-mode:multiply}.c,.o{mix-blend-mode:color-dodge}.h,.j{mix-blend-mode:screen}]]></style><defs><linearGradient id="A" x1="51.72" y1="304.05" x2="740.86" y2="304.05" xlink:href="#X"><stop offset=".04" stop-color="#9d9eb3"/><stop offset=".58" stop-color="#d4d1d8"/><stop offset="1" stop-color="#eeebf2"/></linearGradient><linearGradient id="B" x1="685.13" y1="-251.39" x2="354.5" y2="378.72" xlink:href="#A"/><linearGradient id="C" y1="294.27" y2="294.27" xlink:href="#A"/><linearGradient id="D" x1="685.13" y1="-261.17" x2="354.5" y2="368.95" xlink:href="#A"/><linearGradient id="E" y1="284.5" y2="284.5" xlink:href="#A"/><linearGradient id="F" x1="685.13" y1="-270.94" x2="354.5" y2="359.17" xlink:href="#A"/><linearGradient id="G" y1="274.21" y2="274.21" xlink:href="#A"/><linearGradient id="H" x1="685.13" y1="-281.23" x2="354.5" y2="348.88" xlink:href="#A"/><linearGradient id="I" y1="263.41" y2="263.41" xlink:href="#A"/><linearGradient id="J" x1="685.13" y1="-292.03" x2="354.5" y2="338.08" xlink:href="#A"/><linearGradient id="K" x1="68.65" y1="259.72" x2="108.77" y2="259.72" xlink:href="#A"/><radialGradient id="L" cx="367.05" cy="589.42" r="184.61" gradientTransform="translate(0 -195.58) scale(1 0.66)" xlink:href="#X"><stop offset="0" stop-color="#f5f6f8"/><stop offset=".14" stop-color="#f0f2f5"/><stop offset=".29" stop-color="#e3e7eb"/><stop offset=".46" stop-color="#ccd4da"/><stop offset=".62" stop-color="#adb9c3"/><stop offset=".71" stop-color="#99a9b5"/><stop offset=".76" stop-color="#a3b2bc"/><stop offset=".85" stop-color="#bfc9d1"/><stop offset=".96" stop-color="#eceff1"/><stop offset="1" stop-color="#fff"/></radialGradient><radialGradient id="M" cx="-56.28" cy="140.93" r="198.7" gradientTransform="translate(416.69 -22.44) scale(0.96)" xlink:href="#X"><stop offset=".01" stop-color="#b0fbff"/><stop offset="1" stop-color="#3456d9"/></radialGradient><radialGradient id="N" cx="-56.28" cy="140.93" r="198.7" gradientTransform="matrix(0.96,0,0,0.96,416.69,-22.44)" xlink:href="#X"><stop offset=".48" stop-color="#fff"/><stop offset="1" stop-color="#659cff"/></radialGradient><radialGradient id="O" cx="325.66" cy="136.81" r="187.46" xlink:href="#X"><stop offset="0" stop-color="#fff"/><stop offset="1"/></radialGradient><radialGradient id="P" cx="27" cy="103" r="140.03" gradientTransform="translate(416.69 -22.44) scale(0.96)" xlink:href="#O"/><radialGradient id="Q" cx="-130.78" cy="267.42" r="153.84" gradientTransform="translate(416.69 -22.44) scale(0.96)" xlink:href="#O"/><linearGradient id="R" x1="513.3" y1="242.44" x2="494.09" y2="274.35" xlink:href="#X"><stop offset="0" stop-color="#bec5d8"/><stop offset="0" stop-color="#c6ccdb"/><stop offset="0" stop-color="#e6e6e6"/><stop offset=".03" stop-color="#ebebeb"/><stop offset=".15" stop-color="#fafafa"/><stop offset=".25" stop-color="#fff"/><stop offset=".35" stop-color="#dfdfdf"/><stop offset=".45" stop-color="#c7c7c7"/><stop offset=".54" stop-color="#b8b8b8"/><stop offset=".62" stop-color="#b3b3b3"/><stop offset=".72" stop-color="#acacac"/><stop offset=".86" stop-color="#9a9a9a"/><stop offset="1" stop-color="gray"/></linearGradient><linearGradient id="S" x1="550.77" y1="271.75" x2="489.39" y2="257.99" xlink:href="#X"><stop offset="0" stop-color="#9f79c8"/><stop offset=".14" stop-color="#a580cb"/><stop offset=".33" stop-color="#b492d3"/><stop offset=".55" stop-color="#cdb0e1"/><stop offset=".58" stop-color="#d1b4e3"/><stop offset=".76" stop-color="#dbc4e9"/><stop offset="1" stop-color="#ebdef3"/></linearGradient><radialGradient id="T" cx="15143.05" cy="260" r="11.71" gradientTransform="matrix(-1, 0, 0, 1, 15657.65, 0)" xlink:href="#X"><stop offset="0" stop-color="#fff"/><stop offset=".02" stop-color="#f7f7f7"/><stop offset=".13" stop-color="#bebebe"/><stop offset=".25" stop-color="#8b8b8b"/><stop offset=".37" stop-color="#606060"/><stop offset=".49" stop-color="#3e3e3e"/><stop offset=".62" stop-color="#232323"/><stop offset=".74" stop-color="#0f0f0f"/><stop offset=".87" stop-color="#040404"/><stop offset="1"/></radialGradient><linearGradient id="U" x1="595.22" y1="341.89" x2="628.93" y2="286.67" xlink:href="#X"><stop offset="0" stop-color="#4bc5a9"/><stop offset=".07" stop-color="#4fcbae"/><stop offset=".23" stop-color="#56d4b7"/><stop offset=".57" stop-color="#4bc5a9"/><stop offset=".86" stop-color="#56d4b7"/><stop offset=".99" stop-color="#4bc5a9"/></linearGradient><linearGradient id="V" x1="681.11" y1="372.61" x2="713.96" y2="372.61" xlink:href="#U"/><path id="W" d="M363.65,46.76c-49.25,0-95.37,11-129.85,30.87-33,19.06-51.19,44-51.19,70.07,0,26.38,18.48,51.58,52,71C269.67,238.88,316.34,250,366,250c49.25,0,95.36-11,129.84-30.87,33-19.06,51.2-43.94,51.2-70.06,0-26.38-18.48-51.58-52-71C460,57.9,413.35,46.76,363.65,46.76Z"/><linearGradient id="X" gradientUnits="userSpaceOnUse"/></defs><g class="A"><g opacity=".2"><path d="M328.34 51.49c12 0 22.92 2.62 31.54 7.6l402.26 243.77c11.5 6.64 18.1 17.15 18.1 28.83 0 12.8-7.94 24.73-21.79 32.72L492.17 516.33c-10.88 6.28-24.48 9.74-38.31 9.74-12 0-22.92-2.63-31.54-7.6L20.06 274.7C8.55 268.06 2 257.55 2 245.87c0-12.8 7.94-24.73 21.79-32.73L290 61.22c10.91-6.28 24.51-9.73 38.34-9.73z" opacity="0"/><path d="M288.42,64c10.86-6.26,24.54-9.62,38.22-9.46a72.89,72.89,0,0,1,15.28,1.84,62.28,62.28,0,0,1,16,6.28l401,243c11.41,6.59,17.42,17,16.81,28.38a32.69,32.69,0,0,1-2.76,11.14c-3.17,7.39-11,15.2-19.61,20.19L491.66,514.53c-1.64,1-3.76,2.05-5.52,2.86a78.44,78.44,0,0,1-32.06,6.87c-11.79,0-22.55-2.49-31-7.37L20.82,273.12C9.39,266.53,3.4,256.08,4,244.72a32.67,32.67,0,0,1,2.47-10.45c3.09-7.66,11-15.77,20-20.91Z" opacity=".09"/><path d="M286.81 66.81c10.84-6.26 24.59-9.51 38.13-9.19a64.31 64.31 0 0 1 31 8.62l399.67 242.2c11.32 6.54 16.76 16.87 15.52 27.93a34.76 34.76 0 0 1-3.27 10.63c-3 6.57-11.92 14.84-19.7 19.33l-257 146.42a83.9 83.9 0 0 1-5.42 2.82 77.23 77.23 0 0 1-31.43 6.91c-11.57.09-22.19-2.36-30.47-7.14L21.58 271.55c-11.35-6.55-16.76-16.92-15.46-28a35.46 35.46 0 0 1 3-9.95c3-6.81 12.08-15.4 20.1-20z" opacity=".18"/><path d="M285.2,69.6c10.82-6.24,24.65-9.39,38.05-8.91a72,72,0,0,1,15.05,2.38c4.28,1.1,12.17,4.75,15.62,6.75L752.3,311.23c11.23,6.49,16.11,16.72,14.23,27.47a37.09,37.09,0,0,1-3.73,10.09c-2.86,5.76-12.87,14.48-19.79,18.48L490.65,510.92c-1.31.76-3.9,2.13-5.31,2.79a75.7,75.7,0,0,1-30.81,6.94c-11.34.13-21.82-2.23-29.93-6.91L22.34,270c-11.27-6.5-16.1-16.79-14.14-27.56A38.28,38.28,0,0,1,11.64,233c2.81-6,13.11-15,20.24-19.15Z" opacity=".27"/><path d="M283.59,72.39c10.8-6.23,24.71-9.27,38-8.63a70.6,70.6,0,0,1,14.93,2.65c3.74,1,12.43,5.24,15.46,7L749,314c11.14,6.43,15.47,16.56,12.94,27-.79,3.29-2.48,6.32-4.21,9.56-2.66,5-13.83,14.12-19.89,17.62L490.14,509.12c-1.14.66-4,2.17-5.2,2.75a74.18,74.18,0,0,1-30.19,7c-11.12.18-21.45-2.09-29.38-6.67L23.1,268.4c-11.19-6.46-15.47-16.66-12.82-27.14a44.39,44.39,0,0,1,3.92-9c2.62-5.14,14.15-14.66,20.38-18.26Z" opacity=".36"/><path d="M282,75.18C292.76,69,306.75,66,319.85,66.82a70.12,70.12,0,0,1,14.82,2.93c3.19.91,12.69,5.73,15.28,7.22L745.74,316.82c11,6.37,14.86,16.41,11.65,26.56-1,3.11-2.9,5.89-4.7,9-2.4,4.19-14.78,13.76-20,16.76L489.64,507.32c-1,.56-4,2.21-5.09,2.72A73.27,73.27,0,0,1,455,517c-10.89.22-21.08-2-28.84-6.45L23.86,266.82C12.75,260.41,9,250.3,12.36,240.1c1-2.91,2.77-5.51,4.4-8.48,2.39-4.33,15.19-14.29,20.53-17.38Z" opacity=".45"/><path d="M280.38,78c10.74-6.2,24.81-9,37.78-8.08a69.66,69.66,0,0,1,14.7,3.2c2.64.8,12.95,6.21,15.1,7.46l394.5,239.06c10.95,6.32,14.26,16.25,10.37,26.11-1.16,2.93-3.32,5.46-5.2,8.51-2.11,3.42-15.73,13.39-20.06,15.89L489.13,505.51c-.82.48-4.11,2.26-5,2.69a71.6,71.6,0,0,1-29,7c-10.66.27-20.71-1.83-28.3-6.21L24.62,265.25c-11-6.37-14.26-16.4-10.18-26.3a28.74,28.74,0,0,1,4.88-8C20.76,227.1,35.55,217,40,214.46Z" opacity=".55"/><path d="M278.77,80.76c10.72-6.19,24.87-8.92,37.69-7.8,5.32.48,10.14,2.06,14.58,3.47,2.11.67,13.21,6.7,14.94,7.7L739.18,322.4c10.86,6.27,13.69,16.11,9.08,25.66a29,29,0,0,1-5.68,8c-1.19,3-16.69,13-20.15,15L488.63,503.71c-.66.38-4.18,2.31-4.88,2.65a70.29,70.29,0,0,1-28.34,7.06c-10.44.32-20.33-1.69-27.76-6L25.39,263.67c-11-6.32-13.71-16.27-8.87-25.88a28.88,28.88,0,0,1,5.36-7.49c1.15-3.09,17.27-13.56,20.83-15.62Z" opacity=".64"/><path d="M277.16,83.56c10.7-6.19,24.93-8.81,37.6-7.53,5.31.55,10.07,2.28,14.47,3.75C330.8,80.3,342.7,87,344,87.7L735.9,325.19c10.77,6.22,13.14,16,7.79,25.21a29.73,29.73,0,0,1-6.17,7.45c-.89,2.24-17.64,12.67-20.24,14.17L488.12,501.9c-.49.29-4.25,2.36-4.77,2.62a69,69,0,0,1-27.72,7.1c-10.21.35-20-1.56-27.22-5.75L26.15,262.1C15.27,255.82,13,245.93,18.6,236.64a29.81,29.81,0,0,1,5.84-7c.87-2.32,18.31-13.2,21-14.74Z" opacity=".73"/><path d="M275.55,86.35c10.68-6.17,25-8.7,37.52-7.26,5.29.63,10,2.5,14.35,4,1,.36,13.72,7.66,14.59,8.16L732.61,328c10.68,6.17,12.62,15.87,6.51,24.76a30.31,30.31,0,0,1-6.65,6.92c-.6,1.49-18.6,12.31-20.33,13.31L487.62,500.1c-.33.19-4.32,2.41-4.67,2.58a67.46,67.46,0,0,1-27.1,7.13c-10,.4-19.59-1.43-26.68-5.52L26.91,260.52c-10.8-6.23-12.63-16.08-6.23-25A30.62,30.62,0,0,1,27,229c.58-1.54,19.35-12.83,21.13-13.86Z" opacity=".82"/><path d="M273.94,89.14c10.66-6.16,25-8.58,37.43-7,5.29.69,9.91,2.71,14.23,4.3.52.19,14,8.15,14.42,8.4L729.33,330.78c10.59,6.11,12.1,15.78,5.22,24.29a31.28,31.28,0,0,1-7.14,6.4c-.29.74-19.55,11.95-20.42,12.45L487.11,498.3l-4.55,2.55A66.42,66.42,0,0,1,456.08,508c-9.76.45-19.23-1.29-26.15-5.28L27.67,259c-10.72-6.19-12.12-16-4.91-24.62a32,32,0,0,1,6.81-6c.28-.77,20.37-12.47,21.27-13Z" opacity=".91"/><path d="M323.79 89.8l402.26 243.77c13.19 7.61 11.54 20.92-3.69 29.71L482.16 499c-15.23 8.79-38.27 9.75-51.46 2.13L28.43 257.37c-13.19-7.61-11.53-20.92 3.7-29.71l240.2-135.73c15.23-8.79 38.27-9.75 51.46-2.13z"/></g><path d="M752.17 341.51l-124.82-73.34-616.59-15.39 437.75 264.91 7.16-3.77 296.5-172.41z" fill="#230d99"/><path d="M459.24 508.82l281.62-163.34L337 101.14a12.86 12.86 0 0 0-13-.14L51.72 258.87z" fill="url(#A)"/><path d="M459.24 505.73L740.86 342.4 337 98.05a12.9 12.9 0 0 0-13-.16L51.72 255.78z" fill="url(#B)"/><path d="M459.24 499.05l281.62-163.34L337 91.36a12.88 12.88 0 0 0-13-.15L51.72 249.1z" fill="url(#C)"/><path d="M459.24 496l281.62-163.38L337 88.28a12.86 12.86 0 0 0-13-.16L51.72 246z" fill="url(#D)"/><path d="M459.24 489.27l281.62-163.33L337 81.59a12.9 12.9 0 0 0-13-.16L51.72 239.32z" fill="url(#E)"/><path d="M459.24 486.19l281.62-163.34L337 78.51a12.86 12.86 0 0 0-13-.16L51.72 236.24z" fill="url(#F)"/><path d="M459.24 479l281.62-163.35L337 71.3a12.88 12.88 0 0 0-13-.15L51.72 229z" fill="url(#G)"/><path d="M459.24 475.9l281.62-163.34L337 68.22a12.86 12.86 0 0 0-13-.16L51.72 226z" fill="url(#H)"/><path d="M459.24 468.18l281.62-163.33L337 60.5a12.9 12.9 0 0 0-13-.16L51.72 218.23z" fill="url(#I)"/><path d="M459.24 465.1l281.62-163.34L337 57.41a12.88 12.88 0 0 0-13-.15L51.72 215.15z" fill="url(#J)"/><g fill="#659cff"><path d="M752.17 262.29L322 2a13.73 13.73 0 0 0-13.93-.16L18 170a35.83 35.83 0 0 0-18 31.11v40.79a14 14 0 0 0 8.39 12.88l436.14 263.49-5.8-56.14 13.44-25.84zM84.54 282c-10.61-6.13-19.21-21-19.21-33.14s8.6-17.09 19.21-11 19.22 21 19.22 33.15-8.61 17.1-19.22 10.99z"/><path d="M452.17,436.29l300-174L322,2a13.73,13.73,0,0,0-13.93-.16L18,170Z"/></g><path class="Z" d="M449 511.82v-39.93a34.75 34.75 0 0 1 17.47-30.15l279.67-162.13v-12.73l-288 167A34.73 34.73 0 0 0 440.67 464v39.93a13.7 13.7 0 0 0 9.45 13 13.55 13.55 0 0 1-1.12-5.11z" fill="#d1d3d4"/><path d="M455.67,513.92a8.54,8.54,0,0,1-4.3,1.18,8.73,8.73,0,0,1-8.7-8.71V465.6a30.32,30.32,0,0,1,15.22-26.26L752.17,268.2v-5.91l-297,172.21a35.86,35.86,0,0,0-18,31.1v40.79a14.26,14.26,0,0,0,21.34,12.37L752.17,348.44v-6.93Z" fill="#4c7fff"/><g fill="#ccc"><path d="M85.85 231.19c-13.38-7.73-24.23-1.54-24.23 13.81s10.85 34.07 24.23 41.8 24.23 1.54 24.23-13.82-10.84-34.06-24.23-41.79zm0 49.85c-10.61-6.12-19.21-21-19.21-33.14s8.6-17.09 19.21-11 19.22 21 19.22 33.15-8.6 17.12-19.22 10.95z"/><path d="M84.54 232.13c-13.38-7.73-24.23-1.55-24.23 13.81s10.85 34.06 24.23 41.8 24.23 1.54 24.23-13.82-10.85-34.07-24.23-41.79zm0 49.85c-10.61-6.13-19.21-21-19.21-33.14s8.6-17.09 19.21-11 19.22 21 19.22 33.15-8.61 17.12-19.22 11.01z"/></g><g class="c"><path d="M84.54 232.13c-6.09-3.52-11.63-4.13-15.89-2.33 4-1 8.89-.18 14.2 2.89 13.39 7.72 24.24 26.44 24.24 41.79 0 8.37-3.24 14-8.34 16.14 6.06-1.55 10-7.44 10-16.7.02-15.36-10.83-34.07-24.21-41.79z" fill="url(#K)"/><path d="M71.84 236.08c-5 1.13-8.2 5.85-8.2 13.32 0 12.18 8.6 27 19.21 33.14 4.88 2.82 9.32 3.28 12.71 1.8-3.12.71-6.92 0-11-2.36-10.61-6.13-19.21-21-19.21-33.14-.02-6.59 2.5-11.02 6.49-12.76z" fill="#ccc"/></g><path d="M327.94 429.93l-25.26-14.61v-50.54l25.26 14.6v50.55z" fill="#4c7fff"/><path d="M303.25 415.27L125.59 312.7v-50.55l177.66 102.57v50.55z" fill="#e6e6e6"/><path d="M144.96 324l-6.1-3.52v-50.84l6.1 3.51V324z" fill="#4c7fff"/><path d="M153.69 216.2l-8.58-5 5.2-3a9.28 9.28 0 0 1 4.61-1.35 8.26 8.26 0 0 1 4.26 1.13c1.38.8 2.07 1.64 2 2.52s-.79 1.78-2.33 2.67l-5.21 3m-9.89-12.33L129.69 212l34.63 20.05 8.4-4.87-13.07-7.57 2-1.16 20.24 3.41 9.49-5.49-21.67-3.33c1.77-1.9 2.39-3.75 1.88-5.55s-1.93-3.36-4.23-4.7a19.91 19.91 0 0 0-7-2.38 23.63 23.63 0 0 0-8.23.22 26.88 26.88 0 0 0-8.39 3.2m39.14-22.6l-21.13 12.24 34.62 20.06 21.13-12.24-6.75-3.92-12.73 7.38-7.59-4.4 11.26-6.52-6.52-3.78-11.26 6.52-7-4.05 12.73-7.37-6.76-3.92M199.55 171q-5.61 3.24-6.36 6.85c-.5 2.41.86 4.54 4.08 6.41a16.06 16.06 0 0 0 6.8 2.17 24.1 24.1 0 0 0 6.69-.33c2.1-.42 4.61-1.07 7.53-2l4.8-1.34a15.93 15.93 0 0 1 3.49-.43 5.81 5.81 0 0 1 3 .73c1 .59 1.45 1.27 1.3 2s-.84 1.48-2.08 2.2a8.28 8.28 0 0 1-4 1.12 9.08 9.08 0 0 1-4.26-.93l-8.95 5.19a19.47 19.47 0 0 0 7.71 2.27 26.3 26.3 0 0 0 8.45-.66 29.86 29.86 0 0 0 8-3.21 14.06 14.06 0 0 0 5.31-4.74 5.21 5.21 0 0 0 .5-4.74 8.43 8.43 0 0 0-3.88-4 15.18 15.18 0 0 0-6.6-2.06 25 25 0 0 0-6.63.34c-2.07.41-4.61 1-7.59 1.9a53.15 53.15 0 0 1-6.94 1.67 6.38 6.38 0 0 1-4.19-.6c-1-.59-1.49-1.23-1.41-1.9s.64-1.31 1.65-1.89a8.21 8.21 0 0 1 3.85-1.13 7.63 7.63 0 0 1 3.88.82l9.09-5.27a20.85 20.85 0 0 0-11.35-2.25 27.35 27.35 0 0 0-11.89 3.81m40.16-22.68l-21.14 12.24 34.62 20.06 21.14-12.25-6.75-3.91-12.74 7.38-7.59-4.4 11.25-6.52-6.51-3.78-11.26 6.52-7-4.05 12.74-7.38-6.76-3.91m38.29 3.31l-8.44-9.79 17 4.87-8.56 4.92m-12.85-18l-9.73 5.63 22.13 27.29 8.8-5.1-4.05-4.73 12.89-7.46 8.17 2.34 8.9-5.15-47.14-12.85m40.27-5.27l-8.59-5 5.22-3a9.25 9.25 0 0 1 4.6-1.35 8.39 8.39 0 0 1 4.26 1.13c1.38.8 2.06 1.65 2.05 2.53s-.79 1.77-2.33 2.66l-5.21 3M295.5 116l-14.11 8.17L316 144.23l8.41-4.87-13.07-7.57 2-1.17 20.27 3.38 9.49-5.49-21.67-3.33q2.64-2.85 1.88-5.55c-.52-1.79-1.93-3.36-4.23-4.69a19.83 19.83 0 0 0-7-2.39 23.58 23.58 0 0 0-8.22.22 26.88 26.88 0 0 0-8.39 3.2M329 96.16q-5 2.9-6.73 6.49a7.77 7.77 0 0 0 .1 7.2q1.8 3.62 6.93 6.58a33.16 33.16 0 0 0 11.34 4 38 38 0 0 0 12.41 0 32.72 32.72 0 0 0 11.21-3.9c4.09-2.37 6.53-5 7.29-8s-.23-5.77-3-8.51l-9.25 5.35a3.76 3.76 0 0 1 .39 3.61 7.15 7.15 0 0 1-3.17 3.15 16.45 16.45 0 0 1-9 2.07 20.37 20.37 0 0 1-9.66-2.8c-3-1.75-4.64-3.62-4.84-5.6s1-3.71 3.58-5.21a15.22 15.22 0 0 1 5.4-1.76 18 18 0 0 1 6.23.22l9.24-5.35a36.19 36.19 0 0 0-14.73-1.76A32.62 32.62 0 0 0 329 96.16m51.79-29.56l-8.4 4.87 13.56 7.85-13.08 7.58-13.56-7.86-8.41 4.87 34.62 20.06 8.41-4.87-14.25-8.26 13.08-7.57 14.25 8.25 8.4-4.87-34.62-20.05M249.57 213.29l-8.68-5 4.58-2.65a9.52 9.52 0 0 1 4.72-1.42 8.38 8.38 0 0 1 4.38 1.17c1.38.8 2.06 1.65 2 2.54s-.85 1.81-2.46 2.74l-4.57 2.65m-10.27-12l-13.62 7.89 34.62 20.06 8.4-4.87-12.42-7.2 5.21-3c2.82-1.63 4.67-3.3 5.55-5a5 5 0 0 0 .2-4.77 9.84 9.84 0 0 0-4.12-4 20.72 20.72 0 0 0-7.19-2.52 23.59 23.59 0 0 0-8.23.19 26.94 26.94 0 0 0-8.4 3.21m49.89-3.42l-8.44-9.79 16.95 4.9-8.51 4.92m-12.85-18l-9.73 5.63 22.13 27.29 8.81-5.1-4.06-4.74 12.88-7.46 8.18 2.35 8.9-5.15-47.11-12.82m40.17-5.39l-8.68-5 4.57-2.64a9.64 9.64 0 0 1 4.72-1.43 8.48 8.48 0 0 1 4.38 1.18c1.38.8 2.06 1.65 2 2.54s-.86 1.81-2.46 2.74l-4.57 2.64m-10.28-12l-13.62 7.89 34.63 20 8.4-4.87-12.43-7.19 5.21-3c2.82-1.63 4.67-3.3 5.55-5a5 5 0 0 0 .2-4.77 9.83 9.83 0 0 0-4.11-4 20.69 20.69 0 0 0-7.2-2.51 23.53 23.53 0 0 0-8.22.19 27 27 0 0 0-8.41 3.21m38.24-22.09l-21.15 12.24 34.63 20.06 21.14-12.25-6.76-3.91-12.73 7.38-7.6-4.41 11.26-6.52-6.51-3.76-11.26 6.52-7-4.06 12.73-7.38-6.75-3.91m29.44 1l-8.58-5 5.21-3a9.28 9.28 0 0 1 4.6-1.35 8.32 8.32 0 0 1 4.27 1.13c1.38.8 2.05 1.64 2 2.53s-.79 1.77-2.33 2.66l-5.21 3m-9.8-12.3l-14.1 8.17 34.62 20.05 8.39-4.86-13.06-7.57 2-1.18 20.24 3.42 9.49-5.5-21.68-3.33c1.77-1.9 2.4-3.74 1.88-5.54s-1.92-3.36-4.22-4.7a19.89 19.89 0 0 0-7-2.38 23.63 23.63 0 0 0-8.23.22 26.68 26.68 0 0 0-8.38 3.2m-75.27 96.34l-9.04 5.24 20.18 17.5-31.09-11.18-9.25 5.35 19.05 18.16-30.16-11.72-8.99 5.21 43.36 14.99 10.19-5.9-17.1-16.5 28.3 10.01 10.17-5.89-25.62-25.27m28.22 1.71l-8.59-5 5.21-3a9.31 9.31 0 0 1 4.61-1.35 8.23 8.23 0 0 1 4.25 1.13c1.38.8 2.07 1.64 2.06 2.53s-.79 1.77-2.34 2.66l-5.2 3m-9.9-12.3L292.91 223l34.62 20 8.41-4.87-13.07-7.57 2-1.17 20.24 3.41 9.49-5.49-21.66-3.31q2.64-2.85 1.88-5.55c-.51-1.79-1.92-3.36-4.22-4.69a19.82 19.82 0 0 0-7-2.39 23.58 23.58 0 0 0-8.22.22 26.74 26.74 0 0 0-8.38 3.2m26.37-15.24l-8.41 4.87 34.62 20.05 8.41-4.87-34.62-20.05m30.91-17.91l-26.69 15.46 6.76 3.91 9.14-5.29 27.87 16.14 8.4-4.87-27.87-16.14 9.15-5.3-6.76-3.91m12.64-7.32l-8.41 4.87 34.63 20.05 8.4-4.86-34.62-20.06m36.97-21.41l-8.41 4.87 21.45 12.42-35.51-4.28-8.41 4.87 34.62 20.06 8.41-4.87-21.36-12.38 35.42 4.23 8.41-4.87-34.62-20.05m21.82-13.1c-3.41 2-5.7 4.16-6.86 6.57a7.89 7.89 0 0 0 0 7.23q1.78 3.62 6.91 6.59a33.1 33.1 0 0 0 11.36 4 38.49 38.49 0 0 0 12.49 0 33.22 33.22 0 0 0 11.36-4 16.33 16.33 0 0 0 6.08-5.47 8.48 8.48 0 0 0 1.3-5.84 9.91 9.91 0 0 0-2.7-5.23l-7.84-4.54-18.28 10.59 6.21 3.6 10.66-6.18q2 2.28 1.41 4.44c-.37 1.43-1.59 2.75-3.65 3.94a18.73 18.73 0 0 1-9.78 2.56 20.35 20.35 0 0 1-10.07-2.83c-3-1.73-4.56-3.6-4.7-5.58s1.12-3.77 3.84-5.35a15.42 15.42 0 0 1 5-1.84 14.86 14.86 0 0 1 5.32 0l9.29-5.38a32.69 32.69 0 0 0-14-1.57 33 33 0 0 0-13.45 4.31" fill="#25054d"/><g opacity=".2"><path d="M683.64 409.55a32 32 0 0 1-15.95-3.84l-96.91-55.15-96.91-55.15c-5.82-3.36-9.16-8.68-9.16-14.59 0-6.47 4-12.51 11-16.55L494.34 253a39.27 39.27 0 0 1 19.38-4.93 32 32 0 0 1 16 3.85l96.91 55.15 96.9 55.15c5.82 3.36 9.16 8.67 9.16 14.58 0 6.48-4 12.51-11 16.56L703 404.63a39.34 39.34 0 0 1-19.36 4.92z" opacity="0"/><path d="M482.91 268.89l14.17-8.5 3.41-2.05a37.16 37.16 0 0 1 18.3-4.56 34.08 34.08 0 0 1 8.83 1.17 26.92 26.92 0 0 1 6.19 2.55l91.39 52 3 1.68 88.43 50.35c4.22 2.43 7.37 6.26 8.38 10.31a14.83 14.83 0 0 1 .47 3.27c.16 6.06-3.54 11.78-10.2 15.62l-14.17 8.51-3.41 2a36.93 36.93 0 0 1-18.29 4.56 34.16 34.16 0 0 1-8.84-1.16 27.1 27.1 0 0 1-6.18-2.55l-91.4-52-3-1.68-88.44-50.36c-4.21-2.43-7.36-6.25-8.38-10.3a15 15 0 0 1-.47-3.28c-.15-6.01 3.56-11.74 10.21-15.58z" opacity=".09"/><path d="M490.09 273.52l13.34-7.95c.08 0 3.12-1.87 3.21-1.91a34.92 34.92 0 0 1 17.21-4.19 32.16 32.16 0 0 1 8.29 1.16 26.82 26.82 0 0 1 5.79 2.42L623.82 312l2.77 1.58 83.1 47.35c3.79 2.19 7 5.91 8 9.54a14.68 14.68 0 0 1 .53 3c.32 5.63-3.07 11-9.37 14.69l-13.35 7.94c-.08.05-3.12 1.87-3.21 1.91a34.81 34.81 0 0 1-17.21 4.19 32.16 32.16 0 0 1-8.29-1.15 27.35 27.35 0 0 1-5.79-2.43l-85.87-48.92-2.78-1.58-83.1-47.34c-3.79-2.19-7-5.92-8-9.55a14.68 14.68 0 0 1-.53-3c-.33-5.66 3.06-11.07 9.37-14.71z" opacity=".18"/><path d="M497.26 278.14l12.52-7.38 3-1.78a32.7 32.7 0 0 1 16.13-3.82 30.16 30.16 0 0 1 7.74 1.15 26.75 26.75 0 0 1 5.4 2.3l80.37 45.82 2.6 1.48 77.76 44.33c3.37 1.95 6.71 5.58 7.64 8.79a13.76 13.76 0 0 1 .59 2.78c.48 5.21-2.6 10.31-8.55 13.75L690 392.94l-3 1.78a32.81 32.81 0 0 1-16.13 3.83 30.61 30.61 0 0 1-7.74-1.15 27.36 27.36 0 0 1-5.4-2.31l-80.43-45.82-2.6-1.48-77.76-44.33c-3.37-1.95-6.71-5.58-7.64-8.79a13.76 13.76 0 0 1-.59-2.78c-.48-5.21 2.6-10.31 8.55-13.75z" opacity=".27"/><path d="M504.43 282.77l11.69-6.77 2.82-1.64a30.6 30.6 0 0 1 15-3.47 28 28 0 0 1 7.19 1.15 26.79 26.79 0 0 1 5 2.18l74.86 42.71 2.42 1.38 72.42 41.32c3 1.7 6.4 5.24 7.28 8a15 15 0 0 1 .64 2.54c.65 4.79-2.12 9.58-7.72 12.81l-11.69 6.82-2.82 1.64a30.49 30.49 0 0 1-15 3.47 28.1 28.1 0 0 1-7.2-1.15 27 27 0 0 1-5-2.18l-74.86-42.71-2.42-1.38-72.42-41.32c-2.95-1.7-6.4-5.24-7.28-8a16.21 16.21 0 0 1-.65-2.53c-.63-4.85 2.14-9.64 7.74-12.87z" opacity=".36"/><path d="M511.6 287.39l10.87-6.26 2.61-1.5a28.43 28.43 0 0 1 14-3.1 26.1 26.1 0 0 1 6.64 1.14 28.15 28.15 0 0 1 4.63 2.06l69.34 39.59 2.25 1.29 67.06 38.3c2.52 1.46 6.09 4.9 6.91 7.27a17.15 17.15 0 0 1 .71 2.28c.8 4.39-1.66 8.86-6.9 11.89l-10.87 6.26c-.21.11-2.39 1.41-2.62 1.5a28.37 28.37 0 0 1-14 3.1 26 26 0 0 1-6.64-1.14A27.42 27.42 0 0 1 651 388l-69.34-39.59-2.25-1.29-67.08-38.3c-2.53-1.46-6.09-4.9-6.91-7.27a17.62 17.62 0 0 1-.71-2.28c-.82-4.38 1.64-8.85 6.89-11.88z" opacity=".45"/><path d="M518.78 292l10-5.7 2.42-1.37a26.15 26.15 0 0 1 12.88-2.73 24.11 24.11 0 0 1 6.1 1.13 30.92 30.92 0 0 1 4.24 1.93l63.83 36.49 2.07 1.18 61.74 35.3c2.1 1.21 5.8 4.56 6.54 6.51a17.93 17.93 0 0 1 .77 2c1 4-1.18 8.12-6.08 10.95l-10 5.7c-.24.14-2.14 1.26-2.42 1.37a26.14 26.14 0 0 1-12.87 2.78 24 24 0 0 1-6.1-1.13 29.3 29.3 0 0 1-4.24-1.94L583.82 348l-2.07-1.19-61.75-35.3c-2.11-1.22-5.8-4.56-6.54-6.51a17.93 17.93 0 0 1-.77-2c-.97-4 1.19-8.16 6.09-11z" opacity=".55"/><path d="M526 296.64l9.21-5.13 2.22-1.24a23.93 23.93 0 0 1 11.8-2.36 21.77 21.77 0 0 1 5.55 1.12 32.27 32.27 0 0 1 3.84 1.81l58.32 33.38 1.89 1.08 56.4 32.28c1.69 1 5.53 4.22 6.18 5.75.26.63.63 1.18.83 1.79 1.15 3.55-.71 7.39-5.25 10l-9.22 5.14c-.28.17-1.9 1.11-2.22 1.23a23.9 23.9 0 0 1-11.79 2.37 22.47 22.47 0 0 1-5.55-1.12 34.07 34.07 0 0 1-3.85-1.81L586 347.56l-1.89-1.09-56.4-32.28c-1.68-1-5.52-4.21-6.17-5.75a18.84 18.84 0 0 1-.83-1.78c-1.16-3.56.69-7.39 5.29-10.02z" opacity=".64"/><path d="M533.12 301.27l8.39-4.58 2-1.09a21.56 21.56 0 0 1 10.71-2 19.59 19.59 0 0 1 5 1.11 37 37 0 0 1 3.46 1.69l52.81 30.27 1.71 1 51.06 29.27c1.27.73 5.52 3.77 5.81 5a6.68 6.68 0 0 1 .89 1.54c1.32 3.13-.23 6.66-4.43 9.08l-8.38 4.57c-.33.19-1.66.95-2 1.1a21.67 21.67 0 0 1-10.71 2 20 20 0 0 1-5-1.11c-.64-.22-2.92-1.38-3.46-1.69l-52.8-30.27-1.72-1-51.06-29.27c-1.26-.73-5.52-3.78-5.81-5a7.06 7.06 0 0 1-.89-1.54c-1.33-3.14.23-6.66 4.42-9.08z" opacity=".73"/><path d="M540.29 305.89l7.56-4 1.83-1a19.39 19.39 0 0 1 9.62-1.64 18 18 0 0 1 4.46 1.11c.42.15 2.71 1.36 3.07 1.57l47.29 27.15 1.54.89 45.72 26.25c.84.49 5.25 3.42 5.44 4.24a6 6 0 0 1 .95 1.29c1.51 2.71.24 5.92-3.6 8.14l-7.56 4-1.82 1a19.55 19.55 0 0 1-9.63 1.63 18.1 18.1 0 0 1-4.46-1.1c-.42-.15-2.71-1.36-3.07-1.57l-47.29-27.15-1.54-.88-45.72-26.26c-.84-.48-5.25-3.42-5.44-4.23a6.57 6.57 0 0 1-.95-1.29c-1.51-2.72-.24-5.93 3.6-8.15z" opacity=".82"/><path d="M547.46 310.52l6.74-3.45a14.66 14.66 0 0 1 1.63-.83 17.23 17.23 0 0 1 8.54-1.27 16.22 16.22 0 0 1 3.91 1.1c.21.08 2.5 1.34 2.68 1.44l41.78 24.05 1.36.78 40.38 23.25c.42.24 5 3.07 5.07 3.47a5.52 5.52 0 0 1 1 1.05c1.7 2.28.72 5.19-2.77 7.21l-6.74 3.45a17.55 17.55 0 0 1-1.62.82 17.16 17.16 0 0 1-8.55 1.27 15.78 15.78 0 0 1-3.91-1.09c-.21-.08-2.5-1.35-2.68-1.45l-41.78-24.05-1.36-.78-40.38-23.24c-.42-.25-5-3.07-5.07-3.48a5.48 5.48 0 0 1-1-1c-1.69-2.33-.69-5.24 2.77-7.25z" opacity=".91"/><path d="M633.25 368.11l-39.75-22.95-39.74-23c-3.14-1.81-2.75-5 .88-7.07l5.91-2.89c3.62-2.09 9.1-2.32 12.24-.5l39.75 22.94 39.74 22.95c3.14 1.81 2.75 5-.88 7.07l-5.91 2.89c-3.62 2.14-9.1 2.37-12.24.56z"/></g><ellipse class="g" cx="367.05" cy="191.55" rx="243.52" ry="159.94" opacity=".3" fill="url(#L)"/><path d="M495.06 72.38C460 52.16 413.37 41 363.66 41c-49.25 0-95.36 11-129.84 30.87-33 19.07-51.2 44-51.2 70.07 0 3 .25 16.42.71 19.35 3.62-22.85 21.22-44.33 50.49-61.22 34.48-19.91 80.59-30.88 129.84-30.88 49.71 0 96.37 11.14 131.4 31.36 29.78 17.2 47.67 39 51.33 62.11.46-2.93.71-16.37.71-19.34 0-26.32-18.49-51.56-52.04-70.94z" fill="#ccc"/><path d="M547.09 160.48c0 26.12-18.18 51-51.19 70.06-34.49 19.9-80.59 30.87-129.85 30.87a320 320 0 0 1-38.12-2.25 275.56 275.56 0 0 1-57.5-13A207.94 207.94 0 0 1 234.67 230a139.74 139.74 0 0 1-29-21.73q-2.89-2.88-5.45-5.87-2.94-3.44-5.42-7c-1.39-2-2.68-4-3.84-6.11a61.08 61.08 0 0 1-8.34-30.25c0-26.12 18.18-51 51.19-70.06 34.49-19.91 80.6-30.87 129.85-30.87a318 318 0 0 1 46.81 3.4 279.38 279.38 0 0 1 30.63 6.27c19.84 5.24 38.1 12.52 54 21.69 33.51 19.43 51.99 44.62 51.99 71.01z" fill="#659cff"/><path d="M191 189.34l7.21 4.17-3.37 1.94c-1.43-2.01-2.72-4.05-3.84-6.11zm25.41 12.77l-10.74 6.21q-2.89-2.88-5.45-5.87l8.4-4.86zm-20.71-34.93q-6.47 3.75-7.33 7.91-.86 4.16 4.71 7.39a18.27 18.27 0 0 0 7.84 2.5 27.61 27.61 0 0 0 7.72-.38q3.63-.72 8.68-2.26l5.53-1.56a19.11 19.11 0 0 1 4-.49 6.63 6.63 0 0 1 3.44.85c1.18.68 1.68 1.45 1.51 2.32s-1 1.71-2.41 2.54a9.48 9.48 0 0 1-4.56 1.29 10.47 10.47 0 0 1-4.91-1.07l-10.32 6a22.36 22.36 0 0 0 8.89 2.62 30.32 30.32 0 0 0 9.74-.76 34.21 34.21 0 0 0 9.24-3.71q4.49-2.59 6.12-5.46a6 6 0 0 0 .58-5.47 9.75 9.75 0 0 0-4.47-4.59 17.79 17.79 0 0 0-7.62-2.38 28.66 28.66 0 0 0-7.64.41c-2.39.46-5.32 1.19-8.76 2.18a62.28 62.28 0 0 1-8 1.93 7.32 7.32 0 0 1-4.83-.7c-1.17-.68-1.72-1.41-1.62-2.18s.72-1.51 1.89-2.19a9.62 9.62 0 0 1 4.45-1.3 8.72 8.72 0 0 1 4.47 1l10.49-6.08a24 24 0 0 0-13.1-2.59 31.59 31.59 0 0 0-13.76 4.3zm46.32-26.17l-24.38 14.13 39.93 23.12 24.38-14.12-7.79-4.51-14.69 8.51-8.75-5.08 12.98-7.52-7.51-4.35-12.99 7.52-8.07-4.67 14.69-8.51-7.8-4.52h0zM271.33 124l-11.22 6.51L285.63 162l10.15-5.88-4.66-5.46 14.88-8.6 9.43 2.71 10.26-6zm14.82 20.81l-9.74-11.29 19.59 5.64zm64.18-20.27l10.94-6.34-25-3.84c2-2.18 2.76-4.32 2.16-6.39s-2.22-3.88-4.88-5.42a22.92 22.92 0 0 0-8-2.75 27.15 27.15 0 0 0-9.48.25 31.12 31.12 0 0 0-9.68 3.69l-16.28 9.42L330 136.29l9.69-5.61-15.05-8.68 2.33-1.34zm-26.55-10.05l-6 3.48-9.9-5.74 6-3.48a10.76 10.76 0 0 1 5.31-1.56 9.6 9.6 0 0 1 4.92 1.31c1.58.91 2.37 1.89 2.35 2.91s-.9 2.04-2.68 3.08zM345 80.86q-5.78 3.35-7.76 7.48a9 9 0 0 0 .11 8.31c1.39 2.78 4.06 5.3 8 7.59a38.69 38.69 0 0 0 13.07 4.62 44.39 44.39 0 0 0 14.32 0 37.53 37.53 0 0 0 12.93-4.5q7.08-4.11 8.41-9.19 1.33-5.08-3.47-9.82l-10.66 6.18a4.33 4.33 0 0 1 .45 4.16 8.28 8.28 0 0 1-3.66 3.63 19 19 0 0 1-10.39 2.39 23.47 23.47 0 0 1-11.14-3.23q-5.24-3-5.58-6.46c-.23-2.27 1.14-4.28 4.13-6a17.23 17.23 0 0 1 6.24-2.08 20.52 20.52 0 0 1 7.18.26l10.67-6.2a41.36 41.36 0 0 0-17-2A37.63 37.63 0 0 0 345 80.86zM418.54 66l-15.09 8.73 16.43 9.53-9.68 5.61-39.94-23.14 9.7-5.61 15.64 9.05 14.87-8.61a279.38 279.38 0 0 1 30.63 6.27l3.57 2.06L435 75.5zM261.12 220.42l6-3.48q4.89-2.82 6.4-5.75a5.77 5.77 0 0 0 .24-5.51 11.51 11.51 0 0 0-4.75-4.59 24.1 24.1 0 0 0-8.31-2.91 27.13 27.13 0 0 0-9.48.23 30.8 30.8 0 0 0-9.69 3.71l-15.71 9.1 39.92 23.13 9.7-5.62zm-2.45-7.53l-5.28 3.11-10-5.8 5.27-3.06a11.12 11.12 0 0 1 5.45-1.64 9.75 9.75 0 0 1 5.06 1.35c1.58.93 2.36 1.9 2.33 2.94s-.97 2.02-2.83 3.1zm25.57-35.5l-11.24 6.5 25.53 31.47 10.15-5.88L304 204l14.86-8.61 9.43 2.71 10.27-6zm14.82 20.8l-9.74-11.29 19.54 5.61zm39.23-22.46l6-3.48c3.26-1.88 5.39-3.81 6.4-5.75a5.76 5.76 0 0 0 .24-5.52 11.48 11.48 0 0 0-4.74-4.59 24.14 24.14 0 0 0-8.32-2.9 27.13 27.13 0 0 0-9.48.23 31 31 0 0 0-9.69 3.7l-15.7 9.09 39.92 23.13 9.7-5.61zm-2.46-7.53l-5.27 3-10-5.79 5.27-3a11.12 11.12 0 0 1 5.46-1.64 9.65 9.65 0 0 1 5.05 1.35c1.58.92 2.37 1.9 2.33 2.93s-.98 2.07-2.84 3.15zm26.93-36.29l-24.38 14.12 39.93 23.13 24.38-14.13-7.79-4.51-14.69 8.51-8.76-5.08 12.98-7.52-7.5-4.35-12.99 7.52-8.08-4.68 14.69-8.5-7.79-4.51h0zm66.52 7.72l10.94-6.34-25-3.84c2-2.19 2.76-4.31 2.16-6.39s-2.21-3.88-4.87-5.42a22.9 22.9 0 0 0-8-2.74 26.9 26.9 0 0 0-9.48.24 31.08 31.08 0 0 0-9.68 3.7l-16.27 9.42L409 151.39l9.69-5.61-15.08-8.73 2.33-1.35zm-26.55-10l-6 3.48-9.89-5.73 6-3.49a10.58 10.58 0 0 1 5.3-1.55 9.44 9.44 0 0 1 4.92 1.3c1.59.92 2.38 1.89 2.36 2.92s-.92 1.99-2.69 3.02zm-74.67 129.46l-.13.07a275.56 275.56 0 0 1-57.5-13l5.06-2.93 35.86 12.9L288.07 236l10.43-6zm35.54-20.58l10.95-6.35-25-3.83c2-2.2 2.75-4.33 2.17-6.41s-2.22-3.87-4.87-5.41a23.32 23.32 0 0 0-8.05-2.76 27.41 27.41 0 0 0-9.48.26 30.75 30.75 0 0 0-9.67 3.7l-16.27 9.42 39.92 23.13 9.7-5.62-15.07-8.73 2.32-1.35zm-26.55-10.06l-6 3.48-9.91-5.74 6-3.48a10.79 10.79 0 0 1 5.31-1.56 9.63 9.63 0 0 1 4.92 1.3c1.58.93 2.38 1.9 2.37 2.91s-.9 2.05-2.69 3.09zm12.99-28.35l-9.69 5.62 39.93 23.13 9.69-5.62-39.93-23.13h0zm35.66-20.65l-30.78 17.83 7.78 4.51 10.55-6.11 32.14 18.62 9.69-5.62-32.14-18.61 10.55-6.11-7.79-4.51h0zm14.57-8.44l-9.69 5.61 39.93 23.13 9.69-5.61-39.93-23.13h0zm42.64-24.7l-9.7 5.62 24.74 14.32-40.95-4.93-9.7 5.62 39.93 23.12 9.7-5.61-24.64-14.27 40.85 4.87 9.7-5.61-39.93-23.13h0zm25.17-15.11q-5.91 3.42-7.91 7.57a9.08 9.08 0 0 0 .06 8.35c1.36 2.78 4 5.32 8 7.6a38.32 38.32 0 0 0 13.1 4.61 44.6 44.6 0 0 0 14.4 0 38.22 38.22 0 0 0 13.1-4.59 18.87 18.87 0 0 0 7-6.31 9.81 9.81 0 0 0 1.49-6.73 11.38 11.38 0 0 0-3.11-6l-9-5.24-21.09 12.21 7.17 4.15 12.3-7.12c1.51 1.75 2.06 3.46 1.62 5.11s-1.83 3.18-4.21 4.56a21.63 21.63 0 0 1-11.29 2.94 23.28 23.28 0 0 1-11.6-3.26q-5.18-3-5.43-6.44-.25-3.44 4.43-6.16a17.9 17.9 0 0 1 5.79-2.13 17.29 17.29 0 0 1 6.13 0L499.7 128a38.79 38.79 0 0 0-31.62 3.16z" fill="#25054d"/><use xlink:href="#W" class="h" opacity=".5" fill="url(#M)"/><use xlink:href="#W" class="i" fill="url(#N)"/><path class="j" d="M495 78.12c-35-20.22-81.65-31.36-131.35-31.36-31.53 0-61.76 4.52-88.48 13 97.74 29 174 90.59 205.75 167.13 5.19-2.4 10.2-5 15-7.72 33-19.06 51.2-43.94 51.2-70.06-.04-26.41-18.52-51.61-52.12-70.99z" opacity=".5" fill="url(#O)"/><path d="M366.06 261.26c-52.64 0-102.32-11.95-139.89-33.64-39-22.53-60.53-53-60.53-85.66 0-32.44 21.2-62.55 59.69-84.77C262.35 35.82 311.48 24 363.66 24 416.3 24 466 36 503.55 57.68c39 22.53 60.53 53 60.53 85.66 0 32.44-21.2 62.55-59.69 84.77-37.02 21.37-86.15 33.15-138.33 33.15zM363.66 41c-49.25 0-95.36 11-129.84 30.87-33 19.07-51.2 44-51.2 70.07 0 26.38 18.48 51.58 52 71 35 20.22 81.69 31.36 131.4 31.36 49.25 0 95.36-11 129.84-30.88 33-19.06 51.2-43.94 51.2-70.06 0-26.38-18.49-51.58-52-71C460 52.16 413.37 41 363.66 41z" fill="#e6e6e6"/><path d="M564 146.93c-1.5 31.07-22.52 59.78-59.59 81.18s-86.15 33.15-138.33 33.15c-52.64 0-102.32-11.95-139.89-33.64-38.26-22.09-59.66-51.76-60.49-83.73v26.58.44c.33 32.42 21.78 62.54 60.51 84.9 37.57 21.69 87.25 33.64 139.89 33.64 52.18 0 101.31-11.77 138.33-33.15 37.5-21.67 58.57-50.85 59.57-82.38v-.5z" fill="#ccc"/><g class="c"><path d="M495.06 70.37C460 50.15 413.37 39 363.66 39c-49.25 0-95.36 11-129.84 30.87-33 19.07-51.2 44-51.2 70.07v1.4c.65-25.6 18.75-49.93 51.17-68.65 34.48-19.91 80.59-30.87 129.84-30.87 49.71 0 96.37 11.13 131.4 31.36 33 19 51.36 43.68 52 69.55v-1.41c.07-26.32-18.42-51.57-51.97-70.95z" fill="url(#P)"/><path d="M504.39 226.1c-37 21.37-86.15 33.15-138.33 33.15-52.64 0-102.32-11.95-139.89-33.64-38.47-22.21-59.89-52.09-60.5-84.26v1.41c0 32.71 21.5 63.13 60.53 85.67 37.57 21.69 87.25 33.63 139.89 33.63 52.18 0 101.31-11.77 138.33-33.15 38.49-22.22 59.69-52.32 59.69-84.76v-1.41c-.67 31.9-21.79 61.46-59.72 83.36z" fill="url(#Q)"/></g><path d="M483 255.89c0 3.36 1.16 5.74 3 6.89l26.67 15.29c2 1.1.7-1.39 3.68-3.1 6-3.46 10.84-11.83 10.84-18.7 0-3.39 3.14-3.42 1.21-4.55l-27-15.36c-1.95-1.06-4.62-.86-7.57.84-6 3.45-10.83 11.8-10.83 18.69z" fill="url(#R)"/><path d="M509.91 271.28c0 6.87 4.85 9.64 10.84 6.18s10.84-11.83 10.84-18.7-4.86-9.63-10.84-6.18-10.84 11.83-10.84 18.7z" fill="url(#S)"/><path class="o" d="M520.23 252.32c2.87-1.65 5.48-1.88 7.41-.91-1.8-.5-4-.12-6.47 1.28-6 3.45-10.84 11.82-10.84 18.69 0 3.58 1.31 6 3.42 7.09-2.65-.74-4.36-3.37-4.36-7.45 0-6.87 4.85-15.24 10.84-18.7z" fill="url(#T)"/><path d="M506.16 279c0 6 2.08 10.32 5.47 12.39l175.4 105.42c3.52 2 1.27-2.5 6.62-5.59 10.77-6.22 19.51-21.28 19.51-33.65 0-6.11 5.65-6.16 2.19-8.2L539.29 243.79c-3.52-1.9-8.32-1.55-13.62 1.51-10.77 6.22-19.51 21.29-19.51 33.7z" fill="url(#U)"/><path d="M682,384.53c0,12.37,8.74,17.35,19.51,11.13s19.51-21.29,19.51-33.65-8.73-17.35-19.51-11.13S682,372.17,682,384.53Z" fill="#56d4b7"/><path d="M690,381.66c0,8.08,5.71,11.34,12.76,7.27s12.76-13.92,12.76-22-5.72-11.35-12.76-7.28S690,373.57,690,381.66Z" fill="#45aa92"/><path d="M700.62 350.42c5.16-3 9.85-3.39 13.34-1.64-3.25-.91-7.29-.23-11.66 2.29-10.77 6.22-19.51 21.29-19.51 33.65 0 6.44 2.37 10.87 6.16 12.76-4.76-1.33-7.84-6.07-7.84-13.41 0-12.37 8.73-27.43 19.51-33.65z" fill="url(#V)"/></g></svg>