<svg xmlns="http://www.w3.org/2000/svg" viewBox="0 0 860.02 538.76" xmlns:v="https://vecta.io/nano"><style><![CDATA[.A{isolation:isolate}.K,.N{mix-blend-mode:multiply}.Q{fill:#8098af}.R{fill:#e6e6e6}.S{fill:#b3b3b3}]]></style><g class="A"><path d="M174.37,113.34s16,27.69,0,66.83l387-4.57,3.89-1.38v-53.1l-9.62-7.78Z" class="R"/><path d="M549.51 114.48s15.11 23.35 0 62.49c0 0 18-5 17.86-29.07s-7.79-32.73-17.86-33.42z" class="Q"/><path d="M165.21 182.62h0a6.79 6.79 0 0 1 6.73-6.85l376.56-3.41c7.62-.07 14.06-9.47 14.06-20.53v-13.92c0-11.12-6.48-20.52-14.14-20.52H172a6.79 6.79 0 0 1-6.79-6.79h0a6.79 6.79 0 0 1 6.79-6.79h376.42c15.28 0 27.72 15.29 27.72 34.1v13.92c0 19-12.09 34-27.51 34.11l-376.57 3.41a6.79 6.79 0 0 1-6.85-6.73z" fill="#4c7fff"/><path d="M241.51 129.04h262.15v1.75H241.51zm-17.19 15.81h295.49v1.75H224.32zm17.19 15.8h262.15v1.75H241.51z" class="Q"/><path d="M526.91 280.75s-16 27.69 0 66.83l-387-4.58-3.91-1.37v-53.1l9.62-7.78z" class="R"/><path d="M151.77 281.89s-15.11 23.35 0 62.49c0 0-18-5-17.86-29.07s7.78-32.73 17.86-33.42z" class="Q"/><path d="M536.07 350h0a6.79 6.79 0 0 0-6.73-6.85l-376.56-3.42c-7.62-.07-14.06-9.47-14.06-20.52v-13.89c0-11.13 6.47-20.53 14.14-20.53h376.42a6.79 6.79 0 0 0 6.79-6.79h0a6.79 6.79 0 0 0-6.79-6.79H152.86c-15.29 0-27.72 15.3-27.72 34.11v13.92c0 19 12.08 34 27.51 34.1l376.57 3.42a6.8 6.8 0 0 0 6.85-6.76z" fill="#dc5f58"/><path d="M459.77 298.21H197.62v-1.75h262.15zm17.19 15.8H181.47v-1.75h295.49zm-17.19 15.81H197.62v-1.75h262.15z" class="Q"/><path d="M11.26,195.86s19.71,28.1,0,67.81l476-4.64,4.79-1.39V203.76l-11.82-7.9Z" class="R"/><path d="M474.71 197s16.82 23.69 0 63.4c0 0 20-5.11 19.88-29.49s-8.66-33.19-19.88-33.91z" class="Q"/><path d="M0,266.16H0c0-3.81,3.66-6.92,8.28-7l463.11-3.46c9.37-.07,17.29-9.61,17.29-20.82V220.79c0-11.29-8-20.82-17.39-20.82H8.35C3.74,200,0,196.88,0,193.08H0c0-3.81,3.74-6.89,8.35-6.89H471.29c18.8,0,34.09,15.52,34.09,34.6v14.13c0,19.26-14.86,34.46-33.83,34.6L8.43,273C3.81,273,0,270,0,266.16Z" fill="#56d4b7"/><path d="M93.83 211.8h322.41v1.78H93.83zM72.7 227.83h363.41v1.78H72.7zm21.13 16.04h322.41v1.78H93.83z" class="Q"/><path d="M511.5,362.84s-19.7,27.7,0,66.84l-476-4.58-4.79-1.37v-53.1l11.83-7.79Z" class="R"/><path d="M48.87 364.84s-16.82 23.35 0 62.49c0 0-20-5-19.88-29.07s8.67-32.73 19.88-33.42z" class="Q"/><path d="M522.76 432.13h0c0-3.75-3.66-6.81-8.27-6.85l-463.12-3.42c-9.37-.07-17.29-9.47-17.29-20.52v-13.93c0-11.12 8-20.52 17.39-20.52h462.94c4.61 0 8.35-3 8.35-6.79h0c0-3.75-3.74-6.79-8.35-6.79H51.47a34.13 34.13 0 0 0-34.09 34.1v13.93a33.78 33.78 0 0 0 33.84 34.1l463.12 3.41c4.66.04 8.38-2.97 8.42-6.72z" fill="#56d4b7"/><path d="M428.93 380.3H106.52v-1.75h322.41zm21.14 15.81H86.66v-1.75h363.41zm-21.14 15.8H106.52v-1.75h322.41z" class="Q"/><path d="M99.19,443.41s19.7,34.2,0,82.54l476-5.66L580,518.6V453l-11.83-9.61Z" class="R"/><path d="M561.81 445.41s16.83 30.09 0 80.54c0 0 20-6.49 19.89-37.47s-8.7-42.19-19.89-43.07z" class="Q"/><path d="M87.93 530.51h0a8.34 8.34 0 0 1 8.27-8.4l463.12-4.18c9.37-.09 17.29-11.61 17.29-25.17v-17.07c0-13.64-8-25.16-17.39-25.16H96.28a8.34 8.34 0 0 1-8.35-8.33h0a8.34 8.34 0 0 1 8.35-8.32h462.94c18.8 0 34.09 18.76 34.09 41.81v17.07c0 23.28-14.86 41.64-33.84 41.82l-463.12 4.18a8.33 8.33 0 0 1-8.42-8.25z" fill="#4c7fff"/><path d="M181.76 468h322.41v1.75H181.76zm-21.14 15.8h363.41v1.75H160.62zm21.14 15.81h322.41v1.75H181.76z" class="Q"/><path d="M762.7 513.93c-1 3.81.11 10.85 5.45 16.06s29.73 9.64 57.74-5.28 36.45-28 30.06-39.75-39.41-14.95-64.24 4.21-29.01 24.76-29.01 24.76z" class="S"/><g fill="#db0b35"><path d="M653.36 263.9l-11.83 44.17-7.61-17.28-15.32-2.64 27.5-30.12 7.26 5.87z"/><path d="M654,257l-59.65,12.84,7.23-8.63-24.61-12.56c1,.53,70.08-.13,70.08-.13Z"/></g><path d="M675.77 262.8l1.78 15.6a22.8 22.8 0 0 0-15.86-4.84l5.18-13.56zm-67.93-14.02l39.1-.29 6.95 8.48-26.6 5.73c1.19-4.33-6.91-9.55-19.45-13.92z" fill="#881620"/><path d="M773.2,340.34S702.82,193.1,686.51,159.12,630,33.52,626.39,25.76c-.68-1.43-3-3.8-8.35-5.72s-14.18-1.72-14.18-1.72,67.91,153.4,88.22,196.34S773.2,340.34,773.2,340.34Z" fill="#ccc"/><path d="M616.31 19.52c15.87 48.37 63.66 139.7 99.31 200.4l57.58 120.42s-60.8-82.75-81.12-125.68-88.22-196.34-88.22-196.34a55.45 55.45 0 0 1 12.45 1.2z" class="R"/><path class="K" d="M717.74 224.41l13.88 29c-7.33-9.53-15.63-14.71-26.53-14.62-2.9-4.94-5.59-9.7-8-14.2a72.74 72.74 0 0 1 20.65-.18z" fill="#b9997b"/><path d="M761.68 512.67c-1 3.82.1 10.85 5.45 16.06s29.73 9.64 57.74-5.28 36.45-28 30-39.74-39.4-14.95-64.23 4.21-28.96 24.75-28.96 24.75z" fill="#ccc"/><path d="M814.88 516.68L797.29 485s-17.8 9.67-25 20.24c-4.86 7.11-7.22 8.81-2.93 18.37 3.9 8.78 24.83 8.15 45.52-6.93z" class="S"/><path d="M814.14 515.77l-17.59-31.63s-17.8 9.66-25 20.24c-4.85 7.1-7.21 8.81-2.93 18.37 3.9 8.74 24.83 8.11 45.52-6.98z" class="R"/><path d="M841.78 457.23L856 485.07s-17-16.86-58.09 4.78c-22.29 11.74-27.95 23.66-28.69 30.23a8.2 8.2 0 0 0 1.13 5.19s-.52-.18-1.49-1.95-7.27-17.16-7.27-17.16c6.09-15.38 19.74-28.93 32.81-38.14s36.6-12.68 47.38-10.79z" class="S"/><path d="M840.84 456.07l14.24 27.85s-17-16.86-58.09 4.77c-32.68 17.22-28.39 34.06-28.39 34.06L760.67 505c6.09-15.39 19.73-28.94 32.8-38.14s36.63-12.68 47.37-10.79z" fill="#ccc"/><path d="M793.47 466.87c13.07-9.21 36.63-12.69 47.37-10.8l5 9.69c-19.62 1.13-48.92 14.12-61.75 31.05-18.48 14-15.45 25.94-15.45 25.94L760.67 505c6.09-15.38 19.73-28.93 32.8-38.13z" class="R"/><path d="M860,457.23c-21.46-6.07-109.53,31.25-95.64,68.15-11.8-20.12-31-74.08-46.81-110.28-27.4-62.73-53.69-120.5-71.83-156.94-28.59-57.46-97.37-183-101.22-189.86s-3.06-14.6-.06-21.77S563.79.1,604.39,0c8.73,34.63,25.92,71.78,80.06,179.16C748.31,305.84,827.28,413,860,457.23Z" fill="#fff"/><path d="M623.33 193.65c40.65 82.14 115 239.5 155.28 295.94-12 10.86-18.93 23.34-14.25 35.77-11.8-20.12-31-74.08-46.8-110.28-27.41-62.73-53.7-120.5-71.83-156.94-28.6-57.46-97.37-183-101.22-189.86s-3.07-14.6-.07-21.77a104 104 0 0 1 5.4-11.13c9.02 32.2 31.88 74.18 73.49 158.27z" fill="#f2f2f2"/><path class="N" d="M685.21 227.32a79.57 79.57 0 0 1 22.79-3.51q4.93 9 9.91 17.77c-6.42-3.06-13.8-3.64-22.76-1.35-12.45 3.17-37.58 15.56-40.37 36.38l-8.91-18.27c5.77-12.22 18.6-24.77 39.34-31.02z" fill="#d1bb9e"/><path d="M858.38,455c-21-5.94-105.43,29.7-96.21,65.77a29.3,29.3,0,0,0,2.21,4.6c-13.89-36.9,74.16-74.24,95.63-68.16Z" class="S"/><path d="M716.15 219.62l-4-11.72a3.15 3.15 0 0 0-2.14-2c-13.43-3.83-35 5.67-43 20.35 9.63-1.08 49.14-6.63 49.14-6.63z" fill="#981724"/><path d="M728.36 246.56c-21.67-29.15-75.8 9-77.3 22.26 0 0 .39.94.79 1.67-.88.82-1.93 1.67-4.16-2.6s-6.3-13.06-8-17.56 9-15.48 18.68-22c13.87-9.36 32-18.24 55.2-12.58 3.94 2.06 4.15 3.49 5 5.66S729 243.48 730 246s.5 3.3-.25 3.69a22.5 22.5 0 0 1-1.39-3.13z" fill="#db0b35"/><path d="M651.06 268.82l.79 1.67c-.88.82-1.93 1.67-4.16-2.6s-6.3-13.06-8-17.56c-1.59-4.1 7.29-13.63 16.19-20.21a91.7 91.7 0 0 0 11.36 20.38c-9.24 6.59-15.68 13.86-16.18 18.32zm62.49-53.05c3.94 2.06 4.15 3.49 5 5.66S729 243.48 730 246s.5 3.3-.25 3.69a22.5 22.5 0 0 1-1.37-3.09c-6.68-9-16.45-11.57-26.81-10.46a140.75 140.75 0 0 0-9.63-21.62 59 59 0 0 1 21.61 1.25z" fill="#a80f27"/><path d="M650.64 263c4.48-7.39 17.05-19.34 36.61-26.62 17.13-6.37 32.25-3.72 40.9 5.49l1.83 4.06c1 2.47.5 3.3-.25 3.69a22.5 22.5 0 0 1-1.37-3.09c-21.67-29.15-75.8 9-77.3 22.26 0 0 .39.94.79 1.67-.76.71-1.65 1.44-3.32-1.14a12.06 12.06 0 0 1 2.11-6.32z" fill="#981724"/><path d="M802.58 495l11.56 20.78c-10.14 7.4-20.34 11.31-28.56 12.36-2.5-16.83 8.42-27.77 17-33.14z" fill="#fff"/><path d="M632.68,79S605.27,20.37,603.53,2.3c-14.52-4.4-39.9,18.07-39.9,18.07a38,38,0,0,1,34.77-1.18C610.39,43.66,632.68,79,632.68,79Z" fill="#f2f2f2"/></g></svg>