<svg width="275" height="35" viewBox="0 0 275 35" fill="none" xmlns="http://www.w3.org/2000/svg">
<path d="M20.3383 0.205052C16.4355 6.0317 11.5983 5.28048 5.49684 9.89782C2.95645 11.7195 1.03749 14.2781 0 17.2269C0.0708571 12.6811 1.90821 8.34129 5.123 5.12651C8.33778 1.91172 12.6776 0.074385 17.2234 0.00352786C18.2655 -0.0167802 19.3075 0.0506144 20.3383 0.205052Z" fill="#DA0E8C"/>
<path d="M15.2996 34.8534C11.7136 34.3678 8.36566 32.7846 5.71505 30.321C3.06444 27.8573 1.24097 24.634 0.494751 21.093C1.85421 23.7529 4.0583 25.8861 6.76114 27.1579C6.76114 27.1579 7.62231 18.7111 8.99652 15.7794C8.90491 16.0176 7.82387 24.3178 15.2996 34.8534Z" fill="#7EC241"/>
<path d="M27.7591 15.5962C20.4299 21.9725 17.2418 28.4221 16.6554 34.9634C14.1816 32.0777 12.4523 28.63 11.6186 24.9217C10.785 21.2134 10.8724 17.3574 11.8732 13.6906C13.0825 29.7597 20.1734 18.5278 27.7591 15.5962Z" fill="#61ABC6"/>
<path d="M4.61736 23.0169C5.66978 23.0169 6.52293 22.1638 6.52293 21.1113C6.52293 20.0589 5.66978 19.2058 4.61736 19.2058C3.56494 19.2058 2.71179 20.0589 2.71179 21.1113C2.71179 22.1638 3.56494 23.0169 4.61736 23.0169Z" fill="#7EC241"/>
<path d="M28.9683 25.2706C28.9683 25.633 28.8608 25.9873 28.6595 26.2886C28.4581 26.5899 28.172 26.8248 27.8372 26.9634C27.5024 27.1021 27.134 27.1384 26.7785 27.0677C26.4231 26.997 26.0966 26.8225 25.8404 26.5663C25.5841 26.31 25.4096 25.9835 25.3389 25.6281C25.2682 25.2727 25.3045 24.9043 25.4432 24.5695C25.5819 24.2347 25.8167 23.9485 26.118 23.7472C26.4193 23.5458 26.7736 23.4383 27.136 23.4383C27.6219 23.4383 28.088 23.6314 28.4316 23.975C28.7752 24.3186 28.9683 24.7847 28.9683 25.2706Z" fill="#DA0E8C"/>
<path d="M18.8175 16.9704C18.8175 17.4814 18.666 17.9809 18.3821 18.4057C18.0983 18.8306 17.6948 19.1617 17.2227 19.3573C16.7506 19.5528 16.2312 19.6039 15.73 19.5043C15.2289 19.4046 14.7685 19.1586 14.4072 18.7972C14.0459 18.4359 13.7998 17.9756 13.7002 17.4744C13.6005 16.9733 13.6516 16.4538 13.8472 15.9817C14.0427 15.5097 14.3738 15.1062 14.7987 14.8223C15.2236 14.5384 15.7231 14.3869 16.234 14.3869C16.9177 14.3917 17.5721 14.6654 18.0555 15.1489C18.539 15.6324 18.8127 16.2867 18.8175 16.9704Z" fill="#61ABC6"/>
<path d="M28.95 4.2727C27.5575 6.32485 23.4532 8.48697 17.2234 9.10994C10.3341 9.80621 9.28967 14.4602 9.28967 14.4602C9.63781 11.5285 10.6639 9.97108 15.3362 7.13105C17.8595 5.50454 19.9026 3.23368 21.2545 0.553177C24.0927 1.12292 26.7403 2.40259 28.95 4.2727Z" fill="#61ABC6"/>
<path d="M34.8134 20.5617C34.284 18.0462 33.2473 15.6651 31.7667 13.5638C30.286 11.4625 28.3924 9.68515 26.2017 8.34038C27.4673 7.30618 28.5511 6.06757 29.4081 4.67583C31.165 6.27716 32.5742 8.2224 33.5481 10.3909C34.5221 12.5594 35.04 14.9049 35.0699 17.2819C35.0829 18.3807 34.997 19.4784 34.8134 20.5617Z" fill="#7EC241"/>
<path d="M34.1902 23.0352C33.0393 26.4723 30.8516 29.4684 27.928 31.611C25.0044 33.7536 21.4887 34.9376 17.8646 35H17.5714C17.6276 32.1874 18.4245 29.4394 19.8817 27.0331C21.339 24.6268 23.4051 22.6474 25.8716 21.2946C23.8749 23.7134 22.6044 26.6485 22.2071 29.7597C22.2071 29.7597 32.4678 27.506 34.1902 23.0352Z" fill="#DA0E8C"/>
<path d="M32.7978 20.7632C32.2028 20.6562 31.5895 20.7887 31.0918 21.1319C30.5941 21.4752 30.2523 22.0013 30.141 22.5955C29.5684 22.4622 29.0682 22.1154 28.7425 21.6259C28.4168 21.1364 28.2901 20.5412 28.3883 19.9615C28.4864 19.3818 28.8021 18.8614 29.2708 18.5065C29.7395 18.1515 30.3259 17.9888 30.9105 18.0514C30.8526 18.3538 30.8557 18.6647 30.9196 18.9658C30.9836 19.2669 31.1071 19.5522 31.283 19.8049C31.4588 20.0575 31.6834 20.2725 31.9436 20.4371C32.2037 20.6017 32.4941 20.7125 32.7978 20.7632Z" fill="#DA0E8C"/>
<path d="M7.42072 15.6329C6.82629 15.5307 6.21549 15.6652 5.71897 16.0076C5.22246 16.35 4.87967 16.8732 4.76392 17.4651C4.8613 16.8713 4.72484 16.2628 4.38321 15.7675C4.04157 15.2721 3.52131 14.9283 2.93164 14.8083C3.52607 14.9105 4.13688 14.7759 4.63339 14.4335C5.12991 14.0911 5.4727 13.568 5.58844 12.976C5.48137 13.5711 5.6139 14.1843 5.95714 14.682C6.30038 15.1797 6.82648 15.5215 7.42072 15.6329Z" fill="#7EC241"/>
<path d="M26.9894 12.9944C26.188 12.8615 25.3666 13.0508 24.7042 13.521C24.0417 13.9912 23.592 14.7042 23.4531 15.5046C23.5859 14.7032 23.3966 13.8817 22.9264 13.2193C22.4562 12.5569 21.7432 12.1073 20.9429 11.9683C21.7422 12.1066 22.5638 11.9217 23.2269 11.4544C23.89 10.9872 24.3404 10.2757 24.4792 9.47638C24.411 9.87241 24.4221 10.278 24.5116 10.6698C24.6011 11.0615 24.7674 11.4316 25.0008 11.7587C25.2342 12.0858 25.5301 12.3635 25.8714 12.5756C26.2128 12.7876 26.5927 12.93 26.9894 12.9944Z" fill="#61ABC6"/>
<path d="M58.5398 19.8005C58.5516 20.3256 58.4564 20.8476 58.26 21.3347C58.0636 21.8218 57.7701 22.2638 57.3974 22.6339C57.0246 23.0039 56.5805 23.2943 56.092 23.4872C55.6035 23.6801 55.0809 23.7716 54.5559 23.7561H49.6221V10.8261H53.1381C53.6102 10.7994 54.0828 10.867 54.5284 11.025C54.974 11.183 55.3837 11.4282 55.7335 11.7463C56.0833 12.0644 56.3661 12.449 56.5656 12.8777C56.7651 13.3063 56.8771 13.7704 56.8952 14.2429C56.9351 14.6929 56.8405 15.1447 56.6234 15.5409C56.4064 15.9371 56.0766 16.2601 55.6759 16.4688C56.4853 16.5611 57.2299 16.9556 57.7609 17.5733C58.2919 18.191 58.5701 18.9865 58.5398 19.8005ZM52.2024 13.3072V15.8308H53.2657C53.5954 15.8197 53.9077 15.6799 54.1356 15.4414C54.3635 15.2029 54.4889 14.8846 54.485 14.5548C54.4907 14.3953 54.4646 14.2363 54.4084 14.087C54.3521 13.9378 54.2668 13.8011 54.1573 13.6851C54.0479 13.569 53.9165 13.4758 53.7707 13.411C53.6249 13.3461 53.4678 13.3108 53.3083 13.3072H52.2024ZM55.9737 19.6587C55.9717 19.4408 55.9233 19.2259 55.8317 19.0282C55.74 18.8305 55.6072 18.6546 55.4421 18.5123C55.277 18.3701 55.0835 18.2647 54.8744 18.2032C54.6654 18.1418 54.4456 18.1256 54.2298 18.1559H52.2024V21.2183H54.2582C54.6911 21.2338 55.113 21.0794 55.4336 20.7879C55.7542 20.4965 55.948 20.0912 55.9737 19.6587Z" fill="#3A3A3B"/>
<path d="M62.6087 13.3781V15.9159H67.0605V18.5104H62.6087V21.2183H67.8119V23.7987H60V10.8687H67.8119V13.4206L62.6087 13.3781Z" fill="#3A3A3B"/>
<path d="M77.5805 21.9555H72.3915L71.5692 23.7561H68.7336L74.9151 10.5H75.0002L81.1816 23.7561H78.3461L77.5805 21.9555ZM76.5597 19.8005L74.986 16.3412L73.4123 19.8005H76.5597Z" fill="#3A3A3B"/>
<path d="M80.7419 17.3053C80.7566 15.5273 81.4665 13.8257 82.7197 12.5645C83.973 11.3032 85.6701 10.5826 87.448 10.5568C89.1644 10.5999 90.7947 11.3182 91.9848 12.5558L90.4962 14.5974C89.7001 13.7424 88.6007 13.2335 87.4338 13.1796C86.3471 13.1796 85.3049 13.6113 84.5365 14.3797C83.7681 15.1481 83.3365 16.1903 83.3365 17.277C83.3365 18.3636 83.7681 19.4058 84.5365 20.1742C85.3049 20.9426 86.3471 21.3743 87.4338 21.3743C88.605 21.3211 89.709 20.8123 90.5103 19.9565L91.999 22.0548C91.4307 22.6783 90.7389 23.1767 89.9677 23.5184C89.1964 23.8601 88.3624 24.0376 87.5189 24.0397C85.73 24.036 84.0148 23.3267 82.7459 22.0657C81.477 20.8048 80.7569 19.0941 80.7419 17.3053Z" fill="#3A3A3B"/>
<path d="M92.3395 17.3052C92.3423 15.9733 92.74 14.6721 93.4823 13.5662C94.2246 12.4603 95.2782 11.5994 96.5098 11.0922C97.7414 10.5851 99.0958 10.4546 100.402 10.7172C101.707 10.9798 102.906 11.6237 103.846 12.5676C104.786 13.5114 105.424 14.7126 105.682 16.0195C105.939 17.3264 105.802 18.6802 105.29 19.9097C104.778 21.1391 103.912 22.1891 102.803 22.9267C101.694 23.6644 100.392 24.0566 99.0597 24.0538C97.2748 24.0463 95.5655 23.332 94.306 22.0672C93.0466 20.8024 92.3395 19.0901 92.3395 17.3052ZM103.157 17.3052C103.16 16.4942 102.922 15.7007 102.473 15.025C102.025 14.3493 101.386 13.822 100.638 13.5097C99.8891 13.1974 99.0648 13.1142 98.2691 13.2707C97.4733 13.4272 96.7419 13.8163 96.1675 14.3888C95.593 14.9612 95.2014 15.6913 95.0421 16.4865C94.8829 17.2817 94.9632 18.1062 95.2729 18.8557C95.5826 19.6052 96.1078 20.246 96.7819 20.6969C97.456 21.1477 98.2487 21.3884 99.0597 21.3884C100.145 21.3847 101.185 20.9518 101.953 20.1842C102.72 19.4166 103.153 18.3766 103.157 17.2911V17.3052Z" fill="#3A3A3B"/>
<path d="M117.887 10.7835V24.0538H117.76L110.076 16.5822V23.8411H107.481V10.585H107.609L115.279 18.0425V10.7835H117.887Z" fill="#3A3A3B"/>
<path d="M133.128 13.3922H129.953V23.7561H127.344V13.3922H124.154V10.8261H133.128V13.3922Z" fill="#3A3A3B"/>
<path d="M134.49 18.9782V10.8261H137.098V18.9641C137.073 19.2913 137.115 19.6203 137.223 19.9303C137.331 20.2404 137.502 20.5248 137.725 20.7657C137.948 21.0066 138.218 21.1988 138.519 21.3302C138.82 21.4617 139.145 21.5295 139.473 21.5295C139.801 21.5295 140.126 21.4617 140.427 21.3302C140.728 21.1988 140.998 21.0066 141.221 20.7657C141.444 20.5248 141.615 20.2404 141.723 19.9303C141.83 19.6203 141.873 19.2913 141.848 18.9641V10.8261H144.471V18.9782C144.545 19.6744 144.472 20.3785 144.257 21.0448C144.041 21.711 143.688 22.3244 143.22 22.8452C142.752 23.366 142.18 23.7824 141.54 24.0675C140.901 24.3526 140.209 24.5 139.508 24.5C138.808 24.5 138.116 24.3526 137.476 24.0675C136.837 23.7824 136.264 23.366 135.796 22.8452C135.328 22.3244 134.975 21.711 134.76 21.0448C134.544 20.3785 134.472 19.6744 134.546 18.9782H134.49Z" fill="#3A3A3B"/>
<path d="M154.792 13.3922H151.616V23.7561H149.007V13.3922H145.817V10.8261H154.792V13.3922Z" fill="#3A3A3B"/>
<path d="M155.047 17.3053C155.042 15.9715 155.432 14.6662 156.169 13.5547C156.906 12.4432 157.957 11.5757 159.188 11.062C160.419 10.5484 161.775 10.4118 163.083 10.6695C164.392 10.9273 165.594 11.5679 166.538 12.51C167.482 13.4521 168.126 14.6533 168.386 15.9614C168.647 17.2694 168.513 18.6254 168.002 19.8573C167.491 21.0893 166.626 22.1417 165.516 22.8813C164.406 23.6208 163.101 24.0141 161.767 24.0113C159.99 24.0039 158.287 23.2954 157.029 22.0398C155.77 20.7842 155.058 19.0828 155.047 17.3053ZM165.879 17.3053C165.885 16.4909 165.648 15.6933 165.2 15.0134C164.751 14.3335 164.111 13.8021 163.361 13.4866C162.61 13.1711 161.782 13.0855 160.983 13.241C160.183 13.3964 159.448 13.7857 158.87 14.3596C158.292 14.9335 157.898 15.666 157.737 16.4643C157.576 17.2627 157.656 18.0908 157.966 18.8437C158.277 19.5967 158.803 20.2405 159.48 20.6935C160.157 21.1466 160.953 21.3884 161.767 21.3885C162.855 21.3885 163.899 20.9572 164.67 20.1892C165.44 19.4212 165.875 18.3791 165.879 17.2911V17.3053Z" fill="#3A3A3B"/>
<path d="M176.923 23.7562L172.798 17.6456V23.7562H170.203V10.8262H174.457C175.021 10.8073 175.584 10.9009 176.111 11.1018C176.639 11.3026 177.122 11.6066 177.531 11.9959C177.94 12.3853 178.268 12.8521 178.494 13.3694C178.721 13.8866 178.843 14.4439 178.852 15.0086C178.87 15.782 178.652 16.5426 178.226 17.1886C177.8 17.8347 177.188 18.3354 176.47 18.6239L180.142 23.7562H176.923ZM172.798 16.6674H174.471C174.687 16.6711 174.902 16.6317 175.103 16.5515C175.304 16.4712 175.488 16.3517 175.642 16.1999C175.796 16.0482 175.919 15.8671 176.003 15.6675C176.086 15.4678 176.13 15.2535 176.129 15.0369C176.122 14.6019 175.944 14.1873 175.634 13.8823C175.323 13.5773 174.906 13.4064 174.471 13.4065H172.798V16.6674Z" fill="#3A3A3B"/>
<path d="M180.737 21.5302L182.807 20.1124C183.062 20.5441 183.431 20.897 183.874 21.1322C184.317 21.3673 184.816 21.4756 185.316 21.4451C186.55 21.4451 187.358 20.9489 187.358 20.2542C187.358 19.3043 185.813 18.567 184.452 17.8865C183.091 17.206 181.403 16.3695 181.403 14.3138C181.424 13.785 181.553 13.2659 181.78 12.7883C182.008 12.3107 182.331 11.8845 182.729 11.5357C183.127 11.1868 183.592 10.9227 184.095 10.7592C184.598 10.5958 185.13 10.5365 185.657 10.585C186.455 10.5091 187.256 10.6913 187.942 11.1047C188.629 11.5182 189.164 12.1411 189.471 12.8818L187.557 14.2996C187.382 13.9604 187.115 13.6777 186.786 13.4844C186.457 13.2911 186.08 13.1952 185.699 13.2079C184.735 13.2079 184.012 13.775 184.012 14.4413C184.012 15.1077 184.99 15.4763 186.479 16.171C188.62 17.1918 189.967 18.2835 189.967 20.2683C189.967 22.636 188.039 24.1389 185.274 24.1389C184.347 24.1853 183.426 23.964 182.622 23.5015C181.817 23.0389 181.163 22.3546 180.737 21.5302Z" fill="#3A3A3B"/>
<path d="M196.333 10.8261H200.884C202.042 10.8261 203.152 11.2861 203.971 12.1051C204.79 12.924 205.25 14.0347 205.25 15.1928C205.25 16.3509 204.79 17.4616 203.971 18.2805C203.152 19.0994 202.042 19.5595 200.884 19.5595H198.941V23.8128H196.333V10.8261ZM202.84 15.1786C202.814 14.6834 202.595 14.2183 202.228 13.8839C201.862 13.5496 201.379 13.3729 200.884 13.3922H198.941V16.965H200.884C201.371 16.9695 201.841 16.7866 202.197 16.4542C202.554 16.1217 202.768 15.665 202.798 15.1786H202.84Z" fill="#7EC241"/>
<path d="M212.297 21.9555H207.122L206.299 23.7561H203.464L209.645 10.5H209.716L215.912 23.7561H213.076L212.297 21.9555ZM211.29 19.7438L209.716 16.2845L208.142 19.8005L211.29 19.7438Z" fill="#7EC241"/>
<path d="M223.752 23.7561L219.825 18.085V23.7561H217.23V10.8261H219.825V16.4121L223.454 10.8261H226.46L222.306 17.1493L226.914 23.7561H223.752Z" fill="#7EC241"/>
<path d="M228.161 10.8261H230.756V23.7561H228.161V10.8261Z" fill="#7EC241"/>
<path d="M232.33 21.5301L234.414 20.1124C234.667 20.5452 235.036 20.899 235.48 21.1343C235.923 21.3696 236.422 21.4772 236.923 21.4451C238.142 21.4451 238.965 20.9489 238.965 20.2542C238.965 19.3043 237.405 18.567 236.129 17.8865C234.853 17.206 233.081 16.3695 233.081 14.3137C233.102 13.7849 233.23 13.2659 233.458 12.7883C233.686 12.3107 234.009 11.8845 234.407 11.5357C234.805 11.1868 235.269 10.9226 235.773 10.7592C236.276 10.5957 236.807 10.5365 237.334 10.585C238.131 10.5136 238.931 10.6977 239.616 11.1106C240.302 11.5235 240.838 12.1438 241.148 12.8818L239.22 14.2995C239.048 13.9615 238.783 13.6793 238.457 13.486C238.131 13.2927 237.756 13.1962 237.377 13.2079C236.399 13.2079 235.676 13.775 235.676 14.4413C235.676 15.1077 236.654 15.4763 238.142 16.171C240.283 17.1918 241.63 18.2834 241.63 20.2683C241.63 22.636 239.702 24.1388 236.937 24.1388C235.999 24.1975 235.064 23.9821 234.246 23.519C233.428 23.0558 232.762 22.3648 232.33 21.5301Z" fill="#7EC241"/>
<path d="M251.342 13.3922H248.152V23.7561H245.543V13.3922H242.367V10.8261H251.342V13.3922Z" fill="#7EC241"/>
<path d="M259.055 21.9555H253.88L253.043 23.7561H250.208L256.389 10.5H256.474L262.656 23.7561H259.82L259.055 21.9555ZM258.034 19.7438L256.46 16.2845L254.886 19.8005L258.034 19.7438Z" fill="#7EC241"/>
<path d="M274.38 10.7835V24.0538H274.31L266.625 16.5822V23.8411H264.017V10.585H264.144L271.814 18.0425V10.7835H274.38Z" fill="#7EC241"/>
</svg>
