<svg xmlns="http://www.w3.org/2000/svg" viewBox="0 0 217.99 82.59"><defs><style>.cls-1{fill:none;stroke:#3e6c98;stroke-linecap:round;stroke-linejoin:round;stroke-width:5px;}.cls-2{fill:#3e6c98;}</style></defs><g id="Layer_2" data-name="Layer 2"><g id="Layer_1-2" data-name="Layer 1"><path class="cls-1" d="M5.54,23.45A67.86,67.86,0,0,0,29,57.79C33.13,61,53.57,76.68,79.5,70.42c1.23-.3,23.73-6,35.16-26.78,2.47-4.49,9-16.4,4.73-28-.73-2-2.78-7.28-8.27-10.47C109.84,4.38,103,.4,96.37,4a13.64,13.64,0,0,0-7,10.77C88.91,20,91.92,23.88,93,25.27c5.28,6.92,15.53,9.85,23.75,8.85,18.7-2.27,18.88-22.72,40-29.43,17.23-5.48,32.58,3.21,33.64,3.83C204.51,16.8,208.71,31.41,209.74,35c3.89,13.53.83,25.93-3,34.72"/><path class="cls-2" d="M.19,25.17a5.64,5.64,0,1,1,6.9,4A5.64,5.64,0,0,1,.19,25.17Z"/><polygon class="cls-2" points="201.83 58.91 207.99 66.86 217.99 67.94 199.21 82.59 201.83 58.91"/></g></g></svg>