<svg xmlns="http://www.w3.org/2000/svg" viewBox="0 0 217.99 82.59"><defs><style>.cls-1{fill:none;stroke:#3e6c98;stroke-linecap:round;stroke-linejoin:round;stroke-width:5px;}.cls-2{fill:#3e6c98;}</style></defs><g id="Layer_2" data-name="Layer 2"><g id="Layer_1-2" data-name="Layer 1"><path class="cls-1" d="M212.46,23.45A68,68,0,0,1,189,57.79c-4.18,3.2-24.62,18.89-50.55,12.63-1.23-.3-23.73-6-35.16-26.78-2.47-4.49-9-16.4-4.72-28a19.52,19.52,0,0,1,8.26-10.47C108.15,4.38,115,.4,121.62,4a13.64,13.64,0,0,1,7,10.77c.45,5.3-2.56,9.16-3.61,10.55-5.28,6.92-15.54,9.85-23.76,8.85-18.7-2.27-18.88-22.72-40-29.43C44.05-.79,28.7,7.9,27.64,8.52,13.48,16.8,9.28,31.41,8.25,35c-3.89,13.53-.83,25.93,3,34.72"/><path class="cls-2" d="M206.9,22.27a5.64,5.64,0,1,1,4,6.9A5.64,5.64,0,0,1,206.9,22.27Z"/><polygon class="cls-2" points="0 67.94 10 66.86 16.16 58.91 18.79 82.59 0 67.94"/></g></g></svg>