<svg xmlns="http://www.w3.org/2000/svg" xmlns:xlink="http://www.w3.org/1999/xlink" viewBox="0 0 775.09 607.73"><defs><style>.cls-1,.cls-12,.cls-13,.cls-14,.cls-16,.cls-22,.cls-24,.cls-29,.cls-45,.cls-51,.cls-56,.cls-6{fill:none;}.cls-2{fill:#ffd3c8;}.cls-3{fill:#2a3756;}.cls-15,.cls-4{fill:#fff;}.cls-5{isolation:isolate;}.cls-51,.cls-6{stroke:#8098af;}.cls-12,.cls-13,.cls-14,.cls-15,.cls-45,.cls-56,.cls-6{stroke-linecap:round;}.cls-22,.cls-29,.cls-45,.cls-51,.cls-56,.cls-6{stroke-miterlimit:10;}.cls-6{stroke-width:7.13px;}.cls-7{fill:#ffe39b;}.cls-8{fill:#e6b147;}.cls-9{fill:#061537;}.cls-10{clip-path:url(#clip-path);}.cls-11{fill:#f1b2a2;}.cls-12,.cls-15{stroke:#9d3f28;}.cls-12,.cls-13,.cls-14,.cls-15,.cls-16{stroke-miterlimit:10;}.cls-12,.cls-13,.cls-15,.cls-16{stroke-width:0.5px;}.cls-13,.cls-16{stroke:#324a83;}.cls-14,.cls-56{stroke:#061537;}.cls-14{stroke-width:0.83px;}.cls-17{clip-path:url(#clip-path-2);}.cls-18{clip-path:url(#clip-path-3);}.cls-19{fill:#7d4545;}.cls-20{fill:#955454;}.cls-21{clip-path:url(#clip-path-4);}.cls-22{stroke:#301913;}.cls-22,.cls-29,.cls-51,.cls-56{stroke-width:0.5px;}.cls-23{clip-path:url(#clip-path-5);}.cls-24,.cls-29{stroke:#99776c;}.cls-24{stroke-miterlimit:10;stroke-width:0.5px;}.cls-25{fill:#ff9378;}.cls-26{clip-path:url(#clip-path-6);}.cls-27{fill:#df775d;}.cls-28{clip-path:url(#clip-path-7);}.cls-30{clip-path:url(#clip-path-8);}.cls-31,.cls-39,.cls-41{fill:#00bcff;}.cls-32{clip-path:url(#clip-path-9);}.cls-33,.cls-37{fill:#f44259;}.cls-34{fill:#824848;}.cls-35,.cls-36{fill:#ff9700;}.cls-36,.cls-37,.cls-39,.cls-41,.cls-42{mix-blend-mode:multiply;}.cls-36{opacity:0.27;}.cls-37{opacity:0.1;}.cls-38{fill:#56d4b7;}.cls-39{opacity:0.38;}.cls-40{clip-path:url(#clip-path-10);}.cls-41{opacity:0.24;}.cls-42{fill:#ffc9af;opacity:0.3;}.cls-43{clip-path:url(#clip-path-11);}.cls-44{opacity:0.21;}.cls-45{stroke:#607385;stroke-width:5.99px;}.cls-46{fill:#a1bedb;}.cls-47{fill:#d0e6f6;}.cls-48{fill:#dc5f58;}.cls-49{clip-path:url(#clip-path-12);}.cls-50{fill:#e6e6e6;}.cls-52{clip-path:url(#clip-path-13);}.cls-53{fill:#4c7fff;}.cls-54{clip-path:url(#clip-path-14);}.cls-55{fill:#f2f2f2;}.cls-57{fill:#f5f5f5;}.cls-58{fill:#8098af;}.cls-59{fill:#1a2e35;}.cls-60{fill:#e1e1e1;}</style><clipPath id="clip-path"><path class="cls-1" d="M466.86,83.7a33.7,33.7,0,0,1,2.92-15c11.66-.2,11.67-11.52,7.71-13s-7.28,4.1-7.28,4.1c1.54-11-9.61-2.39-14.71-20.34S434.8,29,432.39,33.65s-22.15,53.23,8.6,59a59.66,59.66,0,0,1-2.69,15.69,81.46,81.46,0,0,1-2.91,8.34c-5.09,8.49-21.27,28.78-6.28,39.28s43.51-12.05,41.47-29.51S467.13,92.41,466.86,83.7Z"/></clipPath><clipPath id="clip-path-2"><path class="cls-1" d="M454.93,475.66s-10.59,33-10.59,44.57,3.14,51.38-7.91,54.9-25.72-1.82-20.41-36.22,18.89-77.73,18.89-77.73Z"/></clipPath><clipPath id="clip-path-3"><path class="cls-1" d="M548.35,419.15s12.12,16,12.12,21.12-2.94,8,16.79,22.46,48,39.74,54.13,24.87-33.55-33.19-50-60.49S556.31,392,556.31,392Z"/></clipPath><clipPath id="clip-path-4"><path class="cls-1" d="M344.07,323.33s-12.81,51.78,37.71,54.4,88.56-62.07,104-36.4,30.53,67.3,57.42,82l28.4-17.87s-46.68-123.73-72.32-126.84c-11.81-1.43-59-.84-103.91,13.95C375.27,299.18,344.07,323.33,344.07,323.33Z"/></clipPath><clipPath id="clip-path-5"><path class="cls-1" d="M301.48,145.51s-13.1-26.49-25.73-29A152.18,152.18,0,0,1,256.31,103c-5.26-5.08-7.14,2.4-4.49,5.17s12.86,12.14,12.82,13-9.21.31-14-4.66-5.26-7.66-7.86-5.74a9.26,9.26,0,0,1-4.76-7.9c-.48-6-5.61-6.88-5.63-6.14s2.2,11.88,2.2,11.88-4.38-6.52-6.31-6.59a2.9,2.9,0,0,0-2.77,3,2.78,2.78,0,0,0,.12.7c.5,1.57-4.8-2.66-3.49,3.16s27.82,28.93,41.89,29.42,22,19,22,19Z"/></clipPath><clipPath id="clip-path-6"><path class="cls-1" d="M356.17,286.2c11.53-20.8,22.11-29.57,24.35-35.44,4.85-12.74-2.2-39.43-2.2-39.43S358.43,259.81,337.09,266s-59-113.42-59-113.42l24.74-11.06,31.75,65.63s21.71-65.86,38.44-87.53c10.73-13.88,39.73-14.38,63.5-11.93,1.39.14-2,1-2,2,.2,4.5-5,15.23-.44,16,2.73.48,10.8,9.51,16.43,7.52,10.47-3.7,19.63-19.9,20.58-19.58,37.56,12.39,50.7,25.33,55.3,32.87l.5-.66S570.24,244.63,552.48,261s-108.07,29.58-108.07,29.58l-.76-4.13c-24.13,2.08-55.51,15.27-93.16,34.77-3.15,1.64-9,4.19-9,4.19S351,295.55,356.17,286.2Zm129.29-32.65c17.72-7.29,34-14.29,34-15.5,0-2.3-15.08-36.87-19.13-46.09A165.53,165.53,0,0,0,485.46,253.55Z"/></clipPath><clipPath id="clip-path-7"><path class="cls-1" d="M441,274.05a31.56,31.56,0,0,1-12.25,0c-4.37-1.48-8.92-7-22.71-3.49s-28.16,8.5-23.32,9.91S401.87,278,401.87,278s-18.77,9.8-17.92,17.79a2.86,2.86,0,0,0,3.87,1.16,3.51,3.51,0,0,0,.59-.42s.4,5.11,3.73,3.88,11-11.18,17.29-12.11c0,0-13.2,11.22-11.25,14.46s11.22-10.71,18.4-12.17,2.81,5.81,26.64-2.05Z"/></clipPath><clipPath id="clip-path-8"><path class="cls-3" d="M325,477.08s37.62,7.45,28.83,16.2S295,510.4,292.61,507.06s-9.84-28.15-9.84-28.15l34.74-15.69Z"/></clipPath><clipPath id="clip-path-9"><path class="cls-3" d="M275,498.86s31.48,21.91,19.93,26.4-60.75-7.89-61.62-11.92,2.27-29.73,2.27-29.73l38.11-.45Z"/></clipPath><clipPath id="clip-path-10"><path class="cls-4" d="M75.68,257.84c3.47-51,5.8-63.7,11.77-71.16s27.72-10.64,43.08-11.24,37.78,3.74,44.16,8.11,10.23,23,9.24,46.1c-.86,20-5.07,41.31-4.9,50.58.31,17.21,3.69,23.85,6.15,36.65C166,330.25,91.66,337.41,75.72,334.21,74.15,316.81,74,282.53,75.68,257.84Z"/></clipPath><clipPath id="clip-path-11"><path class="cls-2" d="M153.88,165.3,131.26,162l-2.48,18.65a4.86,4.86,0,0,0,1.09,3.76,19.39,19.39,0,0,0,12.81,7c6.94.81,7.82-2.38,7.72-4.36a23.75,23.75,0,0,1,.48-5.5Z"/></clipPath><clipPath id="clip-path-12"><rect class="cls-1" x="617.75" y="251.7" width="123.59" height="27.23" rx="6.28"/></clipPath><clipPath id="clip-path-13"><rect class="cls-1" x="617.75" y="230.75" width="98.45" height="20.95" rx="5.03"/></clipPath><clipPath id="clip-path-14"><rect class="cls-1" x="634.51" y="209.81" width="98.45" height="20.95" rx="5.03"/></clipPath></defs><g class="cls-5"><g id="Layer_2" data-name="Layer 2"><g id="_1" data-name="1"><path id="Path_286" data-name="Path 286" class="cls-6" d="M160.63,392.41V574.79"/><path id="Path_469" data-name="Path 469" class="cls-6" d="M86.84,392.41l-23,182.38"/><path id="Path_470" data-name="Path 470" class="cls-6" d="M237.87,392.41l22.21,182.38"/><path id="Path_265" data-name="Path 265" class="cls-7" d="M15.69,183H152.22l18.3,174.84a21.07,21.07,0,0,0,21,18.88h95.28a7.86,7.86,0,0,1,7.85,7.85h0a7.85,7.85,0,0,1-7.85,7.85H61.05a27.27,27.27,0,0,1-27.14-24.6Z"/><path id="Path_265_Copy" data-name="Path 265 Copy" class="cls-8" d="M16.3,188a5.68,5.68,0,0,1,5.1-6.21,5.25,5.25,0,0,1,.56,0h0A7,7,0,0,1,28.88,188L46.54,357.81a21.08,21.08,0,0,0,21,18.9H193.77a7.85,7.85,0,0,1,7.85,7.85h0a7.84,7.84,0,0,1-7.85,7.85H61.06a27.28,27.28,0,0,1-27.14-24.62Z"/><path id="Path_286-2" data-name="Path 286" class="cls-6" d="M455,392.41V574.79"/><path id="Path_469-2" data-name="Path 469" class="cls-6" d="M528.78,392.41l23,182.38"/><path id="Path_470-2" data-name="Path 470" class="cls-6" d="M377.75,392.41,355.54,574.79"/><path id="Path_265-2" data-name="Path 265" class="cls-7" d="M599.92,183H463.4L445.1,357.83a21.09,21.09,0,0,1-21,18.88H328.85a7.85,7.85,0,0,0-7.85,7.85h0a7.84,7.84,0,0,0,7.85,7.85H554.57a27.27,27.27,0,0,0,27.14-24.6Z"/><path id="Path_265_Copy-2" data-name="Path 265 Copy" class="cls-8" d="M599.31,188a5.67,5.67,0,0,0-5.1-6.21,5.07,5.07,0,0,0-.55,0h0a6.94,6.94,0,0,0-6.92,6.23L569.07,357.81a21.07,21.07,0,0,1-21,18.9H421.84a7.86,7.86,0,0,0-7.85,7.85h0a7.85,7.85,0,0,0,7.85,7.85H554.55a27.28,27.28,0,0,0,27.15-24.62Z"/><g id="women-7"><g id="head-18"><path id="Path_349-5" data-name="Path 349-5" class="cls-9" d="M432.2,113.82s-32.68,2.29-37.12-24.34,25.27-40.14,25.27-40.14-9.55-28.78,14.87-36.43c0,0,15.16-21.68,44.33-8.85s15.61,40.35,29.37,47.1,31.48,11,25.63,32.36c0,0,22.41,18.69,11.31,52.59s-68,17.91-61.21-11.52c0,0-19.29,5.33-23.08-6.69S432.2,113.82,432.2,113.82Z"/><g id="Path_354-13" data-name="Path 354-13"><path id="Mask-308" class="cls-2" d="M466.86,83.7a33.7,33.7,0,0,1,2.92-15c11.66-.2,11.67-11.52,7.71-13s-7.28,4.1-7.28,4.1c1.54-11-9.61-2.39-14.71-20.34S434.8,29,432.39,33.65s-22.15,53.23,8.6,59a59.66,59.66,0,0,1-2.69,15.69,81.46,81.46,0,0,1-2.91,8.34c-5.09,8.49-21.27,28.78-6.28,39.28s43.51-12.05,41.47-29.51S467.13,92.41,466.86,83.7Z"/><g class="cls-10"><g id="Path_354-14" data-name="Path 354-14"><path id="Path_354-15" data-name="Path 354-15" class="cls-11" d="M439.43,92.34S452.49,96,462.17,79.18c0,0-4.11,31.86-23.28,32.55S439.43,92.34,439.43,92.34Z"/></g></g></g><path id="Path_350-5" data-name="Path 350-5" class="cls-12" d="M439.38,49.13a39.46,39.46,0,0,1-3.5,11.53c-2.62,4.86-4.82,7.91,3.53,8.41"/><ellipse id="Oval-29" class="cls-9" cx="432.11" cy="49.35" rx="1.75" ry="1.74" transform="matrix(0.14, -0.99, 0.99, 0.14, 323.1, 470.39)"/><ellipse id="Oval-30" class="cls-13" cx="430.19" cy="49.33" rx="7.18" ry="7.13" transform="matrix(0.14, -0.99, 0.99, 0.14, 321.46, 468.47)"/><ellipse id="Oval_Copy_29-7" data-name="Oval Copy 29-7" class="cls-13" cx="447.59" cy="54.2" rx="7.18" ry="7.13" transform="matrix(0.14, -0.99, 0.99, 0.14, 331.62, 489.9)"/><ellipse id="Oval_Copy_28-5" data-name="Oval Copy 28-5" class="cls-9" cx="447.86" cy="54.04" rx="1.75" ry="1.74" transform="translate(332.01 490.01) rotate(-82)"/><path id="Path_351-5" data-name="Path 351-5" class="cls-14" d="M444.48,45.2s8.86-1.09,12,5.37"/><path id="Path_352-5" data-name="Path 352-5" class="cls-14" d="M430.33,40.57a5.52,5.52,0,0,1,5.47,1.65"/><path id="Path_353-5" data-name="Path 353-5" class="cls-15" d="M430.15,72.26a12.68,12.68,0,0,0,15.3,3.53s-5.54,6-9.6,4.8S430.15,72.26,430.15,72.26Z"/><path id="Path_378-5" data-name="Path 378-5" class="cls-13" d="M454.85,53.81l17.7.72"/><path id="Path_379-5" data-name="Path 379-5" class="cls-16" d="M437.28,49.57,441,51"/></g><g id="foot-14"><g id="right-7"><path id="Path_411-3" data-name="Path 411-3" class="cls-3" d="M425.39,496.67s-10.43,9.18-12.85,20.71-2.91,31.69-5.63,47.6.92,40,22.22,42.65,23.51-48.7,15.9-62.88S425.39,496.67,425.39,496.67Z"/><g id="Path_408" data-name="Path 408"><path id="Mask-309" class="cls-2" d="M454.93,475.66s-10.59,33-10.59,44.57,3.14,51.38-7.91,54.9-25.72-1.82-20.41-36.22,18.89-77.73,18.89-77.73Z"/><g class="cls-17"><g id="Path_408-2" data-name="Path 408-2"><path id="Path_408-3" data-name="Path 408-3" class="cls-11" d="M456.54,478.08a40.74,40.74,0,0,1-29,8.78c-16.53-2,4.3-18.69,4.3-18.69Z"/><path id="Path_463" data-name="Path 463" class="cls-11" d="M435.5,482.43s-18.27,46.75-15.24,94.71-22.85-45.4-22.85-45.4L422,468.17Z"/></g></g></g></g><g id="left-7"><path id="Path_409" data-name="Path 409" class="cls-3" d="M560.47,440.27s-8.45,10.85-3.33,16.92,34.43,37.79,42.21,44.69,26.23,16.78,40,13.27,20.54-17.94-12.76-42.17A218.86,218.86,0,0,0,560.47,440.27Z"/><g id="Path_459" data-name="Path 459"><path id="Mask-310" class="cls-2" d="M548.35,419.15s12.12,16,12.12,21.12-2.94,8,16.79,22.46,48,39.74,54.13,24.87-33.55-33.19-50-60.49S556.31,392,556.31,392Z"/><g class="cls-18"><g id="Path_459-2" data-name="Path 459-2"><path id="Path_459-3" data-name="Path 459-3" class="cls-11" d="M571.15,405.8l-22.79,26.74-5-15.2Z"/><path id="Path_464" data-name="Path 464" class="cls-11" d="M556,420.6s10.85,15.76,10.85,19.67,36,42.77,64,51.86-20,9.44-20,9.44l-66.18-57.4Z"/></g></g></g></g></g><g id="pants-20"><path id="Path_407" data-name="Path 407" class="cls-19" d="M458.43,334s-33,35.59-33,134.12c0,0,17.2,13.84,33,9.79,0,0,12.66-41.74,18.93-58.52a249.37,249.37,0,0,1,19.57-43.15c17.55-28.76-11.61-50.83-23.2-50.83C461.92,325.43,458.43,334,458.43,334Z"/><g id="Path_421" data-name="Path 421"><path id="Mask-311" class="cls-20" d="M344.07,323.33s-12.81,51.78,37.71,54.4,88.56-62.07,104-36.4,30.53,67.3,57.42,82l28.4-17.87s-46.68-123.73-72.32-126.84c-11.81-1.43-59-.84-103.91,13.95C375.27,299.18,344.07,323.33,344.07,323.33Z"/><g class="cls-21"><g id="Path_421-2" data-name="Path 421-2"><path id="Path_421-3" data-name="Path 421-3" class="cls-19" d="M375.2,305.83s-14,44.9,21.34,42.21,71-42,91.28-5.21-118.09,80.52-118.09,80.52l-48.6-43.72,11.26-62.47Z"/></g></g></g><path id="Path_420" data-name="Path 420" class="cls-22" d="M343.8,325.43c-12.22,61.49,46.09,53.83,57.79,50.6s19.38-6.88,46.33-25.3,32.23-18.85,39.82-5.8,34.35,71.31,55.48,78.41l27.92-17.55"/></g><g id="left_hand-12" data-name="left hand-12"><g id="Path_357-4" data-name="Path 357-4"><path id="Mask-312" class="cls-2" d="M301.48,145.51s-13.1-26.49-25.73-29A152.18,152.18,0,0,1,256.31,103c-5.26-5.08-7.14,2.4-4.49,5.17s12.86,12.14,12.82,13-9.21.31-14-4.66-5.26-7.66-7.86-5.74a9.26,9.26,0,0,1-4.76-7.9c-.48-6-5.61-6.88-5.63-6.14s2.2,11.88,2.2,11.88-4.38-6.52-6.31-6.59a2.9,2.9,0,0,0-2.77,3,2.78,2.78,0,0,0,.12.7c.5,1.57-4.8-2.66-3.49,3.16s27.82,28.93,41.89,29.42,22,19,22,19Z"/><g class="cls-23"><g id="Path_357-5" data-name="Path 357-5"><path id="Path_357-6" data-name="Path 357-6" class="cls-11" d="M270.42,139.82s10,0,23.16,18,43.77,75.81,79.9,60.79-14,21.61-14,21.61l-72.22-32.53Z"/><path id="Path_377-2" data-name="Path 377-2" class="cls-11" d="M353.56,193.81l10.31-64.76L348,118.8l-4.82,62.41Z"/></g></g></g><path id="Path_360-2" data-name="Path 360-2" class="cls-24" d="M280.87,129.39c-8.91-6.81-11.58-3-21.74-4.62s-10.7-10.71-12.95-13.23-3-1.19-3-1.19-3.07,7.46,10.39,20.81"/><path id="Path_361-2" data-name="Path 361-2" class="cls-24" d="M225.49,106l21,17.08"/><path id="Path_362-2" data-name="Path 362-2" class="cls-24" d="M233.78,107.1s2.77,3.24,4.39,4.74a49.51,49.51,0,0,0,4.42,3.46"/></g><g id="body-17"><g id="Path_414" data-name="Path 414"><path id="Mask-313" class="cls-25" d="M356.17,286.2c11.53-20.8,22.11-29.57,24.35-35.44,4.85-12.74-2.2-39.43-2.2-39.43S358.43,259.81,337.09,266s-59-113.42-59-113.42l24.74-11.06,31.75,65.63s21.71-65.86,38.44-87.53c10.73-13.88,39.73-14.38,63.5-11.93,1.39.14-2,1-2,2,.2,4.5-5,15.23-.44,16,2.73.48,10.8,9.51,16.43,7.52,10.47-3.7,19.63-19.9,20.58-19.58,37.56,12.39,50.7,25.33,55.3,32.87l.5-.66S570.24,244.63,552.48,261s-108.07,29.58-108.07,29.58l-.76-4.13c-24.13,2.08-55.51,15.27-93.16,34.77-3.15,1.64-9,4.19-9,4.19S351,295.55,356.17,286.2Zm129.29-32.65c17.72-7.29,34-14.29,34-15.5,0-2.3-15.08-36.87-19.13-46.09A165.53,165.53,0,0,0,485.46,253.55Z"/><g class="cls-26"><g id="Path_414-2" data-name="Path 414-2"><path id="Path_414-3" data-name="Path 414-3" class="cls-27" d="M374.67,163.91s0,57.87,25.37,61.9a33.54,33.54,0,0,0,29.8-9.26s21.51,24.2,44.23,10.07c0,0,8.86-5.33,15.51-28.85,0,0,11.17,39.5-4.87,43.93s-45.38-3.18-53.21,7.16S406.27,253,406.27,261.2s34.63,8.22,34.63,8.22l2.66,21.19L332.39,335.86l20.36-57.75L378.32,230V211.31s-2-17.84-2.7-26.93S374.67,163.91,374.67,163.91Z"/><path id="Path_415" data-name="Path 415" class="cls-27" d="M374.67,163.91S357.14,282.07,324,258.05s8.4,28.3,8.4,28.3l42.28-46.15,3.63-28.87s-3-16.08-3.63-24.55S374.67,163.91,374.67,163.91Z"/><path id="Path_416" data-name="Path 416" class="cls-27" d="M293.38,141.56l41.89,67.66V156.29L303.1,132.11Z"/><path id="Path_417" data-name="Path 417" class="cls-27" d="M488.34,171.24s4.74,30.5-8.48,52.56S469,238.05,469,238.05s22.62-2.92,26.47-16.76a200.22,200.22,0,0,0,5.38-28Z"/></g></g></g><path id="Path_402-3" data-name="Path 402-3" class="cls-4" d="M440.14,102.69s-1,3.27-1.45,4.88C435,120.7,436.1,128.06,443.51,130c12.5,3.27,25-24,25-24s12.16,39.93-.78,42.51-24.2-14.14-24.2-14.14-29.34,6.81-30.7-2.06S440.14,102.69,440.14,102.69Z"/><path id="Path_22" data-name="Path 22" class="cls-22" d="M278.08,152.62l24.74-11.06,31.75,65.63s9.09,14.47,4.55,27.7"/><path id="Path_23" data-name="Path 23" class="cls-22" d="M334.57,207.18s2.72,15.74-5.06,18.63"/><path id="Path_26" data-name="Path 26" class="cls-22" d="M444.08,290.62l-3.17-21.2S502,248,519.42,238.05a26,26,0,0,1,16.34,1.74"/><path id="Path_27" data-name="Path 27" class="cls-22" d="M519.42,238.05a11.08,11.08,0,0,1,9.45-8"/><path id="Path_412" data-name="Path 412" class="cls-22" d="M361.16,244.35l17.16-33a350.13,350.13,0,0,1-3.65-47.42"/><path id="Path_413" data-name="Path 413" class="cls-22" d="M488.34,170.07s16.55,29.75,21.68,43.52,9.4,23.68,9.4,23.68"/><path id="Path_410" data-name="Path 410" class="cls-22" d="M378.32,209.81A154.08,154.08,0,0,1,382.23,236c.52,12.44-1.12,16-11.1,28s-27.51,46.08-29,60.59l19.53-9.05"/></g><g id="right_hand-14" data-name="right hand-14"><g id="Path_460" data-name="Path 460"><path id="Mask-314" class="cls-2" d="M441,274.05a31.56,31.56,0,0,1-12.25,0c-4.37-1.48-8.92-7-22.71-3.49s-28.16,8.5-23.32,9.91S401.87,278,401.87,278s-18.77,9.8-17.92,17.79a2.86,2.86,0,0,0,3.87,1.16,3.51,3.51,0,0,0,.59-.42s.4,5.11,3.73,3.88,11-11.18,17.29-12.11c0,0-13.2,11.22-11.25,14.46s11.22-10.71,18.4-12.17,2.81,5.81,26.64-2.05Z"/><g class="cls-28"><g id="Path_460-2" data-name="Path 460-2"><path id="Path_460-3" data-name="Path 460-3" class="cls-11" d="M440.91,273.44l-1.45,17.83,7.12-2.49Z"/></g></g></g><path id="Path_419" data-name="Path 419" class="cls-29" d="M427.27,273.4s-10.44-5.69-20.58-2.84-26,6.25-24.91,9.16,17.69-.89,19.4-1.61c0,0-16.1,9.68-17,15.12s4.23,3.33,4.23,3.33"/><path id="Path_418" data-name="Path 418" class="cls-29" d="M388.4,296.56s4-8,16.28-13.92"/></g></g><path class="cls-3" d="M325,477.08s37.62,7.45,28.83,16.2S295,510.4,292.61,507.06s-9.84-28.15-9.84-28.15l34.74-15.69Z"/><g class="cls-30"><path class="cls-31" d="M302.79,500.6c-4.37-3.29-9.1-6.53-14.54-7.17-1-.12-2.2,0-2.71.82a2.51,2.51,0,0,0-.21,1.51c.28,2.9,1.84,5.52,3.53,7.9a27.74,27.74,0,0,0,6.05,6.5,13.18,13.18,0,0,0,8.31,2.74c2.23-.11,7.46-1.91,7.3-4.87C310.38,505.41,304.7,502,302.79,500.6Z"/><path class="cls-3" d="M338.45,496.72c-.2,2.69.05,5.77,2.15,7.47s5.57,1.19,8.17-.05a17.92,17.92,0,0,0,8.42-8.05,13.68,13.68,0,0,0,.39-11.48,18.2,18.2,0,0,0-2.42-3.77,13.5,13.5,0,0,0-4.52-4c-1.62-.77-4.31-1.21-5.69.2s-2.29,4.09-3.06,5.82A41.3,41.3,0,0,0,338.45,496.72Z"/><path class="cls-3" d="M332.35,500.3a80.81,80.81,0,0,1-21.14,1.8c-3.67-.1-7.95-.83-9-4.47-.81-2.8.74-6.13,2.56-8.8a37.65,37.65,0,0,1,11.42-10.91,46.18,46.18,0,0,0,5.48-3.45,9.07,9.07,0,0,0,3.46-5.53,5.84,5.84,0,0,0-2.49-5.46,12.36,12.36,0,0,0-5.73-1.81c-9-1.1-19.06.77-27.1,7.12s-13.35,17.75-11,27c1.26,5,4.48,8.82,8.18,11.8,8.78,7.09,20.71,9.88,32.59,7.61A53.22,53.22,0,0,0,342.83,504c3.28-2.67,11-7.7,13.35-11.39,3.53-5.57-5.42.93-7.22,2C344.25,497.49,337.43,499.09,332.35,500.3Z"/></g><path class="cls-3" d="M275,498.86s31.48,21.91,19.93,26.4-60.75-7.89-61.62-11.92,2.27-29.73,2.27-29.73l38.11-.45Z"/><g class="cls-32"><path class="cls-31" d="M245.23,511.5c-2.69-4.76-5.73-9.63-10.45-12.39-.86-.51-2-.92-2.81-.34a2.52,2.52,0,0,0-.8,1.3c-.9,2.78-.52,5.8.07,8.66a27.78,27.78,0,0,0,2.94,8.38,13.13,13.13,0,0,0,6.51,5.84c2.09.79,7.6,1.24,8.64-1.53C250.25,519,246.4,513.58,245.23,511.5Z"/><path class="cls-3" d="M279.45,522.25c-1.26,2.38-2.27,5.31-1,7.7,1.32,2.55,4.62,3.33,7.5,3.23a17.87,17.87,0,0,0,10.94-4,13.67,13.67,0,0,0,5-10.36,18.36,18.36,0,0,0-.7-4.42,13.45,13.45,0,0,0-2.56-5.44c-1.17-1.35-3.46-2.84-5.29-2.1s-3.74,2.83-5.13,4.1A41.6,41.6,0,0,0,279.45,522.25Z"/><path class="cls-3" d="M272.43,523.09a81,81,0,0,1-20.09-6.83c-3.32-1.57-7-4-6.46-7.71.38-2.89,3.14-5.32,5.87-7a37.68,37.68,0,0,1,14.84-5.43,43.76,43.76,0,0,0,6.4-1,9.06,9.06,0,0,0,5.39-3.67,5.87,5.87,0,0,0-.1-6,12.3,12.3,0,0,0-4.52-3.95c-7.8-4.61-17.77-6.94-27.69-4.34s-19.33,10.9-20.88,20.29c-.83,5,.57,9.87,2.76,14.09,5.2,10,15,17.34,26.81,20a53.2,53.2,0,0,0,25.8-.92c4.07-1.12,13.17-2.63,16.79-5.07,5.47-3.69-5.33-1.33-7.43-1.05C284.45,525.28,277.57,524,272.43,523.09Z"/></g><path class="cls-33" d="M107,316.6S96.08,368.19,127.5,369s116.06,4.09,116.06,4.09l40.09,117,48-17.43S297.2,343.62,284.21,333s-95.53-17.19-111.46-16.78S107,316.6,107,316.6Z"/><path class="cls-34" d="M107,316.6S96.08,368.19,127.5,369s116.06,4.09,116.06,4.09l40.09,117,48-17.43S297.2,343.62,284.21,333s-95.53-17.19-111.46-16.78S107,316.6,107,316.6Z"/><polygon class="cls-35" points="333.34 475.13 284.49 492.38 276.27 477.5 330.04 457.73 333.34 475.13"/><polygon class="cls-34" points="333.34 475.13 284.49 492.38 276.27 477.5 330.04 457.73 333.34 475.13"/><path class="cls-36" d="M310.05,478.57a66.34,66.34,0,0,0,10.78-12,47.74,47.74,0,0,0,4-6.9l5.2-1.91,3.3,17.41-37.79,13.35A71,71,0,0,0,310.05,478.57Z"/><path class="cls-20" d="M79.28,318.64S68,373.43,100.59,374.3,221,378.64,221,378.64l9.24,118.08L279.6,495s-2.92-147.64-16.39-159-99.14-18.26-115.66-17.82S79.28,318.64,79.28,318.64Z"/><path class="cls-37" d="M243.26,495.11a54.2,54.2,0,0,0,3.64-11.05c.94-3.94,1.85-7.89,2.69-11.85a229.16,229.16,0,0,0,3.83-28.46c.68-8.32,1.25-16.64,2-24.95.7-7.92,1.34-15.84,1.44-23.79.19-15.43-1.73-31.31-10.7-44.3a97.75,97.75,0,0,0-27.81-26.41c20.71,3,39.19,7,44.87,11.73,13.47,11.31,16.39,159,16.39,159l-37,1.3C242.82,495.89,243.06,495.51,243.26,495.11Z"/><path class="cls-37" d="M79.28,318.64H90.92c0,.79,0,1.58.1,2.36a72.18,72.18,0,0,0,1.37,10.15,37.18,37.18,0,0,0,2.86,9.25c3,5.82,8.45,10.06,13.84,13.49a96.68,96.68,0,0,0,18.14,9c13.55,5.05,28,7.55,42.29,9.18,9.61,1.09,19.24,1.55,28.87,2.38,4.7.41,9.42.89,14.07,1.73a37.81,37.81,0,0,1,5.25,1.25A5.71,5.71,0,0,1,220,378.6c-9.82-.38-88.87-3.49-119.43-4.3C68,373.43,79.28,318.64,79.28,318.64Z"/><path class="cls-34" d="M242.73,477.09h0a.46.46,0,0,0,.44-.5l-.21-2.85a.44.44,0,0,0-.51-.44.48.48,0,0,0-.44.51l.21,2.84A.49.49,0,0,0,242.73,477.09Z"/><path class="cls-34" d="M112.73,342a29.25,29.25,0,0,1-3.73-4.34.48.48,0,1,0-.78.55,31.62,31.62,0,0,0,3.84,4.48.48.48,0,0,0,.33.13.48.48,0,0,0,.34-.82Zm9.74,5.19c-3.06-.39-3.88-.67-4.1-.8-.39-.23-.79-.49-1.2-.77a.47.47,0,0,0-.66.13.48.48,0,0,0,.12.66c.43.29.85.56,1.25.8s1.17.5,4.47.92h.06a.48.48,0,0,0,.47-.42A.47.47,0,0,0,122.47,347.21Zm11.61,1.1c-2.11-.17-4.06-.33-5.82-.49a.45.45,0,0,0-.51.43.48.48,0,0,0,.43.52c1.76.16,3.71.32,5.83.48h0a.48.48,0,0,0,.48-.44A.47.47,0,0,0,134.08,348.31Zm11.64.82-5.82-.39a.45.45,0,0,0-.51.44.46.46,0,0,0,.44.5l5.83.4h0a.48.48,0,0,0,.48-.45A.47.47,0,0,0,145.72,349.13Zm11.65.72-5.82-.35a.46.46,0,0,0-.51.44.49.49,0,0,0,.45.51l5.83.36h0a.48.48,0,0,0,0-1Zm11.65.69-5.83-.34a.47.47,0,0,0-.5.45.49.49,0,0,0,.45.51l5.82.34h0a.48.48,0,0,0,0-1Zm11.64.67-5.82-.33a.47.47,0,0,0-.5.45.48.48,0,0,0,.45.5l5.82.34h0a.48.48,0,0,0,0-1Zm11.65.68-5.82-.34a.48.48,0,1,0-.06.95l5.83.34h0a.47.47,0,0,0,.47-.45A.47.47,0,0,0,192.31,351.89Zm11.66.72-5.83-.37a.46.46,0,0,0-.5.45.48.48,0,0,0,.44.51l5.83.35h0a.47.47,0,0,0,.47-.45A.46.46,0,0,0,204,352.61Zm11.65.79-5.83-.41a.45.45,0,0,0-.5.44.48.48,0,0,0,.44.51l5.82.41h0a.48.48,0,0,0,0-1Zm11.67,1.07c-1.49-.19-3.4-.39-5.84-.6a.46.46,0,0,0-.51.43.49.49,0,0,0,.43.52c2.42.21,4.32.4,5.8.59h.06a.48.48,0,0,0,.47-.42A.47.47,0,0,0,227.29,354.47Zm4.73,3.09a.47.47,0,0,0-.57-.35.48.48,0,0,0-.35.57c.3,1.29.64,3.22,1,5.72a.48.48,0,0,0,.47.4h.07a.49.49,0,0,0,.41-.54C232.68,360.83,232.33,358.88,232,357.56Zm2.23,15.18c-.15-1.25-.29-2.45-.43-3.59a.48.48,0,0,0-.95.12c.14,1.09.28,2.24.41,3.44.09.76.18,1.55.27,2.35a.49.49,0,0,0,.48.42h.05a.48.48,0,0,0,.42-.53C234.42,374.2,234.33,373.46,234.25,372.74Zm.88,8a.49.49,0,0,0-.53-.42.48.48,0,0,0-.42.53c.19,1.86.39,3.8.59,5.79a.47.47,0,0,0,.48.43h0a.47.47,0,0,0,.43-.52C235.52,384.56,235.32,382.63,235.13,380.75Zm1.16,11.62a.45.45,0,0,0-.52-.43.46.46,0,0,0-.43.52c.18,1.9.36,3.84.54,5.8a.47.47,0,0,0,.48.43h0a.47.47,0,0,0,.43-.52C236.65,396.21,236.47,394.27,236.29,392.37ZM237.36,404a.44.44,0,0,0-.51-.43.48.48,0,0,0-.44.52l.52,5.8a.48.48,0,0,0,.47.44h0a.48.48,0,0,0,.43-.52Zm1,11.62a.45.45,0,0,0-.51-.43.47.47,0,0,0-.44.51l.5,5.81a.47.47,0,0,0,.47.44h0a.49.49,0,0,0,.44-.52Zm1,11.62a.47.47,0,0,0-.51-.44.48.48,0,0,0-.44.52l.48,5.81a.48.48,0,0,0,.47.44h0a.49.49,0,0,0,.44-.52Zm.95,11.63a.48.48,0,1,0-.95.07q.24,3,.46,5.82a.48.48,0,0,0,.48.44h0a.47.47,0,0,0,.44-.51Q240.55,441.82,240.31,438.85Zm.92,11.62a.45.45,0,0,0-.52-.43.47.47,0,0,0-.43.51l.45,5.82a.48.48,0,0,0,.47.43h0a.48.48,0,0,0,.44-.51Zm.89,11.64a.45.45,0,0,0-.51-.44.48.48,0,0,0-.44.51l.44,5.82a.48.48,0,0,0,.48.44h0a.48.48,0,0,0,.44-.51Z"/><path class="cls-35" d="M106.12,333.85a.47.47,0,0,0,.17,0,.46.46,0,0,0,.27-.61,17.19,17.19,0,0,1-.79-2.67.51.51,0,0,0-.57-.37.49.49,0,0,0-.37.57,17.68,17.68,0,0,0,.85,2.81A.47.47,0,0,0,106.12,333.85Z"/><polygon class="cls-20" points="280.62 496.5 228.84 498.05 225.54 481.37 282.77 478.91 280.62 496.5"/><path class="cls-36" d="M257.39,492.68a66.07,66.07,0,0,0,13.93-8.19,48.24,48.24,0,0,0,5.93-5.34l5.52-.24-2.15,17.58-40.06,1.2A71.58,71.58,0,0,0,257.39,492.68Z"/><path class="cls-11" d="M188.43,209.59s33.58,38,38.53,39.57,57,10.44,57,10.44l2.78,16.68s-63.19,6.18-70.42,1.86-50-40.44-50-40.44Z"/><path class="cls-38" d="M211.75,229.08s-27.87-43.82-40.07-47-35.44,6.19-22.43,30.51a211.18,211.18,0,0,0,29.61,41.7S203.89,251.24,211.75,229.08Z"/><path class="cls-39" d="M167,181.5a112.3,112.3,0,0,1,8.86,14.13c3.29,6.06,6.21,12.31,9,18.6s5.51,12.88,7.73,19.52a129.23,129.23,0,0,1,3.82,14,48.18,48.18,0,0,1-17.59,6.56,211.18,211.18,0,0,1-29.61-41.7C137.76,191.13,154.53,181.32,167,181.5Z"/><path class="cls-4" d="M75.68,257.84c3.47-51,5.8-63.7,11.77-71.16s27.72-10.64,43.08-11.24,37.78,3.74,44.16,8.11,10.23,23,9.24,46.1c-.86,20-5.07,41.31-4.9,50.58.31,17.21,3.69,23.85,6.15,36.65C166,330.25,91.66,337.41,75.72,334.21,74.15,316.81,74,282.53,75.68,257.84Z"/><g class="cls-40"><path class="cls-38" d="M157.27,187.29a7.66,7.66,0,0,1-2.05,6.53c-1.6,1.75-4,2.6-6.22,3.22-4.37,1.2-14.26-.09-18.7-5.07-7.4,17.57-15.94,36.27-33.21,45.71a44.63,44.63,0,0,1-15.3,5.53c-5.4.71-11.1-.23-15.28-3.43-4.94-3.79-7.17-10.26-7.17-16.62s2-12.61,4.23-18.63c3.87-10.31,8.82-20.53,16.87-28,12.12-11.26,29.3-14.56,45.15-15.1,13.34-.45,26.65.73,38.85,5s23.08,11.75,30.29,22.36c9.32,13.72,11.63,32.57,5.93,48.92-.9.11-2.38.3-3.15-.18-8.52-5.36-12.85-15.67-18.17-24.62A100.06,100.06,0,0,0,157.27,187.29Z"/><path class="cls-41" d="M104.33,302.14c2.24,6.95,4.78,14.12,10,19.2,8.77,8.51,22.64,9,32.83,15.74-2.64,7.42-11.42,10.33-19.11,12.07-15.16,3.45-31.33,6.1-46,1-5-1.75-9.78-4.52-12.64-8.92-2.26-3.47-3.12-7.65-3.76-11.74-3.23-20.5-2.3-41.42-1.12-62.14Q66.4,234.63,69.13,202c.53-6.19,1.19-12.67,4.65-17.82a18.42,18.42,0,0,1,8.77-7c5.49-2,4.51,2.06,4.19,6.29a232.25,232.25,0,0,0-.29,29.26,309.84,309.84,0,0,0,8.76,57.27C97.83,280.88,100.92,291.57,104.33,302.14Z"/><path class="cls-41" d="M142.65,330.61c8.09-2.93,15.87-5.61,23.43-9.62,3.55-1.89,7.18-4.09,8.84-7.43a55.21,55.21,0,0,0-12.71.4l-20.52,2.25c7.21-2.43,13.94-6.41,20.48-10.13,3.29-1.87,12.5-5.67,9.84-10.94-.9-1.8-2.94-2.61-4.51-3.69-2-1.38-2.3-3.33-1.1-5.47,1.55-2.8,4.59-4.59,7.19-6.28a51.07,51.07,0,0,0,8-6.38,49.64,49.64,0,0,0,3.95-4.34c.53,4.22-.41,8.62-.22,12.91s1.54,8.49,2.52,12.72a74.45,74.45,0,0,1,1,28.94,11,11,0,0,1-1.77,5,12.76,12.76,0,0,1-5.4,3.63C171,336.73,159,338.06,147.13,339,140,339.59,134.7,333.48,142.65,330.61Z"/></g><path class="cls-2" d="M264.52,253.53c-2-4.89-6-9.14-10.68-12.36a17.33,17.33,0,0,0-4.66-2.41c-3.41-1-7.39-.54-10.62.21-4.11.94-7.9,2.64-11.75,4.11q-5.38,2-10.75,4.14a13.07,13.07,0,0,1-2.72,1.08c-7.31.95-52.91,6.83-61.1,7.1-8.39-8.88-21.11-32.6-21.11-32.6s-22.71,2.77-29.53,15.87c-.08-.35,27.57,39.18,31.69,41.35s22.77-.93,45.32-6.78c17.07-4.42,31.83-9,38-11a16.27,16.27,0,0,0,3,.49c11.93.83,10.12-5.95,10.7-6.35L230,256c2.3.82,4.62,1.59,7,2.27.95.27,2.21.44,2.62-.31.31-.58-.15-1.32-.61-1.89a48.16,48.16,0,0,0-5.08-5.44l11.57,7.69c.77.51,1.82,1,2.52.58s.4-1.49,0-2.25a28.33,28.33,0,0,0-8.39-9.64l7.79,5.88c1.78,1.34,3.57,2.69,5.47,3.89,1.71,1.08,3.85,2.08,5.65,1.46a.79.79,0,0,0,.55-.43.87.87,0,0,0-.15-.63c-2.23-4.33-6.18-7.83-10-11.21l10.32,7.91c1.33,1,3,2.12,4.56,1.74a1.33,1.33,0,0,0,.83-.51A1.72,1.72,0,0,0,264.52,253.53Z"/><path class="cls-11" d="M138.35,254.45a30.58,30.58,0,0,0,5.68-9.94c-6.64-10-12.9-21.71-12.9-21.71s-22.71,2.77-29.53,15.87c0-.23,11.54,16.29,20.83,28.54C128.84,265,134.64,258.74,138.35,254.45Z"/><path class="cls-42" d="M230.52,254.16c-2.8.34-5.23,1.5-7.92,2.14s-5.29.86-7.92,1.32c-7.09,1.26-13.81,3.73-20.5,5.93A375.54,375.54,0,0,1,155.55,274c-8,1.71-16.43,4-24.89,3.47a13.67,13.67,0,0,0,2.63,2.51c4.12,2.16,22.77-.93,45.32-6.78,17.07-4.42,31.83-9,38-11a16.27,16.27,0,0,0,3,.49c11.93.83,10.12-5.95,10.7-6.35L230,256c2.3.82,4.62,1.59,7,2.27a4.27,4.27,0,0,0,1.89.18A92.82,92.82,0,0,0,230.52,254.16Z"/><path class="cls-38" d="M147.14,241c-2.12-2.93-19.09-29.48-24.92-39.37-3.07-5.21-6.51-10.48-11.62-14.39-3.63-2.78-13.85-9.08-21.22-.53-.39.45-.75.92-1.11,1.4s-.74,1.11-1.06,1.68c-4.88,8.47-3.45,20.08-.55,29.86a47.72,47.72,0,0,0,2.06,5.65,182.9,182.9,0,0,0,22.16,37.46C122.18,262,141.49,251.75,147.14,241Z"/><path class="cls-39" d="M88,220.32c2.17,2.91,4.42,5.77,6.77,8.54,3.95,4.67,8.23,9.08,12.56,13.4s8.6,8.37,13.16,12.27c1.61,1.37,3.25,2.7,4.91,4-5.21,2.37-10.41,3.94-14.54,4.24a182.9,182.9,0,0,1-22.16-37.46,47.72,47.72,0,0,1-2.06-5.65c-.19-.65-.38-1.31-.56-2C86.74,218.57,87.37,219.45,88,220.32Z"/><path class="cls-2" d="M153.88,165.3,131.26,162l-2.48,18.65a4.86,4.86,0,0,0,1.09,3.76,19.39,19.39,0,0,0,12.81,7c6.94.81,7.82-2.38,7.72-4.36a23.75,23.75,0,0,1,.48-5.5Z"/><g class="cls-43"><path class="cls-11" d="M157.94,178.09c-12.1,15.35-25.28-14.13-26.15-18-.25-1.13,2.45-.89,3.9-.64,10.21,1.73,24.44,6.37,26.05,10.17S159.58,176,157.94,178.09Z"/></g><path class="cls-9" d="M187.58,103.08a11.29,11.29,0,0,1,1.38,4,34,34,0,0,1,.21,10.79,11.3,11.3,0,0,1-1.42,4.5,12.06,12.06,0,0,1-5.27,4.08c-1.27.61-2.75,1.15-4.06.63a3.92,3.92,0,0,1-1.94-1.91c-1.52-2.81-1.08-6.18-.58-9.31a34.71,34.71,0,0,1,2.24-8.83,13.57,13.57,0,0,1,4.21-5.44C184.42,100.1,186.26,101,187.58,103.08Z"/><path class="cls-2" d="M181.33,130.39a86.29,86.29,0,0,1-1.25,16.07.23.23,0,0,0,0,.12c-.08.37-.14.71-.2,1.06,0,.12-.05.24-.07.36-.11.54-.26,1.18-.43,1.89-1,4.28-3.08,11.17-5.55,15.55-.25.45-.51.88-.77,1.27l0,0c-.11.17-.22.32-.33.47a10.6,10.6,0,0,1-.78,1c-5.21,5.71-16.76,4.84-19.28,4.29a48.62,48.62,0,0,1-23.55-12.75,39.82,39.82,0,0,1-7.13-9.49,36,36,0,0,1-2-4.48,35.33,35.33,0,0,1-2-9.26c0-.4-.06-.81-.08-1.22h0c0-.3,0-.6,0-.9h0c0-.22,0-.45,0-.67v-.51c0-1.14.07-2.3.19-3.47,0-.43.08-.87.14-1.31a46.07,46.07,0,0,1,3.38-12.08c.27-.64.56-1.26.86-1.86a39.64,39.64,0,0,1,11.28-14l0,0a34.22,34.22,0,0,1,6.68-4.09c.67-.31,1.33-.59,2-.85a33.05,33.05,0,0,1,4.38-1.39,28.05,28.05,0,0,1,7.18-.83c9.94.12,18.61,5.77,23.41,16.18a40.84,40.84,0,0,1,3,9.68,54.1,54.1,0,0,1,.93,8.37C181.31,128.52,181.33,129.46,181.33,130.39Z"/><g class="cls-44"><path class="cls-11" d="M179.36,149.89c-1,4.28-3.08,11.17-5.55,15.55a5,5,0,0,1-.66-3.6A19,19,0,0,1,179.29,150Z"/><path class="cls-11" d="M135.39,159.39a8.13,8.13,0,0,1-.71-.58c-3.8-3.28-8.09-10-4.24-15.1a7.28,7.28,0,0,1,8.27-2.11,12.34,12.34,0,0,1,6.28,6.34,13.2,13.2,0,0,1,1.52,6.76,7.85,7.85,0,0,1-3.26,6C140.69,162.33,137.63,161.08,135.39,159.39Z"/></g><path class="cls-9" d="M109.26,122.57a71.77,71.77,0,0,0,1.53,7.1c.25.88,1.27,6.36,2,6.62a2.65,2.65,0,0,0,1,.15,3.11,3.11,0,0,0,1.91-1c1.07-1,2.07-2.35,3.8-2.09,2.49.32,4.36,5.95,6.89,6,3.09.1,4.31-2.86,5.2-5.77a80.05,80.05,0,0,0-.71-11,5.7,5.7,0,0,1-.06-.58,5.05,5.05,0,0,1,.44-.68c1.91-2.67,5.11-1.65,7.94-3.08a21.49,21.49,0,0,0,4.91-2.78,16.28,16.28,0,0,0,4.36-5.53,41.2,41.2,0,0,0,2.11-5.64c3.73,4.4,8.65,7.35,14,9.8a66.9,66.9,0,0,0,11.85,4.38c3.13.77,8,1.58,10.69-.68,2.47-2.07,2.35-8.17,1.75-11.07-.91-4.38-3.95-7.32-7.35-10.12-9.27-7.62-21.15-12.72-33.33-13.32a45.76,45.76,0,0,0-8,.3A41.29,41.29,0,0,0,130,86.19a32.48,32.48,0,0,0-3.31,1.48c-.85.44-1.69.89-2.51,1.4a34.71,34.71,0,0,0-7.65,6.28,28.6,28.6,0,0,0-7,12.59c0,.07,0,.13,0,.2A37.87,37.87,0,0,0,109.26,122.57Z"/><path class="cls-9" d="M116.55,95.35c2,.77,5.33-1.43,7-1.75,4.78-.85-.38,6,.11,7.66.53,1.88,3,2,4.64,1.77,2.76-.27,4.16-2.13,6.5-3.18a2.76,2.76,0,0,1,4,1.93c.36,1.32-1.31,4.71-.33,5.63,1.47,1.35,5.38-.83,6.42-1.77,2-1.75,3.47-5.1,2.38-7.66-.29-.82-2.47-1-3.35-1.54-1.83-.94-3.49-2.14-5.3-3.1-2.55-1.34-5-3.18-7.73-4.27a36.47,36.47,0,0,0-4.18-1.4c-.85.44-1.69.89-2.51,1.4A34.71,34.71,0,0,0,116.55,95.35Z"/><path class="cls-9" d="M130,86.19a43.22,43.22,0,0,0,4,1.8,64.94,64.94,0,0,1,8.75,3.94,43.18,43.18,0,0,1,7.1,4.49c1.26,1.06,2.8,3.58,3.86,3.58,2.54,3.72,7.83,3.55,11.5,1.9,2.15-1,2.71-2.52.26-3.77-2.66-1.37-6-1.33-8.73-2.59-2.18-1-4.16-2.75-3.32-5.23.54-1.53,2.32-3.86-.37-4.44-2-.42-4.43,1.56-6.45,1.92a3.28,3.28,0,0,1-3.89-1.53,7.82,7.82,0,0,0-2.51-2.65A41.29,41.29,0,0,0,130,86.19Z"/><path class="cls-9" d="M175.31,140.18a1.67,1.67,0,0,0-1.76-1.93,2.39,2.39,0,0,0-2.12,2.16,1.67,1.67,0,0,0,1.75,1.93A2.41,2.41,0,0,0,175.31,140.18Z"/><path class="cls-9" d="M154.22,136.82a1.74,1.74,0,0,0-1.82-1.94,2.3,2.3,0,0,0-2.1,2.12,1.73,1.73,0,0,0,1.82,1.94A2.3,2.3,0,0,0,154.22,136.82Z"/><path class="cls-15" d="M166.41,158.86a24.63,24.63,0,0,1-8.5-2.13,29.36,29.36,0,0,1-7-4.86.23.23,0,0,0-.36.26c2.92,8,9.72,9.73,15.9,7.3C166.77,159.29,166.79,158.89,166.41,158.86Z"/><path class="cls-2" d="M123.81,136.54c-1.32-3.38-4.06-6.09-8-4.87a4.32,4.32,0,0,0-2.68,2.71,7.76,7.76,0,0,0-.23,3.83,11.72,11.72,0,0,0,5,8.16,4.37,4.37,0,0,0,3.64.75c1.65-.58,2.5-2.35,2.88-3.89A11.73,11.73,0,0,0,123.81,136.54Z"/><path class="cls-42" d="M119.41,133.42c1,1,1.49,2.3,2.41,3.24.65.66,1.06,1.64,2.17.52l0,0c-.07-.2-.13-.4-.21-.6-1.23-3.17-3.72-5.75-7.27-5.06A8.34,8.34,0,0,1,119.41,133.42Z"/><g id="table"><path id="Path_611" data-name="Path 611" class="cls-45" d="M10.51,287.08V575.85"/><path id="Path_611_Copy" data-name="Path 611 Copy" class="cls-45" d="M98.56,287.08V575.85"/><path id="Path_611-2" data-name="Path 611" class="cls-45" d="M671.88,287.08V575.85"/><path id="Path_611_Copy-2" data-name="Path 611 Copy" class="cls-45" d="M759.93,287.08V575.85"/><rect id="Rectangle-11" class="cls-46" y="279.08" width="101.06" height="19.78"/><rect id="Rectangle_Copy_26" data-name="Rectangle Copy 26" class="cls-47" x="100.06" y="279.08" width="675.03" height="19.78"/></g><g id="Book1"><g id="Rectangle_Copy_71" data-name="Rectangle Copy 71"><rect id="Mask-69" class="cls-48" x="617.75" y="251.7" width="123.59" height="27.23" rx="6.28"/><g class="cls-49"><g id="Rectangle_Copy_71-2" data-name="Rectangle Copy 71-2"><rect id="Rectangle_Copy_70" data-name="Rectangle Copy 70" class="cls-50" x="621.94" y="255.89" width="123.59" height="18.85" rx="6.28"/><path id="Path_137" data-name="Path 137" class="cls-51" d="M745.53,259.53H621.94"/><path id="Path_137_Copy" data-name="Path 137 Copy" class="cls-51" d="M745.53,263.72H621.94"/><path id="Path_137_Copy_2" data-name="Path 137 Copy 2" class="cls-51" d="M745.53,267.91H621.94"/><path id="Path_137_Copy_3" data-name="Path 137 Copy 3" class="cls-51" d="M745.53,272.1H621.94"/></g></g></g><g id="Rectangle_Copy_72" data-name="Rectangle Copy 72"><rect id="Mask-70" class="cls-38" x="617.75" y="230.75" width="98.45" height="20.95" rx="5.03"/><g class="cls-52"><g id="Rectangle_Copy_72-2" data-name="Rectangle Copy 72-2"><rect id="Rectangle_Copy_70-2" data-name="Rectangle Copy 70-2" class="cls-50" x="621.09" y="233.98" width="98.45" height="14.5" rx="5.03"/><path id="Path_137-2" data-name="Path 137-2" class="cls-51" d="M719.54,236.77H621.09"/><path id="Path_137_Copy-2" data-name="Path 137 Copy-2" class="cls-51" d="M719.54,240H621.09"/><path id="Path_137_Copy_2-2" data-name="Path 137 Copy 2-2" class="cls-51" d="M719.54,243.22H621.09"/><path id="Path_137_Copy_3-2" data-name="Path 137 Copy 3-2" class="cls-51" d="M719.54,246.44H621.09"/></g></g></g><g id="Rectangle_Copy_73" data-name="Rectangle Copy 73"><rect id="Mask-71" class="cls-53" x="634.51" y="209.81" width="98.45" height="20.95" rx="5.03"/><g class="cls-54"><g id="Rectangle_Copy_73-2" data-name="Rectangle Copy 73-2"><rect id="Rectangle_Copy_70-3" data-name="Rectangle Copy 70-3" class="cls-55" x="637.85" y="213.03" width="98.45" height="14.5" rx="5.03"/><path id="Path_137-3" data-name="Path 137-3" class="cls-51" d="M736.3,215.82H637.85"/><path id="Path_137_Copy-3" data-name="Path 137 Copy-3" class="cls-51" d="M736.3,219.05H637.85"/><path id="Path_137_Copy_2-3" data-name="Path 137 Copy 2-3" class="cls-51" d="M736.3,222.27H637.85"/><path id="Path_137_Copy_3-3" data-name="Path 137 Copy 3-3" class="cls-51" d="M736.3,225.49H637.85"/></g></g></g></g><path id="Path_350-5-2" data-name="Path 350-5" class="cls-12" d="M162.77,135.85a26.2,26.2,0,0,0,1.42,7.79c1.34,3.37,2.55,5.53-2.94,5.23"/><path id="Path_351-5-2" data-name="Path 351-5" class="cls-14" d="M147.23,126.54s6-3.91,11.68-.39"/><path id="Path_351-5-3" data-name="Path 351-5" class="cls-14" d="M171.89,128.53s5.82-1.39,8.24,3"/><ellipse id="Oval-3" class="cls-56" cx="174.47" cy="141.21" rx="8.01" ry="8" transform="translate(5.21 288.62) rotate(-80.04)"/><ellipse id="Oval_Copy_3" data-name="Oval Copy 3" class="cls-56" cx="152.98" cy="137.91" rx="8.01" ry="8" transform="translate(-9.31 264.73) rotate(-80.04)"/><path id="Path_63" data-name="Path 63" class="cls-56" d="M146.18,133.7l-26.33-8.35"/><path id="Path_64" data-name="Path 64" class="cls-56" d="M167.28,137.69l-6.3-.81"/><path class="cls-57" d="M286.14,249.57s-.5-9.65-10.5-11.66-27.52,6.51-27.52,6.51L199,278.65l1.46,4.23,49.85-6.94,4.56,1.75,35-23,33.05-23.88-3.65-2.88S310,234.29,303.9,237,288.89,244.59,286.14,249.57Z"/><path class="cls-58" d="M198.22,284.28l41.57-25.83,43.94-7a6.08,6.08,0,0,0,5.94,2.41h0l36.14-25,.68,1.51-70.08,49.22a6,6,0,0,1-6.1-1.19Z"/><path class="cls-59" d="M283.73,251.4a2,2,0,0,1-.34.27l-1,.74c-.88.63-2.16,1.55-3.71,2.72-3.12,2.31-7.35,5.62-11.94,9.37s-8.69,7.22-11.64,9.76l-3.48,3-1,.81a1.78,1.78,0,0,1-.35.26,1.7,1.7,0,0,1,.29-.32l.91-.87c.79-.74,2-1.8,3.41-3.09,2.9-2.59,7-6.1,11.56-9.86s8.86-7,12-9.29c1.57-1.14,2.87-2,3.78-2.62l1.06-.68A1.69,1.69,0,0,1,283.73,251.4Z"/><path class="cls-60" d="M283.28,246c-4-4.27-10.25-5.8-16.08-5.34s-11.36,2.63-16.79,4.78l-50.85,34.81.45,1.3L251.14,247s11.41-3.69,16.47-4.31C276.08,241.62,283.28,246,283.28,246Z"/><path class="cls-60" d="M291.26,250.6l24.45-16.49S295.68,244.52,291.26,250.6Z"/><path class="cls-59" d="M199.56,280.27s.06-.07.2-.17l.63-.45,2.44-1.72,9-6.24,29.81-20.46,8.65-5.92h0a61.46,61.46,0,0,1,15.47-4.65,23.12,23.12,0,0,1,12.67,1.79,15.55,15.55,0,0,1,4.06,2.73A12,12,0,0,1,284.8,248a9.71,9.71,0,0,1,.88,2.13c.06.24.1.43.13.58s0,.2,0,.2a11.34,11.34,0,0,0-3.44-5.64,15.63,15.63,0,0,0-4-2.65A23,23,0,0,0,265.84,241a62,62,0,0,0-15.36,4.66h0l-8.65,5.92L212,271.92l-9.07,6.14-2.48,1.65-.65.42Z"/><path class="cls-59" d="M244.07,254s.13-.1.38-.24l1.14-.61c1-.51,2.44-1.23,4.26-2.06a56,56,0,0,1,14.92-4.56,32.45,32.45,0,0,1,15.48,1.41,23.54,23.54,0,0,1,4.27,2c.49.28.83.55,1.08.72a1.88,1.88,0,0,1,.35.27s-.54-.31-1.5-.86a26,26,0,0,0-4.3-1.92,33,33,0,0,0-15.33-1.29A58.84,58.84,0,0,0,250,251.3c-1.83.79-3.29,1.47-4.31,1.95l-1.16.54A2.3,2.3,0,0,1,244.07,254Z"/><path class="cls-59" d="M321.62,229.75a1.2,1.2,0,0,1-.32.24l-.95.63-3.52,2.27c-3,1.91-7.1,4.56-11.62,7.53s-8.57,5.71-11.51,7.69l-3.48,2.34-1,.62a1.61,1.61,0,0,1-.35.2,1.67,1.67,0,0,1,.3-.26l.92-.68c.8-.59,2-1.42,3.41-2.44,2.9-2,6.93-4.82,11.45-7.79s8.66-5.58,11.68-7.44c1.51-.92,2.74-1.66,3.6-2.16l1-.57A1.82,1.82,0,0,1,321.62,229.75Z"/><path class="cls-2" d="M299.38,256.22a17.09,17.09,0,0,1-1.9,3.4c-.93,1.11-4,2.68-4.26,4.8s.26,7.12-3.06,10.91a18.65,18.65,0,0,1-7.89,5.13l-13.12-1.28-21-8.25a1.84,1.84,0,0,1-1.34-2.2,2.65,2.65,0,0,1,2.19-2l.5-.08s-1.21-1,.52-2.71c1.49-1.49,4.62-.65,6.23-.11s11.12,4.51,12.82,5.12c1.51.54,2.67,1,2.67,1s-12.15-8.19-12.32-9.27a2.33,2.33,0,0,1,1.18-2.78c1.45-1.06,3.88.08,6.22,1.07,1.74.73,12.87,6.22,12.87,6.22s.5-.48,0-1.47-4.2-5.74-4.78-6.62-.73-1.38-.16-2.12c.82-1,3-1.55,4.91.24,1.25,1.15,5.67,4.12,5.67,4.12l20.42-14.89s2.54-.07,1.65,3.47S299.38,256.22,299.38,256.22Z"/><path class="cls-2" d="M284.17,268.63a4.05,4.05,0,0,1-2.21-1.1,4,4,0,0,1-1.46-2c.1-.06.69.86,1.71,1.7S284.21,268.52,284.17,268.63Z"/><path class="cls-2" d="M285.84,259.75c0-.05.27-.12.71-.07a3.11,3.11,0,0,1,1.57.7,3.16,3.16,0,0,1,1,1.41c.13.43.11.71.06.71a5.68,5.68,0,0,0-1.29-1.82A5.87,5.87,0,0,0,285.84,259.75Z"/><path class="cls-2" d="M286.8,263.85c-.11,0-.17-1.1-.6-2.35s-1-2.17-.95-2.24a5.47,5.47,0,0,1,1.55,4.59Z"/><path class="cls-2" d="M298.9,255.16s-.27-.11-.53-.47a3.25,3.25,0,0,1-.61-1.59,3.38,3.38,0,0,1,.24-1.68c.18-.4.38-.6.41-.57a7.3,7.3,0,0,0-.27,2.21A6.75,6.75,0,0,0,298.9,255.16Z"/><path class="cls-2" d="M280.43,273.77a3.3,3.3,0,0,1-1.44,0,9.62,9.62,0,0,1-3.24-1.21,18.51,18.51,0,0,1-2.78-2,5,5,0,0,1-1-1,5.32,5.32,0,0,1,1.18.8,32.61,32.61,0,0,0,2.81,1.9,11.72,11.72,0,0,0,3.1,1.27C279.88,273.68,280.43,273.71,280.43,273.77Z"/><path class="cls-2" d="M283.84,271.67c.1,0,.11.74-.51,1.34s-1.36.58-1.35.48.58-.25,1.08-.76S283.73,271.65,283.84,271.67Z"/><path class="cls-2" d="M288.85,268s0,.21-.09.47a1.78,1.78,0,0,1-.83.76,1.8,1.8,0,0,1-1.12.16c-.29-.06-.43-.17-.42-.22a5.51,5.51,0,0,0,1.38-.28C288.47,268.55,288.75,268,288.85,268Z"/><path class="cls-2" d="M271.18,276.34c0,.1-4.92-1.94-10.9-4.55s-10.78-4.8-10.74-4.9,4.92,1.94,10.9,4.55S271.22,276.24,271.18,276.34Z"/></g></g></g></svg>