<svg xmlns="http://www.w3.org/2000/svg" xmlns:xlink="http://www.w3.org/1999/xlink" viewBox="0 0 539.79 611.04"><defs><style>.cls-1,.cls-13,.cls-25,.cls-30,.cls-8{fill:none;}.cls-2{fill:#ff9378;}.cls-3{fill:#607385;}.cls-4{fill:#ff4f5b;}.cls-5{fill:#4bc5a9;}.cls-6{fill:#e1e1e1;}.cls-7{fill:#fafafa;}.cls-8{stroke:#e1e1e1;}.cls-13,.cls-25,.cls-30,.cls-8{stroke-miterlimit:10;}.cls-9{fill:#659cff;}.cls-10{fill:#375a64;}.cls-11{fill:#955454;}.cls-12{fill:#56d4b7;}.cls-13{stroke:#b3b3b3;}.cls-14{fill:#ff6f66;}.cls-15{fill:#f1b2a2;}.cls-16{fill:#ffd3c8;}.cls-17{clip-path:url(#clip-path);}.cls-18{fill:#061537;}.cls-19{clip-path:url(#clip-path-2);}.cls-20{fill:#683535;}.cls-21{clip-path:url(#clip-path-3);}.cls-22{fill:#7d4545;}.cls-23{fill:#45aa92;}.cls-24{fill:#1a2e35;}.cls-25{stroke:#1a2e35;stroke-width:1.92px;}.cls-26{clip-path:url(#clip-path-4);}.cls-27{fill:#df775d;}.cls-28{fill:#ffbb20;}.cls-29{clip-path:url(#clip-path-5);}.cls-30{stroke:#99776c;stroke-width:0.48px;}</style><clipPath id="clip-path"><polygon class="cls-1" points="59.92 561.14 50.04 585.37 69.19 596.42 81.37 559.28 59.92 561.14"/></clipPath><clipPath id="clip-path-2"><path class="cls-1" d="M136.77,573.74s-3.85,16.22-1.1,17.51,15,2.56,20.64,6.09S124,602.45,124,602.45l-8.73-4.09,2.44-27.6Z"/></clipPath><clipPath id="clip-path-3"><path class="cls-1" d="M61.15,346.37S54,376.58,87.89,408.2c0,0,19.82,73.86,19.82,87.15s4.72,80.09,4.72,80.09H138.6S160.37,444,145,339.25c0,0-15.55-10.84-21-9.73C104.63,333.45,61.15,346.37,61.15,346.37Z"/></clipPath><clipPath id="clip-path-4"><path class="cls-2" d="M144.74,228.45s-16.26-16.5-29-19.29L87.19,212.7a27.45,27.45,0,0,0-24.06,27.22v67.64s-6,32.25-6.74,44.83c0,0,6.75,11.95,38.62,4.51,16.08-3.75,20.83-13.41,32.77-17.32,7-2.29,19.5,1.49,19.5,1.49s-8.67-18.65-9.83-33.19c-.72-8.89-1.59-33.7,8.18-68.28C147.77,232,144.74,228.45,144.74,228.45Z"/></clipPath><clipPath id="clip-path-5"><path class="cls-1" d="M146.41,233.48s-3.53,20-22.32,38.75c0,0,18.35,59.66,40,48.77S170,255.16,170,255.16s3.94-5.26,3.94-7.83a5.24,5.24,0,0,0-1.5-3.86s.2-3.74-1.36-3.89c0,0-.12-4.35-2.78-4.38,0,0-1.33-4.36-4.17-2.82s-12.56,10.71-9,15.93,1.61,30.08,1.61,30.08Z"/></clipPath></defs><g id="Layer_2" data-name="Layer 2"><g id="_1" data-name="1"><path class="cls-3" d="M456.67,484.5,133,443.34,189.37,0,521.08,42.18a6.64,6.64,0,0,1,5.74,7.41L473.13,471.76A14.72,14.72,0,0,1,456.67,484.5Z"/><rect class="cls-4" x="507.49" y="109.59" width="21.74" height="40.45" transform="matrix(0.13, -0.99, 0.99, 0.13, 324.19, 627.66)"/><rect class="cls-5" x="507.49" y="109.59" width="21.74" height="40.45" transform="matrix(0.13, -0.99, 0.99, 0.13, 324.19, 627.66)"/><rect class="cls-6" x="173.74" y="31.95" width="315.54" height="424.98" transform="translate(33.49 -39.87) rotate(7.25)"/><rect class="cls-7" x="160.43" y="25.03" width="315.54" height="424.98" transform="translate(32.51 -38.25) rotate(7.25)"/><line class="cls-8" x1="193.25" y1="48.55" x2="505.17" y2="88.22"/><line class="cls-8" x1="192.56" y1="69.76" x2="504.48" y2="109.43"/><line class="cls-8" x1="189.89" y1="90.73" x2="501.81" y2="130.39"/><line class="cls-8" x1="187.23" y1="111.69" x2="499.14" y2="151.36"/><line class="cls-8" x1="184.56" y1="132.65" x2="496.48" y2="172.32"/><line class="cls-8" x1="181.89" y1="153.62" x2="493.81" y2="193.28"/><line class="cls-8" x1="179.23" y1="174.58" x2="491.15" y2="214.25"/><line class="cls-8" x1="176.56" y1="195.54" x2="488.48" y2="235.21"/><line class="cls-8" x1="173.9" y1="216.51" x2="485.81" y2="256.17"/><line class="cls-8" x1="171.23" y1="237.47" x2="483.15" y2="277.14"/><line class="cls-8" x1="168.57" y1="258.43" x2="480.48" y2="298.1"/><line class="cls-8" x1="165.9" y1="279.39" x2="477.82" y2="319.06"/><line class="cls-8" x1="163.23" y1="300.36" x2="475.15" y2="340.02"/><line class="cls-8" x1="160.57" y1="321.32" x2="472.49" y2="360.99"/><line class="cls-8" x1="157.9" y1="342.28" x2="469.82" y2="381.95"/><line class="cls-8" x1="155.24" y1="363.25" x2="467.15" y2="402.91"/><line class="cls-8" x1="152.57" y1="384.21" x2="464.49" y2="423.88"/><line class="cls-8" x1="149.9" y1="405.17" x2="461.82" y2="444.84"/><line class="cls-9" x1="238.15" y1="15.39" x2="184.72" y2="435.52"/><path class="cls-10" d="M215.75,32.83a6.42,6.42,0,1,1-5.55-7.17A6.41,6.41,0,0,1,215.75,32.83Z"/><path class="cls-10" d="M209.8,79.61a6.41,6.41,0,1,1-5.55-7.17A6.41,6.41,0,0,1,209.8,79.61Z"/><path class="cls-10" d="M203.86,126.39a6.42,6.42,0,1,1-5.56-7.17A6.42,6.42,0,0,1,203.86,126.39Z"/><path class="cls-10" d="M197.91,173.17a6.42,6.42,0,1,1-5.56-7.18A6.42,6.42,0,0,1,197.91,173.17Z"/><path class="cls-10" d="M192,219.94a6.42,6.42,0,1,1-5.56-7.17A6.42,6.42,0,0,1,192,219.94Z"/><path class="cls-10" d="M186,266.72a6.42,6.42,0,1,1-5.55-7.17A6.41,6.41,0,0,1,186,266.72Z"/><path class="cls-10" d="M180.06,313.5a6.42,6.42,0,1,1-5.55-7.18A6.41,6.41,0,0,1,180.06,313.5Z"/><path class="cls-10" d="M174.11,360.27a6.42,6.42,0,1,1-5.55-7.17A6.41,6.41,0,0,1,174.11,360.27Z"/><path class="cls-10" d="M168.16,407.05a6.41,6.41,0,1,1-5.55-7.17A6.41,6.41,0,0,1,168.16,407.05Z"/><path class="cls-11" d="M184,51.4q0,.12-.72,0a11.15,11.15,0,0,1-1.92-.52,14.1,14.1,0,0,1-2.84-1.47,13.71,13.71,0,0,1-3.14-2.9,15.71,15.71,0,0,1-2.46-4.6,19.43,19.43,0,0,1-1-5.89,14.29,14.29,0,0,1,1.34-6.6,14.71,14.71,0,0,1,4.85-5.36,16.82,16.82,0,0,1,6.65-2.65,20.57,20.57,0,0,1,6.6,0,26.88,26.88,0,0,1,10.15,4A36.84,36.84,0,0,1,207.21,30c1.22,1.19,1.81,1.94,1.7,2.06s-.9-.4-2.28-1.36a63.57,63.57,0,0,0-5.94-3.8,28,28,0,0,0-9.62-3.32,19.15,19.15,0,0,0-5.89.12A15,15,0,0,0,179.44,26a12.7,12.7,0,0,0-4.13,4.49A12.56,12.56,0,0,0,174.1,36a18.31,18.31,0,0,0,.66,5.29,14.93,14.93,0,0,0,1.94,4.2,13.83,13.83,0,0,0,2.6,2.83,16.19,16.19,0,0,0,2.43,1.69c.71.43,1.32.66,1.69.9S184,51.33,184,51.4Z"/><path class="cls-11" d="M178,98.18c0,.08-.27.07-.71,0a12,12,0,0,1-1.93-.51,13.91,13.91,0,0,1-6-4.38,15.34,15.34,0,0,1-2.45-4.6,18.72,18.72,0,0,1-1-5.88,14.15,14.15,0,0,1,1.33-6.6,14.72,14.72,0,0,1,4.85-5.36,17,17,0,0,1,6.65-2.66,20.56,20.56,0,0,1,6.6,0,26.71,26.71,0,0,1,10.15,4,36.3,36.3,0,0,1,5.68,4.51c1.22,1.2,1.81,2,1.7,2.07s-.9-.4-2.28-1.36a61.56,61.56,0,0,0-5.94-3.8,27.51,27.51,0,0,0-9.62-3.32,19.15,19.15,0,0,0-5.89.12,15,15,0,0,0-5.74,2.34,12.85,12.85,0,0,0-4.13,4.48,12.59,12.59,0,0,0-1.21,5.55,17.92,17.92,0,0,0,.67,5.29,14.71,14.71,0,0,0,1.93,4.21,13.83,13.83,0,0,0,2.6,2.83,17.54,17.54,0,0,0,2.43,1.69c.71.43,1.32.66,1.7.9S178.06,98.1,178,98.18Z"/><path class="cls-11" d="M172.09,145c0,.08-.26.07-.71,0a11.21,11.21,0,0,1-1.93-.52,12.86,12.86,0,0,1-2.83-1.47,13.52,13.52,0,0,1-3.15-2.9,15.47,15.47,0,0,1-2.45-4.6,18.72,18.72,0,0,1-1-5.88,14.14,14.14,0,0,1,1.34-6.6,14.69,14.69,0,0,1,4.84-5.36,17,17,0,0,1,6.65-2.66,20.28,20.28,0,0,1,6.6,0,26.87,26.87,0,0,1,10.15,4,37,37,0,0,1,5.69,4.52c1.21,1.2,1.8,1.94,1.7,2.06s-.9-.39-2.28-1.36a65.66,65.66,0,0,0-6-3.79,27.51,27.51,0,0,0-9.62-3.32,19.15,19.15,0,0,0-5.89.12,15.17,15.17,0,0,0-5.74,2.33,12.88,12.88,0,0,0-4.13,4.49,12.56,12.56,0,0,0-1.21,5.55,17.92,17.92,0,0,0,.67,5.29,14.65,14.65,0,0,0,1.93,4.2,13.65,13.65,0,0,0,2.6,2.84,17.54,17.54,0,0,0,2.43,1.69c.71.42,1.32.65,1.7.89S172.11,144.88,172.09,145Z"/><path class="cls-11" d="M166.14,191.74c0,.07-.26.07-.71,0a11.21,11.21,0,0,1-1.93-.52,14.05,14.05,0,0,1-2.83-1.47,13.52,13.52,0,0,1-3.15-2.9,15.47,15.47,0,0,1-2.45-4.6,19.08,19.08,0,0,1-1-5.89,14.1,14.1,0,0,1,1.34-6.59,14.61,14.61,0,0,1,4.84-5.36,16.75,16.75,0,0,1,6.65-2.66,20.57,20.57,0,0,1,6.6,0,26.88,26.88,0,0,1,10.15,4,37,37,0,0,1,5.69,4.52c1.22,1.19,1.8,1.94,1.7,2.06s-.9-.39-2.28-1.36a65.36,65.36,0,0,0-5.95-3.8,27.71,27.71,0,0,0-9.62-3.31,18.84,18.84,0,0,0-5.89.11,15.26,15.26,0,0,0-5.74,2.34,12.67,12.67,0,0,0-4.12,4.49,12.43,12.43,0,0,0-1.22,5.55,18.31,18.31,0,0,0,.67,5.29,14.92,14.92,0,0,0,1.93,4.2,13.65,13.65,0,0,0,2.6,2.84,17.86,17.86,0,0,0,2.44,1.69c.7.42,1.31.65,1.69.89S166.16,191.66,166.14,191.74Z"/><path class="cls-11" d="M160.19,238.51c0,.08-.26.08-.71,0a12,12,0,0,1-1.93-.51,14.06,14.06,0,0,1-6-4.38,15.34,15.34,0,0,1-2.45-4.6,19.31,19.31,0,0,1-1-5.88,14.16,14.16,0,0,1,1.34-6.6,14.69,14.69,0,0,1,4.84-5.36,16.88,16.88,0,0,1,6.65-2.65,20.29,20.29,0,0,1,6.6,0,26.81,26.81,0,0,1,10.15,4,35.83,35.83,0,0,1,5.69,4.52c1.22,1.19,1.8,1.94,1.7,2.06s-.9-.4-2.28-1.36a65.36,65.36,0,0,0-6-3.8,27.64,27.64,0,0,0-9.62-3.32,19.15,19.15,0,0,0-5.89.12,15.1,15.1,0,0,0-5.74,2.34,12.73,12.73,0,0,0-4.12,4.48,12.49,12.49,0,0,0-1.22,5.55,18.22,18.22,0,0,0,.67,5.29,14.72,14.72,0,0,0,1.94,4.21,13.81,13.81,0,0,0,2.59,2.83,16.23,16.23,0,0,0,2.44,1.69c.7.43,1.31.66,1.69.9S160.22,238.44,160.19,238.51Z"/><path class="cls-11" d="M154.24,285.29c0,.08-.26.07-.71,0a11.21,11.21,0,0,1-1.93-.52,13.45,13.45,0,0,1-2.83-1.46,14,14,0,0,1-3.15-2.91,15.47,15.47,0,0,1-2.45-4.6,19.31,19.31,0,0,1-1-5.88,14.16,14.16,0,0,1,1.34-6.6,14.69,14.69,0,0,1,4.84-5.36,17,17,0,0,1,6.66-2.66,20.22,20.22,0,0,1,6.59,0,26.77,26.77,0,0,1,10.16,4,36.78,36.78,0,0,1,5.68,4.51c1.22,1.2,1.8,2,1.7,2.06s-.9-.39-2.28-1.36a65.66,65.66,0,0,0-5.95-3.79,27.44,27.44,0,0,0-9.62-3.32,19.09,19.09,0,0,0-5.88.12,15.11,15.11,0,0,0-5.74,2.33,12.7,12.7,0,0,0-4.13,4.49,12.46,12.46,0,0,0-1.22,5.55,18.26,18.26,0,0,0,.67,5.29,14.53,14.53,0,0,0,1.94,4.2,13.62,13.62,0,0,0,2.59,2.84,17.58,17.58,0,0,0,2.44,1.69c.7.42,1.31.65,1.69.89S154.27,285.21,154.24,285.29Z"/><path class="cls-11" d="M148.3,332.07c0,.07-.27.07-.72,0a11.21,11.21,0,0,1-1.93-.52,14.05,14.05,0,0,1-2.83-1.47,13.49,13.49,0,0,1-3.14-2.9,15.48,15.48,0,0,1-2.46-4.6,19.33,19.33,0,0,1-1-5.89,14.25,14.25,0,0,1,1.34-6.59,14.55,14.55,0,0,1,4.85-5.36,16.69,16.69,0,0,1,6.65-2.66,20.22,20.22,0,0,1,6.59,0,26.76,26.76,0,0,1,10.16,4,37.35,37.35,0,0,1,5.68,4.52c1.22,1.2,1.81,1.94,1.7,2.06s-.9-.39-2.28-1.36a62.63,62.63,0,0,0-5.95-3.8,27.64,27.64,0,0,0-9.62-3.31,18.78,18.78,0,0,0-5.88.11,15.13,15.13,0,0,0-5.74,2.34,12.7,12.7,0,0,0-4.13,4.49,12.42,12.42,0,0,0-1.21,5.55,18,18,0,0,0,.66,5.29,14.66,14.66,0,0,0,1.94,4.2A13.9,13.9,0,0,0,143.6,329a18.49,18.49,0,0,0,2.44,1.69c.71.42,1.31.65,1.69.89S148.32,332,148.3,332.07Z"/><path class="cls-11" d="M142.35,378.84q0,.12-.72,0a11.89,11.89,0,0,1-1.92-.52,13.91,13.91,0,0,1-6-4.38,15.53,15.53,0,0,1-2.46-4.59,19.43,19.43,0,0,1-1-5.89,14.29,14.29,0,0,1,1.34-6.6,14.71,14.71,0,0,1,4.85-5.36,16.82,16.82,0,0,1,6.65-2.65,20.29,20.29,0,0,1,6.6,0,26.94,26.94,0,0,1,10.15,4,36.14,36.14,0,0,1,5.68,4.52c1.22,1.19,1.81,1.94,1.7,2.06s-.9-.4-2.28-1.36a62.63,62.63,0,0,0-6-3.8,27.84,27.84,0,0,0-9.62-3.32,19.09,19.09,0,0,0-5.88.12,15,15,0,0,0-5.74,2.34,12.7,12.7,0,0,0-4.13,4.49,12.56,12.56,0,0,0-1.21,5.55,18.31,18.31,0,0,0,.66,5.29,14.79,14.79,0,0,0,1.94,4.2,14.09,14.09,0,0,0,2.59,2.83,16.75,16.75,0,0,0,2.44,1.69c.71.43,1.31.66,1.69.9S142.37,378.77,142.35,378.84Z"/><path class="cls-11" d="M136.4,425.62c0,.08-.27.07-.71,0a11,11,0,0,1-1.93-.52,13.5,13.5,0,0,1-2.84-1.46,13.77,13.77,0,0,1-3.14-2.91,15.34,15.34,0,0,1-2.45-4.6,19,19,0,0,1-1-5.88,14.29,14.29,0,0,1,1.34-6.6,14.72,14.72,0,0,1,4.85-5.36,17,17,0,0,1,6.65-2.66,20.28,20.28,0,0,1,6.6,0,26.71,26.71,0,0,1,10.15,4,36.3,36.3,0,0,1,5.68,4.51c1.22,1.2,1.81,1.95,1.7,2.06s-.9-.39-2.28-1.35a61.56,61.56,0,0,0-5.94-3.8,27.58,27.58,0,0,0-9.62-3.32,19.15,19.15,0,0,0-5.89.12,15,15,0,0,0-5.74,2.34,12.77,12.77,0,0,0-4.13,4.48,12.59,12.59,0,0,0-1.21,5.55,18.27,18.27,0,0,0,.66,5.29,14.8,14.8,0,0,0,1.94,4.2,13.65,13.65,0,0,0,2.6,2.84,17,17,0,0,0,2.43,1.69c.71.42,1.32.66,1.7.9S136.42,425.54,136.4,425.62Z"/><rect class="cls-12" x="507.57" y="94.96" width="21.74" height="36.4" transform="translate(340.78 613.18) rotate(-82.75)"/><path class="cls-13" d="M467.15,135.63a3,3,0,0,1-.6,0l-1.74-.2-6.71-.81-24.66-3.15-81.32-10.66L329,117.7c-7.49-1-14.71-2-21.59-2.84a75.65,75.65,0,0,0-19.56-.21c-6.06.85-11.8,2.15-17.12,1.51a20.05,20.05,0,0,1-7.19-2.23c-2.12-1.1-4-2.38-5.72-3.48a30.34,30.34,0,0,0-5.1-2.68,14.21,14.21,0,0,0-4.72-.88,9.06,9.06,0,0,0-6.21,2,9.71,9.71,0,0,0-1.5,1.78,2.9,2.9,0,0,1,.28-.53,3,3,0,0,1,.42-.61,4.36,4.36,0,0,1,.7-.76,9.13,9.13,0,0,1,6.31-2.19,14.42,14.42,0,0,1,4.85.83,29.8,29.8,0,0,1,5.2,2.66c1.78,1.09,3.63,2.34,5.71,3.41a20,20,0,0,0,7,2.13c5.19.58,10.86-.72,17-1.61a76,76,0,0,1,19.74.13c6.9.82,14.11,1.83,21.6,2.8L352.23,120l81.28,10.9,24.63,3.39,6.69,1,1.73.27A3.4,3.4,0,0,1,467.15,135.63Z"/><path class="cls-13" d="M460.83,157.4a3.92,3.92,0,0,1-.56,0l-1.63-.17-6.28-.72-23.06-2.81-76.05-9.56-76-9.78-23-3.05-6.26-.87-1.62-.25a3,3,0,0,1-.55-.11,3.92,3.92,0,0,1,.56,0l1.63.17,6.27.72,23.06,2.81,76.06,9.56,76,9.78,23,3.06,6.26.86,1.62.25A3.36,3.36,0,0,1,460.83,157.4Z"/><path class="cls-13" d="M441.53,263.71a1.77,1.77,0,0,1-.53,0l-1.56-.15-6-.69-21.92-2.66-72.29-9.08L267,241.8l-21.89-2.91-6-.83-1.54-.24a3.65,3.65,0,0,1-.52-.1,1.93,1.93,0,0,1,.53,0l1.55.16,6,.69,21.92,2.66,72.29,9.08,72.26,9.3,21.89,2.91,5.94.83,1.55.24A2.88,2.88,0,0,1,441.53,263.71Z"/><path class="cls-13" d="M436.12,306.21a2.35,2.35,0,0,1-.53,0L434,306l-6-.69-21.92-2.66-72.28-9.08-72.27-9.31-21.89-2.9-5.94-.83-1.55-.24a2.33,2.33,0,0,1-.52-.11,3.52,3.52,0,0,1,.53,0l1.56.16,6,.69,21.92,2.66,72.3,9.08,72.25,9.3L428.11,305l5.95.83,1.54.23A2.73,2.73,0,0,1,436.12,306.21Z"/><path class="cls-13" d="M434.62,284a2.55,2.55,0,0,1-.52,0l-1.52-.16-5.84-.67-21.47-2.6-70.77-8.89-70.77-9.11-21.43-2.85-5.82-.82-1.51-.23-.51-.1a1.86,1.86,0,0,1,.52,0l1.52.16,5.84.67L263.8,262l70.79,8.89L405.34,280l21.44,2.85,5.82.81,1.51.24A2.61,2.61,0,0,1,434.62,284Z"/><path class="cls-13" d="M321.09,310.84a5.12,5.12,0,0,1-.94,0l-2.68-.27-9.86-1.13-32.46-4-32.45-4.25-9.82-1.37-2.67-.41a4.63,4.63,0,0,1-.92-.2,4.18,4.18,0,0,1,.94,0l2.69.27,9.85,1.13,32.47,4,32.44,4.24,9.82,1.38,2.67.41A3.55,3.55,0,0,1,321.09,310.84Z"/><path class="cls-13" d="M421.51,408a2.35,2.35,0,0,1-.53,0l-1.56-.15-6-.69-21.92-2.66-72.29-9.08L247,386.12l-21.89-2.9-5.95-.83-1.54-.24a2,2,0,0,1-.52-.11,3.52,3.52,0,0,1,.53,0l1.55.16,6,.69,21.92,2.66,72.29,9.08,72.26,9.3,21.89,2.91,5.94.83,1.55.23A3.37,3.37,0,0,1,421.51,408Z"/><path class="cls-13" d="M420,385.82a2.55,2.55,0,0,1-.52,0l-1.53-.16-5.84-.67c-2.56-.31-5.66-.69-9.26-1.11-31.12-2.2-62.12-8.2-93.2-11.68l-9.93-1.3-50.61-6.51-21.43-2.85-5.82-.82-1.52-.23-.51-.1a1.86,1.86,0,0,1,.52,0l1.53.16,5.84.67,21.46,2.6,50.63,6.36c3.25.41,6.57.82,9.93,1.26q46.49,6.33,93.16,12l9.25,1.22,5.82.81,1.52.24A2.61,2.61,0,0,1,420,385.82Z"/><path class="cls-13" d="M306.48,412.67a5.12,5.12,0,0,1-.94,0l-2.69-.27L293,411.23l-32.47-4L228.08,403l-9.82-1.37-2.66-.41a4.18,4.18,0,0,1-.92-.2,4.17,4.17,0,0,1,.94,0l2.68.27,9.85,1.13,32.48,4,32.44,4.24,9.82,1.38,2.66.41A3.89,3.89,0,0,1,306.48,412.67Z"/><path class="cls-13" d="M277.18,155.07c0,.22-7.73-.59-17.2-1.79s-17.12-2.36-17.09-2.57,7.72.59,17.19,1.8S277.2,154.86,277.18,155.07Z"/><path class="cls-13" d="M444.48,240.48a3.27,3.27,0,0,1-.51,0l-1.5-.15c-1.32-.15-3.26-.35-5.77-.56s-5.57-.46-9.14-.66-7.63-.42-12.12-.61c-9-.41-19.71-.68-31.6-1.38-5.94-.36-12.18-.81-18.61-1.64s-13-1.93-19.84-2.94l-69.53-10.64-21.06-3.32-5.72-.94-1.48-.27a2.44,2.44,0,0,1-.5-.11,2,2,0,0,1,.51,0l1.5.18,5.74.8,21.09,3.08,69.57,10.41c6.79,1,13.41,2.07,19.82,2.95S378,236,383.89,236.38c11.87.73,22.58,1.06,31.57,1.54,4.5.23,8.56.45,12.13.72s6.64.53,9.14.8,4.45.51,5.76.71l1.49.22A1.79,1.79,0,0,1,444.48,240.48Z"/><line class="cls-1" x1="239.93" y1="343.99" x2="224.13" y2="322.5"/><path class="cls-14" d="M427,95.47A57.88,57.88,0,0,0,416.84,97q-2.83,3.2-6.29,7.72l-1.68,2.23c-.3.4-.75,1-1.35,1.72s-1.31,1.28-1.91,1.2a1,1,0,0,1-.78-.49,1,1,0,0,1-.24-.79c.06-.49.88-1.77,2.46-3.87q1.29-1.7,3.87-4.79,1-1.19,1.59-2a21.91,21.91,0,0,0-3,.65,2.81,2.81,0,0,1-1.07.15.91.91,0,0,1-.74-.57,1.17,1.17,0,0,1-.12-.7,1.32,1.32,0,0,1,.78-1.16,17.21,17.21,0,0,1,3.8-1,28.8,28.8,0,0,0,3.22-.75Q416,94,418.75,91q1.17-1.31,6.44-6a95.23,95.23,0,0,1,7.75-6.34c1.52-1.14,2.65-1.66,3.38-1.57a1.56,1.56,0,0,1,1.09.69,1.68,1.68,0,0,1,.28,1.14,8.51,8.51,0,0,1-1.05,2.44c-1.1,2-2.18,4.18-3.25,6.5-.92,2.05-1.57,3.64-1.94,4.75l.63.05c.5,0,.91.09,1.24.13,1,.13,1.45.57,1.36,1.33a1.84,1.84,0,0,1-.45.93,1.36,1.36,0,0,1-.81.49,4.06,4.06,0,0,1-.86-.06,9.58,9.58,0,0,0-2.22-.1,89.32,89.32,0,0,0-3.16,9.14,59,59,0,0,0-1.46,6.07c-.16,1.24-.61,1.81-1.35,1.72a1.54,1.54,0,0,1-1.25-1.08,3.36,3.36,0,0,1-.15-1.73,49.78,49.78,0,0,1,2.49-9.46Q426.5,97.06,427,95.47Zm1.08-2.7c.22-.48.79-1.76,1.7-3.85q.34-.83,1.62-3.24t2.06-4a19.74,19.74,0,0,0-3.79,2.52,72.8,72.8,0,0,0-10,9.63c.66-.07,2.08-.28,4.26-.64C424.59,93.1,426,93,428.09,92.77Z"/><path class="cls-14" d="M441.24,86.6c.66-1.08,1.23-2,1.73-2.67s1-1,1.52-1c.22,0,.31.17.28.41a6.77,6.77,0,0,1-.9,1.69c-.26.4-.62,1-1.1,1.75l1.7.26a3.09,3.09,0,0,1,1.3.35.55.55,0,0,1,.2.59c-.06.5-.31.73-.74.67a4.62,4.62,0,0,1-.54-.11q-.29-.09-2.19-.33l-.54-.08c-.44.74-.86,1.53-1.29,2.36a8.28,8.28,0,0,1-.89,1.51.89.89,0,0,1-.77.4.53.53,0,0,1-.36-.19.51.51,0,0,1-.15-.43A19.77,19.77,0,0,1,440.4,88a15.14,15.14,0,0,0-1.74-.08,4.56,4.56,0,0,1-.66,0,.71.71,0,0,1-.56-.41.75.75,0,0,1-.06-.42c.05-.45.35-.7.89-.74a24.55,24.55,0,0,1,2.56.2Z"/><path class="cls-14" d="M456.83,62.48a79.37,79.37,0,0,0-56.64,13c-12.94,8.84-33.4,29-23.65,46.22,9.57,17,35.09,17.82,51.22,11.93,9.58-3.49,17.52-9.88,24.86-16.81a79.43,79.43,0,0,0,17.95-24.07c4.3-9.26,7.93-21,1.61-30.28-4.41-6.5-16.11-10.2-23.42-7.51-.59.21-.34,1.16.26.94,8.3-3,20.78,2.18,24,10.37,3.85,9.88-.21,20.46-4.93,29.32-7.64,14.34-21.6,28.5-36.42,35.38-15.91,7.39-40.21,8-52.27-6.94-13.56-16.78,7.95-38.57,21.33-47.7a78.42,78.42,0,0,1,55.88-12.91c.62.09.89-.85.26-1Z"/><path id="Path_281" data-name="Path 281" class="cls-15" d="M194.58,243.92a12.55,12.55,0,0,0,5.53-1.93c1.79-1.51,1.82,4.39-2.78,5.59S194.58,243.92,194.58,243.92Z"/><path id="Path_277" data-name="Path 277" class="cls-15" d="M194.23,257.45s2.49,2.59-7.2,1.25c-2.82-.39-4.14-2.86-6.39-4.2-5.74-3.4,4.59-13.24,12-9.45Z"/><g id="foot-16"><g id="right-9"><g id="Path_272" data-name="Path 272"><path id="Mask-323" class="cls-16" d="M59.92,561.14,50,585.37l19.15,11,12.18-37.14Z"/><g class="cls-17"><g id="Path_272-2" data-name="Path 272-2"><path id="Path_272-3" data-name="Path 272-3" class="cls-15" d="M80.42,569.13l-34.12,5,12.84-18.29Z"/></g></g></g><path id="Path_268" data-name="Path 268" class="cls-18" d="M52.08,577.85s3.82,14.51,20.29,8.75c2.89-1,6.4,10.43,11.82,11,14.48,1.6,14.48,7,14.48,12.14l-24.57.42a9.42,9.42,0,0,1-5-1.35L44.39,594a3.77,3.77,0,0,1-1.29-5.19,2.83,2.83,0,0,1,.32-.45Z"/></g><g id="left-9"><g id="Path_271" data-name="Path 271"><path id="Mask-324" class="cls-16" d="M136.77,573.74s-3.85,16.22-1.1,17.51,15,2.56,20.64,6.09S124,602.45,124,602.45l-8.73-4.09,2.44-27.6Z"/><g class="cls-19"><g id="Path_271-2" data-name="Path 271-2"><path id="Path_271-3" data-name="Path 271-3" class="cls-15" d="M140,574.19,112.38,586.6l5.3-16.49Z"/></g></g></g><path id="Path_267" data-name="Path 267" class="cls-18" d="M113.75,594.16s25.25,4.16,30.15,0,43.16,9.13,34.74,13L117.77,611a3.8,3.8,0,0,1-4-3.53V594.16Z"/></g></g><g id="pants-23"><path id="Path_266" data-name="Path 266" class="cls-20" d="M68.08,375.91l12.34,91.63L54,561.75l26.41,7.38L101,525.23s24.95-63.11,19.9-76.29S68.08,375.91,68.08,375.91Z"/><g id="Path_285" data-name="Path 285"><path id="Mask-325" class="cls-11" d="M61.15,346.37S54,376.58,87.89,408.2c0,0,19.82,73.86,19.82,87.15s4.72,80.09,4.72,80.09H138.6S160.37,444,145,339.25c0,0-15.55-10.84-21-9.73C104.63,333.45,61.15,346.37,61.15,346.37Z"/><g class="cls-21"><g id="Path_285-2" data-name="Path 285-2"><path id="Path_285-3" data-name="Path 285-3" class="cls-22" d="M138,338.87s-27.95,14.47-25,24.95,13,17.62,3.17,43c-4,10.37,4.53,37.2,7.31,66.88,4,42.93,2.81,107.11,2.81,107.11s-16.64,2.65-20.55-2.43S103.27,551,103.27,551L68.7,402.42,51.09,350.5l79.27-17.33Z"/></g></g></g></g><path class="cls-23" d="M2.45,387.5.3,384.74a1.39,1.39,0,0,1,.24-2l9.62-7.52,3,3.86,3,3.85-9.62,7.52a1.4,1.4,0,0,1-2-.24Z"/><path class="cls-12" d="M13.17,379.12l-5.44-7L6.79,371a.56.56,0,0,1,0-.63l4.88-8.43a.54.54,0,0,1,.14-.16L71,315.43a.56.56,0,0,1,.78.09l1.87,2.39a.55.55,0,0,1,.11.41L73.35,322a.54.54,0,0,1-.21.37l-2.69,2.11a.56.56,0,0,1-.41.11l-3.61-.44a.55.55,0,0,0-.41.11l-50.1,39.14a.56.56,0,0,0-.09.78l.47.61a.56.56,0,0,0,.78.09l5.17-4a.56.56,0,0,1,.79.1l5.09,6.52,5.1,6.52a.55.55,0,0,1-.1.78l-14.08,11a.57.57,0,0,1-.78-.1Z"/><polygon class="cls-6" points="28.13 367.43 23.32 361.27 215.71 210.95 220.53 217.11 225.34 223.28 32.95 373.59 28.13 367.43"/><path class="cls-3" d="M220.53,217.11,215.71,211l24.81-12.34a.54.54,0,0,1,.67.16l1.07,1.36,1.07,1.37a.54.54,0,0,1,0,.69l-18,21.09Z"/><polygon class="cls-24" points="243.11 201.22 245.67 199.21 245.3 198.74 247.19 197.27 246.92 196.94 248.05 196.06 248.11 195.56 247.62 195.5 246.49 196.38 246.23 196.05 244.35 197.52 243.98 197.05 241.42 199.05 243.11 201.22"/><line class="cls-25" x1="172.74" y1="244.52" x2="182.37" y2="256.85"/><line class="cls-25" x1="179.96" y1="238.88" x2="189.59" y2="251.21"/><line class="cls-25" x1="187.18" y1="233.24" x2="196.81" y2="245.57"/><line class="cls-25" x1="194.4" y1="227.6" x2="204.03" y2="239.93"/><line class="cls-25" x1="201.62" y1="221.96" x2="211.25" y2="234.28"/><rect class="cls-3" x="244.97" y="196.24" width="1.55" height="2.34" transform="translate(250.01 -117.78) rotate(52)"/><g id="Body-20"><path id="Mask-326" class="cls-2" d="M144.74,228.45s-16.26-16.5-29-19.29L87.19,212.7a27.45,27.45,0,0,0-24.06,27.22v67.64s-6,32.25-6.74,44.83c0,0,6.75,11.95,38.62,4.51,16.08-3.75,20.83-13.41,32.77-17.32,7-2.29,19.5,1.49,19.5,1.49s-8.67-18.65-9.83-33.19c-.72-8.89-1.59-33.7,8.18-68.28C147.77,232,144.74,228.45,144.74,228.45Z"/><path class="cls-2" d="M144.74,228.45s-16.26-16.5-29-19.29L87.19,212.7a27.45,27.45,0,0,0-24.06,27.22v67.64s-6,32.25-6.74,44.83c0,0,6.75,11.95,38.62,4.51,16.08-3.75,20.83-13.41,32.77-17.32,7-2.29,19.5,1.49,19.5,1.49s-8.67-18.65-9.83-33.19c-.72-8.89-1.59-33.7,8.18-68.28C147.77,232,144.74,228.45,144.74,228.45Z"/><g class="cls-26"><g id="Body-21"><path id="Path_275" data-name="Path 275" class="cls-27" d="M124.08,272.23l-12.56-24.65s21,88.27-57.48,104.09,42.66,11,42.66,11l89-12.2Z"/><path id="Path_263" data-name="Path 263" class="cls-28" d="M63.14,307.56s-19.41-85.4,24.18-95.95S79.09,203,79.09,203L30.41,223.8Z"/></g></g></g><g id="head-20"><path id="Path_239" data-name="Path 239" class="cls-16" d="M131.13,159.32s2.08,13.4,1.76,18.35c-.87,13.08-6.89,17.82-16.19,14,0,0-3.46,15.12,4.06,19,0,0-21.6,10.09-33.44,1,0,0,16.48-20.41,21.79-27.19,2.65-3.39,9.55-6.58,16.47-14.28C127.9,167.55,131.13,159.32,131.13,159.32Z"/><path id="Path_262" data-name="Path 262" class="cls-18" d="M132.09,165.54s4.3-13.11,0-18.85-46.46-17.53-49.6,19.79c0,0-1.46,20.26-3.31,25.39a116.41,116.41,0,0,1-7.75,14.7l8.44.24,4.73-7.74v7.74l41.27.79v-5.66l4.69,5.66h10s-3.84-4.7-9.26-17S132.09,165.54,132.09,165.54Z"/></g><g id="Hand-7"><g id="Path_284" data-name="Path 284"><path id="Mask-327" class="cls-16" d="M146.41,233.48s-3.53,20-22.32,38.75c0,0,18.35,59.66,40,48.77S170,255.16,170,255.16s3.94-5.26,3.94-7.83a5.24,5.24,0,0,0-1.5-3.86s.2-3.74-1.36-3.89c0,0-.12-4.35-2.78-4.38,0,0-1.33-4.36-4.17-2.82s-12.56,10.71-9,15.93,1.61,30.08,1.61,30.08Z"/><g class="cls-29"><g id="Path_284-2" data-name="Path 284-2"><path id="Path_284-3" data-name="Path 284-3" class="cls-15" d="M155.27,298.7l-19.5-55.33L148,232l8.24,40.54Z"/><path id="Path_264" data-name="Path 264" class="cls-15" d="M167.59,256.42s9.94,41.05,2.65,63.69,18.12-27,18.12-27l-13-36.72-5.08-1.6Z"/></g></g></g><path id="Path_282" data-name="Path 282" class="cls-30" d="M157.28,254.82l-2,43.88"/><path id="Path_283" data-name="Path 283" class="cls-30" d="M155.27,242.19s5-8,8.51-9.56,4.3,2.44,4.3,2.44A4.29,4.29,0,0,1,171,239.4a4.07,4.07,0,0,1,1.35,4s2.39,3.39,1.46,5.17-3.81,7.88-6.47,7.88"/></g><g id="Hand-8"><path id="Path_276" data-name="Path 276" class="cls-16" d="M196,245.56a18.42,18.42,0,0,0-5.91-1.66c-2.57-.08-1,2.35,1,3.34,0,0-2.63-.65-3.19.46s1.87,2.2,1.71,2.51c0,0-.08.31-.15.3-1.52-.21-2.54-.23-2.95.6-.64,1.28,1.92,2.56,1.35,2.62a2.41,2.41,0,0,0,.26,2.35,6.57,6.57,0,0,0,3.93,2.39c1.44.3,3.27.43,3.55-1.57a3.31,3.31,0,0,0,1.89-2.71,3.6,3.6,0,0,0,1.49-2.84s2.17-1,1.38-2.34A17.07,17.07,0,0,0,196,245.56Z"/><path id="Path_278" data-name="Path 278" class="cls-30" d="M190.9,246.81l8.37,4.16"/><path id="Path_279" data-name="Path 279" class="cls-30" d="M189.3,250l8.21,4.09"/><path id="Path_280" data-name="Path 280" class="cls-30" d="M187.87,253.73l7.32,3.65"/></g></g></g></svg>