<svg xmlns="http://www.w3.org/2000/svg" viewBox="0 0 674.56 667.82"><defs><style>.cls-1{fill:#7fc1ff;}.cls-2{fill:#3e6c98;}</style></defs><g id="Layer_2" data-name="Layer 2"><g id="Layer_1-2" data-name="Layer 1"><path class="cls-1" d="M674.56,667.82H418.05c0-.58,0-1.15,0-1.73-.56-37.46-3.94-75-11.94-111.66-10.56-48.37-28.72-94.77-50.28-139.22-2.84-5.84-6.43-12.28-12.51-15.24a52.12,52.12,0,0,0-6-1.85,52,52,0,0,0-6,1.85c-6.09,3-9.68,9.4-12.51,15.24-21.56,44.45-39.73,90.85-50.29,139.22-8,36.65-11.37,74.2-11.94,111.66,0,.58,0,1.15,0,1.73H0l.84-8.75L42.47,224.66h129.7V272H501.88v-47.3H632.06l41.66,434.43Z"/><path class="cls-2" d="M570.79,197.28c-.16-4.55-.52-9.1-1-13.57a688,688,0,0,0-465,0c-.51,4.47-.86,9-1,13.57-.08,2.27-.13,4.58-.13,6.88a178.15,178.15,0,0,0,1.16,20.5h67.37l7.23,19.78V272H494.65V244.44l7.23-19.78h67.85a175.9,175.9,0,0,0,1.2-20.5C570.93,201.86,570.87,199.55,570.79,197.28ZM309,258H275.81V218.33a16.62,16.62,0,0,1,33.23,0Zm44.62,0H320.42V218.33a16.62,16.62,0,0,1,33.24,0Zm44.61,0H365V218.33a16.62,16.62,0,0,1,33.24,0Z"/><path class="cls-2" d="M336,143.24a688.32,688.32,0,0,0-231.2,40.47C116.53,80.56,216.11,0,337.27,0S558,80.56,569.76,183.71A688.12,688.12,0,0,0,336,143.24Z"/></g></g></svg>