<svg xmlns="http://www.w3.org/2000/svg" viewBox="0 0 402.22 865.25"><defs><style>.cls-1{fill:#7fc1ff;}.cls-2{fill:#3e6c98;}</style></defs><g id="Layer_2" data-name="Layer 2"><g id="Layer_1-2" data-name="Layer 1"><path class="cls-1" d="M199.68,38.8,201,.42a.44.44,0,0,1,.87,0l1.34,38.38a1.78,1.78,0,0,1-3.55.13Z"/><path class="cls-1" d="M216.7,65.58s1.17-30.77-16.14-30.77-16.14,30.77-16.14,30.77Z"/><path class="cls-1" d="M200.56,34.81a12.32,12.32,0,0,0-3.85.65c9.46,6.65,15.72,19.63,15.32,30.12h4.67S217.87,34.81,200.56,34.81Z"/><path class="cls-2" d="M184.89,56.49a65.66,65.66,0,0,0-.47,9.09H216.7a64.72,64.72,0,0,0-.54-9.67C206.13,51.06,194.85,51.8,184.89,56.49Z"/><path class="cls-2" d="M216.16,55.91a33.47,33.47,0,0,0-16.55-3.21,56.69,56.69,0,0,1,17,7.75C216.51,59.09,216.38,57.57,216.16,55.91Z"/><path class="cls-2" d="M220.13,68.67l-.19-.35c-.07-.13-.13-.25-.21-.37s-.26-.44-.41-.66-.31-.46-.48-.69l-.15-.2-.4-.5c-.2-.24-.42-.49-.65-.73a4.17,4.17,0,0,0-.36-.37c-.18-.18-.36-.36-.56-.54l-.07-.06-.42-.36c-.17-.15-.34-.29-.52-.42-.36-.28-.74-.55-1.15-.81l-.62-.39-.67-.37c-.45-.25-.93-.48-1.44-.7-.24-.11-.49-.21-.75-.31l-.46-.17-.7-.24c-.26-.09-.52-.17-.79-.24a2,2,0,0,0-.33-.09,3.18,3.18,0,0,0-.33-.09l-.66-.16a5.23,5.23,0,0,0-.57-.12l-.32-.07-.45-.08c-.36-.07-.73-.12-1.11-.17-.8-.12-1.64-.2-2.52-.25-.36,0-.73,0-1.12,0l-1.16,0-1.07,0q-1.31,0-2.49.18l-.31,0a26.91,26.91,0,0,0-3.23.6,21.39,21.39,0,0,0-9.05,4.55h0a15,15,0,0,0-3.21,3.81,4.25,4.25,0,0,1,.6-.12c4.88,0,7.22,7.82,7.22,15v10c-1.89.41-3.76.85-5.59,1.33-1.2.3-2.39.62-3.56,1,0,1.5,0,3,0,4.59l.19,0,.33-.09.15,0,.3-.08.07,0,.48-.13.34-.09.75-.2,1.27-.35c.65-.17,1.3-.33,2-.48l.09,0,.79-.2,2.45-.55v40.49l-1.61.11-1.59.13-1.49.13-2.71.28c-.52.05-1,.11-1.55.18,0,1.32,0,2.39,0,3.15,0,1.17,0,1.82,0,1.82H221s0-1.93.07-5.18c.06-4.75.14-12.31.19-20.75V118C221.37,97.1,221.28,70.9,220.13,68.67Zm-8,22.5a54.82,54.82,0,0,0-6.67-.18q-1.94.06-3.87.24c-1.29.11-2.59.26-3.88.44V82.1c0-.25,0-.49,0-.74s0-.5,0-.75,0-.49,0-.74,0-.57.06-.85,0-.61.08-.91c.07-.64.15-1.29.25-1.92a0,0,0,0,0,0,0c.1-.64.22-1.27.36-1.88a20.93,20.93,0,0,1,1.68-4.91,11.25,11.25,0,0,1,.76-1.29,4.86,4.86,0,0,1,3.94-2.5c4.87,0,7.21,8.62,7.21,16.52Zm-5.89,46.75-2,0q-1.69,0-3.48,0H199.2l-1.5,0V96.26q.92-.12,1.83-.21l.57-.06c1.09-.11,2.19-.19,3.28-.26a60.64,60.64,0,0,1,8.74.07v42.35Q209.33,138,206.23,137.92Z"/><path class="cls-2" d="M219,87a299.63,299.63,0,0,1,2.29,31.11c.12-20.92,0-47.21-1.11-49.44-1.93-3.73-6.92-9.58-19.57-9.58a25.87,25.87,0,0,0-12.55,3c7,.1,14,.82,19.81,4C215.53,70.31,217.67,78.87,219,87Z"/><path class="cls-2" d="M201,68.08a11.25,11.25,0,0,0-.76,1.29A8.94,8.94,0,0,1,201,68.08Z"/><path class="cls-2" d="M212.12,138.15V142H197.7v-4.13l1.5,0h1.52q1.78,0,3.48,0l2,0Q209.34,138,212.12,138.15Z"/><path class="cls-2" d="M180.36,99.91,180,100Z"/><path class="cls-2" d="M186.56,98.3c-2,.49-4.79,1.23-6.05,1.57Q183.48,99,186.56,98.3Z"/><path class="cls-2" d="M189,138.24v4H180.1c0-.76,0-1.83,0-3.15.51-.07,1-.13,1.55-.18l2.71-.28,1.49-.13,1.59-.13Z"/><path class="cls-2" d="M205.45,91h0c-1.28,0-2.58.12-3.87.23Q203.52,91.05,205.45,91Z"/><path class="cls-2" d="M204.2,137.88c0,1.38,0,2.75-.07,4.13H197.7v-4.13l1.5,0h1.52Q202.51,137.85,204.2,137.88Z"/><path class="cls-2" d="M183.42,94.5v.07c-1.18.31-2.41.56-3.56.89C181,95.12,182.22,94.8,183.42,94.5Z"/><path class="cls-2" d="M185.81,138.48c-.1,1.41-.22,2.67-.36,3.74H180.1c0-.76,0-1.83,0-3.15.51-.07,1-.13,1.55-.18l2.71-.28Z"/><path class="cls-2" d="M161.82,727.31a1,1,0,0,0-1.85.3l1.35.8.72-.49Zm0,0a1,1,0,0,0-1.85.3l1.35.8.72-.49Zm0,0a1,1,0,0,0-1.85.3l1.35.8.72-.49Zm0,0a1,1,0,0,0-1.85.3l1.35.8.72-.49Zm0,0a1,1,0,0,0-1.85.3l1.35.8.72-.49Zm0,0a1,1,0,0,0-1.85.3l1.35.8.72-.49Zm0,0a1,1,0,0,0-1.85.3l1.35.8.72-.49Zm0,0a1,1,0,0,0-1.85.3l1.35.8.72-.49Zm0,0a1,1,0,0,0-1.85.3l1.35.8.72-.49Zm0,0a1,1,0,0,0-1.85.3l1.35.8.72-.49Zm32.72-383.95c-.95.83-1.9,1.68-2.85,2.53l-3.78,3.47c-.24,12.68-.51,26.76-.8,41.56,2.91-.2,5.6-.33,7.78-.39C194.83,372.91,194.7,357,194.54,343.36ZM161.82,727.31a1,1,0,0,0-1.85.3l1.35.8.72-.49Zm32.72-383.95c-.95.83-1.9,1.68-2.85,2.53l-3.78,3.47c-.24,12.68-.51,26.76-.8,41.56,2.91-.2,5.6-.33,7.78-.39C194.83,372.91,194.7,357,194.54,343.36ZM161.82,727.31a1,1,0,0,0-1.85.3l1.35.8.72-.49Zm32.72-383.95c-.95.83-1.9,1.68-2.85,2.53l-3.78,3.47c-.24,12.68-.51,26.76-.8,41.56,2.91-.2,5.6-.33,7.78-.39C194.83,372.91,194.7,357,194.54,343.36ZM161.82,727.31a1,1,0,0,0-1.85.3l1.35.8.72-.49Zm32.72-383.95c-.95.83-1.9,1.68-2.85,2.53l-3.78,3.47c-.24,12.68-.51,26.76-.8,41.56,2.91-.2,5.6-.33,7.78-.39C194.83,372.91,194.7,357,194.54,343.36ZM161.82,727.31a1,1,0,0,0-1.85.3l1.35.8.72-.49Zm32.72-383.95c-.95.83-1.9,1.68-2.85,2.53l-3.78,3.47c-.24,12.68-.51,26.76-.8,41.56,2.91-.2,5.6-.33,7.78-.39C194.83,372.91,194.7,357,194.54,343.36ZM161.82,727.31a1,1,0,0,0-1.85.3l1.35.8.72-.49Zm32.72-383.95c-.95.83-1.9,1.68-2.85,2.53l-3.78,3.47c-.24,12.68-.51,26.76-.8,41.56,2.91-.2,5.6-.33,7.78-.39C194.83,372.91,194.7,357,194.54,343.36ZM161.82,727.31a1,1,0,0,0-1.85.3l1.35.8.72-.49Zm32.72-383.95c-.95.83-1.9,1.68-2.85,2.53l-3.78,3.47c-.24,12.68-.51,26.76-.8,41.56,2.91-.2,5.6-.33,7.78-.39C194.83,372.91,194.7,357,194.54,343.36ZM161.82,727.31a1,1,0,0,0-1.85.3l1.35.8.72-.49Zm32.72-383.95c-.95.83-1.9,1.68-2.85,2.53l-3.78,3.47c-.24,12.68-.51,26.76-.8,41.56,2.91-.2,5.6-.33,7.78-.39C194.83,372.91,194.7,357,194.54,343.36ZM161.82,727.31a1,1,0,0,0-1.85.3l1.35.8.72-.49Zm32.72-383.95c-.95.83-1.9,1.68-2.85,2.53l-3.78,3.47c-.24,12.68-.51,26.76-.8,41.56,2.91-.2,5.6-.33,7.78-.39C194.83,372.91,194.7,357,194.54,343.36ZM161.82,727.31a1,1,0,0,0-1.85.3l1.35.8.72-.49Zm32.72-383.95c-.95.83-1.9,1.68-2.85,2.53l-3.78,3.47c-.24,12.68-.51,26.76-.8,41.56,2.91-.2,5.6-.33,7.78-.39C194.83,372.91,194.7,357,194.54,343.36ZM161.82,727.31a1,1,0,0,0-1.85.3l1.35.8.72-.49Zm32.72-383.95c-.95.83-1.9,1.68-2.85,2.53l-3.78,3.47c-.24,12.68-.51,26.76-.8,41.56,2.91-.2,5.6-.33,7.78-.39C194.83,372.91,194.7,357,194.54,343.36ZM161.82,727.31a1,1,0,0,0-1.85.3l1.35.8.72-.49Zm32.72-383.95c-.95.83-1.9,1.68-2.85,2.53l-3.78,3.47c-.24,12.68-.51,26.76-.8,41.56,2.91-.2,5.6-.33,7.78-.39C194.83,372.91,194.7,357,194.54,343.36ZM161.82,727.31a1,1,0,0,0-1.85.3l1.35.8.72-.49Zm32.72-383.95c-.95.83-1.9,1.68-2.85,2.53l-3.78,3.47c-.24,12.68-.51,26.76-.8,41.56,2.91-.2,5.6-.33,7.78-.39C194.83,372.91,194.7,357,194.54,343.36ZM161.82,727.31a1,1,0,0,0-1.85.3l1.35.8.72-.49Zm32.72-383.95c-.95.83-1.9,1.68-2.85,2.53l-3.78,3.47c-.24,12.68-.51,26.76-.8,41.56,2.91-.2,5.6-.33,7.78-.39C194.83,372.91,194.7,357,194.54,343.36Zm85,385.31c-.48-.86-1-1.93-1.69-3.2-.07-.13-.14-.27-.2-.41-1.29-2.53-2.88-5.81-4.69-9.85-1.48-3.32-3.11-7.15-4.83-11.49s-3.47-9-5.3-14.29c-3.47-10-7.1-21.8-10.56-35.42q-1.74-6.81-3.41-14.24h0a575,575,0,0,1-9.64-56.87q-.69-5.73-1.29-11.7c-1.67-16.35-2.83-34-3.32-52.87q-.36-13.83-.7-26.69-.11-3.83-.21-7.56c-.89-33.08-1.72-61.26-2.36-85q-.09-3.45-.18-6.76c-.92-35.48-1.35-60.28-.79-76,0-.61,0-1.2.07-1.79s0-1,.06-1.42l0-.69c0-.41,0-.83.07-1.22.11-1.93.24-3.69.39-5.27,0-.37.07-.72.11-1.06s.1-.86.15-1.26l0-.2c0-.22,0-.43.08-.63q.12-.82.24-1.56l.09-.48a6.18,6.18,0,0,1,.12-.62c0-.13,0-.25.08-.37.1-.46.2-.89.31-1.29.06-.24.14-.48.21-.7s.14-.43.22-.63c.31-.81.63-1.63,1-2.45.66-1.65,1.36-3.33,2.07-5,.89-2.08,1.8-4.15,2.7-6.13.35-.79.71-1.57,1.06-2.33s.7-1.5,1-2.22c.65-1.39,1.27-2.68,1.83-3.86.87-1.8,1.61-3.33,2.17-4.46l.22-.44c.41-.83.7-1.4.83-1.65a.16.16,0,0,1,0-.07.08.08,0,0,1,0,0v0l-.29-.07-.36-.09-.49-.12-.34-.08-.31-.07-1.3-.3h0l-.15,0c-.83-.18-1.79-.39-2.89-.61l-.3-.06-2.31-.45-1.2-.22c-.77-.15-1.57-.29-2.4-.43l-1.62-.27-1-.17-.91-.14-2.42-.36-.93-.13c-2.82-.39-5.87-.75-9.09-1.06h0c-1-.09-2-.18-3-.25h-.14l-1.4-.11h0l-2.3-.16h0l-1.91-.1-1.49-.07-2-.07-1.37,0-1.71,0-2.33,0-2.32,0-1.37,0-1.35,0-3.22.13-2.13.11c-.78,0-1.56.09-2.33.15h0l-1.41.1-3,.25-.56,0-3.63.38c-1.82.2-3.56.42-5.23.65l-1.21.17-2.51.37-1.6.25c-2.94.48-5.52,1-7.64,1.39l-.59.12q-1.44.28-2.55.54h0l-1.29.29-.64.15-.52.12-.42.1-.52.13h0l0,0,0,.07.85,1.7.28.56c.11.22.22.46.35.71l.3.6c.17.37.36.75.56,1.16l.4.84.79,1.64c.52,1.09,1.08,2.27,1.66,3.52l1.2,2.59c.2.44.41.89.61,1.34.41.9.83,1.83,1.24,2.77.55,1.22,1.09,2.47,1.62,3.71l.53,1.25c.22.53.44,1.05.65,1.57.31.73.6,1.45.89,2.18s.65,1.64,1,2.45c.11.3.22.62.32,1h0c.1.35.2.72.3,1.12a4.54,4.54,0,0,1,.12.53c0,.17.08.34.11.52s.08.39.11.6.08.41.11.63c.07.42.14.88.21,1.35s.13.95.19,1.46c.11,1,.21,2,.31,3.18,0,.29,0,.58.07.87.07.89.13,1.82.18,2.8l.06,1.09c0,.7.08,1.42.1,2.17q.1,2.61.18,5.58c0,1,0,1.95.06,3,0,.39,0,.78,0,1.18,0,.71,0,1.44,0,2.18.05,5.59,0,12,0,19.18,0,.62,0,1.26,0,1.9,0,2-.05,4-.08,6.1,0,.74,0,1.5,0,2.26,0,1.25,0,2.52-.07,3.82,0,.71,0,1.44,0,2.17q-.06,2.94-.12,6-.26,11.76-.63,25.62c-.05,2.2-.11,4.43-.17,6.71-.65,23.85-1.48,52.17-2.39,85.4-.06,2.44-.13,4.92-.19,7.42q-.33,12.26-.67,25.39c-.5,19.62-1.74,37.86-3.5,54.74q-.63,6-1.33,11.69a570.79,570.79,0,0,1-9.91,57.19c-1.09,4.81-2.22,9.42-3.36,13.83-3.65,14.12-7.46,26.25-11.07,36.39-1.85,5.18-3.64,9.85-5.33,14-1.28,3.18-2.51,6.06-3.66,8.64-1.86,4.19-3.5,7.58-4.83,10.19-2.19,4.33-3.51,6.48-3.51,6.48H281.17S280.6,730.54,279.59,728.67Zm-27.13-41.53-2.77-.41h0A190.57,190.57,0,0,0,228,685.14c-1.44-10.78-2.72-22.44-3.84-34.11,6.11.21,12.1.62,17.73,1.3.93.11,1.84.23,2.74.36C246.92,664.5,249.53,676,252.46,687.14ZM194.82,581.46c3.21-.14,6.53-.26,9.9-.32.88,0,1.78,0,2.67,0,.64,18.3,1.41,36.69,2.35,54.92l-2.67,0c-4.59.07-8.76.2-12.29.26l-2.32.06C193.4,618.15,194.18,599.76,194.82,581.46Zm10.26-99.28-2.67,0c-1.91,0-3.68.08-5.27.1.38-30.41.49-59,.44-84.4,1.44-.05,2.91-.09,4.39-.12.88,0,1.77,0,2.67,0C204.59,423.14,204.69,451.76,205.08,482.18Zm-2.56,8.23,2.67-.05c.37,25.28.94,51.69,1.79,78.41l-2.68,0c-3.1.06-5.93.14-8.39.18h-.68c.86-26.73,1.43-53.15,1.8-78.44Q199.73,490.47,202.52,490.41Zm2.6-155.81c-.2,15.4-.38,34.3-.46,55.75l-2.67,0-4.43.08c-.07-18.58-.21-35.24-.38-49.38-.2-17-.43-30.39-.6-39,2.08-.08,4.22-.14,6.39-.17q1.34,0,2.67,0C205.5,309.37,205.3,320.52,205.12,334.6ZM191.65,651.4c5.19-.25,10.66-.43,16.22-.51l2.67,0c.65,11.56,1.37,23,2.17,34.31l-2.67.05c-6,.16-11.33.38-15.26.44-1.48,0-3.27.09-5.32.2C190.27,674.52,191,663,191.65,651.4Zm50.26-13.16c-.91-.17-1.83-.33-2.75-.46a147.75,147.75,0,0,0-16.36-1.55c-1.8-21.42-3-41.61-3.47-55,4.13.12,8.2.35,12.11.73q1.37.12,2.7.27C236.17,601.16,238.72,620,241.91,638.24Zm-9-68c-.9-.14-1.8-.27-2.7-.38-3.78-.49-7.58-.78-11.28-.94-.47-17.23-1.12-45.93-1.82-78.5,2.77.07,5.5.19,8.15.37h0c.9.05,1.79.12,2.68.2C228.83,516.86,230.39,543.63,232.93,570.24Zm-5.22-87.12c-.89-.11-1.78-.21-2.68-.3-2.7-.26-5.41-.43-8.06-.54-.58-27.36-1.18-56.93-1.72-84.45,3.21.09,6.37.25,9.39.5.9.08,1.79.16,2.67.26C226.87,424.23,226.84,453,227.71,483.12Zm3-179.32c-.15,3.56-.35,7.83-.58,12.74-.82,17.74-2,43.87-2.66,75.09-.88-.15-1.77-.27-2.67-.38-3.21-.41-6.48-.65-9.67-.78-.46-23.63-.88-45.41-1.19-62.55-.2-10.72-.36-19.62-.46-26a142.77,142.77,0,0,1,14.61,1c.91.12,1.79.24,2.65.38Zm7.22-29.47h0l2.41.43c-3.31,5.85-7,13.84-8.74,22.08q-1.26-.33-2.55-.6a92.86,92.86,0,0,0-15.7-1.69c0-1.65,0-2.77,0-3.31a65.18,65.18,0,0,1,3.27-19.58A211.46,211.46,0,0,1,237.9,274.33Zm-37.13-3.25c2,0,3.91,0,5.79.08.9,0,1.78,0,2.65.09-1.55,5.9-3.29,14.32-3.35,19.88,0,.33,0,1.46-.07,3.33q-1.38,0-2.67,0l-6.45.12h-.24c0-2-.07-3.15-.07-3.49-.06-5.56-1.8-14-3.35-19.89C195.52,271.14,198.11,271.08,200.77,271.08Zm-38.84,3.75c5.3-1,12.53-2.15,21.12-2.94l2.6-.21a64.78,64.78,0,0,1,3.27,19.56c0,.58,0,1.84,0,3.72-.87.06-1.76.12-2.67.2a143.11,143.11,0,0,0-15.5,2C169.06,288.85,165.29,280.75,161.93,274.83ZM174,362.38c-.85-25.87-1.93-46.26-2.45-58.41,4.82-.49,10.18-1.15,14.22-1.38l.33,0,2.67-.15c-.17,10.31-.47,26.87-.85,46.94-.24,12.68-.51,26.76-.8,41.56l-2.67.22c-3.16.26-6.48.61-9.65,1.05C174.57,381.63,174.3,371.65,174,362.38Zm.93,37c3.29-.34,6.58-.68,9.37-.86l.88-.06,1.79-.1c-.54,27.57-1.15,57.17-1.72,84.52l-2.68.23c-2.66.23-5.41.52-8.09.87C175.36,453.84,175.35,425.07,174.92,399.39Zm-.7,92.64c2.85-.3,5.67-.58,8.17-.76.66,0,1.29-.1,1.9-.13l.77,0c-.7,32.81-1.36,61.62-1.83,78.63-.88.08-1.77.16-2.67.26-3.71.37-7.6.86-11.4,1.47C171.74,544.8,173.32,518,174.22,492Zm-6.31,91.68c4.34-.57,8.65-1.11,12.26-1.39l.74-.06,1.94-.13c-.5,13.64-1.71,33.8-3.53,55.09l-2.69.25c-5.39.54-11.13,1.28-16.59,2.24C163.27,621.48,165.85,602.68,167.91,583.71ZM157.26,654.5c6.24-.79,12.71-1.67,18-2.11l1.45-.11,1.23-.08c-1.14,11.95-2.48,23.87-4,34.81l-2.71.25c-7.29.7-15.11,1.59-22.26,2.6C152.1,678.46,154.83,666.64,157.26,654.5ZM163.42,727c-.57.36-1,.66-1.38.89l-.22-.61a1,1,0,0,0-1.85.3A107.49,107.49,0,0,0,140.39,718q2.25-6.45,4.3-13.15C152.94,704,162,703,169,702.32l2.72-.27a196.7,196.7,0,0,1-5,23C165.39,725.82,164.28,726.49,163.42,727Zm49-11a53.74,53.74,0,0,0-11.33-1.27,56.1,56.1,0,0,0-14.05,1.92q.66-7.77,1.28-15.69c6.82-.31,14.63-.56,22.81-.65h0l2.66,0q.65,8.25,1.34,16.36C214.26,716.42,213.36,716.2,212.44,716Zm29.81,11.6a1,1,0,0,0-1.85-.29c-.07.21-.15.41-.22.62-.86-.57-2.48-1.61-4.69-2.86a203.48,203.48,0,0,1-5.27-24.66c8.22.2,16.31.61,23.68,1.32.93.09,1.85.18,2.75.29q2.46,8.19,5.18,16c-.8.28-1.59.58-2.37.88A116.08,116.08,0,0,0,242.25,727.6ZM194.54,343.36c-.95.83-1.9,1.68-2.85,2.53l-3.78,3.47c-.24,12.68-.51,26.76-.8,41.56,2.91-.2,5.6-.33,7.78-.39C194.83,372.91,194.7,357,194.54,343.36ZM161.82,727.31a1,1,0,0,0-1.85.3l1.35.8.72-.49Zm32.72-383.95c-.95.83-1.9,1.68-2.85,2.53l-3.78,3.47c-.24,12.68-.51,26.76-.8,41.56,2.91-.2,5.6-.33,7.78-.39C194.83,372.91,194.7,357,194.54,343.36ZM161.82,727.31a1,1,0,0,0-1.85.3l1.35.8.72-.49Zm32.72-383.95c-.95.83-1.9,1.68-2.85,2.53l-3.78,3.47c-.24,12.68-.51,26.76-.8,41.56,2.91-.2,5.6-.33,7.78-.39C194.83,372.91,194.7,357,194.54,343.36ZM161.82,727.31a1,1,0,0,0-1.85.3l1.35.8.72-.49Zm32.72-383.95c-.95.83-1.9,1.68-2.85,2.53l-3.78,3.47c-.24,12.68-.51,26.76-.8,41.56,2.91-.2,5.6-.33,7.78-.39C194.83,372.91,194.7,357,194.54,343.36ZM161.82,727.31a1,1,0,0,0-1.85.3l1.35.8.72-.49Zm32.72-383.95c-.95.83-1.9,1.68-2.85,2.53l-3.78,3.47c-.24,12.68-.51,26.76-.8,41.56,2.91-.2,5.6-.33,7.78-.39C194.83,372.91,194.7,357,194.54,343.36ZM161.82,727.31a1,1,0,0,0-1.85.3l1.35.8.72-.49Zm32.72-383.95c-.95.83-1.9,1.68-2.85,2.53l-3.78,3.47c-.24,12.68-.51,26.76-.8,41.56,2.91-.2,5.6-.33,7.78-.39C194.83,372.91,194.7,357,194.54,343.36ZM161.82,727.31a1,1,0,0,0-1.85.3l1.35.8.72-.49Zm32.72-383.95c-.95.83-1.9,1.68-2.85,2.53l-3.78,3.47c-.24,12.68-.51,26.76-.8,41.56,2.91-.2,5.6-.33,7.78-.39C194.83,372.91,194.7,357,194.54,343.36ZM161.82,727.31a1,1,0,0,0-1.85.3l1.35.8.72-.49Zm32.72-383.95c-.95.83-1.9,1.68-2.85,2.53l-3.78,3.47c-.24,12.68-.51,26.76-.8,41.56,2.91-.2,5.6-.33,7.78-.39C194.83,372.91,194.7,357,194.54,343.36ZM161.82,727.31a1,1,0,0,0-1.85.3l1.35.8.72-.49Zm32.72-383.95c-.95.83-1.9,1.68-2.85,2.53l-3.78,3.47c-.24,12.68-.51,26.76-.8,41.56,2.91-.2,5.6-.33,7.78-.39C194.83,372.91,194.7,357,194.54,343.36ZM161.82,727.31a1,1,0,0,0-1.85.3l1.35.8.72-.49Zm32.72-383.95c-.95.83-1.9,1.68-2.85,2.53l-3.78,3.47c-.24,12.68-.51,26.76-.8,41.56,2.91-.2,5.6-.33,7.78-.39C194.83,372.91,194.7,357,194.54,343.36ZM161.82,727.31a1,1,0,0,0-1.85.3l1.35.8.72-.49Zm32.72-383.95c-.95.83-1.9,1.68-2.85,2.53l-3.78,3.47c-.24,12.68-.51,26.76-.8,41.56,2.91-.2,5.6-.33,7.78-.39C194.83,372.91,194.7,357,194.54,343.36ZM161.82,727.31a1,1,0,0,0-1.85.3l1.35.8.72-.49Zm32.72-383.95c-.95.83-1.9,1.68-2.85,2.53l-3.78,3.47c-.24,12.68-.51,26.76-.8,41.56,2.91-.2,5.6-.33,7.78-.39C194.83,372.91,194.7,357,194.54,343.36ZM161.82,727.31a1,1,0,0,0-1.85.3l1.35.8.72-.49Zm32.72-383.95c-.95.83-1.9,1.68-2.85,2.53l-3.78,3.47c-.24,12.68-.51,26.76-.8,41.56,2.91-.2,5.6-.33,7.78-.39C194.83,372.91,194.7,357,194.54,343.36ZM161.82,727.31a1,1,0,0,0-1.85.3l1.35.8.72-.49Zm32.72-383.95c-.95.83-1.9,1.68-2.85,2.53l-3.78,3.47c-.24,12.68-.51,26.76-.8,41.56,2.91-.2,5.6-.33,7.78-.39C194.83,372.91,194.7,357,194.54,343.36ZM161.82,727.31a1,1,0,0,0-1.85.3l1.35.8.72-.49Zm0,0a1,1,0,0,0-1.85.3l1.35.8.72-.49Zm0,0a1,1,0,0,0-1.85.3l1.35.8.72-.49Zm0,0a1,1,0,0,0-1.85.3l1.35.8.72-.49Zm0,0a1,1,0,0,0-1.85.3l1.35.8.72-.49Zm0,0a1,1,0,0,0-1.85.3l1.35.8.72-.49Zm0,0a1,1,0,0,0-1.85.3l1.35.8.72-.49Zm0,0a1,1,0,0,0-1.85.3l1.35.8.72-.49Zm0,0a1,1,0,0,0-1.85.3l1.35.8.72-.49Z"/><path class="cls-2" d="M245.33,268.37l-.36-.09-.49-.12-.34-.08-.31-.07-1.3-.3h0l-.15,0c-.83-.18-1.79-.39-2.89-.61l-.3-.06-2.31-.45-1.2-.22c-.77-.15-1.57-.29-2.4-.43l-1.62-.27-1-.17-.91-.14-2.42-.36-.93-.13c-2.82-.39-5.87-.75-9.09-1.06h0c-1-.09-2-.18-3-.25h-.14l-1.4-.11h0l-2.3-.16h0l-1.91-.1-1.49-.07-2-.07-1.37,0-1.71,0-2.33,0-2.32,0-1.37,0-1.35,0-3.22.13-2.13.11c-.78,0-1.56.09-2.33.15h0l-1.41.1-3,.25-.56,0-3.63.38c-1.82.2-3.56.42-5.23.65l-1.21.17-2.51.37-1.6.25c-2.94.48-5.52,1-7.64,1.39l-.59.12q-1.44.28-2.55.54h0l-1.29.29-.64.15-.52.12-.42.1-.52.13h0l0,0,0,.07.85,1.7.28.56c.11.22.22.46.35.71l.3.6c.17.37.36.75.56,1.16l.4.84.79,1.64c.52,1.09,1.08,2.27,1.66,3.52.39.83.8,1.7,1.2,2.59.2.44.41.89.61,1.34.41.9.83,1.83,1.24,2.77.55,1.22,1.09,2.47,1.62,3.71l.53,1.25c.22.53.44,1.05.65,1.57.31.73.6,1.45.89,2.18s.65,1.64,1,2.45c.11.3.22.62.32,1h0c.11.34.21.72.3,1.12a4.54,4.54,0,0,1,.12.53c0,.17.08.34.11.52s.08.39.11.6.08.41.11.63c.07.42.14.88.21,1.35s.13.95.19,1.46c.11,1,.21,2,.31,3.18,0,.29,0,.58.07.87.06.89.12,1.82.18,2.8l.06,1.09c0,.7.08,1.42.1,2.17q.1,2.61.18,5.58c0,1,0,1.95.06,3,0,.39,0,.78,0,1.18,0,.71,0,1.44,0,2.18.05,5.59,0,12,0,19.18,0,.62,0,1.26,0,1.9,0,2-.05,4-.08,6.1,0,.74,0,1.5,0,2.26,0,1.25,0,2.52-.07,3.82,0,.71,0,1.44,0,2.17q-.06,2.94-.12,6,2.76-2.71,5.56-5.4c-.85-25.87-1.93-46.26-2.45-58.41,4.82-.49,10.18-1.15,14.22-1.38l.33,0,2.67-.15c-.17,10.31-.47,26.87-.85,46.94l3.78-3.47c.95-.85,1.9-1.7,2.85-2.53s1.76-1.52,2.64-2.27c-.2-17-.43-30.39-.6-39,2.08-.08,4.22-.14,6.39-.17q1.34,0,2.67,0c-.14,7.49-.34,18.64-.52,32.72q3.06-2.42,6.16-4.73c.88-.66,1.75-1.31,2.63-1.95-.2-10.72-.36-19.62-.46-26a142.77,142.77,0,0,1,14.61,1c.91.12,1.79.24,2.65.38l0,.5c-.15,3.56-.35,7.83-.58,12.74l.32-.22c0-.61,0-1.2.07-1.79s0-1,.06-1.42l0-.69c0-.41,0-.83.07-1.22.11-1.93.24-3.69.39-5.27,0-.37.07-.72.11-1.06s.1-.86.15-1.26a1.49,1.49,0,0,0,0-.21l.09-.62q.12-.82.24-1.56l.09-.48a6.18,6.18,0,0,1,.12-.62c0-.13,0-.25.08-.37.1-.46.2-.89.31-1.29.06-.24.14-.48.21-.7s.14-.43.22-.63c.31-.81.63-1.63,1-2.45.66-1.65,1.36-3.33,2.07-5,.89-2.08,1.8-4.15,2.7-6.13.36-.79.72-1.57,1.06-2.33l1-2.22c.65-1.39,1.27-2.68,1.83-3.86.87-1.8,1.61-3.33,2.17-4.46l.22-.44c.41-.83.7-1.4.83-1.65a.16.16,0,0,1,0-.07.08.08,0,0,1,0,0v0Zm-59.12,26.79a143.11,143.11,0,0,0-15.5,2c-1.65-8.32-5.42-16.42-8.78-22.34,5.3-1,12.53-2.15,21.12-2.94l2.6-.21a64.78,64.78,0,0,1,3.27,19.56c0,.58,0,1.84,0,3.72C188,295,187.12,295.08,186.21,295.16Zm16.91-.67-6.45.12h-.24c0-2-.07-3.15-.07-3.49-.06-5.56-1.8-14-3.35-19.89,2.51-.1,5.1-.16,7.76-.16,2,0,3.91,0,5.79.08.9,0,1.78,0,2.65.09-1.55,5.9-3.29,14.32-3.35,19.88,0,.33,0,1.46-.07,3.33Q204.41,294.46,203.12,294.49Zm28.46,2.35q-1.26-.33-2.55-.6a92.86,92.86,0,0,0-15.7-1.69c0-1.65,0-2.77,0-3.31a65.18,65.18,0,0,1,3.27-19.58,211.46,211.46,0,0,1,21.33,2.67h0l2.41.43C237,280.61,233.27,288.6,231.58,296.84Z"/><path class="cls-2" d="M194.47,482.38q-.06,4.13-.12,8.28c-.36,25.29-.93,51.71-1.78,78.44q-.21,6.24-.43,12.49c-.64,18.3-1.41,36.68-2.36,54.9q-.37,7.54-.81,15Q188,669,186.78,686q-.54,7.59-1.12,15.08-.63,8.24-1.34,16.33-.62,7.1-1.27,14.05H161.71c.29-.63.57-1.31.86-2s.57-1.55.85-2.4c.86-.54,2-1.21,3.3-2a196.7,196.7,0,0,0,5-23l-2.72.27c.8-4.72,1.56-9.77,2.28-15.06L174,687c1.49-10.94,2.83-22.86,4-34.81l-1.23.08-1.45.11c.48-5,.93-10,1.35-14.92l2.69-.25c1.82-21.29,3-41.45,3.53-55.09l-1.94.13-.74.06c0-.43,0-.85.05-1.26.09-2.69.21-6.43.34-11.07.9-.1,1.79-.18,2.67-.26.47-17,1.13-45.82,1.83-78.63l-.77,0c-.61,0-1.24.08-1.9.13q.09-4,.17-8.15l2.68-.23c.57-27.35,1.18-56.95,1.72-84.52l-1.79.1-.88.06c.05-2.48.1-4.95.15-7.39l2.67-.22c.29-14.8.56-28.88.8-41.56.38-20.07.68-36.63.85-46.94l-2.67.15c0-3,.09-5.51.12-7.41.91-.08,1.8-.14,2.67-.2,0-1.88,0-3.14,0-3.72a64.78,64.78,0,0,0-3.27-19.56l-2.6.21c-.51-1.72-1-3.33-1.42-4.85a3.05,3.05,0,0,1,.74-3.32,4.11,4.11,0,0,1,3.77-.61,2.89,2.89,0,0,1,.63.26h0a3.09,3.09,0,0,1,1.48,1.37,46.38,46.38,0,0,1,2.09,6.63c1.54,5.89,3.26,14.24,3.32,19.76,0,.34,0,1.55.08,3.56,0,1.84.08,4.35.15,7.49.17,9,.42,23.13.62,41.18.16,13.65.29,29.55.35,47.17q0,3.69,0,7.48C195,423.38,194.85,452,194.47,482.38Z"/><path class="cls-2" d="M284.69,723.9l-7,1.16-12.56,2.09-2.51.42q-1.62-4.26-3.17-8.66c.78-.3,1.57-.6,2.37-.88q-2.73-7.81-5.18-16c-.9-.11-1.82-.2-2.75-.29q-2.22-7.37-4.21-15l2.77.41c-2.93-11.12-5.54-22.64-7.86-34.45-.9-.13-1.81-.25-2.74-.36-1-4.8-1.85-9.66-2.7-14.55.92.13,1.84.29,2.75.46-3.19-18.26-5.74-37.08-7.77-56q-1.33-.15-2.7-.27-.65-6-1.21-12.06c.9.11,1.8.24,2.7.38-2.54-26.61-4.1-53.38-5-79.24-.89-.08-1.78-.15-2.68-.2h0c-.09-2.67-.17-5.32-.25-8,.9.09,1.79.19,2.68.3-.87-30.14-.84-58.89-.4-84.53-.88-.1-1.77-.18-2.67-.26,0-2.39.09-4.75.13-7.08.9.11,1.79.23,2.67.38.63-31.22,1.84-57.35,2.66-75.09.23-4.91.43-9.18.58-12.74l0-.5c-.86-.14-1.74-.26-2.65-.38a43.91,43.91,0,0,1,1-6.68q1.29.27,2.55.6c1.69-8.24,5.43-16.23,8.74-22.08l-2.41-.43c1.4-2.44,2.71-4.48,3.75-6a1.75,1.75,0,0,1,.85-.63h0a3.56,3.56,0,0,1,2.44.09h0a3.07,3.07,0,0,1,1.85,4.56l-1.69,3.33c-5.73,11.27-8.29,16.42-9.33,22.46a46.64,46.64,0,0,0-.59,6.06c0,1.09-.05,2.24-.05,3.49.33,31,.93,59.66,1.75,86.22.07,2.11.13,4.2.2,6.28h0c1,31.54,2.39,60,4,85.77q.21,3.57.44,7c2,31.09,4.39,58,7,81.38q.61,5.57,1.24,10.85c2.69,22.66,5.57,41.67,8.47,57.6q1.31,7.11,2.6,13.42c3,14.8,6.06,26.43,8.87,35.55h0c1.61,5.22,3.15,9.62,4.6,13.32,1.5,3.86,2.9,7,4.15,9.43C282.26,722.09,284.69,723.9,284.69,723.9Z"/><path class="cls-2" d="M235.17,731.47H213.83q-.72-7.65-1.39-15.47c.92.2,1.82.42,2.72.65q-.69-8.1-1.34-16.36l-2.66,0h0q-.57-7.48-1.11-15.09l2.67-.05c-.8-11.29-1.52-22.75-2.17-34.31l-2.67,0q-.42-7.39-.8-14.84l2.67,0c-.94-18.23-1.71-36.62-2.35-54.92-.89,0-1.79,0-2.67,0-.15-4.12-.28-8.23-.42-12.33l2.68,0c-.85-26.72-1.42-53.13-1.79-78.41l-2.67.05c0-2.75-.07-5.48-.11-8.19l2.67,0c-.39-30.42-.49-59-.44-84.41-.9,0-1.79,0-2.67,0,0-2.51,0-5,0-7.41l2.67,0c.08-21.45.26-40.35.46-55.75.18-14.08.38-25.23.52-32.72q-1.33,0-2.67,0c.06-3.12.11-5.61.15-7.42q1.29,0,2.67,0c0-1.87.07-3,.07-3.33.06-5.56,1.8-14,3.35-19.88-.87,0-1.75-.07-2.65-.09a45.29,45.29,0,0,1,2-6.42,3.23,3.23,0,0,1,1.76-1.5h0a4.51,4.51,0,0,1,3-.12,2.83,2.83,0,0,1,.8.39h0c.94.64,1.46,1.79,1,3.52-.38,1.4-.83,2.87-1.29,4.44a65.32,65.32,0,0,0-3.33,19.76c0,.53,0,1.63,0,3.24,0,1.83.07,4.32.12,7.4.11,6.77.28,16.38.5,28,.3,16.8.7,37.81,1.15,60.52,0,2.44.09,4.9.15,7.38.54,27.51,1.13,57.07,1.72,84.43,0,2.75.11,5.47.16,8.17.7,32.54,1.35,61.21,1.82,78.46.14,5.17.26,9.32.37,12.23v.06c.48,13.41,1.67,33.59,3.47,55h0c.4,4.9.85,9.86,1.32,14.82,1.12,11.68,2.41,23.35,3.84,34.15.72,5.34,1.47,10.46,2.25,15.26a219.71,219.71,0,0,0,4.79,23A55.37,55.37,0,0,0,235.17,731.47Z"/><path class="cls-1" d="M239.79,400.59h0a2.28,2.28,0,0,1-1.24,0c-.46-.13-.94-.26-1.43-.37h0c-1.76-.43-3.68-.8-5.73-1.1-1.31-.2-2.68-.37-4.08-.51-.88-.1-1.77-.18-2.67-.26-3-.25-6.18-.41-9.39-.5l-2.67-.06c-2.64,0-5.31,0-7.94,0-.9,0-1.79,0-2.67,0-1.48,0-2.95.07-4.39.12l-2.67.09c-2.8.1-5.47.23-7.95.36l-1.79.1-.88.06c-2.79.18-6.08.52-9.37.86-2.5.26-5,.52-7.29.72-1.94.16-3.72.28-5.21.31h-1.31c-1.15,0-2-4.08-.2-4.91a17.37,17.37,0,0,1,1.69-.69,41.07,41.07,0,0,1,5.2-1.42c2.15-.46,4.53-.86,7-1.21,3.17-.44,6.49-.79,9.65-1.05l2.67-.22c2.91-.2,5.6-.33,7.78-.39l1.62,0,1.05,0,4.43-.08,2.67,0c2.44,0,5.06,0,7.77,0,.88,0,1.77,0,2.67.08,3.19.13,6.46.37,9.67.78.9.11,1.79.23,2.67.38,1.28.2,2.54.43,3.77.71a45.5,45.5,0,0,1,5.71,1.58c.84.28,1.66.59,2.45.93l.24.12C242.3,396.32,241.8,400,239.79,400.59Z"/><path class="cls-1" d="M237.87,304.8a2.1,2.1,0,0,1-.77-.09c-.6-.18-1.23-.35-1.88-.5-1.22-.3-2.52-.57-3.89-.8h0l-.61-.1c-.86-.14-1.74-.26-2.65-.38a142.77,142.77,0,0,0-14.61-1c-.89,0-1.78,0-2.67,0-1.72,0-3.43,0-5.14,0q-1.33,0-2.67,0c-2.17,0-4.31.09-6.39.17l-2.66.1c-1.79.07-3.52.16-5.16.24l-2.67.15-.33,0c-4,.23-9.4.89-14.22,1.38-1.28.13-2.53.25-3.7.35s-2.45.18-3.5.21c-.62,0-1.2,0-1.72,0-1.1,0-1.87-4.08-.19-4.92.43-.21.92-.42,1.44-.62a27.77,27.77,0,0,1,2.82-.89h0c1.23-.34,2.58-.65,4-.93a143.11,143.11,0,0,1,15.5-2c.91-.08,1.8-.14,2.67-.2,1.76-.12,3.41-.21,4.89-.27,1,0,1.86-.06,2.66-.07h.24l6.45-.12q1.29,0,2.67,0c1.57,0,3.2,0,4.87,0,.88,0,1.77,0,2.67.07a92.86,92.86,0,0,1,15.7,1.69q1.29.27,2.55.6l1.1.29c1.07.3,2.12.64,3.13,1,.71.25,1.4.53,2.08.83a4.13,4.13,0,0,1,.42.22C240.84,300.74,240.1,304.65,237.87,304.8Z"/><path class="cls-1" d="M244.25,493.56a2.51,2.51,0,0,1-1-.09c-.55-.16-1.12-.3-1.7-.44a72.72,72.72,0,0,0-7.59-1.4c-1.92-.25-3.93-.46-6-.63-.89-.08-1.78-.15-2.68-.2h0c-2.65-.18-5.38-.3-8.15-.37l-2.67-.05c-3.09-.05-6.2-.05-9.27,0l-2.67.05q-2.79.06-5.49.15l-2.68.1c-3.29.12-6.42.28-9.29.44l-.77,0c-.61,0-1.24.08-1.9.13-2.5.18-5.32.46-8.17.76-3.13.32-6.3.66-9.17.9s-5.2.4-7.07.37h-.27c-1.28,0-2.16-4.51-.22-5.43.27-.13.55-.25.86-.38a41,41,0,0,1,6.89-2c2.81-.6,6-1.11,9.23-1.52,2.68-.35,5.43-.64,8.09-.87l2.68-.23c3.43-.26,6.62-.42,9.23-.51l2.34-.05h.33c1.59,0,3.36-.06,5.27-.1l2.67,0c2.87,0,6-.05,9.22,0l2.67.08c2.65.11,5.36.28,8.06.54.9.09,1.79.19,2.68.3,2,.25,4.07.56,6,.95a58.66,58.66,0,0,1,7.36,1.91c.93.32,1.84.66,2.72,1h0l.33.13C247.58,488.61,246.84,493.27,244.25,493.56Z"/><path class="cls-1" d="M252.52,586a2.3,2.3,0,0,1-1-.15c-.57-.2-1.15-.4-1.75-.59a73.61,73.61,0,0,0-10.49-2.37c-1.66-.27-3.38-.5-5.13-.7q-1.33-.15-2.7-.27c-3.91-.38-8-.61-12.11-.73l-2.68-.07c-3.08,0-6.18-.06-9.26,0-.89,0-1.79,0-2.67,0-3.37.06-6.69.18-9.9.32l-2.68.13c-3.26.16-6.38.35-9.29.54l-1.94.13-.74.06c-3.61.28-7.92.82-12.26,1.39-2.84.36-5.68.73-8.36,1a91,91,0,0,1-9.79.73h-.66c-1.52-.06-2.59-6.8-.27-8.18a19.56,19.56,0,0,1,2-1,53.27,53.27,0,0,1,10-3.19c2.62-.61,5.42-1.14,8.28-1.6,3.8-.61,7.69-1.1,11.4-1.47.9-.1,1.79-.18,2.67-.26,3.42-.31,6.62-.52,9.34-.63,1-.05,1.84-.08,2.66-.09h.68c2.46,0,5.29-.12,8.39-.18l2.68,0c2.94,0,6.07,0,9.3.06l2.67.09c3.7.16,7.5.45,11.28.94.9.11,1.8.24,2.7.38,1.7.27,3.39.58,5,1a60.86,60.86,0,0,1,10.54,3.22c1,.39,1.9.82,2.81,1.27.42.21.84.42,1.25.64C256.76,578.56,255.77,585.83,252.52,586Z"/><path class="cls-1" d="M263.58,656.68a2.86,2.86,0,0,1-1.84-.08l-.91-.32a74.88,74.88,0,0,0-8.51-2.27c-2.46-.51-5-1-7.72-1.32-.9-.13-1.81-.25-2.74-.36-5.63-.68-11.62-1.09-17.73-1.3l-2.68-.08c-3.62-.09-7.28-.11-10.91-.09l-2.67,0c-5.56.08-11,.26-16.22.51l-2.68.13c-3.88.2-7.57.43-11,.67l-1.23.08-1.45.11c-5.31.44-11.78,1.32-18,2.11-3.86.5-7.62,1-11,1.27a67.19,67.19,0,0,1-7.53.37h-.33c-1.83-.06-3.11-8.17-.32-9.84a25.19,25.19,0,0,1,2.85-1.45h0a60.44,60.44,0,0,1,8.69-2.9c3.22-.84,6.75-1.59,10.4-2.23,5.46-1,11.2-1.7,16.59-2.24l2.69-.25c3.79-.35,7.35-.59,10.46-.73l2.68-.12,2.32-.06c3.53-.06,7.7-.19,12.29-.26l2.67,0c3.31,0,6.8,0,10.38.11h0c.88,0,1.77.06,2.67.1a147.75,147.75,0,0,1,16.36,1.55c.92.13,1.84.29,2.75.46h0c2.37.42,4.7.92,7,1.52h0a68.32,68.32,0,0,1,9.32,3.09c1,.4,2,.84,2.91,1.3q1,.47,1.89,1C267.79,647.69,267,655.63,263.58,656.68Z"/><path class="cls-1" d="M277.37,706.12h0c-.95-.34-2-.67-3.05-1-1.87-.53-3.93-1-6.13-1.43-3.5-.69-7.38-1.25-11.53-1.7-.9-.11-1.82-.2-2.75-.29-7.37-.71-15.46-1.12-23.68-1.32l-2.68,0c-4.59-.09-9.2-.11-13.72-.07l-2.66,0h0c-8.18.09-16,.34-22.81.65l-2.68.13c-3.27.17-6.28.35-8.93.53-1.4.1-3.09.25-5,.43l-2.72.27c-7,.7-16.06,1.72-24.31,2.56-5.61.56-10.85,1-14.81,1.28-2.1.13-3.84.18-5.1.15-1.83-.07-.43-11.16,2.65-12.19.57-.19,1.2-.38,1.88-.57,1.68-.47,3.67-.93,5.9-1.39,4-.81,8.73-1.58,13.81-2.3,7.15-1,15-1.9,22.26-2.6L174,687c4.66-.43,9-.76,12.79-1l2.68-.15c2-.11,3.84-.18,5.32-.2,3.93-.06,9.21-.28,15.26-.44l2.67-.05c4-.09,8.21-.13,12.58-.07l2.68,0a190.57,190.57,0,0,1,21.71,1.59h0l2.77.41a90.11,90.11,0,0,1,10.42,2.29,56.77,56.77,0,0,1,6.82,2.4h0c1.09.47,2.13,1,3.13,1.51h0C278.38,696.31,282.2,707.86,277.37,706.12Z"/><path class="cls-2" d="M174.47,484c-.07,2.67-.16,5.35-.25,8-.9,25.94-2.48,52.77-5.06,79.43q-.58,6.13-1.25,12.25c-2.06,19-4.64,37.77-7.87,56q-1.32,7.47-2.78,14.79c-2.43,12.14-5.16,24-8.24,35.36q-2.06,7.65-4.33,15-2.06,6.71-4.3,13.15-1.68,4.85-3.47,9.54L121.39,725l-6.53-1.09s2.46-1.83,6.3-9.46c1.1-2.2,2.32-4.88,3.62-8.13,1.42-3.53,2.94-7.75,4.53-12.76a376.44,376.44,0,0,0,9.44-37.41c.73-3.58,1.47-7.33,2.2-11.29h0c3-16.28,6-35.85,8.81-59.36.36-3,.71-6.09,1.07-9.23,2.64-23.7,5.08-51.16,7.15-82.95.12-1.92.25-3.85.37-5.81,1.63-26.07,3-55,4.07-87.07.06-1.86.12-3.72.18-5.6.84-26.82,1.45-55.8,1.78-87.12,0-1.13,0-2.18,0-3.17a47,47,0,0,0-.47-5.53c-.93-6.34-3.4-11.38-9.22-22.83-.6-1.2-1.25-2.46-1.93-3.81a2.93,2.93,0,0,1,.71-3.92h0a4,4,0,0,1,3.39-.79h0a1.88,1.88,0,0,1,1,.7c1.11,1.61,2.53,3.83,4,6.49,3.36,5.92,7.13,14,8.78,22.34a43,43,0,0,1,.82,6.63,1,1,0,0,0,0,.17c.52,12.15,1.6,32.54,2.45,58.41.31,9.27.58,19.25.8,29.81q.06,3.56.13,7.2C175.35,425.07,175.36,453.84,174.47,484Z"/><path class="cls-2" d="M197.14,482.32q-.06,4.1-.11,8.24c-.37,25.29-.94,51.71-1.8,78.44h0c-.13,4.15-.26,8.29-.41,12.45-.64,18.3-1.42,36.69-2.36,54.91-.25,5-.53,10-.81,15-.66,11.61-1.38,23.12-2.19,34.46q-.53,7.6-1.12,15.1-.61,7.92-1.28,15.69-.65,7.49-1.34,14.82H164.38a51,51,0,0,0,2.34-6.4,196.7,196.7,0,0,0,5-23c.79-4.72,1.55-9.76,2.27-15,1.49-10.94,2.83-22.86,4-34.81.49-5,.95-10,1.36-15,1.82-21.29,3-41.45,3.53-55.09,0-.36,0-.72,0-1.07.1-2.74.22-6.57.34-11.33.47-17,1.13-45.82,1.83-78.63q.09-4.07.18-8.21c.57-27.35,1.18-56.95,1.72-84.52,0-2.5.1-5,.15-7.45.29-14.8.56-28.88.8-41.56.38-20.07.68-36.63.85-46.94.05-3.06.09-5.57.12-7.46s0-3.14,0-3.72a64.78,64.78,0,0,0-3.27-19.56c-.49-1.64-1-3.18-1.35-4.64-.48-1.77.08-2.94,1.06-3.57a3.47,3.47,0,0,1,.78-.36,4.65,4.65,0,0,1,3,.11,3.28,3.28,0,0,1,1.82,1.52,43.62,43.62,0,0,1,2.06,6.5c1.55,5.9,3.29,14.33,3.35,19.89,0,.34,0,1.52.07,3.49s.09,4.33.15,7.46c.17,8.62.4,22,.6,39,.17,14.14.31,30.8.38,49.38q0,3.67,0,7.45C197.63,423.3,197.52,451.91,197.14,482.32Z"/><path class="cls-2" d="M287.36,723.9l-9.46,1.57-12.6,2.1-.16-.42q-1.71-4.49-3.31-9.12-2.73-7.81-5.18-16-2.19-7.31-4.19-14.88c-2.93-11.12-5.54-22.64-7.86-34.45q-1.42-7.16-2.68-14.45h0c-3.19-18.26-5.74-37.08-7.77-56q-.64-6-1.21-12c-2.54-26.61-4.1-53.38-5-79.24-.09-2.64-.17-5.26-.25-7.88-.87-30.14-.84-58.89-.4-84.53q.06-3.52.13-7c.63-31.22,1.84-57.35,2.66-75.09.23-4.91.43-9.18.58-12.74l0-.5a43.37,43.37,0,0,1,.87-6.46c1.69-8.24,5.43-16.23,8.74-22.08,1.5-2.63,2.91-4.83,4-6.42a.65.65,0,0,1,.15-.18,1.6,1.6,0,0,1,.49-.36h0c2-1,6.36.94,4.52,4.56l-1.92,3.79c-5.89,11.59-8.36,16.62-9.27,23.05a48.27,48.27,0,0,0-.44,5.6c0,.91,0,1.87,0,2.9.33,31.38.94,60.41,1.78,87.27.06,1.89.12,3.76.18,5.62h0c1.05,31.8,2.42,60.51,4,86.4h0c.14,2.2.28,4.39.42,6.55,2.05,31.43,4.46,58.61,7.08,82.12q.58,5.28,1.19,10.32c2.74,23,5.67,42.13,8.62,58.16q1.22,6.62,2.44,12.52a371.86,371.86,0,0,0,9.26,36.66c1.59,5,3.11,9.24,4.52,12.78h0c1.32,3.34,2.57,6.08,3.69,8.32C284.9,722.07,287.36,723.9,287.36,723.9Z"/><path class="cls-2" d="M237.83,731.47H216.5q-.69-7.34-1.34-14.82-.69-8.1-1.34-16.36-.57-7.5-1.11-15.12c-.8-11.29-1.52-22.75-2.17-34.31q-.42-7.4-.8-14.84c-.94-18.23-1.71-36.62-2.35-54.92q-.22-6.18-.41-12.33c-.85-26.72-1.42-53.13-1.79-78.41,0-2.74-.07-5.47-.11-8.18-.39-30.42-.49-59-.44-84.41q0-3.76,0-7.42c.08-21.45.26-40.35.46-55.75.18-14.08.38-25.23.52-32.72.06-3.13.11-5.62.15-7.42s.07-3,.07-3.33c.06-5.56,1.8-14,3.35-19.88a43.89,43.89,0,0,1,2.06-6.51,3.11,3.11,0,0,1,1.41-1.34h0a3,3,0,0,1,.7-.28,4,4,0,0,1,3.82.65h0a3.08,3.08,0,0,1,.68,3.27c-.39,1.45-.86,3-1.35,4.62a65.18,65.18,0,0,0-3.27,19.58c0,.54,0,1.66,0,3.31,0,1.83.07,4.31.12,7.37.1,6.38.26,15.28.46,26,.31,17.14.73,38.92,1.19,62.55.05,2.43.1,4.89.15,7.36.54,27.52,1.14,57.09,1.72,84.45.05,2.74.11,5.45.16,8.14.7,32.57,1.35,61.27,1.82,78.5.15,5.13.27,9.24.37,12.14a.62.62,0,0,0,0,.13c.48,13.43,1.67,33.62,3.47,55,.41,4.89.86,9.84,1.33,14.8,1.12,11.67,2.4,23.33,3.84,34.11.72,5.34,1.47,10.47,2.25,15.27a203.48,203.48,0,0,0,5.27,24.66A51,51,0,0,0,237.83,731.47Z"/><path class="cls-2" d="M203.46,191.54c-2,0-3.75.06-5.31.07l-1.26,0c.05,2.09.08,4.18.11,6.27,2.13-.06,4.34-.12,6.59-.14C203.54,195.69,203.49,193.61,203.46,191.54Zm0,0c-2,0-3.75.06-5.31.07l-1.26,0c.05,2.09.08,4.18.11,6.27,2.13-.06,4.34-.12,6.59-.14C203.54,195.69,203.49,193.61,203.46,191.54Zm0,0c-2,0-3.75.06-5.31.07l-1.26,0c.05,2.09.08,4.18.11,6.27,2.13-.06,4.34-.12,6.59-.14C203.54,195.69,203.49,193.61,203.46,191.54Zm0,0c-2,0-3.75.06-5.31.07l-1.26,0c.05,2.09.08,4.18.11,6.27,2.13-.06,4.34-.12,6.59-.14C203.54,195.69,203.49,193.61,203.46,191.54Zm0,0c-2,0-3.75.06-5.31.07l-1.26,0c.05,2.09.08,4.18.11,6.27,2.13-.06,4.34-.12,6.59-.14C203.54,195.69,203.49,193.61,203.46,191.54Zm0,0c-2,0-3.75.06-5.31.07l-1.26,0c.05,2.09.08,4.18.11,6.27,2.13-.06,4.34-.12,6.59-.14C203.54,195.69,203.49,193.61,203.46,191.54Zm0,0c-2,0-3.75.06-5.31.07l-1.26,0c.05,2.09.08,4.18.11,6.27,2.13-.06,4.34-.12,6.59-.14C203.54,195.69,203.49,193.61,203.46,191.54Zm-35.15-36.06V168.3c1.8-.37,4-.82,6.52-1.27l1.61-.28c-.24,8.94.23,18,.47,26.89l-1.59.28a50.54,50.54,0,0,0-7,1.73v5l1.41-.89c1.69-.08,3.65-.24,5.71-.42l1.6-.15c0,1.08,0,2.16,0,3.23,0,6.85-.09,13.74,0,20.63l-1.6.24a60.36,60.36,0,0,0-7.11,1.49v3.57c2,0,4.49-.2,7.18-.41l1.6-.12c.09,4.43.27,8.87.6,13.28h0c-.54,0-1.07.1-1.59.15l-1,.11-1,.11-1,.11c-1.66.18-3.24.38-4.73.58v6.16h66.27v-6.2l-.82-.11-.83-.11-.87-.11-.88-.11-1.46-.17-.9-.1c-.47-.06-.94-.11-1.42-.15l-1.14-.11c.24-4.58.3-9.19.25-13.79a69.78,69.78,0,0,1,8.07,1.23v-4.4a52.71,52.71,0,0,0-8.15-1.79c-.18-7.38-.57-14.75-.87-22,0-.61-.05-1.21-.06-1.82a64.43,64.43,0,0,1,9.08,1.55V195a48.66,48.66,0,0,0-9.21-2.28c-.06-4.74,0-9.51-.08-14.28,0-3.95-.1-7.89-.3-11.82,4,.66,7.28,1.35,9.59,1.85v-13Zm49.4,10.11,1.6.19c0,4.69,0,9.38.13,14.07q.13,6.09.35,12.16l-1.6-.13c-2.47-.18-4.93-.28-7.3-.32-.11-3.06-.24-6.13-.41-9.19q-.42-8.75-1.12-17.49C212.34,165.05,215.13,165.29,217.71,165.59Zm3,56.16c-.53-.05-1.07-.09-1.6-.12-2.58-.19-5.15-.29-7.63-.34-.05-7.85-.17-15.69-.4-23.53,2.46,0,4.91.11,7.29.23l1.61.1C220.27,206,220.56,213.86,220.73,221.75Zm-38.2-23.07c2-.18,3.95-.34,5.62-.42l1.33-.06,1.6-.08q.09,11.74.46,23.48l-1.59.1c-2.33.16-4.83.38-7.32.65C182.53,214.46,182.54,206.57,182.53,198.68ZM197,197.9c2.13-.06,4.34-.12,6.59-.14l1.59,0h0c.16,7.84.4,15.68.62,23.51h-1.59c-2.25,0-4.31.06-6.07.07l-.94,0C197.16,213.54,197.11,205.72,197,197.9Zm3.72-33.27,2.68,0,1.6,0c-.11,6.45-.11,12.92,0,19.41,0,2.47.06,5,.1,7.43h-1.6c-2,0-3.75.06-5.31.07l-1.26,0c0-1.56-.06-3.12-.1-4.68-.17-7.44-.42-14.86-.81-22.24C197.52,164.66,199.1,164.63,200.72,164.63Zm-10.7.42,1.6-.11q-.51,12.12-.55,24.2c0,.94,0,1.87,0,2.81l-1.6.14c-2.22.19-4.59.43-7,.73,0-9-.15-17.95-.53-26.91C184.47,165.58,187.16,165.28,190,165.05Zm.59,75.2q-3.87.15-7.46.41c-.21-4.43-.34-8.86-.43-13.29,1.95-.15,3.81-.28,5.43-.35l2-.08,1.6-.06q.22,6.65.5,13.31C191.67,240.2,191.14,240.22,190.61,240.25Zm14.11-.18-1.95,0h-2c-1.14,0-2.27,0-3.38,0q-.09-6.66-.14-13.36c2.3-.06,4.69-.11,7.12-.13H206q.19,6.76.35,13.51Zm14.5.53-.6,0-3.15-.17-1.52-.07-2.45-.1q0-6.83,0-13.62c2.6,0,5.18.11,7.69.23l1.6.09q.1,6.9,0,13.79Zm-15.76-49.06c-2,0-3.75.06-5.31.07l-1.26,0c.05,2.09.08,4.18.11,6.27,2.13-.06,4.34-.12,6.59-.14C203.54,195.69,203.49,193.61,203.46,191.54Zm0,0c-2,0-3.75.06-5.31.07l-1.26,0c.05,2.09.08,4.18.11,6.27,2.13-.06,4.34-.12,6.59-.14C203.54,195.69,203.49,193.61,203.46,191.54Zm0,0c-2,0-3.75.06-5.31.07l-1.26,0c.05,2.09.08,4.18.11,6.27,2.13-.06,4.34-.12,6.59-.14C203.54,195.69,203.49,193.61,203.46,191.54Zm0,0c-2,0-3.75.06-5.31.07l-1.26,0c.05,2.09.08,4.18.11,6.27,2.13-.06,4.34-.12,6.59-.14C203.54,195.69,203.49,193.61,203.46,191.54Zm0,0c-2,0-3.75.06-5.31.07l-1.26,0c.05,2.09.08,4.18.11,6.27,2.13-.06,4.34-.12,6.59-.14C203.54,195.69,203.49,193.61,203.46,191.54Zm0,0c-2,0-3.75.06-5.31.07l-1.26,0c.05,2.09.08,4.18.11,6.27,2.13-.06,4.34-.12,6.59-.14C203.54,195.69,203.49,193.61,203.46,191.54Zm0,0c-2,0-3.75.06-5.31.07l-1.26,0c.05,2.09.08,4.18.11,6.27,2.13-.06,4.34-.12,6.59-.14C203.54,195.69,203.49,193.61,203.46,191.54Z"/><path class="cls-2" d="M234.58,155.48v13c-2.31-.5-5.55-1.19-9.59-1.85.2,3.93.27,7.87.3,11.82-.53.11-1.07.24-1.6.38-1.42.33-2.84.69-4.25,1.06-.09-4.69-.15-9.38-.13-14.07l-1.6-.19c-2.58-.3-5.37-.54-8.35-.71q.7,8.75,1.12,17.49c-.53.15-1,.31-1.57.48-1.33.4-2.64.82-3.95,1.25-.07-6.49-.07-13,0-19.41l-1.6,0-2.68,0c-1.62,0-3.2,0-4.74.08.39,7.38.64,14.8.81,22.24l-1.58.58c-1.4.53-2.78,1.07-4.14,1.61q0-12.09.55-24.2l-1.6.11c-2.86.23-5.55.53-8,.86.38,9,.5,17.93.53,26.91h0l-1.59.78c-1.31.63-2.63,1.31-3.95,2l-1.58.85h0q-2.85,1.56-5.66,3.3l-1.41.89v-5a50.54,50.54,0,0,1,7-1.73l1.59-.28c-.24-8.92-.71-17.95-.47-26.89l-1.61.28c-2.53.45-4.72.9-6.52,1.27V155.48Z"/><path class="cls-2" d="M182.28,252.37a2.25,2.25,0,0,1-1.82,2.33,2.28,2.28,0,0,1-3.08-1.67c-.23-1.56-.44-3.13-.62-4.7-.08-.74-.17-1.49-.24-2.23-.17-1.61-.31-3.22-.42-4.84.52,0,1.05-.11,1.59-.15h0c-.33-4.41-.51-8.85-.6-13.28l-1.6.12c0-1.55-.05-3.1-.07-4.65l1.6-.24c-.06-6.89,0-13.78,0-20.63,0-1.07,0-2.15,0-3.23l-1.6.15c0-1,0-1.92-.05-2.88h0c0-.84,0-1.68-.06-2.53l1.59-.28c-.24-8.92-.71-17.95-.47-26.89l-1.61.28c.09-3.87.32-7.73.75-11.55.27-2.33.61-4.64,1-6.94a1.19,1.19,0,0,1,2-.7,1.39,1.39,0,0,1,.66,1q.3,3.29.54,6.59.38,5.33.6,10.66c.38,9,.49,17.92.53,26.89v.57c0,1.75,0,3.49,0,5.23,0,7.9,0,15.8.11,23.69,0,1.66.05,3.31.09,5q.13,6.64.44,13.29.13,3,.32,6c0,.53.07,1.06.11,1.59C182.07,249.68,182.17,251,182.28,252.37Z"/><path class="cls-2" d="M196.09,255.81a2.13,2.13,0,0,1-1.51,2.21,2.47,2.47,0,0,1-3.29-2.21l-.33-7.48a2.18,2.18,0,0,1,0-.25q-.18-3.92-.34-7.83c.53,0,1.06-.05,1.6-.06q-.27-6.66-.5-13.31l-1.6.06c-.06-1.75-.11-3.49-.16-5.24l1.59-.1q-.36-11.74-.46-23.48l-1.6.08q0-3.06,0-6.11l1.6-.14c0-.94,0-1.87,0-2.81q0-12.09.55-24.2l-1.6.11c.14-3.18.3-6.38.51-9.57q.22-3.91.53-7.83a1.07,1.07,0,0,1,1.87-.67,1.14,1.14,0,0,1,.27.67q.35,3.9.61,7.83.33,4.64.57,9.3c.4,7.55.66,15.14.83,22.75,0,1.39.06,2.77.08,4.16,0,2.09.07,4.17.11,6.26.11,7.81.16,15.63.22,23.44,0,1.79,0,3.57,0,5.36q.06,6.67.14,13.34c0,2.75.08,5.5.13,8.24,0,.21,0,.41,0,.61Q196,252.39,196.09,255.81Z"/><path class="cls-2" d="M224.67,241q-.18,3.68-.53,7.32l-.21,2a2.61,2.61,0,0,1-1.9,2.27,2.25,2.25,0,0,1-3.08-2.27c0-.67.06-1.35.07-2q.15-3.87.2-7.73l1.6.11q.1-6.9,0-13.79l-1.6-.09c0-1.73-.05-3.46-.08-5.2.53,0,1.07.07,1.6.12-.17-7.89-.46-15.77-.73-23.66l-1.61-.1q-.1-3-.2-6.11l1.6.13q-.21-6.07-.35-12.16c-.09-4.69-.15-9.38-.13-14.07l-1.6-.19q0-5.06.16-10.11c0-.68,0-1.35.07-2,.07-2.19.17-4.39.29-6.58a1.41,1.41,0,0,1,2.21-1.05,1.25,1.25,0,0,1,.41.7c.67,2.95,1.18,5.94,1.57,8.95h0c.47,3.59.77,7.22,1,10.86.21,4.14.29,8.29.31,12.45,0,4.57,0,9.13.08,13.67q0,3,.12,5.92c0,.67,0,1.33.07,2,.3,7.22.68,14.52.86,21.82,0,1.67.08,3.35.09,5C225,231.82,224.91,236.42,224.67,241Z"/><path class="cls-2" d="M209.91,226.58q0,6.79,0,13.59c0,2.72,0,5.44,0,8.16q0,1.75,0,3.51c0,1.27,0,2.55,0,3.82a2.23,2.23,0,0,1-1.59,2.21,2.38,2.38,0,0,1-3.21-2.21c0-1.64,0-3.28-.06-4.93,0-.8,0-1.6,0-2.4,0-2.75-.1-5.5-.16-8.26l1.6,0q-.15-6.74-.35-13.51h-1.6l-.15-5.32h1.59c-.22-7.83-.46-15.67-.62-23.51h0l-1.59,0c-.05-2.07-.1-4.15-.13-6.22h1.6c0-2.48-.08-5-.1-7.43-.07-6.49-.07-13,0-19.41l-1.6,0c0-3.06.12-6.12.23-9.17.07-2.29.17-4.57.28-6.85,0-.37,0-.75.05-1.12a1,1,0,0,1,1.84-.67,1.18,1.18,0,0,1,.29.67c.07.59.13,1.17.19,1.76q.36,3.1.64,6.21c.31,3.11.59,6.21.83,9.32.49,6,.86,12,1.16,18,.15,2.9.27,5.79.38,8.69.08,2.07.15,4.13.2,6.2.24,7.84.36,15.68.4,23.53C209.9,223,209.91,224.81,209.91,226.58Z"/><path class="cls-1" d="M235.05,200.23l-.47-.13a64.43,64.43,0,0,0-9.08-1.55l-1.61-.17c-1.26-.11-2.57-.21-3.89-.29l-1.61-.1c-2.38-.12-4.83-.2-7.29-.23l-1.61,0c-1.44,0-2.87,0-4.3,0h0l-1.59,0c-2.25,0-4.46.08-6.59.14l-1.6,0-4.32.17-1.6.08-1.33.06c-1.67.08-3.6.24-5.62.42l-1.61.15-3.89.36-1.6.15c-2.06.18-4,.34-5.71.42l-1.41,0H167c-1,0-1.75-2.87-.21-3.56.45-.2,1-.4,1.52-.59a50.54,50.54,0,0,1,7-1.73l1.59-.28c1.3-.22,2.64-.42,4-.61l1.59-.21h0c2.36-.3,4.73-.54,7-.73l1.6-.14c1.52-.11,2.94-.2,4.23-.26l1.6-.06,1.26,0c1.56,0,3.35-.05,5.31-.07h1.6c1.35,0,2.77,0,4.23,0l1.6,0c2.37,0,4.83.14,7.3.32l1.6.13c1.34.12,2.67.27,4,.45.54.07,1.07.14,1.6.23a48.66,48.66,0,0,1,9.21,2.28c.41.14.82.3,1.22.46C238.84,196.69,237.72,201,235.05,200.23Z"/><path class="cls-1" d="M235.05,228.71l-.47-.11a69.78,69.78,0,0,0-8.07-1.23l-1.6-.16c-1.33-.11-2.7-.21-4.1-.29l-1.6-.09c-2.51-.12-5.09-.2-7.69-.23l-1.61,0c-1.31,0-2.63,0-3.94,0h-1.6c-2.43,0-4.82.07-7.12.13l-1.6,0-3.94.13-1.6.06-2,.08c-1.62.07-3.48.2-5.43.35l-1.6.12-4,.33-1.6.12c-2.69.21-5.21.38-7.18.41-.47,0-.91,0-1.31,0-1,0-1.75-2.47-.21-3.06.45-.17,1-.34,1.52-.51a60.36,60.36,0,0,1,7.11-1.49l1.6-.24c1.3-.19,2.65-.37,4-.53l1.6-.17c2.49-.27,5-.49,7.32-.65l1.59-.1c1.47-.1,2.85-.17,4.08-.21.56,0,1.09,0,1.59,0l.94,0c1.76,0,3.82-.05,6.07-.07h1.59c1.31,0,2.67,0,4.08,0l1.61,0c2.48.05,5.05.15,7.63.34.53,0,1.07.07,1.6.12,1.37.11,2.74.26,4.09.44.54.06,1.08.13,1.61.22a52.71,52.71,0,0,1,8.15,1.79l1.22.4C238.84,225.68,237.72,229.34,235.05,228.71Z"/><path class="cls-2" d="M183.88,252.37c.14,1.86-1.92,2.77-3.42,2.33A2,2,0,0,1,179,253c-.23-1.56-.44-3.13-.62-4.7-.08-.68-.15-1.37-.22-2.05-.18-1.72-.33-3.44-.45-5.17h0c-.33-4.41-.51-8.85-.6-13.28,0-1.59-.06-3.18-.07-4.77-.06-6.89,0-13.78,0-20.63,0-1.07,0-2.15,0-3.23s0-2.39-.07-3.59c0-.65,0-1.31-.05-2-.24-8.92-.71-17.95-.47-26.89.09-3.78.32-7.54.74-11.27.27-2.33.61-4.64,1-6.94a1.26,1.26,0,0,1,.36-.7,1.46,1.46,0,0,1,2.27,1q.3,3.29.53,6.59c.25,3.47.44,7,.6,10.43.38,9,.5,17.93.53,26.91,0,2,0,3.91,0,5.86,0,7.89,0,15.78.1,23.67,0,1.67.05,3.35.09,5,.09,4.43.22,8.86.43,13.29.1,2.1.21,4.2.35,6.3,0,.46.05.91.09,1.37C183.67,249.68,183.77,251,183.88,252.37Z"/><path class="cls-2" d="M197.7,255.81a2.29,2.29,0,0,1-3.12,2.21,2.32,2.32,0,0,1-1.69-2.21l-.33-7.47h0q-.18-4.08-.35-8.14-.27-6.66-.5-13.31c-.06-1.76-.12-3.52-.17-5.28q-.36-11.74-.46-23.48,0-3.09,0-6.17c0-.94,0-1.87,0-2.81q0-12.09.55-24.2.21-4.73.51-9.46.23-3.91.53-7.83a1.07,1.07,0,0,1,2.14,0q.34,3.9.61,7.83c.22,3.07.41,6.14.57,9.23.39,7.38.64,14.8.81,22.24,0,1.56.08,3.12.1,4.68.05,2.09.08,4.18.11,6.27.11,7.82.16,15.64.21,23.45,0,1.79,0,3.57,0,5.36q.06,6.69.14,13.36c0,2.76.08,5.51.14,8.26,0,.31,0,.61,0,.91C197.59,251.44,197.64,253.62,197.7,255.81Z"/><path class="cls-2" d="M226.26,241.16q-.18,3.6-.52,7.17l-.21,2a2.7,2.7,0,0,1-3.5,2.27,2.11,2.11,0,0,1-1.48-2.27c0-.67.06-1.35.07-2,.1-2.54.16-5.08.2-7.62q.1-6.9,0-13.79c0-1.72,0-3.44-.08-5.17-.17-7.89-.46-15.77-.73-23.66q-.12-3-.21-6.08-.21-6.07-.35-12.16c-.09-4.69-.15-9.38-.13-14.07,0-3.43.05-6.87.16-10.3,0-.45,0-.9,0-1.35.08-2.42.18-4.84.32-7.26a1.35,1.35,0,0,1,.61-1.05,1.25,1.25,0,0,1,2,.7c.67,3,1.18,5.95,1.57,9,0,.27.07.54.11.81.42,3.41.68,6.85.86,10.3.2,3.93.27,7.87.3,11.82,0,4.77,0,9.54.08,14.28q0,2.94.13,5.86c0,.61,0,1.21.06,1.82.3,7.29.69,14.66.87,22,0,1.65.07,3.31.08,5C226.56,232,226.5,236.58,226.26,241.16Z"/><path class="cls-2" d="M211.52,226.6q0,6.79,0,13.62,0,4-.05,8.11l0,3.89,0,3.44a2.37,2.37,0,0,1-3.2,2.21,2.22,2.22,0,0,1-1.61-2.21c0-1.52,0-3-.06-4.58,0-.92,0-1.83,0-2.75,0-2.74-.1-5.49-.16-8.24q-.15-6.74-.35-13.51c-.05-1.77-.1-3.55-.16-5.33-.22-7.83-.46-15.67-.62-23.51h0c0-2.07-.09-4.14-.12-6.21,0-2.48-.08-5-.1-7.43-.07-6.49-.07-13,0-19.41.05-3.08.12-6.15.23-9.21.07-2.15.15-4.3.26-6.44,0-.51,0-1,.07-1.53a1.06,1.06,0,0,1,.24-.67,1.09,1.09,0,0,1,1.89.67c.08.74.17,1.49.24,2.23.22,1.91.42,3.83.59,5.74.32,3.13.59,6.27.84,9.4q.7,8.75,1.12,17.49c.17,3.06.3,6.13.41,9.19q.12,3.09.21,6.2c.23,7.84.35,15.68.4,23.53C211.51,223.06,211.52,224.83,211.52,226.6Z"/><path class="cls-1" d="M395.3,861.9a2.84,2.84,0,0,1-.72.09H332.19a59.54,59.54,0,0,1-13.42-1.47h0c-7.87-5-20.18-15.33-28.45-34.54-5.72-13.28-10.6-22.13-15.42-27.9-1.23-26.76,8.83-54.48,28.82-66.74a49.2,49.2,0,0,1,10.9-5l.16,0,.32-.1c17.78-5.43,34.84-.09,35.52,3,.21.93-.87,1.56-2.82,2.2-5.94,2-20,4.12-30.68,15.8-13.82,15.09-14.65,47.76,7.12,71.62,25.07,27.49,63.24,32.25,70.35,32.25C401.35,851.11,399.79,860.94,395.3,861.9Z"/><path class="cls-1" d="M127.33,798.08c0,.71-.07,1.42-.12,2.12-1.06.71-2.1,1.44-3.12,2.21h0a94.82,94.82,0,0,0-4.9,8.23c-.3.57-.61,1.15-.91,1.74-.83,1.6-1.68,3.31-2.53,5.12-.17.34-.33.68-.49,1-.55,1.17-1.11,2.39-1.67,3.65-.18.41-.37.82-.55,1.24-.37.83-.74,1.69-1.12,2.56-8.27,19.2-20.58,29.54-28.45,34.54A59.69,59.69,0,0,1,70,862H7.63a3.36,3.36,0,0,1-.71-.08c-4.49-.95-6.06-10.8.71-10.8,7.12,0,45.28-4.76,70.36-32.25,21.77-23.86,20.94-56.53,7.12-71.62-10.72-11.69-24.75-13.85-30.68-15.8-2-.64-3-1.27-2.83-2.2.69-3.1,17.75-8.44,35.52-3l.32.1h0l.15,0a48.82,48.82,0,0,1,10.91,5C118.5,743.6,128.56,771.32,127.33,798.08Z"/><path class="cls-1" d="M349.78,862H321.19c-.75-.43-1.55-.91-2.42-1.47h0c-7.87-5-20.18-15.33-28.45-34.54-5.72-13.28-10.6-22.13-15.42-27.9a27,27,0,0,0-10-7.92c-.36-.15-.72-.31-1.08-.44s-.67-.24-1-.35-.67-.21-1-.3h0c-.35-.09-.7-.18-1.05-.25l-.08,0-.9-.17c-.38-.07-.77-.13-1.16-.18l-.9-.1c-.81-.08-1.63-.13-2.47-.15-8.9-.21-16.83,8.63-17.34,19.86.64,2.35,1.39,4.68,2.27,7,6.28,16.67,20,28.56,17.78,46.92H231.19c-1.15-7.17-4.42-28.22-5.79-44-1.68-19.25-12.15-29.83-24.29-29.83S178.49,798.77,176.82,818c-1.37,15.75-4.64,36.8-5.79,44H144.31c-2.45-20.16,14.57-33.21,19.49-52.35.18-.71.36-1.41.52-2.12a23.78,23.78,0,0,0-2.66-9.55c-3.15-6-8.68-9.91-14.65-9.77-1,0-1.93.1-2.87.21h0l-1.1.14c-.69.11-1.36.24-2,.39s-1.32.35-2,.56c-.43.14-.86.3-1.28.47l-.94.41-.26.12-.8.41-.8.44-.53.32c-.54.34-1.07.7-1.6,1.09-.32.24-.65.49-1,.75s-.63.53-.95.82-.35.31-.53.48l-.1.1-.49.46-.54.55-.51.54c-.48.51-1,1.06-1.44,1.63,0,.71-.07,1.42-.12,2.12-1.06.71-2.1,1.44-3.12,2.21h0a94.82,94.82,0,0,0-4.9,8.23c-.3.57-.61,1.15-.91,1.74-.83,1.6-1.68,3.31-2.53,5.12-.17.34-.33.68-.49,1-.55,1.17-1.11,2.39-1.67,3.65-.18.41-.37.82-.55,1.24-.37.83-.74,1.69-1.12,2.56-8.27,19.2-20.58,29.54-28.45,34.54-.87.56-1.69,1-2.44,1.47H52.44c.42-8,4.61-9.21,15.92-12.14,7.64-2,24.47-10.65,36-29.14a72.39,72.39,0,0,0,6.1-12.17l.45-1.17c.2-.52.39-1,.58-1.58.25-.7.49-1.41.72-2.14.3-.94.59-1.9.86-2.88.12-.42.23-.84.34-1.26l.15-.58c.16-.61.3-1.23.44-1.85a1,1,0,0,0,.06-.25c.16-.71.32-1.43.46-2.15l0-.16c.13-.67.26-1.34.37-2,.07-.39.14-.78.2-1.18,0-.24.08-.49.11-.74.08-.52.15-1.05.22-1.58s.17-1.31.24-2c3.44-31.66-14.7-48.3-23.52-55.86h0c-2.42-2.08-4.14-3.47-4.51-4.3a.56.56,0,0,1,0-.45v0h0c.3-.41,7.08-9.33,22.63-11.37a69,69,0,0,1,10.93-.57c1.73,0,3.42.17,5.06.36A65.47,65.47,0,0,1,140.39,718,107.49,107.49,0,0,1,160,727.61l1.35.8.72-.49c.34-.23.81-.53,1.38-.89.86-.54,2-1.21,3.3-2a88.54,88.54,0,0,1,17.6-7.65c.9-.27,1.81-.53,2.74-.77a56.1,56.1,0,0,1,14.05-1.92A53.74,53.74,0,0,1,212.44,716c.92.2,1.82.42,2.72.65a84,84,0,0,1,17.17,6.7c1.16.6,2.21,1.18,3.16,1.72,2.21,1.25,3.83,2.29,4.69,2.86l.71.48,1.36-.81a116.08,116.08,0,0,1,17.21-8.69c.78-.3,1.57-.6,2.37-.88A65.05,65.05,0,0,1,273,715.21q2.64-.44,5.45-.63c.85-.07,1.72-.11,2.6-.14A68.91,68.91,0,0,1,292,715c1.19.16,2.33.35,3.41.58l1,.22c.58.14,1.14.28,1.68.44.76.21,1.49.44,2.2.68l1.18.43,1.13.45c8.12,3.38,11.83,8.27,12.05,8.57h0s0,0,0,0a.55.55,0,0,1-.05.46c-.37.8-2,2.12-4.25,4.06h0c-8.71,7.45-27.26,24.11-23.77,56.08,4.61,42.31,36,59.9,47.32,62.82S349.36,854,349.78,862Z"/><path class="cls-1" d="M302.56,717.81a117.33,117.33,0,0,0-23,10.86q-2.19,1.35-4.32,2.8A117.27,117.27,0,0,0,261,742.9c-10.14,9.8-19.75,20.93-26.1,33.39h0a75.24,75.24,0,0,0-4.43,10.49,26.39,26.39,0,0,0-.26-3.8v0c-3.5-23.48-40.37-8.31-58.33,7a50.72,50.72,0,0,0-5.51,5.41,24,24,0,0,0-3,4.3,23.16,23.16,0,0,0-1.71-1.72c-3.15-6-8.68-9.91-14.65-9.77-1,0-1.93.1-2.87.21h0l-1.1.14c-.69.11-1.36.24-2,.39s-1.32.35-2,.56c-.43.14-.86.3-1.28.47l-.94.41-.26.12-.8.41-.8.44-.53.32c-.54.34-1.07.7-1.6,1.09-.32.24-.65.49-1,.75s-.63.53-.95.82-.35.31-.53.48l-.1.1-.49.46-.54.55-.51.54c-.48.51-1,1.06-1.44,1.63,0,.71-.07,1.42-.12,2.12-1.06.71-2.1,1.44-3.12,2.21h0A121.09,121.09,0,0,0,111,813.81l-.51.51c-2.07,2.07-4.09,4.24-6.11,6.39l-.14.15a75.18,75.18,0,0,0,4.47-8.21l.33-.74.17-.38,0,0c.08-.18.16-.35.23-.52.19-.42.36-.85.54-1.28l.48-1.15.45-1.17c.2-.52.39-1,.58-1.58.25-.7.49-1.41.72-2.14.3-.94.59-1.9.86-2.88.12-.42.23-.84.34-1.26l.15-.58c.16-.61.3-1.23.44-1.85a1,1,0,0,0,.06-.25c.16-.71.32-1.43.46-2.15l0-.16c.13-.67.26-1.34.37-2,.07-.39.14-.78.2-1.18,0-.24.08-.49.11-.74.08-.52.15-1.05.22-1.58s.17-1.31.24-2c3.44-31.66-14.7-48.3-23.52-55.86h0c-2.42-2.08-4.14-3.47-4.51-4.3a.56.56,0,0,1,0-.45v0h0c.3-.41,7.08-9.33,22.63-11.37a69,69,0,0,1,10.93-.57c1.73,0,3.42.17,5.06.36A65.47,65.47,0,0,1,140.39,718,107.49,107.49,0,0,1,160,727.61l1.35.8.72-.49c.34-.23.81-.53,1.38-.89.86-.54,2-1.21,3.3-2a88.54,88.54,0,0,1,17.6-7.65c.9-.27,1.81-.53,2.74-.77a56.1,56.1,0,0,1,14.05-1.92A53.74,53.74,0,0,1,212.44,716c.92.2,1.82.42,2.72.65a84,84,0,0,1,17.17,6.7c1.16.6,2.21,1.18,3.16,1.72,2.21,1.25,3.83,2.29,4.69,2.86l.71.48,1.36-.81a116.08,116.08,0,0,1,17.21-8.69c.78-.3,1.57-.6,2.37-.88A65.05,65.05,0,0,1,273,715.21q2.64-.44,5.45-.63c.85-.07,1.72-.11,2.6-.14A68.91,68.91,0,0,1,292,715c1.19.16,2.33.35,3.41.58l1,.22c.58.14,1.14.28,1.68.44.76.21,1.49.44,2.2.68l1.18.43Z"/><path class="cls-2" d="M240.13,815.07c6.28,16.67,20,28.56,17.78,46.92h-2.23a61.37,61.37,0,0,0-11.83-35.63,28.53,28.53,0,0,1-6-18.3C238.5,810.41,239.25,812.74,240.13,815.07Z"/><path class="cls-2" d="M263.8,789.72c.36.14.72.28,1.08.44C264.52,790,264.16,789.85,263.8,789.72Z"/><path class="cls-2" d="M127.13,798.32l.2-.24c0,.71-.07,1.42-.12,2.12-1.06.71-2.1,1.44-3.12,2.21.74-1.09,1.47-2.1,2.19-3Z"/><path class="cls-2" d="M132.86,792.75c.53-.4,1.06-.76,1.6-1.09C133.92,792,133.39,792.36,132.86,792.75Z"/><path class="cls-2" d="M141,788.93c-.67.16-1.32.35-2,.56A18.35,18.35,0,0,1,141,788.93Z"/><path class="cls-2" d="M158.37,826.36A61.37,61.37,0,0,0,146.54,862h-2.23c-2.45-20.16,14.57-33.21,19.49-52.35.18-.71.36-1.41.52-2.12A28.31,28.31,0,0,1,158.37,826.36Z"/><path class="cls-2" d="M257.91,862h-2.23a61.37,61.37,0,0,0-11.83-35.63,28.53,28.53,0,0,1-6-18.3c.64,2.35,1.39,4.68,2.27,7C246.41,831.74,260.15,843.63,257.91,862Z"/><path class="cls-2" d="M127.33,798.08c0,.71-.07,1.42-.12,2.12-1.06.71-2.1,1.44-3.12,2.21.74-1.09,1.47-2.1,2.19-3l.85-1Z"/><path class="cls-2" d="M389.81,846.79c-18.62-6.8-36.55-6.92-53.9-18.43-21.52-14.29-28.18-37.45-24.2-61.75,3.18-19.42,18.45-29.41,36-35a.12.12,0,0,0-.06-.23c-30.23,4.46-46.65,29-41.63,59.76,3.19,19.5,15.32,34,31.25,45,9,6.24,20.13,9.6,30.59,12.39,9,2.41,25.1,2.76,27.6,13.94.86,3.86,6.7,2.89,6.75-.92C402.33,853.27,397.09,849.45,389.81,846.79Z"/><path class="cls-2" d="M95.44,795.74c3.7-13.54.41-31.24-5.62-43.65-6.71-13.83-21.13-18.64-35.26-20.73a.12.12,0,0,0-.06.23c18.39,5.87,31.68,15.56,36,35,5.54,24.9-4.3,46.51-24.2,61.75-15.8,12.09-35.46,13.41-53.9,18.43-7.39,2-12.5,7-12.4,14.79.05,3.81,5.89,4.78,6.76.92,2.24-10,14.7-10.88,22.93-12.79a135,135,0,0,0,30.87-10.92A69.49,69.49,0,0,0,95.44,795.74Z"/><path class="cls-2" d="M339.15,847.44c-13.47-6.68-24.34-11.62-34.69-23.14-25.6-28.52-16.68-74.48,10.64-97.9.11-.09,0-.25-.14-.18-24.45,13.83-34.88,44.29-29,71.63,3.18,14.85,10.44,26.72,20.88,37.62a62.59,62.59,0,0,0,14.11,11c6.94,4,20.42,6.55,23.45,15.15,1.22,3.47,7,3.17,6.75-.91C350.61,853.49,345.27,850.47,339.15,847.44Z"/><path class="cls-2" d="M257.91,862c0,.29-.07.58-.11.88-.55,3.7-6.86,2.83-6.53-.88,1.29-14.14-8.1-22.61-12.89-34.84-3.52-9-6.43-18.22-7.42-27.87a144.39,144.39,0,0,1-.73-16.29v0A171.44,171.44,0,0,1,239,731.47c.4-1.19.8-2.37,1.22-3.54.07-.21.15-.41.22-.62a1,1,0,0,1,1.85.29,2,2,0,0,1,0,.23c-.22,1.21-.44,2.43-.65,3.64-2.71,14.73-5.87,29.81-6.65,44.82h0a99.63,99.63,0,0,0,2.94,31.76c.64,2.35,1.39,4.68,2.27,7C246.41,831.74,260.15,843.63,257.91,862Z"/><path class="cls-2" d="M87.26,726.22c-.12-.07-.25.09-.15.18,28.64,24.55,34.5,67.9,10.64,97.9C88.41,836,76.42,841.64,63.07,847.44c-6.19,2.69-11.48,6.29-12,13.31-.29,4.08,5.54,4.38,6.76.91,2.58-7.33,13.58-10.41,19.84-13.33,6.93-3.23,12.2-7.66,17.72-12.86a72,72,0,0,0,20.87-37.62C122.13,770.51,111.71,740.05,87.26,726.22Z"/><path class="cls-2" d="M171.9,790q-.17,4.68-.64,9.3a92.65,92.65,0,0,1-7.73,28.61c-5.29,11.45-13.81,20.69-12.59,34.1.34,3.71-6,4.58-6.52.88,0-.3-.08-.59-.11-.88-2.45-20.16,14.57-33.21,19.49-52.35.18-.71.36-1.41.52-2.12a101.85,101.85,0,0,0,2.07-12.13c2.37-21.47-1.85-42.39-5.75-63.92-.22-1.21-.43-2.42-.65-3.64a1.8,1.8,0,0,1,0-.22,1,1,0,0,1,1.85-.3l.22.61c.18.5.35,1,.53,1.51.23.68.46,1.36.68,2A169.46,169.46,0,0,1,171.9,790Z"/><path class="cls-2" d="M251.72,261c0,.48,0,1-.06,1.43,0,.26,0,.53,0,.79-.05,1-.12,1.91-.19,2.83-.44,5.39-1.22,9.84-2,10.3a4.57,4.57,0,0,1-1.84-.15c-.65-.11-1.47-.27-2.44-.46l-2.81-.55-2-.38-2.41-.43h0a211.46,211.46,0,0,0-21.33-2.67l-2.61-.18c-1.54-.09-3.12-.17-4.75-.23-.87,0-1.75-.07-2.65-.09-1.88-.05-3.81-.08-5.79-.08-2.66,0-5.25.06-7.76.16l-2.64.13c-1.61.08-3.19.19-4.72.31l-2.6.21c-8.59.79-15.82,2-21.12,2.94l-4.92.92-2.36.42c-1.52.26-2.39.33-2.53.13-2.72-4-4.39-28.15-.45-30.56a17.42,17.42,0,0,1,4-1.28l.73-.17c.28-.07.57-.14.88-.2.51-.12,1.06-.23,1.64-.35l1.21-.24,1.3-.24c1.23-.22,2.56-.44,4-.65l1.44-.22,1.51-.22c1.49-.2,3.07-.4,4.73-.58l1-.11,1-.11,1-.11c.52,0,1.05-.11,1.59-.15h.1l1.59-.14,1.12-.1,1.06-.08,1.59-.12q3.58-.25,7.46-.41c.53,0,1.06-.05,1.6-.06l1,0,1.86,0,.73,0h1.6c1.11,0,2.24,0,3.38,0h2l1.95,0,1.6,0h.49l3.08.07,1.61.05,2.45.1,1.52.07,3.15.17.6,0,1.6.11,1.08.08,1.85.14.92.08,1.59.15,1.14.11c.48,0,.95.09,1.42.15l.9.1,1.46.17.88.11.87.11.83.11.82.11,2.36.35,1.39.23.92.16.88.16,1.3.24.58.12,1.55.32,2,.48.82.21c.76.2,1.4.39,1.9.55l.45.15.35.13.17.06.14.06a2.15,2.15,0,0,1,1,1.11,5.08,5.08,0,0,1,.22.52,6.77,6.77,0,0,1,.25.76c.06.2.11.41.16.62s.1.44.14.67,0,.17.05.26a39.57,39.57,0,0,1,.51,5.5l0,1C251.8,257.45,251.78,259.2,251.72,261Z"/><path class="cls-2" d="M240.54,153c0,1.35,0,2.73-.1,4.1q0,1.15-.12,2.28c0,.74-.1,1.47-.16,2.17,0,.49-.09,1-.14,1.41s-.09.77-.13,1.14-.07.53-.1.79c-.32,2.35-.71,4-1.1,4.23s-1.66-.16-4.11-.69-5.55-1.19-9.59-1.85l-1.61-.25c-1.29-.2-2.64-.39-4.07-.56l-1.6-.19c-2.58-.3-5.37-.54-8.35-.71l-1.61-.08c-.9-.05-1.82-.08-2.75-.11l-1.6,0-2.68,0c-1.62,0-3.2,0-4.74.08l-1.6.07c-.93,0-1.85.1-2.76.16l-1.6.11c-2.86.23-5.55.53-8,.86l-1.6.23c-1.38.19-2.7.4-3.94.61l-1.61.28c-2.53.45-4.72.9-6.52,1.27-3.39.7-5.37,1.14-5.56.83-1.77-2.86-3-17.79-1.52-23.91,0-.15.07-.3.11-.44a5.09,5.09,0,0,1,.26-.78,2.52,2.52,0,0,1,.14-.33,1.51,1.51,0,0,1,.11-.22,1.38,1.38,0,0,1,.14-.24,1.39,1.39,0,0,1,.15-.19,1.1,1.1,0,0,1,.27-.26,3,3,0,0,1,.37-.2l.34-.15a9,9,0,0,1,.85-.3l.64-.21c.63-.18,1.38-.39,2.24-.59l.72-.17c.64-.15,1.33-.3,2.07-.44l.68-.14c1.79-.35,3.84-.7,6.12-1l1.61-.22c.65-.09,1.33-.18,2-.25.51-.07,1-.13,1.55-.18l2.71-.28,1.49-.13,1.59-.13,1.61-.11c.81-.06,1.64-.11,2.48-.15,1.1-.06,2.21-.1,3.35-.14l.65,0,2.21-.05,1.5,0h1.52q1.78,0,3.48,0l2,0q3.11.08,5.89.23l1.22.07,2.35.16.68.05c1,.08,2,.16,2.94.25l1.75.18c3,.33,5.65.71,7.89,1.1l2.1.39c.66.12,1.27.25,1.84.39l.83.19.49.12.46.11c.9.22,1.67.44,2.29.64l.46.15a3.93,3.93,0,0,1,.41.14l.63.24.23.1a1,1,0,0,1,.24.17,1,1,0,0,1,.17.18,1.88,1.88,0,0,1,.16.23,2.55,2.55,0,0,1,.19.37h0c0,.13.11.27.16.42s.07.2.1.3.1.36.15.56.09.41.13.63c.09.43.16.91.22,1.42,0,.24.06.48.08.73,0,.42.08.87.11,1.33,0,.29,0,.59.05.89s0,.61,0,.93,0,.47,0,.72C240.53,151.87,240.54,152.43,240.54,153Z"/><path class="cls-2" d="M251.72,261c0,.48,0,1-.06,1.43,0,.26,0,.53,0,.79-.05,1-.12,1.91-.19,2.83-11.59-5.84-24.44-9.67-36.33-12.86-1.23-.32-2.46-.62-3.68-.92l-1.6-.38c-1.1-.27-2.2-.52-3.3-.76l-1.6-.35q-3.69-.81-7.38-1.49l-1.61-.3c-1.12-.21-2.24-.41-3.37-.6h-.09l-1.52-.25q-3.72-.62-7.45-1.12l-1.62-.22c-1.25-.16-2.49-.32-3.74-.46l-1.62-.18q-4.1-.48-8.21-.81-6.33-.56-12.69-.83l.73-.17c.28-.07.57-.14.88-.2.51-.12,1.06-.23,1.64-.35l1.21-.24,1.3-.24c1.23-.22,2.56-.44,4-.65l1.44-.22,1.51-.22c1.49-.2,3.07-.4,4.73-.58l1-.11,1-.11,1-.11c.52,0,1.05-.11,1.59-.15h.1l1.59-.14,1.12-.1,1.06-.08,1.59-.12q3.58-.25,7.46-.41c.53,0,1.06-.05,1.6-.06l1,0,1.86,0,.73,0h1.6c1.11,0,2.24,0,3.38,0h2l1.95,0,1.6,0h.49l3.08.07,1.61.05,2.45.1,1.52.07,3.15.17.6,0,1.6.11,1.08.08,1.85.14.92.08,1.59.15,1.14.11c.48,0,.95.09,1.42.15l.9.1,1.46.17.88.11.87.11.83.11.82.11,2.36.35,1.39.23.92.16.88.16,1.3.24.58.12,1.55.32,2,.48.82.21c.76.2,1.4.39,1.9.55l.45.15.35.13.17.06.14.06a2.15,2.15,0,0,1,1,1.11,5.08,5.08,0,0,1,.22.52,6.77,6.77,0,0,1,.25.76c.06.2.11.41.16.62s.1.44.14.67,0,.17.05.26a39.57,39.57,0,0,1,.51,5.5l0,1C251.8,257.45,251.78,259.2,251.72,261Z"/><path class="cls-2" d="M240.54,153c0,1.35,0,2.73-.1,4.1q0,1.15-.12,2.28c0,.74-.1,1.47-.16,2.17,0,.49-.09,1-.14,1.41s-.09.77-.13,1.14-.07.53-.1.79c-1.72-1-3.46-2.07-5.21-3.07-3.43-2-6.9-3.82-10.45-5.54l-1.68-.81h0c-1-.46-1.94-.91-2.91-1.34l-1.57-.68c-2.62-1.12-5.27-2.14-8-3.07l-2-.64-1.65-.47-.79-.23-1.58-.41c-13.92-3.56-28.27-4-42.68-3.41,0-.15.07-.3.11-.44s.17-.54.26-.78a2.52,2.52,0,0,1,.14-.33,1.51,1.51,0,0,1,.11-.22,1.38,1.38,0,0,1,.14-.24,1.39,1.39,0,0,1,.15-.19,1.1,1.1,0,0,1,.27-.26,3,3,0,0,1,.37-.2l.34-.15a9,9,0,0,1,.85-.3l.64-.21c.63-.18,1.38-.39,2.24-.59l.72-.17c.64-.15,1.33-.3,2.07-.44l.68-.14c1.79-.35,3.84-.7,6.12-1l1.61-.22c.65-.09,1.33-.18,2-.25.51-.07,1-.13,1.55-.18l2.71-.28,1.49-.13,1.59-.13,1.61-.11c.81-.06,1.64-.11,2.48-.15,1.1-.06,2.21-.1,3.35-.14l.65,0,2.21-.05,1.5,0h1.52q1.78,0,3.48,0l2,0q3.11.08,5.89.23l1.22.07,2.35.16.68.05c1,.08,2,.16,2.94.25l1.75.18c3,.33,5.65.71,7.89,1.1l2.1.39,1.84.39.83.19.49.12.46.11c.9.22,1.67.44,2.29.64l.46.15a3.93,3.93,0,0,1,.41.14l.63.24.23.1a1,1,0,0,1,.24.17,1,1,0,0,1,.17.18,1.88,1.88,0,0,1,.16.23,2.55,2.55,0,0,1,.19.37h0c0,.13.11.27.16.42s.07.2.1.3.1.36.15.56.09.41.13.63c.09.43.16.91.22,1.42,0,.24.06.48.08.73,0,.42.08.87.11,1.33,0,.29,0,.59.05.89s0,.61,0,.93,0,.47,0,.72C240.53,151.87,240.54,152.43,240.54,153Z"/><path class="cls-2" d="M181.19,68.31s-1.37.25-1.33,27.15v43.61l-1.3,2.94V78.62s-.1-10.92,5.85-14.14C191.63,60.57,181.19,68.31,181.19,68.31Z"/><path class="cls-2" d="M179.86,95.46s.22-17.23.33-19.17,1.25-8.68,5-6.59l-.74-5.22s-4,2.56-5.42,9.58Z"/></g></g></svg>