<svg xmlns="http://www.w3.org/2000/svg" xmlns:xlink="http://www.w3.org/1999/xlink" viewBox="0 0 792 628.51"><defs><style>.cls-1,.cls-11,.cls-12,.cls-14{fill:none;}.cls-2,.cls-7{isolation:isolate;}.cls-3{fill:#3e6c98;}.cls-4{fill:#7fc1ff;}.cls-5{clip-path:url(#clip-path);}.cls-6{clip-path:url(#clip-path-2);}.cls-10,.cls-7{fill:#fff;}.cls-7{opacity:0.1;}.cls-8{fill:#cae9ff;}.cls-9{mix-blend-mode:multiply;opacity:0.3;}.cls-11{stroke:#3e6c98;}.cls-11,.cls-12,.cls-14{stroke-linecap:round;stroke-linejoin:round;stroke-width:10px;}.cls-12{stroke:#56d4b7;}.cls-13{fill:#56d4b7;}.cls-14{stroke:#ff9378;}.cls-15{fill:#ff9378;}</style><clipPath id="clip-path"><path class="cls-1" d="M327.23,476s1.7,54.08-10.88,73l157.59.13s-10.68-16.38-10.68-76.34S327.23,476,327.23,476Z"/></clipPath><clipPath id="clip-path-2"><rect class="cls-1" x="51.16" width="689" height="476.01" rx="24.1"/></clipPath></defs><g class="cls-2"><g id="Layer_2" data-name="Layer 2"><g id="_8" data-name="8"><g id="imac"><rect id="Rectangle-42" class="cls-3" x="285.65" y="549.05" width="219.23" height="24.08" rx="8.84"/><g id="Path_34" data-name="Path 34"><path id="Mask-91" class="cls-4" d="M327.23,476s1.7,54.08-10.88,73l157.59.13s-10.68-16.38-10.68-76.34S327.23,476,327.23,476Z"/><g class="cls-5"><g id="Path_34-2" data-name="Path 34-2"><path id="Path_34-3" data-name="Path 34-3" class="cls-3" d="M473.94,475.05,311.78,501.83V458.62Z"/></g></g></g><g id="Rectangle_Copy" data-name="Rectangle Copy"><rect id="Mask-92" class="cls-4" x="51.16" width="689" height="476.01" rx="24.1"/><g class="cls-6"><g id="Rectangle_Copy-2" data-name="Rectangle Copy-2"><rect id="Rectangle-43" class="cls-7" x="19.08" y="369.29" width="349.41" height="146.71" transform="translate(-281.55 355.78) rotate(-56)"/><rect id="Rectangle_Copy_3-2" data-name="Rectangle Copy 3-2" class="cls-7" x="67.19" y="378.6" width="263.06" height="110.54" transform="translate(-272.1 356) rotate(-56)"/><path id="Rectangle_Copy_5" data-name="Rectangle Copy 5" class="cls-7" d="M517.37,526.72,664.13,309.23l91.28,61.54L608.65,588.27Z"/><path id="Rectangle_Copy_4-2" data-name="Rectangle Copy 4-2" class="cls-7" d="M550.52,500.81,660.71,337.33l68.59,46.3L619.11,547.12Z"/><rect id="Rectangle_Copy-3" data-name="Rectangle Copy-3" class="cls-3" x="51.16" width="689" height="410.99"/><g id="Rectangle_Copy_2" data-name="Rectangle Copy 2"><rect class="cls-8" x="80.88" y="28.09" width="629.57" height="355.6"/><rect class="cls-1" x="81.26" y="28.48" width="628.8" height="354.83"/></g></g></g></g></g><g id="Group_74" data-name="Group 74"><image class="cls-9" width="722" height="187" transform="translate(70 32.88)" /><rect id="Rectangle_Copy_91-2" data-name="Rectangle Copy 91-2" class="cls-10" x="105" y="58.25" width="661.33" height="126.62" rx="21.99"/></g><g id="Group_74-2" data-name="Group 74"><image class="cls-9" width="722" height="198" transform="translate(0 189.88)" /><rect id="Rectangle_Copy_91-2-2" data-name="Rectangle Copy 91-2" class="cls-10" x="25.43" y="215.84" width="661.33" height="136.62" rx="21.99"/></g><line class="cls-11" x1="661.59" y1="121.56" x2="707.32" y2="121.56"/><line class="cls-12" x1="284" y1="121.56" x2="631.92" y2="121.56"/><circle class="cls-13" cx="631.92" cy="121.56" r="15.03"/><line class="cls-11" x1="372.01" y1="284.15" x2="627.75" y2="284.15"/><line class="cls-14" x1="204.43" y1="284.15" x2="342.34" y2="284.15"/><circle class="cls-15" cx="342.34" cy="284.15" r="15.03"/><path class="cls-13" d="M231.93,121.75c-.35,10-3.74,18.95-11.12,26.28a37.45,37.45,0,0,1-63.88-26.46,37.41,37.41,0,0,1,64.45-25.92C228.3,102.85,231.64,111.55,231.93,121.75ZM194.09,153A31.42,31.42,0,1,0,163,121.36,31.31,31.31,0,0,0,194.09,153Z"/><path class="cls-13" d="M197.85,142.06v3.69l-1.32,1.19h-4.4l-1.22-1.32v-3.74c-9.13-1.34-12.4-8.26-12.45-13.26,1.1-1,2.49-.53,3.76-.68l3.89-.47c.89,2,1.07,4.24,2.89,5.57l1.82,1.4V123.93c-1.79-.75-3.48-1.39-5.11-2.16a10.59,10.59,0,0,1-5.57-6.36,9.48,9.48,0,0,1,.33-7.13c2-4.47,5.65-6.33,10.28-7,.56-1.41-.4-3.17,1.08-4.68,1.2-1,2.89-.39,4.56-.5l1.42,1.35v3.78c6.85,1,11.08,4.58,11.6,11.79-2.58.92-5.29.42-8,.58-1-1.78-1.14-4.05-3.5-4.83v8.08a19.61,19.61,0,0,0,2.14.79,18.32,18.32,0,0,1,6,2.68,10.67,10.67,0,0,1,4.35,7.17,11.7,11.7,0,0,1-1,7.28,11.53,11.53,0,0,1-8.06,6.48C200.17,141.57,199,141.79,197.85,142.06Zm.06-7.62c4.13-1.15,5.32-4,3.27-7.36a14,14,0,0,0-1.45-.75c-.55-.21-1-.78-1.82-.45Zm-7-19.24v-7a18.06,18.06,0,0,0-2.47,1.69,2.27,2.27,0,0,0,0,3.63A18,18,0,0,0,190.92,115.2Z"/><path class="cls-15" d="M153.61,284.27c-.05,19.82-16.17,37.43-37.51,37.36a37.48,37.48,0,1,1,37.51-37.36Zm-6.39,0c.86-16.85-14.25-31.33-30.7-31.47C99.14,252.67,84.8,267.37,84.75,284S99.11,315.39,116,315.48,148,300.77,147.22,284.28Z"/><path class="cls-15" d="M113.23,261.45a4,4,0,0,1,2.32-2.12c2.78.44,3.43,1,3.45,3.59,0,5.38,0,10.76,0,16.14a9.16,9.16,0,0,0,.26,3.32c3.12,1.79,6.33,3.68,9.6,5.49a4.33,4.33,0,0,1,2.58,3.19c-1.28,3.11-2.48,3.7-5.2,2.25-4-2.12-7.9-4.36-11.83-6.56a9,9,0,0,1-1.21-1Z"/></g></g></g></svg>