<svg xmlns="http://www.w3.org/2000/svg" viewBox="0 0 792 628.51" xmlns:v="https://vecta.io/nano"><style><![CDATA[.B,.G{isolation:isolate}.I{mix-blend-mode:multiply}]]></style><defs><clipPath id="A"><path d="M327.23,476s1.7,54.08-10.88,73l157.59.13s-10.68-16.38-10.68-76.34S327.23,476,327.23,476Z" fill="none"/></clipPath><clipPath id="B"><rect x="51.16" width="689" height="476.01" rx="24.1" fill="none"/></clipPath></defs><g class="B"><rect x="285.65" y="549.05" width="219.23" height="24.08" rx="8.84" fill="#3e6c98"/><path d="M327.23,476s1.7,54.08-10.88,73l157.59.13s-10.68-16.38-10.68-76.34S327.23,476,327.23,476Z" fill="#7fc1ff"/><g clip-path="url(#A)"><path d="M473.94,475.05,311.78,501.83V458.62Z" fill="#3e6c98"/></g><rect x="51.16" width="689" height="476.01" rx="24.1" fill="#7fc1ff"/><g clip-path="url(#B)"><g fill="#fff" class="G"><path d="M35.275 546.466l195.388-289.674 121.628 82.039-195.388 289.674z" opacity=".1"/><path d="M79.346 512.007L226.447 293.92l91.642 61.813L170.988 573.82zM517.37 526.72l146.76-217.49 91.28 61.54-146.76 217.5z" opacity=".1"/><path d="M550.52,500.81,660.71,337.33l68.59,46.3L619.11,547.12Z" opacity=".1"/></g><path d="M51.16 0h689v410.99h-689z" fill="#3e6c98"/><path d="M80.88 28.09h629.57v355.6H80.88z" fill="#cae9ff"/></g><image class="I" width="722" height="187" transform="translate(70 32.88)" opacity=".3"/><rect x="105" y="58.25" width="661.33" height="126.62" rx="21.99" fill="#fff"/><image class="I" width="722" height="198" transform="translate(0 189.88)" opacity=".3"/><rect x="25.43" y="215.84" width="661.33" height="136.62" rx="21.99" fill="#fff"/><g fill="none" stroke-linecap="round" stroke-linejoin="round" stroke-width="10"><path d="M661.59 121.56h45.73" stroke="#3e6c98"/><path d="M284 121.56h347.92" stroke="#56d4b7"/></g><circle cx="631.92" cy="121.56" r="15.03" fill="#56d4b7"/><g fill="none" stroke-linecap="round" stroke-linejoin="round" stroke-width="10"><path d="M372.01 284.15h255.74" stroke="#3e6c98"/><path d="M204.43 284.15h137.91" stroke="#ff9378"/></g><circle cx="342.34" cy="284.15" r="15.03" fill="#ff9378"/><path d="M231.93 121.75c-.35 10-3.74 18.95-11.12 26.28a37.45 37.45 0 0 1-63.88-26.46 37.41 37.41 0 0 1 64.45-25.92c6.92 7.2 10.26 15.9 10.55 26.1zM194.09 153A31.42 31.42 0 1 0 163 121.36 31.31 31.31 0 0 0 194.09 153zm3.76-10.94v3.69l-1.32 1.19h-4.4l-1.22-1.32v-3.74c-9.13-1.34-12.4-8.26-12.45-13.26 1.1-1 2.49-.53 3.76-.68l3.89-.47c.89 2 1.07 4.24 2.89 5.57l1.82 1.4v-10.51c-1.79-.75-3.48-1.39-5.11-2.16a10.59 10.59 0 0 1-5.57-6.36 9.48 9.48 0 0 1 .33-7.13c2-4.47 5.65-6.33 10.28-7 .56-1.41-.4-3.17 1.08-4.68 1.2-1 2.89-.39 4.56-.5l1.42 1.35v3.78c6.85 1 11.08 4.58 11.6 11.79-2.58.92-5.29.42-8 .58-1-1.78-1.14-4.05-3.5-4.83v8.08a19.61 19.61 0 0 0 2.14.79 18.32 18.32 0 0 1 6 2.68 10.67 10.67 0 0 1 4.35 7.17 11.7 11.7 0 0 1-1 7.28 11.53 11.53 0 0 1-8.06 6.48c-1.17.32-2.34.54-3.49.81zm.06-7.62c4.13-1.15 5.32-4 3.27-7.36a14 14 0 0 0-1.45-.75c-.55-.21-1-.78-1.82-.45zm-7-19.24v-7a18.06 18.06 0 0 0-2.47 1.69 2.27 2.27 0 0 0 0 3.63 18 18 0 0 0 2.48 1.68z" fill="#56d4b7"/><path d="M153.61 284.27c-.05 19.82-16.17 37.43-37.51 37.36a37.48 37.48 0 1 1 37.51-37.36zm-6.39 0c.86-16.85-14.25-31.33-30.7-31.47-17.38-.13-31.72 14.57-31.77 31.2s14.36 31.39 31.25 31.48 32-14.71 31.22-31.2zm-33.99-22.82a4 4 0 0 1 2.32-2.12c2.78.44 3.43 1 3.45 3.59v16.14a9.16 9.16 0 0 0 .26 3.32l9.6 5.49a4.33 4.33 0 0 1 2.58 3.19c-1.28 3.11-2.48 3.7-5.2 2.25-4-2.12-7.9-4.36-11.83-6.56a9 9 0 0 1-1.21-1z" fill="#ff9378"/></g></svg>