<svg xmlns="http://www.w3.org/2000/svg" xmlns:xlink="http://www.w3.org/1999/xlink" viewBox="0 0 777.44 544.56" xmlns:v="https://vecta.io/nano"><style><![CDATA[.E{isolation:isolate}.T{fill:#56d4b7}.U{fill:none}.V{opacity:.2}.W{stroke-miterlimit:10}.X{fill-opacity:.7}.Y{fill:#3e6c98}.Z{stroke:#56d4b7}]]></style><defs><clipPath id="A" transform="translate(0 -24.34)"><path d="M245.25 0h323.69v541.11H245.25z" class="U"/></clipPath><clipPath id="B" transform="translate(0 -24.34)"><path d="M440.55 328.92a4.21 4.21 0 0 1-.86 1.45c-6.22 5.89-32.76 12.42-55.56 17.13-18.88 3.92-35.19 6.57-35.19 6.57l-12.51-114.85c0-10.93-20.16-187.78-20.16-187.78l48.33-2.09 64.23-2.78 1 13c4.17 52.64 18.78 248.6 10.72 269.35z" class="T"/></clipPath><clipPath id="C" transform="translate(0 -24.34)"><path d="M410.68 24.34l128.8 33.94s-45.3 137.36-54.56 154.41l-15.34 119.73s-82.26-3.61-120.09-15.05l25.2-141.32c1.29-16.6 35.99-151.71 35.99-151.71z" class="T"/></clipPath><path id="D" d="M440.55 304.58l-56.42 11.61-21.3 4.37c-5.78-5.67-10.19-5.78-10.19-5.78L351 298.89l-2.76-26-24.31-228.86c5.3-3.64 7.87-11.59 7.87-11.59l32.49-1.18 56.29-2.06 9.29 6c4.13 52.67 18.74 248.63 10.68 269.38z"/><path id="E" d="M383 144.33l28.35-121.34s12.22-6.07 16.94-11.59l92.26 26.26s.28 9 5.56 14.85l-46.55 134.15-11.29 98.89s-15 1.21-16.46 12.33c0 0-48.68 2.62-81.34-6 0 0-3.85-12-9.73-19.59z"/></defs><path d="M0 86.87c0-19.39 15.76-21.81 35.16-21.81h688.57c19.4 0 35.16 3.64 35.16 21.83v379.43c-.017 19.411-15.749 35.143-35.16 35.16H35.16C15.746 501.469.011 485.734 0 466.32V86.87z" fill="#2e2f31" opacity=".13"/><path d="M18.55 102.17c0-19.39 15.76-21.82 35.16-21.81h688.57c19.4 0 35.16 3.64 35.16 21.83v379.47c-.017 19.41-15.75 35.139-35.16 35.15H53.71c-19.41-.011-35.143-15.74-35.16-35.15V102.17z" fill="#7fc1ff"/><g fill="#fff" class="E"><path d="M742.28 516.77H53.71c-19.394-.011-35.121-15.716-35.16-35.11v-380.7c0-19.39 15.75-21.82 35.15-21.82" opacity=".1"/><path d="M62.2 219.77c0-17 1.2-19.4 18.18-19.4h635.24c17 0 18.17 2.43 18.17 19.4v236.39c0 17-1.22 19.4-18.19 19.4H80.38c-17 0-18.19-2.43-18.19-19.4z" opacity=".1"/></g><g class="Y"><path d="M670.76 439.19a4.22 4.22 0 0 1 1.21-2.42h35.16c1.21 0 1.21 1.22 1.21 2.43v15.76a4.21 4.21 0 0 1-1.22 2.42H672c-1.21 0-1.21-1.21-1.21-2.42zm-44.86 0a4.32 4.32 0 0 1 1.22-2.43h35.15c1.21 0 1.21 1.21 1.21 2.43v15.76a4.27 4.27 0 0 1-1.21 2.43h-33.94c-1.22 0-1.21-1.21-1.22-2.42v-15.77zm-44.85 0a4.27 4.27 0 0 1 1.21-2.43h35.16c1.21 0 1.21 1.22 1.21 2.43v15.76a4.21 4.21 0 0 1-1.22 2.42h-35.15c-1.21 0-1.21-1.21-1.21-2.42zm-44.85 0a4.17 4.17 0 0 1 1.21-2.43h35.15c1.21 0 1.21 1.22 1.21 2.43v15.76a4.27 4.27 0 0 1-1.21 2.43H537.4c-1.21 0-1.21-1.21-1.21-2.43zm-44.86-.01a4.26 4.26 0 0 1 1.21-2.42h35.16c1.21 0 1.21 1.22 1.21 2.43v15.76a4.22 4.22 0 0 1-1.21 2.42h-35.16c-1.21 0-1.21-1.21-1.21-2.42zm-44.85.01a4.23 4.23 0 0 1 1.21-2.43h35.16c1.2 0 1.21 1.22 1.21 2.43v15.76a4.21 4.21 0 0 1-1.2 2.43H447.7c-1.21 0-1.22-1.21-1.21-2.43zm-44.86 0a4.26 4.26 0 0 1 1.22-2.43H438c1.21 0 1.21 1.22 1.21 2.43v15.76a4.22 4.22 0 0 1-1.21 2.42h-35.15c-1.22 0-1.22-1.21-1.22-2.42zm-44.85 0a4.23 4.23 0 0 1 1.22-2.43h35.16c1.21 0 1.21 1.22 1.21 2.43v15.76a4.21 4.21 0 0 1-1.22 2.42H358c-1.21 0-1.21-1.21-1.22-2.42zm-44.86 0a4.19 4.19 0 0 1 1.21-2.42h35.16c1.21 0 1.21 1.22 1.21 2.43v15.76a4.22 4.22 0 0 1-1.21 2.42h-35.16c-1.21 0-1.21-1.21-1.21-2.42zm-44.85 0a4.27 4.27 0 0 1 1.21-2.43h35.16c1.21 0 1.21 1.22 1.21 2.43v15.76a4.22 4.22 0 0 1-1.21 2.42h-35.16c-1.21 0-1.21-1.21-1.21-2.42zm-44.86 0a4.21 4.21 0 0 1 1.22-2.42h35.15c1.21 0 1.22 1.21 1.22 2.42v15.76a4.16 4.16 0 0 1-1.21 2.42h-35.16c-1.22 0-1.22-1.21-1.21-2.42zm-44.85 0a4.27 4.27 0 0 1 1.21-2.43h35.15c1.22 0 1.22 1.21 1.22 2.43v15.76a4.22 4.22 0 0 1-1.21 2.42h-35.15c-1.22 0-1.22-1.21-1.22-2.42zm-44.85 0a4.2 4.2 0 0 1 1.21-2.43h35.15c1.22 0 1.22 1.21 1.22 2.42v15.76a4.21 4.21 0 0 1-1.22 2.42h-35.15c-1.21 0-1.21-1.21-1.22-2.42zm-47.28 0a4.23 4.23 0 0 1 1.21-2.43h35.16c1.21 0 1.21 1.22 1.2 2.43v15.76a4.21 4.21 0 0 1-1.22 2.42H86.44c-1.21 0-1.21-1.21-1.21-2.43zm590.38-42.43c0-2.42 1.21-3.64 3.63-3.64h27.88c2.43 0 3.65 1.2 3.64 3.63v27.91c0 2.42-1.21 3.64-3.63 3.64h-27.89c-2.42 0-3.64-1.21-3.63-3.64zm-43.61 0q0-3.64 3.64-3.64h27.88q3.64 0 3.64 3.64v27.9q0 3.64-3.64 3.64H635.6q-3.63 0-3.64-3.64zm-43.68 0c0-2.43 1.22-3.64 3.64-3.64h27.88q3.64 0 3.64 3.64v27.9c0 2.43-1.22 3.64-3.64 3.64H592c-2.43 0-3.64-1.22-3.64-3.64zm-43.64 0c0-2.42 1.21-3.64 3.64-3.64h27.88q3.64 0 3.64 3.64v27.9c0 2.43-1.21 3.64-3.64 3.64h-27.88q-3.65 0-3.64-3.64zm-43.68 0c0-2.42 1.21-3.64 3.63-3.64h26.68c2.42 0 3.63 1.22 3.63 3.64v27.9q0 3.64-3.63 3.64h-27.85c-2.42 0-3.64-1.21-3.64-3.64v-27.9zm-43.6 0q0-3.64 3.63-3.64h27.88c2.43 0 3.64 1.22 3.64 3.64v27.9c0 2.42-1.21 3.64-3.64 3.64H461c-2.42 0-3.63-1.22-3.63-3.64zm-43.65 0c0-2.43 1.21-3.64 3.64-3.64h27.89q3.63 0 3.63 3.64v27.9c0 2.42-1.21 3.64-3.64 3.64h-27.88c-2.43 0-3.64-1.22-3.63-3.64zm-44.85 0q0-3.64 3.64-3.64h27.88q3.65 0 3.63 3.64v27.9c0 2.42-1.21 3.64-3.64 3.64h-27.88q-3.63 0-3.63-3.64zm-43.64 0c0-2.42 1.21-3.64 3.63-3.64h27.89q3.63 0 3.64 3.64v27.9q0 3.64-3.63 3.64H328.9c-2.43 0-3.64-1.22-3.64-3.64zm-43.64 0q0-3.64 3.63-3.64h27.88q3.64 0 3.64 3.64v27.9c0 2.43-1.21 3.64-3.63 3.64h-27.89c-2.42 0-3.63-1.21-3.63-3.63zm-43.62 0c0-2.42 1.21-3.64 3.64-3.64h27.86q3.63 0 3.63 3.64v27.9c0 2.42-1.21 3.64-3.64 3.64h-27.88q-3.63 0-3.63-3.64zm-43.67 0c0-2.42 1.22-3.64 3.64-3.64h27.88c2.43 0 3.64 1.22 3.64 3.64v27.9c0 2.43-1.22 3.64-3.64 3.64H198c-2.42 0-3.64-1.22-3.64-3.64zm-43.63 0q0-3.64 3.63-3.64h27.88q3.63 0 3.64 3.64v27.9c0 2.42-1.21 3.64-3.64 3.63h-27.88c-2.43 0-3.64-1.22-3.64-3.64z"/><path d="M90.08 428.28h49.7q3.65 0 3.64-3.64v-27.88q0-3.64-3.64-3.64h-49.7q-3.64 0-3.64 3.63v27.91c0 1.19 2.42 3.62 3.64 3.62zM121.59 381c0 2.42-1.21 3.63-3.63 3.64H90.08q-3.64 0-3.64-3.64v-27.88q0-3.65 3.64-3.64H118c2.42 0 3.64 1.21 3.64 3.64zm43.65 0c0 2.42-1.21 3.64-3.63 3.64h-27.89c-2.43 0-3.64-1.21-3.64-3.63v-27.9c0-2.42 1.22-3.63 3.64-3.63h27.88q3.65 0 3.64 3.63zm43.64 0c0 2.43-1.22 3.64-3.64 3.64h-27.88c-2.42 0-3.64-1.22-3.64-3.64v-27.88q0-3.65 3.64-3.64h27.88q3.64 0 3.64 3.63zm43.64 0c0 2.43-1.21 3.63-3.64 3.63H221q-3.63 0-3.63-3.64v-27.87q0-3.65 3.63-3.64h27.89q3.63 0 3.63 3.64zm43.64 0q0 3.63-3.63 3.63h-27.89c-2.42 0-3.63-1.21-3.63-3.63v-27.88q0-3.65 3.63-3.64h27.89q3.63 0 3.63 3.63zm43.65-.01c0 2.43-1.22 3.65-3.64 3.64h-27.88c-2.43 0-3.64-1.22-3.64-3.64v-27.88q0-3.63 3.64-3.63h27.88q3.63 0 3.64 3.64zm43.64.01q0 3.63-3.64 3.64h-27.88q-3.65 0-3.63-3.64v-27.88q0-3.65 3.64-3.64h27.88q3.65 0 3.64 3.64zm43.64 0q0 3.63-3.64 3.64h-27.88q-3.65 0-3.64-3.64v-27.89q0-3.63 3.64-3.63h27.88c2.42 0 3.64 1.21 3.64 3.64V381zm43.64 0c0 2.42-1.21 3.64-3.63 3.64h-27.89q-3.63 0-3.64-3.64v-27.88c0-2.43 1.21-3.64 3.63-3.64h27.88q3.65 0 3.64 3.64zm43.64 0c0 2.43-1.21 3.63-3.63 3.64h-27.88c-2.43 0-3.65-1.22-3.64-3.64v-27.88q0-3.65 3.63-3.64h27.89c2.42 0 3.64 1.21 3.63 3.64V381zm43.63 0c0 2.42-1.22 3.64-3.64 3.63H526.5c-2.43 0-3.64-1.21-3.64-3.63v-27.88q0-3.65 3.64-3.64h27.88q3.63 0 3.64 3.64zm43.66 0c0 2.43-1.22 3.64-3.64 3.63h-27.88c-2.43 0-3.64-1.21-3.64-3.63v-27.89q0-3.63 3.64-3.63H598q3.65 0 3.64 3.63zm43.64 0q0 3.63-3.64 3.63h-27.88c-2.42 0-3.64-1.21-3.64-3.64v-27.88q0-3.63 3.64-3.63h27.88q3.65 0 3.64 3.64zm60.61-31.52h-49.7c-2.42 0-3.64 1.21-3.63 3.64V381c0 2.42 1.22 3.63 3.64 3.63h49.7c2.43 0 3.64-1.21 3.64-3.63v-27.88q-.01-3.65-3.65-3.64zm-509.15-13.33c0 2.42-1.21 3.63-3.64 3.63h-27.88c-2.42 0-3.64-1.21-3.64-3.64v-27.88c0-2.42 1.21-3.64 3.64-3.63h27.88c2.43 0 3.63 1.22 3.64 3.64zm43.64-.01q0 3.64-3.63 3.64h-27.89q-3.65 0-3.64-3.64v-27.88c0-2.43 1.21-3.63 3.64-3.64h27.88q3.65 0 3.64 3.63zm43.6 0q0 3.64-3.64 3.64h-27.84c-2.43 0-3.63-1.21-3.64-3.64v-27.88c0-2.42 1.22-3.64 3.64-3.63h27.88c2.43 0 3.64 1.21 3.64 3.63z"/><path d="M327.68 336.14q0 3.64-3.63 3.64h-27.89q-3.63 0-3.63-3.64v-27.88c0-2.42 1.21-3.63 3.63-3.64h27.89c2.42 0 3.64 1.21 3.63 3.63zm43.64 0q0 3.64-3.63 3.64h-27.88q-3.65 0-3.64-3.64v-27.88c0-2.42 1.21-3.64 3.64-3.63h27.88q3.63 0 3.64 3.64zm43.68.01q0 3.63-3.64 3.63h-27.91c-2.42 0-3.64-1.21-3.64-3.63v-27.89c0-2.42 1.22-3.63 3.64-3.63h27.88c2.43 0 3.63 1.22 3.64 3.64v27.89zm43.61-.01q0 3.64-3.64 3.64h-27.88q-3.64 0-3.64-3.63v-27.89q0-3.63 3.64-3.64H455q3.64 0 3.64 3.65zm43.64.01q0 3.63-3.64 3.63h-27.88c-2.42 0-3.64-1.21-3.64-3.64v-27.88q0-3.63 3.64-3.63h27.88c2.43 0 3.64 1.21 3.64 3.65v27.88zm43.64 0q0 3.63-3.63 3.63h-27.89q-3.63 0-3.63-3.63v-27.89c0-2.42 1.21-3.63 3.63-3.63h27.89c2.42 0 3.63 1.21 3.63 3.63zm43.65-.01c0 2.43-1.21 3.64-3.64 3.64H558q-3.64 0-3.64-3.64v-27.88c0-2.42 1.21-3.64 3.64-3.64h27.9c2.42 0 3.64 1.2 3.64 3.63zm43.64 0c0 2.43-1.22 3.64-3.64 3.64h-27.89q-3.63 0-3.63-3.63v-27.89c0-2.43 1.22-3.64 3.64-3.64h27.88c2.42 0 3.64 1.21 3.64 3.63zm-483.7-30.3H91.29c-2.43 0-4.85 1.21-4.85 3.63v27.89c0 2.42 2.42 3.63 4.85 3.63h58.19c2.42 0 4.85-1.21 4.85-3.63v-27.89c0-2.42-2.43-3.63-4.85-3.63zm555.22 0h-58.18c-2.44 0-4.86 1.21-4.86 3.63v27.89c0 2.42 2.43 3.63 4.85 3.64h58.19c2.42 0 4.85-1.21 4.85-3.63v-27.9c0-2.42-2.43-3.63-4.85-3.63zM218.58 292.5c0 2.43-1.22 3.64-3.64 3.64h-27.88q-3.65 0-3.64-3.64v-27.84c0-2.43 1.22-3.64 3.64-3.64h27.88c2.43 0 3.64 1.21 3.64 3.63zm43.64 0c0 2.43-1.21 3.63-3.64 3.64H230.7q-3.63 0-3.63-3.64v-27.84c0-2.42 1.21-3.64 3.64-3.64h27.88q3.65 0 3.64 3.63zm43.64 0c0 2.43-1.21 3.64-3.64 3.64h-27.88q-3.63 0-3.63-3.64v-27.84q0-3.65 3.63-3.64h27.88q3.64 0 3.64 3.64zm43.64 0q0 3.65-3.63 3.64H318c-2.43 0-3.64-1.22-3.64-3.64v-27.84c0-2.42 1.21-3.64 3.63-3.64h27.89q3.63 0 3.64 3.64zm43.65 0q0 3.65-3.64 3.64h-27.88q-3.64 0-3.64-3.64v-27.84q0-3.63 3.64-3.64h27.88c2.43 0 3.64 1.22 3.64 3.64zm43.64 0c0 2.43-1.22 3.64-3.64 3.64h-27.88q-3.64 0-3.64-3.64v-27.84c0-2.43 1.21-3.63 3.64-3.64h27.88c2.42 0 3.64 1.21 3.63 3.64zm43.64.01q0 3.63-3.64 3.63h-27.88q-3.63 0-3.64-3.64v-27.84c0-2.42 1.2-3.64 3.63-3.63h27.88q3.65 0 3.64 3.64zm43.64-.01q0 3.65-3.63 3.64h-27.89c-2.42 0-3.64-1.21-3.63-3.64v-27.84c0-2.42 1.21-3.64 3.63-3.64h27.89q3.63 0 3.63 3.63v27.88zm43.65 0c0 2.43-1.22 3.64-3.65 3.64h-27.88q-3.63 0-3.63-3.64v-27.84q0-3.65 3.64-3.64h27.88q3.63 0 3.64 3.64zm43.63 0q0 3.65-3.63 3.64h-27.88q-3.65 0-3.64-3.64v-27.84q0-3.65 3.64-3.64h27.88c2.42 0 3.64 1.21 3.64 3.63zm94.56-31.51h-82.43c-2.43 0-4.85 1.22-4.85 3.64v27.88c0 2.43 2.42 3.64 4.85 3.64h82.43c2.42 0 4.85-1.21 4.85-3.64v-27.85c-1.21-1.25-2.42-3.68-4.85-3.67zm-533.4-.01H88.86c-2.42 0-4.84 1.22-4.85 3.64v27.88c0 2.43 2.43 3.64 4.86 3.64h82.43c2.43 0 4.85-1.21 4.85-3.64v-27.84a3.87 3.87 0 0 0-3.64-3.68zm132.14-12.12c0 2.43-1.21 3.63-3.64 3.64h-33.94c-2.42 0-3.63-1.22-3.64-3.64v-27.88c0-2.43 1.22-3.63 3.64-3.64H301q3.64 0 3.64 3.64z"/><path d="M577.41 248.86q0 3.65-3.63 3.63h-33.95c-2.42 0-3.64-1.21-3.64-3.64v-27.87c0-2.43 1.22-3.64 3.64-3.64h33.94q3.65 0 3.64 3.64zm46.07 0q0 3.65-3.64 3.64H592q-3.65 0-3.64-3.63v-27.89c0-2.43 1.21-3.64 3.64-3.64h27.88q3.64 0 3.63 3.64zm-369.75 0c0 2.43-1.21 3.64-3.63 3.64h-27.89c-2.42 0-3.64-1.2-3.63-3.63v-27.89q0-3.65 3.63-3.64h27.89c2.42 0 3.64 1.21 3.63 3.64zm413.39 0q0 3.65-3.64 3.63H635.6q-3.63 0-3.64-3.64v-27.88q0-3.63 3.64-3.63h27.88q3.64 0 3.64 3.64zm43.64 0c0 2.43-1.21 3.63-3.63 3.64h-27.89c-2.42 0-3.64-1.21-3.63-3.64v-27.88c0-2.43 1.21-3.64 3.63-3.64h27.89c2.42 0 3.64 1.2 3.63 3.63zM318 252.5h202.44c2.42 0 3.63-1.22 3.63-3.64v-27.88c0-2.42-1.21-3.64-3.64-3.64H318c-2.43 0-3.65 1.21-3.64 3.64v27.88a3.87 3.87 0 0 0 3.64 3.64zm-145.48-32.73a4.18 4.18 0 0 1 1.2-2.43h33.95c1.21 0 1.21 1.21 1.21 2.42v10.9a4.22 4.22 0 0 1-1.21 2.42h-33.94c-1.22 0-1.22-1.21-1.22-2.42v-10.89zm-43.65 0a4.23 4.23 0 0 1 1.21-2.43H164c1.21 0 1.21 1.22 1.2 2.42v10.9a4.22 4.22 0 0 1-1.21 2.42h-33.91c-1.21 0-1.21-1.21-1.21-2.42zm0 19.39a4.22 4.22 0 0 1 1.21-2.42H164c1.21 0 1.21 1.21 1.21 2.42v10.92a4.21 4.21 0 0 1-1.22 2.42h-33.91c-1.21 0-1.21-1.21-1.21-2.43zm-43.65-19.4a4.32 4.32 0 0 1 1.22-2.42h33.94c1.22 0 1.21 1.2 1.22 2.41v10.91a4.28 4.28 0 0 1-1.22 2.42H86.44c-1.21 0-1.21-1.21-1.21-2.43zM309.5 99.75a5.73 5.73 0 0 1 6.06-6.06h164.87a5.73 5.73 0 0 1 6.06 6.06v84.91a5.72 5.72 0 0 1-6.06 6.06H315.56a5.72 5.72 0 0 1-6.06-6.06V99.75z"/></g><path d="M47.65 497.37c-6.025 0-10.91-4.885-10.91-10.91s4.885-10.91 10.91-10.91 10.91 4.885 10.91 10.91a10.89 10.89 0 0 1-10.91 10.91z" fill="#b8cbd2"/><path d="M48.21 495.08c-5.393-.011-9.757-4.39-9.75-9.783s4.383-9.76 9.777-9.757S58 479.917 58 485.31a9.76 9.76 0 0 1-9.79 9.77z" fill="#c4eaff"/><g class="Y"><path d="M114.32 497.38a7.84 7.84 0 0 1 7.27-7.28h552.8a7.83 7.83 0 0 1 7.28 7.28v28.85a7.8 7.8 0 0 1-7.27 7.27H121.56a7.84 7.84 0 0 1-7.28-7.28v-28.85z"/><path d="M681.67 536.17a7.81 7.81 0 0 1-7.28 7.27H121.6a7.82 7.82 0 0 1-7.28-7.27v-37.58a7.81 7.81 0 0 1 7.28-7.27"/></g><path d="M18.49 522.59l-.12.15c0 12.12 8.48 21.82 19.4 21.82h720.08c10.92 0 19.4-9.7 19.4-21.82l.12-.15z" fill="#7fc1ff"/><path d="M777.37 526.48l-758.89-.01.07-7.28 758.88.01-.06 7.28z" class="Y"/><path class="E" d="M777.35 527.2H18.47l.08-4.37h758.89l-.09 4.37z" fill="#fff" opacity=".1"/><g clip-path="url(#A)"><path d="M401.74 268.19s-6.26 75.66 2.78 94S418.1 505.95 414 521.73c0 0 25.17-4.54 40.65-3.09 20.64 1.95 33.12 4.87 58.43-10.6 26.37-16.13 8.12-235.49 8.12-235.49l.91-82L474 147.71z" fill="#cae9ff" class="V"/><path d="M440.55 304.58a4.21 4.21 0 0 1-.86 1.45c-6.22 5.89-32.76 12.42-55.56 17.13-18.88 3.92-35.19 6.57-35.19 6.57l-12.51-114.85c0-10.93-20.16-187.78-20.16-187.78l48.33-2.09 64.23-2.78 1 13c4.17 52.64 18.78 248.6 10.72 269.35z" class="T"/><g clip-path="url(#B)"><use xlink:href="#D" class="V X"/><use xlink:href="#D" fill="#4bc5a9"/><g class="T"><path d="M355.64 237.2l18.82-.03.02 5.89-5.24 1.85-12.06 1.33-1.54-9.04zm1.15 12.12l13.84-.48 3.55 1.7-.19 7.8-16.15.19-1.05-9.21zM359 261.8l15.82-1.13-.19 5.92-7.63 2.7-8.09-.45.09-7.04zm.95 9.99l12.76.64 1.16 3.27-1.85 3.61-11.42.72-1.97-5.57 1.32-2.67zm14.72 11.43l1.82 5.1c.4 1.14.78 2.49.08 3.47a2.91 2.91 0 0 1-2.68.94c-1-.09-1.94-.42-2.93-.46-3-.14-5.7 2.31-8.61 1.78-1.14-3.15-4-7.79-.12-9.21.59-.18 12.85-.46 12.44-1.62zm-.06 14.44a25.43 25.43 0 0 1 .6 3.68c.15 1.61 0 3.5-1.31 4.41a5 5 0 0 1-2.43.65l-10.15.91a46 46 0 0 1-.1-5.76c.6-2.28.18-2.09 2.34-3 3.44-1.53 7.54.8 11.05-.89z"/></g><g class="U W Z"><path d="M337.7 49.2l4 44.34m4.25-43.98l1.8 20.39"/></g><path d="M374.56 41.85l2.32 23.9 3.25.31-1.06-23.98-4.51-.23z" class="T"/><path d="M440.55 304.58a4.21 4.21 0 0 1-.86 1.45c-6.22 5.89-32.76 12.42-55.56 17.13v-15.77l-33.13-8.5-5-1.29 2.25-24.72 8.59-94.53 7.5-147.09.31-6.25 64.23-2.78 1 13c4.12 52.64 18.73 248.6 10.67 269.35z" class="V X"/></g><path d="M474.57 540.4c.4-3.71-5.43-56.87-5.54-62.65-.28-15.84-4.76-36.55-4.76-36.55-6.25-16-11.11-52.81-27.8-76.43s-16.67-51.41-19.44-75-2.09-21.55-1.39-42.49-.7-33.25-2.09-47.14-4.16-38.37 0-49.77 15.05-14 27-2.64 16.79 58.22 16.79 64 0 23.84 4.18 30.79c0 0 23.62-12.08 23.62-15.42s-.7-32.82 2.78-34.41L474 147.66l26.4-9.36a68.67 68.67 0 0 1 12.72 15.36 83.14 83.14 0 0 1 7.43 14.91c11.11 29.49 29 50.06 32.66 58.54s0 75.86 0 88.38-8.07 70.3-7.86 80c.15 7 4.9 33.16 9.62 53.2 1.83 7.73 12.42 63.72 14 68.16h0z" fill="#ffd3c8"/><g fill="#f1b2a2"><path d="M495.36 189.78c-.17 3.78 4.34 33.88 4.34 33.88 3.13 7.5-13.95 33.07-13.95 33.07-3.68 2.08-5.29 14.94-5.29 14.94-11.56-2.57-38-29.18-38-29.18s-3.18 10.91-6.65 37.9 18.75 91.12 28.24 135.4 5 62 5 62c-.28-15.84-4.76-36.55-4.76-36.55-6.25-16-11.11-52.81-27.8-76.43s-16.67-51.41-19.44-75-2.09-21.55-1.39-42.49-.7-33.25-2.09-47.14-4.16-38.37 0-49.77 15.05-14 27-2.64 16.79 58.22 16.79 64 0 23.84 4.18 30.79c0 0 23.62-12.08 23.62-15.42s-.7-32.82 2.78-34.41L474 147.66l26.4-9.36a68.67 68.67 0 0 1 12.72 15.36c-8.57 17.09-17.65 33.77-17.76 36.12zm44.3 210.38c1.15-10.53 4.61-35.59 6.81-51.22-2.69 12.21-7 18.39-7 18.39l8.22-95c.74-5.38 8.29-30 5.51-45.23 3.69 8.47 0 75.86 0 88.38s-8.07 70.3-7.86 80c.15 7 7.69 51.79 12.41 71.83-10.18-14.83-19.25-56.56-18.09-67.15z"/></g><g class="U"><path d="M461.49 242.49s4.17 19.45 13.51 29.17" stroke="#1a2e35" stroke-linecap="round" stroke-linejoin="round"/><g stroke="#301913" stroke-width=".5" class="W"><path d="M464 251.36s17.62 5.37 24.92 5.72m-3.81-30.02s12.51-5.77 20.5-2.29m-17.72-32.11s9.73-.9 11.82-5.76m48.63 81.29c-3.12 18.42-7.29 68.79-8.68 77.82m14.66-112.56c.52 16.68-3.55 25.36-3.55 25.36"/></g></g><path d="M410.68 0l128.8 33.94s-45.3 137.36-54.56 154.41l-15.34 119.73s-82.26-3.61-120.09-15.05l25.2-141.32C375.98 135.11 410.68 0 410.68 0z" class="T"/><g clip-path="url(#C)"><use xlink:href="#E" class="V X"/><use xlink:href="#E" fill="#4bc5a9"/><path d="M406.6 150.66s8.4-31.67 37.89-26 12.83 44.62 12.83 44.62.18 31.44-23.77 27.1c-20.74-3.72-31.81-15.11-26.95-45.72z" class="T"/><g class="U W Z"><path d="M422.58 34.53L411.35 77.6m18.88-39.95l-5.22 19.8"/></g><g class="T"><path d="M495.36 51.55l17.76 6.25-1.95 5.56h-5.56l-11.81-2.78 1.56-9.03zm-2.95 11.81l13.2 4.17 2.78 2.78-2.78 7.29-15.28-5.21 2.08-9.03zm-2.08 12.5l15.28 4.22-2.15 5.51h-8.1l-7.47-3.12 2.44-6.61zm-2.44 9.73l11.82 4.87v3.47l-2.96 2.78-11-3.13v-5.9l2.14-2.09zM498 101.28v5.42c0 1.2-.09 2.61-1.08 3.3a2.93 2.93 0 0 1-2.83 0c-.91-.41-1.7-1.05-2.61-1.42-2.75-1.11-6.15.28-8.72-1.19 0-3.35-1.18-8.68 3-8.73.55 0 12.24 3.85 12.24 2.62zm-4.91 13.55a25.68 25.68 0 0 1-.66 3.67c-.39 1.56-1.15 3.3-2.7 3.72a5 5 0 0 1-2.51-.21l-9.88-2.52a45.6 45.6 0 0 1 1.84-5.46c1.32-2 .86-1.91 3.2-2.06 3.72-.24 6.82 3.32 10.71 2.86zm-33.34-74.75l-5.9 23.28 2.95 1.39 7.12-22.93-4.17-1.74zm-74.16 156.3l18.23 4.71-1.47 5.7-5.53.48-12.01-1.76.78-9.13zm-1.93 12.02l13.51 3.02 3.01 2.53-2.14 7.51-15.68-3.88 1.3-9.18zm-1 12.64l15.59 2.88-1.68 5.68-8.06.7-7.71-2.48 1.86-6.78zm-1.59 9.9l12.18 3.83.3 3.46-2.7 3.02-11.23-2.17-.51-5.88 1.96-2.26zm11.36 14.72l.47 5.4c.11 1.2.14 2.61-.79 3.38a2.92 2.92 0 0 1-2.83.24c-.93-.34-1.77-.9-2.72-1.19-2.83-.87-6.09.8-8.78-.44-.31-3.34-1.93-8.55 2.2-8.95.63-.02 12.56 2.83 12.45 1.56zm-3.68 14a27.38 27.38 0 0 1-.35 3.72c-.26 1.58-.86 3.38-2.37 3.93a5 5 0 0 1-2.52 0l-10.05-1.65a45.82 45.82 0 0 1 1.35-5.59c1.16-2.06.7-2 3-2.33 3.71-.61 7.1 2.68 10.94 1.92z"/></g><g class="U W Z"><path d="M461.49 276.66l4.17-51.31m-12.51 49.23l2.09-28.45"/></g><path d="M420.57 257.07l-5.63 27.58h5.63l4.1-27.58h-4.1z" class="T"/><path d="M485.3 187.66c-12.19-2.55-23.06-6.29-31.11-11.68 0 0 5.83 16.75 26.51 45.31l-11.12 86.8s-53.69-2.35-94.26-9.29c12.47-35.13 35.09-101.69 32.44-114.88-3.64-18.11 9.2-39.48 9.2-39.48 40.59-7.31 80-38 107-63.93-13.79 40.71-32.57 95.15-38.66 107.15z" class="V X"/></g><path d="M482.07 273.42l-18.15 131.3c-4-8.59-15.05-23.23-20.74-30.56l-3.49-4.44-3.22-4.95c-16.67-23.63-16.67-51.41-19.44-75s-2.09-21.55-1.39-42.49-.7-33.25-2.09-47.14-4.16-38.37 0-49.77c2-5.59 5.71-9.07 10.31-9.8 4.78-.79 10.59 1.37 16.67 7.16 11.92 11.4 16.79 58.22 16.79 64s0 23.84 4.18 30.79c0-.03 11.19 21.14 20.57 30.9z" fill="#ffd3c8"/><path d="M435.08 355.4c3.8 4.85 6.38 11.84 8.1 18.76l-3.49-4.44-3.22-4.95c-16.67-23.63-16.67-51.41-19.44-75s-2.09-21.55-1.39-42.49-.7-33.25-2.09-47.14-4.16-38.37 0-49.77c2-5.59 5.71-9.07 10.31-9.8 8.85 2.49 17.53 11.43 20.62 26.73 5.2 25.68-18.49 4.93-24 26.69s2.49 27.63 5.78 33.11-.92 17.55-5.78 33.79 4.19 81.18 14.6 94.51z" fill="#f1b2a2"/><path d="M420.57 217.85s15.94-8.23 23.92-7.54" stroke="#301913" stroke-width=".5" class="U W"/></g></svg>