<svg xmlns="http://www.w3.org/2000/svg" xmlns:xlink="http://www.w3.org/1999/xlink" viewBox="0 0 777.44 544.56"><defs><style>.cls-1,.cls-14,.cls-17,.cls-18{fill:none;}.cls-2{fill:#56d4b7;}.cls-3{fill:#2e2f31;opacity:0.13;}.cls-4{fill:#7fc1ff;}.cls-5{fill:#fff;isolation:isolate;opacity:0.1;}.cls-6{fill:#3e6c98;}.cls-7{fill:#b8cbd2;}.cls-8{fill:#c4eaff;}.cls-9{clip-path:url(#clip-path);}.cls-10{fill:#cae9ff;}.cls-10,.cls-12{opacity:0.2;}.cls-11{clip-path:url(#clip-path-2);}.cls-12{fill-opacity:0.7;}.cls-13{fill:#4bc5a9;}.cls-14{stroke:#56d4b7;}.cls-14,.cls-18{stroke-miterlimit:10;}.cls-15{fill:#ffd3c8;}.cls-16{fill:#f1b2a2;}.cls-17{stroke:#1a2e35;stroke-linecap:round;stroke-linejoin:round;}.cls-18{stroke:#301913;stroke-width:0.5px;}.cls-19{clip-path:url(#clip-path-3);}</style><clipPath id="clip-path" transform="translate(0 -24.34)"><rect class="cls-1" x="245.25" width="323.69" height="541.11"/></clipPath><clipPath id="clip-path-2" transform="translate(0 -24.34)"><path class="cls-2" d="M440.55,328.92a4.21,4.21,0,0,1-.86,1.45c-6.22,5.89-32.76,12.42-55.56,17.13-18.88,3.92-35.19,6.57-35.19,6.57s-12.51-103.92-12.51-114.85S316.27,51.44,316.27,51.44l48.33-2.09,64.23-2.78s.39,4.73,1,13C434,112.21,448.61,308.17,440.55,328.92Z"/></clipPath><clipPath id="clip-path-3" transform="translate(0 -24.34)"><path class="cls-2" d="M410.68,24.34l128.8,33.94s-45.3,137.36-54.56,154.41L469.58,332.42s-82.26-3.61-120.09-15.05c0,0,23.91-124.72,25.2-141.32S410.68,24.34,410.68,24.34Z"/></clipPath></defs><g id="Layer_2" data-name="Layer 2"><g id="_8" data-name="8"><path class="cls-3" d="M0,111.21C0,91.82,15.76,89.4,35.16,89.4H723.73c19.4,0,35.16,3.64,35.16,21.83V490.66a35.19,35.19,0,0,1-35.16,35.16H35.16A35.18,35.18,0,0,1,0,490.66V111.21Z" transform="translate(0 -24.34)"/><path class="cls-4" d="M18.55,126.51c0-19.39,15.76-21.82,35.16-21.81H742.28c19.4,0,35.16,3.64,35.16,21.83V506a35.18,35.18,0,0,1-35.16,35.15H53.71A35.18,35.18,0,0,1,18.55,506V126.51Z" transform="translate(0 -24.34)"/><path class="cls-5" d="M742.28,541.11H53.71A35.18,35.18,0,0,1,18.55,506V125.3c0-19.39,15.75-21.82,35.15-21.82" transform="translate(0 -24.34)"/><path class="cls-5" d="M62.2,244.11c0-17,1.2-19.4,18.18-19.4H715.62c17,0,18.17,2.43,18.17,19.4V480.5c0,17-1.22,19.4-18.19,19.4H80.38c-17,0-18.19-2.43-18.19-19.4Z" transform="translate(0 -24.34)"/><path class="cls-6" d="M670.76,463.53a4.22,4.22,0,0,1,1.21-2.42h35.16c1.21,0,1.21,1.22,1.21,2.43v15.76a4.21,4.21,0,0,1-1.22,2.42H672c-1.21,0-1.21-1.21-1.21-2.42Z" transform="translate(0 -24.34)"/><path class="cls-6" d="M625.9,463.53a4.32,4.32,0,0,1,1.22-2.43h35.15c1.21,0,1.21,1.21,1.21,2.43v15.76a4.27,4.27,0,0,1-1.21,2.43H628.33c-1.22,0-1.21-1.21-1.22-2.42V463.53Z" transform="translate(0 -24.34)"/><path class="cls-6" d="M581.05,463.53a4.27,4.27,0,0,1,1.21-2.43h35.16c1.21,0,1.21,1.22,1.21,2.43v15.76a4.21,4.21,0,0,1-1.22,2.42H582.26c-1.21,0-1.21-1.21-1.21-2.42Z" transform="translate(0 -24.34)"/><path class="cls-6" d="M536.2,463.53a4.17,4.17,0,0,1,1.21-2.43h35.15c1.21,0,1.21,1.22,1.21,2.43v15.76a4.27,4.27,0,0,1-1.21,2.43H537.4c-1.21,0-1.21-1.21-1.21-2.43Z" transform="translate(0 -24.34)"/><path class="cls-6" d="M491.34,463.52a4.26,4.26,0,0,1,1.21-2.42h35.16c1.21,0,1.21,1.22,1.21,2.43v15.76a4.22,4.22,0,0,1-1.21,2.42H492.55c-1.21,0-1.21-1.21-1.21-2.42Z" transform="translate(0 -24.34)"/><path class="cls-6" d="M446.49,463.53a4.23,4.23,0,0,1,1.21-2.43h35.16c1.2,0,1.21,1.22,1.21,2.43v15.76a4.21,4.21,0,0,1-1.2,2.43H447.7c-1.21,0-1.22-1.21-1.21-2.43Z" transform="translate(0 -24.34)"/><path class="cls-6" d="M401.63,463.53a4.26,4.26,0,0,1,1.22-2.43H438c1.21,0,1.21,1.22,1.21,2.43v15.76a4.22,4.22,0,0,1-1.21,2.42H402.85c-1.22,0-1.22-1.21-1.22-2.42Z" transform="translate(0 -24.34)"/><path class="cls-6" d="M356.78,463.53A4.23,4.23,0,0,1,358,461.1h35.16c1.21,0,1.21,1.22,1.21,2.43v15.76a4.21,4.21,0,0,1-1.22,2.42H358c-1.21,0-1.21-1.21-1.22-2.42Z" transform="translate(0 -24.34)"/><path class="cls-6" d="M311.92,463.53a4.19,4.19,0,0,1,1.21-2.42h35.16c1.21,0,1.21,1.22,1.21,2.43v15.76a4.22,4.22,0,0,1-1.21,2.42H313.13c-1.21,0-1.21-1.21-1.21-2.42Z" transform="translate(0 -24.34)"/><path class="cls-6" d="M267.07,463.53a4.27,4.27,0,0,1,1.21-2.43h35.16c1.21,0,1.21,1.22,1.21,2.43v15.76a4.22,4.22,0,0,1-1.21,2.42H268.28c-1.21,0-1.21-1.21-1.21-2.42Z" transform="translate(0 -24.34)"/><path class="cls-6" d="M222.21,463.53a4.21,4.21,0,0,1,1.22-2.42h35.15c1.21,0,1.22,1.21,1.22,2.42v15.76a4.16,4.16,0,0,1-1.21,2.42H223.43c-1.22,0-1.22-1.21-1.21-2.42Z" transform="translate(0 -24.34)"/><path class="cls-6" d="M177.36,463.53a4.27,4.27,0,0,1,1.21-2.43h35.15c1.22,0,1.22,1.21,1.22,2.43v15.76a4.22,4.22,0,0,1-1.21,2.42H178.58c-1.22,0-1.22-1.21-1.22-2.42Z" transform="translate(0 -24.34)"/><path class="cls-6" d="M132.51,463.53a4.2,4.2,0,0,1,1.21-2.43h35.15c1.22,0,1.22,1.21,1.22,2.42v15.76a4.21,4.21,0,0,1-1.22,2.42H133.72c-1.21,0-1.21-1.21-1.22-2.42Z" transform="translate(0 -24.34)"/><path class="cls-6" d="M85.23,463.53a4.23,4.23,0,0,1,1.21-2.43H121.6c1.21,0,1.21,1.22,1.2,2.43v15.76a4.21,4.21,0,0,1-1.22,2.42H86.44c-1.21,0-1.21-1.21-1.21-2.43Z" transform="translate(0 -24.34)"/><path class="cls-6" d="M675.61,421.1c0-2.42,1.21-3.64,3.63-3.64h27.88c2.43,0,3.65,1.2,3.64,3.63V449c0,2.42-1.21,3.64-3.63,3.64H679.24c-2.42,0-3.64-1.21-3.63-3.64Z" transform="translate(0 -24.34)"/><path class="cls-6" d="M632,421.1q0-3.64,3.64-3.64h27.88q3.64,0,3.64,3.64V449q0,3.64-3.64,3.64H635.6q-3.63,0-3.64-3.64Z" transform="translate(0 -24.34)"/><path class="cls-6" d="M588.32,421.1c0-2.43,1.22-3.64,3.64-3.64h27.88q3.64,0,3.64,3.64V449c0,2.43-1.22,3.64-3.64,3.64H592c-2.43,0-3.64-1.22-3.64-3.64Z" transform="translate(0 -24.34)"/><path class="cls-6" d="M544.68,421.1c0-2.42,1.21-3.64,3.64-3.64H576.2q3.64,0,3.64,3.64V449c0,2.43-1.21,3.64-3.64,3.64H548.32q-3.65,0-3.64-3.64Z" transform="translate(0 -24.34)"/><path class="cls-6" d="M501,421.1c0-2.42,1.21-3.64,3.63-3.64h26.68c2.42,0,3.63,1.22,3.63,3.64V449q0,3.64-3.63,3.64H503.46c-2.42,0-3.64-1.21-3.64-3.64V421.1Z" transform="translate(0 -24.34)"/><path class="cls-6" d="M457.4,421.1q0-3.64,3.63-3.64h27.88c2.43,0,3.64,1.22,3.64,3.64V449c0,2.42-1.21,3.64-3.64,3.64H461c-2.42,0-3.63-1.22-3.63-3.64Z" transform="translate(0 -24.34)"/><path class="cls-6" d="M413.75,421.1c0-2.43,1.21-3.64,3.64-3.64h27.89q3.63,0,3.63,3.64V449c0,2.42-1.21,3.64-3.64,3.64H417.39c-2.43,0-3.64-1.22-3.63-3.64Z" transform="translate(0 -24.34)"/><path class="cls-6" d="M368.9,421.1q0-3.64,3.64-3.64h27.88q3.65,0,3.63,3.64V449c0,2.42-1.21,3.64-3.64,3.64H372.53q-3.63,0-3.63-3.64Z" transform="translate(0 -24.34)"/><path class="cls-6" d="M325.26,421.1c0-2.42,1.21-3.64,3.63-3.64h27.89q3.63,0,3.64,3.64V449q0,3.64-3.63,3.64H328.9c-2.43,0-3.64-1.22-3.64-3.64Z" transform="translate(0 -24.34)"/><path class="cls-6" d="M281.62,421.1q0-3.64,3.63-3.64h27.88q3.64,0,3.64,3.64V449c0,2.43-1.21,3.64-3.63,3.64H285.25c-2.42,0-3.63-1.21-3.63-3.63Z" transform="translate(0 -24.34)"/><path class="cls-6" d="M238,421.1c0-2.42,1.21-3.64,3.64-3.64H269.5q3.63,0,3.63,3.64V449c0,2.42-1.21,3.64-3.64,3.64H241.61q-3.63,0-3.63-3.64Z" transform="translate(0 -24.34)"/><path class="cls-6" d="M194.33,421.1c0-2.42,1.22-3.64,3.64-3.64h27.88c2.43,0,3.64,1.22,3.64,3.64V449c0,2.43-1.22,3.64-3.64,3.64H198c-2.42,0-3.64-1.22-3.64-3.64Z" transform="translate(0 -24.34)"/><path class="cls-6" d="M150.7,421.1q0-3.64,3.63-3.64h27.88q3.63,0,3.64,3.64V449c0,2.42-1.21,3.64-3.64,3.63H154.33c-2.43,0-3.64-1.22-3.64-3.64Z" transform="translate(0 -24.34)"/><path class="cls-6" d="M90.08,452.62h49.7q3.65,0,3.64-3.64V421.1q0-3.64-3.64-3.64H90.08q-3.64,0-3.64,3.63V449C86.44,450.19,88.86,452.62,90.08,452.62Z" transform="translate(0 -24.34)"/><path class="cls-6" d="M121.59,405.34c0,2.42-1.21,3.63-3.63,3.64H90.08q-3.64,0-3.64-3.64V377.46q0-3.65,3.64-3.64H118c2.42,0,3.64,1.21,3.64,3.64Z" transform="translate(0 -24.34)"/><path class="cls-6" d="M165.24,405.34c0,2.42-1.21,3.64-3.63,3.64H133.72c-2.43,0-3.64-1.21-3.64-3.63V377.45c0-2.42,1.22-3.63,3.64-3.63H161.6q3.65,0,3.64,3.63Z" transform="translate(0 -24.34)"/><path class="cls-6" d="M208.88,405.34c0,2.43-1.22,3.64-3.64,3.64H177.36c-2.42,0-3.64-1.22-3.64-3.64V377.46q0-3.65,3.64-3.64h27.88q3.64,0,3.64,3.63Z" transform="translate(0 -24.34)"/><path class="cls-6" d="M252.52,405.34c0,2.43-1.21,3.63-3.64,3.63H221q-3.63,0-3.63-3.64V377.46q0-3.65,3.63-3.64h27.89q3.63,0,3.63,3.64Z" transform="translate(0 -24.34)"/><path class="cls-6" d="M296.16,405.34q0,3.63-3.63,3.63H264.64c-2.42,0-3.63-1.21-3.63-3.63V377.46q0-3.65,3.63-3.64h27.89q3.63,0,3.63,3.63Z" transform="translate(0 -24.34)"/><path class="cls-6" d="M339.81,405.33c0,2.43-1.22,3.65-3.64,3.64H308.29c-2.43,0-3.64-1.22-3.64-3.64V377.45q0-3.63,3.64-3.63h27.88q3.63,0,3.64,3.64Z" transform="translate(0 -24.34)"/><path class="cls-6" d="M383.45,405.34q0,3.63-3.64,3.64H351.93q-3.65,0-3.63-3.64V377.46q0-3.65,3.64-3.64h27.88q3.65,0,3.64,3.64Z" transform="translate(0 -24.34)"/><path class="cls-6" d="M427.09,405.34q0,3.63-3.64,3.64H395.57q-3.65,0-3.64-3.64V377.45q0-3.63,3.64-3.63h27.88c2.42,0,3.64,1.21,3.64,3.64v27.88Z" transform="translate(0 -24.34)"/><path class="cls-6" d="M470.73,405.34c0,2.42-1.21,3.64-3.63,3.64H439.21q-3.63,0-3.64-3.64V377.46c0-2.43,1.21-3.64,3.63-3.64h27.88q3.65,0,3.64,3.64Z" transform="translate(0 -24.34)"/><path class="cls-6" d="M514.37,405.34c0,2.43-1.21,3.63-3.63,3.64H482.86c-2.43,0-3.65-1.22-3.64-3.64V377.46q0-3.65,3.63-3.64h27.89c2.42,0,3.64,1.21,3.63,3.64v27.88Z" transform="translate(0 -24.34)"/><path class="cls-6" d="M558,405.34c0,2.42-1.22,3.64-3.64,3.63H526.5c-2.43,0-3.64-1.21-3.64-3.63V377.46q0-3.65,3.64-3.64h27.88q3.63,0,3.64,3.64Z" transform="translate(0 -24.34)"/><path class="cls-6" d="M601.66,405.34c0,2.43-1.22,3.64-3.64,3.63H570.14c-2.43,0-3.64-1.21-3.64-3.63V377.45q0-3.63,3.64-3.63H598q3.65,0,3.64,3.63Z" transform="translate(0 -24.34)"/><path class="cls-6" d="M645.3,405.34q0,3.63-3.64,3.63H613.78c-2.42,0-3.64-1.21-3.64-3.64V377.45q0-3.63,3.64-3.63h27.88q3.65,0,3.64,3.64Z" transform="translate(0 -24.34)"/><path class="cls-6" d="M705.91,373.82h-49.7c-2.42,0-3.64,1.21-3.63,3.64v27.88c0,2.42,1.22,3.63,3.64,3.63h49.7c2.43,0,3.64-1.21,3.64-3.63V377.46Q709.55,373.81,705.91,373.82Z" transform="translate(0 -24.34)"/><path class="cls-6" d="M196.76,360.49c0,2.42-1.21,3.63-3.64,3.63H165.24c-2.42,0-3.64-1.21-3.64-3.64V332.6c0-2.42,1.21-3.64,3.64-3.63h27.88c2.43,0,3.63,1.22,3.64,3.64Z" transform="translate(0 -24.34)"/><path class="cls-6" d="M240.4,360.48q0,3.64-3.63,3.64H208.88q-3.65,0-3.64-3.64V332.6c0-2.43,1.21-3.63,3.64-3.64h27.88q3.65,0,3.64,3.63Z" transform="translate(0 -24.34)"/><path class="cls-6" d="M284,360.48q0,3.64-3.64,3.64H252.52c-2.43,0-3.63-1.21-3.64-3.64V332.6c0-2.42,1.22-3.64,3.64-3.63H280.4c2.43,0,3.64,1.21,3.64,3.63Z" transform="translate(0 -24.34)"/><path class="cls-6" d="M327.68,360.48q0,3.64-3.63,3.64H296.16q-3.63,0-3.63-3.64V332.6c0-2.42,1.21-3.63,3.63-3.64h27.89c2.42,0,3.64,1.21,3.63,3.63Z" transform="translate(0 -24.34)"/><path class="cls-6" d="M371.32,360.48q0,3.64-3.63,3.64H339.81q-3.65,0-3.64-3.64V332.6c0-2.42,1.21-3.64,3.64-3.63h27.88q3.63,0,3.64,3.64Z" transform="translate(0 -24.34)"/><path class="cls-6" d="M415,360.49q0,3.63-3.64,3.63H383.45c-2.42,0-3.64-1.21-3.64-3.63V332.6c0-2.42,1.22-3.63,3.64-3.63h27.88c2.43,0,3.63,1.22,3.64,3.64v27.89Z" transform="translate(0 -24.34)"/><path class="cls-6" d="M458.61,360.48q0,3.64-3.64,3.64H427.09q-3.64,0-3.64-3.63V332.6q0-3.63,3.64-3.64H455q3.64,0,3.64,3.65Z" transform="translate(0 -24.34)"/><path class="cls-6" d="M502.25,360.49q0,3.63-3.64,3.63H470.73c-2.42,0-3.64-1.21-3.64-3.64V332.6q0-3.63,3.64-3.63h27.88c2.43,0,3.64,1.21,3.64,3.65v27.88Z" transform="translate(0 -24.34)"/><path class="cls-6" d="M545.89,360.49q0,3.63-3.63,3.63H514.37q-3.63,0-3.63-3.63V332.6c0-2.42,1.21-3.63,3.63-3.63h27.89c2.42,0,3.63,1.21,3.63,3.63Z" transform="translate(0 -24.34)"/><path class="cls-6" d="M589.54,360.48c0,2.43-1.21,3.64-3.64,3.64H558q-3.64,0-3.64-3.64V332.6c0-2.42,1.21-3.64,3.64-3.64H585.9c2.42,0,3.64,1.2,3.64,3.63Z" transform="translate(0 -24.34)"/><path class="cls-6" d="M633.18,360.48c0,2.43-1.22,3.64-3.64,3.64H601.65q-3.63,0-3.63-3.63V332.6c0-2.43,1.22-3.64,3.64-3.64h27.88c2.42,0,3.64,1.21,3.64,3.63Z" transform="translate(0 -24.34)"/><path class="cls-6" d="M149.48,330.18H91.29c-2.43,0-4.85,1.21-4.85,3.63V361.7c0,2.42,2.42,3.63,4.85,3.63h58.19c2.42,0,4.85-1.21,4.85-3.63V333.81C154.33,331.39,151.9,330.18,149.48,330.18Z" transform="translate(0 -24.34)"/><path class="cls-6" d="M704.7,330.18H646.52c-2.44,0-4.86,1.21-4.86,3.63V361.7c0,2.42,2.43,3.63,4.85,3.64H704.7c2.42,0,4.85-1.21,4.85-3.63V333.81C709.55,331.39,707.12,330.18,704.7,330.18Z" transform="translate(0 -24.34)"/><path class="cls-6" d="M218.58,316.84c0,2.43-1.22,3.64-3.64,3.64H187.06q-3.65,0-3.64-3.64V289c0-2.43,1.22-3.64,3.64-3.64h27.88c2.43,0,3.64,1.21,3.64,3.63Z" transform="translate(0 -24.34)"/><path class="cls-6" d="M262.22,316.84c0,2.43-1.21,3.63-3.64,3.64H230.7q-3.63,0-3.63-3.64V289c0-2.42,1.21-3.64,3.64-3.64h27.88q3.65,0,3.64,3.63Z" transform="translate(0 -24.34)"/><path class="cls-6" d="M305.86,316.84c0,2.43-1.21,3.64-3.64,3.64H274.34q-3.63,0-3.63-3.64V289q0-3.65,3.63-3.64h27.88q3.64,0,3.64,3.64Z" transform="translate(0 -24.34)"/><path class="cls-6" d="M349.5,316.84q0,3.65-3.63,3.64H318c-2.43,0-3.64-1.22-3.64-3.64V289c0-2.42,1.21-3.64,3.63-3.64h27.89q3.63,0,3.64,3.64Z" transform="translate(0 -24.34)"/><path class="cls-6" d="M393.15,316.84q0,3.65-3.64,3.64H361.63q-3.64,0-3.64-3.64V289q0-3.63,3.64-3.64h27.88c2.43,0,3.64,1.22,3.64,3.64Z" transform="translate(0 -24.34)"/><path class="cls-6" d="M436.79,316.84c0,2.43-1.22,3.64-3.64,3.64H405.27q-3.64,0-3.64-3.64V289c0-2.43,1.21-3.63,3.64-3.64h27.88c2.42,0,3.64,1.21,3.63,3.64Z" transform="translate(0 -24.34)"/><path class="cls-6" d="M480.43,316.85q0,3.63-3.64,3.63H448.91q-3.63,0-3.64-3.64V289c0-2.42,1.2-3.64,3.63-3.63h27.88q3.65,0,3.64,3.64Z" transform="translate(0 -24.34)"/><path class="cls-6" d="M524.07,316.84q0,3.65-3.63,3.64H492.55c-2.42,0-3.64-1.21-3.63-3.64V289c0-2.42,1.21-3.64,3.63-3.64h27.89q3.63,0,3.63,3.63v27.88Z" transform="translate(0 -24.34)"/><path class="cls-6" d="M567.72,316.84c0,2.43-1.22,3.64-3.65,3.64H536.19q-3.63,0-3.63-3.64V289q0-3.65,3.64-3.64h27.88q3.63,0,3.64,3.64Z" transform="translate(0 -24.34)"/><path class="cls-6" d="M611.35,316.84q0,3.65-3.63,3.64H579.84q-3.65,0-3.64-3.64V289q0-3.65,3.64-3.64h27.88c2.42,0,3.64,1.21,3.64,3.63Z" transform="translate(0 -24.34)"/><path class="cls-6" d="M705.91,285.33H623.48c-2.43,0-4.85,1.22-4.85,3.64v27.88c0,2.43,2.42,3.64,4.85,3.64h82.43c2.42,0,4.85-1.21,4.85-3.64V289C709.55,287.75,708.34,285.32,705.91,285.33Z" transform="translate(0 -24.34)"/><path class="cls-6" d="M172.51,285.32H88.86c-2.42,0-4.84,1.22-4.85,3.64v27.88c0,2.43,2.43,3.64,4.86,3.64H171.3c2.43,0,4.85-1.21,4.85-3.64V289A3.87,3.87,0,0,0,172.51,285.32Z" transform="translate(0 -24.34)"/><path class="cls-6" d="M304.65,273.2c0,2.43-1.21,3.63-3.64,3.64H267.07c-2.42,0-3.63-1.22-3.64-3.64V245.32c0-2.43,1.22-3.63,3.64-3.64H301q3.64,0,3.64,3.64Z" transform="translate(0 -24.34)"/><path class="cls-6" d="M577.41,273.2q0,3.65-3.63,3.63H539.83c-2.42,0-3.64-1.21-3.64-3.64V245.32c0-2.43,1.22-3.64,3.64-3.64h33.94q3.65,0,3.64,3.64Z" transform="translate(0 -24.34)"/><path class="cls-6" d="M623.48,273.2q0,3.65-3.64,3.64H592q-3.65,0-3.64-3.63V245.32c0-2.43,1.21-3.64,3.64-3.64h27.88q3.64,0,3.63,3.64Z" transform="translate(0 -24.34)"/><path class="cls-6" d="M253.73,273.2c0,2.43-1.21,3.64-3.63,3.64H222.21c-2.42,0-3.64-1.2-3.63-3.63V245.32q0-3.65,3.63-3.64H250.1c2.42,0,3.64,1.21,3.63,3.64Z" transform="translate(0 -24.34)"/><path class="cls-6" d="M667.12,273.2q0,3.65-3.64,3.63H635.6q-3.63,0-3.64-3.64V245.31q0-3.63,3.64-3.63h27.88q3.64,0,3.64,3.64Z" transform="translate(0 -24.34)"/><path class="cls-6" d="M710.76,273.2c0,2.43-1.21,3.63-3.63,3.64H679.24c-2.42,0-3.64-1.21-3.63-3.64V245.32c0-2.43,1.21-3.64,3.63-3.64h27.89c2.42,0,3.64,1.2,3.63,3.63Z" transform="translate(0 -24.34)"/><path class="cls-6" d="M318,276.84H520.44c2.42,0,3.63-1.22,3.63-3.64V245.32c0-2.42-1.21-3.64-3.64-3.64H318c-2.43,0-3.65,1.21-3.64,3.64V273.2A3.87,3.87,0,0,0,318,276.84Z" transform="translate(0 -24.34)"/><path class="cls-6" d="M172.52,244.11a4.18,4.18,0,0,1,1.2-2.43h33.95c1.21,0,1.21,1.21,1.21,2.42V255a4.22,4.22,0,0,1-1.21,2.42H173.73c-1.22,0-1.22-1.21-1.22-2.42V244.11Z" transform="translate(0 -24.34)"/><path class="cls-6" d="M128.87,244.11a4.23,4.23,0,0,1,1.21-2.43H164c1.21,0,1.21,1.22,1.2,2.42V255a4.22,4.22,0,0,1-1.21,2.42H130.08c-1.21,0-1.21-1.21-1.21-2.42Z" transform="translate(0 -24.34)"/><path class="cls-6" d="M128.87,263.5a4.22,4.22,0,0,1,1.21-2.42H164c1.21,0,1.21,1.21,1.21,2.42v10.92a4.21,4.21,0,0,1-1.22,2.42H130.08c-1.21,0-1.21-1.21-1.21-2.43Z" transform="translate(0 -24.34)"/><path class="cls-6" d="M85.22,244.1a4.32,4.32,0,0,1,1.22-2.42h33.94c1.22,0,1.21,1.2,1.22,2.41V255a4.28,4.28,0,0,1-1.22,2.42H86.44c-1.21,0-1.21-1.21-1.21-2.43Z" transform="translate(0 -24.34)"/><path class="cls-6" d="M309.5,124.09a5.73,5.73,0,0,1,6.06-6.06H480.43a5.73,5.73,0,0,1,6.06,6.06V209a5.72,5.72,0,0,1-6.06,6.06H315.56A5.72,5.72,0,0,1,309.5,209V124.09Z" transform="translate(0 -24.34)"/><path class="cls-7" d="M47.65,521.71A10.91,10.91,0,1,1,58.56,510.8,10.89,10.89,0,0,1,47.65,521.71Z" transform="translate(0 -24.34)"/><path class="cls-8" d="M48.21,519.42A9.77,9.77,0,1,1,58,509.65,9.76,9.76,0,0,1,48.21,519.42Z" transform="translate(0 -24.34)"/><path class="cls-6" d="M114.32,521.72a7.84,7.84,0,0,1,7.27-7.28h552.8a7.83,7.83,0,0,1,7.28,7.28l0,28.85a7.8,7.8,0,0,1-7.27,7.27H121.56a7.84,7.84,0,0,1-7.28-7.28l0-28.85Z" transform="translate(0 -24.34)"/><path class="cls-6" d="M681.67,560.51a7.81,7.81,0,0,1-7.28,7.27H121.6a7.82,7.82,0,0,1-7.28-7.27V522.93a7.81,7.81,0,0,1,7.28-7.27" transform="translate(0 -24.34)"/><path class="cls-4" d="M18.49,546.93l-.12.15c0,12.12,8.48,21.82,19.4,21.82H757.85c10.92,0,19.4-9.7,19.4-21.82l.12-.15Z" transform="translate(0 -24.34)"/><polygon class="cls-6" points="777.37 526.48 18.48 526.47 18.55 519.19 777.43 519.2 777.37 526.48"/><polygon class="cls-5" points="777.35 527.2 18.47 527.2 18.55 522.83 777.44 522.83 777.35 527.2"/><g class="cls-9"><path class="cls-10" d="M401.74,292.53s-6.26,75.66,2.78,94S418.1,530.29,414,546.07c0,0,25.17-4.54,40.65-3.09,20.64,1.95,33.12,4.87,58.43-10.6,26.37-16.13,8.12-235.49,8.12-235.49l.91-82L474,172.05Z" transform="translate(0 -24.34)"/><path class="cls-2" d="M440.55,328.92a4.21,4.21,0,0,1-.86,1.45c-6.22,5.89-32.76,12.42-55.56,17.13-18.88,3.92-35.19,6.57-35.19,6.57s-12.51-103.92-12.51-114.85S316.27,51.44,316.27,51.44l48.33-2.09,64.23-2.78s.39,4.73,1,13C434,112.21,448.61,308.17,440.55,328.92Z" transform="translate(0 -24.34)"/><g class="cls-11"><path class="cls-12" d="M440.55,328.92l-56.42,11.61-21.3,4.37c-5.78-5.67-10.19-5.78-10.19-5.78L351,323.23l-2.76-26L323.93,68.37c5.3-3.64,7.87-11.59,7.87-11.59l32.49-1.18,56.29-2.06,9.29,6C434,112.21,448.61,308.17,440.55,328.92Z" transform="translate(0 -24.34)"/><path class="cls-13" d="M440.55,328.92l-56.42,11.61-21.3,4.37c-5.78-5.67-10.19-5.78-10.19-5.78L351,323.23l-2.76-26L323.93,68.37c5.3-3.64,7.87-11.59,7.87-11.59l32.49-1.18,56.29-2.06,9.29,6C434,112.21,448.61,308.17,440.55,328.92Z" transform="translate(0 -24.34)"/><polygon class="cls-2" points="355.64 237.2 374.46 237.17 374.48 243.06 369.24 244.91 357.18 246.24 355.64 237.2"/><polygon class="cls-2" points="356.79 249.32 370.63 248.84 374.18 250.54 373.99 258.34 357.84 258.53 356.79 249.32"/><polygon class="cls-2" points="359 261.8 374.82 260.67 374.63 266.59 367 269.29 358.91 268.84 359 261.8"/><polygon class="cls-2" points="359.95 271.79 372.71 272.43 373.87 275.7 372.02 279.31 360.6 280.03 358.63 274.46 359.95 271.79"/><path class="cls-2" d="M374.67,307.56l1.82,5.1c.4,1.14.78,2.49.08,3.47a2.91,2.91,0,0,1-2.68.94c-1-.09-1.94-.42-2.93-.46-3-.14-5.7,2.31-8.61,1.78-1.14-3.15-4-7.79-.12-9.21C362.82,309,375.08,308.72,374.67,307.56Z" transform="translate(0 -24.34)"/><path class="cls-2" d="M374.61,322a25.43,25.43,0,0,1,.6,3.68c.15,1.61,0,3.5-1.31,4.41a5,5,0,0,1-2.43.65l-10.15.91a46,46,0,0,1-.1-5.76c.6-2.28.18-2.09,2.34-3C367,321.36,371.1,323.69,374.61,322Z" transform="translate(0 -24.34)"/><path class="cls-14" d="M337.7,73.54s3.83,37,4,44.34" transform="translate(0 -24.34)"/><line class="cls-14" x1="345.95" y1="49.56" x2="347.75" y2="69.95"/><polygon class="cls-2" points="374.56 41.85 376.88 65.75 380.13 66.06 379.07 42.08 374.56 41.85"/><path class="cls-12" d="M440.55,328.92a4.21,4.21,0,0,1-.86,1.45c-6.22,5.89-32.76,12.42-55.56,17.13V331.73L351,323.23l-5-1.29,2.25-24.72,8.59-94.53,7.5-147.09.31-6.25,64.23-2.78s.39,4.73,1,13C434,112.21,448.61,308.17,440.55,328.92Z" transform="translate(0 -24.34)"/></g><path class="cls-15" d="M474.57,564.74c.4-3.71-5.43-56.87-5.54-62.65-.28-15.84-4.76-36.55-4.76-36.55-6.25-16-11.11-52.81-27.8-76.43s-16.67-51.41-19.44-75-2.09-21.55-1.39-42.49-.7-33.25-2.09-47.14-4.16-38.37,0-49.77,15.05-14,27-2.64,16.79,58.22,16.79,64,0,23.84,4.18,30.79c0,0,23.62-12.08,23.62-15.42s-.7-32.82,2.78-34.41L474,172l26.4-9.36A68.67,68.67,0,0,1,513.12,178a83.14,83.14,0,0,1,7.43,14.91c11.11,29.49,29,50.06,32.66,58.54s0,75.86,0,88.38-8.07,70.3-7.86,80c.15,7,4.9,33.16,9.62,53.2,1.83,7.73,12.42,63.72,14,68.16h0Z" transform="translate(0 -24.34)"/><path class="cls-16" d="M495.36,214.12c-.17,3.78,4.34,33.88,4.34,33.88,3.13,7.5-13.95,33.07-13.95,33.07-3.68,2.08-5.29,14.94-5.29,14.94-11.56-2.57-38-29.18-38-29.18s-3.18,10.91-6.65,37.9,18.75,91.12,28.24,135.4,5,62,5,62c-.28-15.84-4.76-36.55-4.76-36.55-6.25-16-11.11-52.81-27.8-76.43s-16.67-51.41-19.44-75-2.09-21.55-1.39-42.49-.7-33.25-2.09-47.14-4.16-38.37,0-49.77,15.05-14,27-2.64,16.79,58.22,16.79,64,0,23.84,4.18,30.79c0,0,23.62-12.08,23.62-15.42s-.7-32.82,2.78-34.41L474,172l26.4-9.36A68.67,68.67,0,0,1,513.12,178C504.55,195.09,495.47,211.77,495.36,214.12Z" transform="translate(0 -24.34)"/><path class="cls-16" d="M539.66,424.5c1.15-10.53,4.61-35.59,6.81-51.22-2.69,12.21-7,18.39-7,18.39s7.48-89.62,8.22-95,8.29-30,5.51-45.23c3.69,8.47,0,75.86,0,88.38s-8.07,70.3-7.86,80c.15,7,7.69,51.79,12.41,71.83C547.57,476.82,538.5,435.09,539.66,424.5Z" transform="translate(0 -24.34)"/><path class="cls-17" d="M461.49,266.83S465.66,286.28,475,296" transform="translate(0 -24.34)"/><path class="cls-18" d="M464,275.7s17.62,5.37,24.92,5.72" transform="translate(0 -24.34)"/><path class="cls-18" d="M485.11,251.4s12.51-5.77,20.5-2.29" transform="translate(0 -24.34)"/><path class="cls-18" d="M487.89,217s9.73-.9,11.82-5.76" transform="translate(0 -24.34)"/><path class="cls-18" d="M548.34,292.53c-3.12,18.42-7.29,68.79-8.68,77.82" transform="translate(0 -24.34)"/><path class="cls-18" d="M554.32,257.79c.52,16.68-3.55,25.36-3.55,25.36" transform="translate(0 -24.34)"/><path class="cls-2" d="M410.68,24.34l128.8,33.94s-45.3,137.36-54.56,154.41L469.58,332.42s-82.26-3.61-120.09-15.05c0,0,23.91-124.72,25.2-141.32S410.68,24.34,410.68,24.34Z" transform="translate(0 -24.34)"/><g class="cls-19"><path class="cls-12" d="M383,168.67,411.35,47.33s12.22-6.07,16.94-11.59L520.55,62s.28,9,5.56,14.85L479.56,211l-11.29,98.89s-15,1.21-16.46,12.33c0,0-48.68,2.62-81.34-6,0,0-3.85-12-9.73-19.59Z" transform="translate(0 -24.34)"/><path class="cls-13" d="M383,168.67,411.35,47.33s12.22-6.07,16.94-11.59L520.55,62s.28,9,5.56,14.85L479.56,211l-11.29,98.89s-15,1.21-16.46,12.33c0,0-48.68,2.62-81.34-6,0,0-3.85-12-9.73-19.59Z" transform="translate(0 -24.34)"/><path class="cls-2" d="M406.6,175S415,143.33,444.49,149s12.83,44.62,12.83,44.62.18,31.44-23.77,27.1C412.81,217,401.74,205.61,406.6,175Z" transform="translate(0 -24.34)"/><path class="cls-14" d="M422.58,58.87S413.66,95,411.35,101.94" transform="translate(0 -24.34)"/><line class="cls-14" x1="430.23" y1="37.65" x2="425.01" y2="57.45"/><polygon class="cls-2" points="495.36 51.55 513.12 57.8 511.17 63.36 505.61 63.36 493.8 60.58 495.36 51.55"/><polygon class="cls-2" points="492.41 63.36 505.61 67.53 508.39 70.31 505.61 77.6 490.33 72.39 492.41 63.36"/><polygon class="cls-2" points="490.33 75.86 505.61 80.08 503.46 85.59 495.36 85.59 487.89 82.47 490.33 75.86"/><polygon class="cls-2" points="487.89 85.59 499.71 90.46 499.71 93.93 496.75 96.71 485.75 93.58 485.75 87.68 487.89 85.59"/><path class="cls-2" d="M498,125.62c0,1.8,0,3.61,0,5.42,0,1.2-.09,2.61-1.08,3.3a2.93,2.93,0,0,1-2.83,0c-.91-.41-1.7-1.05-2.61-1.42-2.75-1.11-6.15.28-8.72-1.19,0-3.35-1.18-8.68,3-8.73C486.31,123,498,126.85,498,125.62Z" transform="translate(0 -24.34)"/><path class="cls-2" d="M493.09,139.17a25.68,25.68,0,0,1-.66,3.67c-.39,1.56-1.15,3.3-2.7,3.72a5,5,0,0,1-2.51-.21l-9.88-2.52a45.6,45.6,0,0,1,1.84-5.46c1.32-2,.86-1.91,3.2-2.06C486.1,136.07,489.2,139.63,493.09,139.17Z" transform="translate(0 -24.34)"/><polygon class="cls-2" points="459.75 40.08 453.85 63.36 456.8 64.75 463.92 41.82 459.75 40.08"/><polygon class="cls-2" points="385.59 196.38 403.82 201.09 402.35 206.79 396.82 207.27 384.81 205.51 385.59 196.38"/><polygon class="cls-2" points="383.66 208.4 397.17 211.42 400.18 213.95 398.04 221.46 382.36 217.58 383.66 208.4"/><polygon class="cls-2" points="382.66 221.04 398.25 223.92 396.57 229.6 388.51 230.3 380.8 227.82 382.66 221.04"/><polygon class="cls-2" points="381.07 230.94 393.25 234.77 393.55 238.23 390.85 241.25 379.62 239.08 379.11 233.2 381.07 230.94"/><path class="cls-2" d="M392.43,270c.16,1.8.32,3.6.47,5.4.11,1.2.14,2.61-.79,3.38a2.92,2.92,0,0,1-2.83.24c-.93-.34-1.77-.9-2.72-1.19-2.83-.87-6.09.8-8.78-.44-.31-3.34-1.93-8.55,2.2-8.95C380.61,268.42,392.54,271.27,392.43,270Z" transform="translate(0 -24.34)"/><path class="cls-2" d="M388.75,284a27.38,27.38,0,0,1-.35,3.72c-.26,1.58-.86,3.38-2.37,3.93a5,5,0,0,1-2.52,0L373.46,290a45.82,45.82,0,0,1,1.35-5.59c1.16-2.06.7-2,3-2.33C381.52,281.47,384.91,284.76,388.75,284Z" transform="translate(0 -24.34)"/><path class="cls-14" d="M461.49,301s4.17-46.68,4.17-51.31" transform="translate(0 -24.34)"/><path class="cls-14" d="M453.15,298.92s1.74-24.25,2.09-28.45" transform="translate(0 -24.34)"/><polygon class="cls-2" points="420.57 257.07 414.94 284.65 420.57 284.65 424.67 257.07 420.57 257.07"/><path class="cls-12" d="M485.3,212c-12.19-2.55-23.06-6.29-31.11-11.68,0,0,5.83,16.75,26.51,45.31l-11.12,86.8s-53.69-2.35-94.26-9.29c12.47-35.13,35.09-101.69,32.44-114.88-3.64-18.11,9.2-39.48,9.2-39.48,40.59-7.31,80-38,107-63.93C510.17,145.56,491.39,200,485.3,212Z" transform="translate(0 -24.34)"/></g><path class="cls-15" d="M482.07,297.76l-18.15,131.3c-4-8.59-15.05-23.23-20.74-30.56-2.11-2.74-3.49-4.44-3.49-4.44l-3.22-4.95c-16.67-23.63-16.67-51.41-19.44-75s-2.09-21.55-1.39-42.49-.7-33.25-2.09-47.14-4.16-38.37,0-49.77c2-5.59,5.71-9.07,10.31-9.8,4.78-.79,10.59,1.37,16.67,7.16,11.92,11.4,16.79,58.22,16.79,64s0,23.84,4.18,30.79C461.5,266.83,472.69,288,482.07,297.76Z" transform="translate(0 -24.34)"/><path class="cls-16" d="M435.08,379.74c3.8,4.85,6.38,11.84,8.1,18.76-2.11-2.74-3.49-4.44-3.49-4.44l-3.22-4.95c-16.67-23.63-16.67-51.41-19.44-75s-2.09-21.55-1.39-42.49-.7-33.25-2.09-47.14-4.16-38.37,0-49.77c2-5.59,5.71-9.07,10.31-9.8,8.85,2.49,17.53,11.43,20.62,26.73,5.2,25.68-18.49,4.93-24,26.69s2.49,27.63,5.78,33.11-.92,17.55-5.78,33.79S424.67,366.41,435.08,379.74Z" transform="translate(0 -24.34)"/><path class="cls-18" d="M420.57,242.19s15.94-8.23,23.92-7.54" transform="translate(0 -24.34)"/></g></g></g></svg>