<svg xmlns="http://www.w3.org/2000/svg" xmlns:xlink="http://www.w3.org/1999/xlink" viewBox="0 0 779.18 563.25"><defs><style>.cls-1,.cls-12,.cls-21{fill:none;}.cls-2{fill:#56d4b7;}.cls-3{fill:#2e2f31;opacity:0.13;}.cls-4{fill:#7fc1ff;}.cls-17,.cls-19,.cls-5{fill:#fff;}.cls-5{isolation:isolate;opacity:0.1;}.cls-6{fill:#3e6c98;}.cls-7{fill:#b8cbd2;}.cls-8{fill:#c4eaff;}.cls-9{clip-path:url(#clip-path);}.cls-10{fill:#cae9ff;opacity:0.2;}.cls-11{fill:#5ae4a7;}.cls-11,.cls-19{opacity:0.4;}.cls-12{stroke:#1a2e35;stroke-linecap:round;stroke-linejoin:round;}.cls-13{fill:#ffd3c8;}.cls-14{fill:#ccc;}.cls-15{clip-path:url(#clip-path-2);}.cls-16,.cls-18{fill:#4bc5a9;}.cls-16{opacity:0.5;}.cls-20{fill:#f1b2a2;}.cls-21{stroke:#301913;stroke-miterlimit:10;stroke-width:0.5px;}.cls-22{fill:#e6e6e6;}.cls-23{fill:#ff6f66;}</style><clipPath id="clip-path" transform="translate(0 22.53)"><rect class="cls-1" x="189.26" y="1.81" width="398.02" height="606.2"/></clipPath><clipPath id="clip-path-2" transform="translate(0 22.53)"><polygon class="cls-2" points="548.24 246.52 531.2 535.87 354.42 530.38 367.63 308.66 371.74 239.81 444.66 242.74 548.24 246.52"/></clipPath></defs><g id="Layer_2" data-name="Layer 2"><g id="_8" data-name="8"><path class="cls-3" d="M777.35,461.33c-.09,19.39-15.86,21.75-35.26,21.65L53.53,479.67c-19.4-.1-35.14-3.81-35-22L20.3,78.23a35.18,35.18,0,0,1,35.33-35l688.56,3.31a35.2,35.2,0,0,1,35,35.33l-1.83,379.44Z" transform="translate(0 22.53)"/><path class="cls-4" d="M758.88,446c-.1,19.39-15.87,21.74-35.26,21.64L35.05,464.28c-19.4-.1-35.14-3.81-35-22L1.83,62.85a35.19,35.19,0,0,1,35.33-35l688.56,3.32a35.18,35.18,0,0,1,35,35.32L758.88,446Z" transform="translate(0 22.53)"/><path class="cls-5" d="M37.16,27.86l688.56,3.32a35.18,35.18,0,0,1,35,35.32l-1.84,380.66c-.09,19.39-15.86,21.74-35.26,21.64" transform="translate(0 22.53)"/><path class="cls-5" d="M715.8,328.14c-.08,17-1.3,19.39-18.28,19.32L62.29,344.39c-17-.08-18.16-2.51-18.08-19.48L45.35,88.52c.08-17,1.31-19.4,18.28-19.31l635.22,3.06c17,.08,18.17,2.51,18.09,19.48Z" transform="translate(0 22.53)"/><path class="cls-6" d="M108.3,105.79a4.21,4.21,0,0,1-1.22,2.42L71.92,108c-1.21,0-1.21-1.22-1.2-2.43l.08-15.76A4.27,4.27,0,0,1,72,87.43l35.15.17c1.21,0,1.2,1.22,1.2,2.43Z" transform="translate(0 22.53)"/><path class="cls-6" d="M153.16,106a4.27,4.27,0,0,1-1.23,2.42l-35.15-.17c-1.21,0-1.21-1.22-1.2-2.44l.08-15.75a4.22,4.22,0,0,1,1.22-2.43l33.94.17c1.22,0,1.21,1.22,1.2,2.43L152,106Z" transform="translate(0 22.53)"/><path class="cls-6" d="M198,106.22a4.24,4.24,0,0,1-1.22,2.42l-35.16-.17c-1.21,0-1.21-1.22-1.2-2.43l.08-15.76a4.21,4.21,0,0,1,1.22-2.42l35.16.17c1.2,0,1.2,1.22,1.2,2.44Z" transform="translate(0 22.53)"/><path class="cls-6" d="M242.86,106.44a4.21,4.21,0,0,1-1.22,2.42l-35.15-.17c-1.22,0-1.21-1.22-1.21-2.43l.08-15.76a4.28,4.28,0,0,1,1.22-2.42l35.16.17c1.21,0,1.21,1.22,1.2,2.43Z" transform="translate(0 22.53)"/><path class="cls-6" d="M287.72,106.66a4.27,4.27,0,0,1-1.23,2.42l-35.15-.18c-1.22,0-1.2-1.21-1.2-2.43l.07-15.76a4.27,4.27,0,0,1,1.23-2.42l35.15.17c1.22,0,1.21,1.22,1.2,2.44Z" transform="translate(0 22.53)"/><path class="cls-6" d="M332.57,106.87a4.17,4.17,0,0,1-1.23,2.42l-35.15-.17c-1.21,0-1.2-1.22-1.2-2.43l.08-15.76a4.21,4.21,0,0,1,1.22-2.42l35.16.17c1.21,0,1.21,1.22,1.2,2.44Z" transform="translate(0 22.53)"/><path class="cls-6" d="M377.43,107.09a4.27,4.27,0,0,1-1.23,2.42l-35.15-.17c-1.21,0-1.21-1.22-1.2-2.43l.07-15.76a4.28,4.28,0,0,1,1.22-2.42l35.16.17c1.22,0,1.21,1.21,1.2,2.43Z" transform="translate(0 22.53)"/><path class="cls-6" d="M422.28,107.3a4.24,4.24,0,0,1-1.22,2.42l-35.16-.17c-1.21,0-1.21-1.22-1.2-2.43l.08-15.76A4.17,4.17,0,0,1,386,89l35.15.16c1.22,0,1.21,1.22,1.21,2.43Z" transform="translate(0 22.53)"/><path class="cls-6" d="M467.14,107.52a4.23,4.23,0,0,1-1.23,2.42l-35.16-.17c-1.21,0-1.2-1.22-1.2-2.43l.08-15.76a4.21,4.21,0,0,1,1.22-2.42l35.16.17c1.21,0,1.21,1.22,1.2,2.43Z" transform="translate(0 22.53)"/><path class="cls-6" d="M512,107.73a4.24,4.24,0,0,1-1.22,2.42L475.6,110c-1.2,0-1.2-1.23-1.19-2.43l.07-15.77a4.22,4.22,0,0,1,1.23-2.41l35.15.17c1.22,0,1.21,1.21,1.2,2.43Z" transform="translate(0 22.53)"/><path class="cls-6" d="M556.84,108a4.21,4.21,0,0,1-1.22,2.42l-35.16-.17c-1.21,0-1.21-1.22-1.2-2.43L519.34,92a4.17,4.17,0,0,1,1.22-2.41l35.16.16c1.21,0,1.2,1.22,1.2,2.43Z" transform="translate(0 22.53)"/><path class="cls-6" d="M601.7,108.17a4.27,4.27,0,0,1-1.23,2.42l-35.15-.17c-1.22,0-1.21-1.22-1.21-2.43l.08-15.76a4.28,4.28,0,0,1,1.22-2.42l35.16.17c1.21,0,1.2,1.21,1.2,2.43Z" transform="translate(0 22.53)"/><path class="cls-6" d="M646.55,108.38a4.24,4.24,0,0,1-1.22,2.42l-35.16-.17c-1.21,0-1.21-1.21-1.2-2.42L609,92.45A4.23,4.23,0,0,1,610.27,90l35.15.17c1.21,0,1.21,1.21,1.21,2.43Z" transform="translate(0 22.53)"/><path class="cls-6" d="M693.82,108.61A4.18,4.18,0,0,1,692.6,111l-35.15-.17c-1.22,0-1.21-1.22-1.2-2.43l.07-15.76a4.27,4.27,0,0,1,1.23-2.42l35.15.17c1.21,0,1.21,1.22,1.2,2.44Z" transform="translate(0 22.53)"/><path class="cls-6" d="M103.25,148.2q0,3.63-3.66,3.62l-27.88-.14c-2.42,0-3.63-1.23-3.61-3.65l.13-27.88c0-2.43,1.23-3.63,3.65-3.63l27.89.14c2.42,0,3.63,1.23,3.61,3.66Z" transform="translate(0 22.53)"/><path class="cls-6" d="M146.89,148.41c0,2.42-1.23,3.63-3.65,3.61l-27.88-.13c-2.43,0-3.63-1.23-3.63-3.65l.14-27.88q0-3.64,3.66-3.62l27.88.13q3.63,0,3.62,3.65Z" transform="translate(0 22.53)"/><path class="cls-6" d="M190.53,148.62c0,2.43-1.23,3.63-3.65,3.62L159,152.1c-2.42,0-3.63-1.23-3.61-3.65l.13-27.88c0-2.43,1.23-3.63,3.65-3.62l27.88.13q3.65,0,3.63,3.65Z" transform="translate(0 22.53)"/><path class="cls-6" d="M234.18,148.83q0,3.63-3.66,3.62l-27.88-.13q-3.64,0-3.62-3.66l.13-27.88c0-2.43,1.23-3.63,3.66-3.63l27.88.14q3.63,0,3.62,3.66Z" transform="translate(0 22.53)"/><path class="cls-6" d="M277.82,149c0,2.42-1.23,3.63-3.66,3.62l-26.67-.13q-3.63,0-3.62-3.66L244,121c0-2.43,1.23-3.63,3.65-3.62l27.89.14c2.42,0,3.63,1.23,3.61,3.65L279,149Z" transform="translate(0 22.53)"/><path class="cls-6" d="M321.45,149.25c0,2.43-1.23,3.63-3.65,3.62l-27.88-.13q-3.63,0-3.62-3.66l.14-27.88c0-2.43,1.23-3.63,3.65-3.63l27.88.14c2.43,0,3.63,1.23,3.62,3.65Z" transform="translate(0 22.53)"/><path class="cls-6" d="M365.1,149.46c0,2.42-1.23,3.63-3.66,3.62L333.56,153c-2.42,0-3.63-1.23-3.62-3.66l.14-27.88c0-2.43,1.22-3.63,3.65-3.62l27.88.13c2.43,0,3.64,1.23,3.62,3.66Z" transform="translate(0 22.53)"/><path class="cls-6" d="M410,149.67c0,2.43-1.23,3.63-3.65,3.62l-27.88-.13q-3.65,0-3.62-3.66l.13-27.88q0-3.63,3.65-3.62l27.89.14q3.63,0,3.62,3.66Z" transform="translate(0 22.53)"/><path class="cls-6" d="M453.59,149.89c0,2.42-1.23,3.63-3.65,3.61l-27.88-.13c-2.43,0-3.63-1.23-3.62-3.66l.13-27.87c0-2.43,1.24-3.64,3.66-3.62l27.88.13c2.43,0,3.63,1.23,3.62,3.65Z" transform="translate(0 22.53)"/><path class="cls-6" d="M497.24,150.09q0,3.65-3.66,3.62l-27.88-.13c-2.43,0-3.63-1.23-3.62-3.65l.13-27.89c0-2.42,1.23-3.63,3.65-3.61l27.89.13c2.43,0,3.63,1.23,3.62,3.65Z" transform="translate(0 22.53)"/><path class="cls-6" d="M540.88,150.31c0,2.42-1.23,3.63-3.66,3.61l-27.88-.13q-3.63,0-3.62-3.66l.14-27.87q0-3.65,3.65-3.62l27.88.13q3.63,0,3.62,3.66Z" transform="translate(0 22.53)"/><path class="cls-6" d="M584.52,150.52c0,2.42-1.23,3.63-3.66,3.62L553,154q-3.63,0-3.62-3.65l.14-27.89c0-2.42,1.23-3.63,3.65-3.61L581,119q3.65,0,3.62,3.65Z" transform="translate(0 22.53)"/><path class="cls-6" d="M628.15,150.73c0,2.42-1.22,3.63-3.65,3.61l-27.88-.13q-3.63,0-3.62-3.65l.14-27.89c0-2.42,1.23-3.63,3.65-3.61l27.88.13c2.43,0,3.63,1.23,3.63,3.66Z" transform="translate(0 22.53)"/><path class="cls-6" d="M688.92,119.5l-21.82-.11-6.06,0-21.82-.11q-3.63,0-3.65,3.62l-.14,27.88c0,2.42,1.2,3.65,3.62,3.65l21.82.11,6.07,0,21.81.1c2.43,0,3.65-1.19,3.66-3.61l.14-27.89C692.55,121.94,690.14,119.5,688.92,119.5Z" transform="translate(0 22.53)"/><path class="cls-6" d="M657.18,166.63c0-2.43,1.23-3.63,3.65-3.62l27.88.13q3.64,0,3.62,3.66l-.13,27.88c0,2.42-1.23,3.63-3.65,3.62l-27.89-.14q-3.63,0-3.62-3.66Z" transform="translate(0 22.53)"/><path class="cls-6" d="M613.54,166.41c0-2.42,1.23-3.63,3.65-3.61l27.88.13c2.43,0,3.63,1.23,3.62,3.66l-.13,27.88c0,2.42-1.24,3.63-3.66,3.62L617,198q-3.63,0-3.62-3.65Z" transform="translate(0 22.53)"/><path class="cls-6" d="M569.9,166.2c0-2.42,1.23-3.63,3.65-3.61l27.88.13q3.63,0,3.62,3.65l-.13,27.89c0,2.42-1.23,3.63-3.66,3.62l-27.88-.14c-2.43,0-3.63-1.23-3.62-3.65Z" transform="translate(0 22.53)"/><path class="cls-6" d="M526.25,166c0-2.42,1.23-3.63,3.66-3.61l27.88.13q3.63,0,3.62,3.66L561.27,194c0,2.43-1.22,3.64-3.65,3.63l-27.88-.14c-2.42,0-3.63-1.22-3.62-3.66Z" transform="translate(0 22.53)"/><path class="cls-6" d="M482.61,165.78c0-2.42,1.23-3.63,3.65-3.61l27.89.13q3.63,0,3.62,3.65l-.14,27.88q0,3.64-3.65,3.63l-27.89-.14c-2.42,0-3.63-1.23-3.61-3.65Z" transform="translate(0 22.53)"/><path class="cls-6" d="M439,165.58q0-3.65,3.66-3.62l27.88.13q3.63,0,3.62,3.65L474,193.63c0,2.42-1.23,3.63-3.65,3.61l-27.88-.13c-2.43,0-3.63-1.23-3.63-3.65Z" transform="translate(0 22.53)"/><path class="cls-6" d="M395.33,165.36q0-3.63,3.65-3.62l27.89.14c2.42,0,3.63,1.23,3.61,3.65l-.13,27.88c0,2.43-1.23,3.63-3.66,3.63l-27.87-.14q-3.65,0-3.62-3.65Z" transform="translate(0 22.53)"/><path class="cls-6" d="M351.69,165.15c0-2.42,1.23-3.62,3.65-3.62l27.88.14q3.64,0,3.62,3.65l-.13,27.89c0,2.42-1.23,3.63-3.65,3.62l-27.89-.14q-3.63,0-3.62-3.65l.14-27.89Z" transform="translate(0 22.53)"/><path class="cls-6" d="M308.05,164.94q0-3.63,3.65-3.62l27.88.14q3.63,0,3.62,3.65L343.06,193c0,2.43-1.22,3.63-3.65,3.62l-27.88-.13c-2.43,0-3.63-1.23-3.62-3.65Z" transform="translate(0 22.53)"/><path class="cls-6" d="M264.41,164.74c0-2.43,1.22-3.63,3.65-3.63l27.88.13c2.43,0,3.63,1.24,3.62,3.66l-.13,27.88c0,2.43-1.23,3.63-3.66,3.63l-27.88-.14q-3.63,0-3.62-3.65l.14-27.88Z" transform="translate(0 22.53)"/><path class="cls-6" d="M220.76,164.52c0-2.42,1.23-3.63,3.66-3.61l27.88.13q3.63,0,3.62,3.65l-.14,27.88q0,3.65-3.65,3.62l-27.88-.13q-3.63,0-3.62-3.65Z" transform="translate(0 22.53)"/><path class="cls-6" d="M177.12,164.32q0-3.65,3.65-3.63l27.89.14c2.43,0,3.63,1.23,3.62,3.65l-.14,27.89c0,2.42-1.23,3.63-3.65,3.61l-27.88-.13c-2.43,0-3.63-1.23-3.62-3.65Z" transform="translate(0 22.53)"/><path class="cls-6" d="M133.48,164.1q0-3.63,3.66-3.62l27.88.14c2.42,0,3.63,1.22,3.62,3.65l-.14,27.89c0,2.42-1.23,3.63-3.66,3.61L137,195.64c-2.43,0-3.64-1.23-3.62-3.66Z" transform="translate(0 22.53)"/><path class="cls-6" d="M72.72,195.33l21.82.11,6.06,0,21.82.11q3.63,0,3.65-3.62l.13-27.89c0-2.42-1.19-3.63-3.61-3.65l-21.82-.1-6.07,0-21.81-.1c-2.43,0-3.65,1.19-3.66,3.61l-.14,27.88C69.09,194.1,70.29,195.32,72.72,195.33Z" transform="translate(0 22.53)"/><path class="cls-6" d="M581.8,211.12c0-2.43,1.23-3.63,3.66-3.62l27.88.13q3.63,0,3.62,3.66l-.14,27.88c0,2.42-1.22,3.63-3.65,3.62l-27.89-.13q-3.63,0-3.61-3.66Z" transform="translate(0 22.53)"/><path class="cls-6" d="M538.16,210.91c0-2.43,1.23-3.63,3.65-3.62l27.89.14c2.42,0,3.63,1.22,3.61,3.65L573.18,239c0,2.43-1.23,3.63-3.65,3.62l-27.89-.14c-2.42,0-3.63-1.23-3.61-3.65Z" transform="translate(0 22.53)"/><path class="cls-6" d="M494.52,210.7q0-3.64,3.65-3.62l27.88.13c2.43,0,3.63,1.23,3.63,3.66l-.14,27.88c0,2.42-1.23,3.63-3.66,3.61L498,242.23q-3.63,0-3.62-3.65Z" transform="translate(0 22.53)"/><path class="cls-6" d="M450.88,210.49c0-2.43,1.23-3.63,3.65-3.62l27.89.13c2.42,0,3.63,1.23,3.61,3.66l-.13,27.88q0,3.63-3.66,3.62L454.36,242q-3.63,0-3.62-3.65Z" transform="translate(0 22.53)"/><path class="cls-6" d="M407.24,210.28c0-2.43,1.22-3.64,3.65-3.62l27.88.13c2.43,0,3.63,1.23,3.62,3.66l-.13,27.88c0,2.42-1.23,3.63-3.66,3.61l-27.88-.13q-3.63,0-3.62-3.65Z" transform="translate(0 22.53)"/><path class="cls-6" d="M363.59,210.06c0-2.42,1.23-3.63,3.66-3.61l27.88.13q3.63,0,3.62,3.65l-.14,27.89c0,2.42-1.23,3.63-3.65,3.61l-27.88-.13c-2.43,0-3.63-1.23-3.62-3.65l.13-27.89Z" transform="translate(0 22.53)"/><path class="cls-6" d="M320,209.86c0-2.43,1.23-3.63,3.66-3.62l27.88.13q3.63,0,3.62,3.65L355,237.91q0,3.63-3.65,3.62l-27.89-.14q-3.63,0-3.61-3.66Z" transform="translate(0 22.53)"/><path class="cls-6" d="M276.31,209.64c0-2.42,1.23-3.63,3.66-3.61l27.88.13q3.63,0,3.62,3.66l-.13,27.88q0,3.63-3.66,3.61l-27.88-.13c-2.43,0-3.63-1.23-3.62-3.66l.13-27.88Z" transform="translate(0 22.53)"/><path class="cls-6" d="M232.67,209.43c0-2.42,1.23-3.63,3.65-3.61l27.89.13q3.63,0,3.62,3.65l-.14,27.89q0,3.63-3.65,3.62L236.15,241c-2.42,0-3.63-1.23-3.61-3.65Z" transform="translate(0 22.53)"/><path class="cls-6" d="M189,209.22c0-2.42,1.23-3.63,3.66-3.61l27.88.13c2.43,0,3.63,1.23,3.62,3.66l-.13,27.88q0,3.63-3.66,3.62l-27.87-.14q-3.65,0-3.63-3.65Z" transform="translate(0 22.53)"/><path class="cls-6" d="M145.39,209q0-3.63,3.65-3.62l27.89.14q3.63,0,3.61,3.65l-.13,27.88c0,2.43-1.24,3.64-3.66,3.63l-27.88-.14q-3.63,0-3.62-3.65Z" transform="translate(0 22.53)"/><path class="cls-6" d="M628.93,241.65l25.46.13,7.28,0,25.45.12c2.43,0,4.86-1.18,4.87-3.61l.13-27.89c0-2.42-2.4-3.64-4.83-3.65l-25.46-.13-7.27,0-25.46-.12c-2.42,0-4.85,1.18-4.86,3.61L624.1,238C624.09,240.42,626.51,241.64,628.93,241.65Z" transform="translate(0 22.53)"/><path class="cls-6" d="M73.72,239l25.45.12,7.28,0,25.45.12c2.43,0,4.86-1.18,4.87-3.6l.14-27.89c0-2.42-2.41-3.65-4.83-3.66L106.62,204l-7.28,0-25.46-.12c-2.42,0-4.85,1.19-4.86,3.62l-.13,27.88C68.87,237.74,71.29,239,73.72,239Z" transform="translate(0 22.53)"/><path class="cls-6" d="M559.77,254.65q0-3.63,3.65-3.62l27.89.14q3.63,0,3.62,3.65l-.14,27.89c0,2.42-1.23,3.63-3.65,3.61l-27.89-.13c-2.42,0-3.63-1.23-3.61-3.65Z" transform="translate(0 22.53)"/><path class="cls-6" d="M516.13,254.45c0-2.43,1.23-3.63,3.65-3.63l27.88.14c2.43,0,3.63,1.23,3.62,3.66l-.13,27.88c0,2.42-1.23,3.63-3.66,3.61L519.62,286q-3.64,0-3.63-3.66Z" transform="translate(0 22.53)"/><path class="cls-6" d="M472.49,254.23q0-3.63,3.65-3.62l27.89.14q3.63,0,3.61,3.65l-.13,27.88q0,3.64-3.66,3.62L476,285.77q-3.63,0-3.62-3.65Z" transform="translate(0 22.53)"/><path class="cls-6" d="M428.85,254c0-2.42,1.23-3.63,3.65-3.61l27.88.13c2.43,0,3.63,1.23,3.62,3.65l-.13,27.89c0,2.42-1.23,3.63-3.65,3.61l-27.89-.13q-3.63,0-3.62-3.66Z" transform="translate(0 22.53)"/><path class="cls-6" d="M385.2,253.81q0-3.63,3.66-3.62l27.88.14q3.63,0,3.62,3.65l-.14,27.88c0,2.43-1.23,3.63-3.65,3.62l-27.88-.13c-2.43,0-3.63-1.24-3.62-3.66Z" transform="translate(0 22.53)"/><path class="cls-6" d="M341.56,253.6q0-3.63,3.66-3.62l27.87.14c2.44,0,3.64,1.23,3.63,3.65l-.13,27.88c0,2.43-1.23,3.63-3.66,3.62l-27.88-.13c-2.43,0-3.63-1.23-3.62-3.66Z" transform="translate(0 22.53)"/><path class="cls-6" d="M297.92,253.39c0-2.42,1.23-3.63,3.66-3.61l27.88.13q3.63,0,3.62,3.65l-.14,27.88q0,3.65-3.65,3.62l-27.88-.13c-2.43,0-3.63-1.23-3.62-3.66Z" transform="translate(0 22.53)"/><path class="cls-6" d="M254.28,253.18c0-2.43,1.23-3.63,3.65-3.62l27.89.14c2.42,0,3.63,1.23,3.61,3.65l-.13,27.88q0,3.63-3.65,3.63l-27.89-.15c-2.42,0-3.63-1.22-3.61-3.65l.13-27.88Z" transform="translate(0 22.53)"/><path class="cls-6" d="M210.64,253q0-3.63,3.66-3.62l27.88.13q3.63,0,3.61,3.66L245.66,281c0,2.43-1.23,3.63-3.66,3.62l-27.88-.13q-3.63,0-3.62-3.66Z" transform="translate(0 22.53)"/><path class="cls-6" d="M167,252.76q0-3.63,3.65-3.62l27.88.14c2.43,0,3.63,1.23,3.62,3.65L202,280.81c0,2.43-1.23,3.63-3.66,3.62l-27.88-.14c-2.42,0-3.63-1.22-3.62-3.65Z" transform="translate(0 22.53)"/><path class="cls-6" d="M72.29,283.82l25.45.13,7.28,0,49.7.25c2.43,0,4.86-1.2,4.87-3.62l.13-27.88c0-2.43-2.4-3.65-4.83-3.67l-49.7-.24-7.27,0-25.46-.12c-2.42,0-4.86,1.19-4.87,3.61l-.13,27.89C68.66,281.38,69.86,283.81,72.29,283.82Z" transform="translate(0 22.53)"/><path class="cls-6" d="M605.68,286.4l32.74.15,8.48.05,42.43.2c2.42,0,4.86-1.19,4.87-3.61l.13-27.89c0-2.42-2.41-3.65-4.83-3.66l-42.43-.2-7.27,0-32.73-.17c-2.43,0-4.86,1.19-4.87,3.62l-.13,27.88A3.87,3.87,0,0,0,605.68,286.4Z" transform="translate(0 22.53)"/><path class="cls-6" d="M473.49,297.88c0-2.43,1.23-3.63,3.65-3.62l33.94.17c2.43,0,3.63,1.23,3.63,3.65L514.58,326c0,2.43-1.24,3.63-3.66,3.62L477,329.41q-3.64,0-3.63-3.65Z" transform="translate(0 22.53)"/><path class="cls-6" d="M200.73,296.56q0-3.63,3.65-3.61l34,.16q3.63,0,3.62,3.65l-.14,27.89c0,2.42-1.23,3.62-3.65,3.62l-33.94-.17c-2.43,0-3.63-1.23-3.63-3.65Z" transform="translate(0 22.53)"/><path class="cls-6" d="M154.67,296.34q0-3.63,3.65-3.62l27.88.14c2.43,0,3.63,1.23,3.62,3.65l-.13,27.88c0,2.43-1.23,3.63-3.66,3.63l-27.88-.14q-3.63,0-3.62-3.65Z" transform="translate(0 22.53)"/><path class="cls-6" d="M524.4,298.13c0-2.43,1.23-3.63,3.66-3.63l27.88.14c2.43,0,3.63,1.23,3.62,3.66l-.13,27.88c0,2.42-1.23,3.63-3.66,3.62l-27.88-.14q-3.63,0-3.62-3.65Z" transform="translate(0 22.53)"/><path class="cls-6" d="M111,296.13c0-2.42,1.23-3.63,3.66-3.61l27.88.13q3.63,0,3.62,3.65L146,324.19c0,2.42-1.22,3.63-3.65,3.61l-27.88-.13c-2.43,0-3.63-1.23-3.62-3.65Z" transform="translate(0 22.53)"/><path class="cls-6" d="M67.38,295.92c0-2.43,1.23-3.62,3.65-3.62l27.89.14q3.63,0,3.62,3.65L102.4,324c0,2.43-1.23,3.63-3.65,3.62l-27.88-.13q-3.65,0-3.62-3.65Z" transform="translate(0 22.53)"/><path class="cls-6" d="M460.17,294.18l-10.91-.05-17-.09L416.53,294l-27.88-.13-15.76-.08L345,293.62l-15.75-.07-27.88-.14-43.65-.21q-3.63,0-3.65,3.62l-.13,27.88c0,2.43,1.19,3.64,3.62,3.66l43.63.21,27.89.14,15.76.07,27.88.14,15.76.07,27.88.13,15.76.08,17,.08,10.9.06c2.43,0,3.65-1.2,3.66-3.63l.13-27.88A3.86,3.86,0,0,0,460.17,294.18Z" transform="translate(0 22.53)"/><path class="cls-6" d="M605.48,327.61a4.21,4.21,0,0,1-1.22,2.42l-33.94-.16c-1.21,0-1.21-1.22-1.2-2.43l0-10.92a4.23,4.23,0,0,1,1.22-2.41l34,.16c1.21,0,1.2,1.22,1.2,2.43l-.06,10.91Z" transform="translate(0 22.53)"/><path class="cls-6" d="M649.13,327.82a4.27,4.27,0,0,1-1.23,2.42L614,330.08c-1.21,0-1.21-1.22-1.2-2.43l0-10.91a4.24,4.24,0,0,1,1.22-2.42l34,.16c1.21,0,1.21,1.22,1.2,2.43Z" transform="translate(0 22.53)"/><path class="cls-6" d="M649.22,308.42a4.28,4.28,0,0,1-1.22,2.43l-34-.17c-1.21,0-1.2-1.22-1.2-2.43l.06-10.91a4.18,4.18,0,0,1,1.22-2.42l33.94.16c1.21,0,1.21,1.22,1.2,2.44Z" transform="translate(0 22.53)"/><path class="cls-6" d="M692.77,328a4.28,4.28,0,0,1-1.22,2.42l-33.95-.17c-1.21,0-1.2-1.21-1.2-2.42l.05-10.91a4.23,4.23,0,0,1,1.23-2.42l33.94.16c1.21,0,1.2,1.22,1.2,2.43Z" transform="translate(0 22.53)"/><path class="cls-6" d="M467.92,447a5.73,5.73,0,0,1-6.09,6L297,452.2a5.73,5.73,0,0,1-6-6.09l.41-84.85a5.73,5.73,0,0,1,6.09-6l164.87.8a5.72,5.72,0,0,1,6,6.09L467.92,447Z" transform="translate(0 22.53)"/><path class="cls-7" d="M731.69,50.61a10.91,10.91,0,1,1-11,10.86A10.9,10.9,0,0,1,731.69,50.61Z" transform="translate(0 22.53)"/><path class="cls-8" d="M731.12,52.9a9.77,9.77,0,1,1-9.82,9.72A9.75,9.75,0,0,1,731.12,52.9Z" transform="translate(0 22.53)"/><path class="cls-6" d="M665,50.28a7.82,7.82,0,0,1-7.3,7.24l-552.8-2.66a7.81,7.81,0,0,1-7.23-7.31l.18-28.86a7.81,7.81,0,0,1,7.31-7.23L658,14.12a7.85,7.85,0,0,1,7.25,7.31L665,50.28Z" transform="translate(0 22.53)"/><path class="cls-6" d="M97.86,8.75a7.82,7.82,0,0,1,7.31-7.23L658,4.19a7.81,7.81,0,0,1,7.24,7.3L665,49.07a7.82,7.82,0,0,1-7.31,7.24" transform="translate(0 22.53)"/><path class="cls-4" d="M761,25.53l.13-.15c.06-12.12-8.38-21.86-19.3-21.91L21.72,0C10.8-.06,2.27,9.6,2.21,21.72l-.12.16Z" transform="translate(0 22.53)"/><polygon class="cls-6" points="2.12 40.52 760.99 44.18 760.88 51.46 2.01 47.8 2.12 40.52"/><polygon class="cls-5" points="2.13 39.79 761.01 43.45 760.9 47.82 2.02 44.16 2.13 39.79"/><g class="cls-9"><path class="cls-10" d="M468.9,253.68s-40.3-44.36-43.08-47.14-4.86-50-12.5-70.87S401.94-7.46,401.94-7.46s-7.27-9-27.83-4.17-40.7-4.17-63.62,9S332,199.59,332,199.59l45.11,143.79Z" transform="translate(0 22.53)"/><path class="cls-11" d="M506,254s-27.48,115.34-46.25,130.62c-10.88,8.87-27.82,12.82-42.86,12.27-35.65-8.81-45.24-28.66-50.07-33.47-6.43-6.41-14.88-45.47-10.24-68.2s1.3-31.14-2.53-42.24c-8.48-24.59,17.4-37.83,20.06-47.13s1.72-61.37-9.89-78.3c-6.18-9-22.12-55.45-15.4-67.71,5.56,17.56,11.31,33.27,16.12,41.31a346.28,346.28,0,0,1,23.94,48.63c12.61,13.21,19.51,42.47,21.6,68.09v0l29.82,16.65C463.22,240.79,506,254,506,254Z" transform="translate(0 22.53)"/><path class="cls-12" d="M360.42,245.91s-6.28,7.39-11.84,7.39" transform="translate(0 22.53)"/><path class="cls-12" d="M374.11,270.89s-6.77,14.38-17.54,17.5" transform="translate(0 22.53)"/><path class="cls-12" d="M362.13,355.09s15.29-6.6,17.72-17.71" transform="translate(0 22.53)"/><path class="cls-12" d="M440.3,234.55s-3.82,4.86-3.82,8.68" transform="translate(0 22.53)"/><path class="cls-13" d="M326.13-22.53S350,76.12,364.94,101.15a346.28,346.28,0,0,1,23.94,48.63c12.61,13.21,19.51,42.49,21.6,68.11v0l29.82,16.65C463.22,240.79,506,254,506,254s-27.48,115.34-46.25,130.62-55.57,16-69.48,4.18-33.36-18.07-43.07-25.71-9.73-34.74-16-57.68-15.3-23.62-17.37-46.54-10.43-93.11-25.54-112.57-15.45-34.74-21.71-54.55S214.63.3,214.63.3Z" transform="translate(0 22.53)"/><polygon class="cls-14" points="548.24 269.06 354.42 552.9 397.95 557.76 539.6 563.25 553.13 310.78 548.24 269.06"/><polygon class="cls-2" points="548.24 269.05 531.2 558.4 354.42 552.9 367.63 331.19 371.74 262.34 444.66 265.27 548.24 269.05"/><g class="cls-15"><path class="cls-16" d="M361.31,524.7a142.28,142.28,0,0,1,29.08-3.5c17.14-.42,28.07,5.65,42.15-1.3s23.16,5.56,36.59-1.39,29.1-18.11,36.87-17.85,19.34-124.16,23-145.57,11.64-81.09,14.36-93.2L527.29,532.26Z" transform="translate(0 22.53)"/><polygon class="cls-17" points="362.83 497.26 405.68 549.38 360.39 547.27 362.83 497.26"/><path class="cls-18" d="M435.44,349.51c-24.91,12-51.88-30-61.33-35.76a40.28,40.28,0,0,1-6.48-5.09l4.11-68.85,72.92,2.93c-.48,10.26-.32,21.59,2,28.16C451.53,285.05,460.33,337.55,435.44,349.51Z" transform="translate(0 22.53)"/></g><polygon class="cls-19" points="539.78 559.94 533.67 558.4 548.24 293.42 550.81 310.92 539.78 559.94"/><path class="cls-13" d="M348.58,83.77c4.17,20.5,15.64,43.78,15.64,43.78,17,9,24.66,22.23,24.66,22.23,14.59,15.28,21.54,52.11,22.24,79.9s9.72,40.3,24.32,64.62,10.53,49.46,0,55.22c-7.35,4-17.37,3.14-24.32-9.36s-25.71-41-29.18-49.27-11.12-31.33-18.76-41.06-11.82-24.32-11.82-24.32" transform="translate(0 22.53)"/><path class="cls-20" d="M435.44,349.51a16.85,16.85,0,0,1-15,.23c8-2.18,18.44-6.27,16-12.37-3.77-9.62-14.82,4.66-20.37,0s-25.71-31.35-12.91-43.1,8.73-31.45,0-37-3.07-18.78-.3-39.59c1.69-12.59-4.26-41.11-9.22-61.7,11.35,17.56,16.85,49.16,17.44,73.7.71,27.8,9.73,40.3,24.33,64.61S444.92,344.46,435.44,349.51Z" transform="translate(0 22.53)"/><path class="cls-21" d="M347.2,228.39s-2.21,5.35,9.37,10.51" transform="translate(0 22.53)"/><path class="cls-21" d="M393.67,288.39s11.35-1,16.54-5.3" transform="translate(0 22.53)"/><circle class="cls-22" cx="499.37" cy="523.59" r="23.2"/><circle class="cls-17" cx="498.63" cy="522.74" r="23.01"/><path class="cls-23" d="M494,505.72l-6.54-.44-1.25,3-4.47-.31,7.53-17.06,4.94.33,5.13,17.93-4.51-.3Zm-.88-3.36-1.73-6.56-2.58,6.27Z" transform="translate(0 22.53)"/><path class="cls-23" d="M514.9,503.41l-4.34-.29-.3,4.44-4-.28.3-4.44-4.34-.29.26-3.82,4.34.3.3-4.46,4,.27-.3,4.47,4.33.29Z" transform="translate(0 22.53)"/></g></g></g></svg>