<svg xmlns="http://www.w3.org/2000/svg" viewBox="0 0 779.18 563.25" xmlns:v="https://vecta.io/nano"><style><![CDATA[.E{isolation:isolate}]]></style><defs><clipPath id="A" transform="translate(0 22.53)"><path d="M189.26 1.81h398.02v606.2H189.26z" fill="none"/></clipPath><clipPath id="B" transform="translate(0 22.53)"><path d="M548.24 246.52L531.2 535.87l-176.78-5.49 13.21-221.72 4.11-68.85 72.92 2.93 103.58 3.78z" fill="#56d4b7"/></clipPath></defs><path d="M777.35 483.86c-.09 19.39-15.86 21.75-35.26 21.65L53.53 502.2c-19.4-.1-35.14-3.81-35-22l1.77-379.44c.099-19.418 15.912-35.083 35.33-35l688.56 3.31c19.413.11 35.072 15.917 35 35.33l-1.83 379.44z" fill="#2e2f31" opacity=".13"/><path d="M758.88 468.53c-.1 19.39-15.87 21.74-35.26 21.64l-688.57-3.36c-19.4-.1-35.14-3.81-35-22L1.83 85.38c.105-19.415 15.914-35.078 35.33-35l688.56 3.32c19.414.099 35.078 15.906 35 35.32l-1.84 379.51z" fill="#7fc1ff"/><g fill="#fff" class="E"><path d="M37.16 50.39l688.56 3.32c19.414.099 35.078 15.906 35 35.32l-1.84 380.66c-.09 19.39-15.86 21.74-35.26 21.64" opacity=".1"/><path d="M715.8 350.67c-.08 17-1.3 19.39-18.28 19.32l-635.23-3.07c-17-.08-18.16-2.51-18.08-19.48l1.14-236.39c.08-17 1.31-19.4 18.28-19.31l635.22 3.06c17 .08 18.17 2.51 18.09 19.48z" opacity=".1"/></g><g fill="#3e6c98"><path d="M108.3 128.32a4.21 4.21 0 0 1-1.22 2.42l-35.16-.21c-1.21 0-1.21-1.22-1.2-2.43l.08-15.76a4.27 4.27 0 0 1 1.2-2.38l35.15.17c1.21 0 1.2 1.22 1.2 2.43zm44.86.21a4.27 4.27 0 0 1-1.23 2.42l-35.15-.17c-1.21 0-1.21-1.22-1.2-2.44l.08-15.75a4.22 4.22 0 0 1 1.22-2.43l33.94.17c1.22 0 1.21 1.22 1.2 2.43l-.02 15.77zm44.84.22a4.24 4.24 0 0 1-1.22 2.42l-35.16-.17c-1.21 0-1.21-1.22-1.2-2.43l.08-15.76a4.21 4.21 0 0 1 1.22-2.42l35.16.17c1.2 0 1.2 1.22 1.2 2.44zm44.86.22a4.21 4.21 0 0 1-1.22 2.42l-35.15-.17c-1.22 0-1.21-1.22-1.21-2.43l.08-15.76a4.28 4.28 0 0 1 1.22-2.42l35.16.17c1.21 0 1.21 1.22 1.2 2.43zm44.86.22a4.27 4.27 0 0 1-1.23 2.42l-35.15-.18c-1.22 0-1.2-1.21-1.2-2.43l.07-15.76a4.27 4.27 0 0 1 1.23-2.42l35.15.17c1.22 0 1.21 1.22 1.2 2.44zm44.85.21a4.17 4.17 0 0 1-1.23 2.42l-35.15-.17c-1.21 0-1.2-1.22-1.2-2.43l.08-15.76a4.21 4.21 0 0 1 1.22-2.42l35.16.17c1.21 0 1.21 1.22 1.2 2.44zm44.86.22a4.27 4.27 0 0 1-1.23 2.42l-35.15-.17c-1.21 0-1.21-1.22-1.2-2.43l.07-15.76a4.28 4.28 0 0 1 1.22-2.42l35.16.17c1.22 0 1.21 1.21 1.2 2.43zm44.85.21a4.24 4.24 0 0 1-1.22 2.42l-35.16-.17c-1.21 0-1.21-1.22-1.2-2.43l.08-15.76a4.17 4.17 0 0 1 1.22-2.36l35.15.16c1.22 0 1.21 1.22 1.21 2.43zm44.86.22a4.23 4.23 0 0 1-1.23 2.42l-35.16-.17c-1.21 0-1.2-1.22-1.2-2.43l.08-15.76a4.21 4.21 0 0 1 1.22-2.42l35.16.17c1.21 0 1.21 1.22 1.2 2.43zm44.86.21a4.24 4.24 0 0 1-1.22 2.42l-35.18-.15c-1.2 0-1.2-1.23-1.19-2.43l.07-15.77a4.22 4.22 0 0 1 1.23-2.41l35.15.17c1.22 0 1.21 1.21 1.2 2.43zm44.84.27a4.21 4.21 0 0 1-1.22 2.42l-35.16-.17c-1.21 0-1.21-1.22-1.2-2.43l.08-15.82a4.17 4.17 0 0 1 1.22-2.41l35.16.16c1.21 0 1.2 1.22 1.2 2.43zm44.86.17a4.27 4.27 0 0 1-1.23 2.42l-35.15-.17c-1.22 0-1.21-1.22-1.21-2.43l.08-15.76a4.28 4.28 0 0 1 1.22-2.42l35.16.17c1.21 0 1.2 1.21 1.2 2.43zm44.85.21a4.24 4.24 0 0 1-1.22 2.42l-35.16-.17c-1.21 0-1.21-1.21-1.2-2.42l.03-15.76a4.23 4.23 0 0 1 1.27-2.45l35.15.17c1.21 0 1.21 1.21 1.21 2.43zm47.27.23a4.18 4.18 0 0 1-1.22 2.39l-35.15-.17c-1.22 0-1.21-1.22-1.2-2.43l.07-15.76a4.27 4.27 0 0 1 1.23-2.42l35.15.17c1.21 0 1.21 1.22 1.2 2.44zm-590.57 39.59q0 3.63-3.66 3.62l-27.88-.14c-2.42 0-3.63-1.23-3.61-3.65l.13-27.88c0-2.43 1.23-3.63 3.65-3.63l27.89.14c2.42 0 3.63 1.23 3.61 3.66zm43.64.21c0 2.42-1.23 3.63-3.65 3.61l-27.88-.13c-2.43 0-3.63-1.23-3.63-3.65l.14-27.88q0-3.64 3.66-3.62l27.88.13q3.63 0 3.62 3.65zm43.64.21c0 2.43-1.23 3.63-3.65 3.62l-27.88-.14c-2.42 0-3.63-1.23-3.61-3.65l.13-27.88c0-2.43 1.23-3.63 3.65-3.62l27.88.13q3.65 0 3.63 3.65zm43.65.21q0 3.63-3.66 3.62l-27.88-.13q-3.64 0-3.62-3.66l.13-27.88c0-2.43 1.23-3.63 3.66-3.63l27.88.14q3.63 0 3.62 3.66zm43.64.17c0 2.42-1.23 3.63-3.66 3.62l-26.67-.13q-3.63 0-3.62-3.66l.13-27.83c0-2.43 1.23-3.63 3.65-3.62l27.89.14c2.42 0 3.63 1.23 3.61 3.65l-.15 27.83zm43.63.25c0 2.43-1.23 3.63-3.65 3.62l-27.88-.13q-3.63 0-3.62-3.66l.14-27.88c0-2.43 1.23-3.63 3.65-3.63l27.88.14c2.43 0 3.63 1.23 3.62 3.65zm43.65.21c0 2.42-1.23 3.63-3.66 3.62l-27.88-.08c-2.42 0-3.63-1.23-3.62-3.66l.14-27.88c0-2.43 1.22-3.63 3.65-3.62l27.88.13c2.43 0 3.64 1.23 3.62 3.66zm44.9.21c0 2.43-1.23 3.63-3.65 3.62l-27.88-.13q-3.65 0-3.62-3.66l.13-27.88q0-3.63 3.65-3.62l27.89.14q3.63 0 3.62 3.66zm43.59.22c0 2.42-1.23 3.63-3.65 3.61l-27.88-.13c-2.43 0-3.63-1.23-3.62-3.66l.13-27.87c0-2.43 1.24-3.64 3.66-3.62l27.88.13c2.43 0 3.63 1.23 3.62 3.65zm43.65.2q0 3.65-3.66 3.62l-27.88-.13c-2.43 0-3.63-1.23-3.62-3.65l.13-27.89c0-2.42 1.23-3.63 3.65-3.61l27.89.13c2.43 0 3.63 1.23 3.62 3.65zm43.64.22c0 2.42-1.23 3.63-3.66 3.61l-27.88-.13q-3.63 0-3.62-3.66l.14-27.87q0-3.65 3.65-3.62l27.88.13q3.63 0 3.62 3.66zm43.64.21c0 2.42-1.23 3.63-3.66 3.62l-27.86-.14q-3.63 0-3.62-3.65l.14-27.89c0-2.42 1.23-3.63 3.65-3.61l27.83.15q3.65 0 3.62 3.65zm43.63.21c0 2.42-1.22 3.63-3.65 3.61l-27.88-.13q-3.63 0-3.62-3.65l.14-27.89c0-2.42 1.23-3.63 3.65-3.61l27.88.13c2.43 0 3.63 1.23 3.63 3.66zm60.77-31.23l-21.82-.11h-6.06l-21.82-.11q-3.63 0-3.65 3.62l-.14 27.88c0 2.42 1.2 3.65 3.62 3.65l21.82.11h6.07l21.81.1c2.43 0 3.65-1.19 3.66-3.61l.14-27.89c0-1.2-2.41-3.64-3.63-3.64zm-31.74 47.13c0-2.43 1.23-3.63 3.65-3.62l27.88.13q3.64 0 3.62 3.66l-.13 27.88c0 2.42-1.23 3.63-3.65 3.62l-27.89-.14q-3.63 0-3.62-3.66zm-43.64-.22c0-2.42 1.23-3.63 3.65-3.61l27.88.13c2.43 0 3.63 1.23 3.62 3.66l-.13 27.88c0 2.42-1.24 3.63-3.66 3.62l-27.9-.09q-3.63 0-3.62-3.65zm-43.64-.21c0-2.42 1.23-3.63 3.65-3.61l27.88.13q3.63 0 3.62 3.65l-.13 27.89c0 2.42-1.23 3.63-3.66 3.62l-27.88-.14c-2.43 0-3.63-1.23-3.62-3.65zm-43.65-.2c0-2.42 1.23-3.63 3.66-3.61l27.88.13q3.63 0 3.62 3.66l-.14 27.82c0 2.43-1.22 3.64-3.65 3.63l-27.88-.14c-2.42 0-3.63-1.22-3.62-3.66zm-43.64-.22c0-2.42 1.23-3.63 3.65-3.61l27.89.13q3.63 0 3.62 3.65l-.14 27.88q0 3.64-3.65 3.63l-27.89-.14c-2.42 0-3.63-1.23-3.61-3.65zm-43.61-.2q0-3.65 3.66-3.62l27.88.13q3.63 0 3.62 3.65l-.16 27.89c0 2.42-1.23 3.63-3.65 3.61l-27.88-.13c-2.43 0-3.63-1.23-3.63-3.65zm-43.67-.22q0-3.63 3.65-3.62l27.89.14c2.42 0 3.63 1.23 3.61 3.65l-.13 27.88c0 2.43-1.23 3.63-3.66 3.63l-27.87-.14q-3.65 0-3.62-3.65zm-43.64-.21c0-2.42 1.23-3.62 3.65-3.62l27.88.14q3.64 0 3.62 3.65l-.13 27.89c0 2.42-1.23 3.63-3.65 3.62l-27.89-.14q-3.63 0-3.62-3.65l.14-27.89zm-43.64-.21q0-3.63 3.65-3.62l27.88.14q3.63 0 3.62 3.65l-.14 27.89c0 2.43-1.22 3.63-3.65 3.62l-27.88-.13c-2.43 0-3.63-1.23-3.62-3.65zm-43.64-.2c0-2.43 1.22-3.63 3.65-3.63l27.88.13c2.43 0 3.63 1.24 3.62 3.66l-.13 27.88c0 2.43-1.23 3.63-3.66 3.63l-27.88-.14q-3.63 0-3.62-3.65l.14-27.88zm-43.65-.22c0-2.42 1.23-3.63 3.66-3.61l27.88.13q3.63 0 3.62 3.65l-.14 27.88q0 3.65-3.65 3.62l-27.88-.13q-3.63 0-3.62-3.65zm-43.64-.2q0-3.65 3.65-3.63l27.89.14c2.43 0 3.63 1.23 3.62 3.65l-.14 27.89c0 2.42-1.23 3.63-3.65 3.61l-27.88-.13c-2.43 0-3.63-1.23-3.62-3.65zm-43.64-.22q0-3.63 3.66-3.62l27.88.14c2.42 0 3.63 1.22 3.62 3.65l-.14 27.89c0 2.42-1.23 3.63-3.66 3.61l-27.84-.13c-2.43 0-3.64-1.23-3.62-3.66zm-60.76 31.23l21.82.11h6.06l21.82.11q3.63 0 3.65-3.62l.13-27.89c0-2.42-1.19-3.63-3.61-3.65l-21.82-.1H94.7l-21.81-.1c-2.43 0-3.65 1.19-3.66 3.61l-.14 27.88c0 2.42 1.2 3.64 3.63 3.65zm509.08 15.79c0-2.43 1.23-3.63 3.66-3.62l27.88.13q3.63 0 3.62 3.66l-.14 27.88c0 2.42-1.22 3.63-3.65 3.62l-27.89-.13q-3.63 0-3.61-3.66zm-43.64-.21c0-2.43 1.23-3.63 3.65-3.62l27.89.14c2.42 0 3.63 1.22 3.61 3.65l-.13 27.92c0 2.43-1.23 3.63-3.65 3.62l-27.89-.14c-2.42 0-3.63-1.23-3.61-3.65zm-43.64-.21q0-3.64 3.65-3.62l27.88.13c2.43 0 3.63 1.23 3.63 3.66l-.14 27.88c0 2.42-1.23 3.63-3.66 3.61l-27.88-.13q-3.63 0-3.62-3.65zm-43.64-.21c0-2.43 1.23-3.63 3.65-3.62l27.89.13c2.42 0 3.63 1.23 3.61 3.66l-.13 27.88q0 3.63-3.66 3.62l-27.88-.16q-3.63 0-3.62-3.65zm-43.64-.21c0-2.43 1.22-3.64 3.65-3.62l27.88.13c2.43 0 3.63 1.23 3.62 3.66l-.13 27.88c0 2.42-1.23 3.63-3.66 3.61l-27.88-.13q-3.63 0-3.62-3.65zm-43.65-.22c0-2.42 1.23-3.63 3.66-3.61l27.88.13q3.63 0 3.62 3.65l-.14 27.89c0 2.42-1.23 3.63-3.65 3.61l-27.88-.13c-2.43 0-3.63-1.23-3.62-3.65l.13-27.89zm-43.59-.2c0-2.43 1.23-3.63 3.66-3.62l27.88.13q3.63 0 3.62 3.65l-.16 27.89q0 3.63-3.65 3.62l-27.89-.14q-3.63 0-3.61-3.66zm-43.69-.22c0-2.42 1.23-3.63 3.66-3.61l27.88.13q3.63 0 3.62 3.66l-.13 27.88q0 3.63-3.66 3.61l-27.88-.13c-2.43 0-3.63-1.23-3.62-3.66l.13-27.88zm-43.64-.21c0-2.42 1.23-3.63 3.65-3.61l27.89.13q3.63 0 3.62 3.65l-.14 27.89q0 3.63-3.65 3.62l-27.89-.11c-2.42 0-3.63-1.23-3.61-3.65zm-43.67-.21c0-2.42 1.23-3.63 3.66-3.61l27.88.13c2.43 0 3.63 1.23 3.62 3.66l-.13 27.88q0 3.63-3.66 3.62l-27.87-.14q-3.65 0-3.63-3.65zm-43.61-.22q0-3.63 3.65-3.62l27.89.14q3.63 0 3.61 3.65l-.13 27.88c0 2.43-1.24 3.64-3.66 3.63l-27.88-.14q-3.63 0-3.62-3.65zm483.54 32.65l25.46.13h7.28l25.45.12c2.43 0 4.86-1.18 4.87-3.61l.13-27.89c0-2.42-2.4-3.64-4.83-3.65l-25.46-.13h-7.27l-25.46-.12c-2.42 0-4.85 1.18-4.86 3.61l-.14 27.89c-.01 2.42 2.41 3.64 4.83 3.65zm-555.21-2.65l25.45.12h7.28l25.45.12c2.43 0 4.86-1.18 4.87-3.6l.14-27.89c0-2.42-2.41-3.65-4.83-3.66l-25.46-.09h-7.28l-25.46-.12c-2.42 0-4.85 1.19-4.86 3.62l-.13 27.88c-.02 2.36 2.4 3.62 4.83 3.62zm486.05 15.65q0-3.63 3.65-3.62l27.89.14q3.63 0 3.62 3.65l-.14 27.89c0 2.42-1.23 3.63-3.65 3.61l-27.89-.13c-2.42 0-3.63-1.23-3.61-3.65zm-43.64-.2c0-2.43 1.23-3.63 3.65-3.63l27.88.14c2.43 0 3.63 1.23 3.62 3.66l-.13 27.88c0 2.42-1.23 3.63-3.66 3.61l-27.87-.11q-3.64 0-3.63-3.66zm-43.64-.22q0-3.63 3.65-3.62l27.89.14q3.63 0 3.61 3.65l-.13 27.88q0 3.64-3.66 3.62L476 308.3q-3.63 0-3.62-3.65zm-43.64-.23c0-2.42 1.23-3.63 3.65-3.61l27.88.13c2.43 0 3.63 1.23 3.62 3.65l-.13 27.89c0 2.42-1.23 3.63-3.65 3.61l-27.89-.13q-3.63 0-3.62-3.66zm-43.65-.19q0-3.63 3.66-3.62l27.88.14q3.63 0 3.62 3.65l-.14 27.88c0 2.43-1.23 3.63-3.65 3.62l-27.88-.13c-2.43 0-3.63-1.24-3.62-3.66zm-43.64-.21q0-3.63 3.66-3.62l27.87.14c2.44 0 3.64 1.23 3.63 3.65l-.13 27.88c0 2.43-1.23 3.63-3.66 3.62l-27.88-.13c-2.43 0-3.63-1.23-3.62-3.66zm-43.64-.21c0-2.42 1.23-3.63 3.66-3.61l27.88.13q3.63 0 3.62 3.65l-.14 27.88q0 3.65-3.65 3.62l-27.88-.13c-2.43 0-3.63-1.23-3.62-3.66zm-43.64-.21c0-2.43 1.23-3.63 3.65-3.62l27.89.14c2.42 0 3.63 1.23 3.61 3.65l-.13 27.88q0 3.63-3.65 3.63l-27.89-.15c-2.42 0-3.63-1.22-3.61-3.65l.13-27.88zm-43.64-.18q0-3.63 3.66-3.62l27.88.13q3.63 0 3.61 3.66l-.13 27.83c0 2.43-1.23 3.63-3.66 3.62l-27.88-.13q-3.63 0-3.62-3.66zm-43.64-.24q0-3.63 3.65-3.62l27.88.14c2.43 0 3.63 1.23 3.62 3.65l-.15 27.88c0 2.43-1.23 3.63-3.66 3.62l-27.88-.14c-2.42 0-3.63-1.22-3.62-3.65zm-94.71 31.06l25.45.13h7.28l49.7.25c2.43 0 4.86-1.2 4.87-3.62l.13-27.88c0-2.43-2.4-3.65-4.83-3.67l-49.7-.24h-7.27l-25.46-.12c-2.42 0-4.86 1.19-4.87 3.61l-.13 27.89c1.2 1.21 2.4 3.64 4.83 3.65zm533.39 2.58l32.74.15 8.48.05 42.43.2c2.42 0 4.86-1.19 4.87-3.61l.13-27.89c0-2.42-2.41-3.65-4.83-3.66l-42.43-.2h-7.27l-32.73-.17c-2.43 0-4.86 1.19-4.87 3.62l-.13 27.88a3.87 3.87 0 0 0 3.61 3.63zm-132.19 11.48c0-2.43 1.23-3.63 3.65-3.62l33.94.17c2.43 0 3.63 1.23 3.63 3.65l-.13 27.92c0 2.43-1.24 3.63-3.66 3.62l-33.92-.21q-3.64 0-3.63-3.65zm-272.76-1.32q0-3.63 3.65-3.61l34 .16q3.63 0 3.62 3.65l-.14 27.89c0 2.42-1.23 3.62-3.65 3.62l-33.94-.17c-2.43 0-3.63-1.23-3.63-3.65zm-46.06-.22q0-3.63 3.65-3.62l27.88.14c2.43 0 3.63 1.23 3.62 3.65l-.13 27.88c0 2.43-1.23 3.63-3.66 3.63l-27.88-.14q-3.63 0-3.62-3.65zm369.73 1.79c0-2.43 1.23-3.63 3.66-3.63l27.88.14c2.43 0 3.63 1.23 3.62 3.66l-.13 27.88c0 2.42-1.23 3.63-3.66 3.62l-27.88-.14q-3.63 0-3.62-3.65zm-413.4-2c0-2.42 1.23-3.63 3.66-3.61l27.88.13q3.63 0 3.62 3.65l-.16 27.89c0 2.42-1.22 3.63-3.65 3.61l-27.88-.13c-2.43 0-3.63-1.23-3.62-3.65zm-43.62-.21c0-2.43 1.23-3.62 3.65-3.62l27.89.14q3.63 0 3.62 3.65l-.14 27.91c0 2.43-1.23 3.63-3.65 3.62l-27.88-.13q-3.65 0-3.62-3.65zm392.79-1.74l-10.91-.05-17-.09-15.73-.04-27.88-.13-15.76-.08-27.89-.17-15.75-.07-27.88-.14-43.65-.21q-3.63 0-3.65 3.62l-.13 27.88c0 2.43 1.19 3.64 3.62 3.66l43.63.21 27.89.14 15.76.07 27.88.14 15.76.07 27.88.13 15.76.08 17 .08 10.9.06c2.43 0 3.65-1.2 3.66-3.63l.13-27.88a3.86 3.86 0 0 0-3.64-3.65zm145.31 33.43a4.21 4.21 0 0 1-1.22 2.42l-33.94-.16c-1.21 0-1.21-1.22-1.2-2.43v-10.92a4.23 4.23 0 0 1 1.22-2.41l34 .16c1.21 0 1.2 1.22 1.2 2.43l-.06 10.91zm43.65.21a4.27 4.27 0 0 1-1.23 2.42l-33.9-.16c-1.21 0-1.21-1.22-1.2-2.43v-10.91a4.24 4.24 0 0 1 1.22-2.42l34 .16c1.21 0 1.21 1.22 1.2 2.43z"/><path d="M649.22 330.95a4.28 4.28 0 0 1-1.22 2.43l-34-.17c-1.21 0-1.2-1.22-1.2-2.43l.06-10.91a4.18 4.18 0 0 1 1.22-2.42l33.94.16c1.21 0 1.21 1.22 1.2 2.44zm43.55 19.58a4.28 4.28 0 0 1-1.22 2.42l-33.95-.17c-1.21 0-1.2-1.21-1.2-2.42l.05-10.91a4.23 4.23 0 0 1 1.23-2.42l33.94.16c1.21 0 1.2 1.22 1.2 2.43zm-224.85 119a5.73 5.73 0 0 1-6.09 6l-164.83-.8a5.73 5.73 0 0 1-6-6.09l.41-84.85a5.73 5.73 0 0 1 6.09-6l164.87.8a5.72 5.72 0 0 1 6 6.09l-.45 84.85z"/></g><path d="M731.69 73.14c6.02.05 10.862 4.966 10.82 10.986s-4.953 10.868-10.973 10.833S720.663 90.02 720.69 84a10.9 10.9 0 0 1 11-10.86z" fill="#b8cbd2"/><path d="M731.12 75.43c5.396.028 9.747 4.424 9.72 9.82s-4.424 9.747-9.82 9.72-9.747-4.424-9.72-9.82a9.75 9.75 0 0 1 9.82-9.72z" fill="#c4eaff"/><g fill="#3e6c98"><path d="M665 72.81a7.82 7.82 0 0 1-7.3 7.24l-552.8-2.66a7.81 7.81 0 0 1-7.23-7.31l.18-28.86a7.81 7.81 0 0 1 7.31-7.23L658 36.65a7.85 7.85 0 0 1 7.25 7.31L665 72.81z"/><path d="M97.86 31.28a7.82 7.82 0 0 1 7.31-7.23L658 26.72a7.81 7.81 0 0 1 7.24 7.3L665 71.6a7.82 7.82 0 0 1-7.31 7.24"/></g><path d="M761 48.06l.13-.15c.06-12.12-8.38-21.86-19.3-21.91L21.72 22.53c-10.92-.06-19.45 9.6-19.51 21.72l-.12.16z" fill="#7fc1ff"/><path d="M2.12 40.52l758.87 3.66-.11 7.28L2.01 47.8l.11-7.28z" fill="#3e6c98"/><path class="E" d="M2.13 39.79l758.88 3.66-.11 4.37L2.02 44.16l.11-4.37z" fill="#fff" opacity=".1"/><g clip-path="url(#A)"><path d="M468.9 276.21l-43.08-47.14c-2.78-2.78-4.86-50-12.5-70.87S401.94 15.07 401.94 15.07s-7.27-9-27.83-4.17-40.7-4.17-63.62 9S332 222.12 332 222.12l45.11 143.79z" fill="#cae9ff" opacity=".2"/><path d="M506 276.53s-27.48 115.34-46.25 130.62c-10.88 8.87-27.82 12.82-42.86 12.27-35.65-8.81-45.24-28.66-50.07-33.47-6.43-6.41-14.88-45.47-10.24-68.2s1.3-31.14-2.53-42.24c-8.48-24.59 17.4-37.83 20.06-47.13s1.72-61.37-9.89-78.3c-6.18-9-22.12-55.45-15.4-67.71 5.56 17.56 11.31 33.27 16.12 41.31a346.28 346.28 0 0 1 23.94 48.63c12.61 13.21 19.51 42.47 21.6 68.09h0l29.82 16.65c22.92 6.27 65.7 19.48 65.7 19.48z" fill="#5ae4a7" opacity=".4"/><g fill="none" stroke="#1a2e35" stroke-linecap="round" stroke-linejoin="round"><path d="M360.42 268.44s-6.28 7.39-11.84 7.39m25.53 17.59s-6.77 14.38-17.54 17.5m5.56 66.7s15.29-6.6 17.72-17.71m60.45-102.83s-3.82 4.86-3.82 8.68"/></g><path d="M326.13 0S350 98.65 364.94 123.68a346.28 346.28 0 0 1 23.94 48.63c12.61 13.21 19.51 42.49 21.6 68.11h0l29.82 16.65c22.92 6.25 65.7 19.46 65.7 19.46s-27.48 115.34-46.25 130.62-55.57 16-69.48 4.18-33.36-18.07-43.07-25.71-9.73-34.74-16-57.68-15.3-23.62-17.37-46.54-10.43-93.11-25.54-112.57-15.45-34.74-21.71-54.55-51.95-91.45-51.95-91.45z" fill="#ffd3c8"/><path d="M548.24 269.06L354.42 552.9l43.53 4.86 141.65 5.49 13.53-252.47-4.89-41.72z" fill="#ccc"/><path d="M548.24 269.05L531.2 558.4l-176.78-5.5 13.21-221.71 4.11-68.85 72.92 2.93 103.58 3.78z" fill="#56d4b7"/><g clip-path="url(#B)"><path d="M361.31 547.23a142.28 142.28 0 0 1 29.08-3.5c17.14-.42 28.07 5.65 42.15-1.3s23.16 5.56 36.59-1.39 29.1-18.11 36.87-17.85 19.34-124.16 23-145.57 11.64-81.09 14.36-93.2l-16.07 270.37z" fill="#4bc5a9" opacity=".5"/><path d="M362.83 497.26l42.85 52.12-45.29-2.11 2.44-50.01z" fill="#fff"/><path d="M435.44 372.04c-24.91 12-51.88-30-61.33-35.76a40.28 40.28 0 0 1-6.48-5.09l4.11-68.85 72.92 2.93c-.48 10.26-.32 21.59 2 28.16 4.87 14.15 13.67 66.65-11.22 78.61z" fill="#4bc5a9"/></g><path d="M539.78 559.94l-6.11-1.54 14.57-264.98 2.57 17.5-11.03 249.02z" fill="#fff" opacity=".4"/><path d="M348.58 106.3c4.17 20.5 15.64 43.78 15.64 43.78 17 9 24.66 22.23 24.66 22.23 14.59 15.28 21.54 52.11 22.24 79.9s9.72 40.3 24.32 64.62 10.53 49.46 0 55.22c-7.35 4-17.37 3.14-24.32-9.36s-25.71-41-29.18-49.27-11.12-31.33-18.76-41.06-11.82-24.32-11.82-24.32" fill="#ffd3c8"/><path d="M435.44 372.04a16.85 16.85 0 0 1-15 .23c8-2.18 18.44-6.27 16-12.37-3.77-9.62-14.82 4.66-20.37 0s-25.71-31.35-12.91-43.1 8.73-31.45 0-37-3.07-18.78-.3-39.59c1.69-12.59-4.26-41.11-9.22-61.7 11.35 17.56 16.85 49.16 17.44 73.7.71 27.8 9.73 40.3 24.33 64.61s9.51 50.17.03 55.22z" fill="#f1b2a2"/><g fill="none" stroke="#301913" stroke-miterlimit="10" stroke-width=".5"><path d="M347.2 250.92s-2.21 5.35 9.37 10.51m37.1 49.49s11.35-1 16.54-5.3"/></g><circle cx="499.37" cy="523.59" r="23.2" fill="#e6e6e6"/><circle cx="498.63" cy="522.74" r="23.01" fill="#fff"/><g fill="#ff6f66"><path d="M494 528.25l-6.54-.44-1.25 3-4.47-.31 7.53-17.06 4.94.33 5.13 17.93-4.51-.3zm-.88-3.36l-1.73-6.56-2.58 6.27zm21.78 1.05l-4.34-.29-.3 4.44-4-.28.3-4.44-4.34-.29.26-3.82 4.34.3.3-4.46 4 .27-.3 4.47 4.33.29z"/></g></g></svg>