<svg xmlns="http://www.w3.org/2000/svg" viewBox="0 0 657.74 636.97" xmlns:v="https://vecta.io/nano"><style><![CDATA[.E{isolation:isolate}.AE,.AG,.AH{mix-blend-mode:multiply}.AS{fill:none}.AT{stroke-miterlimit:10}.AU{stroke-width:.5}.AV{fill:#ffd3c8}.AW{fill:#f1b2a2}.AX{stroke:#061537}.AY{fill:#061537}.AZ{fill:#fff}.Aa{fill:#2a3756}.Ab{stroke-linecap:round}.Ac{stroke:#301913}.Ad{fill:#00bcff}.Ae{stroke:#9d3f28}.Af{fill:#955454}.Ag{fill:#7d4545}.Ah{fill:#659cff}.Ai{fill:#56d4b7}.Aj{stroke-width:.43}]]></style><defs><clipPath id="A"><path d="M133.7 578.14s3.94 5.41 2.71 23.7H52.07s1.15-9.51 10.26-11.85 36.67-18.32 40.14-15.93 31.23 4.08 31.23 4.08z" class="AS"/></clipPath><clipPath id="B"><path d="M134.78 552.61s-2.17 16.17-1.08 25.52-21.94 10.44-21.94 10.44-5.33-9.39-12.21-12.92a20.83 20.83 0 0 0 4-4.86 127.62 127.62 0 0 0 4.87-26.21c1.36-8.05 26.36 8.03 26.36 8.03z" class="AS"/></clipPath><clipPath id="C"><path d="M241.89,546s-1.59,29.69-.51,37.52-1.91,10.89-1.91,10.89l-31.1-5,3.78-8.86A49.74,49.74,0,0,0,215.33,566c0-6.23-1.87-29.1-1.87-29.1Z" class="AS"/></clipPath><clipPath id="D"><path d="M241.34,587.6a32.67,32.67,0,0,0-28-3.69l-.63-4.32s-9.32,10.24-9.32,16.17,3.21,17,22,17a20.74,20.74,0,0,0,21.34-17l-5.33-13.21Z" class="AS"/></clipPath><clipPath id="E"><path d="M142.17 265.45l-45.3 288.46 40.71 3.44s24.78-74.64 33.79-112.25 17.08-100 17.08-100 5.21 41.74 8.45 84.87 7.49 127.36 7.49 127.36H247V340.47s9-53.06-5.13-80.63-99.7 5.61-99.7 5.61z" class="AS"/></clipPath><clipPath id="F"><path d="M68.77,155.06s-11.36-22.64-22.28-24.83a132.68,132.68,0,0,1-16.82-11.57c-4.55-4.35-6.17,2-3.87,4.41s11.13,10.39,11.11,11.11-8,.25-12.09-4-4.55-6.55-6.8-4.91a7.94,7.94,0,0,1-4.13-6.74c-.42-5.1-4.85-5.89-4.88-5.27s1.92,10.16,1.92,10.16-3.79-5.58-5.47-5.64a2.46,2.46,0,0,0-2.37,2.54,2.5,2.5,0,0,0,.09.61c.46,1.34-4.14-2.26-3,2.7s24.08,24.75,36.24,25.2,19,16.29,19,16.29Z" class="AS"/></clipPath><clipPath id="G"><path d="M176.36,29.46A2.28,2.28,0,0,0,176,30.7V55c2.43,17.27,9.86,25.38,19.48,24.51l-.33,7s-.32,3.09-.68,5.14c-.48,2.7-2.68,4.75-2.36,7.74.51,4.85,9.66,9.63,12.35,10.43a10.63,10.63,0,0,0,4.95-.24c13.12-3.66,14.34-22.07,14.34-22.07s-2.15-1.24-2.52-8.91-.13-25.49-.13-25.49,2.91-1,3.53-7-1.61-6.88-3.9-6.78-4.73,5.27-5.14,9.36c-3.68,2-2.42-2.54-2.65-7.85s-6.19-5.13-7.32-8.43a25.83,25.83,0,0,1-.95-8.61,35.07,35.07,0,0,1-24.23-.68Z" class="AS"/></clipPath><clipPath id="H"><path d="M194.59 89.68s-46.15 1.45-58.81 25.75l-25.71 76a3.54 3.54 0 0 1-2.66 2.4 3.49 3.49 0 0 1-3.48-1.44l-31.8-46.38-21.72 23.43s37.68 69.41 57.4 71.37S141 218.27 141 218.27l-3.21 53s59.55 29 108.91 0l2.56-71a104.82 104.82 0 0 1 6.28-32.2l16.34-44.87s-18-7.71-44.67-31.12l-13.53 17.93-20.6-3.01z" class="AS"/></clipPath><clipPath id="I"><path d="M135.91,192.11s-24.54.59-28.92,5.35-5.53,7-3.06,8.68c0,0-5,4.11-1,7.5a3.84,3.84,0,0,0,4-.33s4.38,7.84,10.12,9.61a10.85,10.85,0,0,0,11.08-3.36,28,28,0,0,1,11.73-8.43c3.6-1.16,2.37-2.62,5.44-4.84Z" class="AS"/></clipPath><clipPath id="J"><path d="M164,113.63s24.14-34,37.27-36.69A58.81,58.81,0,0,1,225.94,78c.19,0,0,6.21,5.17,7.08s16.22,1,16.63,1.3a51.71,51.71,0,0,1,10.54,8.14c15.84,16.1,20.78,29,5.93,48.63L253.47,157.4s-19.13,41-20.3,46.54l-4.1,19.37s-23.23-3.57-52.23-15.8l-31.37,1.93-12.31-18.27,38.51-9.71,16.46-62.73Z" class="AS"/></clipPath><clipPath id="K"><path d="M428.16 160.71l30.75-17.23s10.8 17.49 23.6 35.29c25.1 34.89 74.36 38.62 77.1 38.14 6.41-1.12 27.27 1.37 27.27 1.37a5.88 5.88 0 0 1-6 5.5c-5.66 0-12 .28-8.35 3.77s13.75 13.28 25.78 16.06c0 0 5.24 1.11 2.45 4.87l-6.82-.44a3.44 3.44 0 0 1-3.87 2.84 3.27 3.27 0 0 1-3.53 3 3.66 3.66 0 0 1-.81-.18 6.07 6.07 0 0 1-5.8 1.62c-3.91-.7-19.28-5.39-23.42-10.83s-9.32-5.48-13.91-6.79c-2.11-.6-56.82.84-89.72-40.9a279.62 279.62 0 0 1-24.72-36.09z" class="AS"/></clipPath><clipPath id="L"><path d="M432.82,543.33H399.25V601.9h30.32s17.55-2.79,17.66-4.7l-21.58-7.9a5.42,5.42,0,0,1-3.37-6.49Z" class="AS"/></clipPath><clipPath id="M"><path d="M316.57 549l-14.38-14.3-15.56 39.15a27.17 27.17 0 0 1-7.55 10.57l-15.31 13.12s10.22 4.53 18.52 2.37 25.37-15.1 25.37-15.1z" class="AS"/></clipPath><clipPath id="N"><path d="M457.18,250.37s11.33,23.95,5.67,83.42-27.32,226.56-27.32,226.56H395.46s3-181.24.18-229.85c0,0-17,104.06-73.44,230.22l-41.64.17,68.69-287.38,74.36-41.71Z" class="AS"/></clipPath><clipPath id="O"><path d="M475.11 163l-34.73 18.24s-5.47 19.37-2.39 32.42S465.5 242 460.54 258c0 0-29.93-10.19-51.51 0s-44.63 31.78-65.42 26.89c0 0 8.83-83 1.62-106.65l-32.53-6.7S326 132 356.45 122.77a124.4 124.4 0 0 1 38.7-5c62.04-1.11 79.96 45.23 79.96 45.23z" class="AS"/></clipPath><clipPath id="P"><path d="M312.7,171.49s-25.19,63.4-25.39,84.17c0,2.84,10.17,1.78,10.45,4.35l36-8.08,12.82-77.79Z" class="AS"/></clipPath><clipPath id="Q"><path d="M287.61 260.36c14.19 15.6 58.85-6.44 76.12-20.63 0 0 22.1-7.8 23.07-12.55s-1.43-5.31-1.43-5.31 2.06-3.83.67-6c0 0 1.48-5.22-.18-6.34 0 0 1.35-6.44-8.27-7.15 0 0 1.09 4-1 5.39s-11.78 3.06-11.78.77 6.12-8 3.45-11.8-4.32 5.14-9.2 8.47-9.06 8.1-9.06 18.1c0 0-.05 5.7-24.14 7-12.75.67-26 1-32.79 6.87-6.02 5.14-12.15 15.82-5.46 23.18z" class="AS"/></clipPath><clipPath id="R"><path d="M426.34 65.43s16.13 39.41-7.87 42.92c0 0-12.66 6.23-11.46 7.16a144.85 144.85 0 0 0 14.54 4.55s-7.38 17.64-27.23 16.55-24.15-17.35-24.15-17.35l6.28-.83c5.31-.61 8.83-1.12 8.83-2.92a51.61 51.61 0 0 0-2.12-19.37 134.71 134.71 0 0 0-8.74-16.44s10.26-12.6 18.39-20.7 23.13-2.68 23.13-2.68a37.93 37.93 0 0 1 8.17 3.86 9.14 9.14 0 0 1 2.23 5.25z" class="AS"/></clipPath><clipPath id="S"><path d="M607.22,586.29s-27.65,16.84-18.14,21.22,51.58-3.53,52.52-6.88-.38-25.17-.38-25.17l-32.09-2.33Z" class="Aa"/></clipPath><clipPath id="T"><path d="M527,585.65s-29.05,14.27-20,19.49,51.7,1.15,52.93-2.1,1.9-25.1,1.9-25.1l-31.75-5.23Z" class="Aa"/></clipPath><clipPath id="U"><path d="M553.93 367.82L528.07 581.4l33.64 2.84s8.91-45.16 16.36-76.23 14.1-74.36 14.1-74.36 4.32 26.22 7 61.86l7.83 88.72h35.22l-1.65-154.42s7.43-43.81-4.23-66.63-82.41 4.64-82.41 4.64z" class="AS"/></clipPath><clipPath id="V"><path d="M643.7 335.76c-3-43.81-5-54.71-10.1-61.12s-23.82-9.14-37-9.66-32.45 3.22-37.93 7-8.79 19.73-7.94 39.6c.74 17.2 4.36 35.48 4.21 43.45-.27 14.78-3.17 20.48-5.28 31.48 16.49 11.47 80.32 17.63 94 14.88 1.34-14.98 1.48-44.39.04-65.63z" class="AZ"/></clipPath><clipPath id="W"><path d="M576.53,256.27,596,253.46l2.12,16a4.2,4.2,0,0,1-.94,3.23,16.66,16.66,0,0,1-11,6c-6,.7-6.72-2-6.64-3.74a20.45,20.45,0,0,0-.41-4.73Z" class="AV"/></clipPath></defs><g class="E"><path d="M133.7 578.14s3.94 5.41 2.71 23.7H52.07s1.15-9.51 10.26-11.85 36.67-18.32 40.14-15.93 31.23 4.08 31.23 4.08z" class="Aa"/><g clip-path="url(#A)" class="AY"><path d="M139.69,599.28H44.08l3.26,7H143Z"/></g><path d="M134.78 552.61s-2.17 16.17-1.08 25.52-21.94 10.44-21.94 10.44-5.33-9.39-12.21-12.92a20.83 20.83 0 0 0 4-4.86 127.62 127.62 0 0 0 4.87-26.21c1.36-8.05 26.36 8.03 26.36 8.03z" class="AV"/><g clip-path="url(#B)" class="AW"><path d="M106.16,555.29l29.62,13.28,2-17.26Z"/></g><path d="M241.89,546s-1.59,29.69-.51,37.52-1.91,10.89-1.91,10.89l-31.1-5,3.78-8.86A49.74,49.74,0,0,0,215.33,566c0-6.23-1.87-29.1-1.87-29.1Z" class="AV"/><g clip-path="url(#C)" class="AW"><path d="M211.8,559.59l44.77,22.06-11.42-30.43Z"/></g><path d="M241.34,587.6a32.67,32.67,0,0,0-28-3.69l-.63-4.32s-9.32,10.24-9.32,16.17,3.21,17,22,17a20.74,20.74,0,0,0,21.34-17l-5.33-13.21Z" class="Aa"/><g clip-path="url(#D)" class="AY"><path d="M246.67,590.71s-4,17.28-18.26,18.35-23.86-4-25.94-20.23-6.77,14.59-6.77,14.59L221.18,637l34.47-24.19Z"/></g><path d="M142.17 265.45l-45.3 288.46 40.71 3.44s24.78-74.64 33.79-112.25 17.08-100 17.08-100 5.21 41.74 8.45 84.87 7.49 127.36 7.49 127.36H247V340.47s9-53.06-5.13-80.63-99.7 5.61-99.7 5.61z" class="Af"/><g clip-path="url(#E)"><path d="M184.35 308.06s-3.44 22.38 4.1 37.06l-6.35 61.4s-7-21-6.63-39.16 8.88-59.3 8.88-59.3z" class="Ag"/><g class="AS AT AU Ac"><path d="M184.24 305.46s-5.7 38.45 4.62 38.45c0 0 2.79 10.36 9.61 10.72m-10.02-10.72s-10.1 70.49-19.57 110.37-29 94.19-29 94.19l-40.29-2.83m107.68 2.83h39.4"/></g></g><path d="M68.77,155.06s-11.36-22.64-22.28-24.83a132.68,132.68,0,0,1-16.82-11.57c-4.55-4.35-6.17,2-3.87,4.41s11.13,10.39,11.11,11.11-8,.25-12.09-4-4.55-6.55-6.8-4.91a7.94,7.94,0,0,1-4.13-6.74c-.42-5.1-4.85-5.89-4.88-5.27s1.92,10.16,1.92,10.16-3.79-5.58-5.47-5.64a2.46,2.46,0,0,0-2.37,2.54,2.5,2.5,0,0,0,.09.61c.46,1.34-4.14-2.26-3,2.7s24.08,24.75,36.24,25.2,19,16.29,19,16.29Z" class="AV"/><g clip-path="url(#F)" class="AW"><path d="M41.92 150.15s8.61 0 20 15.42 38 64.82 69.14 52-12 18.44-12 18.44l-62.46-27.9zm71.94 46.25l8.8-55.3-13.75-8.78-4.06 53.3z"/></g><g class="AS AT AU Ac"><path d="M50.94 141.27c-7.71-5.84-10-2.54-18.8-4S22.87 128.1 20.92 126s-2.54-1-2.54-1-2.64 6.37 9 17.8M3 121.22l18.18 14.63"/><path d="M10.21 122.14L14 126.2a42 42 0 0 0 3.83 3"/></g><path d="M177,52.13s-2.45-8.4-3.54-13a41.17,41.17,0,0,1,.15-12.34s-6.91-8.93-5.06-14.67c5-15.6,19.76-15.33,47.14-4.15a8.64,8.64,0,0,1,5.77,9.74,13.28,13.28,0,0,1,10.47,9.11c2.91,8.34-2.51,25.89-5.63,31.93a71.09,71.09,0,0,1-8.05,11.78Z" fill="#4c2603"/><path d="M176.36,29.46A2.28,2.28,0,0,0,176,30.7V55c2.43,17.27,9.86,25.38,19.48,24.51l-.33,7s-.32,3.09-.68,5.14c-.48,2.7-2.68,4.75-2.36,7.74.51,4.85,9.66,9.63,12.35,10.43a10.63,10.63,0,0,0,4.95-.24c13.12-3.66,14.34-22.07,14.34-22.07s-2.15-1.24-2.52-8.91-.13-25.49-.13-25.49,2.91-1,3.53-7-1.61-6.88-3.9-6.78-4.73,5.27-5.14,9.36c-3.68,2-2.42-2.54-2.65-7.85s-6.19-5.13-7.32-8.43a25.83,25.83,0,0,1-.95-8.61,35.07,35.07,0,0,1-24.23-.68Z" class="AV"/><g clip-path="url(#G)" class="AW"><path d="M194,79.69s14.25-1.86,17.82-12.34c0,0-4,19-15.78,22.87S194,79.69,194,79.69Z"/></g><path d="M197.37 38.28a8.5 8.5 0 0 0-8 0M181 39.53a7.22 7.22 0 0 0-5.74-1.29" class="AS AT AX Ab"/><circle cx="191.66" cy="45.13" r="1.14" class="AY"/><path d="M190.45,45.37a3.77,3.77,0,0,1,4.5.13" class="AS AT AU AX"/><circle cx="177.97" cy="45.13" r="1.14" class="AY"/><g class="AS AT AU AX"><path d="M176.5,45.33a3.77,3.77,0,0,1,4.49.21"/><path d="M185.31,42.84a21.07,21.07,0,0,1-1.38,7.5c-3.16,6.22-5.47,14.1,6.59,9.31" class="Ab"/></g><path d="M186.31 69.11c3.15.29 6.49-4.56 6.49-4.56a28.42 28.42 0 0 1-6.49 1.61 12.92 12.92 0 0 1-4.91-1.61s1.77 4.26 4.91 4.56z" class="AT AU AX AZ"/><g class="AS AU AX"><ellipse cx="175.69" cy="46.27" rx="6.84" ry="6.86"/><ellipse cx="192.8" cy="46.27" rx="6.84" ry="6.86"/><path d="M199.65 44l17.11-2.29m-34.22 2.68l4.56.33" class="AT Ab"/></g><path d="M194.59 89.68s-46.15 1.45-58.81 25.75l-25.71 76a3.54 3.54 0 0 1-2.66 2.4 3.49 3.49 0 0 1-3.48-1.44l-31.8-46.38-21.72 23.43s37.68 69.41 57.4 71.37S141 218.27 141 218.27l-3.21 53s59.55 29 108.91 0l2.64-73.45a89.39 89.39 0 0 1 5.35-27.39l11.07-50.61s-10.39-14.64-38.55-27.71l-13.53 17.93-20.6-3.04z" class="Ah"/><g clip-path="url(#H)"><path d="M49.34 171l24.75-27.4 6.51 6.61-29.11 30.64z" class="AZ"/><g fill="#4c7fff"><path d="M149.61 135.47s-12.78 88.1-50.48 100.58S132.51 253 132.51 253l8.49-29.86zm98.55 0s-14.08 23.41-12.3 64.57-102.44 15.44-100.29 72 112.59 48.58 112.59 48.58l8.26-33.62-6.62-87h0a62.6 62.6 0 0 1 6.72-28.19c6.32-12.55 14.8-30.5 14.61-36.24-.3-9.09-22.97-.1-22.97-.1z"/></g></g><path d="M194.89 88.92s-1.27 13 6.77 18a23.59 23.59 0 0 0 21.59-20.33 20.93 20.93 0 0 1 4.56 9.21c.5 4.48-5.83 22.86-13.18 31.45 0 0-4.84-13.34-13.94-17.71 0 0-12.29 0-14.6 14.17 0 0-3-13 0-20.26a89 89 0 0 1 8.8-14.53z" class="AZ"/><path d="M141 218.27l8.57-82.8m-99.16 33.97l21.72-23.39 32.82 48s8.92 10 4.21 21.58M105 194.06a16.27 16.27 0 0 1 15.28 6" class="AS AT AU Ac"/><path d="M94.84 151l-80.94 1.69a4.06 4.06 0 0 0-2.77 1.18h0a2 2 0 0 0-.46 2.14l24.84 64.93a6.7 6.7 0 0 0 6 4.3l77.64 2.6a2.65 2.65 0 0 0 2.61-3.47L99 154a4.25 4.25 0 0 0-4.16-3z" fill="#d5d5d5"/><path d="M92.8 153.08l-78.51 1.63a3 3 0 0 0-2.72 3.93l21.94 62.14a6.69 6.69 0 0 0 6.09 4.46l78.75 2.64a1.76 1.76 0 0 0 1.73-2.32L96.92 156a4.25 4.25 0 0 0-4.12-2.92z" fill="#e3e3e3"/><path d="M62.1 183.92a5.69 5.69 0 1 0 4.23 4.24 5.63 5.63 0 0 0-4.23-4.24z" class="AZ"/><path d="M266.25 140.08h0l-.46.55C252.41 156.8 223 188 223 188l-8.94-37.33 12.53-20.77 16-20 11.43-1 5-.46h.24a90.38 90.38 0 0 1 3.95 3 26.73 26.73 0 0 1 3.44 5.32c2.74 5.47 4.09 13.34-.4 23.32zm-129.83 49.99l15.05-3.67-4.47 16-10.58-12.33z" class="Ah"/><path d="M135.91,192.11s-24.54.59-28.92,5.35-5.53,7-3.06,8.68c0,0-5,4.11-1,7.5a3.84,3.84,0,0,0,4-.33s4.38,7.84,10.12,9.61a10.85,10.85,0,0,0,11.08-3.36,28,28,0,0,1,11.73-8.43c3.6-1.16,1.54-3,4.61-5.19Z" class="AV"/><g clip-path="url(#I)"><path d="M118.58 193l-15.68 14.09-11.9 2 21.25-20.35z" class="AW"/><g class="AS AT AU Ac"><path d="M107 213.31l3.42-2.95m-.07 8.96l3.42-2.95m1.7 6.4l3.42-3"/></g><path d="M136.29,191.47l-1.09,25.07,10-5.57Z" class="AW"/></g><g clip-path="url(#J)" class="AZ"><path d="M139.24,185l19.27,25.8-13.89,4.77L126.36,185Z"/></g><path d="M265.45 141s-35.51 42.91-52.18 53-37 13.45-37 13.45m-30.97 2.88l-13-19.26 38.4-9.36a45.39 45.39 0 0 0 11.48-4.44c3.42-1.93 7.13-4.62 9.26-8 4.76-7.55 43.26-53.68 43.26-53.68M207 183.51c-2.15-11-15.7-13.67-15.7-13.67l2.29-3.51s12.11.26 17.76 8.64" class="AS AT AU Ac"/><path d="M266.68 116.69l-6.78-4.22-5.81-3.61-26.84-16.7s18.55 6.84 31.56 15.13l1.24.8h0a27.69 27.69 0 0 1 3.16 3.25 26.73 26.73 0 0 1 3.47 5.35z" class="Ah"/><path d="M428.16 160.71l30.75-17.23s10.8 17.49 23.6 35.29c25.1 34.89 74.36 38.62 77.1 38.14 6.41-1.12 27.27 1.37 27.27 1.37a5.88 5.88 0 0 1-6 5.5c-5.66 0-12 .28-8.35 3.77s13.75 13.28 25.78 16.06c0 0 5.24 1.11 2.45 4.87l-6.82-.44a3.44 3.44 0 0 1-3.87 2.84 3.27 3.27 0 0 1-3.53 3 3.66 3.66 0 0 1-.81-.18 6.07 6.07 0 0 1-5.8 1.62c-3.91-.7-19.28-5.39-23.42-10.83s-9.32-5.48-13.91-6.79c-2.11-.6-56.82.84-89.72-40.9a279.62 279.62 0 0 1-24.72-36.09z" class="AV"/><g clip-path="url(#K)"><g class="AW"><path d="M434.91 152.91s27.55 64.79 112.92 83.21a8.64 8.64 0 0 1 5 4.86c3 8.69 2.74 12.76.57 16.43-3.67 6.23-125.29-47.57-125.29-47.57l-9.42-52.25zm143.87 80.26s-8.17-3.54-9-7.2 12.57-1.8 12.57-1.8z"/></g><g stroke="#99776c" stroke-width="1.05" class="AS AT"><path d="M593.93 248s-12.85-3.11-19.91-8.63m16.03 11.51s-13.09-1.73-17.6-6.29m13.27 9.07s-9.34-1.16-14.8-4.77"/></g></g><path d="M432.82,543.33H399.25V601.9h30.32s17.55-2.79,17.66-4.7l-21.58-7.9a5.42,5.42,0,0,1-3.37-6.49Z" class="AV"/><g clip-path="url(#L)" class="AW"><path d="M431.26,559.68l-34,12.94V552.14Z"/></g><path d="M398.31 591a95 95 0 0 0 12 5c9.65 2.53 16.39 2.19 20.14 1.14 7.89-2.22 5.33-5.64 10.74-3.63 16.8 6.26 23.31 7.8 21.8 15.26l-62.33-1a3.26 3.26 0 0 1-3.2-3.31v-.16z" class="AY"/><path d="M316.57 549l-14.38-14.3-15.56 39.15a27.17 27.17 0 0 1-7.55 10.57l-15.31 13.12s10.22 4.53 18.52 2.37 25.37-15.1 25.37-15.1z" class="AV"/><g clip-path="url(#M)" class="AW"><path d="M318.64,559.68l-34,12.94V552.14Z"/></g><path d="M311.53 572.62s-14.18 14.79-20.77 18.09c-.26.13-6.62 3.65-10.72 3.49a11.48 11.48 0 0 1-7.28-4c-9.12 4.74-17.29 3.58-19.72 18.56h21.2a27.1 27.1 0 0 0 19.31-8.08l3.81-3.85S308 597.14 308 593a194.89 194.89 0 0 1 3.53-20.38z" class="AY"/><path d="M457.18,250.37s11.33,23.95,5.67,83.42-27.32,226.56-27.32,226.56H395.46s3-181.24.18-229.85c0,0-17,104.06-73.44,230.22l-41.64.17,68.69-287.38,74.36-41.71Z" class="Af"/><g clip-path="url(#N)"><g class="Ag"><path d="M413.08 255.32S442 261.38 442 301.46s-18.71 266.87-18.71 266.87l34.07-6L489.05 260l-49.63-21.68zm-17.97 73.41a288.24 288.24 0 0 1-2.52 44.72c-3.33 24.88-69.14 199.17-69.14 199.17l-21.83-4.29z"/></g><path d="M392.79,286.31s-5.18,27.59-4.06,35a8.24,8.24,0,0,0,7.94,7.41" stroke="#7d4545" class="AS AT"/></g><path d="M475.11 163l-34.73 18.24s-5.47 19.37-2.39 32.42S465.5 242 460.54 258c0 0-29.93-10.19-51.51 0s-44.63 31.78-65.42 26.89c0 0 8.83-83 1.62-106.65l-32.53-6.7S326 132 356.45 122.77a124.4 124.4 0 0 1 38.7-5c62.04-1.11 79.96 45.23 79.96 45.23z" fill="#ffe39b"/><g clip-path="url(#O)"><path d="M440.38,181.25s-6.94,31.08-26,33.69-25.59-8.5-25.59-8.5-9.15,15.38-23.44,13.72c0,0,1.64,20.45,15,13s27-3.07,22.5,4.47-6.13,23.62-38.81,34.13-47.13-7.15-47.13-7.15l22.89,30.82,128.13-23.68,5.75-39.92Z" fill="#ffbb20"/><g class="AS AT AU Ac"><path d="M346.54 164.51l-3.6 16.4m97.44.34l-1-10.93"/></g></g><path d="M312.7,171.49s-25.19,63.4-25.39,84.17c0,2.84,10.17,1.78,10.45,4.35l36-8.08,12.82-77.79Z" class="AV"/><g clip-path="url(#P)" class="AW"><path d="M324.53,172.71s1.61,32.1-6.22,47.31c-2.44,4.73-11.79,6.23-16.68,9a35.46,35.46,0,0,0-14.31,16l45.91-16Z"/></g><path d="M324.53 172.4h53.06v92.19h-53.06z" fill="#230d99"/><path d="M327.19 176.74h47.65v83.51h-47.65z" stroke="#fff" class="AS AT AU"/><path d="M287.61 260.36c14.19 15.6 58.85-6.44 76.12-20.63 0 0 22.1-7.8 23.07-12.55s-1.43-5.31-1.43-5.31 2.06-3.83.67-6c0 0 1.48-5.22-.18-6.34 0 0 1.35-6.44-8.27-7.15 0 0 1.09 4-1 5.39s-11.78 3.06-11.78.77 6.12-8 3.45-11.8-4.32 5.14-9.2 8.47-9.06 8.1-9.06 18.1c0 0-.05 5.7-24.14 7-12.75.67-26 1-32.79 6.87-6.02 5.14-12.15 15.82-5.46 23.18z" class="AV"/><g clip-path="url(#Q)" class="AW"><path d="M363.73,239.73S303.79,269.06,284,255s6,21.72,6,21.72L369.92,255Z"/></g><path d="M349.83 224.33s-7.86 6.1-23.08 6.1-33.24 2.19-40 14.52m99.11-35.44s-.73 2.32-5.06 3m5.2 3.34a9.78 9.78 0 0 1-5.24 2.65m4.61 3.37a10.74 10.74 0 0 1-5.46 2.68" stroke="#99776c" class="AS AT AU"/><path d="M426.34 65.43s16.13 39.41-7.87 42.92c0 0-12.66 6.23-11.46 7.16a144.85 144.85 0 0 0 14.54 4.55s-7.38 17.64-27.23 16.55-24.15-17.35-24.15-17.35l6.28-.83c5.31-.61 8.83-1.12 8.83-2.92a51.61 51.61 0 0 0-2.12-19.37 134.71 134.71 0 0 0-8.74-16.44s10.26-12.6 18.39-20.7 23.13-2.68 23.13-2.68a37.93 37.93 0 0 1 8.17 3.86 9.14 9.14 0 0 1 2.23 5.25z" class="AV"/><g clip-path="url(#R)" class="AW"><path d="M404.86 108a24.51 24.51 0 0 1-10.48-6.58s2.74 14.62 12.29 14-1.81-7.42-1.81-7.42z"/></g><path d="M403.58 77a8.08 8.08 0 0 1 7.83 0m7.88-.28a6.75 6.75 0 0 1 5.41.89" class="AS AT AU AX Ab"/><path d="M421.14 61.41S410.08 80.93 387 79.11c0 0-4.84-2.7-5.87.87s.95 5.17 4.64 6.58l-.47 28.94s-3.4 0-9-.12a35.92 35.92 0 0 1-9.39-1.34l1.45-7.17-5.78 5.35s-17.19-8.16-19.61-10.35c0 0 14.08-10.74 19.61-24.23s13.19-37.53 33.64-39.5 33.06 8.92 35.78 25.77 5.4 49.6 13.84 51l-21.95.48c-1.71.1-3.06-6.28-3.06-6.28l-3.09 6.6-10.87-.23-2-7.56s22 .47 21.21-36.37a17.9 17.9 0 0 1-4.07-5 12.14 12.14 0 0 1-.87-5.14z" class="AY"/><path d="M416.55,80a5.34,5.34,0,0,0,.71,5.38c2,2.68,2,6-3.56,4.83" class="AS AT AU Ab Ae"/><circle cx="409" cy="81.3" r="1.08" class="AY"/><path d="M410.57,81a3.51,3.51,0,0,0-4.19.12" class="AS AT AU AX"/><path d="M414.23 79.26a7.93 7.93 0 0 1-5.78 6.81 7.94 7.94 0 0 1-5.77-6.81h11.55m1.26-1.26h-14.07v.35a9.19 9.19 0 0 0 7 8.94 9.19 9.19 0 0 0 7-8.94zm14.98 1.26a5.85 5.85 0 1 1-11.55 0h11.55m1.27-1.26h-14.08v.35a9.19 9.19 0 0 0 7 8.94 9.19 9.19 0 0 0 7-8.94z" class="AZ"/><circle cx="421.99" cy="81.3" r="1.08" class="AY"/><g class="AS AT AU"><path d="M423.56,81a3.5,3.5,0,0,0-4.18.19" class="AX"/><g stroke="#fff"><path d="M401.68,78.57,386.73,78" class="Ab"/><path d="M415.25,79.75h2.88"/></g></g><path d="M414.41 99.69c-2.89.25-6-3.77-6-3.77a28.38 28.38 0 0 0 6 1.33 12.75 12.75 0 0 0 4.52-1.33s-1.62 3.53-4.52 3.77z" class="AT AU AZ Ae"/><path d="M607.22,586.29s-27.65,16.84-18.14,21.22,51.58-3.53,52.52-6.88-.38-25.17-.38-25.17l-32.09-2.33Z" class="Aa"/><g clip-path="url(#S)"><path d="M631.65 598.47c2.51-3.87 5.32-7.82 9.44-9.91a2.26 2.26 0 0 1 2.39-.13 2.06 2.06 0 0 1 .61 1.13 14.28 14.28 0 0 1-.51 7.29 23.15 23.15 0 0 1-2.9 6.91 11.13 11.13 0 0 1-5.78 4.59c-1.81.56-6.47.65-7.21-1.74-.69-2.12 2.87-6.45 3.96-8.14z" class="Ad"/><g class="Aa"><path d="M602.27 605.76c.94 2.08 1.64 4.59.47 6.55s-4.07 2.57-6.49 2.34a15.14 15.14 0 0 1-9-3.94 11.54 11.54 0 0 1-3.65-9 15.07 15.07 0 0 1 .82-3.68 11.39 11.39 0 0 1 2.43-4.45c1.06-1.08 3.07-2.21 4.57-1.5s3 2.58 4.11 3.72a35.08 35.08 0 0 1 6.74 9.96z"/><path d="M608.14 606.83a68.23 68.23 0 0 0 17.28-4.72c2.88-1.15 6.06-3 5.84-6.16-.17-2.45-2.37-4.64-4.59-6.23a31.7 31.7 0 0 0-12.22-5.33 38.64 38.64 0 0 1-5.35-1.14 7.63 7.63 0 0 1-4.34-3.37 4.94 4.94 0 0 1 .39-5.06 10.4 10.4 0 0 1 4-3.1 30.84 30.84 0 0 1 23.55-2.23c8.21 2.7 15.73 10.18 16.55 18.17a19.08 19.08 0 0 1-3 11.73 33.66 33.66 0 0 1-23.62 15.5 45 45 0 0 1-21.69-2.1c-3.37-1.16-11-2.9-13.88-5.14-4.42-3.39 4.56-.85 6.31-.5 4.53.91 10.39.2 14.77-.32z"/></g></g><path d="M527,585.65s-29.05,14.27-20,19.49,51.7,1.15,52.93-2.1,1.9-25.1,1.9-25.1l-31.75-5.23Z" class="Aa"/><g clip-path="url(#T)"><path d="M550.2 600c2.85-3.63 6-7.31 10.3-9 .79-.31 1.79-.52 2.39.08a2.09 2.09 0 0 1 .5 1.18 14.35 14.35 0 0 1-1.16 7.22 23.4 23.4 0 0 1-3.52 6.62 11.12 11.12 0 0 1-6.17 4c-1.85.39-6.5.06-7-2.38-.48-2.15 3.46-6.15 4.66-7.72z" class="Ad"/><g class="Aa"><path d="M520.28 604.59c.74 2.16 1.22 4.73-.13 6.57s-4.28 2.18-6.67 1.74a15.14 15.14 0 0 1-8.62-4.74 11.53 11.53 0 0 1-2.82-9.28 15.89 15.89 0 0 1 1.15-3.6 11.47 11.47 0 0 1 2.83-4.21c1.15-1 3.25-1.92 4.68-1.08s2.76 2.84 3.76 4.08a35.09 35.09 0 0 1 5.82 10.52z"/><path d="M526 606.19a67.84 67.84 0 0 0 17.63-3.14c3-.88 6.31-2.41 6.38-5.6.05-2.46-1.94-4.84-4-6.62a31.6 31.6 0 0 0-11.68-6.42 37.6 37.6 0 0 1-5.23-1.62 7.61 7.61 0 0 1-4-3.75 4.94 4.94 0 0 1 .84-5 10.41 10.41 0 0 1 4.28-2.72 30.83 30.83 0 0 1 23.65-.1c7.94 3.43 14.75 11.57 14.85 19.6a19 19 0 0 1-4.11 11.4 33.63 33.63 0 0 1-24.92 13.3 45 45 0 0 1-21.41-4c-3.25-1.46-10.65-3.88-13.36-6.38-4.09-3.77 4.62-.43 6.33.08 4.47 1.27 10.37 1.09 14.75.97z"/></g></g><path d="M553.93 367.82L528.07 581.4l33.64 2.84s8.91-45.16 16.36-76.23 14.1-74.36 14.1-74.36 4.32 26.22 7 61.86l7.83 88.72h35.22l-1.65-154.42s7.43-43.81-4.23-66.63-82.41 4.64-82.41 4.64z" class="Af"/><g clip-path="url(#U)"><path d="M588.79,403s-2.84,18.49,3.38,30.62l-5.24,42.48s-5.82-17.33-5.48-32.37S588.79,403,588.79,403Z" class="Ag"/><g stroke-width=".41" class="AS AT Ac"><path d="M588.7 400.88s-4.71 31.78 3.81 31.78c0 0 2.32 8.55 8 8.85m-8.34-8.86s-8.33 50-16.16 82.94-12.43 61.31-12.43 61.31l-33.3-2.34m79.1 2.34h32.56"/></g></g><path d="M546.86,294.31s-28.85,32.63-33.1,34-49,9-49,9l-2.39,14.33s54.28,5.31,60.49,1.6,42.93-34.73,42.93-34.73Z" class="AW"/><path d="M526.83 311.06s23.93-37.64 34.42-40.37 30.44 5.32 19.26 26.21a181.48 181.48 0 0 1-25.44 35.82s-21.49-2.63-28.24-21.66z" class="Ai"/><path class="AE Ad" d="M565.25 270.19a96.37 96.37 0 0 0-7.61 12.13c-2.82 5.21-5.33 10.58-7.75 16a180.35 180.35 0 0 0-6.64 16.77 110 110 0 0 0-3.28 12 41.32 41.32 0 0 0 15.1 5.64 181.48 181.48 0 0 0 25.44-35.82c9.87-18.45-4.51-26.91-15.26-26.72z" opacity=".38"/><path d="M643.7 335.76c-3-43.81-5-54.71-10.1-61.12s-23.82-9.14-37-9.66-32.45 3.22-37.93 7-8.79 19.73-7.94 39.6c.74 17.2 4.36 35.48 4.21 43.45-.27 14.78-3.17 20.48-5.28 31.48 16.49 11.47 80.32 17.63 94 14.88 1.34-14.98 1.48-44.39.04-65.63z" class="AZ"/><g clip-path="url(#V)"><path d="M573.62 275.16a6.56 6.56 0 0 0 1.76 5.61 11 11 0 0 0 5.34 2.77c3.76 1 12.25-.08 16.07-4.36 6.35 15.09 13.69 31.16 28.53 39.26a38.07 38.07 0 0 0 13.13 4.75c4.64.61 9.54-.19 13.13-2.95 4.24-3.24 6.16-8.81 6.16-14.27s-1.7-10.83-3.64-16c-3.32-8.86-7.57-17.63-14.48-24.06-10.42-9.67-25.17-12.51-38.79-13-11.46-.38-22.89.63-33.37 4.33s-19.82 10.09-26 19.2c-8 11.79-10 28-5.1 42a4.82 4.82 0 0 0 2.7-.16c7.33-4.61 11-13.46 15.61-21.14a86.12 86.12 0 0 1 18.95-21.98z" class="Ai"/><g class="Ad"><path class="AG" d="M619.09 373.82c-1.92 6-4.1 12.12-8.6 16.49-7.52 7.31-19.44 7.72-28.19 13.51 2.27 6.38 9.81 8.88 16.41 10.38 13 2.95 26.91 5.23 39.51.8 4.26-1.49 8.4-3.87 10.86-7.65 1.94-3 2.68-6.57 3.23-10.08 2.78-17.62 2-35.58 1-53.39q-1.59-28-3.94-56.06c-.46-5.31-1-10.88-4-15.31a15.93 15.93 0 0 0-7.54-6c-4.72-1.73-3.87 1.76-3.6 5.4a198.8 198.8 0 0 1 .25 25.13 266.35 266.35 0 0 1-7.52 49.19c-2.29 9.32-4.96 18.5-7.87 27.59z" opacity=".24"/><path class="AG" d="M586.18 398.27c-6.95-2.52-13.63-4.82-20.12-8.27-3-1.62-6.17-3.51-7.6-6.38a47.55 47.55 0 0 1 10.92.34L587 385.9c-6.19-2.09-12-5.51-17.59-8.7-2.83-1.61-10.73-4.88-8.45-9.4.77-1.55 2.53-2.24 3.88-3.17 1.73-1.19 2-2.86.94-4.7-1.34-2.4-3.94-3.94-6.18-5.39a43.49 43.49 0 0 1-10.25-9.21c-.46 3.62.35 7.4.18 11.09s-1.32 7.29-2.16 10.92a63.87 63.87 0 0 0-.82 24.86 9.49 9.49 0 0 0 1.51 4.3 11.18 11.18 0 0 0 4.65 3.12c9.13 3.91 19.47 5 29.62 5.87 6.11.51 10.67-4.76 3.85-7.22z" opacity=".24"/></g></g><path d="M481.5 332.06c1.69-4.2 5.14-7.85 9.17-10.62a15.11 15.11 0 0 1 4-2.07c2.92-.88 6.34-.46 9.11.18a76.3 76.3 0 0 1 10.1 3.53q4.62 1.76 9.23 3.56a11.53 11.53 0 0 0 2.34.93l52.48 6.09c7.21-7.63 18.14-28 18.14-28s19.5 2.38 25.36 13.63c.07-.31-23.69 33.65-27.22 35.51s-19.56-.8-38.93-5.82c-14.66-3.8-27.34-7.75-32.64-9.44a14.57 14.57 0 0 1-2.6.42c-10.25.71-8.69-5.11-9.19-5.46l.26-.34c-2 .7-4 1.36-6 1.95-.82.24-1.9.38-2.25-.27s.13-1.13.52-1.62a41.73 41.73 0 0 1 4.36-4.67l-9.94 6.61c-.66.43-1.56.89-2.16.49s-.34-1.27 0-1.93a24.31 24.31 0 0 1 7.21-8.28l-6.69 5.05c-1.54 1.15-3.07 2.31-4.7 3.34-1.47.93-3.31 1.79-4.86 1.25-.2-.07-.41-.17-.47-.36a.81.81 0 0 1 .13-.55c1.92-3.71 5.31-6.72 8.62-9.63l-8.86 6.8c-1.14.88-2.56 1.82-3.91 1.49a1.16 1.16 0 0 1-.72-.43 1.48 1.48 0 0 1 .11-1.34z" class="AV"/><path d="M589.88 332.85a26.22 26.22 0 0 1-4.89-8.54c5.7-8.62 11.09-18.64 11.09-18.64s19.5 2.38 25.36 13.63c0-.2-9.91 14-17.89 24.51-5.55-1.89-10.49-7.27-13.67-10.96z" class="AW"/><path class="AH" d="M510.71 332.6c2.4.29 4.49 1.29 6.79 1.84s4.55.73 6.81 1.13c6.09 1.08 11.86 3.21 17.6 5.09a323.71 323.71 0 0 0 33.19 9c6.86 1.47 14.11 3.43 21.38 3a11.8 11.8 0 0 1-2.26 2.15c-3.54 1.86-19.56-.8-38.93-5.82-14.66-3.8-27.34-7.75-32.64-9.44a14.57 14.57 0 0 1-2.6.42c-10.25.71-8.69-5.11-9.19-5.46l.26-.34c-2 .7-4 1.36-6 1.95a3.69 3.69 0 0 1-1.63.16 77.4 77.4 0 0 1 7.22-3.68z" fill="#ffc9af" opacity=".3"/><path d="M582.32 321.32c1.82-2.53 16.4-25.33 21.41-33.82 2.63-4.48 5.59-9 10-12.36 3.11-2.4 11.89-7.8 18.22-.46.34.38.65.79 1 1.2s.63.95.91 1.44c4.19 7.28 3 17.25.47 25.66a40.83 40.83 0 0 1-1.77 4.85 157.42 157.42 0 0 1-19 32.18c-9.8-.72-26.39-9.48-31.24-18.69z" class="Ai"/><path class="AE Ad" d="M633.11 303.54q-2.8 3.73-5.82 7.33c-3.39 4-7.07 7.79-10.79 11.51s-7.39 7.19-11.31 10.54c-1.37 1.18-2.78 2.32-4.21 3.44a39.27 39.27 0 0 0 12.49 3.64 157.42 157.42 0 0 0 19-32.18 40.83 40.83 0 0 0 1.77-4.85q.26-.84.48-1.71l-1.61 2.28z" opacity=".38"/><path d="M576.53,256.27,596,253.46l2.12,16a4.2,4.2,0,0,1-.94,3.23,16.66,16.66,0,0,1-11,6c-6,.7-6.72-2-6.64-3.74a20.45,20.45,0,0,0-.41-4.73Z" class="AV"/><g clip-path="url(#W)" class="AW"><path d="M573 267.26c10.4 13.18 21.72-12.14 22.46-15.46.22-1-2.1-.77-3.34-.56-8.77 1.49-21 5.48-22.38 8.75s1.9 5.49 3.26 7.27z"/></g><path d="M547.59 202.83a9.69 9.69 0 0 0-1.19 3.46 29.42 29.42 0 0 0-.18 9.27 9.7 9.7 0 0 0 1.22 3.86 10.4 10.4 0 0 0 4.52 3.51 4.56 4.56 0 0 0 3.5.54 3.39 3.39 0 0 0 1.66-1.64c1.31-2.41.93-5.31.5-8a30 30 0 0 0-1.93-7.59 11.66 11.66 0 0 0-3.61-4.66c-1.78-1.31-3.36-.58-4.49 1.25z" class="AY"/><path d="M553 226.29a73.63 73.63 0 0 0 1.08 13.8.31.31 0 0 1 0 .1l.17.91c0 .11 0 .21.07.31l.36 1.63c.9 3.67 2.65 9.59 4.77 13.35.22.39.44.76.66 1.09h0c.09.14.19.27.28.4a9.28 9.28 0 0 0 .67.85c4.48 4.91 14.4 4.16 16.56 3.69a41.74 41.74 0 0 0 20.23-10.95 34.43 34.43 0 0 0 6.13-8.16 30.78 30.78 0 0 0 1.72-3.84 30.31 30.31 0 0 0 1.76-8c0-.34.06-.69.07-1h0v-.78h0v-.57-.44c0-1-.06-2-.17-3 0-.37-.07-.75-.12-1.13a39.58 39.58 0 0 0-2.9-10.37 26.02 26.02 0 0 0-.74-1.6 34 34 0 0 0-9.69-12h0a29.65 29.65 0 0 0-5.74-3.51 25.29 25.29 0 0 0-1.72-.73 28.18 28.18 0 0 0-3.76-1.2 24.58 24.58 0 0 0-6.17-.71c-8.54.1-16 5-20.11 13.9a35.36 35.36 0 0 0-2.62 8.31 47.08 47.08 0 0 0-.79 7.19v2.46z" class="AV"/><g opacity=".21" class="AW"><path d="M554.64 243c.9 3.67 2.65 9.59 4.77 13.35a4.32 4.32 0 0 0 .57-3.09 16.34 16.34 0 0 0-5.28-10.21.15.15 0 0 0-.06-.05zm37.77 8.2c.22-.16.42-.33.62-.5 3.26-2.82 7-8.62 3.64-13a6.26 6.26 0 0 0-7.11-1.81 10.56 10.56 0 0 0-5.39 5.44 11.36 11.36 0 0 0-1.31 5.81 6.76 6.76 0 0 0 2.8 5.14c2.2 1.44 4.83.37 6.75-1.08z"/></g><g class="AY"><path d="M614.86 219.57a58.7 58.7 0 0 1-1.32 6.1c-.21.75-1.09 5.46-1.75 5.68a2.17 2.17 0 0 1-.86.13 2.66 2.66 0 0 1-1.65-.84c-.91-.88-1.77-2-3.26-1.8-2.14.28-3.74 5.12-5.92 5.19-2.65.09-3.7-2.45-4.47-4.95a72.6 72.6 0 0 1 .61-9.48 4.1 4.1 0 0 0 .06-.49 5.11 5.11 0 0 0-.38-.59c-1.64-2.29-4.39-1.42-6.82-2.64a18.57 18.57 0 0 1-4.22-2.39 13.92 13.92 0 0 1-3.74-4.75 35.8 35.8 0 0 1-1.82-4.84c-3.2 3.77-7.42 6.31-12 8.42a57.82 57.82 0 0 1-10.18 3.75c-2.69.66-6.88 1.36-9.19-.58-2.12-1.78-2-7-1.5-9.51.78-3.76 3.39-6.29 6.32-8.69a49.64 49.64 0 0 1 28.62-11.44 38.75 38.75 0 0 1 6.89.26 35.32 35.32 0 0 1 8.79 2.21 27.66 27.66 0 0 1 2.84 1.27c.73.38 1.45.77 2.16 1.21a29.6 29.6 0 0 1 6.57 5.39 24.48 24.48 0 0 1 6 10.82v.16a32.54 32.54 0 0 1 .22 12.4z"/><path d="M608.6 196.19c-1.76.66-4.59-1.23-6.06-1.5-4.1-.74.33 5.11-.09 6.58s-2.56 1.68-4 1.52c-2.37-.24-3.57-1.83-5.58-2.73a2.36 2.36 0 0 0-3.4 1.65c-.3 1.13 1.13 4 .29 4.84-1.26 1.15-4.62-.72-5.52-1.52-1.68-1.51-3-4.39-2-6.59.25-.69 2.12-.89 2.88-1.32 1.57-.8 3-1.83 4.55-2.65 2.19-1.16 4.29-2.74 6.64-3.67a32.7 32.7 0 0 1 3.59-1.21l2.16 1.21a29.6 29.6 0 0 1 6.54 5.39zm-11.6-7.87a37.1 37.1 0 0 1-3.46 1.54 55.39 55.39 0 0 0-7.52 3.4 36.6 36.6 0 0 0-6.09 3.85c-1.09.91-2.41 3.08-3.33 3.08-2.17 3.19-6.72 3-9.87 1.63-1.85-.83-2.33-2.17-.23-3.25 2.29-1.17 5.12-1.13 7.51-2.22 1.87-.86 3.57-2.36 2.84-4.49-.46-1.32-2-3.32.33-3.81 1.75-.37 3.8 1.34 5.53 1.65a2.82 2.82 0 0 0 3.34-1.32 6.75 6.75 0 0 1 2.16-2.27 35.32 35.32 0 0 1 8.79 2.21zm-38.87 46.38a1.43 1.43 0 0 1 1.5-1.66 2.06 2.06 0 0 1 1.83 1.85 1.43 1.43 0 0 1-1.5 1.66 2 2 0 0 1-1.83-1.85zm18.11-2.89a1.5 1.5 0 0 1 1.57-1.67 2 2 0 0 1 1.8 1.83 1.5 1.5 0 0 1-1.57 1.66 2 2 0 0 1-1.8-1.82z"/></g><path d="M565.77 250.74a21.09 21.09 0 0 0 7.3-1.83 25.11 25.11 0 0 0 6-4.18.19.19 0 0 1 .3.23c-2.5 6.88-8.34 8.36-13.65 6.27-.26-.12-.28-.47.05-.49z" class="AT AZ Ae Aj"/><path d="M602.36 231.57c1.13-2.9 3.49-5.23 6.87-4.19a3.77 3.77 0 0 1 2.3 2.33 6.66 6.66 0 0 1 .2 3.29 10 10 0 0 1-4.33 7 3.69 3.69 0 0 1-3.12.64 4.45 4.45 0 0 1-2.48-3.33 10.17 10.17 0 0 1 .56-5.74z" class="AV"/><path class="AH" d="M606.14 228.89c-.83.83-1.28 2-2.07 2.78-.56.57-.91 1.41-1.86.45h0l.18-.51c1.06-2.72 3.2-4.94 6.24-4.34a7 7 0 0 0-2.49 1.62z" fill="#ffc9af" opacity=".3"/><g class="AS"><g class="AT Ab"><path d="M568.89,231a22.51,22.51,0,0,1-1.21,6.7c-1.16,2.89-2.19,4.75,2.52,4.49" class="Ae Aj"/><path d="M582.25 223s-5.18-3.35-10-.33m-11.19 2.02s-5-1.2-7.08 2.57" stroke-width=".71" class="AX"/></g><g class="Aj AX"><ellipse cx="558.85" cy="235.58" rx="6.87" ry="6.88" transform="matrix(.984929 -.172961 .172961 .984929 -32.32 100.21)"/><ellipse cx="577.3" cy="232.75" rx="6.87" ry="6.88" transform="matrix(.984929 -.172961 .172961 .984929 -31.56 103.36)"/><path d="M583.15 229.13l22.61-7.13M565 232.55l5.41-.69" class="AT Ab"/></g></g><path d="M462.93 328.66s.43-8.3 9-10 23.63 5.58 23.63 5.58l42.2 29.41-1.26 3.63-42.81-6-3.93 1.51L459.7 333l-28.38-20.52 3.14-2.47s8 5.48 13.21 7.84 12.89 6.53 15.26 10.81z" fill="#f5f5f5"/><path d="M538.45,358.47l-35.71-22.18L465,330.23a5.22,5.22,0,0,1-5.1,2.07h0l-31-21.49-.58,1.3,60.19,42.28a5.18,5.18,0,0,0,5.25-1Z" fill="#8098af"/><path d="M465 330.23a2.37 2.37 0 0 0 .29.23l.87.63 3.19 2.34a320.2 320.2 0 0 1 10.25 8.05l10 8.38 3 2.59.82.69a1.44 1.44 0 0 0 .3.23 2.3 2.3 0 0 0-.26-.28l-.78-.74-2.92-2.66c-2.49-2.23-6-5.24-9.94-8.47s-7.61-6-10.33-8a65.09 65.09 0 0 0-3.25-2.25l-.91-.58a1.42 1.42 0 0 0-.33-.16z" fill="#1a2e35"/><path d="M465.38 325.61c3.42-3.67 8.81-5 13.81-4.59s9.76 2.26 14.43 4.11L537.3 355l-.39 1.13L493 326.42s-9.8-3.17-14.15-3.7a23.21 23.21 0 0 0-13.47 2.89zm-6.85 3.93l-21-14.16s17.21 8.94 21 14.16z" fill="#e1e1e1"/><g fill="#1a2e35"><path d="M537.3 355l-.18-.14-.54-.39-2.09-1.47-7.74-5.36-25.61-17.58-7.43-5.06h0a52.72 52.72 0 0 0-13.28-4 19.91 19.91 0 0 0-10.89 1.53 13.63 13.63 0 0 0-3.49 2.35 10.2 10.2 0 0 0-1.94 2.47 8.27 8.27 0 0 0-.76 1.82l-.11.5c-.03.13 0 .17 0 .17a9.57 9.57 0 0 1 1-2.44 10.14 10.14 0 0 1 2-2.4 13.57 13.57 0 0 1 3.46-2.28 19.79 19.79 0 0 1 10.76-1.44 52.94 52.94 0 0 1 13.2 4h0l7.43 5.09 25.66 17.5 7.79 5.28 2.13 1.42.56.36z"/><path d="M499.06 332.42a1.22 1.22 0 0 0-.33-.2l-1-.52-3.66-1.77a48 48 0 0 0-12.79-3.93 28 28 0 0 0-13.28 1.22 20.16 20.16 0 0 0-3.67 1.76c-.42.24-.71.48-.93.62a2.15 2.15 0 0 0-.3.23l1.29-.73a22.54 22.54 0 0 1 3.69-1.66 28.64 28.64 0 0 1 13.17-1.11 50.86 50.86 0 0 1 12.75 3.81l3.7 1.68 1 .46zm-66.61-20.79s.09.08.27.21l.82.54 3 1.95 10 6.47 9.88 6.6 3 2 .82.54a1.26 1.26 0 0 0 .3.17s-.08-.09-.26-.22l-.79-.59-2.93-2.1c-2.49-1.75-5.95-4.13-9.83-6.69s-7.44-4.79-10-6.38l-3.08-1.87c-.35-.19-.63-.36-.85-.49a1.88 1.88 0 0 0-.35-.14z"/></g><g class="AV"><path d="M451.55 334.37a15 15 0 0 0 1.63 2.92c.81 1 3.45 2.3 3.66 4.13s-.22 6.11 2.64 9.37a16.07 16.07 0 0 0 6.77 4.4l11.27-1.1 18-7.09a1.57 1.57 0 0 0 1.15-1.89 2.26 2.26 0 0 0-1.87-1.69l-.43-.07s1-.85-.45-2.33c-1.28-1.29-4-.56-5.35-.09s-9.55 3.87-11 4.39l-2.29.87s10.44-7 10.58-8a2 2 0 0 0-1-2.39c-1.25-.91-3.33.07-5.34.91-1.5.63-11.06 5.35-11.06 5.35s-.42-.41 0-1.27 3.61-4.93 4.1-5.68.63-1.18.14-1.82c-.7-.91-2.55-1.34-4.22.2-1.07 1-4.87 3.55-4.87 3.55L446 324.28s-2.19 0-1.43 3 6.98 7.09 6.98 7.09z"/><path d="M464.62 345a3.48 3.48 0 0 0 1.9-.95 3.38 3.38 0 0 0 1.25-1.7c-.08-.05-.59.73-1.46 1.45s-1.72 1.14-1.69 1.2zm-1.43-7.6s-.23-.11-.61-.06a2.69 2.69 0 0 0-1.35.6 2.64 2.64 0 0 0-.85 1.22c-.12.36-.1.6-.06.61a4.94 4.94 0 0 1 1.11-1.57 5 5 0 0 1 1.76-.8zm-.83 3.52c.1 0 .14-.94.51-2s.9-1.86.82-1.92a3.61 3.61 0 0 0-1.13 1.82 3.47 3.47 0 0 0-.2 2.1zM452 333.46s.23-.1.45-.4a2.89 2.89 0 0 0 .53-1.37 2.94 2.94 0 0 0-.21-1.44c-.15-.35-.32-.52-.35-.49a6.39 6.39 0 0 1 .23 1.9 6.11 6.11 0 0 1-.65 1.8zm15.84 15.98a2.71 2.71 0 0 0 1.23 0 8.34 8.34 0 0 0 2.78-1 15.51 15.51 0 0 0 2.39-1.74 4.5 4.5 0 0 0 .87-.86 4.45 4.45 0 0 0-1 .68 25.93 25.93 0 0 1-2.41 1.63 10.21 10.21 0 0 1-2.67 1.1l-1.19.19zm-2.94-1.8c-.09 0-.09.63.44 1.15s1.17.5 1.16.41-.5-.21-.93-.65-.57-.93-.67-.91zm-4.3-3.17s0 .18.08.4a1.63 1.63 0 0 0 1.67.8c.25-.06.37-.15.36-.19s-.59 0-1.18-.25-.85-.79-.93-.76zm15.18 7.18c0 .08 4.23-1.67 9.36-3.91s9.26-4.12 9.23-4.21-4.23 1.67-9.36 3.91-9.27 4.13-9.23 4.21z"/></g></g></svg>