<svg xmlns="http://www.w3.org/2000/svg" xmlns:xlink="http://www.w3.org/1999/xlink" viewBox="0 0 657.74 636.97"><defs><style>.cls-1,.cls-15,.cls-17,.cls-20,.cls-21,.cls-22,.cls-23,.cls-24,.cls-34,.cls-38,.cls-44,.cls-46,.cls-48,.cls-49,.cls-55,.cls-64,.cls-65,.cls-66{fill:none;}.cls-2{fill:#2a3756;}.cls-25,.cls-3,.cls-50,.cls-63{fill:#fff;}.cls-4{fill:#ffd3c8;}.cls-5{isolation:isolate;}.cls-6{clip-path:url(#clip-path);}.cls-7{fill:#061537;}.cls-8{clip-path:url(#clip-path-2);}.cls-9{fill:#f1b2a2;}.cls-10{clip-path:url(#clip-path-3);}.cls-11{clip-path:url(#clip-path-4);}.cls-12{fill:#955454;}.cls-13{clip-path:url(#clip-path-5);}.cls-14{fill:#7d4545;}.cls-15,.cls-17,.cls-55{stroke:#301913;}.cls-15,.cls-20,.cls-24,.cls-25,.cls-34,.cls-38,.cls-44,.cls-46,.cls-48,.cls-49,.cls-50,.cls-55,.cls-66{stroke-miterlimit:10;}.cls-15,.cls-24,.cls-25,.cls-44,.cls-46,.cls-48,.cls-49,.cls-50{stroke-width:0.5px;}.cls-16{clip-path:url(#clip-path-6);}.cls-17{stroke-miterlimit:10;stroke-width:0.5px;}.cls-18{fill:#4c2603;}.cls-19{clip-path:url(#clip-path-7);}.cls-20,.cls-21,.cls-22,.cls-23,.cls-24,.cls-25,.cls-65,.cls-66{stroke:#061537;}.cls-20,.cls-21,.cls-24,.cls-25,.cls-48,.cls-49,.cls-50,.cls-63,.cls-64,.cls-65,.cls-66{stroke-linecap:round;}.cls-20{stroke-width:1px;}.cls-21{stroke-miterlimit:10;stroke-width:1px;}.cls-22{stroke-miterlimit:10;stroke-width:0.5px;}.cls-23{stroke-miterlimit:10;stroke-width:0.5px;}.cls-26{fill:#659cff;}.cls-27{clip-path:url(#clip-path-8);}.cls-28{fill:#4c7fff;}.cls-29{fill:#d5d5d5;}.cls-30{fill:#e3e3e3;}.cls-31{clip-path:url(#clip-path-9);}.cls-32{clip-path:url(#clip-path-10);}.cls-33{clip-path:url(#clip-path-11);}.cls-34,.cls-46{stroke:#99776c;}.cls-34{stroke-width:1.05px;}.cls-35{clip-path:url(#clip-path-12);}.cls-36{clip-path:url(#clip-path-13);}.cls-37{clip-path:url(#clip-path-14);}.cls-38{stroke:#7d4545;}.cls-39{fill:#ffe39b;}.cls-40{clip-path:url(#clip-path-15);}.cls-41{fill:#ffbb20;}.cls-42{clip-path:url(#clip-path-16);}.cls-43{fill:#230d99;}.cls-44,.cls-49{stroke:#fff;}.cls-45{clip-path:url(#clip-path-17);}.cls-47{clip-path:url(#clip-path-18);}.cls-48,.cls-50,.cls-63,.cls-64{stroke:#9d3f28;}.cls-51{clip-path:url(#clip-path-19);}.cls-52,.cls-57,.cls-59{fill:#00bcff;}.cls-53{clip-path:url(#clip-path-20);}.cls-54{clip-path:url(#clip-path-21);}.cls-55{stroke-width:0.41px;}.cls-56{fill:#56d4b7;}.cls-57,.cls-59,.cls-60{mix-blend-mode:multiply;}.cls-57{opacity:0.38;}.cls-58{clip-path:url(#clip-path-22);}.cls-59{opacity:0.24;}.cls-60{fill:#ffc9af;opacity:0.3;}.cls-61{clip-path:url(#clip-path-23);}.cls-62{opacity:0.21;}.cls-63,.cls-64,.cls-65{stroke-miterlimit:10;}.cls-63,.cls-64{stroke-width:0.43px;}.cls-65{stroke-width:0.71px;}.cls-66{stroke-width:0.43px;}.cls-67{fill:#f5f5f5;}.cls-68{fill:#8098af;}.cls-69{fill:#1a2e35;}.cls-70{fill:#e1e1e1;}</style><clipPath id="clip-path"><path class="cls-1" d="M133.7,578.14s3.94,5.41,2.71,23.7H52.07s1.15-9.51,10.26-11.85S99,571.67,102.47,574.06,133.7,578.14,133.7,578.14Z"/></clipPath><clipPath id="clip-path-2"><path class="cls-1" d="M134.78,552.61s-2.17,16.17-1.08,25.52-21.94,10.44-21.94,10.44-5.33-9.39-12.21-12.92a20.83,20.83,0,0,0,4-4.86,127.62,127.62,0,0,0,4.87-26.21C109.78,536.53,134.78,552.61,134.78,552.61Z"/></clipPath><clipPath id="clip-path-3"><path class="cls-1" d="M241.89,546s-1.59,29.69-.51,37.52-1.91,10.89-1.91,10.89l-31.1-5,3.78-8.86A49.74,49.74,0,0,0,215.33,566c0-6.23-1.87-29.1-1.87-29.1Z"/></clipPath><clipPath id="clip-path-4"><path class="cls-1" d="M241.34,587.6a32.67,32.67,0,0,0-28-3.69l-.63-4.32s-9.32,10.24-9.32,16.17,3.21,17,22,17a20.74,20.74,0,0,0,21.34-17l-5.33-13.21Z"/></clipPath><clipPath id="clip-path-5"><path class="cls-1" d="M142.17,265.45,96.87,553.91l40.71,3.44s24.78-74.64,33.79-112.25,17.08-100,17.08-100,5.21,41.74,8.45,84.87,7.49,127.36,7.49,127.36H247V340.47s9-53.06-5.13-80.63S142.17,265.45,142.17,265.45Z"/></clipPath><clipPath id="clip-path-6"><path class="cls-1" d="M68.77,155.06s-11.36-22.64-22.28-24.83a132.68,132.68,0,0,1-16.82-11.57c-4.55-4.35-6.17,2-3.87,4.41s11.13,10.39,11.11,11.11-8,.25-12.09-4-4.55-6.55-6.8-4.91a7.94,7.94,0,0,1-4.13-6.74c-.42-5.1-4.85-5.89-4.88-5.27s1.92,10.16,1.92,10.16-3.79-5.58-5.47-5.64a2.46,2.46,0,0,0-2.37,2.54,2.5,2.5,0,0,0,.09.61c.46,1.34-4.14-2.26-3,2.7s24.08,24.75,36.24,25.2,19,16.29,19,16.29Z"/></clipPath><clipPath id="clip-path-7"><path class="cls-1" d="M176.36,29.46A2.28,2.28,0,0,0,176,30.7V55c2.43,17.27,9.86,25.38,19.48,24.51l-.33,7s-.32,3.09-.68,5.14c-.48,2.7-2.68,4.75-2.36,7.74.51,4.85,9.66,9.63,12.35,10.43a10.63,10.63,0,0,0,4.95-.24c13.12-3.66,14.34-22.07,14.34-22.07s-2.15-1.24-2.52-8.91-.13-25.49-.13-25.49,2.91-1,3.53-7-1.61-6.88-3.9-6.78-4.73,5.27-5.14,9.36c-3.68,2-2.42-2.54-2.65-7.85s-6.19-5.13-7.32-8.43a25.83,25.83,0,0,1-.95-8.61,35.07,35.07,0,0,1-24.23-.68Z"/></clipPath><clipPath id="clip-path-8"><path class="cls-1" d="M194.59,89.68s-46.15,1.45-58.81,25.75l-25.71,76a3.54,3.54,0,0,1-2.66,2.4,3.49,3.49,0,0,1-3.48-1.44l-31.8-46.38L50.41,169.44s37.68,69.41,57.4,71.37S141,218.27,141,218.27l-3.21,53s59.55,29,108.91,0l2.56-71a104.82,104.82,0,0,1,6.28-32.2l16.34-44.87s-18-7.71-44.67-31.12l-13.53,17.93L193.08,107Z"/></clipPath><clipPath id="clip-path-9"><path class="cls-1" d="M135.91,192.11s-24.54.59-28.92,5.35-5.53,7-3.06,8.68c0,0-5,4.11-1,7.5a3.84,3.84,0,0,0,4-.33s4.38,7.84,10.12,9.61a10.85,10.85,0,0,0,11.08-3.36,28,28,0,0,1,11.73-8.43c3.6-1.16,2.37-2.62,5.44-4.84Z"/></clipPath><clipPath id="clip-path-10"><path class="cls-1" d="M164,113.63s24.14-34,37.27-36.69A58.81,58.81,0,0,1,225.94,78c.19,0,0,6.21,5.17,7.08s16.22,1,16.63,1.3a51.71,51.71,0,0,1,10.54,8.14c15.84,16.1,20.78,29,5.93,48.63L253.47,157.4s-19.13,41-20.3,46.54l-4.1,19.37s-23.23-3.57-52.23-15.8l-31.37,1.93-12.31-18.27,38.51-9.71,16.46-62.73Z"/></clipPath><clipPath id="clip-path-11"><path class="cls-1" d="M428.16,160.71l30.75-17.23s10.8,17.49,23.6,35.29c25.1,34.89,74.36,38.62,77.1,38.14,6.41-1.12,27.27,1.37,27.27,1.37a5.88,5.88,0,0,1-6,5.5c-5.66,0-12,.28-8.35,3.77s13.75,13.28,25.78,16.06c0,0,5.24,1.11,2.45,4.87l-6.82-.44a3.44,3.44,0,0,1-3.87,2.84,3.27,3.27,0,0,1-3.53,3,3.66,3.66,0,0,1-.81-.18,6.07,6.07,0,0,1-5.8,1.62c-3.91-.7-19.28-5.39-23.42-10.83s-9.32-5.48-13.91-6.79c-2.11-.6-56.82.84-89.72-40.9A279.62,279.62,0,0,1,428.16,160.71Z"/></clipPath><clipPath id="clip-path-12"><path class="cls-1" d="M432.82,543.33H399.25V601.9h30.32s17.55-2.79,17.66-4.7l-21.58-7.9a5.42,5.42,0,0,1-3.37-6.49Z"/></clipPath><clipPath id="clip-path-13"><path class="cls-1" d="M316.57,549,302.19,534.7l-15.56,39.15a27.17,27.17,0,0,1-7.55,10.57l-15.31,13.12s10.22,4.53,18.52,2.37,25.37-15.1,25.37-15.1Z"/></clipPath><clipPath id="clip-path-14"><path class="cls-1" d="M457.18,250.37s11.33,23.95,5.67,83.42-27.32,226.56-27.32,226.56H395.46s3-181.24.18-229.85c0,0-17,104.06-73.44,230.22l-41.64.17,68.69-287.38,74.36-41.71Z"/></clipPath><clipPath id="clip-path-15"><path class="cls-1" d="M475.11,163l-34.73,18.24s-5.47,19.37-2.39,32.42S465.5,242,460.54,258c0,0-29.93-10.19-51.51,0s-44.63,31.78-65.42,26.89c0,0,8.83-83,1.62-106.65l-32.53-6.7S326,132,356.45,122.77a124.4,124.4,0,0,1,38.7-5C457.19,116.66,475.11,163,475.11,163Z"/></clipPath><clipPath id="clip-path-16"><path class="cls-1" d="M312.7,171.49s-25.19,63.4-25.39,84.17c0,2.84,10.17,1.78,10.45,4.35l36-8.08,12.82-77.79Z"/></clipPath><clipPath id="clip-path-17"><path class="cls-1" d="M287.61,260.36c14.19,15.6,58.85-6.44,76.12-20.63,0,0,22.1-7.8,23.07-12.55s-1.43-5.31-1.43-5.31,2.06-3.83.67-6c0,0,1.48-5.22-.18-6.34,0,0,1.35-6.44-8.27-7.15,0,0,1.09,4-1,5.39s-11.78,3.06-11.78.77,6.12-8,3.45-11.8-4.32,5.14-9.2,8.47S350,213.31,350,223.31c0,0-.05,5.7-24.14,7-12.75.67-26,1-32.79,6.87C287.05,242.32,280.92,253,287.61,260.36Z"/></clipPath><clipPath id="clip-path-18"><path class="cls-1" d="M426.34,65.43s16.13,39.41-7.87,42.92c0,0-12.66,6.23-11.46,7.16a144.85,144.85,0,0,0,14.54,4.55s-7.38,17.64-27.23,16.55-24.15-17.35-24.15-17.35,4.3-.6,6.28-.83c5.31-.61,8.83-1.12,8.83-2.92a51.61,51.61,0,0,0-2.12-19.37,134.71,134.71,0,0,0-8.74-16.44S384.68,67.1,392.81,59s23.13-2.68,23.13-2.68a37.93,37.93,0,0,1,8.17,3.86A9.14,9.14,0,0,1,426.34,65.43Z"/></clipPath><clipPath id="clip-path-19"><path class="cls-2" d="M607.22,586.29s-27.65,16.84-18.14,21.22,51.58-3.53,52.52-6.88-.38-25.17-.38-25.17l-32.09-2.33Z"/></clipPath><clipPath id="clip-path-20"><path class="cls-2" d="M527,585.65s-29.05,14.27-20,19.49,51.7,1.15,52.93-2.1,1.9-25.1,1.9-25.1l-31.75-5.23Z"/></clipPath><clipPath id="clip-path-21"><path class="cls-1" d="M553.93,367.82,528.07,581.4l33.64,2.84s8.91-45.16,16.36-76.23,14.1-74.36,14.1-74.36,4.32,26.22,7,61.86S607,584.23,607,584.23h35.22l-1.65-154.42S648,386,636.34,363.18,553.93,367.82,553.93,367.82Z"/></clipPath><clipPath id="clip-path-22"><path class="cls-3" d="M643.7,335.76c-3-43.81-5-54.71-10.1-61.12s-23.82-9.14-37-9.66-32.45,3.22-37.93,7-8.79,19.73-7.94,39.6c.74,17.2,4.36,35.48,4.21,43.45-.27,14.78-3.17,20.48-5.28,31.48,16.49,11.47,80.32,17.63,94,14.88C645,386.41,645.14,357,643.7,335.76Z"/></clipPath><clipPath id="clip-path-23"><path class="cls-4" d="M576.53,256.27,596,253.46l2.12,16a4.2,4.2,0,0,1-.94,3.23,16.66,16.66,0,0,1-11,6c-6,.7-6.72-2-6.64-3.74a20.45,20.45,0,0,0-.41-4.73Z"/></clipPath></defs><g class="cls-5"><g id="Layer_2" data-name="Layer 2"><g id="_6" data-name="6"><g id="boys-8"><g id="foot-6"><g id="right_foot-2" data-name="right foot-2"><g id="Path_250-7" data-name="Path 250-7"><path id="Mask-255" class="cls-2" d="M133.7,578.14s3.94,5.41,2.71,23.7H52.07s1.15-9.51,10.26-11.85S99,571.67,102.47,574.06,133.7,578.14,133.7,578.14Z"/><g class="cls-6"><g id="Path_250-8" data-name="Path 250-8"><path id="Path_250-9" data-name="Path 250-9" class="cls-7" d="M139.69,599.28H44.08l3.26,7H143Z"/></g></g></g><g id="Path_258-7" data-name="Path 258-7"><path id="Mask-256" class="cls-4" d="M134.78,552.61s-2.17,16.17-1.08,25.52-21.94,10.44-21.94,10.44-5.33-9.39-12.21-12.92a20.83,20.83,0,0,0,4-4.86,127.62,127.62,0,0,0,4.87-26.21C109.78,536.53,134.78,552.61,134.78,552.61Z"/><g class="cls-8"><g id="Path_258-8" data-name="Path 258-8"><path id="Path_258-9" data-name="Path 258-9" class="cls-9" d="M106.16,555.29l29.62,13.28,2-17.26Z"/></g></g></g></g><g id="left_foot-3" data-name="left foot-3"><g id="Path_259-7" data-name="Path 259-7"><path id="Mask-257" class="cls-4" d="M241.89,546s-1.59,29.69-.51,37.52-1.91,10.89-1.91,10.89l-31.1-5,3.78-8.86A49.74,49.74,0,0,0,215.33,566c0-6.23-1.87-29.1-1.87-29.1Z"/><g class="cls-10"><g id="Path_259-8" data-name="Path 259-8"><path id="Path_259-9" data-name="Path 259-9" class="cls-9" d="M211.8,559.59l44.77,22.06-11.42-30.43Z"/></g></g></g><g id="Path_251-7" data-name="Path 251-7"><path id="Mask-258" class="cls-2" d="M241.34,587.6a32.67,32.67,0,0,0-28-3.69l-.63-4.32s-9.32,10.24-9.32,16.17,3.21,17,22,17a20.74,20.74,0,0,0,21.34-17l-5.33-13.21Z"/><g class="cls-11"><g id="Path_251-8" data-name="Path 251-8"><path id="Path_251-9" data-name="Path 251-9" class="cls-7" d="M246.67,590.71s-4,17.28-18.26,18.35-23.86-4-25.94-20.23-6.77,14.59-6.77,14.59L221.18,637l34.47-24.19Z"/></g></g></g></g></g><g id="pants-9"><path id="Mask-259" class="cls-12" d="M142.17,265.45,96.87,553.91l40.71,3.44s24.78-74.64,33.79-112.25,17.08-100,17.08-100,5.21,41.74,8.45,84.87,7.49,127.36,7.49,127.36H247V340.47s9-53.06-5.13-80.63S142.17,265.45,142.17,265.45Z"/><g class="cls-13"><g id="pants-10"><path id="Path_399" data-name="Path 399" class="cls-14" d="M184.35,308.06s-3.44,22.38,4.1,37.06l-6.35,61.4s-7-21-6.63-39.16S184.35,308.06,184.35,308.06Z"/><path id="Path_398" data-name="Path 398" class="cls-15" d="M184.24,305.46s-5.7,38.45,4.62,38.45c0,0,2.79,10.36,9.61,10.72"/><path id="Path_400" data-name="Path 400" class="cls-15" d="M188.45,343.91s-10.1,70.49-19.57,110.37-29,94.19-29,94.19l-40.29-2.83"/><path id="Path_401" data-name="Path 401" class="cls-15" d="M207.27,548.47h39.4"/></g></g></g><g id="right_hand-8" data-name="right hand-8"><g id="Path_357" data-name="Path 357"><path id="Mask-260" class="cls-4" d="M68.77,155.06s-11.36-22.64-22.28-24.83a132.68,132.68,0,0,1-16.82-11.57c-4.55-4.35-6.17,2-3.87,4.41s11.13,10.39,11.11,11.11-8,.25-12.09-4-4.55-6.55-6.8-4.91a7.94,7.94,0,0,1-4.13-6.74c-.42-5.1-4.85-5.89-4.88-5.27s1.92,10.16,1.92,10.16-3.79-5.58-5.47-5.64a2.46,2.46,0,0,0-2.37,2.54,2.5,2.5,0,0,0,.09.61c.46,1.34-4.14-2.26-3,2.7s24.08,24.75,36.24,25.2,19,16.29,19,16.29Z"/><g class="cls-16"><g id="Path_357-2" data-name="Path 357-2"><path id="Path_357-3" data-name="Path 357-3" class="cls-9" d="M41.92,150.15s8.61,0,20,15.42,38,64.82,69.14,52-12,18.44-12,18.44l-62.46-27.9Z"/><path id="Path_377" data-name="Path 377" class="cls-9" d="M113.86,196.4l8.8-55.3-13.75-8.78-4.06,53.3Z"/></g></g></g><path id="Path_360" data-name="Path 360" class="cls-17" d="M50.94,141.27c-7.71-5.84-10-2.54-18.8-4S22.87,128.1,20.92,126s-2.54-1-2.54-1-2.64,6.37,9,17.8"/><path id="Path_361" data-name="Path 361" class="cls-17" d="M3,121.22l18.18,14.63"/><path id="Path_362" data-name="Path 362" class="cls-17" d="M10.21,122.14s2.4,2.78,3.79,4.06a42,42,0,0,0,3.83,3"/></g><g id="head-10"><path id="Path_40-6" data-name="Path 40-6" class="cls-18" d="M177,52.13s-2.45-8.4-3.54-13a41.17,41.17,0,0,1,.15-12.34s-6.91-8.93-5.06-14.67c5-15.6,19.76-15.33,47.14-4.15a8.64,8.64,0,0,1,5.77,9.74,13.28,13.28,0,0,1,10.47,9.11c2.91,8.34-2.51,25.89-5.63,31.93a71.09,71.09,0,0,1-8.05,11.78Z"/><g id="Path_60-16" data-name="Path 60-16"><path id="Mask-261" class="cls-4" d="M176.36,29.46A2.28,2.28,0,0,0,176,30.7V55c2.43,17.27,9.86,25.38,19.48,24.51l-.33,7s-.32,3.09-.68,5.14c-.48,2.7-2.68,4.75-2.36,7.74.51,4.85,9.66,9.63,12.35,10.43a10.63,10.63,0,0,0,4.95-.24c13.12-3.66,14.34-22.07,14.34-22.07s-2.15-1.24-2.52-8.91-.13-25.49-.13-25.49,2.91-1,3.53-7-1.61-6.88-3.9-6.78-4.73,5.27-5.14,9.36c-3.68,2-2.42-2.54-2.65-7.85s-6.19-5.13-7.32-8.43a25.83,25.83,0,0,1-.95-8.61,35.07,35.07,0,0,1-24.23-.68Z"/><g class="cls-19"><g id="Path_60-17" data-name="Path 60-17"><path id="Path_60-18" data-name="Path 60-18" class="cls-9" d="M194,79.69s14.25-1.86,17.82-12.34c0,0-4,19-15.78,22.87S194,79.69,194,79.69Z"/></g></g></g><path id="Path_24-7" data-name="Path 24-7" class="cls-20" d="M197.37,38.28a8.5,8.5,0,0,0-8,0"/><path id="Path_25-6" data-name="Path 25-6" class="cls-21" d="M181,39.53a7.22,7.22,0,0,0-5.74-1.29"/><circle id="Oval-16" class="cls-7" cx="191.66" cy="45.13" r="1.14"/><path id="Path_31-8" data-name="Path 31-8" class="cls-22" d="M190.45,45.37a3.77,3.77,0,0,1,4.5.13"/><circle id="Oval_Copy_2-6" data-name="Oval Copy 2-6" class="cls-7" cx="177.97" cy="45.13" r="1.14"/><path id="Path_31_Copy-6" data-name="Path 31 Copy-6" class="cls-23" d="M176.5,45.33a3.77,3.77,0,0,1,4.49.21"/><path id="Path_46-6" data-name="Path 46-6" class="cls-24" d="M185.31,42.84a21.07,21.07,0,0,1-1.38,7.5c-3.16,6.22-5.47,14.1,6.59,9.31"/><path id="Path_32-7" data-name="Path 32-7" class="cls-25" d="M186.31,69.11c3.15.29,6.49-4.56,6.49-4.56a28.42,28.42,0,0,1-6.49,1.61,12.92,12.92,0,0,1-4.91-1.61S183.17,68.81,186.31,69.11Z"/><ellipse id="Oval-17" class="cls-24" cx="175.69" cy="46.27" rx="6.84" ry="6.86"/><ellipse id="Oval_Copy_3-7" data-name="Oval Copy 3-7" class="cls-24" cx="192.8" cy="46.27" rx="6.84" ry="6.86"/><path id="Path_63-6" data-name="Path 63-6" class="cls-24" d="M199.65,44l17.11-2.29"/><path id="Path_64-6" data-name="Path 64-6" class="cls-24" d="M182.54,44.39l4.56.33"/></g><g id="body-9"><g id="Path_395" data-name="Path 395"><path id="Mask-262" class="cls-26" d="M194.59,89.68s-46.15,1.45-58.81,25.75l-25.71,76a3.54,3.54,0,0,1-2.66,2.4,3.49,3.49,0,0,1-3.48-1.44l-31.8-46.38L50.41,169.44s37.68,69.41,57.4,71.37S141,218.27,141,218.27l-3.21,53s59.55,29,108.91,0l2.64-73.45a89.39,89.39,0,0,1,5.35-27.39l11.07-50.61s-10.39-14.64-38.55-27.71l-13.53,17.93L193.08,107Z"/><g class="cls-27"><g id="Path_395-2" data-name="Path 395-2"><path id="Path_395-3" data-name="Path 395-3" class="cls-3" d="M49.34,171l24.75-27.4,6.51,6.61L51.49,180.85Z"/><path id="Path_381" data-name="Path 381" class="cls-28" d="M149.61,135.47s-12.78,88.1-50.48,100.58S132.51,253,132.51,253L141,223.14Z"/><path id="Path_396" data-name="Path 396" class="cls-28" d="M248.16,135.47s-14.08,23.41-12.3,64.57-102.44,15.44-100.29,72,112.59,48.58,112.59,48.58L256.42,287,249.8,200h0a62.6,62.6,0,0,1,6.72-28.19c6.32-12.55,14.8-30.5,14.61-36.24C270.83,126.48,248.16,135.47,248.16,135.47Z"/></g></g></g><path id="Path_380" data-name="Path 380" class="cls-3" d="M194.89,88.92s-1.27,13,6.77,18a23.59,23.59,0,0,0,21.59-20.33,20.93,20.93,0,0,1,4.56,9.21c.5,4.48-5.83,22.86-13.18,31.45,0,0-4.84-13.34-13.94-17.71,0,0-12.29,0-14.6,14.17,0,0-3-13,0-20.26A89,89,0,0,1,194.89,88.92Z"/><path id="Path_391" data-name="Path 391" class="cls-15" d="M141,218.27l8.57-82.8"/><path id="Path_392" data-name="Path 392" class="cls-15" d="M50.41,169.44l21.72-23.39,32.82,48s8.92,10,4.21,21.58"/><path id="Path_393" data-name="Path 393" class="cls-15" d="M105,194.06a16.27,16.27,0,0,1,15.28,6"/></g><g id="laptop"><path id="Path_334" data-name="Path 334" class="cls-29" d="M94.84,151,13.9,152.69a4.06,4.06,0,0,0-2.77,1.18h0a2,2,0,0,0-.46,2.14l24.84,64.93a6.7,6.7,0,0,0,6,4.3l77.64,2.6a2.65,2.65,0,0,0,2.61-3.47L99,154A4.25,4.25,0,0,0,94.84,151Z"/><path id="Path_334_Copy" data-name="Path 334 Copy" class="cls-30" d="M92.8,153.08l-78.51,1.63a3,3,0,0,0-2.72,3.93l21.94,62.14a6.69,6.69,0,0,0,6.09,4.46l78.75,2.64a1.76,1.76,0,0,0,1.73-2.32L96.92,156A4.25,4.25,0,0,0,92.8,153.08Z"/><path id="Oval-4" class="cls-3" d="M62.1,183.92a5.69,5.69,0,1,0,4.23,4.24A5.63,5.63,0,0,0,62.1,183.92Z"/></g><path class="cls-26" d="M266.25,140.08h0c-.15.18-.31.36-.46.55C252.41,156.8,223,188,223,188l-8.94-37.33,12.53-20.77,16-20,11.43-1,5-.46.24,0c1.39,1,2.71,2,3.95,3a26.73,26.73,0,0,1,3.44,5.32C269.39,122.23,270.74,130.1,266.25,140.08Z"/><polygon class="cls-26" points="136.42 190.07 151.47 186.4 147 202.4 136.42 190.07"/><g id="left_hand-3" data-name="left hand-3"><path id="Mask-224" class="cls-4" d="M135.91,192.11s-24.54.59-28.92,5.35-5.53,7-3.06,8.68c0,0-5,4.11-1,7.5a3.84,3.84,0,0,0,4-.33s4.38,7.84,10.12,9.61a10.85,10.85,0,0,0,11.08-3.36,28,28,0,0,1,11.73-8.43c3.6-1.16,1.54-3,4.61-5.19Z"/><g class="cls-31"><g id="left_hand-4" data-name="left hand-4"><path id="Path_520" data-name="Path 520" class="cls-9" d="M118.58,193,102.9,207.09l-11.9,2,21.25-20.35Z"/><path id="Path_522" data-name="Path 522" class="cls-15" d="M107,213.31l3.42-2.95"/><path id="Path_522_Copy" data-name="Path 522 Copy" class="cls-15" d="M110.35,219.32l3.42-2.95"/><path id="Path_522_Copy_2" data-name="Path 522 Copy 2" class="cls-15" d="M115.47,222.77l3.42-3"/><path id="Path_521" data-name="Path 521" class="cls-9" d="M136.29,191.47l-1.09,25.07,10-5.57Z"/></g></g></g><g id="Path_493" data-name="Path 493"><g class="cls-32"><g id="Path_493-2" data-name="Path 493-2"><path id="Path_500" data-name="Path 500" class="cls-3" d="M139.24,185l19.27,25.8-13.89,4.77L126.36,185Z"/></g></g></g><path id="Path_495" data-name="Path 495" class="cls-15" d="M265.45,141s-35.51,42.91-52.18,53-37,13.45-37,13.45"/><path id="Path_496" data-name="Path 496" class="cls-15" d="M145.3,210.33l-13-19.26,38.4-9.36a45.39,45.39,0,0,0,11.48-4.44c3.42-1.93,7.13-4.62,9.26-8,4.76-7.55,43.26-53.68,43.26-53.68"/><path id="Path_503" data-name="Path 503" class="cls-15" d="M207,183.51c-2.15-11-15.7-13.67-15.7-13.67l2.29-3.51s12.11.26,17.76,8.64"/><path class="cls-26" d="M266.68,116.69l-6.78-4.22-5.81-3.61-26.84-16.7S245.8,99,258.81,107.29l1.24.8,0,0a27.69,27.69,0,0,1,3.16,3.25A26.73,26.73,0,0,1,266.68,116.69Z"/></g><g id="right_hand-17" data-name="right hand-17"><path id="Mask-341" class="cls-4" d="M428.16,160.71l30.75-17.23s10.8,17.49,23.6,35.29c25.1,34.89,74.36,38.62,77.1,38.14,6.41-1.12,27.27,1.37,27.27,1.37a5.88,5.88,0,0,1-6,5.5c-5.66,0-12,.28-8.35,3.77s13.75,13.28,25.78,16.06c0,0,5.24,1.11,2.45,4.87l-6.82-.44a3.44,3.44,0,0,1-3.87,2.84,3.27,3.27,0,0,1-3.53,3,3.66,3.66,0,0,1-.81-.18,6.07,6.07,0,0,1-5.8,1.62c-3.91-.7-19.28-5.39-23.42-10.83s-9.32-5.48-13.91-6.79c-2.11-.6-56.82.84-89.72-40.9A279.62,279.62,0,0,1,428.16,160.71Z"/><g class="cls-33"><g id="right_hand-18" data-name="right hand-18"><path id="Path_196" data-name="Path 196" class="cls-9" d="M434.91,152.91s27.55,64.79,112.92,83.21a8.64,8.64,0,0,1,5,4.86c3,8.69,2.74,12.76.57,16.43-3.67,6.23-125.29-47.57-125.29-47.57l-9.42-52.25Z"/><path id="Path_185" data-name="Path 185" class="cls-9" d="M578.78,233.17s-8.17-3.54-9-7.2,12.57-1.8,12.57-1.8Z"/><path id="Path_193" data-name="Path 193" class="cls-34" d="M593.93,248s-12.85-3.11-19.91-8.63"/><path id="Path_194" data-name="Path 194" class="cls-34" d="M590.05,250.88s-13.09-1.73-17.6-6.29"/><path id="Path_195" data-name="Path 195" class="cls-34" d="M585.72,253.66s-9.34-1.16-14.8-4.77"/></g></g></g><g id="foot-15"><g id="left-8"><g id="Path_365-7" data-name="Path 365-7"><path id="Mask-315" class="cls-4" d="M432.82,543.33H399.25V601.9h30.32s17.55-2.79,17.66-4.7l-21.58-7.9a5.42,5.42,0,0,1-3.37-6.49Z"/><g class="cls-35"><g id="Path_365-8" data-name="Path 365-8"><path id="Path_365-9" data-name="Path 365-9" class="cls-9" d="M431.26,559.68l-34,12.94V552.14Z"/></g></g></g><path id="Path_364-3" data-name="Path 364-3" class="cls-7" d="M398.31,591a95,95,0,0,0,12,5c9.65,2.53,16.39,2.19,20.14,1.14,7.89-2.22,5.33-5.64,10.74-3.63,16.8,6.26,23.31,7.8,21.8,15.26l-62.33-1a3.26,3.26,0,0,1-3.2-3.31c0-.05,0-.1,0-.16Z"/></g><g id="right-8"><g id="Path_365_Copy" data-name="Path 365 Copy"><path id="Mask-316" class="cls-4" d="M316.57,549,302.19,534.7l-15.56,39.15a27.17,27.17,0,0,1-7.55,10.57l-15.31,13.12s10.22,4.53,18.52,2.37,25.37-15.1,25.37-15.1Z"/><g class="cls-36"><g id="Path_365_Copy-2" data-name="Path 365 Copy-2"><path id="Path_365_Copy-3" data-name="Path 365 Copy-3" class="cls-9" d="M318.64,559.68l-34,12.94V552.14Z"/></g></g></g><path id="Path_363" data-name="Path 363" class="cls-7" d="M311.53,572.62s-14.18,14.79-20.77,18.09c-.26.13-6.62,3.65-10.72,3.49a11.48,11.48,0,0,1-7.28-4c-9.12,4.74-17.29,3.58-19.72,18.56h21.2a27.1,27.1,0,0,0,19.31-8.08l3.81-3.85S308,597.14,308,593A194.89,194.89,0,0,1,311.53,572.62Z"/></g></g><g id="pants-21"><path id="Mask-317" class="cls-12" d="M457.18,250.37s11.33,23.95,5.67,83.42-27.32,226.56-27.32,226.56H395.46s3-181.24.18-229.85c0,0-17,104.06-73.44,230.22l-41.64.17,68.69-287.38,74.36-41.71Z"/><g class="cls-37"><g id="pants-22"><path id="Path_371" data-name="Path 371" class="cls-14" d="M413.08,255.32S442,261.38,442,301.46s-18.71,266.87-18.71,266.87l34.07-6L489.05,260l-49.63-21.68Z"/><path id="Path_372" data-name="Path 372" class="cls-14" d="M395.11,328.73a288.24,288.24,0,0,1-2.52,44.72c-3.33,24.88-69.14,199.17-69.14,199.17l-21.83-4.29Z"/><path id="Path_370" data-name="Path 370" class="cls-38" d="M392.79,286.31s-5.18,27.59-4.06,35a8.24,8.24,0,0,0,7.94,7.41"/></g></g></g><g id="body-18"><path id="Mask-318" class="cls-39" d="M475.11,163l-34.73,18.24s-5.47,19.37-2.39,32.42S465.5,242,460.54,258c0,0-29.93-10.19-51.51,0s-44.63,31.78-65.42,26.89c0,0,8.83-83,1.62-106.65l-32.53-6.7S326,132,356.45,122.77a124.4,124.4,0,0,1,38.7-5C457.19,116.66,475.11,163,475.11,163Z"/><g class="cls-40"><g id="body-19"><path id="Path_366" data-name="Path 366" class="cls-41" d="M440.38,181.25s-6.94,31.08-26,33.69-25.59-8.5-25.59-8.5-9.15,15.38-23.44,13.72c0,0,1.64,20.45,15,13s27-3.07,22.5,4.47-6.13,23.62-38.81,34.13-47.13-7.15-47.13-7.15l22.89,30.82,128.13-23.68,5.75-39.92Z"/><path id="Path_369" data-name="Path 369" class="cls-15" d="M346.54,164.51l-3.6,16.4"/><path id="Path_348" data-name="Path 348" class="cls-15" d="M440.38,181.25l-1-10.93"/></g></g></g><g id="right_hand-15" data-name="right hand-15"><g id="Path_376" data-name="Path 376"><path id="Mask-319" class="cls-4" d="M312.7,171.49s-25.19,63.4-25.39,84.17c0,2.84,10.17,1.78,10.45,4.35l36-8.08,12.82-77.79Z"/><g class="cls-42"><g id="Path_376-2" data-name="Path 376-2"><path id="Path_376-3" data-name="Path 376-3" class="cls-9" d="M324.53,172.71s1.61,32.1-6.22,47.31c-2.44,4.73-11.79,6.23-16.68,9a35.46,35.46,0,0,0-14.31,16l45.91-16Z"/></g></g></g><rect id="Rectangle-29" class="cls-43" x="324.53" y="172.4" width="53.06" height="92.19"/><rect id="Rectangle_Copy_23" data-name="Rectangle Copy 23" class="cls-44" x="327.19" y="176.74" width="47.65" height="83.51"/><g id="Group_30" data-name="Group 30"><g id="Path_358" data-name="Path 358"><path id="Mask-320" class="cls-4" d="M287.61,260.36c14.19,15.6,58.85-6.44,76.12-20.63,0,0,22.1-7.8,23.07-12.55s-1.43-5.31-1.43-5.31,2.06-3.83.67-6c0,0,1.48-5.22-.18-6.34,0,0,1.35-6.44-8.27-7.15,0,0,1.09,4-1,5.39s-11.78,3.06-11.78.77,6.12-8,3.45-11.8-4.32,5.14-9.2,8.47S350,213.31,350,223.31c0,0-.05,5.7-24.14,7-12.75.67-26,1-32.79,6.87C287.05,242.32,280.92,253,287.61,260.36Z"/><g class="cls-45"><g id="Path_358-2" data-name="Path 358-2"><path id="Path_358-3" data-name="Path 358-3" class="cls-9" d="M363.73,239.73S303.79,269.06,284,255s6,21.72,6,21.72L369.92,255Z"/></g></g></g><path id="Path_355" data-name="Path 355" class="cls-46" d="M349.83,224.33s-7.86,6.1-23.08,6.1-33.24,2.19-40,14.52"/><path id="Path_373" data-name="Path 373" class="cls-46" d="M385.86,209.51s-.73,2.32-5.06,3"/><path id="Path_374" data-name="Path 374" class="cls-46" d="M386,215.85a9.78,9.78,0,0,1-5.24,2.65"/><path id="Path_375" data-name="Path 375" class="cls-46" d="M385.37,221.87a10.74,10.74,0,0,1-5.46,2.68"/></g></g><g id="head-19"><g id="Path_33" data-name="Path 33"><path id="Mask-321" class="cls-4" d="M426.34,65.43s16.13,39.41-7.87,42.92c0,0-12.66,6.23-11.46,7.16a144.85,144.85,0,0,0,14.54,4.55s-7.38,17.64-27.23,16.55-24.15-17.35-24.15-17.35,4.3-.6,6.28-.83c5.31-.61,8.83-1.12,8.83-2.92a51.61,51.61,0,0,0-2.12-19.37,134.71,134.71,0,0,0-8.74-16.44S384.68,67.1,392.81,59s23.13-2.68,23.13-2.68a37.93,37.93,0,0,1,8.17,3.86A9.14,9.14,0,0,1,426.34,65.43Z"/><g class="cls-47"><g id="Path_33-2" data-name="Path 33-2"><path id="Path_33-3" data-name="Path 33-3" class="cls-9" d="M404.86,108a24.51,24.51,0,0,1-10.48-6.58s2.74,14.62,12.29,14S404.86,108,404.86,108Z"/></g></g></g><path id="Path_24-9" data-name="Path 24-9" class="cls-24" d="M403.58,77a8.08,8.08,0,0,1,7.83,0"/><path id="Path_25-8" data-name="Path 25-8" class="cls-24" d="M419.29,76.72a6.75,6.75,0,0,1,5.41.89"/><path id="Path_8" data-name="Path 8" class="cls-7" d="M421.14,61.41S410.08,80.93,387,79.11c0,0-4.84-2.7-5.87.87s.95,5.17,4.64,6.58l-.47,28.94s-3.4,0-9-.12a35.92,35.92,0,0,1-9.39-1.34l1.45-7.17-5.78,5.35s-17.19-8.16-19.61-10.35c0,0,14.08-10.74,19.61-24.23s13.19-37.53,33.64-39.5S429.28,47.06,432,63.91s5.4,49.6,13.84,51c0,0-19.83.35-21.95.48-1.71.1-3.06-6.28-3.06-6.28l-3.09,6.6-10.87-.23-2-7.56s22,.47,21.21-36.37a17.9,17.9,0,0,1-4.07-5A12.14,12.14,0,0,1,421.14,61.41Z"/><path id="Path_28" data-name="Path 28" class="cls-48" d="M416.55,80a5.34,5.34,0,0,0,.71,5.38c2,2.68,2,6-3.56,4.83"/><circle id="Oval-31" class="cls-7" cx="409" cy="81.3" r="1.08"/><path id="Path_31-10" data-name="Path 31-10" class="cls-22" d="M410.57,81a3.51,3.51,0,0,0-4.19.12"/><g id="Rectangle-30"><path class="cls-1" d="M401.42,78h14.07v.35a9.19,9.19,0,0,1-7,8.94h0a9.19,9.19,0,0,1-7-8.94Z"/><path class="cls-3" d="M414.23,79.26a7.93,7.93,0,0,1-5.78,6.81,7.94,7.94,0,0,1-5.77-6.81h11.55M415.49,78H401.42v.35a9.19,9.19,0,0,0,7,8.94,9.19,9.19,0,0,0,7-8.94Z"/></g><g id="Rectangle_Copy_6" data-name="Rectangle Copy 6"><path class="cls-1" d="M417.66,78h14.08v.35a9.19,9.19,0,0,1-7,8.94h0a9.19,9.19,0,0,1-7-8.94Z"/><path class="cls-3" d="M430.47,79.26a5.85,5.85,0,1,1-11.55,0h11.55M431.74,78H417.66v.35a9.19,9.19,0,0,0,7,8.94,9.19,9.19,0,0,0,7-8.94Z"/></g><circle id="Oval_Copy_2-8" data-name="Oval Copy 2-8" class="cls-7" cx="421.99" cy="81.3" r="1.08"/><path id="Path_31_Copy-8" data-name="Path 31 Copy-8" class="cls-23" d="M423.56,81a3.5,3.5,0,0,0-4.18.19"/><path id="Path_29" data-name="Path 29" class="cls-49" d="M401.68,78.57,386.73,78"/><path id="Path_30" data-name="Path 30" class="cls-44" d="M415.25,79.75h2.88"/><path id="Path_32-9" data-name="Path 32-9" class="cls-50" d="M414.41,99.69c-2.89.25-6-3.77-6-3.77a28.38,28.38,0,0,0,6,1.33,12.75,12.75,0,0,0,4.52-1.33S417.31,99.45,414.41,99.69Z"/></g><path class="cls-2" d="M607.22,586.29s-27.65,16.84-18.14,21.22,51.58-3.53,52.52-6.88-.38-25.17-.38-25.17l-32.09-2.33Z"/><g class="cls-51"><path class="cls-52" d="M631.65,598.47c2.51-3.87,5.32-7.82,9.44-9.91a2.26,2.26,0,0,1,2.39-.13,2.06,2.06,0,0,1,.61,1.13,14.28,14.28,0,0,1-.51,7.29,23.15,23.15,0,0,1-2.9,6.91,11.13,11.13,0,0,1-5.78,4.59c-1.81.56-6.47.65-7.21-1.74C627,604.49,630.56,600.16,631.65,598.47Z"/><path class="cls-2" d="M602.27,605.76c.94,2.08,1.64,4.59.47,6.55s-4.07,2.57-6.49,2.34a15.14,15.14,0,0,1-9-3.94,11.54,11.54,0,0,1-3.65-9,15.07,15.07,0,0,1,.82-3.68,11.39,11.39,0,0,1,2.43-4.45c1.06-1.08,3.07-2.21,4.57-1.5s3,2.58,4.11,3.72A35.08,35.08,0,0,1,602.27,605.76Z"/><path class="cls-2" d="M608.14,606.83a68.23,68.23,0,0,0,17.28-4.72c2.88-1.15,6.06-3,5.84-6.16-.17-2.45-2.37-4.64-4.59-6.23a31.7,31.7,0,0,0-12.22-5.33,38.64,38.64,0,0,1-5.35-1.14,7.63,7.63,0,0,1-4.34-3.37,4.94,4.94,0,0,1,.39-5.06,10.4,10.4,0,0,1,4-3.1,30.84,30.84,0,0,1,23.55-2.23c8.21,2.7,15.73,10.18,16.55,18.17a19.08,19.08,0,0,1-3,11.73,33.66,33.66,0,0,1-23.62,15.5,45,45,0,0,1-21.69-2.1c-3.37-1.16-11-2.9-13.88-5.14-4.42-3.39,4.56-.85,6.31-.5C597.9,608.06,603.76,607.35,608.14,606.83Z"/></g><path class="cls-2" d="M527,585.65s-29.05,14.27-20,19.49,51.7,1.15,52.93-2.1,1.9-25.1,1.9-25.1l-31.75-5.23Z"/><g class="cls-53"><path class="cls-52" d="M550.2,600c2.85-3.63,6-7.31,10.3-9,.79-.31,1.79-.52,2.39.08a2.09,2.09,0,0,1,.5,1.18,14.35,14.35,0,0,1-1.16,7.22,23.4,23.4,0,0,1-3.52,6.62,11.12,11.12,0,0,1-6.17,4c-1.85.39-6.5.06-7-2.38C545.06,605.57,549,601.57,550.2,600Z"/><path class="cls-2" d="M520.28,604.59c.74,2.16,1.22,4.73-.13,6.57s-4.28,2.18-6.67,1.74a15.14,15.14,0,0,1-8.62-4.74,11.53,11.53,0,0,1-2.82-9.28,15.89,15.89,0,0,1,1.15-3.6,11.47,11.47,0,0,1,2.83-4.21c1.15-1,3.25-1.92,4.68-1.08s2.76,2.84,3.76,4.08A35.09,35.09,0,0,1,520.28,604.59Z"/><path class="cls-2" d="M526,606.19a67.84,67.84,0,0,0,17.63-3.14c3-.88,6.31-2.41,6.38-5.6.05-2.46-1.94-4.84-4-6.62a31.6,31.6,0,0,0-11.68-6.42,37.6,37.6,0,0,1-5.23-1.62,7.61,7.61,0,0,1-4-3.75,4.94,4.94,0,0,1,.84-5,10.41,10.41,0,0,1,4.28-2.72,30.83,30.83,0,0,1,23.65-.1c7.94,3.43,14.75,11.57,14.85,19.6a19,19,0,0,1-4.11,11.4,33.63,33.63,0,0,1-24.92,13.3,45,45,0,0,1-21.41-4c-3.25-1.46-10.65-3.88-13.36-6.38-4.09-3.77,4.62-.43,6.33.08C515.72,606.49,521.62,606.31,526,606.19Z"/></g><g id="pants-9-2" data-name="pants-9"><path id="Mask-259-2" data-name="Mask-259" class="cls-12" d="M553.93,367.82,528.07,581.4l33.64,2.84s8.91-45.16,16.36-76.23,14.1-74.36,14.1-74.36,4.32,26.22,7,61.86S607,584.23,607,584.23h35.22l-1.65-154.42S648,386,636.34,363.18,553.93,367.82,553.93,367.82Z"/><g class="cls-54"><g id="pants-10-2" data-name="pants-10"><path id="Path_399-2" data-name="Path 399" class="cls-14" d="M588.79,403s-2.84,18.49,3.38,30.62l-5.24,42.48s-5.82-17.33-5.48-32.37S588.79,403,588.79,403Z"/><path id="Path_398-2" data-name="Path 398" class="cls-55" d="M588.7,400.88s-4.71,31.78,3.81,31.78c0,0,2.32,8.55,8,8.85"/><path id="Path_400-2" data-name="Path 400" class="cls-55" d="M592.17,432.65s-8.33,50-16.16,82.94-12.43,61.31-12.43,61.31l-33.3-2.34"/><path id="Path_401-2" data-name="Path 401" class="cls-55" d="M609.38,576.9h32.56"/></g></g></g><path class="cls-9" d="M546.86,294.31s-28.85,32.63-33.1,34-49,9-49,9l-2.39,14.33s54.28,5.31,60.49,1.6,42.93-34.73,42.93-34.73Z"/><path class="cls-56" d="M526.83,311.06s23.93-37.64,34.42-40.37,30.44,5.32,19.26,26.21a181.48,181.48,0,0,1-25.44,35.82S533.58,330.09,526.83,311.06Z"/><path class="cls-57" d="M565.25,270.19a96.37,96.37,0,0,0-7.61,12.13c-2.82,5.21-5.33,10.58-7.75,16a180.35,180.35,0,0,0-6.64,16.77,110,110,0,0,0-3.28,12,41.32,41.32,0,0,0,15.1,5.64,181.48,181.48,0,0,0,25.44-35.82C590.38,278.46,576,270,565.25,270.19Z"/><path class="cls-3" d="M643.7,335.76c-3-43.81-5-54.71-10.1-61.12s-23.82-9.14-37-9.66-32.45,3.22-37.93,7-8.79,19.73-7.94,39.6c.74,17.2,4.36,35.48,4.21,43.45-.27,14.78-3.17,20.48-5.28,31.48,16.49,11.47,80.32,17.63,94,14.88C645,386.41,645.14,357,643.7,335.76Z"/><g class="cls-58"><path class="cls-56" d="M573.62,275.16a6.56,6.56,0,0,0,1.76,5.61,11,11,0,0,0,5.34,2.77c3.76,1,12.25-.08,16.07-4.36,6.35,15.09,13.69,31.16,28.53,39.26a38.07,38.07,0,0,0,13.13,4.75c4.64.61,9.54-.19,13.13-2.95,4.24-3.24,6.16-8.81,6.16-14.27s-1.7-10.83-3.64-16c-3.32-8.86-7.57-17.63-14.48-24.06-10.42-9.67-25.17-12.51-38.79-13-11.46-.38-22.89.63-33.37,4.33s-19.82,10.09-26,19.2c-8,11.79-10,28-5.1,42a4.82,4.82,0,0,0,2.7-.16c7.33-4.61,11-13.46,15.61-21.14A86.12,86.12,0,0,1,573.62,275.16Z"/><path class="cls-59" d="M619.09,373.82c-1.92,6-4.1,12.12-8.6,16.49-7.52,7.31-19.44,7.72-28.19,13.51,2.27,6.38,9.81,8.88,16.41,10.38,13,2.95,26.91,5.23,39.51.8,4.26-1.49,8.4-3.87,10.86-7.65,1.94-3,2.68-6.57,3.23-10.08,2.78-17.62,2-35.58,1-53.39q-1.59-28-3.94-56.06c-.46-5.31-1-10.88-4-15.31a15.93,15.93,0,0,0-7.54-6c-4.72-1.73-3.87,1.76-3.6,5.4a198.8,198.8,0,0,1,.25,25.13,266.35,266.35,0,0,1-7.52,49.19C624.67,355.55,622,364.73,619.09,373.82Z"/><path class="cls-59" d="M586.18,398.27c-6.95-2.52-13.63-4.82-20.12-8.27-3-1.62-6.17-3.51-7.6-6.38a47.55,47.55,0,0,1,10.92.34L587,385.9c-6.19-2.09-12-5.51-17.59-8.7-2.83-1.61-10.73-4.88-8.45-9.4.77-1.55,2.53-2.24,3.88-3.17,1.73-1.19,2-2.86.94-4.7-1.34-2.4-3.94-3.94-6.18-5.39a43.49,43.49,0,0,1-10.25-9.21c-.46,3.62.35,7.4.18,11.09s-1.32,7.29-2.16,10.92a63.87,63.87,0,0,0-.82,24.86,9.49,9.49,0,0,0,1.51,4.3,11.18,11.18,0,0,0,4.65,3.12c9.13,3.91,19.47,5,29.62,5.87C588.44,406,593,400.73,586.18,398.27Z"/></g><path class="cls-4" d="M481.5,332.06c1.69-4.2,5.14-7.85,9.17-10.62a15.11,15.11,0,0,1,4-2.07c2.92-.88,6.34-.46,9.11.18a76.3,76.3,0,0,1,10.1,3.53q4.62,1.76,9.23,3.56a11.53,11.53,0,0,0,2.34.93c6.28.81,45.45,5.86,52.48,6.09,7.21-7.63,18.14-28,18.14-28s19.5,2.38,25.36,13.63c.07-.31-23.69,33.65-27.22,35.51s-19.56-.8-38.93-5.82c-14.66-3.8-27.34-7.75-32.64-9.44a14.57,14.57,0,0,1-2.6.42c-10.25.71-8.69-5.11-9.19-5.46l.26-.34c-2,.7-4,1.36-6,1.95-.82.24-1.9.38-2.25-.27s.13-1.13.52-1.62a41.73,41.73,0,0,1,4.36-4.67l-9.94,6.61c-.66.43-1.56.89-2.16.49s-.34-1.27,0-1.93a24.31,24.31,0,0,1,7.21-8.28l-6.69,5.05c-1.54,1.15-3.07,2.31-4.7,3.34-1.47.93-3.31,1.79-4.86,1.25-.2-.07-.41-.17-.47-.36a.81.81,0,0,1,.13-.55c1.92-3.71,5.31-6.72,8.62-9.63l-8.86,6.8c-1.14.88-2.56,1.82-3.91,1.49a1.16,1.16,0,0,1-.72-.43A1.48,1.48,0,0,1,481.5,332.06Z"/><path class="cls-9" d="M589.88,332.85a26.22,26.22,0,0,1-4.89-8.54c5.7-8.62,11.09-18.64,11.09-18.64s19.5,2.38,25.36,13.63c0-.2-9.91,14-17.89,24.51C598,341.92,593.06,336.54,589.88,332.85Z"/><path class="cls-60" d="M510.71,332.6c2.4.29,4.49,1.29,6.79,1.84s4.55.73,6.81,1.13c6.09,1.08,11.86,3.21,17.6,5.09a323.71,323.71,0,0,0,33.19,9c6.86,1.47,14.11,3.43,21.38,3a11.8,11.8,0,0,1-2.26,2.15c-3.54,1.86-19.56-.8-38.93-5.82-14.66-3.8-27.34-7.75-32.64-9.44a14.57,14.57,0,0,1-2.6.42c-10.25.71-8.69-5.11-9.19-5.46l.26-.34c-2,.7-4,1.36-6,1.95a3.69,3.69,0,0,1-1.63.16A77.4,77.4,0,0,1,510.71,332.6Z"/><path class="cls-56" d="M582.32,321.32c1.82-2.53,16.4-25.33,21.41-33.82,2.63-4.48,5.59-9,10-12.36,3.11-2.4,11.89-7.8,18.22-.46.34.38.65.79,1,1.2s.63.95.91,1.44c4.19,7.28,3,17.25.47,25.66a40.83,40.83,0,0,1-1.77,4.85,157.42,157.42,0,0,1-19,32.18C603.76,339.29,587.17,330.53,582.32,321.32Z"/><path class="cls-57" d="M633.11,303.54q-2.8,3.73-5.82,7.33c-3.39,4-7.07,7.79-10.79,11.51s-7.39,7.19-11.31,10.54c-1.37,1.18-2.78,2.32-4.21,3.44A39.27,39.27,0,0,0,613.47,340a157.42,157.42,0,0,0,19-32.18,40.83,40.83,0,0,0,1.77-4.85q.26-.84.48-1.71C634.2,302,633.66,302.79,633.11,303.54Z"/><path class="cls-4" d="M576.53,256.27,596,253.46l2.12,16a4.2,4.2,0,0,1-.94,3.23,16.66,16.66,0,0,1-11,6c-6,.7-6.72-2-6.64-3.74a20.45,20.45,0,0,0-.41-4.73Z"/><g class="cls-61"><path class="cls-9" d="M573,267.26c10.4,13.18,21.72-12.14,22.46-15.46.22-1-2.1-.77-3.34-.56-8.77,1.49-21,5.48-22.38,8.75S571.64,265.48,573,267.26Z"/></g><path class="cls-7" d="M547.59,202.83a9.69,9.69,0,0,0-1.19,3.46,29.42,29.42,0,0,0-.18,9.27,9.7,9.7,0,0,0,1.22,3.86,10.4,10.4,0,0,0,4.52,3.51,4.56,4.56,0,0,0,3.5.54,3.39,3.39,0,0,0,1.66-1.64c1.31-2.41.93-5.31.5-8a30,30,0,0,0-1.93-7.59,11.66,11.66,0,0,0-3.61-4.66C550.3,200.27,548.72,201,547.59,202.83Z"/><path class="cls-4" d="M553,226.29a73.63,73.63,0,0,0,1.08,13.8.31.31,0,0,1,0,.1c.07.32.12.61.17.91,0,.11,0,.21.07.31.09.47.22,1,.36,1.63.9,3.67,2.65,9.59,4.77,13.35.22.39.44.76.66,1.09l0,0c.09.14.19.27.28.4a9.28,9.28,0,0,0,.67.85c4.48,4.91,14.4,4.16,16.56,3.69a41.74,41.74,0,0,0,20.23-10.95,34.43,34.43,0,0,0,6.13-8.16,30.78,30.78,0,0,0,1.72-3.84,30.31,30.31,0,0,0,1.76-8c0-.34.06-.69.07-1h0c0-.26,0-.52,0-.78h0c0-.18,0-.38,0-.57v-.44c0-1-.06-2-.17-3,0-.37-.07-.75-.12-1.13a39.58,39.58,0,0,0-2.9-10.37c-.23-.55-.48-1.08-.74-1.6a34,34,0,0,0-9.69-12l0,0a29.65,29.65,0,0,0-5.74-3.51c-.58-.27-1.14-.51-1.72-.73a28.18,28.18,0,0,0-3.76-1.2,24.58,24.58,0,0,0-6.17-.71c-8.54.1-16,5-20.11,13.9a35.36,35.36,0,0,0-2.62,8.31,47.08,47.08,0,0,0-.79,7.19C553,224.68,553,225.49,553,226.29Z"/><g class="cls-62"><path class="cls-9" d="M554.64,243c.9,3.67,2.65,9.59,4.77,13.35a4.32,4.32,0,0,0,.57-3.09,16.34,16.34,0,0,0-5.28-10.21A.15.15,0,0,0,554.64,243Z"/><path class="cls-9" d="M592.41,251.2c.22-.16.42-.33.62-.5,3.26-2.82,7-8.62,3.64-13a6.26,6.26,0,0,0-7.11-1.81,10.56,10.56,0,0,0-5.39,5.44,11.36,11.36,0,0,0-1.31,5.81,6.76,6.76,0,0,0,2.8,5.14C587.86,253.72,590.49,252.65,592.41,251.2Z"/></g><path class="cls-7" d="M614.86,219.57a58.7,58.7,0,0,1-1.32,6.1c-.21.75-1.09,5.46-1.75,5.68a2.17,2.17,0,0,1-.86.13,2.66,2.66,0,0,1-1.65-.84c-.91-.88-1.77-2-3.26-1.8-2.14.28-3.74,5.12-5.92,5.19-2.65.09-3.7-2.45-4.47-4.95a72.6,72.6,0,0,1,.61-9.48,4.1,4.1,0,0,0,.06-.49,5.11,5.11,0,0,0-.38-.59c-1.64-2.29-4.39-1.42-6.82-2.64a18.57,18.57,0,0,1-4.22-2.39,13.92,13.92,0,0,1-3.74-4.75,35.8,35.8,0,0,1-1.82-4.84c-3.2,3.77-7.42,6.31-12,8.42a57.82,57.82,0,0,1-10.18,3.75c-2.69.66-6.88,1.36-9.19-.58-2.12-1.78-2-7-1.5-9.51.78-3.76,3.39-6.29,6.32-8.69a49.64,49.64,0,0,1,28.62-11.44,38.75,38.75,0,0,1,6.89.26,35.32,35.32,0,0,1,8.79,2.21,27.66,27.66,0,0,1,2.84,1.27c.73.38,1.45.77,2.16,1.21a29.6,29.6,0,0,1,6.57,5.39,24.48,24.48,0,0,1,6,10.82c0,.05,0,.11,0,.16A32.54,32.54,0,0,1,614.86,219.57Z"/><path class="cls-7" d="M608.6,196.19c-1.76.66-4.59-1.23-6.06-1.5-4.1-.74.33,5.11-.09,6.58s-2.56,1.68-4,1.52c-2.37-.24-3.57-1.83-5.58-2.73a2.36,2.36,0,0,0-3.4,1.65c-.3,1.13,1.13,4,.29,4.84-1.26,1.15-4.62-.72-5.52-1.52-1.68-1.51-3-4.39-2-6.59.25-.69,2.12-.89,2.88-1.32,1.57-.8,3-1.83,4.55-2.65,2.19-1.16,4.29-2.74,6.64-3.67a32.7,32.7,0,0,1,3.59-1.21c.73.38,1.45.77,2.16,1.21A29.6,29.6,0,0,1,608.6,196.19Z"/><path class="cls-7" d="M597,188.32a37.1,37.1,0,0,1-3.46,1.54,55.39,55.39,0,0,0-7.52,3.4,36.6,36.6,0,0,0-6.09,3.85c-1.09.91-2.41,3.08-3.33,3.08-2.17,3.19-6.72,3-9.87,1.63-1.85-.83-2.33-2.17-.23-3.25,2.29-1.17,5.12-1.13,7.51-2.22,1.87-.86,3.57-2.36,2.84-4.49-.46-1.32-2-3.32.33-3.81,1.75-.37,3.8,1.34,5.53,1.65a2.82,2.82,0,0,0,3.34-1.32,6.75,6.75,0,0,1,2.16-2.27A35.32,35.32,0,0,1,597,188.32Z"/><path class="cls-7" d="M558.13,234.7a1.43,1.43,0,0,1,1.5-1.66,2.06,2.06,0,0,1,1.83,1.85,1.43,1.43,0,0,1-1.5,1.66A2,2,0,0,1,558.13,234.7Z"/><path class="cls-7" d="M576.24,231.81a1.5,1.5,0,0,1,1.57-1.67,2,2,0,0,1,1.8,1.83,1.5,1.5,0,0,1-1.57,1.66A2,2,0,0,1,576.24,231.81Z"/><path class="cls-63" d="M565.77,250.74a21.09,21.09,0,0,0,7.3-1.83,25.11,25.11,0,0,0,6-4.18.19.19,0,0,1,.3.23c-2.5,6.88-8.34,8.36-13.65,6.27C565.46,251.11,565.44,250.76,565.77,250.74Z"/><path class="cls-4" d="M602.36,231.57c1.13-2.9,3.49-5.23,6.87-4.19a3.77,3.77,0,0,1,2.3,2.33,6.66,6.66,0,0,1,.2,3.29,10,10,0,0,1-4.33,7,3.69,3.69,0,0,1-3.12.64,4.45,4.45,0,0,1-2.48-3.33A10.17,10.17,0,0,1,602.36,231.57Z"/><path class="cls-60" d="M606.14,228.89c-.83.83-1.28,2-2.07,2.78-.56.57-.91,1.41-1.86.45l0,0c.06-.17.11-.34.18-.51,1.06-2.72,3.2-4.94,6.24-4.34A7,7,0,0,0,606.14,228.89Z"/><path id="Path_350-5" data-name="Path 350-5" class="cls-64" d="M568.89,231a22.51,22.51,0,0,1-1.21,6.7c-1.16,2.89-2.19,4.75,2.52,4.49"/><path id="Path_351-5" data-name="Path 351-5" class="cls-65" d="M582.25,223s-5.18-3.35-10-.33"/><path id="Path_351-5-2" data-name="Path 351-5" class="cls-65" d="M561.06,224.69s-5-1.2-7.08,2.57"/><ellipse id="Oval-3" class="cls-66" cx="558.85" cy="235.58" rx="6.87" ry="6.88" transform="translate(-32.32 100.21) rotate(-9.96)"/><ellipse id="Oval_Copy_3" data-name="Oval Copy 3" class="cls-66" cx="577.3" cy="232.75" rx="6.87" ry="6.88" transform="translate(-31.56 103.36) rotate(-9.96)"/><path id="Path_63" data-name="Path 63" class="cls-66" d="M583.15,229.13,605.76,222"/><path id="Path_64" data-name="Path 64" class="cls-66" d="M565,232.55l5.41-.69"/><path class="cls-67" d="M462.93,328.66s.43-8.3,9-10,23.63,5.58,23.63,5.58l42.2,29.41-1.26,3.63-42.81-6-3.93,1.51L459.7,333l-28.38-20.52,3.14-2.47s8,5.48,13.21,7.84S460.56,324.38,462.93,328.66Z"/><path class="cls-68" d="M538.45,358.47l-35.71-22.18L465,330.23a5.22,5.22,0,0,1-5.1,2.07h0l-31-21.49-.58,1.3,60.19,42.28a5.18,5.18,0,0,0,5.25-1Z"/><path class="cls-69" d="M465,330.23s.09.09.29.23.51.38.87.63c.76.55,1.85,1.34,3.19,2.34,2.67,2,6.31,4.83,10.25,8.05s7.46,6.21,10,8.38l3,2.59.82.69a1.44,1.44,0,0,0,.3.23,2.3,2.3,0,0,0-.26-.28l-.78-.74c-.68-.64-1.67-1.55-2.92-2.66-2.49-2.23-6-5.24-9.94-8.47s-7.61-6-10.33-8c-1.35-1-2.47-1.74-3.25-2.25l-.91-.58A1.42,1.42,0,0,0,465,330.23Z"/><path class="cls-70" d="M465.38,325.61c3.42-3.67,8.81-5,13.81-4.59s9.76,2.26,14.43,4.11L537.3,355l-.39,1.13L493,326.42s-9.8-3.17-14.15-3.7A23.21,23.21,0,0,0,465.38,325.61Z"/><path class="cls-70" d="M458.53,329.54l-21-14.16S454.74,324.32,458.53,329.54Z"/><path class="cls-69" d="M537.3,355l-.18-.14-.54-.39L534.49,353l-7.74-5.36-25.61-17.58L493.71,325h0a52.72,52.72,0,0,0-13.28-4,19.91,19.91,0,0,0-10.89,1.53,13.63,13.63,0,0,0-3.49,2.35,10.2,10.2,0,0,0-1.94,2.47,8.27,8.27,0,0,0-.76,1.82c-.05.21-.08.37-.11.5s0,.17,0,.17a9.57,9.57,0,0,1,1-2.44,10.14,10.14,0,0,1,2-2.4,13.57,13.57,0,0,1,3.46-2.28,19.79,19.79,0,0,1,10.76-1.44,52.94,52.94,0,0,1,13.2,4l0,0,7.43,5.09,25.66,17.5,7.79,5.28c.92.6,1.63,1.08,2.13,1.42l.56.36Z"/><path class="cls-69" d="M499.06,332.42a1.22,1.22,0,0,0-.33-.2c-.22-.12-.54-.3-1-.52-.85-.44-2.1-1.06-3.66-1.77A48,48,0,0,0,481.28,326,28,28,0,0,0,468,327.22a20.16,20.16,0,0,0-3.67,1.76c-.42.24-.71.48-.93.62a2.15,2.15,0,0,0-.3.23s.46-.26,1.29-.73a22.54,22.54,0,0,1,3.69-1.66,28.64,28.64,0,0,1,13.17-1.11A50.86,50.86,0,0,1,494,330.14c1.58.68,2.83,1.27,3.7,1.68l1,.46Z"/><path class="cls-69" d="M432.45,311.63s.09.08.27.21l.82.54,3,1.95c2.56,1.64,6.1,3.92,10,6.47s7.36,4.9,9.88,6.6l3,2,.82.54a1.26,1.26,0,0,0,.3.17s-.08-.09-.26-.22l-.79-.59c-.68-.51-1.68-1.22-2.93-2.1-2.49-1.75-5.95-4.13-9.83-6.69s-7.44-4.79-10-6.38c-1.29-.8-2.35-1.44-3.08-1.87-.35-.19-.63-.36-.85-.49A1.88,1.88,0,0,0,432.45,311.63Z"/><path class="cls-4" d="M451.55,334.37a15,15,0,0,0,1.63,2.92c.81,1,3.45,2.3,3.66,4.13s-.22,6.11,2.64,9.37a16.07,16.07,0,0,0,6.77,4.4l11.27-1.1,18-7.09a1.57,1.57,0,0,0,1.15-1.89,2.26,2.26,0,0,0-1.87-1.69l-.43-.07s1-.85-.45-2.33c-1.28-1.29-4-.56-5.35-.09s-9.55,3.87-11,4.39c-1.29.46-2.29.87-2.29.87s10.44-7,10.58-8a2,2,0,0,0-1-2.39c-1.25-.91-3.33.07-5.34.91-1.5.63-11.06,5.35-11.06,5.35s-.42-.41,0-1.27,3.61-4.93,4.1-5.68.63-1.18.14-1.82c-.7-.91-2.55-1.34-4.22.2-1.07,1-4.87,3.55-4.87,3.55L446,324.28s-2.19,0-1.43,3S451.55,334.37,451.55,334.37Z"/><path class="cls-4" d="M464.62,345a3.48,3.48,0,0,0,1.9-.95,3.38,3.38,0,0,0,1.25-1.7c-.08-.05-.59.73-1.46,1.45S464.59,344.94,464.62,345Z"/><path class="cls-4" d="M463.19,337.4s-.23-.11-.61-.06a2.69,2.69,0,0,0-1.35.6,2.64,2.64,0,0,0-.85,1.22c-.12.36-.1.6-.06.61a4.94,4.94,0,0,1,1.11-1.57A5,5,0,0,1,463.19,337.4Z"/><path class="cls-4" d="M462.36,340.92c.1,0,.14-.94.51-2s.9-1.86.82-1.92a3.61,3.61,0,0,0-1.13,1.82A3.47,3.47,0,0,0,462.36,340.92Z"/><path class="cls-4" d="M452,333.46s.23-.1.45-.4a2.89,2.89,0,0,0,.53-1.37,2.94,2.94,0,0,0-.21-1.44c-.15-.35-.32-.52-.35-.49a6.39,6.39,0,0,1,.23,1.9A6.11,6.11,0,0,1,452,333.46Z"/><path class="cls-4" d="M467.84,349.44a2.71,2.71,0,0,0,1.23,0,8.34,8.34,0,0,0,2.78-1,15.51,15.51,0,0,0,2.39-1.74,4.5,4.5,0,0,0,.87-.86,4.45,4.45,0,0,0-1,.68,25.93,25.93,0,0,1-2.41,1.63,10.21,10.21,0,0,1-2.67,1.1C468.3,349.37,467.84,349.39,467.84,349.44Z"/><path class="cls-4" d="M464.9,347.64c-.09,0-.09.63.44,1.15s1.17.5,1.16.41-.5-.21-.93-.65S465,347.62,464.9,347.64Z"/><path class="cls-4" d="M460.6,344.47s0,.18.08.4a1.63,1.63,0,0,0,1.67.8c.25-.06.37-.15.36-.19s-.59,0-1.18-.25S460.68,344.44,460.6,344.47Z"/><path class="cls-4" d="M475.78,351.65c0,.08,4.23-1.67,9.36-3.91s9.26-4.12,9.23-4.21-4.23,1.67-9.36,3.91S475.74,351.57,475.78,351.65Z"/></g></g></g></svg>