<svg xmlns="http://www.w3.org/2000/svg" xmlns:xlink="http://www.w3.org/1999/xlink" viewBox="0 0 675.35 486.82" xmlns:v="https://vecta.io/nano"><style><![CDATA[.q{fill:none}.r{stroke-width:.5}.s{fill:#e59f39}.t{stroke-miterlimit:10}.u{fill:#fff}.v{stroke:#061537}.w{fill:#45aa92}.x{fill:#eab054}.y{fill:#f7cc7f}.z{fill:#ffd3c8}.AA{fill:#56d4b7}.AB{fill:#3c8f7c}.AC{fill:#50bfa5}.AD{fill:#f1b2a2}.AE{stroke-linecap:round}.AF{stroke:#301913}.AG{fill:#df775d}]]></style><defs><clipPath id="A"><path d="M239.41,102.09a2,2,0,0,1,.32,1.08v21.08c-2.11,15-8.56,22-16.91,21.28l.29,6.08a22,22,0,0,1,.27,4c-.27,2.29-1.28,4.34-1.55,6.93a12.88,12.88,0,0,1-6.8,9.33,9.34,9.34,0,0,1-4.3-.2c-11.39-3.18-12.45-19.16-12.45-19.16s1.87-1.08,2.19-7.74.11-22.12.11-22.12-2.52-.89-3.06-6,1.4-6,3.39-5.88,4.1,4.57,4.46,8.11c3.19,1.77,2.1-2.2,2.3-6.81s5.37-4.45,6.35-7.32a22.41,22.41,0,0,0,.82-7.47,30.46,30.46,0,0,0,21-.59Z" class="q"/></clipPath><clipPath id="B"><path d="M408.84,415.79l6.61,16.26-9.21,12.85s-6.16,4.72-9.64,3.19-8.17-11.77-8.17-11.77l-5.22-10.93Z" class="q"/></clipPath><clipPath id="C"><path d="M389.85 442l7-1.19c11-1.72 18.1-9 17.22-12.53 0 0 42.74-6.77 44.3 10.79l-59.48 21.65a2.82 2.82 0 0 1-3.63-1.69.76.76 0 0 1 0-.11z" class="q"/></clipPath><clipPath id="D"><path d="M364,428.81l.65,17.54-13,8.93s-8,.53-10.78-2.1-3-12-3-12l-1.17-12.07Z" class="q"/></clipPath><clipPath id="E"><path d="M336.58 446.81l7.63 1.37c10.92 2.15 20.08-2.22 20.46-5.88 0 0 42.49 8.25 37.95 25.29h-63.38a2.84 2.84 0 0 1-2.84-2.83h0z" class="q"/></clipPath><clipPath id="F"><path d="M356.18 288.16s21.42-2.62 33 39.91l26.21 91-34.92 9.45-70.7-130.07s-14.34 2.9-16.45 0 9-10.27 9-10.27z" class="q"/></clipPath><clipPath id="G"><path d="M184.89,321.86s11.17,38.24,138.38,24.08c0,0,4.71.44,4.49,11.34s2.62,74.82,2.62,74.82h38.53S373.86,323,363,308.93s-121.34-14.05-121.34-14.05l-51.44,23.93Z" class="q"/></clipPath><clipPath id="H"><path d="M195.4,154s-36.75,6.56-40.44,48.24-9,90.12,9.12,94.67S236,298.7,236,298.7l27.51-13.16,48.27-3.05V259.06s-19.28,1.56-22.12-1.52-24.08-81.23-36-86.52c0,0-8.54-11.05-20.19-13.32-3-.58-11.1-1.61-11.1-1.61s-2.77,3.47-4.66,3.33-5.17-4.08-5.17-4.08Z" class="q"/></clipPath><clipPath id="I"><path d="M243.54 295.54l48.76.95 19.48-2.45.04-3.38 34.14-7.2-27.58-1.5-39.61.55-35.23 13.03z" class="q"/></clipPath><path id="J" d="M331.62 428.35c0 2.67-35.38 4.83-79 4.83s-79-2.16-79-4.83 35.38-4.84 79-4.84 79 2.17 79 4.84z"/></defs><path d="M504.43 0h58.88v455.77h-58.88zM422.2 139.02h58.88v316.75H422.2zm165.64-40.27h58.88v357.02h-58.88zM339.96 84.71h58.88v371.06h-58.88zm-82.23 110.01h58.88v261.04h-58.88z" fill="#c4eaff"/><path d="M504.43 105.04h58.88v350.72h-58.88zM422.2 212.02h58.88v243.74H422.2zm165.64-30.99h58.88v274.74h-58.88zm-247.88-10.81h58.88v285.54h-58.88zm-82.23 84.67h58.88v200.88h-58.88z" fill="#7fc1ff"/><path d="M675.35 3.49l-46.92 35.48 17.9 1.14-112.01 197.13-62.01-92.98-87.73 204.63-56.43-80.15-70.33 99.42 4.43 17.79 65.87-92.67L387.77 378l87.41-203.87 60.17 90.21 124-218.24 11.51 12.38 4.49-54.99z" fill="#3e6c98"/><path d="M302.06 324c-67.33-53.62-123.9-123-166.74-204.4L42.72 194c49.52 94.13 114.93 174.31 192.78 236.3q33.28-53.16 66.56-106.3z" class="w"/><path d="M120.82 139L63.3 186c4.56 8.51 2.91 20-3.9 25.82 43.54 77 98.11 143.87 161.65 198.15 5.19-7.8 15-9.31 22-3.6l42-66c-6.48-5.26-7.4-16-2.21-23.79-55.8-47.66-103.71-106.39-141.94-174-6.81 5.78-15.9 4.28-20.08-3.58z" class="AA"/><path d="M198.32,315c14.37-18.55,14.24-45.92.67-62.29s-36.82-17.1-52.9-.59-17.58,45.76-2.29,64.15S184,333.53,198.32,315Z" class="w"/><path d="M197.37 262.36l-5.42 6c4.32 7.92 3.4 16.11-1.26 21.46s-10 5.88-18 1.12c-5.83-3.29-8.63-4.26-10.41-2.34-1.5 1.63-2 4.58 1.19 8.61a22.05 22.05 0 0 0 5 4.67 5.41 5.41 0 0 1 1.43 6.86h0c-1.22 2.3-3.79 3.07-5.76 1.66a30.57 30.57 0 0 1-5.25-4.88l-4.69 5.18q-2.46-3.09-4.88-6.19l5.1-5.53c-4.13-8-3.31-15.9 1.48-20.93 5.29-5.55 11.41-3.85 18.42.55 4.86 3 7.67 3.51 9.69 1.27s1.43-6-1.24-9.38a24.1 24.1 0 0 0-6.07-5.45c-2.06-1.3-2.62-4.47-1.24-6.85l.16-.26c1.26-2.16 3.66-2.89 5.49-1.69a32.34 32.34 0 0 1 6.66 5.92l5.08-5.55q2.24 2.9 4.52 5.75z" class="AB"/><path d="M251.36,362.75Q228.35,343,207,321l-7.3,9.49q21.6,22.31,44.95,42.31Z" class="AC"/><path d="M288.34,302.36c-84.58-10.72-167.52-39-244.46-83.4Q21.94,270.38,0,321.78c89,51.31,184.86,84,282.64,96.42Z" class="w"/><path d="M40.82 241.25q-13.44 32.22-26.9 64.45c8.13 4.6 12.31 14.5 9.26 22.34 75.38 40.51 155.37 67.8 237 80.84.69-8.64 8.43-14.47 17.32-13.27q2.06-36.11 4.1-72.23c-8.18-1.11-14.24-9.19-13.55-17.83-71.66-11.45-141.91-35.42-208.1-71-3.07 7.84-11.65 10.93-19.13 6.7z" class="AA"/><path d="M194 344.28c3.38-21.51-10.12-43.17-29.88-49.76s-40.28 3.84-46.13 24.54 7.14 44.63 29.38 52 43.29-5.3 46.63-26.78z" class="w"/><path d="M167.47 303l-1.76 7.34c7.62 4.24 10.83 11.17 9.41 17.62s-5.77 9.38-15.05 9.4c-6.66.14-9.57.69-10.17 3.06-.51 2 .5 4.58 5.24 6.27a22.65 22.65 0 0 0 6.61 1.35 5 5 0 0 1 4.59 4.77h0a3.82 3.82 0 0 1-4.17 4 32 32 0 0 1-6.94-1.39q-.78 3.16-1.54 6.32-3.63-1.28-7.26-2.6.87-3.4 1.72-6.8c-7.47-4.38-10.64-11.06-8.94-17.31 1.86-6.91 8-8.45 16.22-8.27 5.7.11 8.37-.84 9-3.57s-1.68-5.42-5.66-6.86a24.79 24.79 0 0 0-7.92-1.45 4.78 4.78 0 0 1-4.42-4.86v-.28a3.84 3.84 0 0 1 3.94-3.94 33.71 33.71 0 0 1 8.66 1.56l1.7-6.81 6.74 2.45z" class="AB"/><path d="M266.42,321.35c-66.54,26.29-140,38.31-216.38,35.42q7.6,48.78,15.22,97.56c88.36,3.34,173.24-10.56,250.18-40.95Z" class="w"/><path d="M58 375.28q5 30.45 10 60.9c8 .24 15.62 6.2 17 13.51 73.51.54 144.32-11.05 209.76-34.33-3.47-7-.5-14.66 6.53-17.36q-15.07-28.81-30.17-57.61c-6.47 2.49-14.59-1.29-18-8.26-57.47 20.44-119.65 30.62-184.2 30.15 1.34 7.31-3.49 13.22-10.92 13z" class="AA"/><path d="M217,392.38c-7.41-18-27.19-29.29-44.61-26.3S144.77,385.52,150,404s25.69,31.63,45.27,28.24S224.36,410.4,217,392.38Z" class="AC"/><path d="M178.63 371.25l2.09 6.4c7.5.17 13 4.22 14.94 9.79s.1 9.63-6.65 13.44c-4.79 2.84-6.66 4.45-6 6.53.54 1.76 2.46 3.34 6.69 2.71a18 18 0 0 0 5.43-1.66 4.48 4.48 0 0 1 5.53 1.82h0a3.21 3.21 0 0 1-1.18 4.83 25.81 25.81 0 0 1-5.69 1.77l1.78 5.52q-3.24.5-6.48 1-.94-3-1.87-6c-7.46-.33-12.83-4.2-14.46-9.74-1.81-6.11 2-9.81 8-13 4.2-2.25 5.72-4.08 4.94-6.46s-3.71-3.5-7.28-3a19.92 19.92 0 0 0-6.44 2.11c-1.79.95-4.31 0-5.45-1.95l-.12-.21a3.24 3.24 0 0 1 1.06-4.66 26.67 26.67 0 0 1 7-2.34l-1.89-6 6.05-.9z" class="AB"/><path d="M273.34,374q-23.74,8.42-48.43,14.64l3.81,9.19q25-6.3,49.11-14.84Z" class="AC"/><path d="M156.64,428.6v23.82c0,3.85,43,7,96,7s96-3.13,96-7V428.6Z" class="s"/><path d="M226.08 459.13V428.6h-69.44v23.82c0 3.19 29.36 5.87 69.44 6.71zm3.24.06l23.28.21 34-.45V428.6h-57.28zm61.11-.36c34.19-1.06 58.13-3.53 58.13-6.41V428.6h-58.13z" class="x"/><ellipse cx="252.6" cy="428.35" rx="95.96" ry="6.97" class="s"/><use xlink:href="#J" class="y"/><path d="M140.22,403.39v23.82c0,3.85,43,7,96,7s96-3.13,96-7V403.39Z" class="s"/><path d="M209.67 433.92v-30.53h-69.45v23.82c0 3.19 29.34 5.87 69.45 6.71zm3.23.08l23.28.21 34-.45v-30.37H212.9zm61.1-.38c34.19-1.06 58.13-3.53 58.13-6.41v-23.82H274z" class="x"/><ellipse cx="236.18" cy="403.14" rx="95.96" ry="6.97" class="s"/><use xlink:href="#J" x="-16.42" y="-25.21" class="y"/><path d="M151.16,377.51v23.82c0,3.86,43,7,96,7s96-3.12,96-7V377.51Z" class="s"/><path d="M220.6 408v-30.49h-69.44v23.82c0 3.19 29.34 5.87 69.44 6.67zm3.24.1l23.28.21 34-.45v-30.35h-57.28zm61.16-.36c34.19-1.06 58.13-3.53 58.13-6.41v-23.82H285z" class="x"/><ellipse cx="247.12" cy="377.26" rx="95.96" ry="6.97" class="s"/><use xlink:href="#J" x="-5.48" y="-51.09" class="y"/><path d="M140.22,352v23.82c0,3.85,43,7,96,7s96-3.12,96-7V352Z" class="s"/><path d="M209.67 382.51V352h-69.45v23.82c0 3.18 29.34 5.86 69.45 6.69zm3.23.07l23.28.2 34-.45V352H212.9zm61.1-.36c34.19-1.07 58.13-3.54 58.13-6.41V352H274z" class="x"/><ellipse cx="236.18" cy="351.73" rx="95.96" ry="6.97" class="s"/><path d="M315.2 351.73c0 2.67-35.38 4.84-79 4.84s-79-2.17-79-4.84 35.38-4.83 79-4.83 79 2.16 79 4.83z" class="y"/><path d="M302.17 272.26a3.55 3.55 0 1 1-3.28-4.21 3.8 3.8 0 0 1 3.28 4.21z" class="u"/><path d="M238.85,121.77s2.12-7.3,3.07-11.24a35.6,35.6,0,0,0-.13-10.71s6-7.75,4.39-12.74c-4.36-13.54-17.15-13.3-40.92-3.59a7.49,7.49,0,0,0-5,8.45,11.51,11.51,0,0,0-9.09,7.9c-2.53,7.24,2.17,22.47,4.88,27.72a62.6,62.6,0,0,0,7,10.22Z" fill="#4c2603"/><path d="M239.41,102.09a2,2,0,0,1,.32,1.08v21.08c-2.11,15-8.56,22-16.91,21.28l.29,6.08a22,22,0,0,1,.27,4c-.27,2.29-1.28,4.34-1.55,6.93a12.88,12.88,0,0,1-6.8,9.33,9.34,9.34,0,0,1-4.3-.2c-11.39-3.18-12.45-19.16-12.45-19.16s1.87-1.08,2.19-7.74.11-22.12.11-22.12-2.52-.89-3.06-6,1.4-6,3.39-5.88,4.1,4.57,4.46,8.11c3.19,1.77,2.1-2.2,2.3-6.81s5.37-4.45,6.35-7.32a22.41,22.41,0,0,0,.82-7.47,30.46,30.46,0,0,0,21-.59Z" class="z"/><g clip-path="url(#A)" class="AD"><path d="M224.09 145.69s-12.37-1.62-15.47-10.71c0 0 3.46 16.49 13.7 19.85s1.77-9.14 1.77-9.14z"/></g><path d="M221.18 109.74a7.39 7.39 0 0 1 6.93 0m7.28 1.09a6.29 6.29 0 0 1 5-1.12" class="q t v AE"/><circle cx="226.13" cy="115.69" r=".99" fill="#061537"/><path d="M227.18,115.9a3.27,3.27,0,0,0-3.91.12" class="q r t v"/><circle cx="238.01" cy="115.69" r=".99" fill="#061537"/><g class="q r t v"><path d="M239.29,115.87a3.27,3.27,0,0,0-3.9.18"/><path d="M231.64,113.71a18.57,18.57,0,0,0,1.19,6.51c2.75,5.39,4.76,12.23-5.71,8.08" class="AE"/></g><path d="M230.77 136.5c-2.73.26-5.63-3.95-5.63-3.95a24.67 24.67 0 0 0 5.63 1.39 11.18 11.18 0 0 0 4.27-1.39s-1.54 3.7-4.27 3.95z" class="r t u v"/><g class="q r v"><ellipse cx="239.99" cy="116.69" rx="5.94" ry="5.95"/><ellipse cx="225.14" cy="116.69" rx="5.94" ry="5.95"/><path d="M219.2 114.71l-14.85-2m29.7 2.34l-4 .29" class="t AE"/></g><path d="M408.84,415.79l6.61,16.26-9.21,12.85s-6.16,4.72-9.64,3.19-8.17-11.77-8.17-11.77l-5.22-10.93Z" class="z"/><g clip-path="url(#B)" class="AD"><path d="M416,413.19l-29.24,23.75-4.74-13Z"/></g><path d="M389.85 442l7-1.19c11-1.72 18.1-9 17.22-12.53 0 0 42.74-6.77 44.3 10.79l-59.48 21.65a2.82 2.82 0 0 1-3.63-1.69.76.76 0 0 1 0-.11z" fill="#2a3756"/><g clip-path="url(#C)" class="u"><path d="M388.418 459.801l79.15-28.808 8.079 22.196-79.15 28.808z"/></g><path d="M364,428.81l.65,17.54-13,8.93s-8,.53-10.78-2.1-3-12-3-12l-1.17-12.07Z" class="z"/><g clip-path="url(#D)" class="AD"><path d="M371.61,428.81,336,441.13V427.28Z"/></g><path d="M336.58 446.81l7.63 1.37c10.92 2.15 20.08-2.22 20.46-5.88 0 0 42.49 8.25 37.95 25.29h-63.38a2.84 2.84 0 0 1-2.84-2.83h0z" fill="#2a3756"/><g clip-path="url(#E)" class="u"><path d="M329.75 463.19h84.23v23.62h-84.23z"/></g><path d="M356.18 288.16s21.42-2.62 33 39.91l26.21 91-34.92 9.45-70.7-130.07s-14.34 2.9-16.45 0 9-10.27 9-10.27z" fill="#955454"/><g clip-path="url(#F)"><path d="M362.58 288.16s-8.16 4-8.16 9.64 6.06 9 6.06 9l65.23 127.4-49.71 5.34-13.4-35.31-24.6-83.69-50.58-24.32 52.94-11.61z" fill="#824848"/></g><path d="M184.89,321.86s11.17,38.24,138.38,24.08c0,0,4.71.44,4.49,11.34s2.62,74.82,2.62,74.82h38.53S373.86,323,363,308.93s-121.34-14.05-121.34-14.05l-51.44,23.93Z" fill="#955454"/><g clip-path="url(#G)"><path d="M252.61 296.22s-27.38 35.61 11.17 32 75.16-4.83 76.54 28.21l2.88 80.44-24.6-2.71-10.6-77.68s-93.19 27.87-121.11-6.91S175 319.09 175 319.09l71-31.58z" fill="#824848"/></g><g class="q r t AF"><path d="M411.52 410.54l-35.11 10.33-6.53-11.87.58-53.38c-.46-28.66-2.92-44.88-9.76-48.89-15.38-9-66-10.46-66-10.46l-52.17-1.34m125.7 130.58h-37.89L328 359.83c0-12.11-3.87-14-3.87-14s12.88 4.7 19.61-2.86m-19.61 2.84a19 19 0 0 0 16.19-10"/><path d="M214.19,309.28s14.28,18.8,76.19,15.41,62.08,5.64,60.11,100.82"/></g><path d="M177.34,299.76s-.7,22.17,6.9,24.94l52.87-27.27H176.18Z" class="AG"/><path d="M195.4,154s-36.75,6.56-40.44,48.24-9,90.12,9.12,94.67S236,298.7,236,298.7l27.51-13.16,48.27-3.05V259.06s-19.28,1.56-22.12-1.52-24.08-81.23-36-86.52c0,0-8.54-11.05-20.19-13.32-3-.58-11.1-1.61-11.1-1.61s-2.77,3.47-4.66,3.33-5.17-4.08-5.17-4.08Z" fill="#ff9378"/><g clip-path="url(#H)"><g class="AG"><path d="M185.89 169a79.2 79.2 0 0 1 22.5 61.79c-3.15 38.45 56.81 33.17 53.65 6.47l2.12 47.37-27.9-1.63v-7.67s-21-.6-30.73-1.59a201.83 201.83 0 0 1-21.29-3.64s6-34.51 8-51.24-.72-37.62-.72-37.62a42.22 42.22 0 0 0-2-6.6 37.46 37.46 0 0 0-3.63-5.64zm-16.37-4.76s-7.83 15.53-9.2 25.07c-8.53 59.38-4.28 96.46 3.85 99.78 14.18 5.79 72.52 4.05 72.52 4.05l.42 11.23-89.61 2.44-10.94-88.06 27.61-52.1z"/></g><path d="M227.94 274.97h8.52v23.62h-8.52z" class="u"/><path d="M254,171l15.8,5.69,28.8,80,36.89-3.59-10.72,37-64.05-5.47,3.08-17.36-1.38-24s-1.3-26.85-2.73-39.18S254,171,254,171Z" class="AG"/></g><path d="M254 171s8.54 36.64 9.8 114.52m11.63-28.81c8.59-4.39 14.26.83 14.26.83s-13.3 1.59-12 13.76M175 298.43c17.66 2.2 61.24 0 61.24 0v-23.14s-45.73-1.38-52-5.23c0 0 17.45-88.78 1-100.75M175 281.6c-4.22-9.1 9.22-11.55 9.22-11.55s-.6-2.12-10-3.18" class="q r t AF"/><g class="u"><path d="M199.75 149.86a20.18 20.18 0 0 0 9.82 4.7 12.29 12.29 0 0 1 8.21 4.86s-2.82.19-2.82 5.88a7 7 0 0 1-4.4 7 112 112 0 0 0-6.74-10.13 96.81 96.81 0 0 0-8.5-8.2 5.63 5.63 0 0 0 3.13-2.19 5.93 5.93 0 0 1 1.3-1.92z"/><path d="M223.1 151.57s.09 6.47-5.32 7.85a24.2 24.2 0 0 1 6.42 2.71 53.4 53.4 0 0 1 6.34 7.18 29.1 29.1 0 0 0-1.74-12c-2.34-6.01-5.7-5.74-5.7-5.74z"/><path d="M215.58 161s2.1-1 3.21 1.88c0 0 .31-3.13 2.6-2.45l-.47-1.58a22.49 22.49 0 0 1-4 .54 8.23 8.23 0 0 1-1.91-.22c-2.85-.77.57 1.83.57 1.83z"/></g><path d="M243.54 295.54l48.76.95 19.48-2.49v-3.38l34.14-7.2-27.54-1.42-39.61.55z" fill="#d2d2d2"/><g clip-path="url(#I)"><path d="M243.63 291.21h49.21v5.67h-49.21z" fill="#989797"/></g><path d="M369.21,288.16h0a5.25,5.25,0,0,1-5,5.24l-72,3.15v-7.1Z" fill="#cfcccc"/><path d="M313.21,220.54l78.43,1.62,1.89,1.89-24.6,64.32L290.38,291Z" fill="#d5d5d5"/><path d="M315.11,222.43l78.42,1.62-22.71,64.32L292.27,291Z" fill="#e3e3e3"/><circle cx="347.25" cy="255.77" r="5.2" class="u"/><path d="M236.26,293.43s19.79,4.34,26.15-4.34c0,0,6.66-2.24,7.26-3.12s8,6.57,10.38,5.94,2.8-3.83-2.19-7c0,0,7.44,5.12,8.82,4.91s3.12-.91,2.26-1.95c0,0,2.66.45,2.31-.63S273.3,274,270.31,274a7,7,0,0,0-6.83-1.54c-4.07,1.24-27.1,9.6-27.1,9.6Z" class="z"/><path d="M279.66 286.25s-8.47-6.4-10.08-6.4a51.38 51.38 0 0 0-8.39 2.73m28.09 4.92s-16.78-12.63-20.66-12.12a54.15 54.15 0 0 0-8.95 2.29m10.64-3.67s-3.49-1.63-10.2.75" class="q r t AF"/></svg>