<svg xmlns="http://www.w3.org/2000/svg" xmlns:xlink="http://www.w3.org/1999/xlink" viewBox="0 0 675.35 486.82"><defs><style>.cls-1,.cls-17,.cls-18,.cls-20,.cls-21,.cls-22,.cls-33{fill:none;}.cls-2{fill:#c4eaff;}.cls-3{fill:#7fc1ff;}.cls-4{fill:#3e6c98;}.cls-5{fill:#45aa92;}.cls-6{fill:#56d4b7;}.cls-7{fill:#3c8f7c;}.cls-8{fill:#50bfa5;}.cls-9{fill:#e59f39;}.cls-10{fill:#eab054;}.cls-11{fill:#f7cc7f;}.cls-12,.cls-23{fill:#fff;}.cls-13{fill:#4c2603;}.cls-14{fill:#ffd3c8;}.cls-15{clip-path:url(#clip-path);}.cls-16{fill:#f1b2a2;}.cls-17,.cls-18,.cls-20,.cls-21,.cls-22,.cls-23{stroke:#061537;}.cls-17,.cls-18,.cls-22,.cls-23{stroke-linecap:round;}.cls-17,.cls-22,.cls-23,.cls-33{stroke-miterlimit:10;}.cls-17{stroke-width:1px;}.cls-18{stroke-miterlimit:10;stroke-width:1px;}.cls-19{fill:#061537;}.cls-20{stroke-miterlimit:10;stroke-width:0.5px;}.cls-21{stroke-miterlimit:10;stroke-width:0.5px;}.cls-22,.cls-23,.cls-33{stroke-width:0.5px;}.cls-24{clip-path:url(#clip-path-2);}.cls-25{fill:#2a3756;}.cls-26{clip-path:url(#clip-path-3);}.cls-27{clip-path:url(#clip-path-4);}.cls-28{clip-path:url(#clip-path-5);}.cls-29{fill:#955454;}.cls-30{clip-path:url(#clip-path-6);}.cls-31{fill:#824848;}.cls-32{clip-path:url(#clip-path-7);}.cls-33{stroke:#301913;}.cls-34{fill:#df775d;}.cls-35{fill:#ff9378;}.cls-36{clip-path:url(#clip-path-8);}.cls-37{fill:#d2d2d2;}.cls-38{clip-path:url(#clip-path-9);}.cls-39{fill:#989797;}.cls-40{fill:#cfcccc;}.cls-41{fill:#d5d5d5;}.cls-42{fill:#e3e3e3;}</style><clipPath id="clip-path"><path class="cls-1" d="M239.41,102.09a2,2,0,0,1,.32,1.08v21.08c-2.11,15-8.56,22-16.91,21.28l.29,6.08a22,22,0,0,1,.27,4c-.27,2.29-1.28,4.34-1.55,6.93a12.88,12.88,0,0,1-6.8,9.33,9.34,9.34,0,0,1-4.3-.2c-11.39-3.18-12.45-19.16-12.45-19.16s1.87-1.08,2.19-7.74.11-22.12.11-22.12-2.52-.89-3.06-6,1.4-6,3.39-5.88,4.1,4.57,4.46,8.11c3.19,1.77,2.1-2.2,2.3-6.81s5.37-4.45,6.35-7.32a22.41,22.41,0,0,0,.82-7.47,30.46,30.46,0,0,0,21-.59Z"/></clipPath><clipPath id="clip-path-2"><path class="cls-1" d="M408.84,415.79l6.61,16.26-9.21,12.85s-6.16,4.72-9.64,3.19-8.17-11.77-8.17-11.77l-5.22-10.93Z"/></clipPath><clipPath id="clip-path-3"><path class="cls-1" d="M389.85,442s3.3-.61,7-1.19c11-1.72,18.1-9,17.22-12.53,0,0,42.74-6.77,44.3,10.79l-59.48,21.65a2.82,2.82,0,0,1-3.63-1.69.76.76,0,0,1,0-.11Z"/></clipPath><clipPath id="clip-path-4"><path class="cls-1" d="M364,428.81l.65,17.54-13,8.93s-8,.53-10.78-2.1-3-12-3-12l-1.17-12.07Z"/></clipPath><clipPath id="clip-path-5"><path class="cls-1" d="M336.58,446.81s3.93.64,7.63,1.37c10.92,2.15,20.08-2.22,20.46-5.88,0,0,42.49,8.25,37.95,25.29H339.24a2.84,2.84,0,0,1-2.84-2.83v0Z"/></clipPath><clipPath id="clip-path-6"><path class="cls-1" d="M356.18,288.16s21.42-2.62,33,39.91,26.21,91,26.21,91l-34.92,9.45-70.7-130.07s-14.34,2.9-16.45,0,9-10.27,9-10.27Z"/></clipPath><clipPath id="clip-path-7"><path class="cls-1" d="M184.89,321.86s11.17,38.24,138.38,24.08c0,0,4.71.44,4.49,11.34s2.62,74.82,2.62,74.82h38.53S373.86,323,363,308.93s-121.34-14.05-121.34-14.05l-51.44,23.93Z"/></clipPath><clipPath id="clip-path-8"><path class="cls-1" d="M195.4,154s-36.75,6.56-40.44,48.24-9,90.12,9.12,94.67S236,298.7,236,298.7l27.51-13.16,48.27-3.05V259.06s-19.28,1.56-22.12-1.52-24.08-81.23-36-86.52c0,0-8.54-11.05-20.19-13.32-3-.58-11.1-1.61-11.1-1.61s-2.77,3.47-4.66,3.33-5.17-4.08-5.17-4.08Z"/></clipPath><clipPath id="clip-path-9"><polygon class="cls-1" points="243.54 295.54 292.3 296.49 311.78 294.04 311.82 290.66 345.96 283.46 318.38 281.96 278.77 282.51 243.54 295.54"/></clipPath></defs><g id="Layer_2" data-name="Layer 2"><g id="_6" data-name="6"><rect class="cls-2" x="504.43" width="58.88" height="455.77"/><rect class="cls-2" x="422.2" y="139.02" width="58.88" height="316.75"/><rect class="cls-2" x="587.84" y="98.75" width="58.88" height="357.02"/><rect class="cls-2" x="339.96" y="84.71" width="58.88" height="371.06"/><rect class="cls-2" x="257.73" y="194.72" width="58.88" height="261.04"/><rect class="cls-3" x="504.43" y="105.04" width="58.88" height="350.72"/><rect class="cls-3" x="422.2" y="212.02" width="58.88" height="243.74"/><rect class="cls-3" x="587.84" y="181.03" width="58.88" height="274.74"/><rect class="cls-3" x="339.96" y="170.22" width="58.88" height="285.54"/><rect class="cls-3" x="257.73" y="254.89" width="58.88" height="200.88"/><polygon class="cls-4" points="675.35 3.49 628.43 38.97 646.33 40.11 534.32 237.24 472.31 144.26 384.58 348.89 328.15 268.74 257.82 368.16 262.25 385.95 328.12 293.28 387.77 378 475.18 174.13 535.35 264.34 659.35 46.1 670.86 58.48 675.35 3.49"/><path class="cls-5" d="M302.06,324c-67.33-53.62-123.9-123-166.74-204.4L42.72,194C92.24,288.13,157.65,368.31,235.5,430.3Q268.78,377.14,302.06,324Z"/><path class="cls-6" d="M120.82,139,63.3,186c4.56,8.51,2.91,20-3.9,25.82,43.54,77,98.11,143.87,161.65,198.15,5.19-7.8,15-9.31,22-3.6l42-66c-6.48-5.26-7.4-16-2.21-23.79-55.8-47.66-103.71-106.39-141.94-174C134.09,148.36,125,146.86,120.82,139Z"/><path class="cls-5" d="M198.32,315c14.37-18.55,14.24-45.92.67-62.29s-36.82-17.1-52.9-.59-17.58,45.76-2.29,64.15S184,333.53,198.32,315Z"/><path class="cls-7" d="M197.37,262.36c-1.81,2-3.62,4-5.42,6,4.32,7.92,3.4,16.11-1.26,21.46s-10,5.88-18,1.12c-5.83-3.29-8.63-4.26-10.41-2.34-1.5,1.63-2,4.58,1.19,8.61a22.05,22.05,0,0,0,5,4.67,5.41,5.41,0,0,1,1.43,6.86h0c-1.22,2.3-3.79,3.07-5.76,1.66a30.57,30.57,0,0,1-5.25-4.88l-4.69,5.18q-2.46-3.09-4.88-6.19l5.1-5.53c-4.13-8-3.31-15.9,1.48-20.93,5.29-5.55,11.41-3.85,18.42.55,4.86,3,7.67,3.51,9.69,1.27s1.43-6-1.24-9.38a24.1,24.1,0,0,0-6.07-5.45c-2.06-1.3-2.62-4.47-1.24-6.85l.16-.26c1.26-2.16,3.66-2.89,5.49-1.69a32.34,32.34,0,0,1,6.66,5.92l5.08-5.55Q195.09,259.51,197.37,262.36Z"/><path class="cls-8" d="M251.36,362.75Q228.35,343,207,321l-7.3,9.49q21.6,22.31,44.95,42.31Z"/><path class="cls-5" d="M288.34,302.36c-84.58-10.72-167.52-39-244.46-83.4Q21.94,270.38,0,321.78c89,51.31,184.86,84,282.64,96.42Z"/><path class="cls-6" d="M40.82,241.25q-13.44,32.22-26.9,64.45c8.13,4.6,12.31,14.5,9.26,22.34,75.38,40.51,155.37,67.8,237,80.84.69-8.64,8.43-14.47,17.32-13.27q2.06-36.11,4.1-72.23c-8.18-1.11-14.24-9.19-13.55-17.83-71.66-11.45-141.91-35.42-208.1-71C56.88,242.39,48.3,245.48,40.82,241.25Z"/><path class="cls-5" d="M194,344.28c3.38-21.51-10.12-43.17-29.88-49.76s-40.28,3.84-46.13,24.54,7.14,44.63,29.38,52S190.66,365.76,194,344.28Z"/><path class="cls-7" d="M167.47,303c-.59,2.45-1.17,4.89-1.76,7.34,7.62,4.24,10.83,11.17,9.41,17.62s-5.77,9.38-15.05,9.4c-6.66.14-9.57.69-10.17,3.06-.51,2,.5,4.58,5.24,6.27a22.65,22.65,0,0,0,6.61,1.35,5,5,0,0,1,4.59,4.77h0a3.82,3.82,0,0,1-4.17,4,32,32,0,0,1-6.94-1.39q-.78,3.16-1.54,6.32-3.63-1.28-7.26-2.6.87-3.4,1.72-6.8c-7.47-4.38-10.64-11.06-8.94-17.31,1.86-6.91,8-8.45,16.22-8.27,5.7.11,8.37-.84,9-3.57s-1.68-5.42-5.66-6.86a24.79,24.79,0,0,0-7.92-1.45,4.78,4.78,0,0,1-4.42-4.86v-.28a3.84,3.84,0,0,1,3.94-3.94,33.71,33.71,0,0,1,8.66,1.56c.57-2.27,1.13-4.54,1.7-6.81C163,301.35,165.22,302.16,167.47,303Z"/><path class="cls-5" d="M266.42,321.35c-66.54,26.29-140,38.31-216.38,35.42q7.6,48.78,15.22,97.56c88.36,3.34,173.24-10.56,250.18-40.95Z"/><path class="cls-6" d="M58,375.28q5,30.45,10,60.9c8,.24,15.62,6.2,17,13.51,73.51.54,144.32-11.05,209.76-34.33-3.47-7-.5-14.66,6.53-17.36q-15.07-28.81-30.17-57.61c-6.47,2.49-14.59-1.29-18-8.26-57.47,20.44-119.65,30.62-184.2,30.15C70.26,369.59,65.43,375.5,58,375.28Z"/><path class="cls-8" d="M217,392.38c-7.41-18-27.19-29.29-44.61-26.3S144.77,385.52,150,404s25.69,31.63,45.27,28.24S224.36,410.4,217,392.38Z"/><path class="cls-7" d="M178.63,371.25c.7,2.13,1.39,4.26,2.09,6.4,7.5.17,13,4.22,14.94,9.79s.1,9.63-6.65,13.44c-4.79,2.84-6.66,4.45-6,6.53.54,1.76,2.46,3.34,6.69,2.71a18,18,0,0,0,5.43-1.66,4.48,4.48,0,0,1,5.53,1.82h0a3.21,3.21,0,0,1-1.18,4.83,25.81,25.81,0,0,1-5.69,1.77c.59,1.84,1.19,3.68,1.78,5.52q-3.24.5-6.48,1-.94-3-1.87-6c-7.46-.33-12.83-4.2-14.46-9.74-1.81-6.11,2-9.81,8-13,4.2-2.25,5.72-4.08,4.94-6.46s-3.71-3.5-7.28-3a19.92,19.92,0,0,0-6.44,2.11c-1.79.95-4.31,0-5.45-1.95l-.12-.21a3.24,3.24,0,0,1,1.06-4.66,26.67,26.67,0,0,1,7-2.34l-1.89-6C174.63,371.85,176.63,371.55,178.63,371.25Z"/><path class="cls-8" d="M273.34,374q-23.74,8.42-48.43,14.64l3.81,9.19q25-6.3,49.11-14.84Z"/><path class="cls-9" d="M156.64,428.6v23.82c0,3.85,43,7,96,7s96-3.13,96-7V428.6Z"/><path class="cls-10" d="M226.08,459.13V428.6H156.64v23.82C156.64,455.61,186,458.29,226.08,459.13Z"/><path class="cls-10" d="M229.32,459.19c7.45.13,15.25.21,23.28.21,12,0,23.42-.16,34-.45V428.6H229.32Z"/><path class="cls-10" d="M290.43,458.83c34.19-1.06,58.13-3.53,58.13-6.41V428.6H290.43Z"/><ellipse class="cls-9" cx="252.6" cy="428.35" rx="95.96" ry="6.97"/><path class="cls-11" d="M331.62,428.35c0,2.67-35.38,4.83-79,4.83s-79-2.16-79-4.83,35.38-4.84,79-4.84S331.62,425.68,331.62,428.35Z"/><path class="cls-9" d="M140.22,403.39v23.82c0,3.85,43,7,96,7s96-3.13,96-7V403.39Z"/><path class="cls-10" d="M209.67,433.92V403.39H140.22v23.82C140.22,430.4,169.56,433.08,209.67,433.92Z"/><path class="cls-10" d="M212.9,434c7.45.13,15.25.21,23.28.21,12,0,23.42-.16,34-.45V403.39H212.9Z"/><path class="cls-10" d="M274,433.62c34.19-1.06,58.13-3.53,58.13-6.41V403.39H274Z"/><ellipse class="cls-9" cx="236.18" cy="403.14" rx="95.96" ry="6.97"/><path class="cls-11" d="M315.2,403.14c0,2.67-35.38,4.83-79,4.83s-79-2.16-79-4.83,35.38-4.84,79-4.84S315.2,400.47,315.2,403.14Z"/><path class="cls-9" d="M151.16,377.51v23.82c0,3.86,43,7,96,7s96-3.12,96-7V377.51Z"/><path class="cls-10" d="M220.6,408V377.51H151.16v23.82C151.16,404.52,180.5,407.2,220.6,408Z"/><path class="cls-10" d="M223.84,408.1c7.45.14,15.25.21,23.28.21,12,0,23.42-.16,34-.45V377.51H223.84Z"/><path class="cls-10" d="M285,407.74c34.19-1.06,58.13-3.53,58.13-6.41V377.51H285Z"/><ellipse class="cls-9" cx="247.12" cy="377.26" rx="95.96" ry="6.97"/><path class="cls-11" d="M326.14,377.26c0,2.67-35.38,4.83-79,4.83s-79-2.16-79-4.83,35.38-4.84,79-4.84S326.14,374.59,326.14,377.26Z"/><path class="cls-9" d="M140.22,352v23.82c0,3.85,43,7,96,7s96-3.12,96-7V352Z"/><path class="cls-10" d="M209.67,382.51V352H140.22v23.82C140.22,379,169.56,381.68,209.67,382.51Z"/><path class="cls-10" d="M212.9,382.58c7.45.13,15.25.2,23.28.2,12,0,23.42-.16,34-.45V352H212.9Z"/><path class="cls-10" d="M274,382.22c34.19-1.07,58.13-3.54,58.13-6.41V352H274Z"/><ellipse class="cls-9" cx="236.18" cy="351.73" rx="95.96" ry="6.97"/><path class="cls-11" d="M315.2,351.73c0,2.67-35.38,4.84-79,4.84s-79-2.17-79-4.84,35.38-4.83,79-4.83S315.2,349.06,315.2,351.73Z"/><path class="cls-12" d="M302.17,272.26a3.55,3.55,0,1,1-3.28-4.21A3.8,3.8,0,0,1,302.17,272.26Z"/><g id="boys-2"><g id="HEAD-2"><path id="Path_40" data-name="Path 40" class="cls-13" d="M238.85,121.77s2.12-7.3,3.07-11.24a35.6,35.6,0,0,0-.13-10.71s6-7.75,4.39-12.74c-4.36-13.54-17.15-13.3-40.92-3.59a7.49,7.49,0,0,0-5,8.45,11.51,11.51,0,0,0-9.09,7.9c-2.53,7.24,2.17,22.47,4.88,27.72a62.6,62.6,0,0,0,7,10.22Z"/><g id="Path_60" data-name="Path 60"><path id="Mask-189" class="cls-14" d="M239.41,102.09a2,2,0,0,1,.32,1.08v21.08c-2.11,15-8.56,22-16.91,21.28l.29,6.08a22,22,0,0,1,.27,4c-.27,2.29-1.28,4.34-1.55,6.93a12.88,12.88,0,0,1-6.8,9.33,9.34,9.34,0,0,1-4.3-.2c-11.39-3.18-12.45-19.16-12.45-19.16s1.87-1.08,2.19-7.74.11-22.12.11-22.12-2.52-.89-3.06-6,1.4-6,3.39-5.88,4.1,4.57,4.46,8.11c3.19,1.77,2.1-2.2,2.3-6.81s5.37-4.45,6.35-7.32a22.41,22.41,0,0,0,.82-7.47,30.46,30.46,0,0,0,21-.59Z"/><g class="cls-15"><g id="Path_60-2" data-name="Path 60-2"><path id="Path_60-3" data-name="Path 60-3" class="cls-16" d="M224.09,145.69s-12.37-1.62-15.47-10.71c0,0,3.46,16.49,13.7,19.85S224.09,145.69,224.09,145.69Z"/></g></g></g><path id="Path_24" data-name="Path 24" class="cls-17" d="M221.18,109.74a7.39,7.39,0,0,1,6.93,0"/><path id="Path_25" data-name="Path 25" class="cls-18" d="M235.39,110.83a6.29,6.29,0,0,1,5-1.12"/><circle id="Oval-2" class="cls-19" cx="226.13" cy="115.69" r="0.99"/><path id="Path_31" data-name="Path 31" class="cls-20" d="M227.18,115.9a3.27,3.27,0,0,0-3.91.12"/><circle id="Oval_Copy_2" data-name="Oval Copy 2" class="cls-19" cx="238.01" cy="115.69" r="0.99"/><path id="Path_31_Copy" data-name="Path 31 Copy" class="cls-21" d="M239.29,115.87a3.27,3.27,0,0,0-3.9.18"/><path id="Path_46" data-name="Path 46" class="cls-22" d="M231.64,113.71a18.57,18.57,0,0,0,1.19,6.51c2.75,5.39,4.76,12.23-5.71,8.08"/><path id="Path_32" data-name="Path 32" class="cls-23" d="M230.77,136.5c-2.73.26-5.63-3.95-5.63-3.95a24.67,24.67,0,0,0,5.63,1.39,11.18,11.18,0,0,0,4.27-1.39S233.5,136.25,230.77,136.5Z"/><ellipse id="Oval-3" class="cls-22" cx="239.99" cy="116.69" rx="5.94" ry="5.95"/><ellipse id="Oval_Copy_3" data-name="Oval Copy 3" class="cls-22" cx="225.14" cy="116.69" rx="5.94" ry="5.95"/><path id="Path_63" data-name="Path 63" class="cls-22" d="M219.2,114.71l-14.85-2"/><path id="Path_64" data-name="Path 64" class="cls-22" d="M234.05,115.05l-4,.29"/></g><g id="foot"><g id="Group_15" data-name="Group 15"><g id="Path_304_Copy" data-name="Path 304 Copy"><path id="Mask-190" class="cls-14" d="M408.84,415.79l6.61,16.26-9.21,12.85s-6.16,4.72-9.64,3.19-8.17-11.77-8.17-11.77l-5.22-10.93Z"/><g class="cls-24"><g id="Path_304_Copy-2" data-name="Path 304 Copy-2"><path id="Path_304_Copy-3" data-name="Path 304 Copy-3" class="cls-16" d="M416,413.19l-29.24,23.75-4.74-13Z"/></g></g></g><g id="Rectangle-2"><path id="Mask-191" class="cls-25" d="M389.85,442s3.3-.61,7-1.19c11-1.72,18.1-9,17.22-12.53,0,0,42.74-6.77,44.3,10.79l-59.48,21.65a2.82,2.82,0,0,1-3.63-1.69.76.76,0,0,1,0-.11Z"/><g class="cls-26"><g id="Rectangle-3"><rect id="Rectangle-4" class="cls-12" x="389.92" y="444.69" width="84.23" height="23.62" transform="translate(-130.08 175.29) rotate(-20)"/></g></g></g></g><g id="Group_15_Copy" data-name="Group 15 Copy"><g id="Path_304_Copy-4" data-name="Path 304 Copy-4"><path id="Mask-192" class="cls-14" d="M364,428.81l.65,17.54-13,8.93s-8,.53-10.78-2.1-3-12-3-12l-1.17-12.07Z"/><g class="cls-27"><g id="Path_304_Copy-5" data-name="Path 304 Copy-5"><path id="Path_304_Copy-6" data-name="Path 304 Copy-6" class="cls-16" d="M371.61,428.81,336,441.13V427.28Z"/></g></g></g><g id="Rectangle-5"><path id="Mask-193" class="cls-25" d="M336.58,446.81s3.93.64,7.63,1.37c10.92,2.15,20.08-2.22,20.46-5.88,0,0,42.49,8.25,37.95,25.29H339.24a2.84,2.84,0,0,1-2.84-2.83v0Z"/><g class="cls-28"><g id="Rectangle-6"><rect id="Rectangle-7" class="cls-12" x="329.75" y="463.19" width="84.23" height="23.62"/></g></g></g></g></g><g id="pants-2"><g id="Path_332" data-name="Path 332"><path id="Mask-194" class="cls-29" d="M356.18,288.16s21.42-2.62,33,39.91,26.21,91,26.21,91l-34.92,9.45-70.7-130.07s-14.34,2.9-16.45,0,9-10.27,9-10.27Z"/><g class="cls-30"><g id="Path_332-2" data-name="Path 332-2"><path id="Path_332-3" data-name="Path 332-3" class="cls-31" d="M362.58,288.16s-8.16,4-8.16,9.64,6.06,9,6.06,9l65.23,127.4L376,439.54l-13.4-35.31L338,320.54l-50.58-24.32,52.94-11.61Z"/></g></g></g><g id="Path_347" data-name="Path 347"><path id="Mask-195" class="cls-29" d="M184.89,321.86s11.17,38.24,138.38,24.08c0,0,4.71.44,4.49,11.34s2.62,74.82,2.62,74.82h38.53S373.86,323,363,308.93s-121.34-14.05-121.34-14.05l-51.44,23.93Z"/><g class="cls-32"><g id="Path_347-2" data-name="Path 347-2"><path id="Path_347-3" data-name="Path 347-3" class="cls-31" d="M252.61,296.22s-27.38,35.61,11.17,32,75.16-4.83,76.54,28.21,2.88,80.44,2.88,80.44l-24.6-2.71L308,356.48s-93.19,27.87-121.11-6.91S175,319.09,175,319.09l71-31.58Z"/></g></g></g><path id="Path_346" data-name="Path 346" class="cls-33" d="M411.52,410.54l-35.11,10.33L369.88,409s.81-39.08.58-53.38c-.46-28.66-2.92-44.88-9.76-48.89-15.38-9-66-10.46-66-10.46l-52.17-1.34"/><path id="Path_344" data-name="Path 344" class="cls-33" d="M368.23,425.51H330.34S328,371.94,328,359.83s-3.87-14-3.87-14,12.88,4.7,19.61-2.86"/><path id="Path_345" data-name="Path 345" class="cls-33" d="M324.13,345.81a19,19,0,0,0,16.19-10"/><path id="Path_335" data-name="Path 335" class="cls-33" d="M214.19,309.28s14.28,18.8,76.19,15.41,62.08,5.64,60.11,100.82"/></g><g id="body-2"><path id="Path_331" data-name="Path 331" class="cls-34" d="M177.34,299.76s-.7,22.17,6.9,24.94l52.87-27.27H176.18Z"/><g id="Path_307" data-name="Path 307"><path id="Mask-196" class="cls-35" d="M195.4,154s-36.75,6.56-40.44,48.24-9,90.12,9.12,94.67S236,298.7,236,298.7l27.51-13.16,48.27-3.05V259.06s-19.28,1.56-22.12-1.52-24.08-81.23-36-86.52c0,0-8.54-11.05-20.19-13.32-3-.58-11.1-1.61-11.1-1.61s-2.77,3.47-4.66,3.33-5.17-4.08-5.17-4.08Z"/><g class="cls-36"><g id="Path_307-2" data-name="Path 307-2"><path id="Path_307-3" data-name="Path 307-3" class="cls-34" d="M185.89,169a79.2,79.2,0,0,1,22.5,61.79c-3.15,38.45,56.81,33.17,53.65,6.47l2.12,47.37L236.26,283v-7.67s-21-.6-30.73-1.59a201.83,201.83,0,0,1-21.29-3.64s6-34.51,8-51.24-.72-37.62-.72-37.62a42.22,42.22,0,0,0-2-6.6A37.46,37.46,0,0,0,185.89,169Z"/><path id="Path_338" data-name="Path 338" class="cls-34" d="M169.52,164.24s-7.83,15.53-9.2,25.07c-8.53,59.38-4.28,96.46,3.85,99.78,14.18,5.79,72.52,4.05,72.52,4.05l.42,11.23-89.61,2.44-10.94-88.06,27.61-52.1Z"/><rect id="Rectangle-8" class="cls-12" x="227.94" y="274.97" width="8.52" height="23.62"/><path id="Path_327" data-name="Path 327" class="cls-34" d="M254,171l15.8,5.69,28.8,80,36.89-3.59-10.72,37-64.05-5.47,3.08-17.36-1.38-24s-1.3-26.85-2.73-39.18S254,171,254,171Z"/></g></g></g><path id="Path_330" data-name="Path 330" class="cls-33" d="M254,171s8.54,36.64,9.8,114.52"/><path id="Path_340" data-name="Path 340" class="cls-33" d="M275.43,256.71c8.59-4.39,14.26.83,14.26.83s-13.3,1.59-12,13.76"/><path id="Path_329" data-name="Path 329" class="cls-33" d="M175,298.43c17.66,2.2,61.24,0,61.24,0V275.29s-45.73-1.38-52-5.23c0,0,17.45-88.78,1-100.75"/><path id="Path_339" data-name="Path 339" class="cls-33" d="M175,281.6c-4.22-9.1,9.22-11.55,9.22-11.55s-.6-2.12-10-3.18"/><path id="Path_325" data-name="Path 325" class="cls-12" d="M199.75,149.86a20.18,20.18,0,0,0,9.82,4.7,12.29,12.29,0,0,1,8.21,4.86s-2.82.19-2.82,5.88a7,7,0,0,1-4.4,7,112,112,0,0,0-6.74-10.13,96.81,96.81,0,0,0-8.5-8.2,5.63,5.63,0,0,0,3.13-2.19A5.93,5.93,0,0,1,199.75,149.86Z"/><path id="Path_326" data-name="Path 326" class="cls-12" d="M223.1,151.57s.09,6.47-5.32,7.85a24.2,24.2,0,0,1,6.42,2.71,53.4,53.4,0,0,1,6.34,7.18,29.1,29.1,0,0,0-1.74-12C226.46,151.3,223.1,151.57,223.1,151.57Z"/><path id="Path_333" data-name="Path 333" class="cls-12" d="M215.58,161s2.1-1,3.21,1.88c0,0,.31-3.13,2.6-2.45l-.47-1.58a22.49,22.49,0,0,1-4,.54,8.23,8.23,0,0,1-1.91-.22C212.16,158.4,215.58,161,215.58,161Z"/></g><g id="laptop"><g id="Rectangle-9"><path id="Mask-197" class="cls-37" d="M243.54,295.54l48.76.95L311.78,294l0-3.38,34.14-7.2L318.38,282l-39.61.55Z"/><g class="cls-38"><g id="Rectangle-10"><rect id="Rectangle-11" class="cls-39" x="243.63" y="291.21" width="49.21" height="5.67"/></g></g></g><path id="Path_336" data-name="Path 336" class="cls-40" d="M369.21,288.16h0a5.25,5.25,0,0,1-5,5.24l-72,3.15v-7.1Z"/><path id="Path_334" data-name="Path 334" class="cls-41" d="M313.21,220.54l78.43,1.62,1.89,1.89-24.6,64.32L290.38,291Z"/><path id="Path_334_Copy" data-name="Path 334 Copy" class="cls-42" d="M315.11,222.43l78.42,1.62-22.71,64.32L292.27,291Z"/><ellipse id="Oval-4" class="cls-12" cx="347.25" cy="255.77" rx="5.2" ry="5.2"/></g><g id="right_hand" data-name="right hand"><path id="Path_328" data-name="Path 328" class="cls-14" d="M236.26,293.43s19.79,4.34,26.15-4.34c0,0,6.66-2.24,7.26-3.12s8,6.57,10.38,5.94,2.8-3.83-2.19-7c0,0,7.44,5.12,8.82,4.91s3.12-.91,2.26-1.95c0,0,2.66.45,2.31-.63S273.3,274,270.31,274a7,7,0,0,0-6.83-1.54c-4.07,1.24-27.1,9.6-27.1,9.6Z"/><path id="Path_341" data-name="Path 341" class="cls-33" d="M279.66,286.25s-8.47-6.4-10.08-6.4a51.38,51.38,0,0,0-8.39,2.73"/><path id="Path_342" data-name="Path 342" class="cls-33" d="M289.28,287.5s-16.78-12.63-20.66-12.12a54.15,54.15,0,0,0-8.95,2.29"/><path id="Path_343" data-name="Path 343" class="cls-33" d="M270.31,274s-3.49-1.63-10.2.75"/></g></g></g></g></svg>