<svg xmlns="http://www.w3.org/2000/svg" viewBox="0 0 660.44 704.98" xmlns:v="https://vecta.io/nano"><style><![CDATA[.i{fill:none}.j{stroke-width:.5}.k{stroke-miterlimit:10}.l{stroke:#061537}.m{fill:#fff}.n{fill:#4c7fff}.o{fill:#ffd3c8}.p{fill:#f1b2a2}.q{stroke-linecap:round}.r{stroke:#301913}]]></style><defs><clipPath id="A"><path d="M351.05,162.83a2.82,2.82,0,0,0-.45,1.52v29.7c3,21.12,12.06,31,23.82,30l-.4,8.57a30.8,30.8,0,0,0-.39,5.59c.38,3.22,1.8,6.11,2.19,9.77a18.2,18.2,0,0,0,9.58,13.15,13.35,13.35,0,0,0,6.06-.29c16.05-4.48,17.54-27,17.54-27s-2.63-1.52-3.08-10.9-.16-31.18-.16-31.18,3.55-1.26,4.31-8.51-2-8.41-4.77-8.29-5.78,6.45-6.29,11.44c-4.49,2.49-2.95-3.1-3.23-9.6s-7.57-6.27-9-10.31A31.73,31.73,0,0,1,385.66,156a43,43,0,0,1-29.65-.83Z" class="i"/></clipPath><clipPath id="B"><path d="M112.29,604.89,103,627.8l13,18.11s8.68,6.65,13.58,4.5,11.52-16.59,11.52-16.59l7.36-15.4Z" class="i"/></clipPath><clipPath id="C"><path d="M139 641.75l-9.89-1.68c-15.5-2.41-25.52-12.61-24.27-17.65 0 0-60.24-9.54-62.44 15.21l83.82 30.51a4 4 0 0 0 5.12-2.39l.06-.15z" class="i"/></clipPath><clipPath id="D"><path d="M175.49,623.24,174.57,648,193,660.53s11.33.75,15.19-2.95,4.27-17,4.27-17l1.65-17Z" class="i"/></clipPath><clipPath id="E"><path d="M214.12,648.6s-5.55.91-10.76,1.93c-15.38,3-28.29-3.12-28.84-8.28,0,0-59.87,11.63-53.47,35.64h89.32a4,4,0,0,0,4-4v0Z" class="i"/></clipPath><clipPath id="F"><path d="M186.49 425s-30.18-3.7-46.56 56.23L103 609.49l49.21 13.32 99.64-183.31s20.19 4.09 23.17 0-12.63-14.5-12.63-14.5z" class="i"/></clipPath><clipPath id="G"><path d="M427.88,472.52s-15.74,53.89-195,33.94c0,0-6.63.62-6.32,16s-3.69,105.43-3.69,105.43h-54.3s-7-153.75,8.31-173.57,171-19.8,171-19.8l72.48,33.73Z" class="i"/></clipPath><clipPath id="H"><path d="M413.07 236s51.79 9.24 57 68 12.63 127-12.87 133.39-101.4 2.5-101.4 2.5L317 421.34 249 417v-33s27.17 2.19 31.18-2.15S314.13 267.42 330.87 260c0 0 12-15.56 28.45-18.76 4.2-.82 15.64-2.27 15.64-2.27s3.9 4.9 6.56 4.69 7.3-5.75 7.3-5.75z" class="i"/></clipPath><clipPath id="I"><path d="M345.23 435.43l-68.72 1.35-27.45-3.46-.06-4.77-48.11-10.14 38.88-2.11 55.81.78 49.65 18.35z" class="i"/></clipPath></defs><path d="M351.84,190.56s-3-10.28-4.33-15.85a50.16,50.16,0,0,1,.18-15.08s-8.44-10.93-6.18-17.95c6.14-19.08,24.17-18.75,57.66-5.07a10.56,10.56,0,0,1,7.05,11.91A16.24,16.24,0,0,1,419,159.65c3.56,10.21-3.06,31.67-6.88,39.07a88.36,88.36,0,0,1-9.85,14.4Z" fill="#4c2603"/><path d="M351.05,162.83a2.82,2.82,0,0,0-.45,1.52v29.7c3,21.12,12.06,31,23.82,30l-.4,8.57a30.8,30.8,0,0,0-.39,5.59c.38,3.22,1.8,6.11,2.19,9.77a18.2,18.2,0,0,0,9.58,13.15,13.35,13.35,0,0,0,6.06-.29c16.05-4.48,17.54-27,17.54-27s-2.63-1.52-3.08-10.9-.16-31.18-.16-31.18,3.55-1.26,4.31-8.51-2-8.41-4.77-8.29-5.78,6.45-6.29,11.44c-4.49,2.49-2.95-3.1-3.23-9.6s-7.57-6.27-9-10.31A31.73,31.73,0,0,1,385.66,156a43,43,0,0,1-29.65-.83Z" class="o"/><g clip-path="url(#A)" class="p"><path d="M372.64 224.27s17.42-2.29 21.79-15.1c0 0-4.86 23.24-19.3 28s-2.49-12.9-2.49-12.9z"/></g><path d="M376.74 173.61a10.41 10.41 0 0 0-9.76 0m-10.27 1.53a8.83 8.83 0 0 0-7-1.58" class="i k l q"/><circle cx="369.77" cy="181.99" r="1.39" fill="#061537"/><path d="M368.29,182.28a4.61,4.61,0,0,1,5.5.17" class="i j k l"/><circle cx="353.02" cy="181.99" r="1.39" fill="#061537"/><g class="i j k l"><path d="M351.22,182.24a4.61,4.61,0,0,1,5.5.26"/><path d="M362,179.2a26.13,26.13,0,0,1-1.69,9.17c-3.87,7.6-6.69,17.24,8.06,11.39" class="q"/></g><path d="M363.23 211.32c3.85.36 7.93-5.57 7.93-5.57a35 35 0 0 1-7.93 2 15.81 15.81 0 0 1-6-2s2.15 5.25 6 5.57z" class="j k l m"/><g class="i j l"><ellipse cx="350.23" cy="183.39" rx="8.37" ry="8.39"/><ellipse cx="371.16" cy="183.39" rx="8.37" ry="8.39"/><path d="M379.53 180.6l20.93-2.8m-41.86 3.29l5.59.41" class="k q"/></g><path d="M112.29,604.89,103,627.8l13,18.11s8.68,6.65,13.58,4.5,11.52-16.59,11.52-16.59l7.36-15.4Z" class="o"/><g clip-path="url(#B)" class="p"><path d="M102.2,601.22l41.21,33.48,6.67-18.34Z"/></g><path d="M139 641.75l-9.89-1.68c-15.5-2.41-25.52-12.61-24.27-17.65 0 0-60.24-9.54-62.44 15.21l83.82 30.51a4 4 0 0 0 5.12-2.39l.06-.15z" fill="#2a3756"/><g clip-path="url(#C)" class="m"><path d="M18.143 657.608l11.386-31.282 111.532 40.594-11.386 31.282z"/></g><path d="M175.49,623.24,174.57,648,193,660.53s11.33.75,15.19-2.95,4.27-17,4.27-17l1.65-17Z" class="o"/><g clip-path="url(#D)" class="p"><path d="M164.75,623.24l50.18,17.37V621.09Z"/></g><path d="M214.12,648.6s-5.55.91-10.76,1.93c-15.38,3-28.29-3.12-28.84-8.28,0,0-59.87,11.63-53.47,35.64h89.32a4,4,0,0,0,4-4v0Z" fill="#2a3756"/><g clip-path="url(#E)" class="m"><path d="M105.05 671.69h118.69v33.29H105.05z"/></g><path d="M186.49 425s-30.18-3.7-46.56 56.23L103 609.49l49.21 13.32 99.64-183.31s20.19 4.09 23.17 0-12.63-14.5-12.63-14.5z" fill="#955454"/><g clip-path="url(#F)"><path d="M177.47,425s11.5,5.61,11.5,13.57-8.53,12.7-8.53,12.7L88.51,630.84l70.08,7.52,18.88-49.76,34.7-117.93,71.28-34.28L208.84,420Z" fill="#824848"/></g><path d="M427.88,472.52s-15.74,53.89-195,33.94c0,0-6.63.62-6.32,16s-3.69,105.43-3.69,105.43h-54.3s-7-153.75,8.31-173.57,171-19.8,171-19.8l72.48,33.73Z" fill="#955454"/><g clip-path="url(#G)"><path d="M332.44 436.39s38.59 50.18-15.73 45.16-105.92-6.81-107.86 39.76l-4.07 113.36 34.67-3.83 15-109.53s131.31 39.28 170.66-9.73 16.65-43 16.65-43l-100.11-44.5z" fill="#824848"/></g><g class="i j k r"><path d="M108.51 597.49L158 612.05l9.2-16.81-.83-75.24c.65-40.39 4.12-63.24 13.76-68.89 21.67-12.71 93-14.75 93-14.75l73.53-1.89M169.52 618.59h53.39l3.3-92.56c0-17.07 5.45-19.76 5.45-19.76s-18.15 6.63-27.64-4m27.64 4a26.76 26.76 0 0 1-22.81-14"/><path d="M386.59,454.8s-20.12,26.49-107.37,21.71-87.49,7.94-84.71,142.08"/></g><path d="M438.52,441.38s1,31.24-9.73,35.14L354.3,438.1h85.86Z" class="n"/><path d="M413.07 236s51.79 9.24 57 68 12.63 127-12.87 133.39-101.4 2.5-101.4 2.5L317 421.34 249 417v-33s27.17 2.19 31.18-2.15S314.13 267.42 330.87 260c0 0 12-15.56 28.45-18.76 4.2-.82 15.64-2.27 15.64-2.27s3.9 4.9 6.56 4.69 7.3-5.75 7.3-5.75z" fill="#659cff"/><g clip-path="url(#H)"><g class="n"><path d="M426.47 257.08a111.7 111.7 0 0 0-31.71 87.08c4.44 54.18-80.06 46.74-75.6 9.11l-3 66.76 39.31-2.32v-10.82s29.59-.84 43.31-2.23a284.63 284.63 0 0 0 30-5.14s-8.45-48.63-11.22-72.21 1-53 1-53a60.44 60.44 0 0 1 2.83-9.3 54.25 54.25 0 0 1 5.08-7.93zm23.07-6.67s11 21.88 13 35.33c12 83.67 6 135.92-5.44 140.6-20 8.16-102.19 5.71-102.19 5.71l-.58 15.83 126.26 3.43L496 327.21l-38.93-73.41z"/></g><path d="M355.21 406.45h12v33.29h-12z" class="m"/><path d="M330.54 260l-22.28 8-40.58 112.72-52-5.07 15.11 52.09 90.28-7.74-4.36-24.47 2-33.76s1.83-37.83 3.86-55.2 7.97-46.57 7.97-46.57z" class="n"/></g><g class="i j k r"><path d="M330.54 260s-12.05 51.64-13.82 161.39m-16.44-40.67c-12.1-6.2-20.09 1.16-20.09 1.16s18.75 2.25 16.94 19.39m144.66 38.23c-24.88 3.11-86.3 0-86.3 0v-32.61s64.43-1.94 73.3-7.37c0 0-24.58-125.1-1.42-142"/><path d="M441.79,415.78c5.94-12.81-13-16.26-13-16.26s.85-3,14.1-4.49"/></g><g class="m"><path d="M406.93 230.14a28.35 28.35 0 0 1-13.83 6.63 17.35 17.35 0 0 0-11.58 6.84s4 .28 4 8.28a9.87 9.87 0 0 0 6.2 9.95 156.45 156.45 0 0 1 9.49-14.28 137.65 137.65 0 0 1 12-11.56 7.79 7.79 0 0 1-4.4-3.09 8.63 8.63 0 0 0-1.88-2.77zM374 232.55s-.13 9.12 7.49 11.06a33.81 33.81 0 0 0-9 3.82 75.38 75.38 0 0 0-8.93 10.12 40.8 40.8 0 0 1 2.44-16.88c3.3-8.5 8-8.12 8-8.12z"/><path d="M384.63 245.86s-3-1.36-4.52 2.64c0 0-.44-4.41-3.67-3.44l.66-2.24a31.71 31.71 0 0 0 5.65.76 12.28 12.28 0 0 0 2.7-.3c4-1.11-.82 2.58-.82 2.58z"/></g><path d="M345.23,435.43l-68.72,1.35-27.45-3.46-.05-4.77-48.12-10.14,38.88-2.11,55.81.78Z" fill="#d2d2d2"/><g clip-path="url(#I)"><path d="M275.76 429.33h69.35v7.99h-69.35z" fill="#989797"/></g><path d="M168.14,425h0a7.37,7.37,0,0,0,7.05,7.37l101.42,4.45v-10Z" fill="#cfcccc"/><path d="M247,329.74,136.53,332l-2.67,2.66,34.67,90.64L279.22,429Z" fill="#d5d5d5"/><path d="M244.37,332.41l-110.51,2.28,32,90.64L276.55,429Z" fill="#e3e3e3"/><ellipse cx="199.07" cy="379.39" rx="7.33" ry="7.32" class="m"/><path d="M355.49,432.46s-27.89,6.11-36.85-6.11c0,0-9.39-3.16-10.24-4.4s-11.33,9.26-14.62,8.36-3.94-5.38,3.09-9.85c0,0-10.49,7.22-12.44,6.92s-4.39-1.27-3.18-2.74c0,0-3.75.64-3.26-.88S303.28,405,307.5,405a10,10,0,0,1,9.63-2.18c5.74,1.76,38.19,13.54,38.19,13.54Z" class="o"/><path d="M294.32 422.35s11.95-9 14.22-9a72.52 72.52 0 0 1 11.82 3.85m-39.59 6.91s23.64-17.8 29.12-17.09a77.13 77.13 0 0 1 12.6 3.23M307.5 405s4.93-2.31 14.37 1" class="i j k r"/><path d="M306.07 211.7q7.26 21.8 14.41 43.62c-8.55 9.48-14.09 21.32-17.6 31.4l-3-10.09q-8.56-28.85-16.85-57.78l-16.38-57.92-4.06-14.5-2-7.25-1-3.64a25.8 25.8 0 0 1-.54-3.76c-.14-2.59 0-5.26 0-7.87l-.16-7.82a435.78 435.78 0 0 1 0-15.76c3.1 4.29 6.06 8.62 8.93 13l4.31 6.54c1.41 2.18 3.07 4.3 4.41 6.5a24.67 24.67 0 0 1 1.69 3.42c.47 1.16.85 2.37 1.26 3.55l2.44 7.12 4.87 14.24 19.27 57z" fill="#56d4b7"/><path d="M341.1 319.86l2 6.37-8.18-8.63z" class="n"/><path d="M540.78 407.85l-3.81.21-3.77.1h-7.48l-7.52.13a21.35 21.35 0 0 1-3.61-.33 23.1 23.1 0 0 1-3.4-.94l-26.65-8.81-3.1-1a151.67 151.67 0 0 0 .56-22.51q4.88 2 9.74 4l26 10.59a24.9 24.9 0 0 1 3.19 1.49 20.85 20.85 0 0 1 3 2.11l5.64 5 5.68 4.86 2.81 2.52 2.72 2.58zm79.81 37.2a26.92 26.92 0 0 1-25.75-34.7 276.28 276.28 0 0 0 11.8-80.13c0-152.42-124-276.42-276.42-276.42a277.27 277.27 0 0 0-65.29 7.76 26.9 26.9 0 1 1-12.68-52.28 330.43 330.43 0 0 1 394.27 416.05 26.91 26.91 0 0 1-25.93 19.72z" fill="#56d4b7"/><path d="M330.22,660.44a331.86,331.86,0,0,1-72.67-8,26.9,26.9,0,1,1,11.81-52.49,276.85,276.85,0,0,0,293.48-120.3,26.9,26.9,0,1,1,45.24,29.11A330,330,0,0,1,330.22,660.44Z" fill="#ff9378"/><path d="M91.76,544.57A26.84,26.84,0,0,1,70.6,534.3,330.2,330.2,0,0,1,159.46,47.53a26.9,26.9,0,1,1,27.86,46C103.71,144.15,53.8,232.63,53.8,330.22A273.57,273.57,0,0,0,112.88,501a26.91,26.91,0,0,1-21.12,43.54Z" class="n"/></svg>