<svg xmlns="http://www.w3.org/2000/svg" xmlns:xlink="http://www.w3.org/1999/xlink" viewBox="0 0 660.44 704.98"><defs><style>.cls-1,.cls-10,.cls-11,.cls-23,.cls-6,.cls-7,.cls-9{fill:none;}.cls-2{fill:#4c2603;}.cls-3{fill:#ffd3c8;}.cls-4{clip-path:url(#clip-path);}.cls-5{fill:#f1b2a2;}.cls-10,.cls-11,.cls-12,.cls-6,.cls-7,.cls-9{stroke:#061537;}.cls-11,.cls-12,.cls-6,.cls-7{stroke-linecap:round;}.cls-11,.cls-12,.cls-23,.cls-6{stroke-miterlimit:10;}.cls-6{stroke-width:1px;}.cls-7{stroke-miterlimit:10;stroke-width:1px;}.cls-8{fill:#061537;}.cls-9{stroke-miterlimit:10;stroke-width:0.5px;}.cls-10{stroke-miterlimit:10;stroke-width:0.5px;}.cls-11,.cls-12,.cls-23{stroke-width:0.5px;}.cls-12,.cls-16{fill:#fff;}.cls-13{clip-path:url(#clip-path-2);}.cls-14{fill:#2a3756;}.cls-15{clip-path:url(#clip-path-3);}.cls-17{clip-path:url(#clip-path-4);}.cls-18{clip-path:url(#clip-path-5);}.cls-19{fill:#955454;}.cls-20{clip-path:url(#clip-path-6);}.cls-21{fill:#824848;}.cls-22{clip-path:url(#clip-path-7);}.cls-23{stroke:#301913;}.cls-24{fill:#4c7fff;}.cls-25{fill:#659cff;}.cls-26{clip-path:url(#clip-path-8);}.cls-27{fill:#d2d2d2;}.cls-28{clip-path:url(#clip-path-9);}.cls-29{fill:#989797;}.cls-30{fill:#cfcccc;}.cls-31{fill:#d5d5d5;}.cls-32{fill:#e3e3e3;}.cls-33{fill:#56d4b7;}.cls-34{fill:#ff9378;}</style><clipPath id="clip-path"><path class="cls-1" d="M351.05,162.83a2.82,2.82,0,0,0-.45,1.52v29.7c3,21.12,12.06,31,23.82,30l-.4,8.57a30.8,30.8,0,0,0-.39,5.59c.38,3.22,1.8,6.11,2.19,9.77a18.2,18.2,0,0,0,9.58,13.15,13.35,13.35,0,0,0,6.06-.29c16.05-4.48,17.54-27,17.54-27s-2.63-1.52-3.08-10.9-.16-31.18-.16-31.18,3.55-1.26,4.31-8.51-2-8.41-4.77-8.29-5.78,6.45-6.29,11.44c-4.49,2.49-2.95-3.1-3.23-9.6s-7.57-6.27-9-10.31A31.73,31.73,0,0,1,385.66,156a43,43,0,0,1-29.65-.83Z"/></clipPath><clipPath id="clip-path-2"><path class="cls-1" d="M112.29,604.89,103,627.8l13,18.11s8.68,6.65,13.58,4.5,11.52-16.59,11.52-16.59l7.36-15.4Z"/></clipPath><clipPath id="clip-path-3"><path class="cls-1" d="M139,641.75s-4.64-.86-9.89-1.68c-15.5-2.41-25.52-12.61-24.27-17.65,0,0-60.24-9.54-62.44,15.21l83.82,30.51a4,4,0,0,0,5.12-2.39l.06-.15Z"/></clipPath><clipPath id="clip-path-4"><path class="cls-1" d="M175.49,623.24,174.57,648,193,660.53s11.33.75,15.19-2.95,4.27-17,4.27-17l1.65-17Z"/></clipPath><clipPath id="clip-path-5"><path class="cls-1" d="M214.12,648.6s-5.55.91-10.76,1.93c-15.38,3-28.29-3.12-28.84-8.28,0,0-59.87,11.63-53.47,35.64h89.32a4,4,0,0,0,4-4v0Z"/></clipPath><clipPath id="clip-path-6"><path class="cls-1" d="M186.49,425s-30.18-3.7-46.56,56.23S103,609.49,103,609.49l49.21,13.32L251.85,439.5s20.19,4.09,23.17,0S262.39,425,262.39,425Z"/></clipPath><clipPath id="clip-path-7"><path class="cls-1" d="M427.88,472.52s-15.74,53.89-195,33.94c0,0-6.63.62-6.32,16s-3.69,105.43-3.69,105.43h-54.3s-7-153.75,8.31-173.57,171-19.8,171-19.8l72.48,33.73Z"/></clipPath><clipPath id="clip-path-8"><path class="cls-1" d="M413.07,236s51.79,9.24,57,68S482.7,431,457.2,437.39s-101.4,2.5-101.4,2.5L317,421.34,249,417V384s27.17,2.19,31.18-2.15S314.13,267.42,330.87,260c0,0,12-15.56,28.45-18.76,4.2-.82,15.64-2.27,15.64-2.27s3.9,4.9,6.56,4.69,7.3-5.75,7.3-5.75Z"/></clipPath><clipPath id="clip-path-9"><polygon class="cls-1" points="345.23 435.43 276.51 436.78 249.06 433.32 249 428.55 200.89 418.41 239.77 416.3 295.58 417.08 345.23 435.43"/></clipPath></defs><g id="Layer_2" data-name="Layer 2"><g id="_6" data-name="6"><g id="boys-2"><g id="HEAD-2"><path id="Path_40" data-name="Path 40" class="cls-2" d="M351.84,190.56s-3-10.28-4.33-15.85a50.16,50.16,0,0,1,.18-15.08s-8.44-10.93-6.18-17.95c6.14-19.08,24.17-18.75,57.66-5.07a10.56,10.56,0,0,1,7.05,11.91A16.24,16.24,0,0,1,419,159.65c3.56,10.21-3.06,31.67-6.88,39.07a88.36,88.36,0,0,1-9.85,14.4Z"/><g id="Path_60" data-name="Path 60"><path id="Mask-189" class="cls-3" d="M351.05,162.83a2.82,2.82,0,0,0-.45,1.52v29.7c3,21.12,12.06,31,23.82,30l-.4,8.57a30.8,30.8,0,0,0-.39,5.59c.38,3.22,1.8,6.11,2.19,9.77a18.2,18.2,0,0,0,9.58,13.15,13.35,13.35,0,0,0,6.06-.29c16.05-4.48,17.54-27,17.54-27s-2.63-1.52-3.08-10.9-.16-31.18-.16-31.18,3.55-1.26,4.31-8.51-2-8.41-4.77-8.29-5.78,6.45-6.29,11.44c-4.49,2.49-2.95-3.1-3.23-9.6s-7.57-6.27-9-10.31A31.73,31.73,0,0,1,385.66,156a43,43,0,0,1-29.65-.83Z"/><g class="cls-4"><g id="Path_60-2" data-name="Path 60-2"><path id="Path_60-3" data-name="Path 60-3" class="cls-5" d="M372.64,224.27s17.42-2.29,21.79-15.1c0,0-4.86,23.24-19.3,28S372.64,224.27,372.64,224.27Z"/></g></g></g><path id="Path_24" data-name="Path 24" class="cls-6" d="M376.74,173.61a10.41,10.41,0,0,0-9.76,0"/><path id="Path_25" data-name="Path 25" class="cls-7" d="M356.71,175.14a8.83,8.83,0,0,0-7-1.58"/><circle id="Oval-2" class="cls-8" cx="369.77" cy="181.99" r="1.39"/><path id="Path_31" data-name="Path 31" class="cls-9" d="M368.29,182.28a4.61,4.61,0,0,1,5.5.17"/><circle id="Oval_Copy_2" data-name="Oval Copy 2" class="cls-8" cx="353.02" cy="181.99" r="1.39"/><path id="Path_31_Copy" data-name="Path 31 Copy" class="cls-10" d="M351.22,182.24a4.61,4.61,0,0,1,5.5.26"/><path id="Path_46" data-name="Path 46" class="cls-11" d="M362,179.2a26.13,26.13,0,0,1-1.69,9.17c-3.87,7.6-6.69,17.24,8.06,11.39"/><path id="Path_32" data-name="Path 32" class="cls-12" d="M363.23,211.32c3.85.36,7.93-5.57,7.93-5.57a35,35,0,0,1-7.93,2,15.81,15.81,0,0,1-6-2S359.38,211,363.23,211.32Z"/><ellipse id="Oval-3" class="cls-11" cx="350.23" cy="183.39" rx="8.37" ry="8.39"/><ellipse id="Oval_Copy_3" data-name="Oval Copy 3" class="cls-11" cx="371.16" cy="183.39" rx="8.37" ry="8.39"/><path id="Path_63" data-name="Path 63" class="cls-11" d="M379.53,180.6l20.93-2.8"/><path id="Path_64" data-name="Path 64" class="cls-11" d="M358.6,181.09l5.59.41"/></g><g id="foot"><g id="Group_15" data-name="Group 15"><g id="Path_304_Copy" data-name="Path 304 Copy"><path id="Mask-190" class="cls-3" d="M112.29,604.89,103,627.8l13,18.11s8.68,6.65,13.58,4.5,11.52-16.59,11.52-16.59l7.36-15.4Z"/><g class="cls-13"><g id="Path_304_Copy-2" data-name="Path 304 Copy-2"><path id="Path_304_Copy-3" data-name="Path 304 Copy-3" class="cls-5" d="M102.2,601.22l41.21,33.48,6.67-18.34Z"/></g></g></g><g id="Rectangle-2"><path id="Mask-191" class="cls-14" d="M139,641.75s-4.64-.86-9.89-1.68c-15.5-2.41-25.52-12.61-24.27-17.65,0,0-60.24-9.54-62.44,15.21l83.82,30.51a4,4,0,0,0,5.12-2.39l.06-.15Z"/><g class="cls-15"><g id="Rectangle-3"><rect id="Rectangle-4" class="cls-16" x="62.96" y="602.92" width="33.29" height="118.69" transform="translate(-569.95 510.56) rotate(-70)"/></g></g></g></g><g id="Group_15_Copy" data-name="Group 15 Copy"><g id="Path_304_Copy-4" data-name="Path 304 Copy-4"><path id="Mask-192" class="cls-3" d="M175.49,623.24,174.57,648,193,660.53s11.33.75,15.19-2.95,4.27-17,4.27-17l1.65-17Z"/><g class="cls-17"><g id="Path_304_Copy-5" data-name="Path 304 Copy-5"><path id="Path_304_Copy-6" data-name="Path 304 Copy-6" class="cls-5" d="M164.75,623.24l50.18,17.37V621.09Z"/></g></g></g><g id="Rectangle-5"><path id="Mask-193" class="cls-14" d="M214.12,648.6s-5.55.91-10.76,1.93c-15.38,3-28.29-3.12-28.84-8.28,0,0-59.87,11.63-53.47,35.64h89.32a4,4,0,0,0,4-4v0Z"/><g class="cls-18"><g id="Rectangle-6"><rect id="Rectangle-7" class="cls-16" x="105.05" y="671.69" width="118.69" height="33.29"/></g></g></g></g></g><g id="pants-2"><g id="Path_332" data-name="Path 332"><path id="Mask-194" class="cls-19" d="M186.49,425s-30.18-3.7-46.56,56.23S103,609.49,103,609.49l49.21,13.32L251.85,439.5s20.19,4.09,23.17,0S262.39,425,262.39,425Z"/><g class="cls-20"><g id="Path_332-2" data-name="Path 332-2"><path id="Path_332-3" data-name="Path 332-3" class="cls-21" d="M177.47,425s11.5,5.61,11.5,13.57-8.53,12.7-8.53,12.7L88.51,630.84l70.08,7.52,18.88-49.76,34.7-117.93,71.28-34.28L208.84,420Z"/></g></g></g><g id="Path_347" data-name="Path 347"><path id="Mask-195" class="cls-19" d="M427.88,472.52s-15.74,53.89-195,33.94c0,0-6.63.62-6.32,16s-3.69,105.43-3.69,105.43h-54.3s-7-153.75,8.31-173.57,171-19.8,171-19.8l72.48,33.73Z"/><g class="cls-22"><g id="Path_347-2" data-name="Path 347-2"><path id="Path_347-3" data-name="Path 347-3" class="cls-21" d="M332.44,436.39s38.59,50.18-15.73,45.16-105.92-6.81-107.86,39.76-4.07,113.36-4.07,113.36l34.67-3.83,15-109.53s131.31,39.28,170.66-9.73,16.65-43,16.65-43l-100.11-44.5Z"/></g></g></g><path id="Path_346" data-name="Path 346" class="cls-23" d="M108.51,597.49,158,612.05l9.2-16.81S166,540.18,166.37,520c.65-40.39,4.12-63.24,13.76-68.89,21.67-12.71,93-14.75,93-14.75l73.53-1.89"/><path id="Path_344" data-name="Path 344" class="cls-23" d="M169.52,618.59h53.39s3.3-75.49,3.3-92.56,5.45-19.76,5.45-19.76-18.15,6.63-27.64-4"/><path id="Path_345" data-name="Path 345" class="cls-23" d="M231.66,506.27a26.76,26.76,0,0,1-22.81-14"/><path id="Path_335" data-name="Path 335" class="cls-23" d="M386.59,454.8s-20.12,26.49-107.37,21.71-87.49,7.94-84.71,142.08"/></g><g id="body-2"><path id="Path_331" data-name="Path 331" class="cls-24" d="M438.52,441.38s1,31.24-9.73,35.14L354.3,438.1h85.86Z"/><g id="Path_307" data-name="Path 307"><path id="Mask-196" class="cls-25" d="M413.07,236s51.79,9.24,57,68S482.7,431,457.2,437.39s-101.4,2.5-101.4,2.5L317,421.34,249,417V384s27.17,2.19,31.18-2.15S314.13,267.42,330.87,260c0,0,12-15.56,28.45-18.76,4.2-.82,15.64-2.27,15.64-2.27s3.9,4.9,6.56,4.69,7.3-5.75,7.3-5.75Z"/><g class="cls-26"><g id="Path_307-2" data-name="Path 307-2"><path id="Path_307-3" data-name="Path 307-3" class="cls-24" d="M426.47,257.08a111.7,111.7,0,0,0-31.71,87.08c4.44,54.18-80.06,46.74-75.6,9.11l-3,66.76,39.31-2.32V406.89s29.59-.84,43.31-2.23a284.63,284.63,0,0,0,30-5.14s-8.45-48.63-11.22-72.21,1-53,1-53a60.44,60.44,0,0,1,2.83-9.3A54.25,54.25,0,0,1,426.47,257.08Z"/><path id="Path_338" data-name="Path 338" class="cls-24" d="M449.54,250.41s11,21.88,13,35.33c12,83.67,6,135.92-5.44,140.6-20,8.16-102.19,5.71-102.19,5.71l-.58,15.83,126.26,3.43L496,327.21,457.07,253.8Z"/><rect id="Rectangle-8" class="cls-16" x="355.21" y="406.45" width="12" height="33.29"/><path id="Path_327" data-name="Path 327" class="cls-24" d="M330.54,260l-22.28,8L267.68,380.72l-52-5.07,15.11,52.09L321.07,420l-4.36-24.47,2-33.76s1.83-37.83,3.86-55.2S330.54,260,330.54,260Z"/></g></g></g><path id="Path_330" data-name="Path 330" class="cls-23" d="M330.54,260s-12.05,51.64-13.82,161.39"/><path id="Path_340" data-name="Path 340" class="cls-23" d="M300.28,380.72c-12.1-6.2-20.09,1.16-20.09,1.16s18.75,2.25,16.94,19.39"/><path id="Path_329" data-name="Path 329" class="cls-23" d="M441.79,439.5c-24.88,3.11-86.3,0-86.3,0V406.89s64.43-1.94,73.3-7.37c0,0-24.58-125.1-1.42-142"/><path id="Path_339" data-name="Path 339" class="cls-23" d="M441.79,415.78c5.94-12.81-13-16.26-13-16.26s.85-3,14.1-4.49"/><path id="Path_325" data-name="Path 325" class="cls-16" d="M406.93,230.14a28.35,28.35,0,0,1-13.83,6.63,17.35,17.35,0,0,0-11.58,6.84s4,.28,4,8.28a9.87,9.87,0,0,0,6.2,9.95,156.45,156.45,0,0,1,9.49-14.28,137.65,137.65,0,0,1,12-11.56,7.79,7.79,0,0,1-4.4-3.09A8.63,8.63,0,0,0,406.93,230.14Z"/><path id="Path_326" data-name="Path 326" class="cls-16" d="M374,232.55s-.13,9.12,7.49,11.06a33.81,33.81,0,0,0-9,3.82,75.38,75.38,0,0,0-8.93,10.12A40.8,40.8,0,0,1,366,240.67C369.3,232.17,374,232.55,374,232.55Z"/><path id="Path_333" data-name="Path 333" class="cls-16" d="M384.63,245.86s-3-1.36-4.52,2.64c0,0-.44-4.41-3.67-3.44l.66-2.24a31.71,31.71,0,0,0,5.65.76,12.28,12.28,0,0,0,2.7-.3C389.45,242.17,384.63,245.86,384.63,245.86Z"/></g><g id="laptop"><g id="Rectangle-9"><path id="Mask-197" class="cls-27" d="M345.23,435.43l-68.72,1.35-27.45-3.46-.05-4.77-48.12-10.14,38.88-2.11,55.81.78Z"/><g class="cls-28"><g id="Rectangle-10"><rect id="Rectangle-11" class="cls-29" x="275.76" y="429.33" width="69.35" height="7.99"/></g></g></g><path id="Path_336" data-name="Path 336" class="cls-30" d="M168.14,425h0a7.37,7.37,0,0,0,7.05,7.37l101.42,4.45v-10Z"/><path id="Path_334" data-name="Path 334" class="cls-31" d="M247,329.74,136.53,332l-2.67,2.66,34.67,90.64L279.22,429Z"/><path id="Path_334_Copy" data-name="Path 334 Copy" class="cls-32" d="M244.37,332.41l-110.51,2.28,32,90.64L276.55,429Z"/><ellipse id="Oval-4" class="cls-16" cx="199.07" cy="379.39" rx="7.33" ry="7.32"/></g><g id="right_hand" data-name="right hand"><path id="Path_328" data-name="Path 328" class="cls-3" d="M355.49,432.46s-27.89,6.11-36.85-6.11c0,0-9.39-3.16-10.24-4.4s-11.33,9.26-14.62,8.36-3.94-5.38,3.09-9.85c0,0-10.49,7.22-12.44,6.92s-4.39-1.27-3.18-2.74c0,0-3.75.64-3.26-.88S303.28,405,307.5,405a10,10,0,0,1,9.63-2.18c5.74,1.76,38.19,13.54,38.19,13.54Z"/><path id="Path_341" data-name="Path 341" class="cls-23" d="M294.32,422.35s11.95-9,14.22-9a72.52,72.52,0,0,1,11.82,3.85"/><path id="Path_342" data-name="Path 342" class="cls-23" d="M280.77,424.11s23.64-17.8,29.12-17.09a77.13,77.13,0,0,1,12.6,3.23"/><path id="Path_343" data-name="Path 343" class="cls-23" d="M307.5,405s4.93-2.31,14.37,1"/></g></g><path class="cls-33" d="M306.07,211.7q7.26,21.8,14.41,43.62c-8.55,9.48-14.09,21.32-17.6,31.4l-3-10.09q-8.56-28.85-16.85-57.78c-5.5-19.29-11-38.58-16.38-57.92l-4.06-14.5-2-7.25c-.33-1.21-.69-2.41-1-3.64a25.8,25.8,0,0,1-.54-3.76c-.14-2.59,0-5.26,0-7.87l-.16-7.82c-.09-5.22-.1-10.47,0-15.76,3.1,4.29,6.06,8.62,8.93,13l4.31,6.54c1.41,2.18,3.07,4.3,4.41,6.5a24.67,24.67,0,0,1,1.69,3.42c.47,1.16.85,2.37,1.26,3.55l2.44,7.12,4.87,14.24C293.32,173.65,299.68,192.68,306.07,211.7Z"/><path class="cls-24" d="M341.1,319.86c.66,2.12,1.32,4.25,2,6.37l-8.18-8.63Z"/><path class="cls-33" d="M540.78,407.85c-1.28.11-2.53.14-3.81.21l-3.77.1c-2.51.07-5,0-7.48,0s-5,.12-7.52.13a21.35,21.35,0,0,1-3.61-.33,23.1,23.1,0,0,1-3.4-.94l-26.65-8.81-3.1-1A151.67,151.67,0,0,0,482,374.7q4.88,2,9.74,4l26,10.59a24.9,24.9,0,0,1,3.19,1.49,20.85,20.85,0,0,1,3,2.11c1.89,1.61,3.72,3.41,5.64,5s3.81,3.18,5.68,4.86l2.81,2.52C538.94,406.09,539.88,406.93,540.78,407.85Z"/><path class="cls-33" d="M620.59,445.05a26.92,26.92,0,0,1-25.75-34.7,276.28,276.28,0,0,0,11.8-80.13c0-152.42-124-276.42-276.42-276.42a277.27,277.27,0,0,0-65.29,7.76A26.9,26.9,0,1,1,252.25,9.28,330.43,330.43,0,0,1,646.52,425.33,26.91,26.91,0,0,1,620.59,445.05Z"/><path class="cls-34" d="M330.22,660.44a331.86,331.86,0,0,1-72.67-8,26.9,26.9,0,1,1,11.81-52.49,276.85,276.85,0,0,0,293.48-120.3,26.9,26.9,0,1,1,45.24,29.11A330,330,0,0,1,330.22,660.44Z"/><path class="cls-24" d="M91.76,544.57A26.84,26.84,0,0,1,70.6,534.3,330.2,330.2,0,0,1,159.46,47.53a26.9,26.9,0,1,1,27.86,46C103.71,144.15,53.8,232.63,53.8,330.22A273.57,273.57,0,0,0,112.88,501a26.91,26.91,0,0,1-21.12,43.54Z"/></g></g></svg>