<svg xmlns="http://www.w3.org/2000/svg" xmlns:xlink="http://www.w3.org/1999/xlink" viewBox="0 0 802.98 589.6"><defs><style>.cls-1,.cls-13,.cls-14,.cls-15,.cls-17,.cls-19,.cls-23,.cls-24,.cls-27{fill:none;}.cls-2{clip-path:url(#clip-path);}.cls-3{fill:#56d4b7;}.cls-4{fill:#4c7fff;}.cls-5{fill:#955454;}.cls-6{fill:#ff9378;}.cls-7{fill:#cc5c6c;}.cls-8{fill:#ffc950;}.cls-9{fill:#061537;}.cls-10{fill:#ffd3c8;}.cls-11{clip-path:url(#clip-path-2);}.cls-12{fill:#f1b2a2;}.cls-13,.cls-16{stroke:#9d3f28;}.cls-13,.cls-14,.cls-15,.cls-16,.cls-24{stroke-linecap:round;}.cls-13,.cls-14,.cls-15,.cls-16,.cls-17{stroke-miterlimit:10;}.cls-13,.cls-14,.cls-16,.cls-17{stroke-width:1.33px;}.cls-14,.cls-17{stroke:#324a83;}.cls-15{stroke:#061537;stroke-width:2.21px;}.cls-16,.cls-22,.cls-25{fill:#fff;}.cls-18{clip-path:url(#clip-path-3);}.cls-19,.cls-27{stroke:#99776c;}.cls-19{stroke-miterlimit:10;stroke-width:1.33px;}.cls-20{clip-path:url(#clip-path-4);}.cls-21{fill:#df775d;}.cls-23{stroke:#301913;}.cls-23,.cls-27{stroke-miterlimit:10;stroke-width:1.33px;}.cls-24{stroke:#3e6c98;stroke-linejoin:round;stroke-width:18.84px;}.cls-25{font-size:27.14px;font-family:Poppins-Bold, Poppins;font-weight:700;}.cls-26{clip-path:url(#clip-path-5);}</style><clipPath id="clip-path" transform="translate(-4.79 0.44)"><rect class="cls-1" width="812.57" height="513.57" rx="17.77"/></clipPath><clipPath id="clip-path-2" transform="translate(-4.79 0.44)"><path class="cls-1" d="M559.42,211.46A50.73,50.73,0,0,1,563.79,189c17.47-.29,17.49-17.24,11.56-19.4s-10.91,6.14-10.91,6.14c2.31-16.45-14.4-3.59-22-30.47s-31-15.68-34.62-8.75-33.17,79.74,12.89,88.33a90.25,90.25,0,0,1-4,23.51,119.64,119.64,0,0,1-4.35,12.48c-7.64,12.72-31.86,43.11-9.41,58.84s65.17-18.05,62.11-44.2S559.83,224.51,559.42,211.46Z"/></clipPath><clipPath id="clip-path-3" transform="translate(-4.79 0.44)"><path class="cls-1" d="M311.7,304.05s-19.62-39.67-38.54-43.46a228.81,228.81,0,0,1-29.11-20.23c-7.88-7.6-10.7,3.6-6.73,7.75s19.26,18.18,19.21,19.44-13.8.47-20.93-7-7.87-11.46-11.77-8.58a13.88,13.88,0,0,1-7.13-11.84c-.72-8.94-8.4-10.3-8.44-9.2s3.3,17.8,3.3,17.8-6.56-9.77-9.45-9.87a4.32,4.32,0,0,0-4.14,4.49,4.59,4.59,0,0,0,.16,1c.76,2.36-7.18-4-5.22,4.74s41.67,43.33,62.75,44.07,32.9,28.51,32.9,28.51Z"/></clipPath><clipPath id="clip-path-4" transform="translate(-4.79 0.44)"><path class="cls-1" d="M393.63,514.79c17.26-31.15,33.12-44.3,36.46-53.08,7.28-19.09-3.29-59.08-3.29-59.08s-29.79,72.62-61.75,82-88.4-169.89-88.4-169.89l37.06-16.56,47.57,98.3s32.51-98.65,57.57-131.11c16.07-20.79,59.51-21.53,95.1-17.87,2.1.22-3,1.43-3,3,.31,6.75-7.49,22.82-.65,24,4.09.73,16.17,14.26,24.61,11.27,15.67-5.54,29.39-29.8,30.82-29.33C622,275,641.7,294.4,648.59,305.69l.75-1s64.92,147.8,38.32,172.38-161.87,44.31-161.87,44.31l-1.13-6.19c-36.14,3.12-83.15,22.87-139.54,52.09-4.73,2.44-13.5,6.27-13.5,6.27S385.86,528.79,393.63,514.79Zm193.65-48.91c26.55-10.91,50.87-21.41,50.87-23.22,0-3.44-22.59-55.22-28.66-69A248.09,248.09,0,0,0,587.28,465.88Z"/></clipPath><clipPath id="clip-path-5" transform="translate(-4.79 0.44)"><path class="cls-1" d="M520.71,496.58a47.22,47.22,0,0,1-18.35,0c-6.54-2.22-13.35-10.46-34-5.22s-42.18,12.73-34.93,14.85,28.66-3.67,28.66-3.67S434,517.23,435.24,529.19a4.27,4.27,0,0,0,5.79,1.74,4.16,4.16,0,0,0,.88-.63s.61,7.66,5.59,5.82,16.44-16.76,25.9-18.14c0,0-19.77,16.8-16.86,21.66s16.82-16,27.57-18.24,4.21,8.71,39.91-3.06Z"/></clipPath></defs><g id="Layer_2" data-name="Layer 2"><g id="_6" data-name="6"><g class="cls-2"><circle class="cls-3" cx="148.18" cy="327.46" r="31.24"/><circle class="cls-4" cx="229.27" cy="366.48" r="31.24"/><circle class="cls-5" cx="281.99" cy="173.46" r="31.24"/><circle class="cls-6" cx="130.47" cy="236.95" r="31.24"/><circle class="cls-7" cx="333.04" cy="243.33" r="31.24"/><circle class="cls-8" cx="186.45" cy="169.64" r="31.24"/><g id="head-18"><path id="Path_349-5" data-name="Path 349-5" class="cls-9" d="M507.5,256.59s-48.95,3.43-55.6-36.46S489.75,160,489.75,160s-14.3-43.12,22.29-54.57c0,0,22.69-32.48,66.38-13.26s23.39,60.44,44,70.54,47.15,16.48,38.38,48.49c0,0,33.58,28,17,78.76s-101.83,26.83-91.68-17.26c0,0-28.9,8-34.56-10S507.5,256.59,507.5,256.59Z" transform="translate(-4.79 0.44)"/><g id="Path_354-13" data-name="Path 354-13"><path id="Mask-308" class="cls-10" d="M559.42,211.46A50.73,50.73,0,0,1,563.79,189c17.47-.29,17.49-17.24,11.56-19.4s-10.91,6.14-10.91,6.14c2.31-16.45-14.4-3.59-22-30.47s-31-15.68-34.62-8.75-33.17,79.74,12.89,88.33a90.25,90.25,0,0,1-4,23.51,119.64,119.64,0,0,1-4.35,12.48c-7.64,12.72-31.86,43.11-9.41,58.84s65.17-18.05,62.11-44.2S559.83,224.51,559.42,211.46Z" transform="translate(-4.79 0.44)"/><g class="cls-11"><g id="Path_354-14" data-name="Path 354-14"><path id="Path_354-15" data-name="Path 354-15" class="cls-12" d="M518.33,224.42s19.57,5.41,34.06-19.72c0,0-6.16,47.72-34.86,48.75S518.33,224.42,518.33,224.42Z" transform="translate(-4.79 0.44)"/></g></g></g><path id="Path_350-5" data-name="Path 350-5" class="cls-13" d="M518.26,159.69A59,59,0,0,1,513,177c-3.92,7.27-7.21,11.85,5.3,12.6" transform="translate(-4.79 0.44)"/><ellipse id="Oval-29" class="cls-9" cx="507.37" cy="160.03" rx="2.62" ry="2.61" transform="translate(273.5 640.63) rotate(-82)"/><ellipse id="Oval-30" class="cls-14" cx="504.49" cy="159.99" rx="10.76" ry="10.68" transform="translate(271.05 637.74) rotate(-82)"/><ellipse id="Oval_Copy_29-7" data-name="Oval Copy 29-7" class="cls-14" cx="530.57" cy="167.29" rx="10.76" ry="10.68" transform="translate(286.27 669.85) rotate(-82)"/><ellipse id="Oval_Copy_28-5" data-name="Oval Copy 28-5" class="cls-9" cx="530.96" cy="167.04" rx="2.62" ry="2.61" transform="translate(286.85 670.02) rotate(-82)"/><path id="Path_351-5" data-name="Path 351-5" class="cls-15" d="M525.9,153.8s13.27-1.62,17.94,8" transform="translate(-4.79 0.44)"/><path id="Path_352-5" data-name="Path 352-5" class="cls-15" d="M504.7,146.87a8.23,8.23,0,0,1,8.19,2.47" transform="translate(-4.79 0.44)"/><path id="Path_353-5" data-name="Path 353-5" class="cls-16" d="M504.44,194.33a19,19,0,0,0,22.91,5.3s-8.29,9-14.38,7.18S504.44,194.33,504.44,194.33Z" transform="translate(-4.79 0.44)"/><path id="Path_378-5" data-name="Path 378-5" class="cls-14" d="M541.43,166.7l26.51,1.07" transform="translate(-4.79 0.44)"/><path id="Path_379-5" data-name="Path 379-5" class="cls-17" d="M515.12,160.35l5.62,2.12" transform="translate(-4.79 0.44)"/></g><path id="Mask-312" class="cls-10" d="M311.7,304.05s-19.62-39.67-38.54-43.46a228.81,228.81,0,0,1-29.11-20.23c-7.88-7.6-10.7,3.6-6.73,7.75s19.26,18.18,19.21,19.44-13.8.47-20.93-7-7.87-11.46-11.77-8.58a13.88,13.88,0,0,1-7.13-11.84c-.72-8.94-8.4-10.3-8.44-9.2s3.3,17.8,3.3,17.8-6.56-9.77-9.45-9.87a4.32,4.32,0,0,0-4.14,4.49,4.59,4.59,0,0,0,.16,1c.76,2.36-7.18-4-5.22,4.74s41.67,43.33,62.75,44.07,32.9,28.51,32.9,28.51Z" transform="translate(-4.79 0.44)"/><g class="cls-18"><g id="Path_357-5" data-name="Path 357-5"><path id="Path_357-6" data-name="Path 357-6" class="cls-12" d="M265.19,295.54s14.91-.05,34.69,27,65.55,113.55,119.67,91-20.92,32.37-20.92,32.37L290.45,397.19Z" transform="translate(-4.79 0.44)"/><path id="Path_377-2" data-name="Path 377-2" class="cls-12" d="M389.71,376.4l15.46-97L381.34,264l-7.22,93.49Z" transform="translate(-4.79 0.44)"/></g></g><path id="Path_361-2" data-name="Path 361-2" class="cls-19" d="M197.88,244.92l31.48,25.58" transform="translate(-4.79 0.44)"/><path id="Path_362-2" data-name="Path 362-2" class="cls-19" d="M210.31,246.52s4.14,4.85,6.56,7.1a75.21,75.21,0,0,0,6.63,5.18" transform="translate(-4.79 0.44)"/><path id="Mask-313" class="cls-6" d="M393.63,514.79c17.26-31.15,33.12-44.3,36.46-53.08,7.28-19.09-3.29-59.08-3.29-59.08s-29.79,72.62-61.75,82-88.4-169.89-88.4-169.89l37.06-16.56,47.57,98.3s32.51-98.65,57.57-131.11c16.07-20.79,59.51-21.53,95.1-17.87,2.1.22-3,1.43-3,3,.31,6.75-7.49,22.82-.65,24,4.09.73,16.17,14.26,24.61,11.27,15.67-5.54,29.39-29.8,30.82-29.33C622,275,641.7,294.4,648.59,305.69l.75-1s64.92,147.8,38.32,172.38-161.87,44.31-161.87,44.31l-1.13-6.19c-36.14,3.12-83.15,22.87-139.54,52.09-4.73,2.44-13.5,6.27-13.5,6.27S385.86,528.79,393.63,514.79Zm193.65-48.91c26.55-10.91,50.87-21.41,50.87-23.22,0-3.44-22.59-55.22-28.66-69A248.09,248.09,0,0,0,587.28,465.88Z" transform="translate(-4.79 0.44)"/><g class="cls-20"><g id="Path_414-2" data-name="Path 414-2"><path id="Path_414-3" data-name="Path 414-3" class="cls-21" d="M421.34,331.61s0,86.68,38,92.71A50.2,50.2,0,0,0,504,410.45s32.21,36.26,66.24,15.1c0,0,13.27-8,23.23-43.22,0,0,16.74,59.16-7.3,65.8s-68-4.77-79.69,10.73-37.79,6.18-37.79,18.48,51.87,12.31,51.87,12.31l4,31.74L358,589.16l30.5-86.49,38.29-72v-28s-3-26.73-4.05-40.35S421.34,331.61,421.34,331.61Z" transform="translate(-4.79 0.44)"/><path id="Path_415" data-name="Path 415" class="cls-21" d="M421.34,331.61s-26.27,177-75.92,141S358,515,358,515l63.33-69.13,5.44-43.25s-4.49-24.08-5.44-36.75S421.34,331.61,421.34,331.61Z" transform="translate(-4.79 0.44)"/><path id="Path_416" data-name="Path 416" class="cls-21" d="M299.57,298.14l62.75,101.34V320.2L314.14,284Z" transform="translate(-4.79 0.44)"/><path id="Path_417" data-name="Path 417" class="cls-21" d="M591.59,342.6s7.11,45.68-12.69,78.72-16.34,21.34-16.34,21.34,33.89-4.38,39.65-25.1a298.75,298.75,0,0,0,8.06-41.92Z" transform="translate(-4.79 0.44)"/></g></g><path id="Path_402-3" data-name="Path 402-3" class="cls-22" d="M519.39,239.91s-1.47,4.9-2.16,7.32c-5.61,19.66-3.89,30.68,7.22,33.59,18.72,4.9,37.41-36,37.41-36s18.22,59.82-1.16,63.68-36.25-21.18-36.25-21.18-44,10.21-46-3.08S519.39,239.91,519.39,239.91Z" transform="translate(-4.79 0.44)"/><path id="Path_22" data-name="Path 22" class="cls-23" d="M276.65,314.7l37.06-16.56,47.57,98.3s13.61,21.68,6.8,41.5" transform="translate(-4.79 0.44)"/><path id="Path_23" data-name="Path 23" class="cls-23" d="M361.28,396.43s4.06,23.57-7.59,27.89" transform="translate(-4.79 0.44)"/><path id="Path_27" data-name="Path 27" class="cls-23" d="M638.15,442.66a16.59,16.59,0,0,1,14.15-12" transform="translate(-4.79 0.44)"/><path id="Path_412" data-name="Path 412" class="cls-23" d="M401.1,452.09l25.7-49.46a524.25,524.25,0,0,1-5.46-71" transform="translate(-4.79 0.44)"/><path id="Path_413" data-name="Path 413" class="cls-23" d="M591.59,340.84S616.38,385.4,624.07,406s14.08,35.47,14.08,35.47" transform="translate(-4.79 0.44)"/><path id="Path_410" data-name="Path 410" class="cls-23" d="M426.8,400.36a231.55,231.55,0,0,1,5.86,39.2c.77,18.63-1.68,23.89-16.62,41.89s-41.22,69-43.45,90.76l29.26-13.56" transform="translate(-4.79 0.44)"/><polygon class="cls-10" points="228.55 276.6 223.86 269.38 220.12 260.74 219.24 254.3 220.08 251.3 221.16 251.37 223.33 253.09 225.35 255.63 227.4 260.79 229.82 265.23 233.23 268.77 236.65 271.17 240.45 272.74 236.11 276.28 228.55 276.6"/><path id="Path_360-2" data-name="Path 360-2" class="cls-19" d="M280.84,279.91c-13.35-10.21-17.35-4.43-32.56-6.92s-16-16.05-19.4-19.82-4.42-1.79-4.42-1.79-4.6,11.19,15.57,31.18" transform="translate(-4.79 0.44)"/><rect class="cls-24" x="9.42" y="9.42" width="784.14" height="495.6" rx="17.14"/><path class="cls-22" d="M250,373.33h.08V352.7H218.26v20.63h-.09l-4.1,5.17v.89h40v-.89Zm-30.76-19.68H249.1v18.73H219.21ZM229.83,378l.95-1.53h6.58l.95,1.53Zm-11.2-4h30.88l1.52,2h-34.1Z" transform="translate(-4.79 0.44)"/><path class="cls-22" d="M166.09,323.4c.35-.69.67-1.38.94-2,1.62-4.06,1.54-7.2-.25-8.83a4.51,4.51,0,0,0-3.2-1.12,15.33,15.33,0,0,0-7.27,2.51c-2.52-4.12-5.39-6.66-8-6.66a3.79,3.79,0,0,0-1.07.15c-2.33.65-3.83,3.41-4.21,7.76,0,.1,0,.21,0,.3a4.17,4.17,0,0,1,.94-.12,3.62,3.62,0,0,1,1.1.18,1.09,1.09,0,0,0,0-.18c.3-3.34,1.32-5.58,2.73-6a1.81,1.81,0,0,1,.52-.07c1.68,0,4,2.06,6.24,5.72a43.42,43.42,0,0,0-4.45,3.53c-.81-.1-1.62-.18-2.41-.24a3.74,3.74,0,0,1,.12.89,3.65,3.65,0,0,1-.2,1.15l.57.05c-.48.48-.95,1-1.41,1.47s-.88,1-1.3,1.47c0-.19,0-.38-.08-.57a3.85,3.85,0,0,1-1.44.29,3.8,3.8,0,0,1-.59-.06c.12.8.25,1.62.42,2.44a43.74,43.74,0,0,0-3,4.41c-.64-.35-1.26-.7-1.82-1.08-2.81-1.85-4.29-3.81-4-5.24s2.32-2.45,5.34-3a3.62,3.62,0,0,1-.27-1.36,3.82,3.82,0,0,1,.07-.68c-4,.67-6.62,2.27-7.13,4.56s1.19,5,4.83,7.4c.61.4,1.28.79,2,1.16-.36.71-.68,1.41-1,2.09-1.62,4.06-1.53,7.19.25,8.83a4.58,4.58,0,0,0,3.21,1.12A13.17,13.17,0,0,0,148,342a3.94,3.94,0,0,1-1.74-1.44,10,10,0,0,1-3.91,1,2.64,2.64,0,0,1-1.83-.58c-1.08-1-1-3.45.27-6.57.25-.63.55-1.27.88-1.93a39.65,39.65,0,0,0,4.8,1.88c.16.4.32.78.49,1.16a4,4,0,0,1,1.08-.68,3.79,3.79,0,0,1,.75-.21,4,4,0,0,1,.69-.07,3.84,3.84,0,0,1,2.9,1.33l.75.15c-.13.11-.27.21-.39.32a3.9,3.9,0,0,1,.6,2.05s0,.07,0,.11c.81-.64,1.63-1.33,2.45-2.07a42.73,42.73,0,0,0,4.81.35c0,.64,0,1.26-.08,1.84-.3,3.35-1.32,5.59-2.73,6a1.81,1.81,0,0,1-.52.07c-1.35,0-3.12-1.33-4.91-3.73a4,4,0,0,1-1.72,1.11c2.17,2.92,4.5,4.66,6.63,4.66a3.79,3.79,0,0,0,1.07-.15c2.33-.66,3.82-3.42,4.21-7.77.05-.65.08-1.33.09-2,5.8-.26,9.59-2,10.22-4.87S170.85,326,166.09,323.4Zm-10.49-6.59c.5.95,1,2,1.45,3.1-.73-.2-1.48-.38-2.24-.55s-1.34-.28-2-.4C153.74,318.17,154.68,317.45,155.6,316.81Zm-12.93,13.95c.53-.89,1.11-1.8,1.75-2.71.11.42.21.84.33,1.26.26.91.54,1.79.84,2.65C144.57,331.59,143.59,331.19,142.67,330.76Zm8.92,3c-1.21-.27-2.4-.59-3.54-.93-.48-1.27-.93-2.61-1.33-4-.27-.95-.5-1.89-.71-2.83.72-.9,1.49-1.8,2.3-2.68s1.66-1.74,2.52-2.54c1.17.18,2.35.38,3.53.65s2.34.57,3.43.89a2,2,0,0,1,0-.34,3.73,3.73,0,0,1,.52-1.62,4,4,0,0,1,.71-.87c-.54-1.32-1.13-2.56-1.74-3.71a13.44,13.44,0,0,1,6.26-2.26,2.58,2.58,0,0,1,1.82.58c1.08,1,1,3.45-.26,6.57l0,0a3.69,3.69,0,0,1,.38,1.63,4.17,4.17,0,0,1-.08.8,3.82,3.82,0,0,1-1,1.82,3.75,3.75,0,0,1-2.27,1.18c-.22.35-.47.69-.71,1-.08-.34-.17-.68-.25-1a3.87,3.87,0,0,1-2.47-1.28c.06.17.11.34.16.52.37,1.32.68,2.64.94,3.93-.7.87-1.43,1.73-2.22,2.58s-1.66,1.74-2.52,2.54C154,334.19,152.77,334,151.59,333.72Zm6.14,1c.48-.48,1-1,1.42-1.47s.77-.87,1.15-1.3c.13,1,.22,2,.27,2.92C159.65,334.82,158.7,334.76,157.73,334.68Zm13.16-3.13c-.4,1.79-3.66,3.05-8.28,3.27a42.13,42.13,0,0,0-.58-5,43.41,43.41,0,0,0,3.07-4.56C169.11,327.4,171.28,329.82,170.89,331.55Z" transform="translate(-4.79 0.44)"/><path class="cls-22" d="M143.28,322.16a2.82,2.82,0,0,0,.71.09,3.09,3.09,0,0,0,2.85-2,3.07,3.07,0,0,0-1.79-3.95,3.16,3.16,0,0,0-1.06-.2,3,3,0,0,0-1,.18,3,3,0,0,0,.28,5.85Z" transform="translate(-4.79 0.44)"/><path class="cls-22" d="M151.9,340.38a2.78,2.78,0,0,0,.55-1.1,2.67,2.67,0,0,0,.12-.8,3.08,3.08,0,0,0-3.06-3.06c-.12,0-.24,0-.36,0a3.06,3.06,0,0,0-2.7,3,3.07,3.07,0,0,0,2.6,3,3.57,3.57,0,0,0,.46,0,3.71,3.71,0,0,0,.67-.07A3.09,3.09,0,0,0,151.9,340.38Z" transform="translate(-4.79 0.44)"/><path class="cls-22" d="M161,325.25a3.36,3.36,0,0,0,.63.06,3,3,0,0,0,1.17-.23,3,3,0,0,0,.89-.58,3,3,0,0,0,1-1.82,3,3,0,0,0,.05-.43,3.31,3.31,0,0,0-.06-.55,3,3,0,0,0-5.28-1.48c-.08.1-.17.19-.24.29a3.09,3.09,0,0,0-.54,1.74,2,2,0,0,0,0,.25A3.07,3.07,0,0,0,161,325.25Z" transform="translate(-4.79 0.44)"/><path class="cls-22" d="M153,323.2a4.34,4.34,0,1,0,4.33,4.34A4.34,4.34,0,0,0,153,323.2Z" transform="translate(-4.79 0.44)"/><path class="cls-22" d="M344.4,235.5c.06.11.12.22.19.33a20.7,20.7,0,0,0,3.8-.23,10,10,0,0,0,2.6-.78l-1.66-1-8.27-4.91a14,14,0,0,0,.88,2.23c.15.3.31.6.47.9l3.81,2.26c-.82,0-1.66,0-2.52,0Z" transform="translate(-4.79 0.44)"/><path class="cls-22" d="M341.29,235.68l-.66-1.13c-.07-.11-.13-.22-.19-.33a21.6,21.6,0,0,0-3.43.18,10.2,10.2,0,0,0-2.69.73l1.71,1,7.81,4.65a14.59,14.59,0,0,0-.95-2.27l-.49-.92-3.15-1.87c.68,0,1.37,0,2.08,0Z" transform="translate(-4.79 0.44)"/><path class="cls-22" d="M337,259.62l-1.48-.87-9.84-5.86-.36.17a5.62,5.62,0,0,0-1.42,1.11l11.26,6.69a7.57,7.57,0,0,1-.59,1.27l1.29.76a8.44,8.44,0,0,0,.62-1.24A7.78,7.78,0,0,0,337,259.62Z" transform="translate(-4.79 0.44)"/><path class="cls-22" d="M329.12,252.13a12.12,12.12,0,0,0-2.3.35l8.59,5.11,1.62,1a9.75,9.75,0,0,0-.47-2.61,20.24,20.24,0,0,0-1.71-3.75h-.38l-1.38,0c.5.86,1,1.7,1.36,2.54l-4.37-2.59C329.76,252.1,329.43,252.11,329.12,252.13Z" transform="translate(-4.79 0.44)"/><path class="cls-22" d="M340.83,227.68l9.6,5.72,1.51.89a7.85,7.85,0,0,0,1.58-1.39,8.87,8.87,0,0,0,.94-1.3l-1.29-.77a6.92,6.92,0,0,1-1,1.28L341,225.46a5.39,5.39,0,0,0-.21,1.8C340.8,227.41,340.82,227.55,340.83,227.68Z" transform="translate(-4.79 0.44)"/><path class="cls-22" d="M336.34,249.43a14.31,14.31,0,0,0,2.45-.24l-7.74-4.61-1.71-1a10.17,10.17,0,0,0,.66,2.73,22.76,22.76,0,0,0,1.45,3h.38l1.32,0h.06c-.34-.59-.67-1.18-1-1.76l3.05,1.82Z" transform="translate(-4.79 0.44)"/><path class="cls-22" d="M340.5,248.68a6,6,0,0,0,1.54-1l-11-6.55-1.35-.8a7.89,7.89,0,0,0-.38,2.1l1.55.92,9.21,5.48Z" transform="translate(-4.79 0.44)"/><path class="cls-22" d="M331.37,240.15l11.41,6.78.05-.06c.19-.26.35-.48.49-.71a7.24,7.24,0,0,0,.43-.88l0-.09-11.36-6.75-1.32-.78a10.35,10.35,0,0,0-.59.88c-.16.28-.31.56-.44.83Z" transform="translate(-4.79 0.44)"/><path class="cls-22" d="M331.72,236.93l1.35.8,11,6.54a5.84,5.84,0,0,0,.11-1.82,3.55,3.55,0,0,0-.06-.47l-9.18-5.46-1.54-.92A7.74,7.74,0,0,0,331.72,236.93Z" transform="translate(-4.79 0.44)"/><path class="cls-22" d="M341.18,234.23l.66,1.13.24.4c.48.83,1,1.65,1.38,2.47a13.93,13.93,0,0,1,1.17,3,9,9,0,0,1,.19,1.14,6.7,6.7,0,0,1-.18,2.22,6.06,6.06,0,0,1-.3.91,8.59,8.59,0,0,1-.48,1,6.28,6.28,0,0,1-.53.78,6.72,6.72,0,0,1-.72.78,6.37,6.37,0,0,1-1.86,1.22,8.81,8.81,0,0,1-1.16.4,14,14,0,0,1-3.24.41c-.89,0-1.82,0-2.76,0l-.47,0-1.3,0a22.78,22.78,0,0,0-4.85.27l-.36.08a8,8,0,0,0-5.41,3.86l1.3.77a6.92,6.92,0,0,1,.83-1.12A6.4,6.4,0,0,1,325,252.5a6.72,6.72,0,0,1,1.07-.45,11.48,11.48,0,0,1,3-.55c1.16-.07,2.38,0,3.63,0h.36l1.42.05a24.29,24.29,0,0,0,4.11-.16,10.65,10.65,0,0,0,2.7-.72,8.55,8.55,0,0,0,5-8.41,10.38,10.38,0,0,0-.64-2.71,24.43,24.43,0,0,0-1.84-3.74l-.72-1.22-.18-.31c-.57-1-1.11-1.91-1.57-2.86a12.26,12.26,0,0,1-1.08-3,7.78,7.78,0,0,1-.14-1.17,6.18,6.18,0,0,1,.28-2.16,7.07,7.07,0,0,1,.67-1.47l-1.3-.77C337.39,227,339.12,230.66,341.18,234.23Z" transform="translate(-4.79 0.44)"/><text class="cls-25" transform="translate(262.77 181.17)">aA</text><path class="cls-22" d="M122.93,256.51c-.18-.15-.34-.28-.48-.42s-.26-.31-.38-.45a2.55,2.55,0,0,1,.42-1.63c1.16-2.13,2.32-4.26,3.5-6.38,1.77-3.17,3.53-6.35,5.32-9.52a3.47,3.47,0,0,0,.47-1.72c0-3.45,0-6.9,0-10.35l-.65-1.06.3-.62H139a1.12,1.12,0,0,1-.34,1.53c0,3.61,0,7.19,0,10.76a2.57,2.57,0,0,0,.27,1.16c.82,1.54,1.67,3.05,2.52,4.56.52.92,1.06,1.81,1.57,2.73,1.67,3,3.34,6,5,9a7.52,7.52,0,0,1,.46,1.41l-.92,1Zm22.52-3-3.78-6c-1.77-.72-1.6-.5-2.84,0a6.1,6.1,0,0,1-4.69.16,6.48,6.48,0,0,0-3.31-.57c-1.39.2-2.68.58-3.25,2.1a13.22,13.22,0,0,1-.71,1.27,16,16,0,0,0-1.56,3.39l.34.5c6,0,12,0,18,0a8.68,8.68,0,0,0,1.6-.3Zm-10.2-10.54v1.37l1.24.81.92-.44a1.47,1.47,0,0,0-.06-2.18l-1-.33Zm-.81-1.9c.07-.45.09-.84-.48-1.05l-.81.54.69.85Z" transform="translate(-4.79 0.44)"/><path class="cls-22" d="M137.4,221.2c-.87,1.24-.87,1.24-2.45,1.17a2.38,2.38,0,0,1-1.19-1.56c.51-1.66.84-1.89,2.45-1.83C137.29,219.79,137.38,220,137.4,221.2Z" transform="translate(-4.79 0.44)"/><path class="cls-22" d="M137.29,216.51a1.32,1.32,0,0,1,1.12,1.31l-.93.83a1.48,1.48,0,0,1-1.28-1A1.26,1.26,0,0,1,137.29,216.51Z" transform="translate(-4.79 0.44)"/><path class="cls-22" d="M178.36,179.71l-4.08-4.14,2.11-2.15,4.13,4.09c1.47-1.31,2.72-2.74,4.16-4a8.69,8.69,0,0,1,2.12,1.95,12.66,12.66,0,0,1-2,2.18c-.65.69-1.33,1.34-2.09,2.1l4.1,4.15a9.35,9.35,0,0,1-2.05,2.18c-1.43-1.33-2.74-2.75-4.22-4.15l-4.12,4.1a9.44,9.44,0,0,1-2.2-2.05C175.55,182.49,177,181.17,178.36,179.71Z" transform="translate(-4.79 0.44)"/><path class="cls-22" d="M182,159.55v4.54a6.7,6.7,0,0,1-3,.07v-4.62l-4.69-.08a9,9,0,0,1,0-2.88c1.51-.23,3,0,4.66-.17v-4.49a8.37,8.37,0,0,1,3-.16v4.69l4.7.08a9.58,9.58,0,0,1,0,2.88C185.22,159.61,183.69,159.41,182,159.55Z" transform="translate(-4.79 0.44)"/><path class="cls-22" d="M195.77,178h12.3a7.65,7.65,0,0,1,.15,2.73,108.78,108.78,0,0,1-12.41.07A9,9,0,0,1,195.77,178Z" transform="translate(-4.79 0.44)"/><path class="cls-22" d="M197.5,160v-3.34a57.62,57.62,0,0,1,8.92-.09,22.23,22.23,0,0,1,.06,3.4C203.48,160,200.57,160,197.5,160Z" transform="translate(-4.79 0.44)"/><path class="cls-22" d="M201.22,172.21h1.49c1.07.76,1.1.79,1.5,1.91-.32,1.54-1,2.28-2.1,2.35a2.32,2.32,0,0,1-2.27-1.58C199.51,174,199.88,173.21,201.22,172.21Z" transform="translate(-4.79 0.44)"/><path class="cls-22" d="M204.21,184.55c-.51,1.61-1.34,2.29-2.52,2.14a2.43,2.43,0,0,1-2-2.11,2.39,2.39,0,0,1,1.9-2.17C202.83,182.2,203.72,182.92,204.21,184.55Z" transform="translate(-4.79 0.44)"/></g><path class="cls-6" d="M520.56,488.19l5.38,38.46s55.41-10.89,138.64-37" transform="translate(-4.79 0.44)"/><g id="right_hand-14" data-name="right hand-14"><g id="Path_460" data-name="Path 460"><path id="Mask-314" class="cls-10" d="M520.71,496.58a47.22,47.22,0,0,1-18.35,0c-6.54-2.22-13.35-10.46-34-5.22s-42.18,12.73-34.93,14.85,28.66-3.67,28.66-3.67S434,517.23,435.24,529.19a4.27,4.27,0,0,0,5.79,1.74,4.16,4.16,0,0,0,.88-.63s.61,7.66,5.59,5.82,16.44-16.76,25.9-18.14c0,0-19.77,16.8-16.86,21.66s16.82-16,27.57-18.24,4.21,8.71,39.91-3.06Z" transform="translate(-4.79 0.44)"/><g class="cls-26"><g id="Path_460-2" data-name="Path 460-2"><path id="Path_460-3" data-name="Path 460-3" class="cls-12" d="M520.56,495.68l-2.17,26.7L529,518.65Z" transform="translate(-4.79 0.44)"/></g></g></g><path id="Path_419" data-name="Path 419" class="cls-27" d="M500.12,495.62s-15.63-8.52-30.83-4.27-39,9.37-37.31,13.73,26.5-1.34,29.07-2.41c0,0-24.12,14.5-25.48,22.65s6.34,5,6.34,5" transform="translate(-4.79 0.44)"/><path id="Path_418" data-name="Path 418" class="cls-27" d="M441.91,530.3s6-12,24.37-20.85" transform="translate(-4.79 0.44)"/></g><path id="Path_26" data-name="Path 26" class="cls-23" d="M525.3,521.4l-4.74-31.74s91.45-32.06,117.59-47a39,39,0,0,1,24.48,2.6" transform="translate(-4.79 0.44)"/></g></g></svg>