<svg xmlns="http://www.w3.org/2000/svg" xmlns:xlink="http://www.w3.org/1999/xlink" viewBox="0 0 723.77 615.34" xmlns:v="https://vecta.io/nano"><defs><clipPath id="A" transform="translate(0 -30.27)"><path transform="matrix(.645458 -.763796 .763796 .645458 -129.84 517.81)" d="M313.48 203.91h358.66V593.6H313.48z" fill="none"/></clipPath><linearGradient id="B" x1="359.585" y1="-74.459" x2="-8.756" y2="812.491" gradientUnits="userSpaceOnUse"><stop offset="0" stop-color="#aa80f9"/><stop offset="1" stop-color="#6165d7"/></linearGradient><linearGradient id="C" x1="320.618" y1="-158.45" x2="-67.078" y2="775.104" xlink:href="#B"/><clipPath id="D" transform="translate(0 -30.27)"><path transform="matrix(.740218 -.672367 .672367 .740218 -57.83 231.64)" d="M92.02 95.54h357.72v190.25H92.02z" fill="none"/></clipPath><linearGradient id="E" x1="847.368" y1="110.397" x2="342.641" y2="980.657" xlink:href="#B"/><linearGradient id="F" x1="801.603" y1="53.761" x2="317.155" y2="889.061" xlink:href="#B"/><linearGradient id="G" x1="438.422" y1="262.271" x2="358.715" y2="399.708" xlink:href="#B"/></defs><g clip-path="url(#A)"><path d="M411.21 141.73a97.35 97.35 0 0 1-7 12.57 267.22 267.22 0 0 1-28.78 36l-4.37 4.36a55.55 55.55 0 0 1 7.26 5.65c8 7.38 12.81 20.19 12.81 30.92a33 33 0 0 1-3.77 16.85 32.58 32.58 0 0 1-7.6 12.65c-3.73 5.49-7.16 11.18-10.88 16.68a210.81 210.81 0 0 1-23.05 28.64c-12.69 13.09-27.24 24.17-41.24 35.8a43.63 43.63 0 0 1-19.29 11.24l-11.63 1.56c-10.44.47-20.31-4.05-28.25-10.51a88.86 88.86 0 0 1-21.27 14.59c111.52 70.55 258.18 98.2 318.77 231q90.42-110.42 180.85-220.82C664.29 238.55 521.91 209.5 411.21 141.73z" fill="#56d4b7"/><path d="M545.82 552.59c-91.25-159.86-319.4-152.51-410.65-312.34L289.09 52.3c91.25 159.84 319.4 152.52 410.65 312.35q-76.97 93.98-153.92 187.94z" fill="#fff"/><g transform="translate(0 -30.27)"><path d="M315.92 115.67l-2 2.31-.18.19c-8.16 8.57-18.52 12.63-28.45 11.7-8.68-.8-17-5.45-23.16-14.33a48 48 0 0 1-2.55-4.16 59.37 59.37 0 0 1-6.18-18.72L292 45.5A252.25 252.25 0 0 0 324.9 99a48.39 48.39 0 0 1-8.98 16.67z" fill="url(#B)"/><path d="M158.41 308a43.6 43.6 0 0 1-14.56 11.52 252 252 0 0 1-32.71-53.2q19.77-24.12 39.53-48.26a62.61 62.61 0 0 1 10.1 13.94l2.27 4.5c10.59 22.76 10.74 50.73-3 69.46-.05.08-.11.15-.16.22l-1.47 1.82z" fill="url(#C)"/></g><g fill="#56d4b7"><path d="M723.77 368.85l-38.63 47.16A62.61 62.61 0 0 1 675 402.08q-1.2-2.21-2.27-4.5c-10.48-22.52-10.8-50.08 2.57-68.82.62-.87 1.15-1.59 1.83-2.41 4.06-5 9-9 13.69-10.95a252.25 252.25 0 0 1 32.95 53.45zM582.44 541.41l-39.52 48.26a252 252 0 0 0-32.71-53.2c2.41-7 5.22-12.63 9.45-17.8a61.61 61.61 0 0 1 1.49-1.73l.18-.2c7.63-8.35 17.29-12.68 26.78-12.57s18.83 4.75 25.55 14.43a43.84 43.84 0 0 1 2.57 4.13 59.17 59.17 0 0 1 6.21 18.68zm-88.9-201.08c-28.87 35.25-85.57 45.93-128.36 25.95s-52.49-66.69-23.36-102.26c28.87-35.25 85.57-45.93 128.36-26s52.49 66.71 23.36 102.31z"/></g><path d="M442.46 314.91c-1.49-6.17-5.72-12.54-14.36-19.87l12.84-15.68 1.07.61a51.68 51.68 0 0 1 9.3 6.74 45 45 0 0 1 4.21 4.44c1.41 1.74 4.45 1.73 6.16 0q3.22-3.23 6.44-6.47a3.11 3.11 0 0 0 .08-4.54c-2.13-2.1-4.53-4.16-6.88-6.06a96.29 96.29 0 0 0-10.19-7.17l4.48-5.47a3 3 0 0 0-.68-4.74 4.32 4.32 0 0 0-5.46 1.06l-4.58 5.6c-9.22-4.4-17.83-6.22-25.6-5.32a28.4 28.4 0 0 0-19.37 10.69c-4.92 6-6.62 12.09-5.11 18.22s6.23 12.41 14.12 18.9l-14.34 17.42a70.35 70.35 0 0 1-10.92-7.62 64.26 64.26 0 0 1-6-5.82 4.65 4.65 0 0 0-6.54 0l-8.13 8.38a3.08 3.08 0 0 0 .07 4.59 79.49 79.49 0 0 0 7.36 5.9 107.53 107.53 0 0 0 11.84 7.25l1.57.83q-2.43 3-4.88 6c-1.32 1.62-1.11 3.68.79 4.59h.06a4.66 4.66 0 0 0 5.54-1.23l4.95-6a56.34 56.34 0 0 0 19.48 4.57 39.29 39.29 0 0 0 7.78-.42 31.15 31.15 0 0 0 20-11.37c4.77-5.87 6.37-11.87 4.9-18.01zm-27.91-4.45c2.56 2.47 4.36 4.93 4.8 7.09a7.53 7.53 0 0 1-1.89 6.42 11.3 11.3 0 0 1-7 4.13 14.93 14.93 0 0 1-9-1.64zm3.57-26.37a6.35 6.35 0 0 1 1.56-5.76 9.68 9.68 0 0 1 6.31-3.54 17.63 17.63 0 0 1 8.5 1.27l-11.79 14.39c-2.7-2.32-4.08-4.39-4.58-6.36z" fill="#fff"/><path d="M543.51 588.95l-.59.72c-86-188.54-345.72-165.08-431.78-353.62l177-216.15a277.82 277.82 0 0 1 1.78 33.83 258.28 258.28 0 0 1-4.66 45.86 310.3 310.3 0 0 1-18.74 61.14c-46.25 110.73-6.61 142.25 60.16 161 17.7 5.16 37.17 9.59 57 15 8.71 2.38 17.49 5 26.21 8a320.43 320.43 0 0 1 49.58 21.37c53.53 27.83 89.93 77 88.66 138.1a172.27 172.27 0 0 1-3.76 34.06 87.59 87.59 0 0 0-1.44 9.41c-1.24 11.86-.66 25.68.58 41.28z" fill="#45aa92" opacity=".2"/></g><path d="M251.76 436.11l-7 .06-25.53.2c3-13.64-3.84-22.9-8.78-27.6a29.5 29.5 0 0 0-4.55-3.61l4.84-49.64 17-174.62a25.3 25.3 0 0 1 5.7-13.55l24.59-30a2 2 0 0 1 3.6 1.3z" fill="#c4eaff"/><path d="M244.71 436.17l-25.53.2c3-13.64-3.84-22.9-8.78-27.6l.29-53.25 17-174.62a25.3 25.3 0 0 1 5.7-13.55l18.12-22.1c-7.64 17.95-20 52.16-12 68.95 11.26 23.37 16.36 55.15.11 91.35s-7.37 63.29.75 96.12c3.97 15.87 4.63 27.11 4.34 34.5z" fill="#7fc1ff"/><path d="M283.92 557.24a86.6 86.6 0 0 0 .67-44.2c-3.66-14.21-10.94-26.11-21.07-34.41-4.28-3.52-7.44-6.82-12.46-8.81l1.25-40.49-32.75-2.22-1.32 19.42a36.23 36.23 0 0 1-17.57 28.64c-1.92 1.15-3.82 2.41-5.68 3.78-14.44 10.63-25.22 26.9-30.37 45.81a86.64 86.64 0 0 0-.67 44.21c3.66 14.21 10.94 26.11 21.06 34.41a52.31 52.31 0 0 0 19.52 10.12c16.41 4.46 33.81.76 49-10.44 14.47-10.63 25.24-26.9 30.39-45.82zm-43.35 28.2c-9.71 7.15-20.47 9.62-30.29 6.94a30.47 30.47 0 0 1-11.39-5.92c-13.88-11.38-19.17-33.86-13.16-56 3.86-14.17 11.76-26.23 22.24-33.94 9.71-7.15 20.47-9.62 30.29-7a30.5 30.5 0 0 1 11.39 5.93c13.88 11.38 19.17 33.86 13.15 55.94-3.8 14.28-11.75 26.34-22.23 34.05z" fill="#3e6c98"/><path d="M462.33 304.9l-24.59 30a25.27 25.27 0 0 1-12.25 8.18L209.8 408.4s-13.9-15.4-33.21-6.95l-5.13-26.79-1.08-5.64 289.86-67.49a2.09 2.09 0 0 1 2.09 3.37z" fill="#c4eaff"/><path d="M462.33 304.9l-290.87 69.76-1.08-5.64 289.86-67.49a2.09 2.09 0 0 1 2.09 3.37z" fill="#7fc1ff"/><g fill="#3e6c98"><path d="M137.09 378.17a52.42 52.42 0 0 0-10.86-12.11c-10.12-8.33-23.23-13.11-37.87-13.91a86.58 86.58 0 0 0-43.22 9.32c-17.54 8.76-31.38 22.52-39 38.76-8 17.11-8.23 34.9-.63 50.11a52.29 52.29 0 0 0 13.74 17.16c10.13 8.3 23.23 13.11 37.88 13.91a86.54 86.54 0 0 0 43.21-9.32c17.54-8.76 31.39-22.52 39-38.76q1.47-3.15 2.59-6.31a36.19 36.19 0 0 1 24.64-22.85l18.79-5.1-8.6-31.68zM90.6 452.51c-20.48 10.22-43.6 9.45-57.44-1.93a30.49 30.49 0 0 1-8-10c-4.55-9.11-4.24-20.14.87-31.06 5.51-11.79 15.79-21.9 28.93-28.46 20.47-10.22 43.56-9.45 57.44 1.93a30.72 30.72 0 0 1 8 10c4.55 9.11 4.24 20.14-.87 31.07-5.53 11.78-15.79 21.89-28.93 28.45z"/><circle cx="228.1" cy="408.87" r="10.03" transform="matrix(.222059 -.975033 .975033 .222059 -221.22 510.18)"/></g><path d="M227.38 381.78a1.64 1.64 0 0 1-2.31.23h0a1.65 1.65 0 0 1-.23-2.31l4.51-5.5a1.65 1.65 0 0 1 2.31-.23h0a1.64 1.64 0 0 1 .23 2.31z" fill="#c4eaff"/><path d="M212.29 342.37l12.7 2.88 146.82-135.2 47.73-55.4-10.87-5.22-196.38 192.94z" fill="#56d4b7"/><g clip-path="url(#D)"><path d="M693.26 407.32L485 602.44c-60.52-198.21-321-209.11-381.53-407.32L311.74 0c60.51 198.21 321.01 209.11 381.52 407.32z" fill="#56d4b7"/><path d="M492.7 566.07c-69.44-170.44-296.57-193.19-366-363.63L304 36.37C373.44 206.82 600.57 229.56 670 400z" fill="#fff"/><g fill="#56d4b7"><path d="M326.24 72.73l-2.32 2c-.08 0-.14.11-.21.16-9.22 7.43-20 10.09-29.74 7.86-8.5-1.93-16.13-7.64-21.08-17.25a45.46 45.46 0 0 1-2-4.46 59.52 59.52 0 0 1-3.67-19.37L311.71 0a251.93 251.93 0 0 0 25.59 57.31 48.59 48.59 0 0 1-11.06 15.42zM144.8 242.65a43.31 43.31 0 0 1-16 9.5 252.18 252.18 0 0 1-25.43-57L149 152.48a61.92 61.92 0 0 1 8.18 15.14l1.66 4.75c7.51 24 4 51.7-12.15 68.46l-.19.2-1.7 1.62z"/></g><g transform="translate(0 -30.27)"><path d="M693.26 437.59l-44.49 41.68a62.1 62.1 0 0 1-8.18-15.14l-1.66-4.76c-7.43-23.7-4.12-51.07 11.59-67.88a39.46 39.46 0 0 1 2.14-2.15c4.68-4.38 10.14-7.72 15-9a251.85 251.85 0 0 1 25.6 57.25z" fill="url(#E)"/><path d="M530.47 590.07L485 632.71a251.94 251.94 0 0 0-25.43-57c3.3-6.59 6.83-11.83 11.71-16.4.54-.51 1.14-1 1.71-1.53l.2-.17c8.65-7.28 18.81-10.29 28.2-8.94s18 7.19 23.43 17.67a45 45 0 0 1 2 4.43 59.24 59.24 0 0 1 3.65 19.3z" fill="url(#F)"/><path d="M468.79 379.05c-33.26 31.14-90.87 34.28-130.67 8.85s-43.25-73-9.7-104.45c33.25-31.14 90.87-34.28 130.66-8.85s43.26 73.02 9.71 104.45z" fill="url(#G)"/></g><path d="M421.49 316.86c-.66-6.31-4-13.18-11.62-21.58l14.79-13.86 1 .75a52.07 52.07 0 0 1 8.32 7.9 43.28 43.28 0 0 1 3.59 5c1.17 1.91 4.19 2.29 6.11.82l7.23-5.57a3.11 3.11 0 0 0 .68-4.49c-1.84-2.36-3.94-4.72-6-6.91a95.44 95.44 0 0 0-9.17-8.45l5.17-4.84a3 3 0 0 0-.05-4.79 4.34 4.34 0 0 0-5.56.34l-5.27 4.95c-8.56-5.58-16.86-8.51-24.68-8.64a28.4 28.4 0 0 0-20.6 8q-8.5 8-7.46 17.39c.69 6.24 4.54 13.13 11.51 20.6l-16.54 15.35a69.75 69.75 0 0 1-9.82-9 64.16 64.16 0 0 1-5.14-6.56 4.66 4.66 0 0 0-6.49-.83l-9.21 7.29a3.08 3.08 0 0 0-.53 4.56 80 80 0 0 0 6.52 6.83 109.22 109.22 0 0 0 10.79 8.74l1.45 1-5.62 5.26c-1.52 1.43-1.59 3.5.17 4.65h.06a4.64 4.64 0 0 0 5.65-.49l5.7-5.34a56.63 56.63 0 0 0 18.72 7.09 40.18 40.18 0 0 0 7.76.61 31.18 31.18 0 0 0 21.33-8.65c5.48-5.11 7.86-10.85 7.21-17.13zm-27.08-8.08c2.21 2.79 3.67 5.46 3.82 7.66a7.47 7.47 0 0 1-2.72 6.11 11.23 11.23 0 0 1-7.51 3.18 15 15 0 0 1-8.67-2.81zm7-25.67a6.36 6.36 0 0 1 2.3-5.51 9.72 9.72 0 0 1 6.72-2.67 17.63 17.63 0 0 1 8.26 2.37l-13.58 12.72c-2.33-2.66-3.46-4.89-3.69-6.91z" fill="#fff"/><path d="M485.63 601.81l-.68.63c-60.52-198.21-321-209.11-381.53-407.32l203.91-191a274.9 274.9 0 0 1-2.71 33.78A257.89 257.89 0 0 1 294 82.73a310.35 310.35 0 0 1-26.61 58.1c-60.39 103.7-25.28 140.16 38.43 167.55 16.87 7.44 35.59 14.4 54.52 22.35 8.32 3.5 16.67 7.29 24.93 11.38a321.47 321.47 0 0 1 46.33 27.7c49.41 34.63 79 88.17 69.74 148.56a171.83 171.83 0 0 1-8.22 33.27 90.19 90.19 0 0 0-2.65 9.14c-2.78 11.63-4.02 25.41-4.84 41.03z" fill="#45aa92" opacity=".2"/></g></svg>