<svg xmlns="http://www.w3.org/2000/svg" viewBox="0 0 588.28 644.45" xmlns:v="https://vecta.io/nano"><path d="M501.02 572.47L79.96 620.96 13.14 50.66 434.2 2.17l66.82 570.3z" fill="#e6e6e6"/><path d="M526.76 563.4l-416.02 81.05L0 81.05 416.02 0l110.74 563.4z" fill="#f2f2f2"/><path d="M516.69 575.86l-422.2 37.19L43.33 41.17 465.54 3.98l51.15 571.88z" fill="#fafafa"/><path d="M188.707 206.726l75.404-6.915 2.313 25.224-75.404 6.915zm138.657 193.946l100.887-9.252 2.313 25.224-100.887 9.252z" fill="#ffe39b"/><path d="M324.4 72.83l111.76-9.97M80.18 94.6l50.72-4.52m298.41 71.48l16.86-1.51m-93.77 8.37l67.55-6.03m-106.78 9.53l28.09-2.51m-107.68 9.6l67.1-5.98m-118.37 10.55l39.46-3.51M90.19 191.8l79.63-7.1m227.28 16.29l57.54-5.13m-176.81 15.77l106.12-9.47m-187.48 16.72l62.19-5.55m-160 14.27l86.44-7.71m232.95 16.92l36.93-3.29m-138.59 12.36l90.06-8.03m-113.02 10.07l14.49-1.29m-82.93 7.4l58.19-5.19m-163.63 14.59l96.3-8.59M99.01 265.26l12.06-1.07m268.97 12.57l77.06-6.87m-205.69 18.34l114.81-10.24m-146.91 13.1l20.06-1.79m-138.25 12.33l102.58-9.15m91.29 28.42l11.66-1.04m-106.18 9.47l82.93-7.39M103.23 338l83.87-7.48m226.3 37.63l57.54-5.13m-176.8 15.77l106.11-9.47m-187.48 16.72l62.19-5.54m-159.99 14.26l86.43-7.7m232.95 16.91l36.94-3.29m-138.6 12.36l90.07-8.03m-113.03 10.08l14.49-1.3m-82.93 7.4l58.19-5.19m-163.63 14.59l96.3-8.59m-116.84 10.42l12.07-1.07m268.96 12.57l77.06-6.87m-205.69 18.34l114.81-10.23m-146.91 13.1l20.06-1.79m-138.25 12.32l102.59-9.14m91.29 28.42l11.65-1.04m-106.17 9.46l82.92-7.39m-180.17 16.07l83.87-7.48" fill="none" stroke="#1a2e35" stroke-linecap="round" stroke-linejoin="round" stroke-width="1.51"/><path d="M494.86,560.25V542.44a18.05,18.05,0,0,0,8.66-15.38c0-13.76-15.34-23.92-29.84-14.37A9.26,9.26,0,0,0,471,515.4c-7.12,10.93-3.17,22,4.95,27v17.81Z" fill="#7fc1ff"/><path d="M405.11 617.16h160.58a22.49 22.49 0 0 0 17.92-8.87 5.05 5.05 0 0 0-4-8.14H391.18a5.06 5.06 0 0 0-4 8.14 22.52 22.52 0 0 0 17.93 8.87z" fill="#ff9378"/><path d="M485.34 363.8a83 83 0 0 0-38.81 10.05c-21.93 11.55-35.33 34.66-35.33 59.45V451a5.22 5.22 0 0 0 5.22 5.22h22.1a5.22 5.22 0 0 0 5.22-5.22v-17.6a34.4 34.4 0 0 1 15.83-29.07c31.15-19.79 63.83.09 67.19 28.83v31.66h32.37V438c0-40.9-33.02-74.2-73.79-74.2z" fill="#56d4b7"/><path d="M574.17 464.81H396.63a14.11 14.11 0 0 0-14.11 14.11v105.25a6.8 6.8 0 0 0 6.81 6.8h192.15a6.79 6.79 0 0 0 6.8-6.8V478.92a14.11 14.11 0 0 0-14.11-14.11z" fill="#3e6c98"/><path d="M494.86 542.44v17.81h-18.92v-17.81c-8.12-5-12.07-16.11-5-27.05a9.61 9.61 0 0 1 2.69-2.7c14.51-9.56 29.84.61 29.84 14.36a18.06 18.06 0 0 1-8.61 15.39z" fill="#cae9ff"/></svg>