<svg xmlns="http://www.w3.org/2000/svg" viewBox="0 0 588.28 644.45"><defs><style>.cls-1{fill:#e6e6e6;}.cls-2{fill:#f2f2f2;}.cls-3{fill:#fafafa;}.cls-4{fill:#ffe39b;}.cls-5,.cls-6{fill:none;}.cls-5{stroke:#1a2e35;stroke-linecap:round;stroke-linejoin:round;stroke-width:1.51px;}.cls-7{fill:#7fc1ff;}.cls-8{fill:#ff9378;}.cls-9{fill:#56d4b7;}.cls-10{fill:#3e6c98;}.cls-11{fill:#cae9ff;}</style></defs><g id="Layer_2" data-name="Layer 2"><g id="_9" data-name="9"><polygon class="cls-1" points="501.02 572.47 79.96 620.96 13.14 50.66 434.2 2.17 501.02 572.47"/><polygon class="cls-2" points="526.76 563.4 110.74 644.45 0 81.05 416.02 0 526.76 563.4"/><polygon class="cls-3" points="516.69 575.86 94.49 613.05 43.33 41.17 465.54 3.98 516.69 575.86"/><rect class="cls-4" x="189.7" y="203.22" width="75.72" height="25.33" transform="translate(-18.76 21.68) rotate(-5.24)"/><rect class="cls-4" x="328.3" y="396" width="101.31" height="25.33" transform="translate(-35.73 36.31) rotate(-5.24)"/><line class="cls-5" x1="324.4" y1="72.83" x2="436.16" y2="62.86"/><line class="cls-5" x1="80.18" y1="94.6" x2="130.9" y2="90.08"/><line class="cls-5" x1="429.31" y1="161.56" x2="446.17" y2="160.05"/><line class="cls-5" x1="352.4" y1="168.42" x2="419.95" y2="162.39"/><line class="cls-5" x1="313.17" y1="171.92" x2="341.26" y2="169.41"/><line class="cls-5" x1="233.58" y1="179.01" x2="300.68" y2="173.03"/><line class="cls-5" x1="182.31" y1="183.58" x2="221.77" y2="180.07"/><line class="cls-5" x1="90.19" y1="191.8" x2="169.82" y2="184.7"/><line class="cls-5" x1="397.1" y1="200.99" x2="454.64" y2="195.86"/><line class="cls-5" x1="277.83" y1="211.63" x2="383.95" y2="202.16"/><line class="cls-5" x1="196.47" y1="218.88" x2="258.66" y2="213.33"/><line class="cls-5" x1="98.66" y1="227.6" x2="185.1" y2="219.89"/><line class="cls-5" x1="418.05" y1="236.81" x2="454.98" y2="233.52"/><line class="cls-5" x1="316.39" y1="245.88" x2="406.45" y2="237.85"/><line class="cls-5" x1="293.43" y1="247.92" x2="307.92" y2="246.63"/><line class="cls-5" x1="224.99" y1="254.03" x2="283.18" y2="248.84"/><line class="cls-5" x1="119.55" y1="263.43" x2="215.85" y2="254.84"/><line class="cls-5" x1="99.01" y1="265.26" x2="111.07" y2="264.19"/><line class="cls-5" x1="380.04" y1="276.76" x2="457.1" y2="269.89"/><line class="cls-5" x1="251.41" y1="288.23" x2="366.22" y2="277.99"/><line class="cls-5" x1="219.31" y1="291.09" x2="239.37" y2="289.3"/><line class="cls-5" x1="101.12" y1="301.63" x2="203.7" y2="292.48"/><line class="cls-5" x1="294.99" y1="320.9" x2="306.65" y2="319.86"/><line class="cls-5" x1="200.47" y1="329.33" x2="283.4" y2="321.94"/><line class="cls-5" x1="103.23" y1="338" x2="187.1" y2="330.52"/><line class="cls-5" x1="413.4" y1="368.15" x2="470.94" y2="363.02"/><line class="cls-5" x1="294.14" y1="378.79" x2="400.25" y2="369.32"/><line class="cls-5" x1="212.77" y1="386.04" x2="274.96" y2="380.5"/><line class="cls-5" x1="114.97" y1="394.76" x2="201.4" y2="387.06"/><line class="cls-5" x1="434.35" y1="403.97" x2="471.29" y2="400.68"/><line class="cls-5" x1="332.69" y1="413.04" x2="422.76" y2="405.01"/><line class="cls-5" x1="309.73" y1="415.09" x2="324.22" y2="413.79"/><line class="cls-5" x1="241.29" y1="421.19" x2="299.48" y2="416"/><line class="cls-5" x1="135.85" y1="430.59" x2="232.15" y2="422"/><line class="cls-5" x1="115.31" y1="432.42" x2="127.38" y2="431.35"/><line class="cls-5" x1="396.34" y1="443.92" x2="473.4" y2="437.05"/><line class="cls-5" x1="267.71" y1="455.39" x2="382.52" y2="445.16"/><line class="cls-5" x1="235.61" y1="458.26" x2="255.67" y2="456.47"/><line class="cls-5" x1="117.42" y1="468.79" x2="220.01" y2="459.65"/><line class="cls-5" x1="311.3" y1="488.07" x2="322.95" y2="487.03"/><line class="cls-5" x1="216.78" y1="496.49" x2="299.7" y2="489.1"/><line class="cls-5" x1="119.53" y1="505.17" x2="203.4" y2="497.69"/><path class="cls-6" d="M526.76,432.57v23.06h-83V432.81a34.4,34.4,0,0,1,15.83-29.07C490.72,384,523.4,403.83,526.76,432.57Z"/><path class="cls-7" d="M494.86,560.25V542.44a18.05,18.05,0,0,0,8.66-15.38c0-13.76-15.34-23.92-29.84-14.37A9.26,9.26,0,0,0,471,515.4c-7.12,10.93-3.17,22,4.95,27v17.81Z"/><path class="cls-8" d="M405.11,617.16H565.69a22.49,22.49,0,0,0,17.92-8.87,5.05,5.05,0,0,0-4-8.14H391.18a5.06,5.06,0,0,0-4,8.14A22.52,22.52,0,0,0,405.11,617.16Z"/><path class="cls-9" d="M485.34,363.8a83,83,0,0,0-38.81,10.05C424.6,385.4,411.2,408.51,411.2,433.3V451a5.22,5.22,0,0,0,5.22,5.22h22.1a5.22,5.22,0,0,0,5.22-5.22v-17.6a34.4,34.4,0,0,1,15.83-29.07c31.15-19.79,63.83.09,67.19,28.83v31.66h32.37V438C559.13,397.1,526.11,363.8,485.34,363.8Z"/><path class="cls-10" d="M574.17,464.81H396.63a14.11,14.11,0,0,0-14.11,14.11V584.17a6.8,6.8,0,0,0,6.81,6.8H581.48a6.79,6.79,0,0,0,6.8-6.8V478.92A14.11,14.11,0,0,0,574.17,464.81Z"/><path class="cls-11" d="M494.86,542.44v17.81H475.94V542.44c-8.12-5-12.07-16.11-5-27.05a9.61,9.61,0,0,1,2.69-2.7c14.51-9.56,29.84.61,29.84,14.36A18.06,18.06,0,0,1,494.86,542.44Z"/></g></g></svg>