<svg xmlns="http://www.w3.org/2000/svg" viewBox="0 0 642.93 609.71" xmlns:v="https://vecta.io/nano"><style><![CDATA[.W{fill:none}.X{stroke-miterlimit:10}.Y{stroke-linecap:round}.Z{fill:#061537}.a{stroke-width:2.37}.b{stroke-width:2.38}]]></style><defs><clipPath id="A"><path d="M312.73 140.56a58 58 0 0 0-.46-26.15c-19.62-3.8-16.27-22.9-9.16-24.13s11.08 9.08 11.08 9.08c.66-19 16.93-1.18 30.87-29.92s38.05-11.49 40.74-3 21.53 96.3-32.08 96.83a95 95 0 0 0 1.21 22.78c.38 1.18 1.56 3.5 1.92 4.66 1.43 4.62-2.53 10.28-.83 14.7 6.1 15.83 27.33 54.84-1.09 68.08s-69.83-33.23-61.19-62 15.95-56.33 18.99-70.93z" class="W"/></clipPath><clipPath id="B"><path d="M444.14 530.09c.39-14.65 8.18-15.3 8.18-15.3l33.86.06c19.08-2.8 64.57-9.21 22.15-130.76-12.11-34.66-32.84-144.64-59.22-166.79-23.8-20-54.31-20.9-91.21-22.36-2-.08-3 1.76-3.95 3.59s-2 3.7-4.09 3.6-15.31-3.44-24.22-5.77v-2.21h-8.22-.15 0l-19.95.23c-42.46 2-77.12.72-103.51 22.87S146.7 349.43 134.6 384.09c-42.42 121.54 3.07 128 22.16 130.76.91.14 38.13 2.07 38.13 2.07l-.89 53.57 124.72-2 131.88 10s-6.86-33.75-6.46-48.4z" class="W"/></clipPath></defs><path d="M362.25 205.94s54.47 9.29 69.88-34.28-30.69-75.19-30.69-75.19 24.69-45.7-14.25-65.84c0 0-19.12-41-72.16-28.11s-38.39 63.38-63.59 70.66-56.38 9.17-52.89 46.92c0 0-43.39 24.83-34.74 85.29s109.38 50.42 106.72-1.23c0 0 31 14.74 40.93-4.4s50.79 6.18 50.79 6.18z" class="Z"/><ellipse cx="385.02" cy="109.56" rx="24.34" ry="16.05" transform="matrix(.183265 -.983064 .983064 .183265 206.78 467.99)" fill="#c4eaff"/><path d="M312.73 140.56a58 58 0 0 0-.46-26.15c-19.62-3.8-16.27-22.9-9.16-24.13s11.08 9.08 11.08 9.08c.66-19 16.93-1.18 30.87-29.92s38.05-11.49 40.74-3 21.53 96.3-32.08 96.83a95 95 0 0 0 1.21 22.78c.38 1.18 1.56 3.5 1.92 4.66 1.43 4.62-2.53 10.28-.83 14.7 6.1 15.83 27.33 54.84-1.09 68.08s-69.83-33.23-61.19-62 15.95-56.33 18.99-70.93z" fill="#ffd3c8"/><g clip-path="url(#A)"><path d="M356.45 163.28s-23.13 2.2-34.47-28.93c0 0-2.55 54.94 29.59 61.78s4.88-32.85 4.88-32.85z" fill="#f1b2a2"/></g><path d="M369.4,90.46A67.57,67.57,0,0,0,371.87,111c3,9,5.78,14.76-8.47,13.12" stroke="#9d3f28" class="W X Y a"/><ellipse cx="381.59" cy="93" rx="3" ry="2.99" transform="matrix(.035074 -.999385 .999385 .035074 275.29 471.1)" class="Z"/><g stroke="#324a83" class="W a"><ellipse cx="384.84" cy="93.54" rx="12.29" ry="12.22" transform="matrix(.035074 -.999385 .999385 .035074 277.88 474.87)"/><ellipse cx="354.01" cy="96.58" rx="12.29" ry="12.22" transform="matrix(.035074 -.999385 .999385 .035074 245.1 446.99)"/></g><ellipse cx="353.63" cy="96.22" rx="3" ry="2.99" transform="matrix(.035074 -.999385 .999385 .035074 245.09 446.26)" class="Z"/><path d="M362 82.31s-14.63-4.46-21.81 5.5m47.03-9.08a9.42 9.42 0 0 0-9.72 1.16" stroke="#061537" stroke-width="3.98" class="W X Y"/><g class="a X"><path d="M378.07 132.2a21.76 21.76 0 0 1-26.87 1.43s7.56 11.73 14.78 10.94 12.09-12.37 12.09-12.37z" stroke="#9d3f28" fill="#fff"/><g stroke="#324a83" class="W"><path d="M341.89,93.75l-30.08-4" class="Y"/><path d="M372.79,91.83,366,93.09"/></g></g><path d="M444.14 530.09c.39-14.65 8.18-15.3 8.18-15.3l33.86.06c19.08-2.8 64.57-9.21 22.15-130.76-12.11-34.66-32.84-144.64-59.22-166.79-23.8-20-54.31-20.9-91.21-22.36-2-.08-3 1.76-3.95 3.59s-2 3.7-4.09 3.6-15.31-3.44-24.22-5.77v-2.21h-8.22-.15 0l-19.95.23c-42.46 2-77.12.72-103.51 22.87S146.7 349.43 134.6 384.09c-42.42 121.54 3.07 128 22.16 130.76.91.14 38.13 2.07 38.13 2.07l-.89 53.57 124.72-2 131.88 10s-6.86-33.75-6.46-48.4z" fill="#56d4b7"/><g clip-path="url(#B)" fill="#4bc5a9"><path d="M325.61 579.44l49.62.21L453 545.39s-21.17-117.27-21.17-156a382.4 382.4 0 0 0-3.5-42.62c-.53-3.3.47-18.53-1.15-18.87-5-1 0 38.86-25.65 50-49.81 21.6-72.4-28.91-76.69-35.11-4.3 6.2-24.23 54.05-78.35 38.28-20.55-6-27-48.18-27-48.18l-7.35 75.05c-3.75 40.37-17 72.37-17.2 101.86a47.16 47.16 0 0 1-4.18-9.81 45.86 45.86 0 0 0-4.19-9.8c0 15.55 20.63 51.13 20.63 51.13l66.8 38.33z"/><path d="M225.27 286.57l-41.2 129.35s-18.65-6.56-31.63 5.12c0 0 24.45-3.6 39.6 10.93s22.05-38.58 22.05-38.58l8.84-82.51zm224.63-75.76l43.43 212s-25.82-7-40.37 14.22c-11 16.07-34.92 48.79-14.53 69.52 6.5 6.6 26.64 10.92 41.26 14.48 60.5 14.75 101.48-67.36 101.48-67.36L490 204.88z"/><path d="M193.55,426.87s-4.7,65.72-16.23,73.77-43.22,13.54-60.24-6.26,38.24,52.09,38.24,52.09l68-12.05Z"/></g><path d="M438.45 440.47s44.6-16.48 59.33 13.21m-47.88-16.63s18.1-21.34 43.43-14.23" stroke="#301913" class="W X b"/><path d="M356.33 188.2a37 37 0 0 1 4.4 15.65c1 10.57-22.33 18.14-22.33 18.14h-19.58l-21.28-22.54s.2-11.08 3.54-15a59.66 59.66 0 0 0 6.81-13.74s34.4 24.17 42.67 25.65 5.77-8.16 5.77-8.16z" fill="#ffd3c8"/><path d="M354.64 185.5s30.6 46.69 27.32 56.31-46.76-18.42-46.76-18.42-35.57 24.43-44.6 24.43c-5.61 0-.71-17.15 4.16-51.3a53.43 53.43 0 0 1 5-10s14.91 24.44 22.55 29.54c10.69 7.12 22.83 5.14 29.32-7a36 36 0 0 0 3.01-23.56z" fill="#fff"/><g stroke="#301913" class="W X b"><path d="M424.29 288.7l10.7 144M225.27 286.57l-15 146.15m-5.67 7.75S160 424 145.27 453.68"/><path d="M195.87,437.05s-18.09-21.34-43.43-14.23"/></g><rect x="190.04" y="371.38" width="263.22" height="170.82" rx="14.96" fill="#e3e3e3"/><ellipse cx="323.61" cy="456.13" rx="18.19" ry="18.15" fill="#fff"/><path d="M305.7 88.67a96.62 96.62 0 0 1 7-34.8c9.11-21.76 27.68-31.07 45.69-31.7 21.71-.77 28.83 8.46 28.83 8.46s-.6-7.13-14.54-10.71c-9.15-2.35-23-2.73-34 1.78-11.5 4.63-25.68 17.49-30.88 31.08s-7.65 34.75-7.65 34.75z" fill="#7fc1ff"/><ellipse cx="302.68" cy="108.6" rx="16.92" ry="25.64" transform="matrix(.994631 -.103487 .103487 .994631 -9.61 31.88)" fill="#c4eaff"/><g fill="#3e6c98"><ellipse cx="298.19" cy="110.47" rx="10.99" ry="19.33" transform="matrix(.988886 -.148672 .148672 .988886 -13.1 45.54)"/><ellipse cx="357.35" cy="151.27" rx="5.61" ry="9.01" transform="matrix(.14522 -.989399 .989399 .14522 155.77 482.86)"/></g><path d="M315.28,126.12s10.63,18.76,33.15,23.84" stroke="#3a92c9" stroke-width="2.8" class="W X Y"/><path d="M8.97 565.86h624.98v43.85H8.97z" fill="#d0e6f6"/><path d="M0 567.34h642.93v11.16H0z" fill="#a1bedb"/><path d="M0 542.07h642.93v25.27H0z" fill="#d0e6f6"/></svg>