<svg xmlns="http://www.w3.org/2000/svg" xmlns:xlink="http://www.w3.org/1999/xlink" viewBox="0 0 642.93 609.71"><defs><style>.cls-1,.cls-11,.cls-15,.cls-20,.cls-7,.cls-8,.cls-9{fill:none;}.cls-2{fill:#061537;}.cls-3{fill:#c4eaff;}.cls-4{fill:#ffd3c8;}.cls-5{clip-path:url(#clip-path);}.cls-6{fill:#f1b2a2;}.cls-10,.cls-7{stroke:#9d3f28;}.cls-10,.cls-20,.cls-7,.cls-8,.cls-9{stroke-linecap:round;}.cls-10,.cls-11,.cls-7,.cls-8,.cls-9{stroke-miterlimit:10;}.cls-10,.cls-11,.cls-7,.cls-8{stroke-width:2.37px;}.cls-11,.cls-8{stroke:#324a83;}.cls-9{stroke:#061537;stroke-width:3.98px;}.cls-10,.cls-16{fill:#fff;}.cls-12{fill:#56d4b7;}.cls-13{clip-path:url(#clip-path-2);}.cls-14{fill:#4bc5a9;}.cls-15{stroke:#301913;stroke-width:2.38px;}.cls-15,.cls-20{stroke-miterlimit:10;}.cls-17{fill:#e3e3e3;}.cls-18{fill:#7fc1ff;}.cls-19{fill:#3e6c98;}.cls-20{stroke:#3a92c9;stroke-width:2.8px;}.cls-21{fill:#d0e6f6;}.cls-22{fill:#a1bedb;}</style><clipPath id="clip-path"><path class="cls-1" d="M312.73,140.56a58,58,0,0,0-.46-26.15c-19.62-3.8-16.27-22.9-9.16-24.13s11.08,9.08,11.08,9.08c.66-19,16.93-1.18,30.87-29.92s38.05-11.49,40.74-3,21.53,96.3-32.08,96.83a95,95,0,0,0,1.21,22.78c.38,1.18,1.56,3.5,1.92,4.66,1.43,4.62-2.53,10.28-.83,14.7,6.1,15.83,27.33,54.84-1.09,68.08s-69.83-33.23-61.19-62S309.69,155.16,312.73,140.56Z"/></clipPath><clipPath id="clip-path-2"><path class="cls-1" d="M444.14,530.09c.39-14.65,8.18-15.3,8.18-15.3s32.94.19,33.86.06c19.08-2.8,64.57-9.21,22.15-130.76-12.11-34.66-32.84-144.64-59.22-166.79-23.8-20-54.31-20.9-91.21-22.36-2-.08-3,1.76-3.95,3.59s-2,3.7-4.09,3.6-15.31-3.44-24.22-5.77v-2.21l-8.22,0-.15,0v0c-7.6.05-17.89.13-19.95.23-42.46,2-77.12.72-103.51,22.87S146.7,349.43,134.6,384.09c-42.42,121.54,3.07,128,22.16,130.76.91.14,38.13,2.07,38.13,2.07L194,570.49l124.72-2,131.88,10S443.74,544.74,444.14,530.09Z"/></clipPath></defs><g id="Layer_2" data-name="Layer 2"><g id="_9" data-name="9"><g id="WOMEN"><path id="Path_349" data-name="Path 349" class="cls-2" d="M362.25,205.94s54.47,9.29,69.88-34.28-30.69-75.19-30.69-75.19,24.69-45.7-14.25-65.84c0,0-19.12-41-72.16-28.11S276.64,65.9,251.44,73.18s-56.38,9.17-52.89,46.92c0,0-43.39,24.83-34.74,85.29s109.38,50.42,106.72-1.23c0,0,31,14.74,40.93-4.4S362.25,205.94,362.25,205.94Z"/><ellipse class="cls-3" cx="385.02" cy="109.56" rx="24.34" ry="16.05" transform="translate(206.78 467.99) rotate(-79.44)"/><g id="Path_354" data-name="Path 354"><path id="Mask-5" class="cls-4" d="M312.73,140.56a58,58,0,0,0-.46-26.15c-19.62-3.8-16.27-22.9-9.16-24.13s11.08,9.08,11.08,9.08c.66-19,16.93-1.18,30.87-29.92s38.05-11.49,40.74-3,21.53,96.3-32.08,96.83a95,95,0,0,0,1.21,22.78c.38,1.18,1.56,3.5,1.92,4.66,1.43,4.62-2.53,10.28-.83,14.7,6.1,15.83,27.33,54.84-1.09,68.08s-69.83-33.23-61.19-62S309.69,155.16,312.73,140.56Z"/><g class="cls-5"><g id="Path_354-2" data-name="Path 354-2"><path id="Path_354-3" data-name="Path 354-3" class="cls-6" d="M356.45,163.28s-23.13,2.2-34.47-28.93c0,0-2.55,54.94,29.59,61.78S356.45,163.28,356.45,163.28Z"/></g></g></g><path id="Path_350" data-name="Path 350" class="cls-7" d="M369.4,90.46A67.57,67.57,0,0,0,371.87,111c3,9,5.78,14.76-8.47,13.12"/><ellipse id="Oval" class="cls-2" cx="381.59" cy="93" rx="3" ry="2.99" transform="translate(275.29 471.1) rotate(-87.99)"/><ellipse id="Oval-2" class="cls-8" cx="384.84" cy="93.54" rx="12.29" ry="12.22" transform="translate(277.88 474.87) rotate(-87.99)"/><ellipse id="Oval_Copy_29" data-name="Oval Copy 29" class="cls-8" cx="354.01" cy="96.58" rx="12.29" ry="12.22" transform="translate(245.1 446.99) rotate(-87.99)"/><ellipse id="Oval_Copy_28" data-name="Oval Copy 28" class="cls-2" cx="353.63" cy="96.22" rx="3" ry="2.99" transform="translate(245.09 446.26) rotate(-87.99)"/><path id="Path_351" data-name="Path 351" class="cls-9" d="M362,82.31s-14.63-4.46-21.81,5.5"/><path id="Path_352" data-name="Path 352" class="cls-9" d="M387.22,78.73a9.42,9.42,0,0,0-9.72,1.16"/><path id="Path_353" data-name="Path 353" class="cls-10" d="M378.07,132.2a21.76,21.76,0,0,1-26.87,1.43s7.56,11.73,14.78,10.94S378.07,132.2,378.07,132.2Z"/><path id="Path_378" data-name="Path 378" class="cls-8" d="M341.89,93.75l-30.08-4"/><path id="Path_379" data-name="Path 379" class="cls-11" d="M372.79,91.83,366,93.09"/><g id="Body"><g id="Combined_Shape" data-name="Combined Shape"><path id="Mask-6" class="cls-12" d="M444.14,530.09c.39-14.65,8.18-15.3,8.18-15.3s32.94.19,33.86.06c19.08-2.8,64.57-9.21,22.15-130.76-12.11-34.66-32.84-144.64-59.22-166.79-23.8-20-54.31-20.9-91.21-22.36-2-.08-3,1.76-3.95,3.59s-2,3.7-4.09,3.6-15.31-3.44-24.22-5.77v-2.21l-8.22,0-.15,0v0c-7.6.05-17.89.13-19.95.23-42.46,2-77.12.72-103.51,22.87S146.7,349.43,134.6,384.09c-42.42,121.54,3.07,128,22.16,130.76.91.14,38.13,2.07,38.13,2.07L194,570.49l124.72-2,131.88,10S443.74,544.74,444.14,530.09Z"/><g class="cls-13"><g id="Combined_Shape-2" data-name="Combined Shape-2"><path id="Combined_Shape-3" data-name="Combined Shape-3" class="cls-14" d="M325.61,579.44l49.62.21L453,545.39s-21.17-117.27-21.17-156a382.4,382.4,0,0,0-3.5-42.62c-.53-3.3.47-18.53-1.15-18.87-5-1,0,38.86-25.65,50-49.81,21.6-72.4-28.91-76.69-35.11-4.3,6.2-24.23,54.05-78.35,38.28-20.55-6-27-48.18-27-48.18s-5.61,56.44-7.35,75.05c-3.75,40.37-17,72.37-17.2,101.86a47.16,47.16,0,0,1-4.18-9.81,45.86,45.86,0,0,0-4.19-9.8c0,15.55,20.63,51.13,20.63,51.13L274,579.65Z"/><path id="Path_456" data-name="Path 456" class="cls-14" d="M225.27,286.57l-41.2,129.35s-18.65-6.56-31.63,5.12c0,0,24.45-3.6,39.6,10.93s22.05-38.58,22.05-38.58l8.84-82.51Z"/><path id="Path_457" data-name="Path 457" class="cls-14" d="M449.9,210.81l43.43,212s-25.82-7-40.37,14.22c-11,16.07-34.92,48.79-14.53,69.52,6.5,6.6,26.64,10.92,41.26,14.48,60.5,14.75,101.48-67.36,101.48-67.36L490,204.88Z"/><path id="Path_458" data-name="Path 458" class="cls-14" d="M193.55,426.87s-4.7,65.72-16.23,73.77-43.22,13.54-60.24-6.26,38.24,52.09,38.24,52.09l68-12.05Z"/></g></g></g><path id="Path_452" data-name="Path 452" class="cls-15" d="M438.45,440.47s44.6-16.48,59.33,13.21"/><path id="Path_453" data-name="Path 453" class="cls-15" d="M449.9,437.05s18.1-21.34,43.43-14.23"/><path id="Path_446" data-name="Path 446" class="cls-4" d="M356.33,188.2a37,37,0,0,1,4.4,15.65c1,10.57-22.33,18.14-22.33,18.14H318.82l-21.28-22.54s.2-11.08,3.54-15a59.66,59.66,0,0,0,6.81-13.74s34.4,24.17,42.67,25.65S356.33,188.2,356.33,188.2Z"/><path id="Path_445" data-name="Path 445" class="cls-16" d="M354.64,185.5s30.6,46.69,27.32,56.31-46.76-18.42-46.76-18.42-35.57,24.43-44.6,24.43c-5.61,0-.71-17.15,4.16-51.3a53.43,53.43,0,0,1,5-10s14.91,24.44,22.55,29.54c10.69,7.12,22.83,5.14,29.32-7A36,36,0,0,0,354.64,185.5Z"/><path id="Path_451" data-name="Path 451" class="cls-15" d="M424.29,288.7l10.7,144"/><path id="Path_451_Copy" data-name="Path 451 Copy" class="cls-15" d="M225.27,286.57l-15,146.15"/><path id="Path_452_Copy" data-name="Path 452 Copy" class="cls-15" d="M204.6,440.47S160,424,145.27,453.68"/><path id="Path_453_Copy" data-name="Path 453 Copy" class="cls-15" d="M195.87,437.05s-18.09-21.34-43.43-14.23"/></g><g id="laptop"><rect id="Rectangle" class="cls-17" x="190.04" y="371.38" width="263.22" height="170.82" rx="14.96"/><ellipse id="Oval-3" class="cls-16" cx="323.61" cy="456.13" rx="18.19" ry="18.15"/></g><path class="cls-18" d="M305.7,88.67a96.62,96.62,0,0,1,7-34.8c9.11-21.76,27.68-31.07,45.69-31.7,21.71-.77,28.83,8.46,28.83,8.46s-.6-7.13-14.54-10.71c-9.15-2.35-23-2.73-34,1.78C327.18,26.33,313,39.19,307.8,52.78s-7.65,34.75-7.65,34.75Z"/><ellipse class="cls-3" cx="302.68" cy="108.6" rx="16.92" ry="25.64" transform="translate(-9.61 31.88) rotate(-5.94)"/><ellipse class="cls-19" cx="298.19" cy="110.47" rx="10.99" ry="19.33" transform="translate(-13.1 45.54) rotate(-8.55)"/><ellipse class="cls-19" cx="357.35" cy="151.27" rx="5.61" ry="9.01" transform="translate(155.77 482.86) rotate(-81.65)"/><path class="cls-20" d="M315.28,126.12s10.63,18.76,33.15,23.84"/></g><rect id="Rectangle_Copy_28" data-name="Rectangle Copy 28" class="cls-21" x="8.97" y="565.86" width="624.98" height="43.85"/><rect id="Rectangle_Copy_29" data-name="Rectangle Copy 29" class="cls-22" y="567.34" width="642.93" height="11.16"/><rect id="Rectangle_Copy_26" data-name="Rectangle Copy 26" class="cls-21" y="542.07" width="642.93" height="25.27"/></g></g></svg>