<svg xmlns="http://www.w3.org/2000/svg" xmlns:xlink="http://www.w3.org/1999/xlink" viewBox="0 0 849.79 652.65" xmlns:v="https://vecta.io/nano"><style><![CDATA[.B{isolation:isolate}.BU,.o,.Af{mix-blend-mode:multiply}.Bk{stroke-linecap:round}.Bl{stroke-linejoin:round}]]></style><defs><linearGradient id="A" x1="322.9" y1="229.63" x2="636.53" y2="229.63" xlink:href="#BU"><stop offset="0" stop-color="#aeaeae"/><stop offset="1" stop-color="#bababa"/></linearGradient><linearGradient id="B" x1="393.12" y1="228.72" x2="635.4" y2="228.72" xlink:href="#BU"><stop offset=".18" stop-color="#eeedeb"/><stop offset=".59" stop-color="#a8a8a8"/></linearGradient><linearGradient id="C" x1="686.03" y1="217.44" x2="437.32" y2="236.82" xlink:href="#BU"><stop offset=".18" stop-color="#eeedeb"/><stop offset="1" stop-color="#d3d3d3"/></linearGradient><linearGradient id="D" x1="385.1" y1="228.44" x2="631.28" y2="228.44" xlink:href="#BU"><stop offset=".18" stop-color="#a8a8a8"/><stop offset="1" stop-color="#c2c2c2"/></linearGradient><linearGradient id="E" x1="323.28" y1="229.23" x2="632.47" y2="229.23" xlink:href="#BU"><stop offset=".18" stop-color="#acacac"/><stop offset="1" stop-color="#c2c2c2"/></linearGradient><linearGradient id="F" x1="431.63" y1="226.65" x2="660.01" y2="234.36" xlink:href="#BU"><stop offset=".18" stop-color="#eeedeb"/><stop offset=".93" stop-color="#b0b0b0"/></linearGradient><linearGradient id="G" x1="329.76" y1="227.95" x2="627.93" y2="227.95" xlink:href="#BU"><stop offset=".18" stop-color="#b2b2b2"/><stop offset="1" stop-color="#d3d3d3"/></linearGradient><linearGradient id="H" x1="435.94" y1="228.81" x2="640.53" y2="224.8" xlink:href="#BU"><stop offset=".18" stop-color="#eeedeb"/><stop offset=".95" stop-color="#d3d3d3"/></linearGradient><linearGradient id="I" x1="382.71" y1="226.36" x2="633.39" y2="226.36" xlink:href="#BU"><stop offset=".18" stop-color="#eeedeb"/><stop offset="1" stop-color="#bababa"/></linearGradient><linearGradient id="J" x1="674.57" y1="217.28" x2="426.75" y2="236.59" xlink:href="#BU"><stop offset="0" stop-color="#eeedeb"/><stop offset=".59" stop-color="#bdbdbd"/></linearGradient><linearGradient id="K" x1="378.54" y1="226.06" x2="620.54" y2="226.06" xlink:href="#C"/><linearGradient id="L" x1="670.53" y1="233.76" x2="420.86" y2="223.83" xlink:href="#C"/><linearGradient id="M" x1="379.41" y1="226.03" x2="621.43" y2="226.03" xlink:href="#BU"><stop offset=".18" stop-color="#eeedeb"/><stop offset="1" stop-color="#b5b5b5"/></linearGradient><linearGradient id="N" x1="409.95" y1="225.61" x2="585.32" y2="225.61" xlink:href="#BU"><stop offset=".18" stop-color="#eeedeb"/><stop offset=".83" stop-color="#d3d3d3"/></linearGradient><linearGradient id="O" x1="324.97" y1="225.26" x2="617.59" y2="225.26" xlink:href="#B"/><linearGradient id="P" x1="678.79" y1="217.78" x2="533.65" y2="224.06" xlink:href="#BU"><stop offset="0" stop-color="#eeedeb"/><stop offset="1" stop-color="#b3b3b3"/></linearGradient><linearGradient id="Q" x1="371.76" y1="224.65" x2="613.46" y2="224.65" xlink:href="#BU"><stop offset=".18" stop-color="#eeedeb"/><stop offset=".85" stop-color="#c2c2c2"/></linearGradient><linearGradient id="R" x1="669.52" y1="213.33" x2="381.74" y2="235.76" xlink:href="#BU"><stop offset=".17" stop-color="#b3b3b3"/><stop offset="1" stop-color="#d3d3d3"/></linearGradient><linearGradient id="S" x1="367.61" y1="223.2" x2="609.5" y2="223.2" xlink:href="#BU"><stop offset=".18" stop-color="#eeedeb"/><stop offset="1" stop-color="#c2c2c2"/></linearGradient><linearGradient id="T" x1="660.64" y1="230.15" x2="411.94" y2="220.26" xlink:href="#C"/><linearGradient id="U" x1="212.05" y1="217.26" x2="-47.39" y2="255.08" xlink:href="#S"/><linearGradient id="V" x1="-47.76" y1="225.47" x2="213.96" y2="230.06" xlink:href="#B"/><linearGradient id="W" x1="-40.32" y1="217.06" x2="208.39" y2="236.44" xlink:href="#C"/><linearGradient id="X" x1="260.61" y1="228.06" x2="14.43" y2="228.06" xlink:href="#D"/><linearGradient id="Y" x1="3.37" y1="230.52" x2="190.97" y2="228.61" xlink:href="#BU"><stop offset=".09" stop-color="#ddd"/><stop offset="1" stop-color="#b5b5b5"/></linearGradient><linearGradient id="Z" x1="-44.65" y1="226.74" x2="252.22" y2="228.46" xlink:href="#BU"><stop offset=".18" stop-color="#eeedeb"/><stop offset="1" stop-color="#b0b0b0"/></linearGradient><linearGradient id="a" x1="-32.07" y1="235.07" x2="256.79" y2="224.18" xlink:href="#BU"><stop offset="0" stop-color="#eeedeb"/><stop offset=".13" stop-color="#ecebe9"/><stop offset="1" stop-color="#a8a8a8"/></linearGradient><linearGradient id="b" x1="209.77" y1="228.43" x2="5.17" y2="224.42" xlink:href="#H"/><linearGradient id="c" x1="-13.3" y1="226.22" x2="236.2" y2="225.84" xlink:href="#Y"/><linearGradient id="d" x1="5.41" y1="228.93" x2="204.48" y2="224.73" xlink:href="#BU"><stop offset="0" stop-color="#eeedeb"/><stop offset=".28" stop-color="#ebeae8"/><stop offset=".49" stop-color="#e2e1df"/><stop offset=".68" stop-color="#d2d1d0"/><stop offset=".84" stop-color="#bdbdbd"/></linearGradient><linearGradient id="e" x1="267.18" y1="225.68" x2="25.17" y2="225.68" xlink:href="#C"/><linearGradient id="f" x1="-24.82" y1="233.38" x2="224.86" y2="223.45" xlink:href="#C"/><linearGradient id="g" x1="12.22" y1="219.36" x2="236.17" y2="237.07" xlink:href="#Y"/><linearGradient id="h" x1="235.75" y1="225.22" x2="60.38" y2="225.22" xlink:href="#N"/><linearGradient id="i" x1="-13.38" y1="230.1" x2="234.21" y2="223.22" xlink:href="#BU"><stop offset="0" stop-color="#e1e1e1"/><stop offset=".34" stop-color="#e3e3e3"/><stop offset="1" stop-color="#a8a8a8"/></linearGradient><linearGradient id="j" x1="-33.07" y1="217.4" x2="112.06" y2="223.68" xlink:href="#P"/><linearGradient id="k" x1="-10.15" y1="221.75" x2="208.78" y2="224.8" xlink:href="#BU"><stop offset="0" stop-color="#e6e6e6"/><stop offset=".85" stop-color="#c2c2c2"/></linearGradient><linearGradient id="l" x1="-14.92" y1="229.76" x2="233.76" y2="219.88" xlink:href="#C"/><linearGradient id="m" x1="316.02" y1="464.42" x2="-15.8" y2="409.4" xlink:href="#a"/><linearGradient id="n" x1="249.25" y1="220.2" x2="-17.33" y2="233.6" xlink:href="#R"/><linearGradient id="o" x1="12.6" y1="223.08" x2="225.73" y2="222.69" xlink:href="#S"/><clipPath id="p" transform="translate(54.98 26.28)"><path d="M629.69 384.76c-67.52 45.49-158.89 27.5-203.68-40.1S399.71 185 467.23 139.52s158.9-27.51 203.69 40.1 26.29 159.64-41.23 205.14z" fill="none"/></clipPath><linearGradient id="q" x1="300.29" y1="226.37" x2="645.36" y2="226.37" xlink:href="#A"/><linearGradient id="r" x1="377.55" y1="225.37" x2="644.11" y2="225.37" xlink:href="#B"/><linearGradient id="s" x1="699.82" y1="212.96" x2="426.18" y2="234.28" xlink:href="#C"/><linearGradient id="t" x1="368.72" y1="225.07" x2="639.58" y2="225.07" xlink:href="#D"/><linearGradient id="u" x1="300.7" y1="225.93" x2="640.89" y2="225.93" xlink:href="#E"/><linearGradient id="v" x1="419.92" y1="223.09" x2="671.19" y2="231.57" xlink:href="#F"/><linearGradient id="w" x1="307.84" y1="224.53" x2="635.89" y2="224.53" xlink:href="#G"/><linearGradient id="x" x1="424.66" y1="225.47" x2="649.76" y2="221.05" xlink:href="#H"/><linearGradient id="y" x1="366.09" y1="222.77" x2="641.9" y2="222.77" xlink:href="#I"/><linearGradient id="z" x1="687.21" y1="212.79" x2="414.55" y2="234.03" xlink:href="#J"/><linearGradient id="AA" x1="361.5" y1="222.44" x2="627.76" y2="222.44" xlink:href="#C"/><linearGradient id="AB" x1="682.77" y1="230.91" x2="408.07" y2="219.99" xlink:href="#C"/><linearGradient id="AC" x1="362.46" y1="222.42" x2="628.75" y2="222.42" xlink:href="#M"/><linearGradient id="AD" x1="396.07" y1="221.95" x2="589.02" y2="221.95" xlink:href="#N"/><linearGradient id="AE" x1="302.57" y1="221.57" x2="624.52" y2="221.57" xlink:href="#B"/><linearGradient id="AF" x1="691.85" y1="213.34" x2="532.17" y2="220.25" xlink:href="#P"/><linearGradient id="AG" x1="354.05" y1="220.89" x2="619.98" y2="220.89" xlink:href="#Q"/><linearGradient id="AH" x1="681.66" y1="208.44" x2="365.03" y2="233.11" xlink:href="#R"/><linearGradient id="AI" x1="349.48" y1="219.29" x2="615.62" y2="219.29" xlink:href="#S"/><linearGradient id="AJ" x1="671.89" y1="226.94" x2="398.26" y2="216.06" xlink:href="#C"/><linearGradient id="AK" x1="178.33" y1="212.76" x2="-107.11" y2="254.38" xlink:href="#S"/><linearGradient id="AL" x1="-107.52" y1="221.8" x2="180.43" y2="226.84" xlink:href="#B"/><linearGradient id="AM" x1="-99.33" y1="212.54" x2="174.3" y2="233.86" xlink:href="#C"/><linearGradient id="AN" x1="231.76" y1="224.65" x2="-39.1" y2="224.65" xlink:href="#D"/><linearGradient id="AO" x1="-51.27" y1="227.35" x2="155.14" y2="225.25" xlink:href="#Y"/><linearGradient id="AP" x1="-104.1" y1="223.19" x2="222.53" y2="225.08" xlink:href="#Z"/><linearGradient id="AQ" x1="-90.26" y1="232.36" x2="227.55" y2="220.37" xlink:href="#a"/><linearGradient id="AR" x1="175.82" y1="225.05" x2="-49.29" y2="220.64" xlink:href="#H"/><linearGradient id="AS" x1="-69.61" y1="222.62" x2="204.9" y2="222.2" xlink:href="#Y"/><linearGradient id="AT" x1="-49.02" y1="225.6" x2="170" y2="220.98" xlink:href="#d"/><linearGradient id="AU" x1="238.98" y1="222.03" x2="-27.28" y2="222.03" xlink:href="#C"/><linearGradient id="AV" x1="-82.29" y1="230.49" x2="192.42" y2="219.57" xlink:href="#C"/><linearGradient id="AW" x1="-41.53" y1="215.07" x2="204.87" y2="234.56" xlink:href="#Y"/><linearGradient id="AX" x1="204.4" y1="221.52" x2="11.45" y2="221.52" xlink:href="#N"/><linearGradient id="AY" x1="-69.69" y1="226.88" x2="202.71" y2="219.32" xlink:href="#i"/><linearGradient id="AZ" x1="-91.36" y1="212.92" x2="68.32" y2="219.83" xlink:href="#P"/><linearGradient id="Aa" x1="-66.14" y1="217.7" x2="174.73" y2="221.06" xlink:href="#k"/><linearGradient id="Ab" x1="-71.39" y1="226.52" x2="202.22" y2="215.64" xlink:href="#C"/><linearGradient id="Ac" x1="292.72" y1="484.69" x2="-72.35" y2="424.16" xlink:href="#a"/><linearGradient id="Ad" x1="219.26" y1="216" x2="-74.04" y2="230.74" xlink:href="#R"/><linearGradient id="Ae" x1="-41.11" y1="219.16" x2="193.38" y2="218.74" xlink:href="#S"/><linearGradient id="Af" x1="299.61" y1="226.01" x2="643.46" y2="226.01" xlink:href="#A"/><linearGradient id="Ag" x1="376.6" y1="225.01" x2="642.21" y2="225.01" xlink:href="#B"/><linearGradient id="Ah" x1="697.72" y1="212.65" x2="425.06" y2="233.89" xlink:href="#C"/><linearGradient id="Ai" x1="367.8" y1="224.71" x2="637.69" y2="224.71" xlink:href="#D"/><linearGradient id="Aj" x1="300.03" y1="225.57" x2="638.99" y2="225.57" xlink:href="#E"/><linearGradient id="Ak" x1="418.81" y1="222.75" x2="669.2" y2="231.19" xlink:href="#F"/><linearGradient id="Al" x1="307.14" y1="224.17" x2="634.02" y2="224.17" xlink:href="#G"/><linearGradient id="Am" x1="423.54" y1="225.11" x2="647.84" y2="220.71" xlink:href="#H"/><linearGradient id="An" x1="365.18" y1="222.43" x2="640.01" y2="222.43" xlink:href="#I"/><linearGradient id="Ao" x1="685.15" y1="212.48" x2="413.47" y2="233.65" xlink:href="#J"/><linearGradient id="Ap" x1="360.61" y1="222.1" x2="625.92" y2="222.1" xlink:href="#C"/><linearGradient id="Aq" x1="680.73" y1="230.54" x2="407.01" y2="219.66" xlink:href="#C"/><linearGradient id="Ar" x1="361.56" y1="222.07" x2="626.9" y2="222.07" xlink:href="#M"/><linearGradient id="As" x1="395.05" y1="221.6" x2="587.31" y2="221.6" xlink:href="#N"/><linearGradient id="At" x1="301.88" y1="221.22" x2="622.68" y2="221.22" xlink:href="#B"/><linearGradient id="Au" x1="689.78" y1="213.02" x2="530.67" y2="219.91" xlink:href="#P"/><linearGradient id="Av" x1="353.18" y1="220.55" x2="618.16" y2="220.55" xlink:href="#Q"/><linearGradient id="Aw" x1="679.62" y1="208.15" x2="364.13" y2="232.73" xlink:href="#R"/><linearGradient id="Ax" x1="348.63" y1="218.96" x2="613.82" y2="218.96" xlink:href="#S"/><linearGradient id="Ay" x1="669.89" y1="226.58" x2="397.23" y2="215.74" xlink:href="#C"/><linearGradient id="Az" x1="178.08" y1="212.45" x2="-106.33" y2="253.92" xlink:href="#S"/><linearGradient id="BA" x1="-106.74" y1="221.45" x2="180.18" y2="226.48" xlink:href="#B"/><linearGradient id="BB" x1="-98.58" y1="212.23" x2="174.08" y2="233.48" xlink:href="#C"/><linearGradient id="BC" x1="231.33" y1="224.29" x2="-38.57" y2="224.29" xlink:href="#D"/><linearGradient id="BD" x1="-50.69" y1="226.98" x2="154.98" y2="224.89" xlink:href="#Y"/><linearGradient id="BE" x1="-103.34" y1="222.84" x2="222.13" y2="224.73" xlink:href="#Z"/><linearGradient id="BF" x1="-89.54" y1="231.97" x2="227.14" y2="220.04" xlink:href="#a"/><linearGradient id="BG" x1="175.59" y1="224.69" x2="-48.72" y2="220.3" xlink:href="#H"/><linearGradient id="BH" x1="-68.96" y1="222.27" x2="204.57" y2="221.85" xlink:href="#Y"/><linearGradient id="BI" x1="-48.45" y1="225.24" x2="169.79" y2="220.64" xlink:href="#d"/><linearGradient id="BJ" x1="238.52" y1="221.68" x2="-26.79" y2="221.68" xlink:href="#C"/><linearGradient id="BK" x1="-81.6" y1="230.12" x2="192.13" y2="219.24" xlink:href="#C"/><linearGradient id="BL" x1="-40.99" y1="214.75" x2="204.54" y2="234.17" xlink:href="#Y"/><linearGradient id="BM" x1="204.07" y1="221.18" x2="11.81" y2="221.18" xlink:href="#N"/><linearGradient id="BN" x1="-69.05" y1="226.52" x2="202.39" y2="218.98" xlink:href="#i"/><linearGradient id="BO" x1="-90.64" y1="212.6" x2="68.47" y2="219.49" xlink:href="#P"/><linearGradient id="BP" x1="-65.51" y1="217.37" x2="174.5" y2="220.72" xlink:href="#k"/><linearGradient id="BQ" x1="-70.74" y1="226.16" x2="201.89" y2="215.32" xlink:href="#C"/><linearGradient id="BR" x1="292.07" y1="483.41" x2="-71.7" y2="423.09" xlink:href="#a"/><linearGradient id="BS" x1="218.87" y1="215.67" x2="-73.38" y2="230.37" xlink:href="#R"/><linearGradient id="BT" x1="-40.57" y1="218.83" x2="193.08" y2="218.4" xlink:href="#S"/><linearGradient id="BU" gradientUnits="userSpaceOnUse"/></defs><g class="B"><image width="325" height="441" transform="translate(377.7 32)"/><image width="325" height="441" transform="translate(54.7 32)"/><g transform="translate(54.98 26.28)"><path d="M514.07 18.56c8.5-1.16 122.46-2.51 122.46-2.51v423.53L323 443.21c-6.28.06 191.07-424.65 191.07-424.65z" fill="url(#A)"/><path d="M510.18 16.44c13.24-1.81 13.32 1.28 125.22-1L634.62 440l-241.27 2c-6.26 0 116.83-425.56 116.83-425.56z" fill="url(#B)"/><path d="M507.54 16.44c8.5-1.16 126.13-1.54 126.13-1.54L632 436.58 390.74 442c-6.26.07 116.8-425.56 116.8-425.56z" fill="url(#C)"/><path d="M506.83 14.71c8.52-1.17 124.25-.39 124.25-.39l.2 423.3-246 5.2c-6.28.05 121.55-428.11 121.55-428.11z" fill="url(#D)"/><path d="M507.32 18.74c8.52-1.16 125.15-3.49 125.15-3.49l-.68 423.5-308.36 4.46c-6.23.06 183.89-424.47 183.89-424.47z" fill="url(#E)"/><path d="M504.31 19.51C512.83 18.35 629.09 14 629.09 14l-.25 425.47-294.91 3.12c-6.24.05 170.38-423.08 170.38-423.08z" fill="url(#F)"/><path d="M503.45 17.39c8.51-1.16 124.48-4.5 124.48-4.5l-.28 425.54L329.92 443c-6.23 0 173.53-425.61 173.53-425.61z" fill="url(#G)"/><path d="M500.09 15.85c8.52-1.16 125.18-3.5 125.18-3.5l-.77 425.51-241 3.62c-6.2.05 116.59-425.63 116.59-425.63z" fill="url(#H)"/><path d="M499.56,15.27c8.51-1.16,125.19-3.5,125.19-3.5l-.83,426.09s-234.74,3-241,3.09S499.56,15.27,499.56,15.27Z" fill="url(#I)"/><path d="M496.91 15.27c8.51-1.16 125.2-3.49 125.2-3.49l-.48 425.51-241.3 3.68c-6.3.07 116.58-425.7 116.58-425.7z" fill="url(#J)"/><path d="M495.33 14.69c8.51-1.17 125.21-3.5 125.21-3.5l-.38 424.32-241.39 5.42c-6.23.06 116.56-426.24 116.56-426.24z" fill="url(#K)"/><path d="M492.66,14.7c8.51-1.17,125.24-3.51,125.24-3.51l-.34,426s-237.26,5.2-243.51,5.25S492.66,14.7,492.66,14.7Z" fill="url(#L)"/><path d="M496.21 13.53C504.72 12.37 621.43 10 621.43 10l-.95 427.84-240.84 4.19c-6.24.06 116.57-428.5 116.57-428.5z" fill="url(#M)"/><path d="M453.45,13.93C462,12.76,578.73,8.79,578.73,8.79L578.32,437s-235.12,5.4-241.38,5.46S453.45,13.93,453.45,13.93Z" fill="url(#N)"/><path d="M492.32 12.18c8.53-1.18 125.27-3.53 125.27-3.53l-.38 428.89-292.08 4.33c-6.25.06 167.19-429.69 167.19-429.69z" fill="url(#O)"/><path d="M489,10.62C497.49,9.44,614.76,8,614.76,8L614,436.09S338.64,443,332.4,443,489,10.62,489,10.62Z" fill="url(#P)"/><path d="M488.44 10C497 8.86 613.32 8.3 613.32 8.3l.14 427.23L372 441c-6.26.06 116.44-431 116.44-431z" fill="url(#Q)"/><path d="M485.78,10c8.53-1.17,125.3-3.52,125.3-3.52l-.21,429s-279.29,6.26-285.53,6.32S485.78,10,485.78,10Z" fill="url(#R)"/><path d="M484.19,9.44C492.71,8.27,609.5,5.92,609.5,5.92L609,434.42s-234.93,6-241.17,6.05S484.19,9.44,484.19,9.44Z" fill="url(#S)"/><path d="M481.52,9.44c8.54-1.17,125.34-3.52,125.34-3.52l1,426.49s-236.41,8-242.66,8.08S481.52,9.44,481.52,9.44Z" fill="url(#T)"/></g><image width="288" height="443" transform="translate(375.7 26)"/><g transform="translate(54.98 26.28)"><path d="M135,16.64c-8.5-1.16-126.38-.41-126.38-.41l.85,422.4s236.16,3.44,242.4,3.51S135,16.64,135,16.64Z" fill="url(#U)"/><path d="M135.53 16.06c-13.24-1.8-13.32 1.27-125.2-1l.77 424.49 241.27 2c6.25.09-116.84-425.49-116.84-425.49z" fill="url(#V)"/><path d="M138.18 16.06c-8.51-1.16-126.13-1.55-126.13-1.55l1.67 421.68 241.26 5.42c6.26.05-116.8-425.55-116.8-425.55z" fill="url(#W)"/><path d="M138.87 14.32c-8.51-1.17-124.24-.38-124.24-.38l-.2 423.29 246 5.21c6.27.05-121.56-428.12-121.56-428.12z" fill="url(#X)"/><path d="M138.37 18.36c-8.5-1.16-125.12-3.5-125.12-3.5l.68 423.51 308.37 4.45c6.26.05-183.93-424.46-183.93-424.46z" fill="url(#Y)"/><path d="M141.39 19.13c-8.5-1.13-124.76-5.47-124.76-5.47l.23 425.47 294.92 3.11c6.24.05-170.39-423.11-170.39-423.11z" fill="url(#Z)"/><path d="M142.26,17c-8.5-1.16-124.49-4.5-124.49-4.5l.29,425.54s291.5,4.53,297.74,4.58S142.26,17,142.26,17Z" fill="url(#a)"/><path d="M145.62 15.47C137.11 14.3 20.43 12 20.43 12l.79 425.51 241 3.62c6.21.05-116.6-425.66-116.6-425.66z" fill="url(#b)"/><path d="M146.14 14.89C137.64 13.73 21 11.39 21 11.39l.84 426.09 241 3.09c6.26.09-116.7-425.68-116.7-425.68z" fill="url(#c)"/><path d="M148.8 14.89c-8.51-1.16-125.21-3.49-125.21-3.49l.48 425.51 241.31 3.68c6.25.06-116.58-425.7-116.58-425.7z" fill="url(#d)"/><path d="M150.4 14.31c-8.52-1.17-125.22-3.5-125.22-3.5l.38 424.32L267 440.55c6.3.06-116.6-426.24-116.6-426.24z" fill="url(#e)"/><path d="M153.05 14.32c-8.51-1.17-125.23-3.51-125.23-3.51l.34 426 243.51 5.25c6.25.06-118.62-427.74-118.62-427.74z" fill="url(#f)"/><path d="M149.5,13.15C141,12,26.74,9.36,26.74,9.36L25.23,437.48s234.6,4.13,240.84,4.19S149.5,13.15,149.5,13.15Z" fill="url(#g)"/><path d="M192.26 13.55C183.74 12.38 67 8.4 67 8.4l.41 428.2 241.38 5.45c6.25.06-116.53-428.5-116.53-428.5z" fill="url(#h)"/><path d="M153.39,11.8C144.87,10.62,28.14,8.27,28.14,8.27l.36,428.89s285.82,4.28,292.07,4.33S153.39,11.8,153.39,11.8Z" fill="url(#i)"/><path d="M156.75 10.23C148.23 9.06 31 7.64 31 7.64l.8 428.06 281.55 6.93c6.23.05-156.6-432.4-156.6-432.4z" fill="url(#j)"/><path d="M157.27,9.65C148.75,8.47,32.4,7.93,32.4,7.93l-.11,429.16s235.18,3.46,241.41,3.52S157.27,9.65,157.27,9.65Z" fill="url(#k)"/><path d="M164.19,9.06C155.66,7.89,38.86,5.54,38.86,5.54L37.84,432s236.39,8,242.63,8.08S164.19,9.06,164.19,9.06Z" fill="url(#l)"/><path class="o" d="M11.1,439.58c3.32-1.15,20.43-3.44,24.24-3.63s286,3.63,286,3.63l-.88,3.74Z" opacity=".4" fill="url(#m)"/><path d="M159.93,9.65C151.41,8.47,34.64,6.12,34.64,6.12l-.45,430s279.94,5.31,286.2,5.36S159.93,9.65,159.93,9.65Z" fill="url(#n)"/><path d="M161.52,9.06C153,7.89,36.21,5.54,36.21,5.54l-.3,431s235.72,3.51,242,3.57S161.52,9.06,161.52,9.06Z" fill="url(#o)"/></g><image width="288" height="442" transform="translate(91.7 27)"/><path d="M278.55 56.93h74.43m-237.09.01h33.79m192.96 64.8h11.23m-62.45 0h44.99m-71.12 0H284m-71.72.01h44.69m-78.84 0h26.28m-87.63 0h53.04m149.22 24.15h38.32m-117.76 0h70.68m-124.87 0h41.43m-106.57.01h57.57m152.93 24.89h24.6m-92.31.01l59.99-.01m-75.28.01h9.65m-55.23 0h38.75m-108.98 0h64.14m-77.82 0h8.04m176.98 24.15h51.32m-136.99.01l76.47-.01m-97.85.01h13.36m-92.08 0h68.33m58.65 24.15h7.76m-70.72 0h55.24m-120 .01l55.85-.01m147.32 38.2l38.33-.01m-117.76.01h70.67m-124.86 0h41.42m-106.56 0h57.56m152.93 24.9h24.61m-92.31 0h59.98m-75.27 0h9.65m-55.23 0h38.75m-108.98.01l64.14-.01m-77.82.01h8.04m176.98 24.15h51.32m-136.99 0h76.46m-97.84 0h13.36m-92.08 0h68.32m58.65 24.16h7.76m-70.71 0h55.23m-120 0h55.86m146.39 31.84h38.33m-117.76.01l70.67-.01m-124.86.01h41.42m-106.56 0h57.56m152.93 24.9h24.61m-92.31 0h59.98m-75.27 0h9.65m-55.23 0h38.75m-108.98.01l64.14-.01m-77.82.01h8.04m176.98 24.15l51.32-.01m-136.99.01h76.46m-97.84 0h13.36m-92.08 0h68.32m58.65 24.16h7.76m-70.71 0h55.23m-120 0h55.86M569.93 56.93h74.43m-237.09.01h33.78m192.97 64.8h11.23m-62.45 0h44.99m-71.12 0h18.7m-71.71.01h44.69m-78.84 0h26.28m-87.63 0h53.04m149.22 24.15h38.32m-117.76 0h70.68m-124.87 0h41.42m-106.56.01h57.57m152.93 24.89h24.6m-92.31.01l59.98-.01m-75.27.01h9.65m-55.23 0h38.75m-108.98 0h64.14m-77.82 0h8.04m176.98 24.15H646m-136.99.01l76.46-.01m-97.84.01h13.36m-92.08 0h68.33m58.64 24.15h7.76m-70.71 0h55.23m-119.99.01l55.85-.01m147.32 38.2l38.32-.01m-117.75.01h70.67m-124.87 0h41.43m-106.56 0h57.56m152.93 24.9h24.6m-92.3 0h59.98m-75.28 0h9.66m-55.24 0h38.75m-108.98.01l64.15-.01m-77.83.01h8.04m176.98 24.15h51.33m-136.99 0h76.46m-97.85 0h13.37m-92.08 0h68.32m58.65 24.16h7.76m-70.71 0h55.23m-120 0h55.86" fill="none" stroke="#1a2e35" class="Bk Bl"/><g clip-path="url(#p)"><image width="357" height="486" transform="translate(354.7 6)"/><image width="357" height="486" transform="translate(-.3 6)"/><g transform="translate(54.98 26.28)"><path d="M510.62-5.85C520-7.13,645.36-8.62,645.36-8.62v466s-338,3.94-344.91,4S510.62-5.85,510.62-5.85Z" fill="url(#q)"/><path d="M506.35-8.18c14.56-2 14.65 1.4 137.76-1.07l-.86 467L377.8 460c-6.89.06 128.55-468.18 128.55-468.18z" fill="url(#r)"/><path d="M503.44-8.18c9.34-1.28,138.77-1.7,138.77-1.7l-1.85,463.94S381.79,460,374.93,460,503.44-8.18,503.44-8.18Z" fill="url(#s)"/><path d="M502.66-10.09c9.37-1.29 136.71-.42 136.71-.42l.21 465.72L369 460.93c-6.83.06 133.66-471.02 133.66-471.02z" fill="url(#t)"/><path d="M503.2-5.65C512.57-6.93,640.89-9.5,640.89-9.5l-.75,466s-332.41,4.84-339.27,4.9S503.2-5.65,503.2-5.65Z" fill="url(#u)"/><path d="M499.88-4.81c9.38-1.27,137.29-6,137.29-6l-.27,468.11s-317.61,3.39-324.48,3.44S499.88-4.81,499.88-4.81Z" fill="url(#v)"/><path d="M498.94-7.14c9.36-1.28,137-4.95,137-4.95l-.3,468.19s-320.72,5-327.57,5S498.94-7.14,498.94-7.14Z" fill="url(#w)"/><path d="M495.25-8.84C504.61-10.11 633-12.69 633-12.69l-.85 468.16-265.2 4c-6.87.07 128.3-468.31 128.3-468.31z" fill="url(#x)"/><path d="M494.66-9.47C504-10.75,632.4-13.32,632.4-13.32l-.92,468.79s-258.26,3.33-265.14,3.4S494.66-9.47,494.66-9.47Z" fill="url(#y)"/><path d="M491.74-9.47c9.36-1.28,137.75-3.85,137.75-3.85L629,454.84s-258.62,4-265.49,4.05S491.74-9.47,491.74-9.47Z" fill="url(#z)"/><path d="M490-10.11C499.36-11.39,627.76-14,627.76-14l-.41,466.85s-258.71,5.9-265.59,6S490-10.11,490-10.11Z" fill="url(#AA)"/><path d="M487.07-10.1C496.43-11.39,624.86-14,624.86-14l-.38,468.69s-261,5.72-267.91,5.79S487.07-10.1,487.07-10.1Z" fill="url(#AB)"/><path d="M491-11.39c9.36-1.28,137.78-3.86,137.78-3.86l-1,470.72s-258.11,4.54-265,4.61S491-11.39,491-11.39Z" fill="url(#AC)"/><path d="M443.93-10.95c9.38-1.29 137.84-5.66 137.84-5.66l-.45 471.11-265.58 6c-6.89.07 128.19-471.45 128.19-471.45z" fill="url(#AD)"/><path d="M486.69-12.87c9.39-1.29 137.83-3.89 137.83-3.89l-.42 471.88-321.35 4.77c-6.87.07 183.94-472.76 183.94-472.76z" fill="url(#AE)"/><path d="M483-14.6c9.38-1.29,138.4-2.85,138.4-2.85l-.87,471s-302.92,7.56-309.79,7.62S483-14.6,483-14.6Z" fill="url(#AF)"/><path d="M482.42-15.24c9.38-1.29 137.4-1.9 137.4-1.9l.18 470.05-265.68 6c-6.89.05 128.1-474.15 128.1-474.15z" fill="url(#AG)"/><path d="M479.5-15.24c9.38-1.29 137.86-3.87 137.86-3.87l-.23 472.05L303 459.89c-6.84.07 176.5-475.13 176.5-475.13z" fill="url(#AH)"/><path d="M477.75-15.89c9.37-1.29 137.87-3.87 137.87-3.87l-.54 471.45-265.34 6.65c-6.86.06 128.01-474.23 128.01-474.23z" fill="url(#AI)"/><path d="M474.81-15.89c9.39-1.29 137.91-3.87 137.91-3.87l1.12 469.23-267 8.9c-6.9.05 127.97-474.26 127.97-474.26z" fill="url(#AJ)"/></g><image width="316" height="489" transform="translate(353.7 -1)"/><g transform="translate(54.98 26.28)"><path d="M93.55-8c-9.36-1.25-139.06-.42-139.06-.42l.95 464.74 266.69 3.86C229 460.25 93.55-8 93.55-8z" fill="url(#AK)"/><path d="M94.14-8.6c-14.57-2-14.65,1.39-137.75-1.07l.84,467,265.46,2.21C229.57,459.64,94.14-8.6,94.14-8.6Z" fill="url(#AL)"/><path d="M97.06-8.6C87.69-9.88-41.72-10.31-41.72-10.31l1.84,464s258.58,5.9,265.44,6S97.06-8.6,97.06-8.6Z" fill="url(#AM)"/><path d="M97.82-10.51c-9.37-1.29-136.7-.43-136.7-.43l-.22 465.72 270.62 5.74c6.86.07-133.7-471.03-133.7-471.03z" fill="url(#AN)"/><path d="M97.27-6.07C87.91-7.35-40.39-9.92-40.39-9.92l.74,466s332.4,4.83,339.28,4.89S97.27-6.07,97.27-6.07Z" fill="url(#AO)"/><path d="M100.59-5.22c-9.35-1.28-137.27-6-137.27-6l.26,468.12s317.62,3.37,324.48,3.43S100.59-5.22,100.59-5.22Z" fill="url(#AP)"/><path d="M101.55-7.56c-9.36-1.27-137-4.95-137-4.95l.31,468.19s320.73,5,327.59,5S101.55-7.56,101.55-7.56Z" fill="url(#AQ)"/><path d="M105.25-9.26C95.87-10.54-32.5-13.1-32.5-13.1l.87,468.15s258.32,3.94,265.2,4S105.25-9.26,105.25-9.26Z" fill="url(#AR)"/><path d="M105.82-9.89c-9.36-1.28-137.74-3.85-137.74-3.85L-31,455.05s258.27,3.33,265.15,3.4S105.82-9.89,105.82-9.89Z" fill="url(#AS)"/><path d="M108.74-9.89C99.37-11.17-29-13.73-29-13.73l.53,468.15s258.62,4,265.5,4.05S108.74-9.89,108.74-9.89Z" fill="url(#AT)"/><path d="M110.5-10.53c-9.37-1.29-137.78-3.85-137.78-3.85l.42 466.85 265.59 6c6.87.1-128.23-469-128.23-469z" fill="url(#AU)"/><path d="M113.42-10.52c-9.37-1.28-137.79-3.86-137.79-3.86l.38 468.7 267.91 5.78c6.91.07-130.5-470.62-130.5-470.62z" fill="url(#AV)"/><path d="M109.51-11.8C100.14-13.09-25.55-16-25.55-16l-1.67,471s258.12,4.55,265,4.62S109.51-11.8,109.51-11.8Z" fill="url(#AW)"/><path d="M156.56-11.37C147.18-12.66 18.71-17 18.71-17l.45 471.13 265.57 6c6.87.08-128.17-471.5-128.17-471.5z" fill="url(#AX)"/><path d="M113.78-13.29C104.41-14.59-24-17.17-24-17.17l.4 471.87 321.35 4.77c6.88.06-183.97-472.76-183.97-472.76z" fill="url(#AY)"/><path d="M117.48-15c-9.37-1.3-138.39-2.86-138.39-2.86l.87,471s302.92,7.57,309.78,7.62S117.48-15,117.48-15Z" fill="url(#AZ)"/><path d="M118.06-15.66c-9.37-1.29-137.39-1.89-137.39-1.89l-.12 472.18 265.61 3.87c6.85.06-128.1-474.16-128.1-474.16z" fill="url(#Aa)"/><path d="M125.67-16.3c-9.38-1.3-137.89-3.88-137.89-3.88l-1.12 469.24 267 8.89C260.58 458 125.67-16.3 125.67-16.3z" fill="url(#Ab)"/><path class="Af" d="M-42.77,457.36c3.66-1.26,22.49-3.78,26.68-4s314.65,4,314.65,4l-1,4.12Z" opacity=".4" fill="url(#Ac)"/><path d="M121-15.66c-9.36-1.29-137.85-3.88-137.85-3.88l-.49,473.11s308,5.84,314.89,5.9S121-15.66,121-15.66Z" fill="url(#Ad)"/><path d="M122.73-16.3c-9.36-1.3-137.87-3.88-137.87-3.88L-15.46 454l266.22 3.93C257.64 458 122.73-16.3 122.73-16.3z" fill="url(#Ae)"/></g><image width="316" height="486" transform="translate(40.7 1)"/><image width="357" height="484" transform="translate(353.7 7)"/><image width="357" height="484" transform="translate(-.3 7)"/><g transform="translate(54.98 26.28)"><path d="M509.19-5.38c9.32-1.28,134.27-2.76,134.27-2.76V456.18s-336.85,3.92-343.69,4S509.19-5.38,509.19-5.38Z" fill="url(#Af)"/><path d="M504.93-7.71c14.52-2,14.61,1.4,137.28-1.06l-.86,465.37-264.5,2.2C370,458.86,504.93-7.71,504.93-7.71Z" fill="url(#Ag)"/><path d="M502-7.71C511.35-9 640.32-9.4 640.32-9.4l-1.85 462.29L374 458.82c-6.82.06 128-466.53 128-466.53z" fill="url(#Ah)"/><path d="M501.26-9.61c9.34-1.28 136.22-.39 136.22-.39l.21 464-269.64 5.7c-6.84.06 133.21-469.31 133.21-469.31z" fill="url(#Ai)"/><path d="M501.8-5.18C511.14-6.46,639-9,639-9l-.74,464.29S307,460.1,300.19,460.16,501.8-5.18,501.8-5.18Z" fill="url(#Aj)"/><path d="M498.49-4.34c9.35-1.28,136.81-6,136.81-6L635,456.1s-316.47,3.37-323.32,3.43S498.49-4.34,498.49-4.34Z" fill="url(#Ak)"/><path d="M497.55-6.67C506.88-7.94,634-11.6,634-11.6l-.3,466.52s-319.58,5-326.41,5S497.55-6.67,497.55-6.67Z" fill="url(#Al)"/><path d="M493.87-8.36c9.34-1.27,137.24-3.84,137.24-3.84l-.85,466.49s-257.41,3.92-264.26,4S493.87-8.36,493.87-8.36Z" fill="url(#Am)"/><path d="M493.29-9c9.33-1.28,137.25-3.84,137.25-3.84l-.92,467.12s-257.34,3.32-264.19,3.39S493.29-9,493.29-9Z" fill="url(#An)"/><path d="M490.38-9c9.33-1.28,137.26-3.83,137.26-3.83l-.52,466.49s-257.7,4-264.54,4S490.38-9,490.38-9Z" fill="url(#Ao)"/><path d="M488.65-9.63c9.33-1.28 137.27-3.83 137.27-3.83l-.42 465.18-264.64 5.94C354 457.72 488.65-9.63 488.65-9.63z" fill="url(#Ap)"/><path d="M485.72-9.62C495.06-10.9,623-13.46,623-13.46l-.37,467s-260.11,5.7-267,5.76S485.72-9.62,485.72-9.62Z" fill="url(#Aq)"/><path d="M489.62-10.9c9.32-1.28,137.28-3.85,137.28-3.85l-1,469s-257.19,4.53-264,4.6S489.62-10.9,489.62-10.9Z" fill="url(#Ar)"/><path d="M442.74-10.47c9.34-1.28 137.35-5.63 137.35-5.63l-.45 469.42-264.63 6c-6.86.08 127.73-469.79 127.73-469.79z" fill="url(#As)"/><path d="M485.35-12.38c9.35-1.28 137.33-3.87 137.33-3.87l-.41 470.19-320.21 4.75c-6.85.06 183.29-471.07 183.29-471.07z" fill="url(#At)"/><path d="M481.68-14.1c9.34-1.29 137.9-2.84 137.9-2.84l-.87 469.29L310 460c-6.87.12 171.68-474.1 171.68-474.1z" fill="url(#Au)"/><path d="M481.1-14.74C490.44-16,618-16.63,618-16.63l.16,468.38s-257.86,5.92-264.72,6S481.1-14.74,481.1-14.74Z" fill="url(#Av)"/><path d="M478.18-14.74c9.35-1.26 137.37-3.86 137.37-3.86l-.23 470.37-313 6.92c-6.81.06 175.86-473.43 175.86-473.43z" fill="url(#Aw)"/><path d="M476.44-15.38c9.34-1.29 137.38-3.86 137.38-3.86l-.54 469.76-264.4 6.64c-6.84.07 127.56-472.54 127.56-472.54z" fill="url(#Ax)"/><path d="M473.51-15.38c9.36-1.29 137.42-3.86 137.42-3.86l1.12 467.56-266 8.86c-6.83.05 127.46-472.56 127.46-472.56z" fill="url(#Ay)"/></g><image width="315" height="486" transform="translate(352.7)"/><g transform="translate(54.98 26.28)"><path d="M93.61-7.5C84.29-8.77-44.95-7.94-44.95-7.94L-44,455.14s258.9,3.77,265.74,3.85S93.61-7.5,93.61-7.5Z" fill="url(#Az)"/><path d="M94.2-8.13c-14.51-2-14.6,1.4-137.26-1.06l.84,465.37,264.51,2.2C229.15,458.45,94.2-8.13,94.2-8.13Z" fill="url(#BA)"/><path d="M97.11-8.13C87.78-9.4-41.18-9.82-41.18-9.82l1.84,462.29s257.65,5.88,264.49,5.93S97.11-8.13,97.11-8.13Z" fill="url(#BB)"/><path d="M97.86-10c-9.33-1.28-136.21-.42-136.21-.42l-.22,464.06s262.82,5.65,269.66,5.71S97.86-10,97.86-10Z" fill="url(#BC)"/><path d="M97.32-5.61C88-6.87-39.86-9.44-39.86-9.44l.74 464.3L299 459.74C305.9 459.8 97.32-5.61 97.32-5.61z" fill="url(#BD)"/><path d="M100.63-4.76c-9.33-1.27-136.78-6-136.78-6l.25 466.45 323.32 3.41c6.83.1-186.79-463.86-186.79-463.86z" fill="url(#BE)"/><path d="M101.58-7.09C92.25-8.35-34.9-12-34.9-12l.31,466.52s319.58,5,326.42,5S101.58-7.09,101.58-7.09Z" fill="url(#BF)"/><path d="M105.27-8.78C95.93-10-32-12.61-32-12.61l.87,466.49s257.4,3.92,264.25,4S105.27-8.78,105.27-8.78Z" fill="url(#BG)"/><path d="M105.83-9.41c-9.32-1.28-137.24-3.84-137.24-3.84l.92 467.13 264.2 3.39c6.84.04-127.88-466.68-127.88-466.68z" fill="url(#BH)"/><path d="M108.75-9.41c-9.34-1.28-137.27-3.83-137.27-3.83L-28,453.25s257.7,4,264.55,4S108.75-9.41,108.75-9.41Z" fill="url(#BI)"/><path d="M110.5-10c-9.34-1.28-137.28-3.83-137.28-3.83l.41,465.18s257.8,5.88,264.64,5.94S110.5-10,110.5-10Z" fill="url(#BJ)"/><path d="M113.41-10c-9.33-1.28-137.29-3.85-137.29-3.85l.37,467s260.11,5.7,267,5.76S113.41-10,113.41-10Z" fill="url(#BK)"/><path d="M109.51-11.31c-9.33-1.29-134.58-4.16-134.58-4.16l-1.66 469.35 264.05 4.59c6.85.07-127.81-469.78-127.81-469.78z" fill="url(#BL)"/><path d="M156.39-10.88C147.05-12.16 19-16.53 19-16.53l.45 469.45 264.63 6c6.85.1-127.69-469.8-127.69-469.8z" fill="url(#BM)"/><path d="M113.77-12.8c-9.34-1.29-137.31-3.87-137.31-3.87l.4,470.2s313.35,4.69,320.2,4.75S113.77-12.8,113.77-12.8Z" fill="url(#BN)"/><path d="M117.46-14.51c-9.34-1.29-137.9-2.85-137.9-2.85l.87 469.29 308.67 7.6c6.83.06-171.64-474.04-171.64-474.04z" fill="url(#BO)"/><path d="M118-15.16C108.69-16.45-18.87-17-18.87-17L-19,453.45s257.83,3.8,264.66,3.86S118-15.16,118-15.16Z" fill="url(#BP)"/><path d="M125.61-15.8c-9.34-1.29-137.39-3.86-137.39-3.86L-12.9,447.9s259.16,8.81,266,8.87S125.61-15.8,125.61-15.8Z" fill="url(#BQ)"/><path class="BU" d="M-42.22,456.18c3.65-1.26,22.41-3.77,26.58-4s313.53,4,313.53,4l-1,4.11Z" opacity=".4" fill="url(#BR)"/><path d="M121-15.16C111.61-16.45-16.41-19-16.41-19L-16.9,452.4s306.9,5.82,313.76,5.88S121-15.16,121-15.16Z" fill="url(#BS)"/><path d="M122.69-15.8c-9.33-1.29-137.38-3.86-137.38-3.86L-15,452.83s258.41,3.85,265.27,3.91S122.69-15.8,122.69-15.8Z" fill="url(#BT)"/></g><image width="316" height="484" transform="translate(40.7 2)"/><g fill="none" stroke="#1a2e35" stroke-width="1.1" class="Bk Bl"><path d="M245.7 34.15h81.6m-259.92.01h37.03m211.56 71.04h12.31m-68.47 0h49.32m-77.97.01l20.51-.01m-78.62.01h48.99m-86.43 0h28.81m-96.07 0h58.15m163.59 26.48h42.01m-129.1 0h77.48m-136.89 0H189m-116.82 0h63.11m167.66 27.3h26.97m-101.2 0h65.76m-82.53 0h10.58m-60.55 0h42.49M84.99 159l70.32-.01m-85.32.01h8.82m194.02 26.47h56.27m-150.19.01l83.83-.01m-107.27.01h14.65m-100.94 0h74.9m64.3 26.48h8.5m-77.52 0h60.55m-131.55.01l61.23-.01m161.51 41.87h42.01m-129.09.01l77.48-.01m-136.9.01h45.42m-116.83 0h63.11m167.66 27.3h26.97m-101.19 0h65.76m-82.53 0h10.58m-60.55 0h42.48m-119.47 0h70.31m-85.31 0h8.81m194.03 26.48h56.26m-150.18 0h83.83m-107.27 0h14.65m-100.95.01h74.9m64.3 26.48h8.51m-77.53 0h60.56m-131.56 0h61.24m160.49 34.91h42.01m-129.09 0h77.48m-136.9.01l45.42-.01m-116.83.01h63.11m167.66 27.29h26.97m-101.19.01l65.76-.01m-82.53.01h10.58m-60.55 0h42.48m-119.47 0h70.31m-85.31 0h8.81m194.03 26.48h56.26m-150.18 0h83.83m-107.27 0h14.65m-100.95.01l74.9-.01m64.3 26.48h8.51m-77.53.01l60.56-.01m-131.56.01h61.24M565.14 34.15h81.6m-259.92.01h37.03m211.56 71.04h12.31m-68.47 0h49.32m-77.97.01l20.51-.01m-78.62.01h48.99m-86.43 0h28.81m-96.07 0h58.15m163.59 26.48h42.01m-129.1 0h77.48m-136.89 0h45.41m-116.82 0h63.11m167.66 27.3h26.97m-101.2 0h65.76m-82.53 0h10.58m-60.55 0h42.49m-119.48.01l70.32-.01m-85.32.01h8.82m194.02 26.47h56.27m-150.19.01l83.83-.01m-107.27.01h14.65m-100.94 0h74.9m64.3 26.48h8.5m-77.52 0h60.55m-131.55.01l61.23-.01m161.51 41.87h42.01m-129.09.01l77.48-.01m-136.9.01h45.42m-116.83 0h63.11m167.66 27.3h26.97m-101.19 0h65.76m-82.53 0h10.58m-60.55 0h42.48m-119.47 0h70.32m-85.32 0h8.81m194.03 26.48h56.26m-150.18 0h83.83m-107.27 0h14.65m-100.95.01h74.9m64.3 26.48h8.51m-77.53 0h60.56m-131.56 0h61.24"/></g></g><g fill="none" stroke="#ff9378" stroke-width="10" class="Bk Bl"><path d="M716.31 132.53s5.07 2.33 13.21 7.09"/><path d="M755.15 156.77c42.46 32 102.57 96.76 87.18 199.5-26.45 176.66-185.35 255.34-390.74 251.83-130.46-2.24-193-30.08-221.44-50.36" stroke-dasharray="30.86 30.86"/><path d="M218.2 547.98c-7.22-6.84-9.65-11.43-9.65-11.43"/></g><g fill="#ff9378"><path d="M95.16 439l54.92 104.61 38.91-18.43 29.6-14.01-24.69-14.43-2.06-1.21L95.16 439z"/><path d="M95.16 439l142.51 61.71 59.89-13.59L95.16 439z"/></g><path d="M188.99 525.18l29.6 36.72v-50.73l-29.6 14.01z" fill="#c95943"/><path d="M95.16 439l123.43 72.17v50.73l19.08-61.19L95.16 439z" fill="#df775d"/><path d="M771.58 518.53l-29.29 19.73-80.38-121.34 29.29-19.74 80.38 121.35z" fill="#e1e1e1"/><path d="M663.12 418.74l64.43 33.31-35.14-53s-15.28 12.64-29.29 19.69z" opacity=".18"/><ellipse cx="548.46" cy="262.14" rx="138.07" ry="136.86" transform="matrix(.41374 -.910395 .910395 .41374 137.86 679.26)" fill="#f2f2f2" opacity=".51"/><path d="M605.6 408.11a182.78 182.78 0 0 1-71-26.3c-20.81-13-41.45-30.47-54.06-51.9a104.58 104.58 0 0 1-11.87-28.47 136.56 136.56 0 0 0 49.71 91.32c44.23 35.88 104.1 39.34 151.37 13.5-20.83 4.83-43.17 4.87-64.15 1.85z" opacity=".18"/><path d="M837.63 641.04l-12.65 8.51a18 18 0 0 1-25.12-4.95l-82.38-124.39a3 3 0 0 1 .84-4.17l37.86-25.51a3 3 0 0 1 4.13.81l82.41 124.4c5.516 8.405 3.247 19.682-5.09 25.3z" fill="#56d4b7"/><path d="M775.44 512.16l-42.83 28.86-3.41-5.15L772.03 507l3.41 5.16zm7.93 12.55l-42.83 28.86-3.41-5.16 42.83-28.86 3.41 5.16z" fill="#45aa92"/><path d="M684.67 411.04c-67.52 45.5-158.9 27.51-203.69-40.11s-26.29-159.65 41.23-205.14 158.9-27.51 203.69 40.11 26.3 159.64-41.23 205.14zM529.62 176.96c-61.38 41.36-78.19 125-37.48 186.45s123.76 77.81 185.13 36.46 78.18-125 37.47-186.45-123.76-77.81-185.12-36.46z" fill="#607385"/><path d="M666.06 186.78c-15.73-12.63-36.38-19-56.48-19.26-17.34-.2-36.89 5.51-48.22 19.53-1.71 2.12-.06 6.18 3 5 14.36-5.69 28.72-9.88 44.26-9.49 17.76.45 33.21 8.27 48.58 16.27 7.24 3.74 15.68-6.55 8.86-12.05z" fill="#fff" opacity=".61"/></g></svg>