<svg xmlns="http://www.w3.org/2000/svg" xmlns:xlink="http://www.w3.org/1999/xlink" viewBox="0 0 849.79 652.65"><defs><style>.cls-1,.cls-128,.cls-129,.cls-130,.cls-44{fill:none;}.cls-2{isolation:isolate;}.cls-3{fill:url(#linear-gradient);}.cls-4{fill:url(#linear-gradient-2);}.cls-5{fill:url(#linear-gradient-3);}.cls-6{fill:url(#linear-gradient-4);}.cls-7{fill:url(#linear-gradient-5);}.cls-8{fill:url(#linear-gradient-6);}.cls-9{fill:url(#linear-gradient-7);}.cls-10{fill:url(#linear-gradient-8);}.cls-11{fill:url(#linear-gradient-9);}.cls-12{fill:url(#linear-gradient-10);}.cls-13{fill:url(#linear-gradient-11);}.cls-14{fill:url(#linear-gradient-12);}.cls-15{fill:url(#linear-gradient-13);}.cls-16{fill:url(#linear-gradient-14);}.cls-17{fill:url(#linear-gradient-15);}.cls-18{fill:url(#linear-gradient-16);}.cls-19{fill:url(#linear-gradient-17);}.cls-20{fill:url(#linear-gradient-18);}.cls-21{fill:url(#linear-gradient-19);}.cls-22{fill:url(#linear-gradient-20);}.cls-23{fill:url(#linear-gradient-21);}.cls-24{fill:url(#linear-gradient-22);}.cls-25{fill:url(#linear-gradient-23);}.cls-26{fill:url(#linear-gradient-24);}.cls-27{fill:url(#linear-gradient-25);}.cls-28{fill:url(#linear-gradient-26);}.cls-29{fill:url(#linear-gradient-27);}.cls-30{fill:url(#linear-gradient-28);}.cls-31{fill:url(#linear-gradient-29);}.cls-32{fill:url(#linear-gradient-30);}.cls-33{fill:url(#linear-gradient-31);}.cls-34{fill:url(#linear-gradient-32);}.cls-35{fill:url(#linear-gradient-33);}.cls-36{fill:url(#linear-gradient-34);}.cls-37{fill:url(#linear-gradient-35);}.cls-38{fill:url(#linear-gradient-36);}.cls-39{fill:url(#linear-gradient-37);}.cls-40{fill:url(#linear-gradient-38);}.cls-125,.cls-41,.cls-84{mix-blend-mode:multiply;opacity:0.4;}.cls-41{fill:url(#linear-gradient-39);}.cls-42{fill:url(#linear-gradient-40);}.cls-43{fill:url(#linear-gradient-41);}.cls-128,.cls-44{stroke:#1a2e35;}.cls-128,.cls-129,.cls-130,.cls-44{stroke-linecap:round;stroke-linejoin:round;}.cls-45{clip-path:url(#clip-path);}.cls-46{fill:url(#linear-gradient-42);}.cls-47{fill:url(#linear-gradient-43);}.cls-48{fill:url(#linear-gradient-44);}.cls-49{fill:url(#linear-gradient-45);}.cls-50{fill:url(#linear-gradient-46);}.cls-51{fill:url(#linear-gradient-47);}.cls-52{fill:url(#linear-gradient-48);}.cls-53{fill:url(#linear-gradient-49);}.cls-54{fill:url(#linear-gradient-50);}.cls-55{fill:url(#linear-gradient-51);}.cls-56{fill:url(#linear-gradient-52);}.cls-57{fill:url(#linear-gradient-53);}.cls-58{fill:url(#linear-gradient-54);}.cls-59{fill:url(#linear-gradient-55);}.cls-60{fill:url(#linear-gradient-56);}.cls-61{fill:url(#linear-gradient-57);}.cls-62{fill:url(#linear-gradient-58);}.cls-63{fill:url(#linear-gradient-59);}.cls-64{fill:url(#linear-gradient-60);}.cls-65{fill:url(#linear-gradient-61);}.cls-66{fill:url(#linear-gradient-62);}.cls-67{fill:url(#linear-gradient-63);}.cls-68{fill:url(#linear-gradient-64);}.cls-69{fill:url(#linear-gradient-65);}.cls-70{fill:url(#linear-gradient-66);}.cls-71{fill:url(#linear-gradient-67);}.cls-72{fill:url(#linear-gradient-68);}.cls-73{fill:url(#linear-gradient-69);}.cls-74{fill:url(#linear-gradient-70);}.cls-75{fill:url(#linear-gradient-71);}.cls-76{fill:url(#linear-gradient-72);}.cls-77{fill:url(#linear-gradient-73);}.cls-78{fill:url(#linear-gradient-74);}.cls-79{fill:url(#linear-gradient-75);}.cls-80{fill:url(#linear-gradient-76);}.cls-81{fill:url(#linear-gradient-77);}.cls-82{fill:url(#linear-gradient-78);}.cls-83{fill:url(#linear-gradient-79);}.cls-84{fill:url(#linear-gradient-80);}.cls-85{fill:url(#linear-gradient-81);}.cls-86{fill:url(#linear-gradient-82);}.cls-87{fill:url(#linear-gradient-83);}.cls-88{fill:url(#linear-gradient-84);}.cls-89{fill:url(#linear-gradient-85);}.cls-90{fill:url(#linear-gradient-86);}.cls-91{fill:url(#linear-gradient-87);}.cls-92{fill:url(#linear-gradient-88);}.cls-93{fill:url(#linear-gradient-89);}.cls-94{fill:url(#linear-gradient-90);}.cls-95{fill:url(#linear-gradient-91);}.cls-96{fill:url(#linear-gradient-92);}.cls-97{fill:url(#linear-gradient-93);}.cls-98{fill:url(#linear-gradient-94);}.cls-99{fill:url(#linear-gradient-95);}.cls-100{fill:url(#linear-gradient-96);}.cls-101{fill:url(#linear-gradient-97);}.cls-102{fill:url(#linear-gradient-98);}.cls-103{fill:url(#linear-gradient-99);}.cls-104{fill:url(#linear-gradient-100);}.cls-105{fill:url(#linear-gradient-101);}.cls-106{fill:url(#linear-gradient-102);}.cls-107{fill:url(#linear-gradient-103);}.cls-108{fill:url(#linear-gradient-104);}.cls-109{fill:url(#linear-gradient-105);}.cls-110{fill:url(#linear-gradient-106);}.cls-111{fill:url(#linear-gradient-107);}.cls-112{fill:url(#linear-gradient-108);}.cls-113{fill:url(#linear-gradient-109);}.cls-114{fill:url(#linear-gradient-110);}.cls-115{fill:url(#linear-gradient-111);}.cls-116{fill:url(#linear-gradient-112);}.cls-117{fill:url(#linear-gradient-113);}.cls-118{fill:url(#linear-gradient-114);}.cls-119{fill:url(#linear-gradient-115);}.cls-120{fill:url(#linear-gradient-116);}.cls-121{fill:url(#linear-gradient-117);}.cls-122{fill:url(#linear-gradient-118);}.cls-123{fill:url(#linear-gradient-119);}.cls-124{fill:url(#linear-gradient-120);}.cls-125{fill:url(#linear-gradient-121);}.cls-126{fill:url(#linear-gradient-122);}.cls-127{fill:url(#linear-gradient-123);}.cls-128{stroke-width:1.1px;}.cls-129,.cls-130{stroke:#ff9378;stroke-width:10px;}.cls-130{stroke-dasharray:30.86 30.86;}.cls-131{fill:#ff9378;}.cls-132{fill:#c95943;}.cls-133{fill:#df775d;}.cls-134{fill:#e1e1e1;}.cls-135{opacity:0.18;}.cls-136{fill:#f2f2f2;opacity:0.51;}.cls-137{fill:#56d4b7;}.cls-138{fill:#45aa92;}.cls-139{fill:#607385;}.cls-140{fill:#fff;opacity:0.61;}</style><linearGradient id="linear-gradient" x1="322.9" y1="229.63" x2="636.53" y2="229.63" gradientUnits="userSpaceOnUse"><stop offset="0" stop-color="#aeaeae"/><stop offset="1" stop-color="#bababa"/></linearGradient><linearGradient id="linear-gradient-2" x1="393.12" y1="228.72" x2="635.4" y2="228.72" gradientUnits="userSpaceOnUse"><stop offset="0.18" stop-color="#eeedeb"/><stop offset="0.59" stop-color="#a8a8a8"/></linearGradient><linearGradient id="linear-gradient-3" x1="686.03" y1="217.44" x2="437.32" y2="236.82" gradientUnits="userSpaceOnUse"><stop offset="0.18" stop-color="#eeedeb"/><stop offset="1" stop-color="#d3d3d3"/></linearGradient><linearGradient id="linear-gradient-4" x1="385.1" y1="228.44" x2="631.28" y2="228.44" gradientUnits="userSpaceOnUse"><stop offset="0.18" stop-color="#a8a8a8"/><stop offset="1" stop-color="#c2c2c2"/></linearGradient><linearGradient id="linear-gradient-5" x1="323.28" y1="229.23" x2="632.47" y2="229.23" gradientUnits="userSpaceOnUse"><stop offset="0.18" stop-color="#acacac"/><stop offset="1" stop-color="#c2c2c2"/></linearGradient><linearGradient id="linear-gradient-6" x1="431.63" y1="226.65" x2="660.01" y2="234.36" gradientUnits="userSpaceOnUse"><stop offset="0.18" stop-color="#eeedeb"/><stop offset="0.93" stop-color="#b0b0b0"/></linearGradient><linearGradient id="linear-gradient-7" x1="329.76" y1="227.95" x2="627.93" y2="227.95" gradientUnits="userSpaceOnUse"><stop offset="0.18" stop-color="#b2b2b2"/><stop offset="1" stop-color="#d3d3d3"/></linearGradient><linearGradient id="linear-gradient-8" x1="435.94" y1="228.81" x2="640.53" y2="224.8" gradientUnits="userSpaceOnUse"><stop offset="0.18" stop-color="#eeedeb"/><stop offset="0.95" stop-color="#d3d3d3"/></linearGradient><linearGradient id="linear-gradient-9" x1="382.71" y1="226.36" x2="633.39" y2="226.36" gradientUnits="userSpaceOnUse"><stop offset="0.18" stop-color="#eeedeb"/><stop offset="1" stop-color="#bababa"/></linearGradient><linearGradient id="linear-gradient-10" x1="674.57" y1="217.28" x2="426.75" y2="236.59" gradientUnits="userSpaceOnUse"><stop offset="0" stop-color="#eeedeb"/><stop offset="0.59" stop-color="#bdbdbd"/></linearGradient><linearGradient id="linear-gradient-11" x1="378.54" y1="226.06" x2="620.54" y2="226.06" xlink:href="#linear-gradient-3"/><linearGradient id="linear-gradient-12" x1="670.53" y1="233.76" x2="420.86" y2="223.83" xlink:href="#linear-gradient-3"/><linearGradient id="linear-gradient-13" x1="379.41" y1="226.03" x2="621.43" y2="226.03" gradientUnits="userSpaceOnUse"><stop offset="0.18" stop-color="#eeedeb"/><stop offset="1" stop-color="#b5b5b5"/></linearGradient><linearGradient id="linear-gradient-14" x1="409.95" y1="225.61" x2="585.32" y2="225.61" gradientUnits="userSpaceOnUse"><stop offset="0.18" stop-color="#eeedeb"/><stop offset="0.83" stop-color="#d3d3d3"/></linearGradient><linearGradient id="linear-gradient-15" x1="324.97" y1="225.26" x2="617.59" y2="225.26" xlink:href="#linear-gradient-2"/><linearGradient id="linear-gradient-16" x1="678.79" y1="217.78" x2="533.65" y2="224.06" gradientUnits="userSpaceOnUse"><stop offset="0" stop-color="#eeedeb"/><stop offset="1" stop-color="#b3b3b3"/></linearGradient><linearGradient id="linear-gradient-17" x1="371.76" y1="224.65" x2="613.46" y2="224.65" gradientUnits="userSpaceOnUse"><stop offset="0.18" stop-color="#eeedeb"/><stop offset="0.85" stop-color="#c2c2c2"/></linearGradient><linearGradient id="linear-gradient-18" x1="669.52" y1="213.33" x2="381.74" y2="235.76" gradientUnits="userSpaceOnUse"><stop offset="0.17" stop-color="#b3b3b3"/><stop offset="1" stop-color="#d3d3d3"/></linearGradient><linearGradient id="linear-gradient-19" x1="367.61" y1="223.2" x2="609.5" y2="223.2" gradientUnits="userSpaceOnUse"><stop offset="0.18" stop-color="#eeedeb"/><stop offset="1" stop-color="#c2c2c2"/></linearGradient><linearGradient id="linear-gradient-20" x1="660.64" y1="230.15" x2="411.94" y2="220.26" xlink:href="#linear-gradient-3"/><linearGradient id="linear-gradient-21" x1="-10142.26" y1="217.26" x2="-9882.82" y2="255.08" gradientTransform="matrix(-1, 0, 0, 1, -9930.21, 0)" xlink:href="#linear-gradient-19"/><linearGradient id="linear-gradient-22" x1="-47.76" y1="225.47" x2="213.96" y2="230.06" xlink:href="#linear-gradient-2"/><linearGradient id="linear-gradient-23" x1="-9889.89" y1="217.06" x2="-10138.6" y2="236.44" gradientTransform="matrix(-1, 0, 0, 1, -9930.21, 0)" xlink:href="#linear-gradient-3"/><linearGradient id="linear-gradient-24" x1="-10190.82" y1="228.06" x2="-9944.64" y2="228.06" gradientTransform="matrix(-1, 0, 0, 1, -9930.21, 0)" xlink:href="#linear-gradient-4"/><linearGradient id="linear-gradient-25" x1="3.37" y1="230.52" x2="190.97" y2="228.61" gradientUnits="userSpaceOnUse"><stop offset="0.09" stop-color="#ddd"/><stop offset="1" stop-color="#b5b5b5"/></linearGradient><linearGradient id="linear-gradient-26" x1="-44.65" y1="226.74" x2="252.22" y2="228.46" gradientUnits="userSpaceOnUse"><stop offset="0.18" stop-color="#eeedeb"/><stop offset="1" stop-color="#b0b0b0"/></linearGradient><linearGradient id="linear-gradient-27" x1="-32.07" y1="235.07" x2="256.79" y2="224.18" gradientUnits="userSpaceOnUse"><stop offset="0" stop-color="#eeedeb"/><stop offset="0.13" stop-color="#ecebe9"/><stop offset="1" stop-color="#a8a8a8"/></linearGradient><linearGradient id="linear-gradient-28" x1="-10139.98" y1="228.43" x2="-9935.38" y2="224.42" gradientTransform="matrix(-1, 0, 0, 1, -9930.21, 0)" xlink:href="#linear-gradient-8"/><linearGradient id="linear-gradient-29" x1="-13.3" y1="226.22" x2="236.2" y2="225.84" xlink:href="#linear-gradient-25"/><linearGradient id="linear-gradient-30" x1="5.41" y1="228.93" x2="204.48" y2="224.73" gradientUnits="userSpaceOnUse"><stop offset="0" stop-color="#eeedeb"/><stop offset="0.28" stop-color="#ebeae8"/><stop offset="0.49" stop-color="#e2e1df"/><stop offset="0.68" stop-color="#d2d1d0"/><stop offset="0.84" stop-color="#bdbdbd"/></linearGradient><linearGradient id="linear-gradient-31" x1="-10197.39" y1="225.68" x2="-9955.38" y2="225.68" gradientTransform="matrix(-1, 0, 0, 1, -9930.21, 0)" xlink:href="#linear-gradient-3"/><linearGradient id="linear-gradient-32" x1="-9905.39" y1="233.38" x2="-10155.07" y2="223.45" gradientTransform="matrix(-1, 0, 0, 1, -9930.21, 0)" xlink:href="#linear-gradient-3"/><linearGradient id="linear-gradient-33" x1="12.22" y1="219.36" x2="236.17" y2="237.07" xlink:href="#linear-gradient-25"/><linearGradient id="linear-gradient-34" x1="-10165.96" y1="225.22" x2="-9990.59" y2="225.22" gradientTransform="matrix(-1, 0, 0, 1, -9930.21, 0)" xlink:href="#linear-gradient-14"/><linearGradient id="linear-gradient-35" x1="-13.38" y1="230.1" x2="234.21" y2="223.22" gradientUnits="userSpaceOnUse"><stop offset="0" stop-color="#e1e1e1"/><stop offset="0.34" stop-color="#e3e3e3"/><stop offset="1" stop-color="#a8a8a8"/></linearGradient><linearGradient id="linear-gradient-36" x1="-9897.14" y1="217.4" x2="-10042.27" y2="223.68" gradientTransform="matrix(-1, 0, 0, 1, -9930.21, 0)" xlink:href="#linear-gradient-16"/><linearGradient id="linear-gradient-37" x1="-10.15" y1="221.75" x2="208.78" y2="224.8" gradientUnits="userSpaceOnUse"><stop offset="0" stop-color="#e6e6e6"/><stop offset="0.85" stop-color="#c2c2c2"/></linearGradient><linearGradient id="linear-gradient-38" x1="-9915.29" y1="229.76" x2="-10163.97" y2="219.88" gradientTransform="matrix(-1, 0, 0, 1, -9930.21, 0)" xlink:href="#linear-gradient-3"/><linearGradient id="linear-gradient-39" x1="316.02" y1="464.42" x2="-15.8" y2="409.4" xlink:href="#linear-gradient-27"/><linearGradient id="linear-gradient-40" x1="249.25" y1="220.2" x2="-17.33" y2="233.6" xlink:href="#linear-gradient-18"/><linearGradient id="linear-gradient-41" x1="12.6" y1="223.08" x2="225.73" y2="222.69" xlink:href="#linear-gradient-19"/><clipPath id="clip-path" transform="translate(54.98 26.28)"><path class="cls-1" d="M629.69,384.76c-67.52,45.49-158.89,27.5-203.68-40.1S399.71,185,467.23,139.52s158.9-27.51,203.69,40.1S697.21,339.26,629.69,384.76Z"/></clipPath><linearGradient id="linear-gradient-42" x1="300.29" y1="226.37" x2="645.36" y2="226.37" xlink:href="#linear-gradient"/><linearGradient id="linear-gradient-43" x1="377.55" y1="225.37" x2="644.11" y2="225.37" xlink:href="#linear-gradient-2"/><linearGradient id="linear-gradient-44" x1="699.82" y1="212.96" x2="426.18" y2="234.28" xlink:href="#linear-gradient-3"/><linearGradient id="linear-gradient-45" x1="368.72" y1="225.07" x2="639.58" y2="225.07" xlink:href="#linear-gradient-4"/><linearGradient id="linear-gradient-46" x1="300.7" y1="225.93" x2="640.89" y2="225.93" xlink:href="#linear-gradient-5"/><linearGradient id="linear-gradient-47" x1="419.92" y1="223.09" x2="671.19" y2="231.57" xlink:href="#linear-gradient-6"/><linearGradient id="linear-gradient-48" x1="307.84" y1="224.53" x2="635.89" y2="224.53" xlink:href="#linear-gradient-7"/><linearGradient id="linear-gradient-49" x1="424.66" y1="225.47" x2="649.76" y2="221.05" xlink:href="#linear-gradient-8"/><linearGradient id="linear-gradient-50" x1="366.09" y1="222.77" x2="641.9" y2="222.77" xlink:href="#linear-gradient-9"/><linearGradient id="linear-gradient-51" x1="687.21" y1="212.79" x2="414.55" y2="234.03" xlink:href="#linear-gradient-10"/><linearGradient id="linear-gradient-52" x1="361.5" y1="222.44" x2="627.76" y2="222.44" xlink:href="#linear-gradient-3"/><linearGradient id="linear-gradient-53" x1="682.77" y1="230.91" x2="408.07" y2="219.99" xlink:href="#linear-gradient-3"/><linearGradient id="linear-gradient-54" x1="362.46" y1="222.42" x2="628.75" y2="222.42" xlink:href="#linear-gradient-13"/><linearGradient id="linear-gradient-55" x1="396.07" y1="221.95" x2="589.02" y2="221.95" xlink:href="#linear-gradient-14"/><linearGradient id="linear-gradient-56" x1="302.57" y1="221.57" x2="624.52" y2="221.57" xlink:href="#linear-gradient-2"/><linearGradient id="linear-gradient-57" x1="691.85" y1="213.34" x2="532.17" y2="220.25" xlink:href="#linear-gradient-16"/><linearGradient id="linear-gradient-58" x1="354.05" y1="220.89" x2="619.98" y2="220.89" xlink:href="#linear-gradient-17"/><linearGradient id="linear-gradient-59" x1="681.66" y1="208.44" x2="365.03" y2="233.11" xlink:href="#linear-gradient-18"/><linearGradient id="linear-gradient-60" x1="349.48" y1="219.29" x2="615.62" y2="219.29" xlink:href="#linear-gradient-19"/><linearGradient id="linear-gradient-61" x1="671.89" y1="226.94" x2="398.26" y2="216.06" xlink:href="#linear-gradient-3"/><linearGradient id="linear-gradient-62" x1="-10108.54" y1="212.76" x2="-9823.1" y2="254.38" gradientTransform="matrix(-1, 0, 0, 1, -9930.21, 0)" xlink:href="#linear-gradient-19"/><linearGradient id="linear-gradient-63" x1="-107.52" y1="221.8" x2="180.43" y2="226.84" xlink:href="#linear-gradient-2"/><linearGradient id="linear-gradient-64" x1="-9830.88" y1="212.54" x2="-10104.51" y2="233.86" gradientTransform="matrix(-1, 0, 0, 1, -9930.21, 0)" xlink:href="#linear-gradient-3"/><linearGradient id="linear-gradient-65" x1="-10161.97" y1="224.65" x2="-9891.11" y2="224.65" gradientTransform="matrix(-1, 0, 0, 1, -9930.21, 0)" xlink:href="#linear-gradient-4"/><linearGradient id="linear-gradient-66" x1="-51.27" y1="227.35" x2="155.14" y2="225.25" xlink:href="#linear-gradient-25"/><linearGradient id="linear-gradient-67" x1="-104.1" y1="223.19" x2="222.53" y2="225.08" xlink:href="#linear-gradient-26"/><linearGradient id="linear-gradient-68" x1="-90.26" y1="232.36" x2="227.55" y2="220.37" xlink:href="#linear-gradient-27"/><linearGradient id="linear-gradient-69" x1="-10106.03" y1="225.05" x2="-9880.92" y2="220.64" gradientTransform="matrix(-1, 0, 0, 1, -9930.21, 0)" xlink:href="#linear-gradient-8"/><linearGradient id="linear-gradient-70" x1="-69.61" y1="222.62" x2="204.9" y2="222.2" xlink:href="#linear-gradient-25"/><linearGradient id="linear-gradient-71" x1="-49.02" y1="225.6" x2="170" y2="220.98" xlink:href="#linear-gradient-30"/><linearGradient id="linear-gradient-72" x1="-10169.19" y1="222.03" x2="-9902.93" y2="222.03" gradientTransform="matrix(-1, 0, 0, 1, -9930.21, 0)" xlink:href="#linear-gradient-3"/><linearGradient id="linear-gradient-73" x1="-9847.92" y1="230.49" x2="-10122.63" y2="219.57" gradientTransform="matrix(-1, 0, 0, 1, -9930.21, 0)" xlink:href="#linear-gradient-3"/><linearGradient id="linear-gradient-74" x1="-41.53" y1="215.07" x2="204.87" y2="234.56" xlink:href="#linear-gradient-25"/><linearGradient id="linear-gradient-75" x1="-10134.61" y1="221.52" x2="-9941.66" y2="221.52" gradientTransform="matrix(-1, 0, 0, 1, -9930.21, 0)" xlink:href="#linear-gradient-14"/><linearGradient id="linear-gradient-76" x1="-69.69" y1="226.88" x2="202.71" y2="219.32" xlink:href="#linear-gradient-35"/><linearGradient id="linear-gradient-77" x1="-9838.85" y1="212.92" x2="-9998.53" y2="219.83" gradientTransform="matrix(-1, 0, 0, 1, -9930.21, 0)" xlink:href="#linear-gradient-16"/><linearGradient id="linear-gradient-78" x1="-66.14" y1="217.7" x2="174.73" y2="221.06" xlink:href="#linear-gradient-37"/><linearGradient id="linear-gradient-79" x1="-9858.82" y1="226.52" x2="-10132.43" y2="215.64" gradientTransform="matrix(-1, 0, 0, 1, -9930.21, 0)" xlink:href="#linear-gradient-3"/><linearGradient id="linear-gradient-80" x1="292.72" y1="484.69" x2="-72.35" y2="424.16" xlink:href="#linear-gradient-27"/><linearGradient id="linear-gradient-81" x1="219.26" y1="216" x2="-74.04" y2="230.74" xlink:href="#linear-gradient-18"/><linearGradient id="linear-gradient-82" x1="-41.11" y1="219.16" x2="193.38" y2="218.74" xlink:href="#linear-gradient-19"/><linearGradient id="linear-gradient-83" x1="299.61" y1="226.01" x2="643.46" y2="226.01" xlink:href="#linear-gradient"/><linearGradient id="linear-gradient-84" x1="376.6" y1="225.01" x2="642.21" y2="225.01" xlink:href="#linear-gradient-2"/><linearGradient id="linear-gradient-85" x1="697.72" y1="212.65" x2="425.06" y2="233.89" xlink:href="#linear-gradient-3"/><linearGradient id="linear-gradient-86" x1="367.8" y1="224.71" x2="637.69" y2="224.71" xlink:href="#linear-gradient-4"/><linearGradient id="linear-gradient-87" x1="300.03" y1="225.57" x2="638.99" y2="225.57" xlink:href="#linear-gradient-5"/><linearGradient id="linear-gradient-88" x1="418.81" y1="222.75" x2="669.2" y2="231.19" xlink:href="#linear-gradient-6"/><linearGradient id="linear-gradient-89" x1="307.14" y1="224.17" x2="634.02" y2="224.17" xlink:href="#linear-gradient-7"/><linearGradient id="linear-gradient-90" x1="423.54" y1="225.11" x2="647.84" y2="220.71" xlink:href="#linear-gradient-8"/><linearGradient id="linear-gradient-91" x1="365.18" y1="222.43" x2="640.01" y2="222.43" xlink:href="#linear-gradient-9"/><linearGradient id="linear-gradient-92" x1="685.15" y1="212.48" x2="413.47" y2="233.65" xlink:href="#linear-gradient-10"/><linearGradient id="linear-gradient-93" x1="360.61" y1="222.1" x2="625.92" y2="222.1" xlink:href="#linear-gradient-3"/><linearGradient id="linear-gradient-94" x1="680.73" y1="230.54" x2="407.01" y2="219.66" xlink:href="#linear-gradient-3"/><linearGradient id="linear-gradient-95" x1="361.56" y1="222.07" x2="626.9" y2="222.07" xlink:href="#linear-gradient-13"/><linearGradient id="linear-gradient-96" x1="395.05" y1="221.6" x2="587.31" y2="221.6" xlink:href="#linear-gradient-14"/><linearGradient id="linear-gradient-97" x1="301.88" y1="221.22" x2="622.68" y2="221.22" xlink:href="#linear-gradient-2"/><linearGradient id="linear-gradient-98" x1="689.78" y1="213.02" x2="530.67" y2="219.91" xlink:href="#linear-gradient-16"/><linearGradient id="linear-gradient-99" x1="353.18" y1="220.55" x2="618.16" y2="220.55" xlink:href="#linear-gradient-17"/><linearGradient id="linear-gradient-100" x1="679.62" y1="208.15" x2="364.13" y2="232.73" xlink:href="#linear-gradient-18"/><linearGradient id="linear-gradient-101" x1="348.63" y1="218.96" x2="613.82" y2="218.96" xlink:href="#linear-gradient-19"/><linearGradient id="linear-gradient-102" x1="669.89" y1="226.58" x2="397.23" y2="215.74" xlink:href="#linear-gradient-3"/><linearGradient id="linear-gradient-103" x1="-10108.29" y1="212.45" x2="-9823.88" y2="253.92" gradientTransform="matrix(-1, 0, 0, 1, -9930.21, 0)" xlink:href="#linear-gradient-19"/><linearGradient id="linear-gradient-104" x1="-106.74" y1="221.45" x2="180.18" y2="226.48" xlink:href="#linear-gradient-2"/><linearGradient id="linear-gradient-105" x1="-9831.63" y1="212.23" x2="-10104.29" y2="233.48" gradientTransform="matrix(-1, 0, 0, 1, -9930.21, 0)" xlink:href="#linear-gradient-3"/><linearGradient id="linear-gradient-106" x1="-10161.54" y1="224.29" x2="-9891.64" y2="224.29" gradientTransform="matrix(-1, 0, 0, 1, -9930.21, 0)" xlink:href="#linear-gradient-4"/><linearGradient id="linear-gradient-107" x1="-50.69" y1="226.98" x2="154.98" y2="224.89" xlink:href="#linear-gradient-25"/><linearGradient id="linear-gradient-108" x1="-103.34" y1="222.84" x2="222.13" y2="224.73" xlink:href="#linear-gradient-26"/><linearGradient id="linear-gradient-109" x1="-89.54" y1="231.97" x2="227.14" y2="220.04" xlink:href="#linear-gradient-27"/><linearGradient id="linear-gradient-110" x1="-10105.8" y1="224.69" x2="-9881.49" y2="220.3" gradientTransform="matrix(-1, 0, 0, 1, -9930.21, 0)" xlink:href="#linear-gradient-8"/><linearGradient id="linear-gradient-111" x1="-68.96" y1="222.27" x2="204.57" y2="221.85" xlink:href="#linear-gradient-25"/><linearGradient id="linear-gradient-112" x1="-48.45" y1="225.24" x2="169.79" y2="220.64" xlink:href="#linear-gradient-30"/><linearGradient id="linear-gradient-113" x1="-10168.73" y1="221.68" x2="-9903.42" y2="221.68" gradientTransform="matrix(-1, 0, 0, 1, -9930.21, 0)" xlink:href="#linear-gradient-3"/><linearGradient id="linear-gradient-114" x1="-9848.61" y1="230.12" x2="-10122.34" y2="219.24" gradientTransform="matrix(-1, 0, 0, 1, -9930.21, 0)" xlink:href="#linear-gradient-3"/><linearGradient id="linear-gradient-115" x1="-40.99" y1="214.75" x2="204.54" y2="234.17" xlink:href="#linear-gradient-25"/><linearGradient id="linear-gradient-116" x1="-10134.28" y1="221.18" x2="-9942.02" y2="221.18" gradientTransform="matrix(-1, 0, 0, 1, -9930.21, 0)" xlink:href="#linear-gradient-14"/><linearGradient id="linear-gradient-117" x1="-69.05" y1="226.52" x2="202.39" y2="218.98" xlink:href="#linear-gradient-35"/><linearGradient id="linear-gradient-118" x1="-9839.57" y1="212.6" x2="-9998.68" y2="219.49" gradientTransform="matrix(-1, 0, 0, 1, -9930.21, 0)" xlink:href="#linear-gradient-16"/><linearGradient id="linear-gradient-119" x1="-65.51" y1="217.37" x2="174.5" y2="220.72" xlink:href="#linear-gradient-37"/><linearGradient id="linear-gradient-120" x1="-9859.47" y1="226.16" x2="-10132.1" y2="215.32" gradientTransform="matrix(-1, 0, 0, 1, -9930.21, 0)" xlink:href="#linear-gradient-3"/><linearGradient id="linear-gradient-121" x1="292.07" y1="483.41" x2="-71.7" y2="423.09" xlink:href="#linear-gradient-27"/><linearGradient id="linear-gradient-122" x1="218.87" y1="215.67" x2="-73.38" y2="230.37" xlink:href="#linear-gradient-18"/><linearGradient id="linear-gradient-123" x1="-40.57" y1="218.83" x2="193.08" y2="218.4" xlink:href="#linear-gradient-19"/></defs><g class="cls-2"><g id="Layer_2" data-name="Layer 2"><g id="_9" data-name="9"><image width="325" height="441" transform="translate(377.7 32)" /><image width="325" height="441" transform="translate(54.7 32)" /><path class="cls-3" d="M514.07,18.56c8.5-1.16,122.46-2.51,122.46-2.51V439.58S329.28,443.15,323,443.21,514.07,18.56,514.07,18.56Z" transform="translate(54.98 26.28)"/><path class="cls-4" d="M510.18,16.44c13.24-1.81,13.32,1.28,125.22-1L634.62,440l-241.27,2C387.09,442,510.18,16.44,510.18,16.44Z" transform="translate(54.98 26.28)"/><path class="cls-5" d="M507.54,16.44c8.5-1.16,126.13-1.54,126.13-1.54L632,436.58S397,441.93,390.74,442,507.54,16.44,507.54,16.44Z" transform="translate(54.98 26.28)"/><path class="cls-6" d="M506.83,14.71c8.52-1.17,124.25-.39,124.25-.39l.2,423.3s-239.72,5.15-246,5.2S506.83,14.71,506.83,14.71Z" transform="translate(54.98 26.28)"/><path class="cls-7" d="M507.32,18.74c8.52-1.16,125.15-3.49,125.15-3.49l-.68,423.5s-302.13,4.4-308.36,4.46S507.32,18.74,507.32,18.74Z" transform="translate(54.98 26.28)"/><path class="cls-8" d="M504.31,19.51C512.83,18.35,629.09,14,629.09,14l-.25,425.47s-288.67,3.07-294.91,3.12S504.31,19.51,504.31,19.51Z" transform="translate(54.98 26.28)"/><path class="cls-9" d="M503.45,17.39c8.51-1.16,124.48-4.5,124.48-4.5l-.28,425.54S336.15,443,329.92,443,503.45,17.39,503.45,17.39Z" transform="translate(54.98 26.28)"/><path class="cls-10" d="M500.09,15.85c8.52-1.16,125.18-3.5,125.18-3.5l-.77,425.51s-234.8,3.57-241,3.62S500.09,15.85,500.09,15.85Z" transform="translate(54.98 26.28)"/><path class="cls-11" d="M499.56,15.27c8.51-1.16,125.19-3.5,125.19-3.5l-.83,426.09s-234.74,3-241,3.09S499.56,15.27,499.56,15.27Z" transform="translate(54.98 26.28)"/><path class="cls-12" d="M496.91,15.27c8.51-1.16,125.2-3.49,125.2-3.49l-.48,425.51s-235,3.61-241.3,3.68S496.91,15.27,496.91,15.27Z" transform="translate(54.98 26.28)"/><path class="cls-13" d="M495.33,14.69c8.51-1.17,125.21-3.5,125.21-3.5l-.38,424.32S385,440.87,378.77,440.93,495.33,14.69,495.33,14.69Z" transform="translate(54.98 26.28)"/><path class="cls-14" d="M492.66,14.7c8.51-1.17,125.24-3.51,125.24-3.51l-.34,426s-237.26,5.2-243.51,5.25S492.66,14.7,492.66,14.7Z" transform="translate(54.98 26.28)"/><path class="cls-15" d="M496.21,13.53C504.72,12.37,621.43,10,621.43,10l-.95,427.84s-234.6,4.13-240.84,4.19S496.21,13.53,496.21,13.53Z" transform="translate(54.98 26.28)"/><path class="cls-16" d="M453.45,13.93C462,12.76,578.73,8.79,578.73,8.79L578.32,437s-235.12,5.4-241.38,5.46S453.45,13.93,453.45,13.93Z" transform="translate(54.98 26.28)"/><path class="cls-17" d="M492.32,12.18C500.85,11,617.59,8.65,617.59,8.65l-.38,428.89s-285.83,4.27-292.08,4.33S492.32,12.18,492.32,12.18Z" transform="translate(54.98 26.28)"/><path class="cls-18" d="M489,10.62C497.49,9.44,614.76,8,614.76,8L614,436.09S338.64,443,332.4,443,489,10.62,489,10.62Z" transform="translate(54.98 26.28)"/><path class="cls-19" d="M488.44,10C497,8.86,613.32,8.3,613.32,8.3l.14,427.23S378.26,440.94,372,441,488.44,10,488.44,10Z" transform="translate(54.98 26.28)"/><path class="cls-20" d="M485.78,10c8.53-1.17,125.3-3.52,125.3-3.52l-.21,429s-279.29,6.26-285.53,6.32S485.78,10,485.78,10Z" transform="translate(54.98 26.28)"/><path class="cls-21" d="M484.19,9.44C492.71,8.27,609.5,5.92,609.5,5.92L609,434.42s-234.93,6-241.17,6.05S484.19,9.44,484.19,9.44Z" transform="translate(54.98 26.28)"/><path class="cls-22" d="M481.52,9.44c8.54-1.17,125.34-3.52,125.34-3.52l1,426.49s-236.41,8-242.66,8.08S481.52,9.44,481.52,9.44Z" transform="translate(54.98 26.28)"/><image width="288" height="443" transform="translate(375.7 26)" /><path class="cls-23" d="M135,16.64c-8.5-1.16-126.38-.41-126.38-.41l.85,422.4s236.16,3.44,242.4,3.51S135,16.64,135,16.64Z" transform="translate(54.98 26.28)"/><path class="cls-24" d="M135.53,16.06c-13.24-1.8-13.32,1.27-125.2-1l.77,424.49,241.27,2C258.62,441.64,135.53,16.06,135.53,16.06Z" transform="translate(54.98 26.28)"/><path class="cls-25" d="M138.18,16.06c-8.51-1.16-126.13-1.55-126.13-1.55l1.67,421.68s235,5.37,241.26,5.42S138.18,16.06,138.18,16.06Z" transform="translate(54.98 26.28)"/><path class="cls-26" d="M138.87,14.32c-8.51-1.17-124.24-.38-124.24-.38l-.2,423.29s239.73,5.16,246,5.21S138.87,14.32,138.87,14.32Z" transform="translate(54.98 26.28)"/><path class="cls-27" d="M138.37,18.36c-8.5-1.16-125.12-3.5-125.12-3.5l.68,423.51s302.11,4.4,308.37,4.45S138.37,18.36,138.37,18.36Z" transform="translate(54.98 26.28)"/><path class="cls-28" d="M141.39,19.13C132.89,18,16.63,13.66,16.63,13.66l.23,425.47s288.68,3.06,294.92,3.11S141.39,19.13,141.39,19.13Z" transform="translate(54.98 26.28)"/><path class="cls-29" d="M142.26,17c-8.5-1.16-124.49-4.5-124.49-4.5l.29,425.54s291.5,4.53,297.74,4.58S142.26,17,142.26,17Z" transform="translate(54.98 26.28)"/><path class="cls-30" d="M145.62,15.47C137.11,14.3,20.43,12,20.43,12l.79,425.51s234.79,3.57,241,3.62S145.62,15.47,145.62,15.47Z" transform="translate(54.98 26.28)"/><path class="cls-31" d="M146.14,14.89C137.64,13.73,21,11.39,21,11.39l.84,426.09s234.74,3,241,3.09S146.14,14.89,146.14,14.89Z" transform="translate(54.98 26.28)"/><path class="cls-32" d="M148.8,14.89C140.29,13.73,23.59,11.4,23.59,11.4l.48,425.51s235.06,3.62,241.31,3.68S148.8,14.89,148.8,14.89Z" transform="translate(54.98 26.28)"/><path class="cls-33" d="M150.4,14.31c-8.52-1.17-125.22-3.5-125.22-3.5l.38,424.32S260.7,440.49,267,440.55,150.4,14.31,150.4,14.31Z" transform="translate(54.98 26.28)"/><path class="cls-34" d="M153.05,14.32c-8.51-1.17-125.23-3.51-125.23-3.51l.34,426s237.26,5.19,243.51,5.25S153.05,14.32,153.05,14.32Z" transform="translate(54.98 26.28)"/><path class="cls-35" d="M149.5,13.15C141,12,26.74,9.36,26.74,9.36L25.23,437.48s234.6,4.13,240.84,4.19S149.5,13.15,149.5,13.15Z" transform="translate(54.98 26.28)"/><path class="cls-36" d="M192.26,13.55C183.74,12.38,67,8.4,67,8.4l.41,428.2s235.13,5.39,241.38,5.45S192.26,13.55,192.26,13.55Z" transform="translate(54.98 26.28)"/><path class="cls-37" d="M153.39,11.8C144.87,10.62,28.14,8.27,28.14,8.27l.36,428.89s285.82,4.28,292.07,4.33S153.39,11.8,153.39,11.8Z" transform="translate(54.98 26.28)"/><path class="cls-38" d="M156.75,10.23C148.23,9.06,31,7.64,31,7.64l.8,428.06s275.32,6.88,281.55,6.93S156.75,10.23,156.75,10.23Z" transform="translate(54.98 26.28)"/><path class="cls-39" d="M157.27,9.65C148.75,8.47,32.4,7.93,32.4,7.93l-.11,429.16s235.18,3.46,241.41,3.52S157.27,9.65,157.27,9.65Z" transform="translate(54.98 26.28)"/><path class="cls-40" d="M164.19,9.06C155.66,7.89,38.86,5.54,38.86,5.54L37.84,432s236.39,8,242.63,8.08S164.19,9.06,164.19,9.06Z" transform="translate(54.98 26.28)"/><path class="cls-41" d="M11.1,439.58c3.32-1.15,20.43-3.44,24.24-3.63s286,3.63,286,3.63l-.88,3.74Z" transform="translate(54.98 26.28)"/><path class="cls-42" d="M159.93,9.65C151.41,8.47,34.64,6.12,34.64,6.12l-.45,430s279.94,5.31,286.2,5.36S159.93,9.65,159.93,9.65Z" transform="translate(54.98 26.28)"/><path class="cls-43" d="M161.52,9.06C153,7.89,36.21,5.54,36.21,5.54l-.3,431s235.72,3.51,242,3.57S161.52,9.06,161.52,9.06Z" transform="translate(54.98 26.28)"/><image width="288" height="442" transform="translate(91.7 27)" /><line class="cls-44" x1="278.55" y1="56.93" x2="352.98" y2="56.93"/><line class="cls-44" x1="115.89" y1="56.94" x2="149.68" y2="56.94"/><line class="cls-44" x1="342.64" y1="121.74" x2="353.87" y2="121.74"/><line class="cls-44" x1="291.42" y1="121.74" x2="336.41" y2="121.74"/><line class="cls-44" x1="265.29" y1="121.74" x2="284" y2="121.74"/><line class="cls-44" x1="212.28" y1="121.75" x2="256.97" y2="121.75"/><line class="cls-44" x1="178.13" y1="121.75" x2="204.41" y2="121.75"/><line class="cls-44" x1="116.78" y1="121.75" x2="169.82" y2="121.75"/><line class="cls-44" x1="319.04" y1="145.9" x2="357.36" y2="145.9"/><line class="cls-44" x1="239.6" y1="145.9" x2="310.28" y2="145.9"/><line class="cls-44" x1="185.41" y1="145.9" x2="226.84" y2="145.9"/><line class="cls-44" x1="120.27" y1="145.91" x2="177.84" y2="145.91"/><line class="cls-44" x1="330.77" y1="170.8" x2="355.37" y2="170.8"/><line class="cls-44" x1="263.06" y1="170.81" x2="323.05" y2="170.8"/><line class="cls-44" x1="247.77" y1="170.81" x2="257.42" y2="170.81"/><line class="cls-44" x1="202.19" y1="170.81" x2="240.94" y2="170.81"/><line class="cls-44" x1="131.96" y1="170.81" x2="196.1" y2="170.81"/><line class="cls-44" x1="118.28" y1="170.81" x2="126.32" y2="170.81"/><line class="cls-44" x1="303.3" y1="194.96" x2="354.62" y2="194.96"/><line class="cls-44" x1="217.63" y1="194.97" x2="294.1" y2="194.96"/><line class="cls-44" x1="196.25" y1="194.97" x2="209.61" y2="194.97"/><line class="cls-44" x1="117.53" y1="194.97" x2="185.86" y2="194.97"/><line class="cls-44" x1="244.51" y1="219.12" x2="252.27" y2="219.12"/><line class="cls-44" x1="181.55" y1="219.12" x2="236.79" y2="219.12"/><line class="cls-44" x1="116.79" y1="219.13" x2="172.64" y2="219.12"/><line class="cls-44" x1="319.96" y1="257.32" x2="358.29" y2="257.31"/><line class="cls-44" x1="240.53" y1="257.32" x2="311.2" y2="257.32"/><line class="cls-44" x1="186.34" y1="257.32" x2="227.76" y2="257.32"/><line class="cls-44" x1="121.2" y1="257.32" x2="178.76" y2="257.32"/><line class="cls-44" x1="331.69" y1="282.22" x2="356.3" y2="282.22"/><line class="cls-44" x1="263.99" y1="282.22" x2="323.97" y2="282.22"/><line class="cls-44" x1="248.7" y1="282.22" x2="258.35" y2="282.22"/><line class="cls-44" x1="203.12" y1="282.22" x2="241.87" y2="282.22"/><line class="cls-44" x1="132.89" y1="282.23" x2="197.03" y2="282.22"/><line class="cls-44" x1="119.21" y1="282.23" x2="127.25" y2="282.23"/><line class="cls-44" x1="304.23" y1="306.38" x2="355.55" y2="306.38"/><line class="cls-44" x1="218.56" y1="306.38" x2="295.02" y2="306.38"/><line class="cls-44" x1="197.18" y1="306.38" x2="210.54" y2="306.38"/><line class="cls-44" x1="118.46" y1="306.38" x2="186.78" y2="306.38"/><line class="cls-44" x1="245.43" y1="330.54" x2="253.19" y2="330.54"/><line class="cls-44" x1="182.48" y1="330.54" x2="237.71" y2="330.54"/><line class="cls-44" x1="117.71" y1="330.54" x2="173.57" y2="330.54"/><line class="cls-44" x1="319.96" y1="362.38" x2="358.29" y2="362.38"/><line class="cls-44" x1="240.53" y1="362.39" x2="311.2" y2="362.38"/><line class="cls-44" x1="186.34" y1="362.39" x2="227.76" y2="362.39"/><line class="cls-44" x1="121.2" y1="362.39" x2="178.76" y2="362.39"/><line class="cls-44" x1="331.69" y1="387.29" x2="356.3" y2="387.29"/><line class="cls-44" x1="263.99" y1="387.29" x2="323.97" y2="387.29"/><line class="cls-44" x1="248.7" y1="387.29" x2="258.35" y2="387.29"/><line class="cls-44" x1="203.12" y1="387.29" x2="241.87" y2="387.29"/><line class="cls-44" x1="132.89" y1="387.3" x2="197.03" y2="387.29"/><line class="cls-44" x1="119.21" y1="387.3" x2="127.25" y2="387.3"/><line class="cls-44" x1="304.23" y1="411.45" x2="355.55" y2="411.44"/><line class="cls-44" x1="218.56" y1="411.45" x2="295.02" y2="411.45"/><line class="cls-44" x1="197.18" y1="411.45" x2="210.54" y2="411.45"/><line class="cls-44" x1="118.46" y1="411.45" x2="186.78" y2="411.45"/><line class="cls-44" x1="245.43" y1="435.61" x2="253.19" y2="435.61"/><line class="cls-44" x1="182.48" y1="435.61" x2="237.71" y2="435.61"/><line class="cls-44" x1="117.71" y1="435.61" x2="173.57" y2="435.61"/><line class="cls-44" x1="569.93" y1="56.93" x2="644.36" y2="56.93"/><line class="cls-44" x1="407.27" y1="56.94" x2="441.05" y2="56.94"/><line class="cls-44" x1="634.02" y1="121.74" x2="645.25" y2="121.74"/><line class="cls-44" x1="582.8" y1="121.74" x2="627.79" y2="121.74"/><line class="cls-44" x1="556.67" y1="121.74" x2="575.37" y2="121.74"/><line class="cls-44" x1="503.66" y1="121.75" x2="548.35" y2="121.75"/><line class="cls-44" x1="469.51" y1="121.75" x2="495.79" y2="121.75"/><line class="cls-44" x1="408.16" y1="121.75" x2="461.2" y2="121.75"/><line class="cls-44" x1="610.42" y1="145.9" x2="648.74" y2="145.9"/><line class="cls-44" x1="530.98" y1="145.9" x2="601.66" y2="145.9"/><line class="cls-44" x1="476.79" y1="145.9" x2="518.21" y2="145.9"/><line class="cls-44" x1="411.65" y1="145.91" x2="469.22" y2="145.91"/><line class="cls-44" x1="622.15" y1="170.8" x2="646.75" y2="170.8"/><line class="cls-44" x1="554.44" y1="170.81" x2="614.42" y2="170.8"/><line class="cls-44" x1="539.15" y1="170.81" x2="548.8" y2="170.81"/><line class="cls-44" x1="493.57" y1="170.81" x2="532.32" y2="170.81"/><line class="cls-44" x1="423.34" y1="170.81" x2="487.48" y2="170.81"/><line class="cls-44" x1="409.66" y1="170.81" x2="417.7" y2="170.81"/><line class="cls-44" x1="594.68" y1="194.96" x2="646" y2="194.96"/><line class="cls-44" x1="509.01" y1="194.97" x2="585.47" y2="194.96"/><line class="cls-44" x1="487.63" y1="194.97" x2="500.99" y2="194.97"/><line class="cls-44" x1="408.91" y1="194.97" x2="477.24" y2="194.97"/><line class="cls-44" x1="535.88" y1="219.12" x2="543.64" y2="219.12"/><line class="cls-44" x1="472.93" y1="219.12" x2="528.16" y2="219.12"/><line class="cls-44" x1="408.17" y1="219.13" x2="464.02" y2="219.12"/><line class="cls-44" x1="611.34" y1="257.32" x2="649.66" y2="257.31"/><line class="cls-44" x1="531.91" y1="257.32" x2="602.58" y2="257.32"/><line class="cls-44" x1="477.71" y1="257.32" x2="519.14" y2="257.32"/><line class="cls-44" x1="412.58" y1="257.32" x2="470.14" y2="257.32"/><line class="cls-44" x1="623.07" y1="282.22" x2="647.67" y2="282.22"/><line class="cls-44" x1="555.37" y1="282.22" x2="615.35" y2="282.22"/><line class="cls-44" x1="540.07" y1="282.22" x2="549.73" y2="282.22"/><line class="cls-44" x1="494.49" y1="282.22" x2="533.24" y2="282.22"/><line class="cls-44" x1="424.26" y1="282.23" x2="488.41" y2="282.22"/><line class="cls-44" x1="410.58" y1="282.23" x2="418.62" y2="282.23"/><line class="cls-44" x1="595.6" y1="306.38" x2="646.93" y2="306.38"/><line class="cls-44" x1="509.94" y1="306.38" x2="586.4" y2="306.38"/><line class="cls-44" x1="488.55" y1="306.38" x2="501.92" y2="306.38"/><line class="cls-44" x1="409.84" y1="306.38" x2="478.16" y2="306.38"/><line class="cls-44" x1="536.81" y1="330.54" x2="544.57" y2="330.54"/><line class="cls-44" x1="473.86" y1="330.54" x2="529.09" y2="330.54"/><line class="cls-44" x1="409.09" y1="330.54" x2="464.95" y2="330.54"/><g class="cls-45"><image width="357" height="486" transform="translate(354.7 6)" /><image width="357" height="486" transform="translate(-0.3 6)" /><path class="cls-46" d="M510.62-5.85C520-7.13,645.36-8.62,645.36-8.62v466s-338,3.94-344.91,4S510.62-5.85,510.62-5.85Z" transform="translate(54.98 26.28)"/><path class="cls-47" d="M506.35-8.18c14.56-2,14.65,1.4,137.76-1.07l-.86,467L377.8,460C370.91,460.06,506.35-8.18,506.35-8.18Z" transform="translate(54.98 26.28)"/><path class="cls-48" d="M503.44-8.18c9.34-1.28,138.77-1.7,138.77-1.7l-1.85,463.94S381.79,460,374.93,460,503.44-8.18,503.44-8.18Z" transform="translate(54.98 26.28)"/><path class="cls-49" d="M502.66-10.09c9.37-1.29,136.71-.42,136.71-.42l.21,465.72S375.83,460.87,369,460.93,502.66-10.09,502.66-10.09Z" transform="translate(54.98 26.28)"/><path class="cls-50" d="M503.2-5.65C512.57-6.93,640.89-9.5,640.89-9.5l-.75,466s-332.41,4.84-339.27,4.9S503.2-5.65,503.2-5.65Z" transform="translate(54.98 26.28)"/><path class="cls-51" d="M499.88-4.81c9.38-1.27,137.29-6,137.29-6l-.27,468.11s-317.61,3.39-324.48,3.44S499.88-4.81,499.88-4.81Z" transform="translate(54.98 26.28)"/><path class="cls-52" d="M498.94-7.14c9.36-1.28,137-4.95,137-4.95l-.3,468.19s-320.72,5-327.57,5S498.94-7.14,498.94-7.14Z" transform="translate(54.98 26.28)"/><path class="cls-53" d="M495.25-8.84C504.61-10.11,633-12.69,633-12.69l-.85,468.16s-258.33,3.93-265.2,4S495.25-8.84,495.25-8.84Z" transform="translate(54.98 26.28)"/><path class="cls-54" d="M494.66-9.47C504-10.75,632.4-13.32,632.4-13.32l-.92,468.79s-258.26,3.33-265.14,3.4S494.66-9.47,494.66-9.47Z" transform="translate(54.98 26.28)"/><path class="cls-55" d="M491.74-9.47c9.36-1.28,137.75-3.85,137.75-3.85L629,454.84s-258.62,4-265.49,4.05S491.74-9.47,491.74-9.47Z" transform="translate(54.98 26.28)"/><path class="cls-56" d="M490-10.11C499.36-11.39,627.76-14,627.76-14l-.41,466.85s-258.71,5.9-265.59,6S490-10.11,490-10.11Z" transform="translate(54.98 26.28)"/><path class="cls-57" d="M487.07-10.1C496.43-11.39,624.86-14,624.86-14l-.38,468.69s-261,5.72-267.91,5.79S487.07-10.1,487.07-10.1Z" transform="translate(54.98 26.28)"/><path class="cls-58" d="M491-11.39c9.36-1.28,137.78-3.86,137.78-3.86l-1,470.72s-258.11,4.54-265,4.61S491-11.39,491-11.39Z" transform="translate(54.98 26.28)"/><path class="cls-59" d="M443.93-10.95c9.38-1.29,137.84-5.66,137.84-5.66l-.45,471.11s-258.69,5.93-265.58,6S443.93-10.95,443.93-10.95Z" transform="translate(54.98 26.28)"/><path class="cls-60" d="M486.69-12.87c9.39-1.29,137.83-3.89,137.83-3.89l-.42,471.88s-314.48,4.7-321.35,4.77S486.69-12.87,486.69-12.87Z" transform="translate(54.98 26.28)"/><path class="cls-61" d="M483-14.6c9.38-1.29,138.4-2.85,138.4-2.85l-.87,471s-302.92,7.56-309.79,7.62S483-14.6,483-14.6Z" transform="translate(54.98 26.28)"/><path class="cls-62" d="M482.42-15.24c9.38-1.29,137.4-1.9,137.4-1.9L620,452.91s-258.79,5.95-265.68,6S482.42-15.24,482.42-15.24Z" transform="translate(54.98 26.28)"/><path class="cls-63" d="M479.5-15.24c9.38-1.29,137.86-3.87,137.86-3.87l-.23,472.05S309.84,459.82,303,459.89,479.5-15.24,479.5-15.24Z" transform="translate(54.98 26.28)"/><path class="cls-64" d="M477.75-15.89c9.37-1.29,137.87-3.87,137.87-3.87l-.54,471.45s-258.48,6.59-265.34,6.65S477.75-15.89,477.75-15.89Z" transform="translate(54.98 26.28)"/><path class="cls-65" d="M474.81-15.89c9.39-1.29,137.91-3.87,137.91-3.87l1.12,469.23s-260.1,8.85-267,8.9S474.81-15.89,474.81-15.89Z" transform="translate(54.98 26.28)"/><image width="316" height="489" transform="translate(353.7 -1)" /><path class="cls-66" d="M93.55-8C84.19-9.25-45.51-8.42-45.51-8.42l.95,464.74s259.82,3.79,266.69,3.86S93.55-8,93.55-8Z" transform="translate(54.98 26.28)"/><path class="cls-67" d="M94.14-8.6c-14.57-2-14.65,1.39-137.75-1.07l.84,467,265.46,2.21C229.57,459.64,94.14-8.6,94.14-8.6Z" transform="translate(54.98 26.28)"/><path class="cls-68" d="M97.06-8.6C87.69-9.88-41.72-10.31-41.72-10.31l1.84,464s258.58,5.9,265.44,6S97.06-8.6,97.06-8.6Z" transform="translate(54.98 26.28)"/><path class="cls-69" d="M97.82-10.51c-9.37-1.29-136.7-.43-136.7-.43l-.22,465.72s263.76,5.67,270.62,5.74S97.82-10.51,97.82-10.51Z" transform="translate(54.98 26.28)"/><path class="cls-70" d="M97.27-6.07C87.91-7.35-40.39-9.92-40.39-9.92l.74,466s332.4,4.83,339.28,4.89S97.27-6.07,97.27-6.07Z" transform="translate(54.98 26.28)"/><path class="cls-71" d="M100.59-5.22c-9.35-1.28-137.27-6-137.27-6l.26,468.12s317.62,3.37,324.48,3.43S100.59-5.22,100.59-5.22Z" transform="translate(54.98 26.28)"/><path class="cls-72" d="M101.55-7.56c-9.36-1.27-137-4.95-137-4.95l.31,468.19s320.73,5,327.59,5S101.55-7.56,101.55-7.56Z" transform="translate(54.98 26.28)"/><path class="cls-73" d="M105.25-9.26C95.87-10.54-32.5-13.1-32.5-13.1l.87,468.15s258.32,3.94,265.2,4S105.25-9.26,105.25-9.26Z" transform="translate(54.98 26.28)"/><path class="cls-74" d="M105.82-9.89c-9.36-1.28-137.74-3.85-137.74-3.85L-31,455.05s258.27,3.33,265.15,3.4S105.82-9.89,105.82-9.89Z" transform="translate(54.98 26.28)"/><path class="cls-75" d="M108.74-9.89C99.37-11.17-29-13.73-29-13.73l.53,468.15s258.62,4,265.5,4.05S108.74-9.89,108.74-9.89Z" transform="translate(54.98 26.28)"/><path class="cls-76" d="M110.5-10.53c-9.37-1.29-137.78-3.85-137.78-3.85l.42,466.85s258.72,5.9,265.59,6S110.5-10.53,110.5-10.53Z" transform="translate(54.98 26.28)"/><path class="cls-77" d="M113.42-10.52c-9.37-1.28-137.79-3.86-137.79-3.86l.38,468.7s261,5.71,267.91,5.78S113.42-10.52,113.42-10.52Z" transform="translate(54.98 26.28)"/><path class="cls-78" d="M109.51-11.8C100.14-13.09-25.55-16-25.55-16l-1.67,471s258.12,4.55,265,4.62S109.51-11.8,109.51-11.8Z" transform="translate(54.98 26.28)"/><path class="cls-79" d="M156.56-11.37C147.18-12.66,18.71-17,18.71-17l.45,471.13s258.7,5.92,265.57,6S156.56-11.37,156.56-11.37Z" transform="translate(54.98 26.28)"/><path class="cls-80" d="M113.78-13.29C104.41-14.59-24-17.17-24-17.17l.4,471.87s314.47,4.71,321.35,4.77S113.78-13.29,113.78-13.29Z" transform="translate(54.98 26.28)"/><path class="cls-81" d="M117.48-15c-9.37-1.3-138.39-2.86-138.39-2.86l.87,471s302.92,7.57,309.78,7.62S117.48-15,117.48-15Z" transform="translate(54.98 26.28)"/><path class="cls-82" d="M118.06-15.66c-9.37-1.29-137.39-1.89-137.39-1.89l-.12,472.18s258.76,3.81,265.61,3.87S118.06-15.66,118.06-15.66Z" transform="translate(54.98 26.28)"/><path class="cls-83" d="M125.67-16.3c-9.38-1.3-137.89-3.88-137.89-3.88l-1.12,469.24s260.08,8.84,267,8.89S125.67-16.3,125.67-16.3Z" transform="translate(54.98 26.28)"/><path class="cls-84" d="M-42.77,457.36c3.66-1.26,22.49-3.78,26.68-4s314.65,4,314.65,4l-1,4.12Z" transform="translate(54.98 26.28)"/><path class="cls-85" d="M121-15.66c-9.36-1.29-137.85-3.88-137.85-3.88l-.49,473.11s308,5.84,314.89,5.9S121-15.66,121-15.66Z" transform="translate(54.98 26.28)"/><path class="cls-86" d="M122.73-16.3c-9.36-1.3-137.87-3.88-137.87-3.88L-15.46,454s259.34,3.86,266.22,3.93S122.73-16.3,122.73-16.3Z" transform="translate(54.98 26.28)"/><image width="316" height="486" transform="translate(40.7 1)" /><image width="357" height="484" transform="translate(353.7 7)" /><image width="357" height="484" transform="translate(-0.3 7)" /><path class="cls-87" d="M509.19-5.38c9.32-1.28,134.27-2.76,134.27-2.76V456.18s-336.85,3.92-343.69,4S509.19-5.38,509.19-5.38Z" transform="translate(54.98 26.28)"/><path class="cls-88" d="M504.93-7.71c14.52-2,14.61,1.4,137.28-1.06l-.86,465.37-264.5,2.2C370,458.86,504.93-7.71,504.93-7.71Z" transform="translate(54.98 26.28)"/><path class="cls-89" d="M502-7.71C511.35-9,640.32-9.4,640.32-9.4l-1.85,462.29S380.82,458.76,374,458.82,502-7.71,502-7.71Z" transform="translate(54.98 26.28)"/><path class="cls-90" d="M501.26-9.61C510.6-10.89,637.48-10,637.48-10L637.69,454s-262.8,5.64-269.64,5.7S501.26-9.61,501.26-9.61Z" transform="translate(54.98 26.28)"/><path class="cls-91" d="M501.8-5.18C511.14-6.46,639-9,639-9l-.74,464.29S307,460.1,300.19,460.16,501.8-5.18,501.8-5.18Z" transform="translate(54.98 26.28)"/><path class="cls-92" d="M498.49-4.34c9.35-1.28,136.81-6,136.81-6L635,456.1s-316.47,3.37-323.32,3.43S498.49-4.34,498.49-4.34Z" transform="translate(54.98 26.28)"/><path class="cls-93" d="M497.55-6.67C506.88-7.94,634-11.6,634-11.6l-.3,466.52s-319.58,5-326.41,5S497.55-6.67,497.55-6.67Z" transform="translate(54.98 26.28)"/><path class="cls-94" d="M493.87-8.36c9.34-1.27,137.24-3.84,137.24-3.84l-.85,466.49s-257.41,3.92-264.26,4S493.87-8.36,493.87-8.36Z" transform="translate(54.98 26.28)"/><path class="cls-95" d="M493.29-9c9.33-1.28,137.25-3.84,137.25-3.84l-.92,467.12s-257.34,3.32-264.19,3.39S493.29-9,493.29-9Z" transform="translate(54.98 26.28)"/><path class="cls-96" d="M490.38-9c9.33-1.28,137.26-3.83,137.26-3.83l-.52,466.49s-257.7,4-264.54,4S490.38-9,490.38-9Z" transform="translate(54.98 26.28)"/><path class="cls-97" d="M488.65-9.63c9.33-1.28,137.27-3.83,137.27-3.83l-.42,465.18s-257.78,5.88-264.64,5.94S488.65-9.63,488.65-9.63Z" transform="translate(54.98 26.28)"/><path class="cls-98" d="M485.72-9.62C495.06-10.9,623-13.46,623-13.46l-.37,467s-260.11,5.7-267,5.76S485.72-9.62,485.72-9.62Z" transform="translate(54.98 26.28)"/><path class="cls-99" d="M489.62-10.9c9.32-1.28,137.28-3.85,137.28-3.85l-1,469s-257.19,4.53-264,4.6S489.62-10.9,489.62-10.9Z" transform="translate(54.98 26.28)"/><path class="cls-100" d="M442.74-10.47c9.34-1.28,137.35-5.63,137.35-5.63l-.45,469.42s-257.77,5.92-264.63,6S442.74-10.47,442.74-10.47Z" transform="translate(54.98 26.28)"/><path class="cls-101" d="M485.35-12.38c9.35-1.28,137.33-3.87,137.33-3.87l-.41,470.19s-313.36,4.69-320.21,4.75S485.35-12.38,485.35-12.38Z" transform="translate(54.98 26.28)"/><path class="cls-102" d="M481.68-14.1c9.34-1.29,137.9-2.84,137.9-2.84l-.87,469.29S316.87,459.88,310,460,481.68-14.1,481.68-14.1Z" transform="translate(54.98 26.28)"/><path class="cls-103" d="M481.1-14.74C490.44-16,618-16.63,618-16.63l.16,468.38s-257.86,5.92-264.72,6S481.1-14.74,481.1-14.74Z" transform="translate(54.98 26.28)"/><path class="cls-104" d="M478.18-14.74C487.53-16,615.55-18.6,615.55-18.6l-.23,470.37s-306.19,6.86-313,6.92S478.18-14.74,478.18-14.74Z" transform="translate(54.98 26.28)"/><path class="cls-105" d="M476.44-15.38c9.34-1.29,137.38-3.86,137.38-3.86l-.54,469.76s-257.56,6.57-264.4,6.64S476.44-15.38,476.44-15.38Z" transform="translate(54.98 26.28)"/><path class="cls-106" d="M473.51-15.38c9.36-1.29,137.42-3.86,137.42-3.86l1.12,467.56s-259.17,8.81-266,8.86S473.51-15.38,473.51-15.38Z" transform="translate(54.98 26.28)"/><image width="315" height="486" transform="translate(352.7 0)" /><path class="cls-107" d="M93.61-7.5C84.29-8.77-44.95-7.94-44.95-7.94L-44,455.14s258.9,3.77,265.74,3.85S93.61-7.5,93.61-7.5Z" transform="translate(54.98 26.28)"/><path class="cls-108" d="M94.2-8.13c-14.51-2-14.6,1.4-137.26-1.06l.84,465.37,264.51,2.2C229.15,458.45,94.2-8.13,94.2-8.13Z" transform="translate(54.98 26.28)"/><path class="cls-109" d="M97.11-8.13C87.78-9.4-41.18-9.82-41.18-9.82l1.84,462.29s257.65,5.88,264.49,5.93S97.11-8.13,97.11-8.13Z" transform="translate(54.98 26.28)"/><path class="cls-110" d="M97.86-10c-9.33-1.28-136.21-.42-136.21-.42l-.22,464.06s262.82,5.65,269.66,5.71S97.86-10,97.86-10Z" transform="translate(54.98 26.28)"/><path class="cls-111" d="M97.32-5.61C88-6.87-39.86-9.44-39.86-9.44l.74,464.3S292.1,459.68,299,459.74,97.32-5.61,97.32-5.61Z" transform="translate(54.98 26.28)"/><path class="cls-112" d="M100.63-4.76c-9.33-1.27-136.78-6-136.78-6l.25,466.45S280.59,459,287.42,459.1,100.63-4.76,100.63-4.76Z" transform="translate(54.98 26.28)"/><path class="cls-113" d="M101.58-7.09C92.25-8.35-34.9-12-34.9-12l.31,466.52s319.58,5,326.42,5S101.58-7.09,101.58-7.09Z" transform="translate(54.98 26.28)"/><path class="cls-114" d="M105.27-8.78C95.93-10-32-12.61-32-12.61l.87,466.49s257.4,3.92,264.25,4S105.27-8.78,105.27-8.78Z" transform="translate(54.98 26.28)"/><path class="cls-115" d="M105.83-9.41c-9.32-1.28-137.24-3.84-137.24-3.84l.92,467.13,264.2,3.39C240.55,457.31,105.83-9.41,105.83-9.41Z" transform="translate(54.98 26.28)"/><path class="cls-116" d="M108.75-9.41c-9.34-1.28-137.27-3.83-137.27-3.83L-28,453.25s257.7,4,264.55,4S108.75-9.41,108.75-9.41Z" transform="translate(54.98 26.28)"/><path class="cls-117" d="M110.5-10c-9.34-1.28-137.28-3.83-137.28-3.83l.41,465.18s257.8,5.88,264.64,5.94S110.5-10,110.5-10Z" transform="translate(54.98 26.28)"/><path class="cls-118" d="M113.41-10c-9.33-1.28-137.29-3.85-137.29-3.85l.37,467s260.11,5.7,267,5.76S113.41-10,113.41-10Z" transform="translate(54.98 26.28)"/><path class="cls-119" d="M109.51-11.31c-9.33-1.29-134.58-4.16-134.58-4.16l-1.66,469.35s257.2,4.52,264.05,4.59S109.51-11.31,109.51-11.31Z" transform="translate(54.98 26.28)"/><path class="cls-120" d="M156.39-10.88C147.05-12.16,19-16.53,19-16.53l.45,469.45s257.78,5.9,264.63,6S156.39-10.88,156.39-10.88Z" transform="translate(54.98 26.28)"/><path class="cls-121" d="M113.77-12.8c-9.34-1.29-137.31-3.87-137.31-3.87l.4,470.2s313.35,4.69,320.2,4.75S113.77-12.8,113.77-12.8Z" transform="translate(54.98 26.28)"/><path class="cls-122" d="M117.46-14.51c-9.34-1.29-137.9-2.85-137.9-2.85l.87,469.29s301.84,7.54,308.67,7.6S117.46-14.51,117.46-14.51Z" transform="translate(54.98 26.28)"/><path class="cls-123" d="M118-15.16C108.69-16.45-18.87-17-18.87-17L-19,453.45s257.83,3.8,264.66,3.86S118-15.16,118-15.16Z" transform="translate(54.98 26.28)"/><path class="cls-124" d="M125.61-15.8c-9.34-1.29-137.39-3.86-137.39-3.86L-12.9,447.9s259.16,8.81,266,8.87S125.61-15.8,125.61-15.8Z" transform="translate(54.98 26.28)"/><path class="cls-125" d="M-42.22,456.18c3.65-1.26,22.41-3.77,26.58-4s313.53,4,313.53,4l-1,4.11Z" transform="translate(54.98 26.28)"/><path class="cls-126" d="M121-15.16C111.61-16.45-16.41-19-16.41-19L-16.9,452.4s306.9,5.82,313.76,5.88S121-15.16,121-15.16Z" transform="translate(54.98 26.28)"/><path class="cls-127" d="M122.69-15.8c-9.33-1.29-137.38-3.86-137.38-3.86L-15,452.83s258.41,3.85,265.27,3.91S122.69-15.8,122.69-15.8Z" transform="translate(54.98 26.28)"/><image width="316" height="484" transform="translate(40.7 2)" /><line class="cls-128" x1="245.7" y1="34.15" x2="327.3" y2="34.15"/><line class="cls-128" x1="67.38" y1="34.16" x2="104.41" y2="34.16"/><line class="cls-128" x1="315.97" y1="105.2" x2="328.28" y2="105.2"/><line class="cls-128" x1="259.81" y1="105.2" x2="309.13" y2="105.2"/><line class="cls-128" x1="231.16" y1="105.21" x2="251.67" y2="105.2"/><line class="cls-128" x1="173.05" y1="105.21" x2="222.04" y2="105.21"/><line class="cls-128" x1="135.61" y1="105.21" x2="164.42" y2="105.21"/><line class="cls-128" x1="68.35" y1="105.21" x2="126.5" y2="105.21"/><line class="cls-128" x1="290.09" y1="131.69" x2="332.1" y2="131.69"/><line class="cls-128" x1="203" y1="131.69" x2="280.48" y2="131.69"/><line class="cls-128" x1="143.59" y1="131.69" x2="189" y2="131.69"/><line class="cls-128" x1="72.18" y1="131.69" x2="135.29" y2="131.69"/><line class="cls-128" x1="302.95" y1="158.99" x2="329.92" y2="158.99"/><line class="cls-128" x1="228.72" y1="158.99" x2="294.48" y2="158.99"/><line class="cls-128" x1="211.95" y1="158.99" x2="222.53" y2="158.99"/><line class="cls-128" x1="161.98" y1="158.99" x2="204.47" y2="158.99"/><line class="cls-128" x1="84.99" y1="159" x2="155.31" y2="158.99"/><line class="cls-128" x1="69.99" y1="159" x2="78.81" y2="159"/><line class="cls-128" x1="272.83" y1="185.47" x2="329.1" y2="185.47"/><line class="cls-128" x1="178.91" y1="185.48" x2="262.74" y2="185.47"/><line class="cls-128" x1="155.47" y1="185.48" x2="170.12" y2="185.48"/><line class="cls-128" x1="69.18" y1="185.48" x2="144.08" y2="185.48"/><line class="cls-128" x1="208.38" y1="211.96" x2="216.88" y2="211.96"/><line class="cls-128" x1="139.36" y1="211.96" x2="199.91" y2="211.96"/><line class="cls-128" x1="68.36" y1="211.97" x2="129.59" y2="211.96"/><line class="cls-128" x1="291.1" y1="253.83" x2="333.11" y2="253.83"/><line class="cls-128" x1="204.02" y1="253.84" x2="281.5" y2="253.83"/><line class="cls-128" x1="144.6" y1="253.84" x2="190.02" y2="253.84"/><line class="cls-128" x1="73.19" y1="253.84" x2="136.3" y2="253.84"/><line class="cls-128" x1="303.96" y1="281.14" x2="330.93" y2="281.14"/><line class="cls-128" x1="229.74" y1="281.14" x2="295.5" y2="281.14"/><line class="cls-128" x1="212.97" y1="281.14" x2="223.55" y2="281.14"/><line class="cls-128" x1="163" y1="281.14" x2="205.48" y2="281.14"/><line class="cls-128" x1="86.01" y1="281.14" x2="156.32" y2="281.14"/><line class="cls-128" x1="71.01" y1="281.14" x2="79.82" y2="281.14"/><line class="cls-128" x1="273.85" y1="307.62" x2="330.11" y2="307.62"/><line class="cls-128" x1="179.93" y1="307.62" x2="263.76" y2="307.62"/><line class="cls-128" x1="156.49" y1="307.62" x2="171.14" y2="307.62"/><line class="cls-128" x1="70.19" y1="307.63" x2="145.09" y2="307.63"/><line class="cls-128" x1="209.39" y1="334.11" x2="217.9" y2="334.11"/><line class="cls-128" x1="140.37" y1="334.11" x2="200.93" y2="334.11"/><line class="cls-128" x1="69.37" y1="334.11" x2="130.61" y2="334.11"/><line class="cls-128" x1="291.1" y1="369.02" x2="333.11" y2="369.02"/><line class="cls-128" x1="204.02" y1="369.02" x2="281.5" y2="369.02"/><line class="cls-128" x1="144.6" y1="369.03" x2="190.02" y2="369.02"/><line class="cls-128" x1="73.19" y1="369.03" x2="136.3" y2="369.03"/><line class="cls-128" x1="303.96" y1="396.32" x2="330.93" y2="396.32"/><line class="cls-128" x1="229.74" y1="396.33" x2="295.5" y2="396.32"/><line class="cls-128" x1="212.97" y1="396.33" x2="223.55" y2="396.33"/><line class="cls-128" x1="163" y1="396.33" x2="205.48" y2="396.33"/><line class="cls-128" x1="86.01" y1="396.33" x2="156.32" y2="396.33"/><line class="cls-128" x1="71.01" y1="396.33" x2="79.82" y2="396.33"/><line class="cls-128" x1="273.85" y1="422.81" x2="330.11" y2="422.81"/><line class="cls-128" x1="179.93" y1="422.81" x2="263.76" y2="422.81"/><line class="cls-128" x1="156.49" y1="422.81" x2="171.14" y2="422.81"/><line class="cls-128" x1="70.19" y1="422.82" x2="145.09" y2="422.81"/><line class="cls-128" x1="209.39" y1="449.29" x2="217.9" y2="449.29"/><line class="cls-128" x1="140.37" y1="449.3" x2="200.93" y2="449.29"/><line class="cls-128" x1="69.37" y1="449.3" x2="130.61" y2="449.3"/><line class="cls-128" x1="565.14" y1="34.15" x2="646.74" y2="34.15"/><line class="cls-128" x1="386.82" y1="34.16" x2="423.85" y2="34.16"/><line class="cls-128" x1="635.41" y1="105.2" x2="647.72" y2="105.2"/><line class="cls-128" x1="579.25" y1="105.2" x2="628.57" y2="105.2"/><line class="cls-128" x1="550.6" y1="105.21" x2="571.11" y2="105.2"/><line class="cls-128" x1="492.49" y1="105.21" x2="541.48" y2="105.21"/><line class="cls-128" x1="455.05" y1="105.21" x2="483.86" y2="105.21"/><line class="cls-128" x1="387.79" y1="105.21" x2="445.94" y2="105.21"/><line class="cls-128" x1="609.53" y1="131.69" x2="651.54" y2="131.69"/><line class="cls-128" x1="522.44" y1="131.69" x2="599.92" y2="131.69"/><line class="cls-128" x1="463.03" y1="131.69" x2="508.44" y2="131.69"/><line class="cls-128" x1="391.62" y1="131.69" x2="454.73" y2="131.69"/><line class="cls-128" x1="622.39" y1="158.99" x2="649.36" y2="158.99"/><line class="cls-128" x1="548.16" y1="158.99" x2="613.92" y2="158.99"/><line class="cls-128" x1="531.39" y1="158.99" x2="541.97" y2="158.99"/><line class="cls-128" x1="481.42" y1="158.99" x2="523.91" y2="158.99"/><line class="cls-128" x1="404.43" y1="159" x2="474.75" y2="158.99"/><line class="cls-128" x1="389.43" y1="159" x2="398.25" y2="159"/><line class="cls-128" x1="592.27" y1="185.47" x2="648.54" y2="185.47"/><line class="cls-128" x1="498.35" y1="185.48" x2="582.18" y2="185.47"/><line class="cls-128" x1="474.91" y1="185.48" x2="489.56" y2="185.48"/><line class="cls-128" x1="388.62" y1="185.48" x2="463.52" y2="185.48"/><line class="cls-128" x1="527.82" y1="211.96" x2="536.32" y2="211.96"/><line class="cls-128" x1="458.8" y1="211.96" x2="519.35" y2="211.96"/><line class="cls-128" x1="387.8" y1="211.97" x2="449.03" y2="211.96"/><line class="cls-128" x1="610.54" y1="253.83" x2="652.55" y2="253.83"/><line class="cls-128" x1="523.46" y1="253.84" x2="600.94" y2="253.83"/><line class="cls-128" x1="464.04" y1="253.84" x2="509.46" y2="253.84"/><line class="cls-128" x1="392.63" y1="253.84" x2="455.74" y2="253.84"/><line class="cls-128" x1="623.4" y1="281.14" x2="650.37" y2="281.14"/><line class="cls-128" x1="549.18" y1="281.14" x2="614.94" y2="281.14"/><line class="cls-128" x1="532.41" y1="281.14" x2="542.99" y2="281.14"/><line class="cls-128" x1="482.44" y1="281.14" x2="524.92" y2="281.14"/><line class="cls-128" x1="405.45" y1="281.14" x2="475.77" y2="281.14"/><line class="cls-128" x1="390.45" y1="281.14" x2="399.26" y2="281.14"/><line class="cls-128" x1="593.29" y1="307.62" x2="649.55" y2="307.62"/><line class="cls-128" x1="499.37" y1="307.62" x2="583.2" y2="307.62"/><line class="cls-128" x1="475.93" y1="307.62" x2="490.58" y2="307.62"/><line class="cls-128" x1="389.63" y1="307.63" x2="464.53" y2="307.63"/><line class="cls-128" x1="528.83" y1="334.11" x2="537.34" y2="334.11"/><line class="cls-128" x1="459.81" y1="334.11" x2="520.37" y2="334.11"/><line class="cls-128" x1="388.81" y1="334.11" x2="450.05" y2="334.11"/></g><path class="cls-129" d="M661.33,106.25s5.07,2.33,13.21,7.09" transform="translate(54.98 26.28)"/><path class="cls-130" d="M700.17,130.49c42.46,32,102.57,96.76,87.18,199.5C760.9,506.65,602,585.33,396.61,581.82c-130.46-2.24-193-30.08-221.44-50.36" transform="translate(54.98 26.28)"/><path class="cls-129" d="M163.22,521.7c-7.22-6.84-9.65-11.43-9.65-11.43" transform="translate(54.98 26.28)"/><polygon class="cls-131" points="95.16 439 150.08 543.61 188.99 525.18 218.59 511.17 193.9 496.74 191.84 495.53 95.16 439"/><polygon class="cls-131" points="95.16 439 237.67 500.71 297.56 487.12 95.16 439"/><polygon class="cls-132" points="188.99 525.18 218.59 561.9 218.59 511.17 188.99 525.18"/><polygon class="cls-133" points="95.16 439 218.59 511.17 218.59 561.9 237.67 500.71 95.16 439"/><polygon class="cls-134" points="771.58 518.53 742.29 538.26 661.91 416.92 691.2 397.18 771.58 518.53"/><path class="cls-135" d="M608.14,392.46l64.43,33.31-35.14-53S622.15,385.41,608.14,392.46Z" transform="translate(54.98 26.28)"/><ellipse class="cls-136" cx="548.46" cy="262.14" rx="138.07" ry="136.86" transform="translate(137.86 679.26) rotate(-65.56)"/><path class="cls-135" d="M550.62,381.83a182.78,182.78,0,0,1-71-26.3c-20.81-13-41.45-30.47-54.06-51.9a104.58,104.58,0,0,1-11.87-28.47,136.56,136.56,0,0,0,49.71,91.32c44.23,35.88,104.1,39.34,151.37,13.5C593.94,384.81,571.6,384.85,550.62,381.83Z" transform="translate(54.98 26.28)"/><path class="cls-137" d="M782.65,614.76,770,623.27a18,18,0,0,1-25.12-4.95L662.5,493.93a3,3,0,0,1,.84-4.17l37.86-25.51a3,3,0,0,1,4.13.81l82.41,124.4A18.36,18.36,0,0,1,782.65,614.76Z" transform="translate(54.98 26.28)"/><polygon class="cls-138" points="775.44 512.16 732.61 541.02 729.2 535.87 772.03 507 775.44 512.16"/><polygon class="cls-138" points="783.37 524.71 740.54 553.57 737.13 548.41 779.96 519.55 783.37 524.71"/><path class="cls-139" d="M629.69,384.76c-67.52,45.5-158.9,27.51-203.69-40.11S399.71,185,467.23,139.51,626.13,112,670.92,179.62,697.22,339.26,629.69,384.76ZM474.64,150.68c-61.38,41.36-78.19,125-37.48,186.45s123.76,77.81,185.13,36.46,78.18-125,37.47-186.45S536,109.33,474.64,150.68Z" transform="translate(54.98 26.28)"/><path class="cls-140" d="M611.08,160.5c-15.73-12.63-36.38-19-56.48-19.26-17.34-.2-36.89,5.51-48.22,19.53-1.71,2.12-.06,6.18,3,5,14.36-5.69,28.72-9.88,44.26-9.49,17.76.45,33.21,8.27,48.58,16.27C609.46,176.29,617.9,166,611.08,160.5Z" transform="translate(54.98 26.28)"/></g></g></g></svg>