<svg xmlns="http://www.w3.org/2000/svg" xmlns:xlink="http://www.w3.org/1999/xlink" viewBox="0 0 681.82 540.39"><defs><style>.cls-1{fill:none;}.cls-2{fill:#3e6c98;}.cls-3{isolation:isolate;}.cls-4{clip-path:url(#clip-path);}.cls-5{fill:#20384f;}.cls-6{fill:#376086;}.cls-7{fill:#2e5070;}.cls-8{clip-path:url(#clip-path-2);}.cls-9{fill:#426485;}.cls-10{fill:#45688a;}.cls-11{fill:#476c8f;}.cls-12{fill:#4a7094;}.cls-13{fill:#4c7499;}.cls-14{fill:#4f789e;}.cls-15{fill:#517ca3;}.cls-16{fill:#547fa8;}.cls-17{fill:#5683ad;}.cls-18{fill:#5987b3;}.cls-19{fill:#5b8bb8;}.cls-20{fill:#5e8fbd;}.cls-21{fill:#6193c2;}.cls-22{fill:#6397c7;}.cls-23{fill:#669acc;}.cls-24{fill:#689ed1;}.cls-25{clip-path:url(#clip-path-3);}.cls-26{clip-path:url(#clip-path-4);}.cls-27{clip-path:url(#clip-path-5);}.cls-28{clip-path:url(#clip-path-6);}.cls-29{fill:#6ba2d6;}.cls-30{clip-path:url(#clip-path-7);}.cls-31{clip-path:url(#clip-path-8);}.cls-32{clip-path:url(#clip-path-9);}.cls-33{clip-path:url(#clip-path-10);}.cls-34{clip-path:url(#clip-path-11);}.cls-35{clip-path:url(#clip-path-12);}.cls-36{fill:#284561;}.cls-37{fill:#294764;}.cls-38{fill:#2a4967;}.cls-39{fill:#2b4c6a;}.cls-40{fill:#2d4e6d;}.cls-41{fill:#2f5274;}.cls-42{fill:#305477;}.cls-43{fill:#32567a;}.cls-44{fill:#33597d;}.cls-45{fill:#345b80;}.cls-46{fill:#26435e;}.cls-47{fill:#25415b;}.cls-48{fill:#243f58;}.cls-49{fill:#233c55;}.cls-50{fill:#213a52;}.cls-51{fill:#406180;}.cls-52{clip-path:url(#clip-path-13);}.cls-53{fill:#1f364c;}.cls-54{clip-path:url(#clip-path-14);}.cls-55{fill:#70abe2;}.cls-56{clip-path:url(#clip-path-15);}.cls-57{fill:#828282;}.cls-58{clip-path:url(#clip-path-16);}.cls-59{clip-path:url(#clip-path-17);}.cls-60{clip-path:url(#clip-path-18);}.cls-61{clip-path:url(#clip-path-19);}.cls-62{fill:#919191;}.cls-63{fill:#949494;}.cls-64{fill:#969696;}.cls-65{fill:#999;}.cls-66{fill:#9c9c9c;}.cls-67{fill:#9e9e9e;}.cls-68{fill:#a1a1a1;}.cls-69{fill:#a3a3a3;}.cls-70{fill:#a6a6a6;}.cls-71{fill:#a8a8a8;}.cls-72{fill:#ababab;}.cls-73{clip-path:url(#clip-path-20);}.cls-74{clip-path:url(#clip-path-21);}.cls-75{clip-path:url(#clip-path-22);}.cls-76{clip-path:url(#clip-path-23);}.cls-77{clip-path:url(#clip-path-24);}.cls-78{clip-path:url(#clip-path-25);}.cls-79{clip-path:url(#clip-path-26);}.cls-80{clip-path:url(#clip-path-27);}.cls-81{clip-path:url(#clip-path-28);}.cls-82{clip-path:url(#clip-path-29);}.cls-83{clip-path:url(#clip-path-30);}.cls-84{clip-path:url(#clip-path-31);}.cls-85{clip-path:url(#clip-path-32);}.cls-86{clip-path:url(#clip-path-33);}.cls-87{clip-path:url(#clip-path-34);}.cls-88{clip-path:url(#clip-path-35);}.cls-89{clip-path:url(#clip-path-36);}.cls-90{clip-path:url(#clip-path-37);}.cls-91{clip-path:url(#clip-path-38);}.cls-92{fill:#4b5a68;}.cls-93{fill:#4e5d6c;}.cls-94{fill:#516170;}.cls-95{fill:#546474;}.cls-96{fill:#576878;}.cls-97{fill:#5a6b7c;}.cls-98{fill:#5d6f80;}.cls-99{fill:#607284;}.cls-100{fill:#637688;}.cls-101{fill:#66798c;}.cls-102{fill:#687d90;}.cls-103{fill:#6b8094;}.cls-104{fill:#6e8398;}.cls-105{fill:#71879c;}.cls-106{fill:#748aa0;}.cls-107{fill:#778ea4;}.cls-108{fill:#7a91a8;}.cls-109{clip-path:url(#clip-path-39);}.cls-110{clip-path:url(#clip-path-40);}.cls-111{clip-path:url(#clip-path-41);}.cls-112{clip-path:url(#clip-path-42);}.cls-113{clip-path:url(#clip-path-43);}.cls-114{clip-path:url(#clip-path-44);}.cls-115{fill:#b1b1b1;}.cls-116{fill:gray;}.cls-117{clip-path:url(#clip-path-45);}.cls-118{fill:#8f8f8f;}.cls-119{fill:#8c8c8c;}.cls-120{fill:#8a8a8a;}.cls-121{fill:#878787;}.cls-122{fill:#858585;}.cls-123,.cls-130{fill:#7fc1ff;}.cls-124{clip-path:url(#clip-path-46);}.cls-125{clip-path:url(#clip-path-47);}.cls-126{clip-path:url(#clip-path-48);}.cls-127{fill:#5185b7;}.cls-128{clip-path:url(#clip-path-49);}.cls-129{fill:#c4eaff;}.cls-130{opacity:0.5;}.cls-131{fill:#347f6e;}.cls-132{fill:#56d4b7;}.cls-133{fill:#4bc5a9;}.cls-134{fill:#ffd453;}.cls-135{fill:#e6b147;}.cls-136{fill:#ffe39b;}.cls-137{fill:#df775d;}.cls-138{fill:#ff9378;}.cls-139{clip-path:url(#clip-path-50);}.cls-140{fill:#020202;opacity:0.3;}.cls-141{clip-path:url(#clip-path-51);}</style><clipPath id="clip-path"><path class="cls-1" d="M511.05,71.1l-6.48-4.34a1.53,1.53,0,0,0,.48.23l6.48,4.33A2.09,2.09,0,0,1,511.05,71.1Z"/></clipPath><clipPath id="clip-path-2"><path class="cls-1" d="M527.19,35.55l6.48,4.33c-4.23,0-8.41,3.83-9.35,8.56l-6.48-4.33C518.78,39.38,523,35.55,527.19,35.55Z"/></clipPath><clipPath id="clip-path-3"><path class="cls-1" d="M504.6,103.66l-6.48-4.33a1.87,1.87,0,0,0,.47.23l6.48,4.33A1.87,1.87,0,0,1,504.6,103.66Z"/></clipPath><clipPath id="clip-path-4"><path class="cls-1" d="M590.24,30.63h0l-6.48-4.33h0l6.48,4.34Z"/></clipPath><clipPath id="clip-path-5"><path class="cls-1" d="M592.85,28.22a2.92,2.92,0,0,0-2.61,2.41l-6.48-4.34a2.92,2.92,0,0,1,2.61-2.4Z"/></clipPath><clipPath id="clip-path-6"><path class="cls-1" d="M590.24,30.63a2,2,0,0,0,.72,2.12l-6.48-4.34a2,2,0,0,1-.72-2.11Z"/></clipPath><clipPath id="clip-path-7"><path class="cls-1" d="M591,32.75l-6.48-4.34a1.63,1.63,0,0,0,.94.28L591.9,33A1.73,1.73,0,0,1,591,32.75Z"/></clipPath><clipPath id="clip-path-8"><path class="cls-1" d="M599.68,21.54h0l-6.48-4.33h0l6.48,4.33Z"/></clipPath><clipPath id="clip-path-9"><path class="cls-1" d="M603.24,18.28a4,4,0,0,0-3.56,3.26l-6.48-4.33A4,4,0,0,1,596.76,14Z"/></clipPath><clipPath id="clip-path-10"><path class="cls-1" d="M604.51,18.65a2.31,2.31,0,0,0-1.27-.37L596.76,14a2.26,2.26,0,0,1,1.27.37Z"/></clipPath><clipPath id="clip-path-11"><path class="cls-1" d="M599.68,21.54a2.72,2.72,0,0,0,1,2.88l-6.48-4.33a2.73,2.73,0,0,1-1-2.88Z"/></clipPath><clipPath id="clip-path-12"><path class="cls-1" d="M598,14.32l6.48,4.33a2.73,2.73,0,0,1,1,2.89A4,4,0,0,1,602,24.8a2.31,2.31,0,0,1-1.29-.38l-6.48-4.33a2.27,2.27,0,0,0,1.28.37A4,4,0,0,0,599,17.21,2.73,2.73,0,0,0,598,14.32Z"/></clipPath><clipPath id="clip-path-13"><path class="cls-1" d="M610.61,28.5a1.63,1.63,0,0,0-.94-.28l-6.48-4.33a1.63,1.63,0,0,1,.94.28Z"/></clipPath><clipPath id="clip-path-14"><path class="cls-1" d="M604.13,24.17l6.48,4.33a2,2,0,0,1,.73,2.13A2.93,2.93,0,0,1,608.72,33l-6.48-4.33a2.93,2.93,0,0,0,2.62-2.4A2,2,0,0,0,604.13,24.17Z"/></clipPath><clipPath id="clip-path-15"><path class="cls-1" d="M471.41,309.58l6.49,4.34-.66-.19-6.48-4.34A5.61,5.61,0,0,0,471.41,309.58Z"/></clipPath><clipPath id="clip-path-16"><path class="cls-1" d="M472.11,309.7l6.48,4.33-.69-.11-6.49-4.34C471.57,309.62,471.72,309.64,472.11,309.7Z"/></clipPath><clipPath id="clip-path-17"><path class="cls-1" d="M472.84,309.74l6.48,4.33a5.85,5.85,0,0,1-.73,0l-6.48-4.33A5.85,5.85,0,0,0,472.84,309.74Z"/></clipPath><clipPath id="clip-path-18"><path class="cls-1" d="M667.91,40.86a6,6,0,0,0-3.36-1l-6.49-4.33a6,6,0,0,1,3.37,1Z"/></clipPath><clipPath id="clip-path-19"><path class="cls-1" d="M661.42,36.53l6.49,4.33c2.14,1.43,3.24,4.29,2.58,7.58L664,44.11C664.66,40.82,663.57,38,661.42,36.53Z"/></clipPath><clipPath id="clip-path-20"><path class="cls-1" d="M541.67,322.65c-6,0-11.93,5.45-13.26,12.16l-6.48-4.33c1.33-6.72,7.27-12.16,13.26-12.16Z"/></clipPath><clipPath id="clip-path-21"><path class="cls-1" d="M534,333.59a9.59,9.59,0,0,0-.39,1.29l-6.48-4.34a7.9,7.9,0,0,1,.39-1.28Z"/></clipPath><clipPath id="clip-path-22"><path class="cls-1" d="M533.59,334.88s0,.07,0,.11l-6.48-4.34a.52.52,0,0,1,0-.11Z"/></clipPath><clipPath id="clip-path-23"><path class="cls-1" d="M533.57,335c0,.2-.07.4-.1.61L527,331.26c0-.2.06-.4.1-.61Z"/></clipPath><clipPath id="clip-path-24"><path class="cls-1" d="M533.47,335.6v0L527,331.31v-.05Z"/></clipPath><clipPath id="clip-path-25"><path class="cls-1" d="M538.17,329.05a8.24,8.24,0,0,0-3.53,3.23l-6.49-4.34a8.35,8.35,0,0,1,3.54-3.22Z"/></clipPath><clipPath id="clip-path-26"><path class="cls-1" d="M533.43,336.38,527,332.05a6.23,6.23,0,0,1,0-.74l6.48,4.33A6.23,6.23,0,0,0,533.43,336.38Z"/></clipPath><clipPath id="clip-path-27"><path class="cls-1" d="M539.35,328.63a6.39,6.39,0,0,0-1.18.42l-6.48-4.33a6.39,6.39,0,0,1,1.18-.42Z"/></clipPath><clipPath id="clip-path-28"><path class="cls-1" d="M539.42,328.62h-.07l-6.48-4.33h.07Z"/></clipPath><clipPath id="clip-path-29"><path class="cls-1" d="M539.42,328.62l-6.48-4.33a5.28,5.28,0,0,1,1.25-.15l6.49,4.33A5.3,5.3,0,0,0,539.42,328.62Z"/></clipPath><clipPath id="clip-path-30"><path class="cls-1" d="M541.21,328.5a4.58,4.58,0,0,0-.53,0l-6.49-4.33a4.75,4.75,0,0,1,.54,0Z"/></clipPath><clipPath id="clip-path-31"><path class="cls-1" d="M541.88,328.62a3.76,3.76,0,0,0-.67-.12l-6.48-4.33a3.5,3.5,0,0,1,.66.12Z"/></clipPath><clipPath id="clip-path-32"><path class="cls-1" d="M537.85,325.93l-2.46-1.64h.05l2,1.32,1.26.84,3.24,2.17h0Z"/></clipPath><clipPath id="clip-path-33"><path class="cls-1" d="M541.94,328.63h0l-.75-.51-.4-.26-5.33-3.56h0Z"/></clipPath><clipPath id="clip-path-34"><path class="cls-1" d="M546.45,324.05a8.41,8.41,0,0,0-4.78-1.4l-6.48-4.33a8.48,8.48,0,0,1,4.78,1.39Z"/></clipPath><clipPath id="clip-path-35"><path class="cls-1" d="M528.41,334.81c-.93,4.68.62,8.74,3.67,10.78l-6.48-4.33c-3.05-2-4.6-6.1-3.67-10.78Z"/></clipPath><clipPath id="clip-path-36"><path class="cls-1" d="M543.22,329.22a4.28,4.28,0,0,0-1.28-.59l-6.48-4.33a4.52,4.52,0,0,1,1.28.58Z"/></clipPath><clipPath id="clip-path-37"><path class="cls-1" d="M533.43,336.38a5.08,5.08,0,0,0,2.11,4.37l-6.48-4.33a5.08,5.08,0,0,1-2.11-4.37Z"/></clipPath><clipPath id="clip-path-38"><path class="cls-1" d="M536.34,325.49l6.48,4.33a4.1,4.1,0,0,0-2.28-.66c-2.87,0-5.72,2.61-6.35,5.83a4.85,4.85,0,0,0,1.76,5.15l-6.48-4.33a4.87,4.87,0,0,1-1.76-5.16c.63-3.21,3.48-5.83,6.35-5.83A4,4,0,0,1,536.34,325.49Z"/></clipPath><clipPath id="clip-path-39"><path class="cls-1" d="M538.23,340.81a4,4,0,0,1-2.28-.67l-6.48-4.33a4,4,0,0,0,2.28.67Z"/></clipPath><clipPath id="clip-path-40"><path class="cls-1" d="M542.82,329.82a4.9,4.9,0,0,1,1.76,5.17l-6.48-4.34a4.89,4.89,0,0,0-1.76-5.16Z"/></clipPath><clipPath id="clip-path-41"><path class="cls-1" d="M544.58,335c-.64,3.21-3.48,5.82-6.35,5.82l-6.48-4.33c2.86,0,5.71-2.61,6.35-5.83h0Z"/></clipPath><clipPath id="clip-path-42"><path class="cls-1" d="M536.74,324.88l6.48,4.34a5.43,5.43,0,0,1,2,5.77c-.71,3.58-3.9,6.51-7.1,6.51a4.55,4.55,0,0,1-2.54-.74l-6.49-4.34a4.53,4.53,0,0,0,2.55.75c3.2,0,6.39-2.93,7.1-6.52A5.46,5.46,0,0,0,536.74,324.88Z"/></clipPath><clipPath id="clip-path-43"><path class="cls-1" d="M540,319.71l6.48,4.33c3,2,4.6,6.1,3.67,10.77-1.33,6.72-7.27,12.17-13.27,12.17a8.48,8.48,0,0,1-4.77-1.39l-6.48-4.33a8.48,8.48,0,0,0,4.77,1.39c6,0,11.94-5.45,13.27-12.17C544.57,325.81,543,321.75,540,319.71Z"/></clipPath><clipPath id="clip-path-44"><path class="cls-1" d="M629.74,204.46l6.48,4.33a5.21,5.21,0,0,1,2,2.61l-6.48-4.33A5.21,5.21,0,0,0,629.74,204.46Z"/></clipPath><clipPath id="clip-path-45"><path class="cls-1" d="M613.05,301.18l6.48,4.33c-.93,4.73-5.12,8.56-9.34,8.56l-6.48-4.33C607.93,309.74,612.12,305.9,613.05,301.18Z"/></clipPath><clipPath id="clip-path-46"><path class="cls-1" d="M667.68,8.78l6.48,4.33c5.93,4,8.94,11.86,7.14,21l-6.49-4.34C676.62,20.63,673.6,12.74,667.68,8.78Z"/></clipPath><clipPath id="clip-path-47"><path class="cls-1" d="M615.77,327.57l6.48,4.33c-2.59,13.06-14.14,23.65-25.8,23.65L590,351.22C601.63,351.22,613.18,340.63,615.77,327.57Z"/></clipPath><clipPath id="clip-path-48"><path class="cls-1" d="M666.48,85.22,673,89.55a2.29,2.29,0,0,1,.82,2.42l-6.48-4.33A2.28,2.28,0,0,0,666.48,85.22Z"/></clipPath><clipPath id="clip-path-49"><path class="cls-1" d="M662.05,133.13l-6.48-4.33a1.9,1.9,0,0,0,1.07.31,3.33,3.33,0,0,0,3-2.73l6.48,4.33a3.34,3.34,0,0,1-3,2.74A1.9,1.9,0,0,1,662.05,133.13Z"/></clipPath><clipPath id="clip-path-50"><path class="cls-1" d="M109.85,307.29l69.92,37.6,51.74-41.57s-41.39-75.91-101.12-61.2S109.85,307.29,109.85,307.29Z"/></clipPath><clipPath id="clip-path-51"><polygon class="cls-1" points="587.58 119.71 568.15 220.59 507.82 208.97 530.31 92.17 590.78 102.04 587.58 119.71"/></clipPath></defs><g id="Layer_2" data-name="Layer 2"><g id="_9" data-name="9"><path class="cls-2" d="M452.87,335.6s3.46,19.95,23.43,19.95"/><g class="cls-3"><g class="cls-4"><g class="cls-3"><path class="cls-5" d="M505.05,67l6.48,4.33a2.09,2.09,0,0,1-.48-.22l-6.48-4.34a1.53,1.53,0,0,0,.48.23"/></g></g></g><polygon class="cls-6" points="510.11 41.45 516.59 45.79 511.53 71.32 505.05 66.99 510.11 41.45"/><path class="cls-7" d="M510.11,41.46,505.05,67a2.17,2.17,0,0,1-1.31-2.65l4-20.23A3.5,3.5,0,0,1,510.11,41.46Z"/><g class="cls-3"><g class="cls-8"><g class="cls-3"><path class="cls-9" d="M527.19,35.55l6.48,4.33a7.78,7.78,0,0,0-3.28.75l-6.48-4.34a7.88,7.88,0,0,1,3.28-.74"/><path class="cls-10" d="M523.91,36.29l6.48,4.34a6.92,6.92,0,0,0-.81.42l-6.49-4.33a9.16,9.16,0,0,1,.82-.43"/><path class="cls-11" d="M523.09,36.72l6.49,4.33c-.22.12-.43.26-.64.4l-6.48-4.33a7.33,7.33,0,0,1,.63-.4"/><path class="cls-12" d="M522.46,37.12l6.48,4.33a6.55,6.55,0,0,0-.53.39l-6.48-4.33a6.55,6.55,0,0,1,.53-.39"/><path class="cls-13" d="M521.93,37.51l6.48,4.33-.47.39-6.49-4.33.48-.39"/><path class="cls-14" d="M521.45,37.9l6.49,4.33-.43.4L521,38.3l.43-.4"/><path class="cls-15" d="M521,38.3l6.49,4.33c-.14.13-.27.27-.4.41l-6.48-4.33.39-.41"/><path class="cls-16" d="M520.63,38.71,527.11,43l-.37.42-6.48-4.33a5,5,0,0,1,.37-.42"/><path class="cls-17" d="M520.26,39.13l6.48,4.33c-.12.14-.24.29-.35.44l-6.48-4.34.35-.43"/><path class="cls-18" d="M519.91,39.56l6.48,4.34-.33.45L519.58,40c.1-.15.21-.31.33-.46"/><path class="cls-19" d="M519.58,40l6.48,4.33-.32.49-6.48-4.33.32-.49"/><path class="cls-20" d="M519.26,40.51l6.48,4.33-.3.53L519,41a5.54,5.54,0,0,1,.3-.53"/><path class="cls-21" d="M519,41l6.48,4.33-.3.58-6.48-4.33A6.36,6.36,0,0,1,519,41"/><path class="cls-22" d="M518.66,41.62,525.14,46c-.1.22-.19.44-.28.67l-6.49-4.33c.09-.23.19-.45.29-.67"/><path class="cls-23" d="M518.37,42.29l6.49,4.33c-.11.27-.2.55-.29.83l-6.48-4.34c.08-.28.18-.55.28-.82"/><path class="cls-24" d="M518.09,43.11l6.48,4.34c-.1.32-.18.66-.25,1l-6.48-4.33c.07-.34.15-.67.25-1"/></g></g></g><g class="cls-3"><g class="cls-25"><g class="cls-3"><path class="cls-5" d="M498.59,99.56l6.48,4.33a1.87,1.87,0,0,1-.47-.23l-6.48-4.33a1.87,1.87,0,0,0,.47.23"/></g></g></g><polygon class="cls-6" points="503.65 74.02 510.14 78.35 505.07 103.89 498.59 99.56 503.65 74.02"/><path class="cls-7" d="M503.65,74l-5.06,25.54a2.18,2.18,0,0,1-1.3-2.66l4-20.22A3.49,3.49,0,0,1,503.65,74Z"/><g class="cls-3"><g class="cls-26"><g class="cls-3"><path class="cls-24" d="M583.83,26l6.48,4.34a2.29,2.29,0,0,0-.07.28s0,.05,0,.07l-6.49-4.33s0-.05,0-.08,0-.18.07-.28"/></g></g></g><g class="cls-3"><g class="cls-27"><g class="cls-3"><path class="cls-9" d="M586.37,23.89l6.48,4.33a2.24,2.24,0,0,0-.91.21l-6.48-4.33a2.24,2.24,0,0,1,.91-.21"/><path class="cls-10" d="M585.46,24.1l6.48,4.33-.23.12-6.48-4.33.23-.12"/><path class="cls-11" d="M585.23,24.22l6.48,4.33-.17.11-6.49-4.33.18-.11"/><path class="cls-12" d="M585.05,24.33l6.49,4.33-.15.11-6.48-4.33.14-.11"/><path class="cls-13" d="M584.91,24.44l6.48,4.33-.13.11-6.49-4.33.14-.11"/><path class="cls-14" d="M584.77,24.55l6.49,4.33a.65.65,0,0,0-.12.11l-6.49-4.33.12-.11"/><path class="cls-15" d="M584.65,24.66,591.14,29l-.12.12-6.48-4.34a.57.57,0,0,0,.11-.11"/><path class="cls-16" d="M584.54,24.77,591,29.11l-.1.11-6.48-4.33.1-.12"/><path class="cls-17" d="M584.44,24.89l6.48,4.33a1.47,1.47,0,0,0-.1.13L584.34,25l.1-.12"/><path class="cls-18" d="M584.34,25l6.48,4.34-.09.12-6.48-4.33.09-.13"/><path class="cls-19" d="M584.25,25.14l6.48,4.33-.09.14-6.48-4.33.09-.14"/><path class="cls-20" d="M584.16,25.28l6.48,4.33a1.09,1.09,0,0,0-.08.15l-6.49-4.33.09-.15"/><path class="cls-21" d="M584.07,25.43l6.49,4.33-.09.16L584,25.59c0-.05,0-.11.08-.16"/><path class="cls-22" d="M584,25.59l6.48,4.33c0,.07-.05.13-.08.19l-6.48-4.33c0-.06.05-.13.08-.19"/><path class="cls-23" d="M583.91,25.78l6.48,4.33c0,.08,0,.16-.08.24L583.83,26a2.09,2.09,0,0,1,.08-.23"/><path class="cls-24" d="M583.83,26l6.48,4.34a2.29,2.29,0,0,0-.07.28s0,.05,0,.07l-6.49-4.33s0-.05,0-.08,0-.18.07-.28"/></g></g></g><g class="cls-3"><g class="cls-28"><g class="cls-3"><path class="cls-24" d="M583.83,26l6.48,4.34a2.29,2.29,0,0,0-.07.28s0,.05,0,.07l-6.49-4.33s0-.05,0-.08,0-.18.07-.28"/><path class="cls-29" d="M583.74,26.37l6.49,4.33a2.64,2.64,0,0,0,0,.68l-6.48-4.33a2.62,2.62,0,0,1,0-.68"/><path class="cls-24" d="M583.72,27.05l6.48,4.33a3.06,3.06,0,0,0,0,.32l-6.48-4.33a3.06,3.06,0,0,1,0-.32"/><path class="cls-23" d="M583.77,27.37l6.48,4.33a1.18,1.18,0,0,0,.07.2l-6.49-4.33-.06-.2"/><path class="cls-22" d="M583.83,27.57l6.49,4.33.06.16-6.48-4.33c0-.05,0-.1-.07-.16"/><path class="cls-21" d="M583.9,27.73l6.48,4.33.07.14L584,27.87c0-.05-.05-.09-.07-.14"/><path class="cls-20" d="M584,27.87l6.48,4.33.08.12L584.05,28a1,1,0,0,1-.08-.11"/><path class="cls-19" d="M584.05,28l6.48,4.34.08.1-6.48-4.33a.44.44,0,0,1-.08-.11"/><path class="cls-18" d="M584.13,28.09l6.48,4.33.08.1-6.48-4.33-.08-.1"/><path class="cls-17" d="M584.21,28.19l6.48,4.33.09.08-6.48-4.33-.09-.08"/><path class="cls-16" d="M584.3,28.27l6.48,4.33a.39.39,0,0,0,.1.08l-6.49-4.33-.09-.08"/><path class="cls-15" d="M584.39,28.35l6.49,4.33a.27.27,0,0,0,.08.07l-6.48-4.34-.09-.06"/></g></g></g><g class="cls-3"><g class="cls-30"><g class="cls-3"><path class="cls-5" d="M585.42,28.69,591.9,33a1.73,1.73,0,0,1-.94-.27l-6.48-4.34a1.63,1.63,0,0,0,.94.28"/></g></g></g><g class="cls-3"><g class="cls-31"><g class="cls-3"><path class="cls-24" d="M593.29,16.83l6.49,4.33c0,.13-.07.25-.1.38s0,.07,0,.11l-6.48-4.34a.44.44,0,0,1,0-.1c0-.13.06-.25.09-.38"/></g></g></g><g class="cls-3"><g class="cls-32"><g class="cls-3"><path class="cls-9" d="M596.76,14l6.48,4.33a2.9,2.9,0,0,0-1.25.29l-6.48-4.34a3,3,0,0,1,1.25-.28"/><path class="cls-10" d="M595.51,14.23,602,18.57a2.29,2.29,0,0,0-.31.16l-6.48-4.34.31-.16"/><path class="cls-11" d="M595.2,14.39l6.48,4.34a1.58,1.58,0,0,0-.24.15L595,14.55l.24-.16"/><path class="cls-12" d="M595,14.55l6.48,4.33-.2.15-6.49-4.33a1.37,1.37,0,0,1,.21-.15"/><path class="cls-13" d="M594.75,14.7,601.24,19l-.18.15-6.49-4.33a1.19,1.19,0,0,1,.18-.15"/><path class="cls-14" d="M594.57,14.85l6.49,4.33-.17.15L594.41,15a1.1,1.1,0,0,1,.16-.15"/><path class="cls-15" d="M594.41,15l6.48,4.33-.15.15-6.48-4.33.15-.15"/><path class="cls-16" d="M594.26,15.15l6.48,4.33-.14.16-6.48-4.33.14-.16"/><path class="cls-17" d="M594.12,15.31l6.48,4.33-.13.17L594,15.48l.13-.17"/><path class="cls-18" d="M594,15.48l6.48,4.33-.13.17-6.48-4.33.13-.17"/><path class="cls-19" d="M593.86,15.65,600.34,20l-.12.19-6.48-4.33.12-.19"/><path class="cls-20" d="M593.74,15.84l6.48,4.33a2,2,0,0,0-.11.2L593.62,16l.12-.2"/><path class="cls-21" d="M593.62,16l6.49,4.33-.12.22-6.48-4.33.11-.22"/><path class="cls-22" d="M593.51,16.26,600,20.59l-.11.26-6.48-4.33c0-.09.07-.18.11-.26"/><path class="cls-23" d="M593.4,16.52l6.48,4.33c0,.1-.07.21-.1.31l-6.49-4.33c0-.11.07-.21.11-.31"/><path class="cls-24" d="M593.29,16.83l6.49,4.33c0,.13-.07.25-.1.38s0,.07,0,.11l-6.48-4.34a.44.44,0,0,1,0-.1c0-.13.06-.25.09-.38"/></g></g></g><g class="cls-3"><g class="cls-33"><g class="cls-3"><path class="cls-9" d="M598,14.32l6.48,4.33a2.31,2.31,0,0,0-1.27-.37L596.76,14a2.26,2.26,0,0,1,1.27.37"/></g></g></g><g class="cls-3"><g class="cls-34"><g class="cls-3"><path class="cls-24" d="M593.29,16.83l6.49,4.33c0,.13-.07.25-.1.38s0,.07,0,.11l-6.48-4.34a.44.44,0,0,1,0-.1c0-.13.06-.25.09-.38"/><path class="cls-29" d="M593.18,17.31l6.48,4.34a4.13,4.13,0,0,0,0,.92l-6.48-4.33a3.29,3.29,0,0,1,0-.93"/><path class="cls-24" d="M593.14,18.24l6.48,4.33a2.61,2.61,0,0,0,.08.42l-6.48-4.33a2.84,2.84,0,0,1-.08-.42"/><path class="cls-23" d="M593.22,18.66,599.7,23a2.29,2.29,0,0,0,.08.28l-6.48-4.33a2.29,2.29,0,0,1-.08-.28"/><path class="cls-22" d="M593.3,18.94l6.48,4.33.09.22-6.48-4.33-.09-.22"/><path class="cls-21" d="M593.39,19.16l6.48,4.33.1.18-6.48-4.33a1.62,1.62,0,0,1-.1-.18"/><path class="cls-20" d="M593.49,19.34,600,23.67c0,.06.07.11.1.16l-6.48-4.33a.86.86,0,0,1-.1-.16"/><path class="cls-19" d="M593.59,19.5l6.48,4.33.11.15-6.48-4.33-.11-.15"/><path class="cls-18" d="M593.7,19.65,600.18,24l.11.13-6.48-4.33-.11-.13"/><path class="cls-17" d="M593.81,19.78l6.48,4.33.12.12-6.48-4.34-.12-.11"/><path class="cls-16" d="M593.93,19.89l6.48,4.34a.69.69,0,0,1,.13.11L594.06,20l-.13-.11"/><path class="cls-15" d="M594.06,20l6.48,4.34.12.08-6.48-4.33-.12-.09"/></g></g></g><g class="cls-3"><g class="cls-35"><g class="cls-3"><path class="cls-36" d="M598,14.32l6.48,4.33.12.09-6.48-4.33-.12-.09"/><path class="cls-37" d="M598.15,14.41l6.48,4.33a.69.69,0,0,1,.13.11l-6.48-4.33-.13-.11"/><path class="cls-38" d="M598.28,14.52l6.48,4.33.12.12-6.48-4.34-.12-.11"/><path class="cls-39" d="M598.4,14.63,604.88,19l.12.13-6.49-4.34-.11-.13"/><path class="cls-40" d="M598.51,14.76,605,19.1l.1.14-6.48-4.33-.11-.15"/><path class="cls-7" d="M598.62,14.91l6.48,4.33a1.4,1.4,0,0,1,.1.16l-6.48-4.33a.86.86,0,0,0-.1-.16"/><path class="cls-41" d="M598.72,15.07l6.48,4.33a1.14,1.14,0,0,1,.1.19l-6.48-4.34a1.62,1.62,0,0,0-.1-.18"/><path class="cls-42" d="M598.82,15.25l6.48,4.34.09.21-6.48-4.33-.09-.22"/><path class="cls-43" d="M598.91,15.47l6.48,4.33.09.28L599,15.75a2.29,2.29,0,0,0-.08-.28"/><path class="cls-44" d="M599,15.75l6.49,4.33a3,3,0,0,1,.07.43l-6.48-4.33a3,3,0,0,0-.08-.43"/><path class="cls-45" d="M599.07,16.18l6.48,4.33a3.29,3.29,0,0,1,0,.93L599,17.11a3.29,3.29,0,0,0,0-.93"/><path class="cls-44" d="M599,17.11l6.48,4.33a.36.36,0,0,1,0,.1,2.34,2.34,0,0,1-.09.38l-6.48-4.33a2.62,2.62,0,0,0,.09-.38.36.36,0,0,0,0-.1"/><path class="cls-43" d="M598.92,17.59l6.48,4.33a2.83,2.83,0,0,1-.11.31l-6.48-4.33c0-.1.08-.21.11-.31"/><path class="cls-42" d="M598.81,17.9l6.48,4.33c0,.09-.07.17-.11.26l-6.48-4.34a1.89,1.89,0,0,0,.11-.25"/><path class="cls-41" d="M598.7,18.15l6.48,4.34a2.26,2.26,0,0,1-.11.22l-6.48-4.33a2.4,2.4,0,0,0,.11-.23"/><path class="cls-7" d="M598.59,18.38l6.48,4.33-.11.2-6.49-4.33.12-.2"/><path class="cls-40" d="M598.47,18.58,605,22.91l-.12.18-6.49-4.33a.94.94,0,0,0,.12-.18"/><path class="cls-39" d="M598.35,18.76l6.49,4.33-.13.18-6.48-4.33.12-.18"/><path class="cls-38" d="M598.23,18.94l6.48,4.33-.13.16L598.1,19.1a1.83,1.83,0,0,1,.13-.16"/><path class="cls-37" d="M598.1,19.1l6.48,4.33-.14.16L598,19.26l.15-.16"/><path class="cls-36" d="M598,19.26l6.49,4.33a1.21,1.21,0,0,1-.16.16l-6.48-4.33.15-.16"/><path class="cls-46" d="M597.8,19.42l6.48,4.33-.16.15-6.48-4.33.16-.15"/><path class="cls-47" d="M597.64,19.57l6.48,4.33-.18.15-6.48-4.33.18-.15"/><path class="cls-48" d="M597.46,19.72l6.48,4.33-.2.15-6.48-4.33.2-.15"/><path class="cls-49" d="M597.26,19.87l6.48,4.33-.24.15L597,20l.25-.15"/><path class="cls-50" d="M597,20l6.49,4.33-.31.16-6.48-4.33L597,20"/><path class="cls-5" d="M596.71,20.18l6.48,4.33a3,3,0,0,1-1.24.29,2.31,2.31,0,0,1-1.29-.38l-6.48-4.33a2.27,2.27,0,0,0,1.28.37,3,3,0,0,0,1.25-.28"/></g></g></g><path class="cls-7" d="M596.76,14c1.6,0,2.61,1.46,2.25,3.26a4,4,0,0,1-3.55,3.25c-1.6,0-2.62-1.46-2.26-3.25A4,4,0,0,1,596.76,14Z"/><polygon class="cls-51" points="603.19 23.89 609.67 28.23 592.85 28.23 586.37 23.89 603.19 23.89"/><g class="cls-3"><g class="cls-52"><g class="cls-3"><path class="cls-9" d="M604.13,24.17l6.48,4.33a1.63,1.63,0,0,0-.94-.28l-6.48-4.33a1.63,1.63,0,0,1,.94.28"/></g></g></g><polygon class="cls-53" points="602.24 28.69 608.72 33.02 591.9 33.02 585.42 28.69 602.24 28.69"/><g class="cls-3"><g class="cls-54"><g class="cls-3"><path class="cls-36" d="M604.13,24.17l6.48,4.33.09.06-6.48-4.33-.09-.06"/><path class="cls-37" d="M604.22,24.23l6.48,4.33.1.08-6.48-4.33-.1-.08"/><path class="cls-38" d="M604.32,24.31l6.48,4.33.09.09-6.48-4.33-.09-.09"/><path class="cls-39" d="M604.41,24.4l6.48,4.33a.39.39,0,0,1,.08.1l-6.48-4.34-.08-.09"/><path class="cls-40" d="M604.49,24.49,611,28.83l.08.1-6.48-4.33-.08-.11"/><path class="cls-7" d="M604.57,24.6l6.48,4.33.08.12-6.49-4.33a.75.75,0,0,0-.07-.12"/><path class="cls-41" d="M604.64,24.72l6.49,4.33.07.14-6.48-4.34-.08-.13"/><path class="cls-42" d="M604.72,24.85l6.48,4.34.06.16L604.78,25l-.06-.17"/><path class="cls-43" d="M604.78,25l6.48,4.33a1.18,1.18,0,0,1,.07.2l-6.49-4.33a.66.66,0,0,0-.06-.2"/><path class="cls-44" d="M604.84,25.22l6.49,4.33a3.06,3.06,0,0,1,0,.32l-6.48-4.34a1.7,1.7,0,0,0-.06-.31"/><path class="cls-45" d="M604.9,25.53l6.48,4.34a2.64,2.64,0,0,1,0,.68l-6.48-4.33a2.7,2.7,0,0,0,0-.69"/><path class="cls-44" d="M604.87,26.22l6.48,4.33s0,.05,0,.08a2.68,2.68,0,0,1-.07.27l-6.48-4.33a2.29,2.29,0,0,0,.07-.28s0-.05,0-.07"/><path class="cls-43" d="M604.79,26.57l6.48,4.33a1.55,1.55,0,0,1-.08.23l-6.48-4.33a1.55,1.55,0,0,0,.08-.23"/><path class="cls-42" d="M604.71,26.8l6.48,4.33a1.08,1.08,0,0,1-.08.19L604.63,27c0-.06,0-.13.08-.19"/><path class="cls-41" d="M604.63,27l6.48,4.33a1.19,1.19,0,0,1-.08.16l-6.48-4.33s.05-.11.08-.16"/><path class="cls-7" d="M604.55,27.15,611,31.48l-.09.15-6.48-4.33.09-.15"/><path class="cls-40" d="M604.46,27.3l6.48,4.33-.08.14-6.49-4.34.09-.13"/><path class="cls-39" d="M604.37,27.43l6.49,4.34-.1.12-6.48-4.33.09-.13"/><path class="cls-38" d="M604.28,27.56l6.48,4.33-.09.13-6.49-4.34.1-.12"/><path class="cls-37" d="M604.18,27.68,610.67,32a1.14,1.14,0,0,1-.11.11l-6.48-4.33.1-.12"/><path class="cls-36" d="M604.08,27.8l6.48,4.33-.11.12L604,27.92l.11-.12"/><path class="cls-46" d="M604,27.92l6.48,4.33-.12.11L603.85,28l.12-.11"/><path class="cls-47" d="M603.85,28l6.48,4.33-.13.11-6.49-4.33.14-.11"/><path class="cls-48" d="M603.71,28.14l6.49,4.33-.15.11-6.49-4.33a1,1,0,0,0,.15-.11"/><path class="cls-49" d="M603.56,28.25l6.49,4.33-.18.11-6.48-4.33.17-.11"/><path class="cls-50" d="M603.39,28.36l6.48,4.33a1.27,1.27,0,0,1-.23.12l-6.48-4.33.23-.12"/><path class="cls-5" d="M603.16,28.48l6.48,4.33a2.13,2.13,0,0,1-.92.21l-6.48-4.33a2.33,2.33,0,0,0,.92-.21"/></g></g></g><polygon class="cls-55" points="517.84 44.11 524.32 48.44 473.36 305.51 466.88 301.18 517.84 44.11"/><g class="cls-3"><g class="cls-56"><g class="cls-3"><path class="cls-57" d="M471.41,309.58l6.49,4.34-.66-.19-6.48-4.34a5.61,5.61,0,0,0,.65.19"/></g></g></g><g class="cls-3"><g class="cls-58"><g class="cls-3"><path class="cls-57" d="M472.11,309.7l6.48,4.33-.69-.11-6.49-4.34c.16,0,.31.06.7.12"/></g></g></g><g class="cls-3"><g class="cls-59"><g class="cls-3"><path class="cls-57" d="M472.84,309.74l6.48,4.33a5.85,5.85,0,0,1-.73,0l-6.48-4.33a5.85,5.85,0,0,0,.73,0"/></g></g></g><polygon class="cls-51" points="658.06 35.55 664.54 39.88 533.67 39.88 527.19 35.55 658.06 35.55"/><g class="cls-3"><g class="cls-60"><g class="cls-3"><path class="cls-9" d="M661.42,36.53l6.49,4.33a6,6,0,0,0-3.36-1l-6.49-4.33a5.91,5.91,0,0,1,3.36,1"/></g></g></g><g class="cls-3"><g class="cls-61"><g class="cls-3"><path class="cls-62" d="M661.42,36.53l6.49,4.33.31.23-6.48-4.34-.32-.22"/><path class="cls-63" d="M661.74,36.75l6.48,4.34.34.28L662.08,37c-.11-.1-.22-.2-.34-.29"/><path class="cls-64" d="M662.08,37l6.48,4.33c.11.1.22.2.32.31l-6.48-4.33c-.1-.11-.21-.21-.32-.31"/><path class="cls-65" d="M662.4,37.35l6.48,4.33c.11.11.21.23.3.34l-6.48-4.33-.3-.34"/><path class="cls-66" d="M662.7,37.69,669.18,42l.28.38L663,38.07c-.09-.13-.18-.26-.28-.38"/><path class="cls-67" d="M663,38.07l6.48,4.33a4.94,4.94,0,0,1,.27.42l-6.48-4.33-.27-.42"/><path class="cls-68" d="M663.25,38.49l6.48,4.33a4.52,4.52,0,0,1,.25.49L663.5,39c-.08-.17-.16-.33-.25-.49"/><path class="cls-69" d="M663.5,39,670,43.31a4.87,4.87,0,0,1,.24.57l-6.48-4.33a4.87,4.87,0,0,0-.24-.57"/><path class="cls-70" d="M663.74,39.55l6.48,4.33c.09.24.16.48.23.73L664,40.28a5.62,5.62,0,0,0-.22-.73"/><path class="cls-71" d="M664,40.28l6.49,4.33a8.18,8.18,0,0,1,.19,1.12l-6.48-4.33a7.93,7.93,0,0,0-.2-1.12"/><path class="cls-72" d="M664.16,41.4l6.48,4.33a8.81,8.81,0,0,1-.1,2.44l-6.48-4.33a9.21,9.21,0,0,0,.1-2.44"/><path class="cls-71" d="M664.06,43.84l6.48,4.33a2.56,2.56,0,0,1,0,.27L664,44.11a2.56,2.56,0,0,0,0-.27"/></g></g></g><g class="cls-3"><g class="cls-73"><g class="cls-3"><path class="cls-9" d="M540,319.71l6.48,4.33a8.48,8.48,0,0,0-4.78-1.39,11.18,11.18,0,0,0-4.64,1.06l-6.49-4.33a11.23,11.23,0,0,1,4.65-1.06,8.48,8.48,0,0,1,4.78,1.39"/><path class="cls-10" d="M530.54,319.38l6.49,4.33a12.72,12.72,0,0,0-1.16.6L529.39,320c.38-.22.76-.42,1.15-.6"/><path class="cls-11" d="M529.39,320l6.48,4.33q-.47.27-.9.57l-6.48-4.34a10.4,10.4,0,0,1,.9-.56"/><path class="cls-12" d="M528.49,320.54l6.48,4.34c-.26.17-.51.36-.76.55l-6.48-4.33c.25-.19.5-.38.76-.56"/><path class="cls-13" d="M527.73,321.1l6.48,4.33c-.23.18-.45.37-.67.56l-6.48-4.33c.22-.2.44-.38.67-.56"/><path class="cls-14" d="M527.06,321.66l6.48,4.33c-.21.18-.41.37-.61.56l-6.48-4.33c.2-.19.4-.38.61-.56"/><path class="cls-15" d="M526.45,322.22l6.48,4.33-.56.58-6.49-4.33.57-.58"/><path class="cls-16" d="M525.88,322.8l6.49,4.33-.53.6-6.48-4.33.52-.6"/><path class="cls-17" d="M525.36,323.4l6.48,4.33c-.17.2-.33.41-.49.62L524.86,324c.16-.21.33-.42.5-.62"/><path class="cls-18" d="M524.86,324l6.49,4.33c-.17.21-.32.43-.47.65l-6.49-4.33c.15-.22.31-.44.47-.65"/><path class="cls-19" d="M524.39,324.67l6.49,4.33c-.16.23-.31.46-.45.7l-6.49-4.33.45-.7"/><path class="cls-20" d="M523.94,325.37l6.49,4.33c-.15.24-.3.49-.44.75l-6.48-4.34c.14-.25.28-.5.43-.74"/><path class="cls-21" d="M523.51,326.11l6.48,4.34c-.14.27-.28.54-.41.82l-6.49-4.33.42-.83"/><path class="cls-22" d="M523.09,326.94l6.49,4.33c-.15.31-.29.63-.41,1l-6.48-4.33c.12-.32.26-.64.4-.95"/><path class="cls-23" d="M522.69,327.89l6.48,4.33c-.15.39-.29.78-.41,1.17l-6.48-4.33c.12-.4.26-.79.41-1.17"/><path class="cls-24" d="M522.28,329.06l6.48,4.33a14,14,0,0,0-.35,1.42c0,.13,0,.26-.07.39l-6.49-4.33c0-.13,0-.26.08-.39a14,14,0,0,1,.35-1.42"/></g></g></g><g class="cls-3"><g class="cls-74"><g class="cls-3"><path class="cls-42" d="M527.71,328.76l6.48,4.34c-.07.16-.15.33-.21.5l-6.49-4.33c.07-.17.14-.34.22-.51"/><path class="cls-43" d="M527.49,329.27,534,333.6c-.08.21-.16.42-.22.63l-6.48-4.33q.09-.31.21-.63"/><path class="cls-44" d="M527.28,329.9l6.48,4.33a6.49,6.49,0,0,0-.19.76c0,.07,0,.13,0,.2l-6.48-4.33a1.55,1.55,0,0,1,0-.21,6.87,6.87,0,0,1,.19-.75"/></g></g></g><g class="cls-3"><g class="cls-75"><g class="cls-3"><path class="cls-44" d="M527.28,329.9l6.48,4.33a6.49,6.49,0,0,0-.19.76c0,.07,0,.13,0,.2l-6.48-4.33a1.55,1.55,0,0,1,0-.21,6.87,6.87,0,0,1,.19-.75"/></g></g></g><g class="cls-3"><g class="cls-76"><g class="cls-3"><path class="cls-44" d="M527.28,329.9l6.48,4.33a6.49,6.49,0,0,0-.19.76c0,.07,0,.13,0,.2l-6.48-4.33a1.55,1.55,0,0,1,0-.21,6.87,6.87,0,0,1,.19-.75"/><path class="cls-45" d="M527.05,330.86l6.48,4.33a6.83,6.83,0,0,0-.07,1.85L527,332.71a6.83,6.83,0,0,1,.07-1.85"/></g></g></g><g class="cls-3"><g class="cls-77"><g class="cls-3"><path class="cls-45" d="M527.05,330.86l6.48,4.33a6.83,6.83,0,0,0-.07,1.85L527,332.71a6.83,6.83,0,0,1,.07-1.85"/></g></g></g><g class="cls-3"><g class="cls-78"><g class="cls-3"><path class="cls-50" d="M531.71,324.71l6.48,4.33c-.21.1-.42.2-.62.32L531.09,325a5.2,5.2,0,0,1,.62-.32"/><path class="cls-49" d="M531.09,325l6.48,4.33-.48.31-6.48-4.34.48-.3"/><path class="cls-48" d="M530.61,325.33l6.48,4.34-.41.29-6.48-4.33.41-.3"/><path class="cls-47" d="M530.2,325.63l6.48,4.33-.36.3-6.48-4.33.36-.3"/><path class="cls-46" d="M529.84,325.93l6.48,4.33-.33.31-6.48-4.33.33-.31"/><path class="cls-36" d="M529.51,326.24l6.48,4.33-.3.31-6.48-4.33.3-.31"/><path class="cls-37" d="M529.21,326.55l6.48,4.33c-.1.1-.19.21-.28.32l-6.48-4.33c.09-.11.18-.22.28-.32"/><path class="cls-38" d="M528.93,326.87l6.48,4.33-.27.33-6.48-4.33c.09-.11.17-.22.27-.33"/><path class="cls-39" d="M528.66,327.2l6.48,4.33-.25.35-6.48-4.33c.08-.12.16-.24.25-.35"/><path class="cls-40" d="M528.41,327.55l6.48,4.33-.24.37-6.48-4.33a3.87,3.87,0,0,1,.24-.37"/><path class="cls-7" d="M528.17,327.92l6.48,4.33-.23.4-6.48-4.33.23-.4"/></g></g></g><g class="cls-3"><g class="cls-79"><g class="cls-3"><path class="cls-45" d="M527.05,330.86l6.48,4.33a6.83,6.83,0,0,0-.07,1.85L527,332.71a6.83,6.83,0,0,1,.07-1.85"/></g></g></g><g class="cls-3"><g class="cls-80"><g class="cls-3"><path class="cls-5" d="M536.74,324.88l6.48,4.34a4.47,4.47,0,0,0-2.54-.75,5.92,5.92,0,0,0-2.49.57l-6.48-4.33a5.91,5.91,0,0,1,2.48-.57,4.56,4.56,0,0,1,2.55.74"/><path class="cls-50" d="M531.71,324.71l6.48,4.33c-.21.1-.42.2-.62.32L531.09,325a5.2,5.2,0,0,1,.62-.32"/></g></g></g><g class="cls-3"><g class="cls-81"><g class="cls-3"><path class="cls-5" d="M536.74,324.88l6.48,4.34a4.47,4.47,0,0,0-2.54-.75,5.92,5.92,0,0,0-2.49.57l-6.48-4.33a5.91,5.91,0,0,1,2.48-.57,4.56,4.56,0,0,1,2.55.74"/></g></g></g><g class="cls-3"><g class="cls-82"><g class="cls-3"><path class="cls-5" d="M536.74,324.88l6.48,4.34a4.47,4.47,0,0,0-2.54-.75,5.92,5.92,0,0,0-2.49.57l-6.48-4.33a5.91,5.91,0,0,1,2.48-.57,4.56,4.56,0,0,1,2.55.74"/></g></g></g><g class="cls-3"><g class="cls-83"><g class="cls-3"><path class="cls-5" d="M536.74,324.88l6.48,4.34a4.47,4.47,0,0,0-2.54-.75,5.92,5.92,0,0,0-2.49.57l-6.48-4.33a5.91,5.91,0,0,1,2.48-.57,4.56,4.56,0,0,1,2.55.74"/></g></g></g><g class="cls-3"><g class="cls-84"><g class="cls-3"><path class="cls-5" d="M536.74,324.88l6.48,4.34a4.47,4.47,0,0,0-2.54-.75,5.92,5.92,0,0,0-2.49.57l-6.48-4.33a5.91,5.91,0,0,1,2.48-.57,4.56,4.56,0,0,1,2.55.74"/></g></g></g><g class="cls-3"><g class="cls-85"><g class="cls-3"><path class="cls-5" d="M536.74,324.88l6.48,4.34a4.47,4.47,0,0,0-2.54-.75,5.92,5.92,0,0,0-2.49.57l-6.48-4.33a5.91,5.91,0,0,1,2.48-.57,4.56,4.56,0,0,1,2.55.74"/></g></g></g><g class="cls-3"><g class="cls-86"><g class="cls-3"><path class="cls-5" d="M536.74,324.88l6.48,4.34a4.47,4.47,0,0,0-2.54-.75,5.92,5.92,0,0,0-2.49.57l-6.48-4.33a5.91,5.91,0,0,1,2.48-.57,4.56,4.56,0,0,1,2.55.74"/></g></g></g><g class="cls-3"><g class="cls-87"><g class="cls-3"><path class="cls-9" d="M540,319.71l6.48,4.33a8.48,8.48,0,0,0-4.78-1.39,11.18,11.18,0,0,0-4.64,1.06l-6.49-4.33a11.23,11.23,0,0,1,4.65-1.06,8.48,8.48,0,0,1,4.78,1.39"/></g></g></g><g class="cls-3"><g class="cls-88"><g class="cls-3"><path class="cls-24" d="M522.28,329.06l6.48,4.33a14,14,0,0,0-.35,1.42c0,.13,0,.26-.07.39l-6.49-4.33c0-.13,0-.26.08-.39a14,14,0,0,1,.35-1.42"/><path class="cls-29" d="M521.85,330.87l6.49,4.33a12.8,12.8,0,0,0-.14,3.47l-6.48-4.33a13.2,13.2,0,0,1,.13-3.47"/><path class="cls-24" d="M521.72,334.34l6.48,4.33a11.46,11.46,0,0,0,.27,1.59L522,335.93a10.15,10.15,0,0,1-.27-1.59"/><path class="cls-23" d="M522,335.93l6.48,4.33c.09.36.2.7.32,1L522.31,337c-.12-.34-.23-.68-.32-1"/><path class="cls-22" d="M522.31,337l6.48,4.33c.1.28.22.55.34.81l-6.48-4.33a7.27,7.27,0,0,1-.34-.81"/><path class="cls-21" d="M522.65,337.78l6.48,4.33a7.49,7.49,0,0,0,.36.69L523,338.47c-.13-.23-.25-.45-.36-.69"/><path class="cls-20" d="M523,338.47l6.48,4.33c.12.21.25.41.38.6l-6.48-4.33c-.14-.2-.26-.4-.38-.6"/><path class="cls-19" d="M523.39,339.07l6.48,4.33c.13.18.26.36.4.53l-6.48-4.33c-.14-.17-.27-.35-.4-.53"/><path class="cls-18" d="M523.79,339.6l6.48,4.33c.14.17.28.33.43.49l-6.49-4.33c-.14-.16-.29-.32-.42-.49"/><path class="cls-17" d="M524.21,340.09l6.49,4.33a6.25,6.25,0,0,0,.45.44l-6.48-4.33c-.16-.14-.31-.29-.46-.44"/><path class="cls-16" d="M524.67,340.53l6.48,4.33c.15.14.31.28.48.41l-6.48-4.34a4.63,4.63,0,0,1-.48-.4"/><path class="cls-15" d="M525.15,340.93l6.48,4.34c.15.11.29.22.45.32l-6.48-4.33a5.22,5.22,0,0,1-.45-.33"/></g></g></g><g class="cls-3"><g class="cls-89"><g class="cls-3"><path class="cls-5" d="M536.74,324.88l6.48,4.34a4.47,4.47,0,0,0-2.54-.75,5.92,5.92,0,0,0-2.49.57l-6.48-4.33a5.91,5.91,0,0,1,2.48-.57,4.56,4.56,0,0,1,2.55.74"/></g></g></g><g class="cls-3"><g class="cls-90"><g class="cls-3"><path class="cls-45" d="M527.05,330.86l6.48,4.33a6.83,6.83,0,0,0-.07,1.85L527,332.71a6.83,6.83,0,0,1,.07-1.85"/><path class="cls-44" d="M527,332.71l6.48,4.33a5.8,5.8,0,0,0,.15.85l-6.49-4.33a7.93,7.93,0,0,1-.14-.85"/><path class="cls-43" d="M527.12,333.56l6.49,4.33a3.62,3.62,0,0,0,.17.56l-6.49-4.33c-.06-.18-.12-.37-.17-.56"/><path class="cls-42" d="M527.29,334.12l6.49,4.33a3.25,3.25,0,0,0,.18.43l-6.48-4.33c-.07-.14-.13-.28-.19-.43"/><path class="cls-41" d="M527.48,334.55l6.48,4.33a3.2,3.2,0,0,0,.19.37l-6.48-4.33c-.07-.12-.13-.24-.19-.37"/><path class="cls-7" d="M527.67,334.92l6.48,4.33.21.33-6.48-4.33a3,3,0,0,1-.21-.33"/><path class="cls-40" d="M527.88,335.25l6.48,4.33.21.29-6.48-4.34a2.92,2.92,0,0,1-.21-.28"/><path class="cls-39" d="M528.09,335.53l6.48,4.34.23.26-6.48-4.33-.23-.27"/><path class="cls-38" d="M528.32,335.8l6.48,4.33.24.23L528.56,336l-.24-.23"/><path class="cls-37" d="M528.56,336l6.48,4.33.26.22-6.48-4.33-.26-.22"/><path class="cls-36" d="M528.82,336.25l6.48,4.33.25.18-6.49-4.34-.24-.17"/></g></g></g><g class="cls-3"><g class="cls-91"><g class="cls-3"><path class="cls-92" d="M536.34,325.49l6.48,4.33a4.1,4.1,0,0,0-2.28-.66,5.44,5.44,0,0,0-2.22.5l-6.48-4.33a5.26,5.26,0,0,1,2.22-.51,4,4,0,0,1,2.28.67"/><path class="cls-93" d="M531.84,325.33l6.48,4.33a5.77,5.77,0,0,0-.55.29l-6.48-4.33a5.77,5.77,0,0,1,.55-.29"/><path class="cls-94" d="M531.29,325.62l6.48,4.33a3.87,3.87,0,0,0-.43.27l-6.48-4.33a3.87,3.87,0,0,1,.43-.27"/><path class="cls-95" d="M530.86,325.89l6.48,4.33c-.13.09-.25.17-.37.27l-6.48-4.33a3.18,3.18,0,0,1,.37-.27"/><path class="cls-96" d="M530.49,326.16l6.48,4.33a3.82,3.82,0,0,0-.32.27l-6.48-4.34.32-.26"/><path class="cls-97" d="M530.17,326.42l6.48,4.34a2.44,2.44,0,0,0-.29.27l-6.48-4.33a3.83,3.83,0,0,1,.29-.28"/><path class="cls-98" d="M529.88,326.7l6.48,4.33-.27.28L529.61,327l.27-.27"/><path class="cls-99" d="M529.61,327l6.48,4.34-.26.28-6.48-4.33c.08-.1.17-.19.26-.29"/><path class="cls-100" d="M529.35,327.26l6.48,4.33-.23.3-6.49-4.33.24-.3"/><path class="cls-101" d="M529.11,327.56l6.49,4.33-.23.31-6.48-4.33.22-.31"/><path class="cls-102" d="M528.89,327.87l6.48,4.33c-.07.11-.15.22-.22.34l-6.48-4.33a4,4,0,0,1,.22-.34"/><path class="cls-103" d="M528.67,328.21l6.48,4.33a3.07,3.07,0,0,0-.2.36l-6.48-4.34a4,4,0,0,1,.2-.35"/><path class="cls-104" d="M528.47,328.56,535,332.9c-.07.13-.14.26-.2.39L528.27,329c.06-.13.13-.27.2-.4"/><path class="cls-105" d="M528.27,329l6.48,4.33c-.07.15-.14.3-.2.46l-6.48-4.33c.06-.16.13-.31.2-.46"/><path class="cls-106" d="M528.07,329.42l6.48,4.33a5.27,5.27,0,0,0-.19.56L527.87,330c.06-.19.13-.38.2-.56"/><path class="cls-107" d="M527.87,330l6.49,4.33a5.2,5.2,0,0,0-.17.68c0,.06,0,.12,0,.18l-6.48-4.33a1.62,1.62,0,0,1,0-.19c0-.22.1-.45.16-.67"/><path class="cls-108" d="M527.67,330.84l6.48,4.33a6.68,6.68,0,0,0-.06,1.66l-6.48-4.34a5.79,5.79,0,0,1,.06-1.65"/><path class="cls-107" d="M527.61,332.49l6.48,4.34a6.35,6.35,0,0,0,.13.76l-6.48-4.33a4.76,4.76,0,0,1-.13-.77"/><path class="cls-106" d="M527.74,333.26l6.48,4.33a4.74,4.74,0,0,0,.15.5l-6.48-4.34a4,4,0,0,1-.15-.49"/><path class="cls-105" d="M527.89,333.75l6.48,4.34c0,.13.1.26.16.38l-6.48-4.33a3.52,3.52,0,0,1-.16-.39"/><path class="cls-104" d="M528.05,334.14l6.48,4.33q.09.18.18.33l-6.49-4.33c-.06-.1-.11-.21-.17-.33"/><path class="cls-103" d="M528.22,334.47l6.49,4.33a1.75,1.75,0,0,0,.18.29l-6.48-4.33a2.9,2.9,0,0,1-.19-.29"/><path class="cls-102" d="M528.41,334.76l6.48,4.33a2.48,2.48,0,0,0,.19.26L528.6,335l-.19-.26"/><path class="cls-101" d="M528.6,335l6.48,4.33c.07.08.13.16.2.23l-6.48-4.33c-.07-.08-.14-.15-.2-.23"/><path class="cls-100" d="M528.8,335.25l6.48,4.33.22.21L529,335.46l-.22-.21"/><path class="cls-99" d="M529,335.46l6.48,4.33.23.2-6.48-4.33-.23-.2"/><path class="cls-98" d="M529.25,335.66l6.48,4.33.22.15-6.48-4.33-.22-.15"/></g></g></g><g class="cls-3"><g class="cls-109"><g class="cls-3"><path class="cls-5" d="M534,336l6.48,4.33a5.26,5.26,0,0,1-2.22.51,4,4,0,0,1-2.28-.67l-6.48-4.33a4,4,0,0,0,2.28.67A5.29,5.29,0,0,0,534,336"/></g></g></g><g class="cls-3"><g class="cls-110"><g class="cls-3"><path class="cls-36" d="M536.34,325.49l6.48,4.33.21.16-6.48-4.34-.21-.15"/><path class="cls-37" d="M536.55,325.64,543,330a2.11,2.11,0,0,1,.23.19l-6.48-4.33-.23-.2"/><path class="cls-38" d="M536.78,325.84l6.48,4.33.22.21L537,326.05l-.22-.21"/><path class="cls-39" d="M537,326.05l6.48,4.33.21.23-6.49-4.33a2.2,2.2,0,0,0-.2-.23"/><path class="cls-40" d="M537.2,326.28l6.49,4.33.19.26-6.48-4.33-.2-.26"/><path class="cls-7" d="M537.4,326.54l6.48,4.33.18.29-6.48-4.33-.18-.29"/><path class="cls-41" d="M537.58,326.83l6.48,4.33c.06.11.12.22.17.33l-6.48-4.33c0-.11-.11-.22-.17-.33"/><path class="cls-42" d="M537.75,327.16l6.48,4.33c.06.13.12.26.17.39l-6.49-4.33a3.2,3.2,0,0,0-.16-.39"/><path class="cls-43" d="M537.91,327.55l6.49,4.33c.05.16.11.33.15.5l-6.48-4.33c-.05-.17-.1-.34-.16-.5"/><path class="cls-44" d="M538.07,328.05l6.48,4.33a6,6,0,0,1,.13.76l-6.48-4.33a6,6,0,0,0-.13-.76"/><path class="cls-45" d="M538.2,328.81l6.48,4.33a6.25,6.25,0,0,1-.07,1.66l-6.48-4.33a6.25,6.25,0,0,0,.07-1.66"/><path class="cls-44" d="M538.13,330.47l6.48,4.33,0,.19a5.06,5.06,0,0,1-.17.67l-6.48-4.33c.07-.22.12-.45.17-.68l0-.18"/></g></g></g><g class="cls-3"><g class="cls-111"><g class="cls-3"><path class="cls-44" d="M538.13,330.47l6.48,4.33,0,.19a5.06,5.06,0,0,1-.17.67l-6.48-4.33c.07-.22.12-.45.17-.68l0-.18"/><path class="cls-43" d="M537.93,331.33l6.48,4.33c-.06.19-.12.38-.19.56l-6.48-4.33c.07-.18.13-.37.19-.56"/><path class="cls-42" d="M537.74,331.89l6.48,4.33c-.06.16-.13.31-.2.46l-6.48-4.33c.07-.15.14-.3.2-.46"/><path class="cls-41" d="M537.54,332.35l6.48,4.33c-.06.13-.13.26-.2.39l-6.48-4.33c.07-.13.14-.26.2-.39"/><path class="cls-7" d="M537.34,332.74l6.48,4.33c-.06.12-.13.24-.2.36l-6.49-4.33c.08-.12.14-.24.21-.36"/><path class="cls-40" d="M537.13,333.1l6.49,4.33c-.07.11-.14.22-.22.33l-6.48-4.33.21-.33"/><path class="cls-39" d="M536.92,333.43l6.48,4.33-.22.32-6.49-4.34a3.55,3.55,0,0,0,.23-.31"/><path class="cls-38" d="M536.69,333.74l6.49,4.34-.24.29L536.46,334a3.4,3.4,0,0,0,.23-.3"/><path class="cls-37" d="M536.46,334l6.48,4.33-.25.29-6.49-4.33.26-.29"/><path class="cls-36" d="M536.2,334.33l6.49,4.33-.27.28-6.49-4.33a3.5,3.5,0,0,0,.27-.28"/><path class="cls-46" d="M535.93,334.61l6.49,4.33-.3.27-6.48-4.33.29-.27"/><path class="cls-47" d="M535.64,334.88l6.48,4.33-.32.27-6.48-4.34.32-.26"/><path class="cls-48" d="M535.32,335.14l6.48,4.34-.36.26L535,335.41l.36-.27"/><path class="cls-49" d="M535,335.41l6.48,4.33a5.08,5.08,0,0,1-.43.27l-6.49-4.33c.15-.08.29-.17.44-.27"/><path class="cls-50" d="M534.52,335.68,541,340a4.25,4.25,0,0,1-.56.29L534,336a5.77,5.77,0,0,0,.55-.29"/><path class="cls-5" d="M534,336l6.48,4.33a5.26,5.26,0,0,1-2.22.51,4,4,0,0,1-2.28-.67l-6.48-4.33a4,4,0,0,0,2.28.67A5.29,5.29,0,0,0,534,336"/></g></g></g><g class="cls-3"><g class="cls-112"><g class="cls-3"><path class="cls-98" d="M536.74,324.88l6.48,4.34a1.46,1.46,0,0,1,.24.17L537,325.06l-.24-.18"/><path class="cls-99" d="M537,325.06l6.48,4.33a2.75,2.75,0,0,1,.26.22l-6.48-4.34-.26-.21"/><path class="cls-100" d="M537.24,325.27l6.48,4.34a1.75,1.75,0,0,1,.24.23l-6.48-4.33-.24-.24"/><path class="cls-101" d="M537.48,325.51l6.48,4.33c.08.09.16.17.23.26l-6.48-4.33a2.85,2.85,0,0,0-.23-.26"/><path class="cls-102" d="M537.71,325.77l6.48,4.33a3.15,3.15,0,0,1,.22.29l-6.49-4.33a1.94,1.94,0,0,0-.21-.29"/><path class="cls-103" d="M537.92,326.06l6.49,4.33a3.45,3.45,0,0,1,.2.32l-6.48-4.33a3.53,3.53,0,0,0-.21-.32"/><path class="cls-104" d="M538.13,326.38l6.48,4.33c.07.12.13.24.19.37l-6.48-4.33c-.06-.13-.12-.25-.19-.37"/><path class="cls-105" d="M538.32,326.75l6.48,4.33c.07.14.13.29.19.44l-6.49-4.34a3.25,3.25,0,0,0-.18-.43"/><path class="cls-106" d="M538.5,327.18l6.49,4.34c.06.18.12.36.17.55l-6.49-4.33a3.62,3.62,0,0,0-.17-.56"/><path class="cls-107" d="M538.67,327.74l6.49,4.33a7.71,7.71,0,0,1,.14.86l-6.48-4.34a5.8,5.8,0,0,0-.15-.85"/><path class="cls-108" d="M538.82,328.59l6.48,4.34a6.86,6.86,0,0,1-.07,1.85l-6.48-4.33a6.92,6.92,0,0,0,.07-1.86"/><path class="cls-107" d="M538.75,330.45l6.48,4.33a1.55,1.55,0,0,1,0,.21,6.87,6.87,0,0,1-.19.75l-6.48-4.33a6.49,6.49,0,0,0,.19-.76c0-.06,0-.13,0-.2"/><path class="cls-106" d="M538.52,331.41l6.48,4.33q-.09.31-.21.63L538.3,332c.08-.21.16-.42.22-.63"/><path class="cls-105" d="M538.3,332l6.49,4.33c-.07.17-.14.34-.22.51l-6.48-4.34c.07-.16.15-.33.21-.5"/><path class="cls-104" d="M538.09,332.54l6.48,4.34c-.07.15-.15.29-.23.44L537.86,333l.23-.45"/><path class="cls-103" d="M537.86,333l6.48,4.33-.23.4-6.48-4.33.23-.4"/><path class="cls-102" d="M537.63,333.39l6.48,4.33-.24.37-6.48-4.33.24-.37"/><path class="cls-101" d="M537.39,333.76l6.48,4.33c-.08.12-.16.24-.25.35l-6.48-4.33.25-.35"/><path class="cls-100" d="M537.14,334.11l6.48,4.33-.27.34-6.48-4.34.27-.33"/><path class="cls-99" d="M536.87,334.44l6.48,4.34-.28.32-6.48-4.33.28-.33"/><path class="cls-98" d="M536.59,334.77l6.48,4.33-.3.31-6.49-4.33c.11-.1.21-.21.31-.31"/><path class="cls-97" d="M536.28,335.08l6.49,4.33-.33.3L536,335.38l.32-.3"/><path class="cls-96" d="M536,335.38l6.48,4.33q-.18.17-.36.3l-6.48-4.33.36-.3"/><path class="cls-95" d="M535.6,335.68l6.48,4.33c-.14.11-.27.21-.41.3L535.19,336l.41-.3"/><path class="cls-94" d="M535.19,336l6.48,4.33-.48.3-6.48-4.33.48-.3"/><path class="cls-93" d="M534.71,336.28l6.48,4.33c-.2.12-.41.23-.62.33l-6.48-4.34a6.09,6.09,0,0,0,.62-.32"/><path class="cls-92" d="M534.09,336.6l6.48,4.34a6,6,0,0,1-2.48.56,4.55,4.55,0,0,1-2.54-.74l-6.49-4.34a4.53,4.53,0,0,0,2.55.75,5.91,5.91,0,0,0,2.48-.57"/></g></g></g><g class="cls-3"><g class="cls-113"><g class="cls-3"><path class="cls-36" d="M540,319.71l6.48,4.33a5.22,5.22,0,0,1,.45.33L540.42,320l-.45-.33"/><path class="cls-37" d="M540.42,320l6.48,4.33.49.4-6.49-4.33a4.63,4.63,0,0,0-.48-.4"/><path class="cls-38" d="M540.9,320.44l6.49,4.33.45.44-6.48-4.33c-.15-.15-.3-.3-.46-.44"/><path class="cls-39" d="M541.36,320.88l6.48,4.33a6.4,6.4,0,0,1,.42.49l-6.48-4.33-.42-.49"/><path class="cls-40" d="M541.78,321.37l6.48,4.33c.14.17.28.35.4.53l-6.48-4.33c-.13-.18-.26-.36-.4-.53"/><path class="cls-7" d="M542.18,321.9l6.48,4.33c.14.2.26.4.38.6l-6.48-4.33c-.12-.2-.25-.41-.38-.6"/><path class="cls-41" d="M542.56,322.5l6.48,4.33q.19.35.36.69l-6.48-4.33a7.49,7.49,0,0,0-.36-.69"/><path class="cls-42" d="M542.92,323.19l6.48,4.33a7.27,7.27,0,0,1,.34.81L543.26,324a7.27,7.27,0,0,0-.34-.81"/><path class="cls-43" d="M543.26,324l6.48,4.33c.12.34.23.68.32,1L543.58,325c-.09-.36-.2-.7-.32-1"/><path class="cls-44" d="M543.58,325l6.48,4.33a10.15,10.15,0,0,1,.27,1.59l-6.48-4.33a11.46,11.46,0,0,0-.27-1.59"/><path class="cls-45" d="M543.85,326.63l6.48,4.33a13.11,13.11,0,0,1-.13,3.46l-6.49-4.33a12.73,12.73,0,0,0,.14-3.46"/><path class="cls-44" d="M543.71,330.09l6.49,4.33c0,.13-.05.26-.08.39a13.38,13.38,0,0,1-.35,1.42l-6.48-4.33a14,14,0,0,0,.35-1.42c0-.13.05-.26.07-.39"/><path class="cls-43" d="M543.29,331.9l6.48,4.33c-.12.4-.26.79-.41,1.18l-6.48-4.34c.15-.38.29-.77.41-1.17"/><path class="cls-42" d="M542.88,333.07l6.48,4.34c-.12.32-.26.64-.41.95L542.47,334c.15-.32.28-.63.41-1"/><path class="cls-41" d="M542.47,334l6.48,4.33c-.13.28-.27.55-.41.82l-6.49-4.33c.15-.27.29-.54.42-.82"/><path class="cls-7" d="M542.05,334.85l6.49,4.33c-.14.26-.29.51-.44.75l-6.48-4.33c.15-.24.3-.49.43-.75"/><path class="cls-40" d="M541.62,335.6l6.48,4.33c-.14.24-.29.47-.45.7l-6.48-4.34a8.18,8.18,0,0,0,.45-.69"/><path class="cls-39" d="M541.17,336.29l6.48,4.34c-.15.22-.3.44-.47.65L540.7,337c.16-.22.32-.43.47-.66"/><path class="cls-38" d="M540.7,337l6.48,4.33c-.16.21-.32.42-.49.62l-6.48-4.33.49-.62"/><path class="cls-37" d="M540.21,337.57l6.48,4.33-.53.6-6.48-4.34c.18-.19.36-.39.53-.59"/><path class="cls-36" d="M539.68,338.16l6.48,4.34c-.18.19-.37.39-.56.57l-6.48-4.33c.19-.19.38-.38.56-.58"/><path class="cls-46" d="M539.12,338.74l6.48,4.33c-.2.2-.4.39-.61.57l-6.48-4.33c.21-.18.41-.37.61-.57"/><path class="cls-47" d="M538.51,339.31l6.48,4.33c-.22.19-.44.38-.67.56l-6.48-4.34c.23-.17.45-.36.67-.55"/><path class="cls-48" d="M537.84,339.86l6.48,4.34c-.25.19-.5.38-.76.55l-6.48-4.33c.26-.18.51-.36.76-.56"/><path class="cls-49" d="M537.08,340.42l6.48,4.33q-.43.3-.9.57L536.18,341c.31-.18.6-.37.9-.57"/><path class="cls-50" d="M536.18,341l6.48,4.33a12.72,12.72,0,0,1-1.16.6L535,341.59a12.72,12.72,0,0,0,1.16-.6"/><path class="cls-5" d="M535,341.59l6.48,4.33a11.23,11.23,0,0,1-4.65,1.06,8.48,8.48,0,0,1-4.77-1.39l-6.48-4.33a8.48,8.48,0,0,0,4.77,1.39,11.23,11.23,0,0,0,4.65-1.06"/></g></g></g><g class="cls-3"><g class="cls-114"><g class="cls-3"><path class="cls-62" d="M629.74,204.46l6.48,4.33.26.19L630,204.65l-.26-.19"/><path class="cls-63" d="M630,204.65l6.48,4.33.29.24-6.48-4.33-.29-.24"/><path class="cls-64" d="M630.29,204.89l6.48,4.33.27.26-6.49-4.33a3.19,3.19,0,0,0-.26-.26"/><path class="cls-65" d="M630.55,205.15l6.49,4.33.25.29-6.49-4.33a3.47,3.47,0,0,0-.25-.29"/><path class="cls-66" d="M630.8,205.44l6.49,4.33a3.71,3.71,0,0,1,.23.32L631,205.75a2.34,2.34,0,0,0-.24-.31"/><path class="cls-67" d="M631,205.75l6.48,4.34c.08.11.16.23.23.35l-6.48-4.33c-.07-.12-.15-.24-.23-.36"/><path class="cls-68" d="M631.27,206.11l6.48,4.33c.07.13.15.27.21.41l-6.48-4.34-.21-.4"/><path class="cls-69" d="M631.48,206.51l6.48,4.34c.07.15.14.31.2.48L631.68,207c-.06-.17-.13-.33-.2-.49"/><path class="cls-70" d="M631.68,207l6.48,4.33,0,.07-6.48-4.33,0-.07"/></g></g></g><polygon class="cls-115" points="664.01 44.11 670.49 48.45 638.19 211.4 631.71 207.07 664.01 44.11"/><polygon class="cls-116" points="603.71 309.74 610.19 314.07 479.32 314.07 472.84 309.74 603.71 309.74"/><polygon class="cls-115" points="631.71 207.07 638.19 211.4 619.53 305.51 613.05 301.18 631.71 207.07"/><g class="cls-3"><g class="cls-117"><g class="cls-3"><path class="cls-71" d="M613.05,301.18l6.48,4.33c-.06.33-.15.67-.24,1l-6.49-4.34a8.44,8.44,0,0,0,.25-1"/><path class="cls-70" d="M612.8,302.17l6.49,4.34c-.09.27-.18.55-.29.82L612.52,303c.1-.27.2-.55.28-.83"/><path class="cls-69" d="M612.52,303l6.48,4.33c-.09.23-.19.45-.29.67l-6.48-4.33c.1-.22.2-.44.29-.67"/><path class="cls-68" d="M612.23,303.67l6.48,4.33c-.09.2-.19.39-.29.58l-6.48-4.33c.1-.19.2-.38.29-.58"/><path class="cls-67" d="M611.94,304.25l6.48,4.33c-.1.18-.2.36-.31.53l-6.48-4.33.31-.53"/><path class="cls-66" d="M611.63,304.78l6.48,4.33c-.1.16-.2.33-.31.49l-6.49-4.33.32-.49"/><path class="cls-65" d="M611.31,305.27l6.49,4.33-.33.46L611,305.73c.12-.15.23-.31.33-.46"/><path class="cls-64" d="M611,305.73l6.49,4.33-.35.43-6.48-4.33.34-.43"/><path class="cls-63" d="M610.64,306.16l6.48,4.33c-.12.15-.25.29-.37.42l-6.49-4.33a5.14,5.14,0,0,0,.38-.42"/><path class="cls-62" d="M610.26,306.58l6.49,4.33-.4.41L609.87,307c.13-.13.27-.27.39-.41"/><path class="cls-118" d="M609.87,307l6.48,4.33-.43.4-6.48-4.33.43-.4"/><path class="cls-119" d="M609.44,307.39l6.48,4.33c-.16.14-.31.27-.47.39L609,307.78c.17-.12.32-.26.48-.39"/><path class="cls-120" d="M609,307.78l6.49,4.33-.54.39-6.48-4.33a6.55,6.55,0,0,0,.53-.39"/><path class="cls-121" d="M608.43,308.17l6.48,4.33a6.05,6.05,0,0,1-.63.4l-6.48-4.33c.21-.12.42-.26.63-.4"/><path class="cls-122" d="M607.8,308.57l6.48,4.33a9.16,9.16,0,0,1-.82.43L607,309a9.16,9.16,0,0,0,.82-.43"/><path class="cls-57" d="M607,309l6.48,4.33a7.87,7.87,0,0,1-3.27.74l-6.48-4.33A7.87,7.87,0,0,0,607,309"/></g></g></g><path class="cls-123" d="M658.39,6.07H538.24c-11.66,0-23.22,10.59-25.8,23.65l-2.33,11.74L505.05,67l-1.4,7-5.06,25.54-45.2,228c-2.59,13.06,4.77,23.65,16.43,23.65H590c11.66,0,23.21-10.59,25.8-23.65l39.46-199.06,8.53-43,11-55.79C677.4,16.66,670.05,6.07,658.39,6.07ZM593.2,17.21A4,4,0,0,1,596.76,14c1.6,0,2.61,1.46,2.25,3.26a4,4,0,0,1-3.55,3.25c-1.6,0-2.62-1.45-2.26-3.25m-9.44,9.08a2.92,2.92,0,0,1,2.61-2.4h16.82a1.83,1.83,0,0,1,1.67,2.4,2.93,2.93,0,0,1-2.62,2.4H585.42a1.83,1.83,0,0,1-1.66-2.4M543.64,330.48c-1.33,6.72-7.27,12.17-13.27,12.17s-9.78-5.45-8.44-12.17,7.27-12.16,13.26-12.16,9.78,5.44,8.45,12.16M664,44.11l-32.3,163-18.66,94.11c-.94,4.73-5.12,8.56-9.34,8.56H472.84c-3.67,0-6.16-2.89-6.14-6.74h0a7.87,7.87,0,0,1,0-.84v-.06c0-.31.08-.61.14-.92l51-257.07a10.82,10.82,0,0,1,1.26-3.33c1.77-3.08,4.92-5.23,8.09-5.23H658.06a6.07,6.07,0,0,1,2.84.67,6,6,0,0,1,.6.36,5.67,5.67,0,0,1,1,.92,6.75,6.75,0,0,1,1.53,3.28,8.93,8.93,0,0,1-.06,3.33"/><path class="cls-7" d="M603.19,23.89a1.83,1.83,0,0,1,1.67,2.4,2.93,2.93,0,0,1-2.62,2.4H585.42a1.83,1.83,0,0,1-1.66-2.4,2.92,2.92,0,0,1,2.61-2.4Z"/><g class="cls-3"><g class="cls-124"><g class="cls-3"><path class="cls-15" d="M667.68,8.78l6.48,4.33q.45.3.87.63l-6.48-4.33q-.43-.33-.87-.63"/><path class="cls-16" d="M668.55,9.41,675,13.74c.32.25.64.51.94.78l-6.48-4.33c-.31-.27-.62-.54-.94-.78"/><path class="cls-2" d="M669.49,10.19,676,14.52c.3.28.6.56.88.86l-6.48-4.33c-.29-.3-.58-.58-.88-.86"/><path class="cls-2" d="M670.37,11.05l6.48,4.33c.28.31.56.62.82.95L671.19,12c-.26-.32-.54-.64-.82-.94"/><path class="cls-2" d="M671.19,12l6.48,4.34a12.66,12.66,0,0,1,.78,1L672,13c-.25-.36-.51-.7-.78-1"/><path class="cls-2" d="M672,13l6.48,4.33c.26.38.51.77.74,1.17l-6.48-4.33c-.23-.4-.48-.79-.74-1.17"/><path class="cls-2" d="M672.71,14.2l6.48,4.33c.25.44.49.88.7,1.34l-6.48-4.33c-.22-.46-.45-.9-.7-1.34"/><path class="cls-2" d="M673.41,15.54l6.48,4.33c.24.51.46,1,.66,1.58l-6.48-4.33c-.2-.54-.42-1.07-.66-1.58"/><path class="cls-2" d="M674.07,17.12l6.48,4.33c.24.65.44,1.33.62,2l-6.49-4.33a18.23,18.23,0,0,0-.61-2"/><path class="cls-2" d="M674.68,19.14l6.49,4.33a21.79,21.79,0,0,1,.53,3.1l-6.48-4.34a21.9,21.9,0,0,0-.54-3.09"/><path class="cls-2" d="M675.22,22.23l6.48,4.34a25.25,25.25,0,0,1-.26,6.73L675,29a25.34,25.34,0,0,0,.27-6.74"/><path class="cls-2" d="M675,29l6.49,4.33c-.05.25-.09.5-.14.76l-6.49-4.34c.05-.25.1-.5.14-.75"/></g></g></g><polygon class="cls-2" points="674.81 29.72 681.3 34.05 670.24 89.84 663.76 85.5 674.81 29.72"/><polygon class="cls-55" points="663.76 85.5 670.24 89.84 661.71 132.84 655.23 128.51 663.76 85.5"/><path class="cls-7" d="M534.06,324.82c2.86,0,4.68,2.62,4,5.83s-3.49,5.83-6.35,5.83-4.68-2.61-4-5.83S531.19,324.82,534.06,324.82Z"/><path class="cls-103" d="M534.19,324.14c3.21,0,5.23,2.92,4.52,6.51s-3.9,6.52-7.1,6.52-5.23-2.93-4.52-6.52S531,324.14,534.19,324.14Zm-2.44,12.34c2.86,0,5.71-2.61,6.35-5.83s-1.18-5.83-4-5.83-5.72,2.62-6.35,5.83,1.17,5.83,4,5.83"/><path class="cls-7" d="M535.19,318.32c6,0,9.78,5.44,8.45,12.16s-7.27,12.17-13.27,12.17-9.78-5.45-8.44-12.17S529.2,318.32,535.19,318.32Zm-3.58,18.85c3.2,0,6.39-2.93,7.1-6.52s-1.31-6.51-4.52-6.51-6.39,2.92-7.1,6.51,1.32,6.52,4.52,6.52"/><polygon class="cls-2" points="589.97 351.22 596.45 355.55 476.3 355.55 469.82 351.22 589.97 351.22"/><polygon class="cls-2" points="655.23 128.51 661.71 132.84 622.25 331.9 615.77 327.57 655.23 128.51"/><g class="cls-3"><g class="cls-125"><g class="cls-3"><path class="cls-2" d="M615.77,327.57l6.48,4.33c-.18.93-.41,1.85-.68,2.76l-6.49-4.34a25.71,25.71,0,0,0,.69-2.75"/><path class="cls-2" d="M615.08,330.32l6.49,4.34c-.24.77-.5,1.53-.8,2.28l-6.48-4.33c.3-.75.56-1.51.79-2.29"/><path class="cls-2" d="M614.29,332.61l6.48,4.33c-.24.62-.51,1.24-.79,1.84l-6.48-4.33c.28-.6.55-1.22.79-1.84"/><path class="cls-2" d="M613.5,334.45l6.48,4.33c-.25.55-.53,1.08-.81,1.61l-6.48-4.33c.28-.53.55-1.06.81-1.61"/><path class="cls-2" d="M612.69,336.06l6.48,4.33c-.27.49-.55,1-.84,1.45l-6.48-4.33c.29-.47.57-1,.84-1.45"/><path class="cls-2" d="M611.85,337.51l6.48,4.33q-.42.69-.87,1.35L611,338.86c.31-.44.6-.89.88-1.35"/><path class="cls-2" d="M611,338.86l6.49,4.33c-.3.43-.6.86-.92,1.27l-6.48-4.33c.32-.42.62-.84.91-1.27"/><path class="cls-2" d="M610.06,340.13l6.48,4.33q-.46.62-1,1.2l-6.48-4.33q.49-.58,1-1.2"/><path class="cls-2" d="M609.1,341.33l6.48,4.33q-.5.6-1,1.17l-6.48-4.34c.35-.37.69-.76,1-1.16"/><path class="cls-2" d="M608.08,342.49l6.48,4.34c-.36.38-.72.76-1.1,1.12L607,343.62c.37-.36.74-.74,1.1-1.13"/><path class="cls-2" d="M607,343.62l6.48,4.33c-.38.38-.78.75-1.18,1.1l-6.49-4.33c.41-.36.8-.72,1.19-1.1"/><path class="cls-2" d="M605.79,344.72l6.49,4.33c-.43.38-.87.74-1.31,1.08l-6.48-4.33c.44-.34.88-.71,1.3-1.08"/><path class="cls-2" d="M604.49,345.8l6.48,4.33q-.72.57-1.47,1.08L603,346.88c.51-.34,1-.7,1.48-1.08"/><path class="cls-2" d="M603,346.88l6.49,4.33c-.57.4-1.16.77-1.75,1.11L601.27,348q.88-.53,1.74-1.11"/><path class="cls-2" d="M601.27,348l6.48,4.33q-1.11.65-2.25,1.17L599,349.15c.76-.35,1.51-.74,2.25-1.16"/><path class="cls-2" d="M599,349.15l6.48,4.34a21.89,21.89,0,0,1-9,2.06L590,351.22a21.74,21.74,0,0,0,9-2.07"/></g></g></g><g class="cls-3"><g class="cls-3"><g class="cls-126"><g class="cls-3"><path class="cls-36" d="M666.48,85.22,673,89.55l.1.07-6.49-4.33-.1-.07"/><path class="cls-7" d="M666.58,85.29l6.49,4.33.11.09-6.49-4.33-.11-.09"/><path class="cls-7" d="M666.69,85.38l6.49,4.33.1.1-6.49-4.33a.94.94,0,0,0-.1-.1"/><path class="cls-39" d="M666.79,85.48l6.49,4.33.09.11-6.48-4.33-.1-.11"/><path class="cls-7" d="M666.89,85.59l6.48,4.33.09.12L667,85.71l-.09-.12"/><path class="cls-7" d="M667,85.71,673.46,90l.09.14-6.48-4.33-.09-.14"/><path class="cls-7" d="M667.07,85.85l6.48,4.33.08.15L667.15,86l-.08-.15"/><path class="cls-7" d="M667.15,86l6.48,4.33c0,.06,0,.12.08.19l-6.49-4.34-.07-.18"/><path class="cls-7" d="M667.22,86.18l6.49,4.34c0,.07,0,.15.07.23l-6.49-4.33a2.17,2.17,0,0,0-.07-.24"/><path class="cls-7" d="M667.29,86.42l6.49,4.33a1.93,1.93,0,0,1,.06.36l-6.48-4.34c0-.12,0-.24-.07-.35"/><path class="cls-7" d="M667.36,86.77l6.48,4.34a3.37,3.37,0,0,1,0,.77l-6.48-4.33a3.44,3.44,0,0,0,0-.78"/><path class="cls-7" d="M667.33,87.55l6.48,4.33s0,.06,0,.09l-6.48-4.33s0-.06,0-.09"/></g></g></g><polygon class="cls-127" points="667.31 87.64 673.79 91.97 666.11 130.71 659.63 126.38 667.31 87.64"/><g class="cls-3"><g class="cls-128"><g class="cls-3"><path class="cls-7" d="M659.63,126.38l6.48,4.33c0,.11-.05.21-.08.32l-6.48-4.33c0-.11.06-.22.08-.32"/><path class="cls-7" d="M659.55,126.7,666,131a1.34,1.34,0,0,1-.09.26L659.46,127l.09-.26"/><path class="cls-7" d="M659.46,127l6.48,4.33-.09.21-6.48-4.33.09-.21"/><path class="cls-7" d="M659.37,127.17l6.48,4.33-.09.19-6.49-4.33a1.14,1.14,0,0,0,.1-.19"/><path class="cls-7" d="M659.27,127.36l6.49,4.33-.1.17-6.48-4.33.09-.17"/><path class="cls-7" d="M659.18,127.53l6.48,4.33-.1.15-6.48-4.33a1.3,1.3,0,0,1,.1-.15"/><path class="cls-7" d="M659.08,127.68l6.48,4.33-.11.15L659,127.83l.11-.15"/><path class="cls-7" d="M659,127.83l6.48,4.33a1.34,1.34,0,0,1-.11.14L658.86,128l.11-.14"/><path class="cls-7" d="M658.86,128l6.48,4.33-.12.13-6.48-4.33.12-.13"/><path class="cls-7" d="M658.74,128.1l6.48,4.33-.12.13-6.49-4.33a.8.8,0,0,0,.13-.13"/><path class="cls-7" d="M658.61,128.23l6.49,4.33-.14.13-6.48-4.33a1.59,1.59,0,0,0,.13-.13"/><path class="cls-7" d="M658.48,128.36l6.48,4.33-.15.13-6.48-4.34.15-.12"/><path class="cls-7" d="M658.33,128.48l6.48,4.34-.17.12-6.49-4.33.18-.13"/><path class="cls-7" d="M658.15,128.61l6.49,4.33-.21.13L658,128.74a1.37,1.37,0,0,0,.2-.13"/><path class="cls-7" d="M658,128.74l6.48,4.33-.26.14-6.48-4.34.26-.13"/><path class="cls-7" d="M657.69,128.87l6.48,4.34a2.56,2.56,0,0,1-1,.24,1.9,1.9,0,0,1-1.07-.32l-6.48-4.33a1.9,1.9,0,0,0,1.07.31,2.44,2.44,0,0,0,1.05-.24"/></g></g></g><path class="cls-7" d="M665.4,84.9a2.08,2.08,0,0,1,1.91,2.74l-7.68,38.74a3.33,3.33,0,0,1-3,2.73,1.86,1.86,0,0,1-1.41-.6l8.53-43A2.76,2.76,0,0,1,665.4,84.9Z"/></g><polygon class="cls-129" points="664.25 42.31 664.06 44.04 631.76 206.99 613.11 301.09 612.62 302.82 611.85 304.43 610.85 305.89 609.67 307.15 608.33 308.2 606.88 308.99 605.34 309.49 603.77 309.67 472.81 309.67 472.71 309.66 472.53 309.66 472.44 309.65 472.34 309.64 472.25 309.63 472.17 309.63 472.04 309.6 471.92 309.59 471.82 309.57 471.73 309.56 471.66 309.54 471.59 309.53 471.47 309.51 471.34 309.47 471.23 309.44 471.13 309.41 471.05 309.39 470.98 309.37 470.92 309.35 470.86 309.33 470.81 309.31 470.69 309.26 470.58 309.22 470.49 309.18 470.41 309.15 470.34 309.12 470.29 309.1 470.24 309.07 470.19 309.05 470.06 308.99 469.96 308.94 469.88 308.89 469.81 308.85 469.75 308.81 469.69 308.78 469.64 308.75 469.6 308.72 469.48 308.64 469.38 308.57 469.3 308.51 469.23 308.46 469.11 308.36 469.06 308.32 469.01 308.29 468.91 308.2 468.82 308.12 468.67 307.97 468.6 307.91 468.55 307.84 468.43 307.72 468.36 307.63 468.29 307.56 468.23 307.48 468.18 307.42 468.14 307.36 468.09 307.31 468.06 307.26 468.02 307.21 467.95 307.09 467.88 306.99 467.83 306.91 467.79 306.85 467.75 306.79 467.72 306.74 467.69 306.69 467.67 306.64 467.6 306.51 467.55 306.41 467.5 306.32 467.46 306.24 467.43 306.17 467.41 306.13 467.38 306.08 467.36 306.03 467.31 305.89 467.26 305.77 467.22 305.67 467.19 305.59 467.17 305.52 467.15 305.46 467.13 305.42 467.12 305.36 467.07 305.22 467.04 305.09 467.01 304.98 466.99 304.89 466.97 304.81 466.95 304.74 466.94 304.69 466.93 304.63 466.9 304.46 466.87 304.31 466.85 304.18 466.83 304.07 466.81 303.96 466.8 303.87 466.79 303.78 466.79 303.69 466.78 303.56 466.77 303.44 466.77 303.34 466.76 303.25 466.76 302.7 466.77 302.48 466.78 302.25 466.8 302.02 466.83 301.8 466.86 301.57 466.94 301.09 517.9 44.04 518.39 42.31 519.16 40.7 520.15 39.24 521.34 37.97 522.67 36.93 524.13 36.14 525.67 35.65 527.25 35.47 658.12 35.47 659.63 35.65 660.97 36.14 662.1 36.93 663.03 37.97 663.71 39.24 664.13 40.7 664.25 42.31"/><path class="cls-130" d="M373.16,14.31C221.09,6,167.46,143.26,157.49,211.25c-4.18-5.6-11.33-13.72-19.16-16.26,0,0-8.21,53.84,10.21,91.52,0,0,25.17-61.31,49.68-76.87,0,0-16.58-3.65-28.52,1.13C195.83,165.83,256,75.41,327.1,55.06c104.78-30,186.19,21.73,217,98.53l13,1.34S524.78,22.64,373.16,14.31Z"/><polygon class="cls-131" points="244.98 346.28 296.81 342.93 325.71 362.18 297.88 383.17 240.01 390.12 244.98 346.28"/><path class="cls-132" d="M21.75,259.63l-.4-.06-.8-.11-.79-.08h-.11c-.23,0-.45,0-.68,0h-.8l-.4,0h-.14l-.26,0-.82.07-.68.1-.09,0H15.7l-.88.19c-.22.05-.44.12-.67.19L14,260l-.12,0c-.36.12-.72.24-1.07.39l-.22.11-.48.23c-.18.09-.38.17-.56.27s-.32.19-.49.29l-.22.14a96.2,96.2,0,0,0-7.51,6c.33-.37,2.7-1.2,3.07-1.53l.23-.2a11.3,11.3,0,0,1,1.17-.85l.24-.15a11.2,11.2,0,0,1,1-.55c.16-.08.32-.17.49-.24a14.69,14.69,0,0,1,1.41-.53l.18-.05a14,14,0,0,1,1.61-.38h.09a12.64,12.64,0,0,1,1.76-.18h.14a14.8,14.8,0,0,1,1.88,0h.05a19,19,0,0,1,2.06.26L221.08,277.2l3-3.43Z"/><path class="cls-133" d="M221.08,277.2c9.89,1.77,18.62,10.87,19.47,20.3L255.84,466c.86,9.43-6.48,15.67-16.37,13.91L37.11,465.77c-9.88-1.76-18.61-10.86-19.47-20.3L2.35,277c-.85-9.43,6.48-15.67,16.37-13.9Z"/><path class="cls-132" d="M258.94,464c0-.21,0-.42,0-.63a7.11,7.11,0,0,0-.05-.78h0L243.59,294.07l-.09-.77-.12-.78s0-.1,0-.16l0-.15c0-.16-.05-.31-.09-.47s-.12-.52-.2-.78a2.12,2.12,0,0,0-.09-.31c0-.06,0-.13-.05-.19l-.09-.31c-.09-.27-.19-.55-.29-.83-.05-.12-.09-.25-.14-.37l-.09-.21-.1-.27c-.13-.31-.27-.62-.41-.92,0-.09-.09-.18-.14-.28l-.13-.26c-.07-.15-.15-.3-.23-.45-.16-.32-.35-.63-.54-.95l-.05-.1s0,0,0,0c-.26-.42-.53-.84-.82-1.25l-.09-.12c-.26-.37-.53-.73-.81-1.09-.12-.14-.22-.3-.34-.44l-.06-.07-.25-.29c-.3-.35-.61-.7-.92-1l-.43-.44c-.28-.27-.56-.55-.85-.81s-.32-.3-.5-.45l-.87-.73-.52-.41c-.08-.06-.15-.13-.23-.18s-.34-.23-.5-.35c-.31-.22-.61-.43-.92-.63l-.26-.18c-.27-.17-.53-.32-.8-.47l-.37-.22-.12-.07-1.12-.58-.24-.11-.3-.13-.45-.21-.94-.38-.12,0-.21-.08-.57-.2-.86-.26-.16-.05-.19,0-.49-.13c-.27-.07-.55-.13-.82-.18l-.42-.08-3,3.43c.58.11,1.17.25,1.74.4l.16,0c.55.15,1.09.33,1.63.52l.17.06c.52.19,1,.41,1.54.64l.27.12c.5.24,1,.49,1.49.76l.39.24c.35.2.7.42,1,.63l.91.63c.26.18.51.35.75.54l.51.4c.3.24.59.49.88.74s.34.29.5.45l.84.81.43.45c.31.33.61.66.91,1,.09.11.18.2.26.31l.39.5c.28.36.56.72.82,1.09s.64.93.93,1.41a.2.2,0,0,0,0,.08c.28.46.54.94.78,1.42,0,.09.09.17.13.26.24.49.45,1,.65,1.47l.08.21c.2.49.37,1,.52,1.5l.06.2c.15.52.27,1,.38,1.56l0,.15a16.17,16.17,0,0,1,.24,1.7L255.84,466c0,.48.06.95.06,1.42a.33.33,0,0,1,0,.1q0,.66-.06,1.29a1.15,1.15,0,0,1,0,.18,11.77,11.77,0,0,1-.18,1.19,2.38,2.38,0,0,1-.05.26c-.07.32-.15.63-.24.94a2.29,2.29,0,0,1-.08.28c-.11.37-.25.74-.39,1.09a.14.14,0,0,0,0,.06.31.31,0,0,0-.05.1c-.17.38-.35.75-.55,1.1s-.29.47-.44.7l-.21.33c-.24.33-.49.65-.75,1l3-3.44a11.71,11.71,0,0,0,.76-1,2.68,2.68,0,0,1,.18-.28c.15-.23.3-.45.44-.69l0-.06a9.63,9.63,0,0,0,.5-1,1.4,1.4,0,0,0,.09-.17h0a9.56,9.56,0,0,0,.39-1l0-.14c0-.08.05-.17.08-.25l.15-.55.09-.42a1.84,1.84,0,0,0,.05-.25c0-.07,0-.13,0-.21,0-.26.09-.54.12-.81a1,1,0,0,0,0-.17c0-.06,0-.12,0-.18s0-.31,0-.45,0-.53,0-.79V464Z"/><path class="cls-131" d="M221.53,282.24c7,1.25,13.15,7.66,13.75,14.33l15.29,168.48c.61,6.68-4.56,11.07-11.56,9.83L36.65,460.75c-7-1.25-13.14-7.66-13.75-14.34L7.62,277.92c-.61-6.66,4.57-11.06,11.55-9.81Z"/><path class="cls-132" d="M183.07,527.8c.28,6.32-4.09,9.08-9.74,6.16L22,455.37C16.39,452.45,11.58,445,11.3,438.63l-7-160c-.27-6.32,4.09-9.08,9.74-6.16l151.29,78.58c5.65,2.93,10.46,10.42,10.74,16.75Z"/><path class="cls-133" d="M165.11,346.28,13.82,267.7c-8-4.13-14.19-.21-13.8,8.74l7,160c.39,8.94,7.23,19.6,15.22,23.73l151.29,78.59c8,4.14,14.2.21,13.8-8.74l-7-160C179.94,361.07,173.12,350.42,165.11,346.28ZM181,479.6l2.11,48.2c.28,6.32-4.09,9.08-9.74,6.16L22,455.37C16.39,452.45,11.58,445,11.3,438.63l-7-160c-.27-6.32,4.09-9.08,9.74-6.16l151.29,78.58c5.65,2.93,10.46,10.42,10.74,16.75l2.38,48.33L181,479.6Z"/><path class="cls-132" d="M22.65,262l-.46-.23-.58-.27-.38-.16-.11,0-.1,0-.57-.21-.58-.19-.1,0-.09,0-.38-.1-.59-.14-.29-.05-.12,0-.18,0a4.36,4.36,0,0,0-.62-.07l-.4,0h-.9l-.28,0-.23,0-.22,0a7.73,7.73,0,0,0-.81.16h0l-.22.08a5.82,5.82,0,0,0-.74.24l-.07,0a6.65,6.65,0,0,0-1.06.55L3.73,267.2a6,6,0,0,1,1.06-.56,7,7,0,0,1,.81-.28l.21-.06a7.2,7.2,0,0,1,1.05-.19h.21a7.8,7.8,0,0,1,1.08,0h.12c.4,0,.79.06,1.19.12l.13,0c.4.08.82.17,1.24.29l.11,0c.44.13.9.29,1.35.47l.1,0c.47.19.95.41,1.43.66l151.29,78.58,8.84-5.7Z"/><path class="cls-132" d="M189.13,363.68l-.06-.68c0-.11,0-.21,0-.31a.69.69,0,0,1,0-.13l0-.24c0-.22-.07-.45-.11-.68s-.09-.47-.14-.71v-.05l-.15-.65c-.05-.24-.12-.49-.18-.73l-.08-.28s0-.09,0-.14l-.09-.31c-.07-.25-.15-.5-.23-.74s-.13-.39-.2-.58a.08.08,0,0,0,0-.05.3.3,0,0,0,0-.1c-.08-.25-.17-.49-.26-.73l-.29-.71-.06-.14a.36.36,0,0,0,0-.09l-.19-.45c-.1-.23-.2-.45-.31-.67l-.24-.51,0-.05-.05-.11c-.11-.22-.23-.44-.34-.67s-.27-.48-.4-.73a.41.41,0,0,0-.07-.11.75.75,0,0,0-.07-.12c-.11-.2-.22-.4-.34-.6s-.3-.47-.44-.7l-.23-.37a.8.8,0,0,0-.09-.14l-.4-.58c-.21-.31-.41-.61-.63-.9l-.1-.15c-.31-.42-.63-.83-1-1.23s-.44-.54-.67-.79-.36-.41-.54-.61l0,0,0,0-.57-.61-.58-.59a.2.2,0,0,1-.08-.08.48.48,0,0,1-.11-.09l-.42-.4-.62-.57-.19-.15-.14-.12-.32-.27c-.21-.18-.43-.35-.65-.52l-.28-.2-.15-.12-.22-.16-.64-.44c-.15-.11-.31-.21-.47-.31l-.07,0a.47.47,0,0,0-.09-.06l-.62-.36a6.21,6.21,0,0,0-.61-.34l-.14-.08-8.84,5.7c.49.25,1,.53,1.45.83l.1.07q.66.42,1.32.9l.14.1c.42.32.85.66,1.26,1l.13.1c.42.36.83.74,1.23,1.13l.11.1c.42.41.84.84,1.24,1.28l0,.05a34.11,34.11,0,0,1,2.25,2.78c.21.28.41.58.61.87l.51.74.22.37c.27.42.53.85.78,1.28a1.09,1.09,0,0,0,.08.15c.3.53.58,1.06.85,1.6l0,.08c.26.53.51,1.06.73,1.6l0,.1c.23.56.45,1.11.64,1.67l0,.08c.19.54.36,1.07.51,1.6l.05.17c.15.54.28,1.09.39,1.63a.05.05,0,0,0,0,0c.11.56.2,1.1.27,1.65,0,0,0,.09,0,.13.07.55.11,1.09.14,1.63l7,160c0,.54,0,1,0,1.55,0,.05,0,.09,0,.14,0,.46-.07.9-.13,1.32,0,.06,0,.12,0,.17-.07.41-.15.8-.25,1.18a2,2,0,0,0-.06.23c-.11.35-.22.7-.35,1a.69.69,0,0,0,0,.1,7.33,7.33,0,0,1-.52,1,1.4,1.4,0,0,1-.1.16c-.15.25-.32.49-.49.72l-.22.26c-.16.18-.32.36-.5.53l-.22.21a7.57,7.57,0,0,1-.79.61l8.84-5.7a7.46,7.46,0,0,0,.78-.61l.23-.22c.17-.16.34-.34.5-.52l.22-.26c.17-.23.33-.47.49-.72a1.4,1.4,0,0,1,.1-.16l0,0a9.12,9.12,0,0,0,.49-1v0a1.21,1.21,0,0,0,.05-.14c.09-.21.17-.43.25-.66l.09-.34a1.66,1.66,0,0,0,.06-.21l.06-.2c.06-.24.11-.48.15-.73a2.19,2.19,0,0,0,0-.27l0-.16c0-.09,0-.18,0-.27h0c0-.22,0-.44.07-.68s0-.25,0-.38a.56.56,0,0,0,0-.13c0-.06,0-.11,0-.17,0-.22,0-.43,0-.66s0-.45,0-.68v0l-7-160C189.16,364.1,189.15,363.89,189.13,363.68Z"/><path class="cls-134" d="M511.29,56.07c-14.77-2.68-34.55,4.42-44.19,15.85s-5.48,22.87,9.29,25.54S510.94,93,520.57,81.61,526.05,58.74,511.29,56.07Z"/><path class="cls-135" d="M525.28,66.2c.05.16.1.31.14.48l.09.43c0,.16.07.33.1.5l.06.43c0,.17,0,.34.05.5s0,.31,0,.45,0,.35,0,.52,0,.3,0,.45,0,.37,0,.55,0,.31,0,.46,0,.37-.08.55,0,.31-.07.46-.09.45-.15.68l-.09.41c-.07.25-.15.51-.23.76s-.07.22-.1.34q-.21.61-.48,1.23c0,.1-.09.21-.14.31-.14.33-.29.65-.46,1-.07.14-.14.3-.22.44l-.31.56c-.1.17-.2.34-.31.51s-.23.38-.35.56l-.34.51-.4.57-.37.51c-.15.19-.29.38-.45.57s-.36.47-.56.7c-.37.44-.76.87-1.16,1.29l-.35.37c-.31.32-.63.64-.95,1-.11.12-.23.22-.34.33-.43.41-.87.8-1.33,1.19a2.65,2.65,0,0,1-.26.21c-.38.33-.77.64-1.16,1-.17.14-.35.27-.53.4l-.65.5-.59.43-.7.47-.6.41-.73.47-.61.38-.76.45c-.19.12-.39.23-.59.34-.55.32-1.1.62-1.66.92l-.24.13-1.49.74-.58.27-1,.45-.62.27-1,.42-.59.25-.89.33-.65.25-1,.33-.61.21c-.29.1-.59.19-.88.27l-.66.21-1,.29-.55.15c-.39.11-.79.21-1.18.3l-.37.09c-.52.13-1,.25-1.56.35l-.25,0c-.45.09-.9.18-1.35.25l-.55.1-1.05.16-.53.07-1.14.14-.62.06-1.05.09-.58,0c-.54,0-1.08.06-1.63.07h-.3c-.63,0-1.26,0-1.87,0l-.75,0-.6,0c-.29,0-.56,0-.84-.06l-.56,0-.91-.1-.46-.06c-.46-.06-.9-.13-1.35-.22-7.43-1.34-12.17-4.9-13.83-9.56.67,1.87,1.34,3.75,2,5.62,1.66,4.67,6.4,8.23,13.83,9.58.44.08.89.14,1.34.21l.48.06c.3,0,.6.08.89.1l.57,0,.83.06.62,0,.56,0h.17c.62,0,1.24,0,1.87,0h.3c.54,0,1.09,0,1.63-.07h.28l.31,0c.35,0,.7-.06,1.05-.09l.61-.06q.59-.06,1.17-.15l.41,0,.1,0,1.08-.17.51-.08,1.51-.29.09,0h0l1.56-.34.46-.12,1.09-.28h0l.56-.16c.32-.09.64-.17.95-.27l.64-.2c.31-.1.61-.18.91-.29l.08,0,.49-.17,1-.34.63-.24.91-.35.17-.06.41-.17,1-.44.61-.27,1-.44.34-.16.23-.12c.51-.24,1-.49,1.52-.75l.21-.11c.57-.3,1.13-.6,1.67-.92l.16-.08.41-.25.78-.46.6-.38.74-.48.59-.4.71-.48c.19-.15.39-.28.58-.42l.67-.51.31-.22.2-.16c.4-.32.8-.64,1.19-1l.24-.2c.45-.38.89-.79,1.33-1.19l.33-.32q.49-.48,1-1l.35-.36c.4-.43.79-.86,1.16-1.3l.3-.37.27-.34.43-.56.39-.52.39-.55.34-.53.35-.55c.11-.17.2-.34.3-.52s.21-.37.31-.55l.13-.23a2,2,0,0,0,.1-.21c.17-.32.32-.64.46-1,0-.11.1-.21.14-.32.18-.42.34-.83.48-1.24a.17.17,0,0,1,0-.05c0-.09,0-.18.07-.27.08-.26.17-.51.23-.77s.07-.28.1-.42.11-.45.15-.67a1.25,1.25,0,0,1,0-.19,2.51,2.51,0,0,0,0-.27c0-.18,0-.37.07-.55s0-.31.05-.47l0-.53c0-.09,0-.17,0-.25v-.22c0-.17,0-.34,0-.51l0-.45c0-.16,0-.33-.05-.49s0-.19,0-.28a1.36,1.36,0,0,0,0-.17,3.86,3.86,0,0,0-.09-.49c0-.15-.06-.29-.1-.43s-.08-.33-.13-.49,0-.19-.08-.28l-.09-.28c-.67-1.87-1.33-3.75-2-5.62C525.17,65.82,525.23,66,525.28,66.2Z"/><path class="cls-136" d="M509.37,58.1c-13.32-2.41-31.19,4-39.89,14.32s-4.94,20.65,8.39,23.06,31.19-4,39.89-14.32S522.71,60.52,509.37,58.1Z"/><path class="cls-134" d="M505.35,62.57c-10.18-1.84-23.83,3.06-30.48,10.94s-3.77,15.78,6.41,17.62,23.83-3,30.48-10.94S515.54,64.42,505.35,62.57Z"/><g class="cls-3"><path class="cls-137" d="M504.57,67.62l-3.2-.58-2,2.41c-4-.11-7.44,1.27-9.32,3.5-2.06,2.46-.75,4.15,2,5.7,1.88,1.07,2.42,1.86,1.61,2.82s-2.59,1.35-4.44,1h0a8.82,8.82,0,0,1-4.49-2.1l-3.47,2.78a10.15,10.15,0,0,0,4.64,2.1l-2,2.4,3.19.58,2.18-2.58c4.18.17,7.86-1.37,9.76-3.63s1.52-4-1.47-5.72c-2.09-1.31-2.79-2-2.09-2.88s1.88-1.3,4-.91a8.51,8.51,0,0,1,4,1.71l3.35-2.69a9.58,9.58,0,0,0-4-1.69l1.87-2.23Z"/></g><g class="cls-3"><path class="cls-138" d="M504,66.74l-3.2-.59-2,2.41c-3.95-.11-7.44,1.27-9.32,3.51-2.06,2.45-.75,4.14,2,5.69,1.88,1.07,2.42,1.86,1.61,2.82s-2.59,1.35-4.44,1h0a8.74,8.74,0,0,1-4.49-2.1l-3.47,2.79a10.26,10.26,0,0,0,4.64,2.09l-2,2.4,3.19.58,2.18-2.58c4.18.17,7.86-1.37,9.76-3.63s1.52-4-1.47-5.72c-2.09-1.31-2.79-2-2.09-2.88s1.88-1.3,4-.91a8.61,8.61,0,0,1,4,1.71l3.35-2.69a9.58,9.58,0,0,0-4-1.69L504,66.74Z"/></g><path class="cls-134" d="M296.85,18.84c-14.3,6.71-27,24.87-28.26,40.56s9.24,23,23.55,16.26,27-24.86,28.26-40.55S311.16,12.13,296.85,18.84Z"/><path class="cls-135" d="M315,19a4.54,4.54,0,0,1,.41.33l.35.31c.13.12.26.24.38.37l.32.34.35.4c.11.12.21.25.3.37l.32.43c.1.13.19.26.28.4s.2.32.3.49.17.28.25.42l.27.52c.07.14.15.29.22.44s.19.44.28.67.12.27.17.41.19.52.27.79l.12.35c.13.44.24.89.35,1.35l.06.35c.08.37.14.74.2,1.12,0,.17.05.34.07.51s.05.44.08.67,0,.41.05.62,0,.47,0,.7,0,.43,0,.65,0,.48,0,.73,0,.44,0,.66l0,.77c0,.3,0,.62-.06.94,0,.6-.12,1.21-.2,1.81,0,.18-.05.36-.08.54-.07.46-.16.92-.24,1.39l-.09.49q-.18.91-.42,1.83a2.14,2.14,0,0,1-.09.34c-.12.51-.27,1-.42,1.52-.06.23-.13.45-.2.67s-.18.55-.26.82-.17.49-.25.73-.21.56-.31.84l-.27.71c-.11.29-.22.57-.34.85s-.19.47-.29.7-.25.57-.37.85l-.3.65q-.42.91-.87,1.8c0,.09-.09.17-.13.26-.27.52-.54,1-.83,1.55-.1.19-.22.39-.33.58s-.37.65-.56,1-.24.41-.37.61-.41.66-.62,1-.23.38-.36.57-.37.56-.56.83l-.41.61-.61.86c-.13.19-.26.37-.4.55s-.38.52-.58.77l-.44.59-.69.85-.37.47c-.28.33-.55.66-.84,1L307,64c-.37.42-.74.83-1.13,1.24a1.62,1.62,0,0,1-.18.19c-.33.36-.66.71-1,1l-.41.41c-.26.26-.52.53-.8.78l-.41.39-.9.81-.49.43c-.28.25-.56.49-.85.72l-.47.39c-.45.36-.89.71-1.35,1l-.26.2c-.53.39-1.07.77-1.61,1.13l-.66.43-.54.34q-.37.24-.75.45l-.52.31c-.27.16-.56.31-.84.46l-.43.23c-.43.23-.86.44-1.29.64-7.2,3.38-13.44,3.21-17.71.22l5.15,3.61c4.27,3,10.51,3.17,17.71-.21.43-.2.86-.42,1.29-.64l.44-.24c.28-.15.56-.3.83-.46l.52-.3.74-.45.55-.35.51-.32a.71.71,0,0,1,.14-.1c.54-.37,1.08-.74,1.62-1.14l.24-.19c.46-.34.91-.69,1.36-1l.23-.18.26-.22q.42-.35.84-.72l.49-.42c.31-.27.61-.55.91-.84l.32-.29.08-.07.82-.81c.13-.13.27-.25.39-.38.38-.38.75-.78,1.12-1.17l.07-.06h0c.39-.41.76-.83,1.14-1.25.11-.12.21-.25.32-.38.26-.29.52-.6.77-.9l0,0,.38-.48c.22-.27.44-.54.65-.82s.29-.37.43-.56.41-.53.6-.8l.05-.06.33-.45.63-.9c.14-.19.27-.39.4-.59l.57-.85.11-.16.24-.39c.21-.34.43-.67.63-1l.36-.61c.19-.32.39-.64.57-1,.06-.12.14-.23.2-.35s.08-.16.13-.24c.29-.52.57-1,.84-1.57a1.51,1.51,0,0,1,.11-.22c.31-.61.6-1.21.88-1.82l.08-.16.2-.47.39-.87c.1-.23.19-.46.28-.69s.24-.58.35-.86.18-.47.26-.7.21-.57.32-.85.16-.47.23-.72.19-.56.28-.84c0-.13.09-.25.12-.38a2,2,0,0,0,.07-.26c.16-.52.3-1,.44-1.56,0-.1.05-.2.08-.31.16-.61.29-1.22.41-1.84,0-.15.07-.31.1-.47l.24-1.42c0-.17.05-.34.08-.52.08-.61.15-1.21.2-1.81,0-.18,0-.34,0-.51s0-.31,0-.46l0-.74c0-.23,0-.45,0-.68v-.71c0-.23,0-.44,0-.66s0-.47,0-.69l-.06-.63c0-.22,0-.44-.07-.66l0-.28c0-.08,0-.16,0-.24-.06-.38-.12-.74-.19-1.1,0-.12-.05-.25-.08-.37-.1-.46-.22-.91-.35-1.35a.15.15,0,0,0,0-.06l-.1-.27c-.09-.27-.17-.54-.27-.81s-.11-.28-.17-.41-.19-.46-.29-.67c0-.06-.05-.12-.08-.19l-.14-.25a5.12,5.12,0,0,0-.27-.52c-.08-.14-.16-.29-.25-.43s-.19-.32-.29-.47-.1-.15-.14-.23l-.14-.18c-.1-.15-.21-.29-.32-.43l-.3-.37-.35-.39c-.06-.07-.12-.15-.19-.22l-.13-.13-.38-.36c-.11-.11-.23-.21-.35-.31s-.27-.23-.41-.34l-.24-.19-.25-.18-5.14-3.61C314.72,18.74,314.88,18.88,315,19Z"/><path class="cls-136" d="M296.45,21.76c-12.91,6-24.34,22.44-25.52,36.61s8.35,20.75,21.27,14.69,24.34-22.45,25.52-36.62S309.37,15.7,296.45,21.76Z"/><path class="cls-134" d="M295.72,28c-9.86,4.63-18.59,17.16-19.49,28s6.38,15.84,16.25,11.21,18.6-17.15,19.49-28S305.6,23.41,295.72,28Z"/><g class="cls-3"><path class="cls-137" d="M298.14,32.86,295,34.31l-.27,3.29c-3.46,2.33-5.62,5.64-5.87,8.7-.27,3.37,1.89,4,5.17,3.68,2.27-.23,3.22.13,3.11,1.45s-1.4,2.73-3.2,3.57h0a9.17,9.17,0,0,1-5.13.93l-1.28,4.51a10.65,10.65,0,0,0,5.26-1l-.28,3.29,3.1-1.44.3-3.55c3.69-2.4,5.91-6,6.17-9.07s-1.11-4.32-4.75-4c-2.6.15-3.65-.06-3.56-1.2.08-1,.83-2.26,2.89-3.22a9.08,9.08,0,0,1,4.46-1l1.24-4.35a10.06,10.06,0,0,0-4.49,1l.25-3Z"/></g><g class="cls-3"><path class="cls-138" d="M297.08,32.46,294,33.91l-.27,3.29c-3.45,2.33-5.61,5.64-5.86,8.7-.28,3.37,1.88,4,5.17,3.68,2.27-.23,3.21.13,3.1,1.45s-1.4,2.73-3.2,3.57h0a9.21,9.21,0,0,1-5.14.94l-1.28,4.51a10.76,10.76,0,0,0,5.26-1l-.27,3.29,3.09-1.44.3-3.54c3.7-2.41,5.92-6,6.17-9.08s-1.1-4.32-4.75-4c-2.6.15-3.65-.06-3.55-1.2.08-1,.82-2.26,2.88-3.22a9,9,0,0,1,4.46-1l1.24-4.35a9.88,9.88,0,0,0-4.49,1l.25-3Z"/></g><g class="cls-139"><path class="cls-134" d="M114.89,271.79c-7.69,23.29-.72,56.92,15.58,75.12s35.77,14.07,43.46-9.22.72-56.91-15.58-75.1S122.58,248.5,114.89,271.79Z"/><path class="cls-135" d="M134.47,251.45c.27,0,.53-.09.81-.11l.72-.06.82,0h.72l.83,0c.24,0,.49,0,.73.07s.56,0,.84.09.49.07.73.12l.88.17.73.17.88.25.73.22,1.06.4.64.24c.39.17.79.35,1.19.55l.51.23c.64.32,1.26.67,1.9,1.06l.47.29c.49.31,1,.63,1.46,1,.21.16.44.3.66.46l.83.63.76.61.83.7.75.66.83.78.73.72.83.85c.33.35.67.7,1,1.08.62.69,1.23,1.42,1.82,2.16l.52.66c.44.57.88,1.16,1.31,1.75.17.21.31.42.46.63.56.79,1.1,1.59,1.62,2.42.1.15.2.31.29.47.44.68.85,1.38,1.26,2.09.19.31.36.63.54,1s.43.77.65,1.16l.56,1.06.61,1.24c.17.36.35.71.52,1.07s.4.85.59,1.28.33.72.48,1.08.38.88.56,1.32.28.7.42,1c.38,1,.75,1.92,1.11,2.9.05.13.09.28.15.42.29.86.58,1.71.86,2.58l.3,1c.18.56.34,1.12.5,1.68.1.36.21.71.31,1.07l.45,1.75c.09.34.18.67.26,1s.23,1,.34,1.51.17.74.25,1.12c.11.53.21,1.06.32,1.6.06.35.13.7.19,1,.1.5.18,1,.25,1.48s.13.75.18,1.12c.09.56.16,1.12.24,1.68,0,.31.09.62.13.92.08.67.15,1.33.21,2,0,.21,0,.42.07.62.08.87.15,1.74.2,2.6,0,.14,0,.28,0,.41,0,.75.09,1.51.11,2.25,0,.3,0,.61,0,.91,0,.58,0,1.15,0,1.73,0,.29,0,.58,0,.88,0,.63,0,1.25,0,1.88,0,.34,0,.68,0,1,0,.57,0,1.15-.1,1.72,0,.31,0,.62-.06.94-.07.89-.15,1.77-.26,2.65,0,.17,0,.34-.06.5-.12,1-.27,2-.43,3-.07.4-.15.8-.22,1.2s-.12.65-.19,1-.19.88-.29,1.33c-.07.29-.13.6-.21.9-.11.48-.25,1-.37,1.44-.07.25-.13.5-.2.74q-.32,1.08-.66,2.13c-3.87,11.72-10.71,18.58-18.63,20.2l9.56-1.95c7.93-1.62,14.77-8.48,18.64-20.2.23-.69.45-1.41.65-2.12.07-.26.14-.51.2-.76.13-.48.27-.95.38-1.42.07-.31.13-.61.21-.92s.19-.88.27-1.31.14-.67.2-1l.18-.91,0-.26c.17-1,.33-2,.45-3,0-.16,0-.32.05-.48.1-.88.19-1.77.26-2.66,0-.15,0-.3,0-.45l0-.51c0-.57.07-1.15.09-1.72,0-.34,0-.67,0-1,0-.63,0-1.28,0-1.92,0-.22,0-.44,0-.67v-.16c0-.6,0-1.2,0-1.8,0-.28,0-.56,0-.84,0-.83-.07-1.67-.13-2.51a.65.65,0,0,0,0-.14h0c-.06-.87-.13-1.74-.2-2.61l-.09-.77c-.06-.61-.12-1.23-.2-1.84v-.06c-.05-.31-.1-.63-.14-.94-.07-.54-.14-1.07-.22-1.61,0-.36-.12-.72-.18-1.08-.08-.51-.16-1-.26-1.53a.69.69,0,0,0,0-.13c0-.28-.1-.56-.15-.84-.12-.55-.22-1.11-.34-1.67l-.24-1.07c-.12-.52-.24-1.05-.35-1.57,0-.09,0-.18-.07-.28s-.12-.46-.18-.7c-.15-.59-.3-1.19-.47-1.78-.09-.35-.2-.7-.29-1.06-.17-.56-.33-1.12-.5-1.67-.06-.2-.11-.4-.18-.6s-.09-.26-.14-.4c-.27-.88-.56-1.75-.87-2.62-.05-.12-.09-.25-.13-.37-.35-1-.72-2-1.11-2.92,0-.09-.06-.18-.1-.27-.1-.24-.21-.48-.3-.73-.2-.45-.38-.9-.57-1.36l-.48-1c-.2-.44-.4-.88-.61-1.31s-.33-.7-.51-1-.41-.85-.62-1.27-.36-.69-.55-1-.44-.81-.66-1.21l-.29-.54c-.07-.12-.14-.24-.22-.36-.43-.73-.85-1.45-1.29-2.15a3.78,3.78,0,0,1-.26-.43c-.53-.83-1.08-1.63-1.64-2.42-.14-.21-.29-.41-.44-.61-.44-.61-.88-1.2-1.34-1.78l-.5-.65q-.9-1.11-1.83-2.16l-.53-.58c-.17-.19-.33-.34-.5-.52s-.53-.55-.79-.82-.5-.5-.77-.74l-.8-.76c-.26-.23-.5-.45-.77-.67l-.82-.7c-.25-.21-.5-.4-.76-.6s-.55-.43-.83-.63l-.35-.27-.3-.2c-.49-.34-1-.66-1.45-1l-.49-.31c-.64-.38-1.27-.73-1.9-1l-.08-.05-.41-.18c-.4-.2-.8-.38-1.2-.55l-.66-.26c-.35-.13-.7-.27-1.05-.38l-.3-.11-.42-.11c-.3-.1-.59-.18-.88-.25s-.5-.13-.75-.18-.57-.12-.86-.17l-.4-.08-.35,0-.82-.1-.73-.06-.82,0c-.16,0-.3,0-.45,0h-.29l-.82,0-.72.06-.81.11-.48.06-.47.09-9.56,1.95Z"/><path class="cls-136" d="M117.75,275.35c-7,21-.66,51.39,14.07,67.82s32.29,12.71,39.24-8.32S171.7,283.46,157,267,124.69,254.32,117.75,275.35Z"/><path class="cls-134" d="M124.05,282.87c-5.29,16.07-.47,39.27,10.77,51.83s24.67,9.7,30-6.37.5-39.26-10.75-51.81S129.37,266.81,124.05,282.87Z"/><g class="cls-3"><path class="cls-137" d="M132.06,285.28l-1.67,5.05,3.43,3.82c-1.06,6.37.37,12.34,3.55,15.89,3.5,3.9,6.55,2.15,9.67-1.91,2.16-2.81,3.57-3.49,4.94-2s1.58,4.49.62,7.42c0,0,0,0,0,0a14.3,14.3,0,0,1-4.42,6.79l3.72,6.25c1.43-1.07,3.2-3.69,4.44-7l3.42,3.82,1.67-5-3.68-4.12c1.24-6.73-.42-13-3.65-16.62s-6-3.37-9.59,1.07c-2.59,3.09-3.95,4.05-5.14,2.73-1-1.13-1.66-3.34-.55-6.69a13.92,13.92,0,0,1,3.67-6.06l-3.58-6a15.56,15.56,0,0,0-3.66,6.13l-3.18-3.54Z"/></g><g class="cls-3"><path class="cls-138" d="M130.49,286.05l-1.67,5.05,3.42,3.82c-1.06,6.37.37,12.34,3.56,15.89,3.5,3.89,6.54,2.15,9.66-1.91,2.16-2.81,3.57-3.5,4.94-2s1.59,4.49.62,7.42c0,0,0,0,0,0a14.22,14.22,0,0,1-4.41,6.79l3.71,6.25c1.43-1.07,3.2-3.69,4.45-7l3.41,3.82,1.68-5-3.68-4.11c1.23-6.73-.43-13-3.65-16.63s-6.05-3.36-9.59,1.08c-2.6,3.09-4,4.05-5.15,2.73-1-1.14-1.66-3.34-.55-6.69a14,14,0,0,1,3.67-6.06l-3.58-6a15.62,15.62,0,0,0-3.66,6.14l-3.17-3.54Z"/></g></g><polygon class="cls-140" points="248.32 346.28 255.91 388.21 252.12 388.67 248.32 346.28"/><polygon class="cls-2" points="589.64 109.44 570.3 206.99 534.64 206.99 554.31 109.17 589.64 109.44"/><polygon class="cls-123" points="588.84 113.28 570.22 207 539.85 206.99 557.66 113.1 588.84 113.28"/><g class="cls-141"><path class="cls-134" d="M582.42,193.44c13.24-17.06,17.36-47,9.19-66.94s-25.54-22.22-38.78-5.15-17.36,47-9.19,66.93S569.17,210.5,582.42,193.44Z"/><path class="cls-135" d="M560.17,204.56l-.7-.15-.61-.17c-.24-.06-.47-.13-.7-.21l-.6-.21c-.22-.09-.46-.17-.67-.27a5.46,5.46,0,0,1-.6-.27c-.22-.1-.44-.2-.66-.32l-.58-.31-.68-.41-.55-.36-.66-.46-.54-.4c-.25-.2-.51-.42-.76-.64l-.46-.39c-.28-.26-.55-.53-.82-.8l-.36-.35c-.44-.45-.85-.93-1.27-1.43l-.3-.39q-.46-.59-.93-1.23l-.41-.58c-.17-.25-.33-.51-.5-.77s-.31-.48-.45-.72-.33-.55-.48-.83l-.43-.77-.46-.89c-.14-.27-.26-.54-.4-.82s-.29-.62-.44-.95-.35-.77-.51-1.18c-.31-.76-.61-1.54-.88-2.33l-.24-.71c-.2-.6-.38-1.22-.57-1.84-.07-.22-.14-.44-.2-.66-.23-.82-.44-1.64-.63-2.48,0-.15-.07-.31-.1-.47-.17-.7-.3-1.41-.43-2.11-.06-.32-.12-.63-.17-.94s-.13-.77-.19-1.17-.11-.69-.16-1-.09-.8-.14-1.21-.08-.69-.11-1-.09-.83-.12-1.24-.06-.69-.08-1,0-.84-.07-1.26,0-.66,0-1q0-1.37-.06-2.73c0-.13,0-.26,0-.39,0-.8,0-1.6,0-2.4,0-.3,0-.61,0-.91,0-.52.05-1,.08-1.55,0-.32,0-.64.07-1,0-.53.08-1.06.14-1.59,0-.31.05-.61.08-.91.05-.46.11-.91.16-1.37s.08-.66.12-1l.21-1.43.15-.92c.06-.44.14-.87.23-1.3s.11-.66.17-1l.3-1.47c.06-.27.11-.54.17-.8.13-.58.26-1.15.41-1.71,0-.18.08-.36.13-.54.19-.74.38-1.48.59-2.22,0-.12.07-.23.11-.35.18-.63.37-1.27.57-1.89.08-.26.17-.51.25-.77.16-.47.31-1,.49-1.44.08-.24.17-.48.26-.72.19-.52.38-1,.59-1.56.1-.27.21-.55.33-.83.18-.47.38-.94.58-1.4l.33-.76c.32-.72.65-1.42,1-2.13a3.6,3.6,0,0,0,.2-.39c.4-.81.82-1.61,1.25-2.38L549,127l.44-.76c.21-.35.42-.68.64-1s.28-.46.44-.68.49-.73.73-1.09c.13-.19.25-.38.38-.56.38-.54.78-1.06,1.18-1.57,6.66-8.59,14.36-12.27,21.41-11.27l-8.51-1.2c-7.06-1-14.76,2.68-21.42,11.27-.4.51-.79,1-1.17,1.57l-.39.57c-.24.36-.5.71-.73,1.07l-.44.7c-.21.33-.42.67-.62,1l-.46.77-.41.7-.11.21c-.44.79-.86,1.57-1.27,2.39-.06.12-.12.26-.17.38-.35.7-.68,1.41-1,2.13,0,.12-.11.24-.17.37l-.17.41c-.19.46-.39.93-.58,1.4l-.33.82c-.2.52-.4,1.06-.59,1.59-.08.18-.14.36-.21.55a1.21,1.21,0,0,1-.05.14c-.17.5-.34,1-.5,1.5-.08.23-.16.46-.23.7-.23.7-.44,1.41-.64,2.12a.56.56,0,0,0,0,.12h0c-.22.74-.41,1.48-.61,2.23l-.15.66c-.13.52-.26,1.05-.38,1.58,0,0,0,0,0,.06-.06.27-.11.54-.17.82-.1.46-.2.93-.29,1.39s-.11.64-.17.95-.17.9-.24,1.35a.43.43,0,0,1,0,.11c0,.25-.07.5-.12.75l-.21,1.49-.12,1c0,.46-.11.93-.16,1.4l0,.25c0,.21,0,.42-.05.63l-.15,1.62-.06,1c0,.51-.06,1-.08,1.53l0,.55V161c0,.81-.05,1.62-.05,2.44,0,.11,0,.22,0,.34,0,.92,0,1.84.06,2.75a2.09,2.09,0,0,0,0,.25c0,.24,0,.47,0,.7,0,.43.05.86.07,1.3l.09,1c0,.42.08.85.12,1.26s.07.68.11,1l.15,1.24c0,.33.09.67.15,1s.12.8.19,1.2c0,.18.05.36.09.53s0,.24.07.37c.14.73.28,1.45.44,2.16,0,.15.06.29.09.44.19.84.42,1.67.65,2.49,0,.21.11.43.18.64.19.63.38,1.25.59,1.86.07.23.15.46.22.69.28.79.57,1.57.88,2.34l.27.63c.09.21.18.39.26.58l.42.92c.14.28.27.56.42.84s.29.58.44.86.29.53.44.78.31.56.47.83.3.48.46.72.33.52.5.77l.21.32c.07.09.14.17.2.26.3.43.61.83.92,1.22l.31.4c.42.5.84,1,1.27,1.43l0,.06.29.27c.28.28.55.56.84.82l.46.4c.25.22.51.43.77.63.07.05.14.12.21.18s.22.14.32.22l.65.46.58.37c.21.14.43.27.65.39l.31.19.28.14.66.32.59.26c.22.1.45.19.67.27l.37.14.24.08.69.21.62.16c.23.06.47.1.7.15l.42.09.41.06,8.51,1.2C560.72,204.67,560.45,204.61,560.17,204.56Z"/><path class="cls-136" d="M581.09,189.64c12-15.39,15.68-42.45,8.3-60.43s-23.06-20.06-35-4.66S538.7,167,546.08,185,569.14,205.05,581.09,189.64Z"/><path class="cls-134" d="M578.07,181.54c9.13-11.77,12-32.45,6.33-46.18s-17.61-15.33-26.75-3.55-12,32.44-6.33,46.17S568.93,193.31,578.07,181.54Z"/><g class="cls-3"><path class="cls-137" d="M572.14,177.18l2.87-3.7-1.72-4.17c2.76-5,3.33-10.36,1.73-14.24-1.75-4.27-4.79-3.71-8.58-1.26-2.62,1.69-4,1.85-4.68.17s0-4.2,1.67-6.34c0,0,0,0,0,0a12.56,12.56,0,0,1,5.66-4.33L567.87,137a14.81,14.81,0,0,0-5.76,4.53l-1.71-4.18L557.53,141l1.84,4.5c-3,5.22-3.49,11-1.87,14.87s4,4.58,8.28,1.94c3.06-1.8,4.47-2.2,5.07-.75.51,1.24.4,3.26-1.51,5.71a12.39,12.39,0,0,1-4.83,3.95l1.19,6.06a13.54,13.54,0,0,0,4.85-4l1.59,3.87Z"/></g><g class="cls-3"><path class="cls-138" d="M573.67,177l2.88-3.7-1.73-4.18c2.77-5,3.33-10.35,1.74-14.23-1.76-4.27-4.8-3.72-8.59-1.26-2.62,1.69-4,1.84-4.68.17s0-4.2,1.68-6.34c0,0,0,0,0,0a12.55,12.55,0,0,1,5.67-4.33l-1.24-6.29a14.66,14.66,0,0,0-5.77,4.53l-1.71-4.18-2.87,3.69,1.84,4.49c-3,5.23-3.48,10.95-1.87,14.88s4,4.57,8.28,1.93c3.07-1.8,4.48-2.19,5.07-.75.51,1.24.4,3.27-1.51,5.72a12.42,12.42,0,0,1-4.83,4l1.19,6.06a13.71,13.71,0,0,0,4.85-4l1.59,3.88Z"/></g></g><path class="cls-134" d="M421.21.9c-21.12,4.54-43.57,24.82-50.13,45.31s5.25,33.45,26.37,28.91S441,50.31,447.56,29.82,442.33-3.63,421.21.9Z"/><path class="cls-135" d="M445.38,6.72c.16.19.31.36.45.56l.36.52c.14.2.27.4.4.62s.22.36.32.54l.35.64c.1.19.19.39.28.59s.2.44.29.67.17.41.25.61.17.5.25.75.14.42.2.63.14.52.2.78.11.43.16.65.12.65.17,1,.07.4.1.6c0,.37.09.76.11,1.14,0,.17,0,.33.05.5,0,.63.06,1.26.05,1.91,0,.16,0,.33,0,.49,0,.5,0,1-.08,1.54,0,.23,0,.47-.06.7s-.07.61-.11.92-.07.56-.12.84-.1.63-.16,1-.11.57-.17.86-.15.65-.22,1-.15.58-.22.88-.18.66-.28,1-.23.82-.37,1.24c-.25.78-.53,1.57-.83,2.35-.09.22-.18.46-.27.69-.24.59-.49,1.18-.74,1.78l-.28.63c-.35.77-.72,1.54-1.11,2.3l-.23.43c-.32.64-.67,1.27-1,1.89-.15.28-.31.56-.48.83s-.39.67-.6,1l-.55.9-.67,1-.58.87-.71,1c-.2.29-.4.57-.61.85l-.75,1c-.2.27-.4.52-.6.78q-.84,1.08-1.71,2.13l-.25.3c-.52.61-1,1.21-1.58,1.81l-.62.67c-.34.38-.7.76-1.05,1.13l-.68.7c-.37.38-.74.76-1.13,1.13-.21.22-.43.44-.65.65l-1,.94-.74.68-1.07,1-.71.61c-.33.29-.67.57-1,.84l-.77.65c-.39.31-.78.61-1.17.93-.22.16-.43.34-.64.5-.47.36-.94.71-1.42,1-.15.1-.3.22-.44.33-.63.44-1.25.89-1.89,1.31l-.3.2c-.55.37-1.1.73-1.66,1.08-.22.15-.45.28-.68.43-.43.26-.86.53-1.3.78-.22.14-.45.26-.67.39-.48.27-1,.55-1.45.81l-.79.43c-.45.24-.89.47-1.35.69l-.74.37c-.71.34-1.41.67-2.13,1l-.41.17c-.82.36-1.66.7-2.49,1l-1,.37-.83.29-1.14.37c-.26.08-.52.17-.78.24-.42.13-.85.25-1.26.36l-.65.18c-.64.17-1.28.32-1.91.45-10.63,2.28-18.89.14-23.65-5.16l5.74,6.4c4.76,5.3,13,7.45,23.65,5.16.63-.13,1.27-.29,1.91-.45l.67-.18c.41-.12.83-.22,1.24-.35l.79-.25,1.12-.38.85-.29.76-.27.22-.09c.84-.32,1.68-.65,2.51-1l.38-.18c.72-.32,1.43-.65,2.14-1l.37-.17.4-.21,1.34-.69c.26-.14.52-.27.78-.42.49-.27,1-.54,1.48-.83l.51-.29.13-.07,1.34-.83c.22-.12.43-.25.64-.39.62-.39,1.24-.79,1.84-1.21l.11-.06h0c.64-.43,1.27-.87,1.9-1.31l.54-.41c.44-.32.88-.64,1.31-1l0,0,.66-.52c.37-.29.75-.58,1.12-.89l.74-.61c.35-.3.71-.58,1.05-.88l.09-.07.57-.5,1.12-1,.71-.66,1-1,.19-.18.44-.45,1.15-1.15.67-.69c.35-.38.71-.75,1.05-1.13l.38-.4c.08-.09.15-.19.24-.28.54-.6,1.08-1.21,1.6-1.83l.22-.26c.6-.71,1.17-1.43,1.73-2.15l.15-.19.42-.56.79-1,.58-.83.73-1c.19-.29.38-.57.56-.86s.46-.69.69-1,.36-.57.53-.87.42-.69.63-1l.28-.47a3.24,3.24,0,0,0,.17-.32c.37-.65.72-1.29,1.06-1.94l.21-.39c.4-.77.76-1.55,1.11-2.32.1-.2.19-.41.27-.61.27-.6.52-1.2.76-1.81.08-.22.17-.44.26-.67.3-.78.58-1.57.84-2.35.07-.23.13-.44.2-.66s.11-.41.17-.61l.27-1c.08-.31.15-.6.22-.91s.15-.64.22-1,.12-.59.16-.88.12-.63.17-.94.09-.56.12-.85.08-.6.11-.91c0-.12,0-.25.05-.38a1.72,1.72,0,0,1,0-.32c0-.52.06-1,.08-1.53,0-.17,0-.34,0-.51,0-.65,0-1.29-.05-1.91v-.08c0-.13,0-.26,0-.39,0-.39-.07-.78-.12-1.16,0-.2-.06-.41-.1-.61s-.11-.66-.17-1a2.8,2.8,0,0,1-.06-.28,2.54,2.54,0,0,0-.1-.37c-.06-.27-.13-.53-.2-.78s-.13-.43-.2-.65-.16-.48-.25-.72l-.12-.34c0-.1-.09-.19-.12-.29l-.3-.67c-.09-.19-.18-.39-.28-.58s-.22-.43-.34-.63l-.19-.35-.14-.22-.39-.6-.37-.52-.44-.57-.26-.33-.28-.32-5.74-6.39C445,6.28,445.21,6.5,445.38,6.72Z"/><path class="cls-136" d="M419.78,4.66c-19.07,4.09-39.33,22.4-45.26,40.91s4.74,30.2,23.8,26.11,39.33-22.41,45.26-40.92S438.85.57,419.78,4.66Z"/><path class="cls-134" d="M416.87,12.81c-14.56,3.13-30,17.13-34.57,31.27S385.92,67.14,400.49,64s30-17.12,34.56-31.25S431.44,9.69,416.87,12.81Z"/><g class="cls-3"><path class="cls-137" d="M418.61,20l-4.58,1-1.37,4.31c-5.32,2-9.22,5.78-10.49,9.78-1.4,4.39,1.28,5.93,5.76,6.49,3.09.39,4.24,1.15,3.69,2.88s-2.71,3.2-5.37,3.77h0a12.51,12.51,0,0,1-7.12-.33L396,53.46c1.45.61,4.23.78,7.32.24L402,58l4.58-1L408,52.4c5.66-2.06,9.72-6.14,11-10.18s-.14-6.1-5.09-6.81c-3.51-.6-4.84-1.2-4.37-2.69.41-1.27,1.8-2.75,4.84-3.4a12.3,12.3,0,0,1,6.24.09l3-5.41a13.71,13.71,0,0,0-6.3-.05l1.28-4Z"/></g><g class="cls-3"><path class="cls-138" d="M417.32,19.11l-4.58,1-1.37,4.3c-5.31,2-9.21,5.78-10.49,9.78-1.4,4.4,1.28,5.93,5.76,6.49,3.09.4,4.24,1.16,3.69,2.89s-2.71,3.2-5.36,3.77h0a12.62,12.62,0,0,1-7.13-.34l-3.09,5.61a14.68,14.68,0,0,0,7.32.25l-1.38,4.29,4.57-1,1.49-4.62c5.66-2.07,9.71-6.14,11-10.19s-.14-6.09-5.09-6.8c-3.5-.6-4.84-1.2-4.36-2.7.41-1.27,1.79-2.75,4.83-3.4a12.41,12.41,0,0,1,6.24.09l3-5.41a13.71,13.71,0,0,0-6.29,0l1.27-4Z"/></g><path class="cls-134" d="M242.1,96c-17.54-12.59-47.64-15.59-67.23-6.68s-21.25,26.35-3.7,39,47.64,15.59,67.22,6.68S259.65,108.65,242.1,96Z"/><path class="cls-135" d="M254,117.86c0,.24-.07.47-.12.7s-.09.42-.14.63-.12.46-.19.7-.12.4-.18.6-.16.47-.25.69-.16.41-.24.6l-.3.68c-.1.19-.19.39-.29.59l-.38.69-.34.57-.44.67c-.12.19-.25.37-.38.55s-.4.53-.61.79l-.38.48c-.24.28-.5.57-.77.85l-.33.37c-.44.45-.89.88-1.38,1.32l-.38.31c-.38.33-.78.66-1.2,1l-.56.43c-.24.18-.49.35-.75.53l-.7.48-.81.51-.76.46-.87.49-.8.43-.93.47c-.38.18-.76.38-1.17.56-.75.34-1.52.66-2.3,1l-.69.27-1.82.64-.65.22c-.81.26-1.62.5-2.46.73l-.46.11q-1,.29-2.1.51l-.93.21-1.16.23-1,.19-1.2.19c-.35.05-.69.11-1,.15s-.82.12-1.23.17l-1,.12-1.25.12-1,.08c-.9.07-1.81.12-2.72.17h-.4c-.8,0-1.59,0-2.39,0h-.92l-1.54,0-1,0L207.5,140l-.92,0-1.37-.11-1-.09-1.43-.15-.93-.11c-.44-.05-.87-.12-1.3-.18l-1-.14-1.48-.25-.81-.13c-.57-.11-1.15-.22-1.72-.35l-.54-.11c-.75-.16-1.5-.32-2.24-.51a3.58,3.58,0,0,1-.35-.09c-.65-.16-1.29-.32-1.92-.5l-.77-.22-1.46-.43-.74-.24c-.52-.17-1.05-.34-1.57-.53l-.84-.3c-.48-.17-1-.34-1.43-.53l-.77-.3c-.73-.3-1.45-.6-2.16-.92l-.4-.18c-.83-.37-1.64-.76-2.43-1.16l-1-.5-.77-.41-1-.6-.7-.41-1.12-.7-.57-.36c-.55-.36-1.09-.73-1.61-1.11-8.83-6.34-12.8-13.9-12.07-21q-.43,4.28-.88,8.55c-.73,7.09,3.23,14.65,12.06,21,.53.38,1.08.75,1.62,1.11l.59.37c.36.23.72.47,1.09.69s.48.27.71.42.69.39,1,.57.52.3.78.44l.72.38.21.1c.81.41,1.61.8,2.44,1.18l.39.16c.71.32,1.43.63,2.16.92l.37.16.43.16c.46.18.94.35,1.41.52l.84.31,1.61.53c.18.06.36.13.55.18l.14.05,1.52.44c.24.07.47.15.71.21.71.2,1.43.38,2.14.55l.12,0h0l2.25.52.67.13c.53.11,1.06.22,1.6.31l.05,0,.83.13c.47.08.93.17,1.41.24l.95.13c.45.07.9.14,1.35.19l.12,0,.74.09c.5.05,1,.11,1.5.15l1,.09,1.4.11.26,0,.63,0,1.62.08,1,0,1.54,0h.92c.81,0,1.62,0,2.43,0h.35c.92,0,1.83-.09,2.74-.16l.25,0c.24,0,.47,0,.7-.06l1.29-.12,1-.12,1.26-.17c.34,0,.68-.09,1-.15l1.23-.19,1-.19,1.19-.24.53-.1L227,147c.73-.17,1.44-.33,2.15-.52l.43-.11c.84-.22,1.65-.47,2.47-.73l.63-.21c.62-.21,1.23-.43,1.84-.66l.68-.25c.78-.31,1.55-.63,2.3-1l.63-.3c.2-.09.37-.19.56-.28s.61-.3.9-.46.55-.28.83-.44l.84-.48c.27-.15.52-.3.77-.47l.81-.5.7-.48.75-.53.31-.22c.09-.07.17-.15.26-.21.41-.32.8-.64,1.18-1l.39-.34q.74-.65,1.38-1.32l.06-.05.26-.3c.27-.28.53-.57.78-.86l.39-.48.6-.79.17-.22a3.62,3.62,0,0,0,.2-.33c.16-.22.31-.45.44-.67s.24-.39.35-.59.25-.44.37-.67.12-.21.17-.31.08-.2.13-.29.2-.45.3-.66.16-.41.24-.6.17-.46.24-.69.09-.24.13-.37,0-.16.07-.25l.18-.69c0-.21.09-.42.14-.62s.09-.47.12-.71a3.34,3.34,0,0,0,.07-.42c0-.14,0-.27.06-.42.29-2.84.58-5.7.87-8.55C254.13,117.3,254.08,117.58,254,117.86Z"/><path class="cls-136" d="M238.36,97.51c-15.84-11.37-43-14.08-60.7-6s-19.19,23.8-3.35,35.17,43,14.08,60.71,6S254.2,108.88,238.36,97.51Z"/><path class="cls-134" d="M230.37,100.83c-12.1-8.69-32.87-10.75-46.38-4.6s-14.66,18.18-2.55,26.86,32.86,10.76,46.37,4.61S242.48,109.53,230.37,100.83Z"/><g class="cls-3"><path class="cls-137" d="M226.24,106.92l-3.8-2.73-4.11,1.88c-5.08-2.58-10.47-2.94-14.29-1.2-4.2,1.91-3.54,4.93-.94,8.62,1.78,2.56,2,3.92.34,4.67s-4.19.15-6.4-1.43c0,0,0,0,0,0a12.63,12.63,0,0,1-4.54-5.5l-6.23,1.48c.52,1.48,2.26,3.66,4.74,5.59l-4.11,1.86,3.79,2.73,4.42-2c5.34,2.8,11.07,3.07,14.94,1.31s4.42-4.2,1.62-8.35c-1.91-3-2.36-4.39-.94-5,1.22-.55,3.25-.52,5.77,1.3a12.38,12.38,0,0,1,4.13,4.68l6-1.42a13.63,13.63,0,0,0-4.19-4.69l3.81-1.74Z"/></g><g class="cls-3"><path class="cls-138" d="M226,105.4l-3.8-2.74-4.11,1.88c-5.08-2.57-10.47-2.94-14.29-1.2-4.2,1.91-3.54,4.93-.94,8.63,1.78,2.55,2,3.92.34,4.67s-4.19.14-6.4-1.44c0,0,0,0,0,0a12.67,12.67,0,0,1-4.54-5.5L186,111.16c.52,1.49,2.26,3.66,4.74,5.59l-4.11,1.87,3.79,2.73,4.42-2c5.33,2.81,11.07,3.07,14.94,1.31s4.42-4.2,1.62-8.34c-1.91-3-2.36-4.39-.94-5,1.22-.55,3.25-.52,5.77,1.29a12.45,12.45,0,0,1,4.13,4.68l6-1.41a13.64,13.64,0,0,0-4.19-4.7L226,105.4Z"/></g></g></g></svg>