<svg xmlns="http://www.w3.org/2000/svg" xmlns:xlink="http://www.w3.org/1999/xlink" viewBox="0 0 681.82 540.39" xmlns:v="https://vecta.io/nano"><style><![CDATA[.C{isolation:isolate}.Bl{fill:none}.Bm{fill:#2e5070}.Bn{fill:#20384f}.Bo{fill:#33597d}.Bp{fill:#689ed1}.Bq{fill:#ffd453}.Br{fill:#284561}.Bs{fill:#2b4c6a}.Bt{fill:#294764}.Bu{fill:#2a4967}.Bv{fill:#2d4e6d}.Bw{fill:#305477}.Bx{fill:#32567a}.By{fill:#2f5274}.Bz{fill:#426485}.CA{fill:#517ca3}.CB{fill:#547fa8}.CC{fill:#345b80}.CD{fill:#5683ad}.CE{fill:#5987b3}.CF{fill:#5b8bb8}.CG{fill:#5e8fbd}.CH{fill:#6193c2}.CI{fill:#6397c7}.CJ{fill:#669acc}.CK{fill:#3e6c98}.CL{fill:#213a52}.CM{fill:#e6b147}.CN{fill:#ffe39b}.CO{fill:#df775d}.CP{fill:#ff9378}.CQ{fill:#26435e}.CR{fill:#25415b}.CS{fill:#243f58}.CT{fill:#233c55}.CU{fill:#6b8094}.CV{fill:#45688a}.CW{fill:#476c8f}.CX{fill:#4a7094}.CY{fill:#4c7499}.CZ{fill:#4f789e}.Ca{fill:#828282}.Cb{fill:#5d6f80}.Cc{fill:#607284}.Cd{fill:#637688}.Ce{fill:#66798c}.Cf{fill:#687d90}.Cg{fill:#6e8398}.Ch{fill:#71879c}.Ci{fill:#748aa0}.Cj{fill:#778ea4}.Ck{fill:#56d4b7}.Cl{fill:#6ba2d6}.Cm{fill:#919191}.Cn{fill:#949494}.Co{fill:#969696}.Cp{fill:#9c9c9c}.Cq{fill:#9e9e9e}.Cr{fill:#a1a1a1}.Cs{fill:#a3a3a3}.Ct{fill:#a6a6a6}.Cu{fill:#a8a8a8}.Cv{fill:#7fc1ff}]]></style><defs><clipPath id="A"><path d="M511.05 71.1l-6.48-4.34a1.53 1.53 0 0 0 .48.23l6.48 4.33a2.09 2.09 0 0 1-.48-.22z" class="Bl"/></clipPath><clipPath id="B"><path d="M527.19 35.55l6.48 4.33c-4.23 0-8.41 3.83-9.35 8.56l-6.48-4.33c.94-4.73 5.16-8.56 9.35-8.56z" class="Bl"/></clipPath><clipPath id="C"><path d="M504.6 103.66l-6.48-4.33a1.87 1.87 0 0 0 .47.23l6.48 4.33a1.87 1.87 0 0 1-.47-.23z" class="Bl"/></clipPath><clipPath id="D"><path d="M590.24,30.63h0l-6.48-4.33h0l6.48,4.34Z" class="Bl"/></clipPath><clipPath id="E"><path d="M592.85,28.22a2.92,2.92,0,0,0-2.61,2.41l-6.48-4.34a2.92,2.92,0,0,1,2.61-2.4Z" class="Bl"/></clipPath><clipPath id="F"><path d="M590.24,30.63a2,2,0,0,0,.72,2.12l-6.48-4.34a2,2,0,0,1-.72-2.11Z" class="Bl"/></clipPath><clipPath id="G"><path d="M591 32.75l-6.48-4.34a1.63 1.63 0 0 0 .94.28L591.9 33a1.73 1.73 0 0 1-.9-.25z" class="Bl"/></clipPath><clipPath id="H"><path d="M599.68,21.54h0l-6.48-4.33h0l6.48,4.33Z" class="Bl"/></clipPath><clipPath id="I"><path d="M603.24,18.28a4,4,0,0,0-3.56,3.26l-6.48-4.33A4,4,0,0,1,596.76,14Z" class="Bl"/></clipPath><clipPath id="J"><path d="M604.51,18.65a2.31,2.31,0,0,0-1.27-.37L596.76,14a2.26,2.26,0,0,1,1.27.37Z" class="Bl"/></clipPath><clipPath id="K"><path d="M599.68,21.54a2.72,2.72,0,0,0,1,2.88l-6.48-4.33a2.73,2.73,0,0,1-1-2.88Z" class="Bl"/></clipPath><clipPath id="L"><path d="M598 14.32l6.48 4.33a2.73 2.73 0 0 1 1 2.89A4 4 0 0 1 602 24.8a2.31 2.31 0 0 1-1.29-.38l-6.48-4.33a2.27 2.27 0 0 0 1.28.37 4 4 0 0 0 3.49-3.25 2.73 2.73 0 0 0-1-2.89z" class="Bl"/></clipPath><clipPath id="M"><path d="M610.61,28.5a1.63,1.63,0,0,0-.94-.28l-6.48-4.33a1.63,1.63,0,0,1,.94.28Z" class="Bl"/></clipPath><clipPath id="N"><path d="M604.13 24.17l6.48 4.33a2 2 0 0 1 .73 2.13 2.93 2.93 0 0 1-2.62 2.37l-6.48-4.33a2.93 2.93 0 0 0 2.62-2.4 2 2 0 0 0-.73-2.1z" class="Bl"/></clipPath><clipPath id="O"><path d="M471.41 309.58l6.49 4.34-.66-.19-6.48-4.34a5.61 5.61 0 0 0 .65.19z" class="Bl"/></clipPath><clipPath id="P"><path d="M472.11 309.7l6.48 4.33-.69-.11-6.49-4.34c.16.04.31.06.7.12z" class="Bl"/></clipPath><clipPath id="Q"><path d="M472.84 309.74l6.48 4.33a5.85 5.85 0 0 1-.73 0l-6.48-4.33a5.85 5.85 0 0 0 .73 0z" class="Bl"/></clipPath><clipPath id="R"><path d="M667.91,40.86a6,6,0,0,0-3.36-1l-6.49-4.33a6,6,0,0,1,3.37,1Z" class="Bl"/></clipPath><clipPath id="S"><path d="M661.42 36.53l6.49 4.33c2.14 1.43 3.24 4.29 2.58 7.58L664 44.11c.66-3.29-.43-6.11-2.58-7.58z" class="Bl"/></clipPath><clipPath id="T"><path d="M541.67,322.65c-6,0-11.93,5.45-13.26,12.16l-6.48-4.33c1.33-6.72,7.27-12.16,13.26-12.16Z" class="Bl"/></clipPath><clipPath id="U"><path d="M534,333.59a9.59,9.59,0,0,0-.39,1.29l-6.48-4.34a7.9,7.9,0,0,1,.39-1.28Z" class="Bl"/></clipPath><clipPath id="V"><path d="M533.59 334.88v.11l-6.48-4.34a.52.52 0 0 1 0-.11z" class="Bl"/></clipPath><clipPath id="W"><path d="M533.57,335c0,.2-.07.4-.1.61L527,331.26c0-.2.06-.4.1-.61Z" class="Bl"/></clipPath><clipPath id="X"><path d="M533.47,335.6v0L527,331.31v-.05Z" class="Bl"/></clipPath><clipPath id="Y"><path d="M538.17,329.05a8.24,8.24,0,0,0-3.53,3.23l-6.49-4.34a8.35,8.35,0,0,1,3.54-3.22Z" class="Bl"/></clipPath><clipPath id="Z"><path d="M533.43 336.38l-6.43-4.33a6.23 6.23 0 0 1 0-.74l6.48 4.33a6.23 6.23 0 0 0-.05.74z" class="Bl"/></clipPath><clipPath id="a"><path d="M539.35,328.63a6.39,6.39,0,0,0-1.18.42l-6.48-4.33a6.39,6.39,0,0,1,1.18-.42Z" class="Bl"/></clipPath><clipPath id="b"><path d="M539.42,328.62h-.07l-6.48-4.33h.07Z" class="Bl"/></clipPath><clipPath id="c"><path d="M539.42 328.62l-6.48-4.33a5.28 5.28 0 0 1 1.25-.15l6.49 4.33a5.3 5.3 0 0 0-1.26.15z" class="Bl"/></clipPath><clipPath id="d"><path d="M541.21,328.5a4.58,4.58,0,0,0-.53,0l-6.49-4.33a4.75,4.75,0,0,1,.54,0Z" class="Bl"/></clipPath><clipPath id="e"><path d="M541.88,328.62a3.76,3.76,0,0,0-.67-.12l-6.48-4.33a3.5,3.5,0,0,1,.66.12Z" class="Bl"/></clipPath><clipPath id="f"><path d="M537.85,325.93l-2.46-1.64h.05l2,1.32,1.26.84,3.24,2.17h0Z" class="Bl"/></clipPath><clipPath id="g"><path d="M541.94,328.63h0l-.75-.51-.4-.26-5.33-3.56h0Z" class="Bl"/></clipPath><clipPath id="h"><path d="M546.45,324.05a8.41,8.41,0,0,0-4.78-1.4l-6.48-4.33a8.48,8.48,0,0,1,4.78,1.39Z" class="Bl"/></clipPath><clipPath id="i"><path d="M528.41,334.81c-.93,4.68.62,8.74,3.67,10.78l-6.48-4.33c-3.05-2-4.6-6.1-3.67-10.78Z" class="Bl"/></clipPath><clipPath id="j"><path d="M543.22,329.22a4.28,4.28,0,0,0-1.28-.59l-6.48-4.33a4.52,4.52,0,0,1,1.28.58Z" class="Bl"/></clipPath><clipPath id="k"><path d="M533.43,336.38a5.08,5.08,0,0,0,2.11,4.37l-6.48-4.33a5.08,5.08,0,0,1-2.11-4.37Z" class="Bl"/></clipPath><clipPath id="l"><path d="M536.34 325.49l6.48 4.33a4.1 4.1 0 0 0-2.28-.66c-2.87 0-5.72 2.61-6.35 5.83a4.85 4.85 0 0 0 1.76 5.15l-6.48-4.33a4.87 4.87 0 0 1-1.76-5.16c.63-3.21 3.48-5.83 6.35-5.83a4 4 0 0 1 2.28.67z" class="Bl"/></clipPath><clipPath id="m"><path d="M538.23,340.81a4,4,0,0,1-2.28-.67l-6.48-4.33a4,4,0,0,0,2.28.67Z" class="Bl"/></clipPath><clipPath id="n"><path d="M542.82,329.82a4.9,4.9,0,0,1,1.76,5.17l-6.48-4.34a4.89,4.89,0,0,0-1.76-5.16Z" class="Bl"/></clipPath><clipPath id="o"><path d="M544.58,335c-.64,3.21-3.48,5.82-6.35,5.82l-6.48-4.33c2.86,0,5.71-2.61,6.35-5.83h0Z" class="Bl"/></clipPath><clipPath id="p"><path d="M536.74 324.88l6.48 4.34a5.43 5.43 0 0 1 2 5.77c-.71 3.58-3.9 6.51-7.1 6.51a4.55 4.55 0 0 1-2.54-.74l-6.49-4.34a4.53 4.53 0 0 0 2.55.75c3.2 0 6.39-2.93 7.1-6.52a5.46 5.46 0 0 0-2-5.77z" class="Bl"/></clipPath><clipPath id="q"><path d="M540 319.71l6.48 4.33c3 2 4.6 6.1 3.67 10.77-1.33 6.72-7.27 12.17-13.27 12.17a8.48 8.48 0 0 1-4.77-1.39l-6.48-4.33a8.48 8.48 0 0 0 4.77 1.39c6 0 11.94-5.45 13.27-12.17.9-4.67-.67-8.73-3.67-10.77z" class="Bl"/></clipPath><clipPath id="r"><path d="M629.74 204.46l6.48 4.33a5.21 5.21 0 0 1 2 2.61l-6.48-4.33a5.21 5.21 0 0 0-2-2.61z" class="Bl"/></clipPath><clipPath id="s"><path d="M613.05 301.18l6.48 4.33c-.93 4.73-5.12 8.56-9.34 8.56l-6.48-4.33c4.22 0 8.41-3.84 9.34-8.56z" class="Bl"/></clipPath><clipPath id="t"><path d="M667.68 8.78l6.48 4.33c5.93 4 8.94 11.86 7.14 21l-6.49-4.34c1.81-9.14-1.21-17.03-7.13-20.99z" class="Bl"/></clipPath><clipPath id="u"><path d="M615.77 327.57l6.48 4.33c-2.59 13.06-14.14 23.65-25.8 23.65l-6.45-4.33c11.63 0 23.18-10.59 25.77-23.65z" class="Bl"/></clipPath><clipPath id="v"><path d="M666.48 85.22l6.52 4.33a2.29 2.29 0 0 1 .82 2.42l-6.48-4.33a2.28 2.28 0 0 0-.86-2.42z" class="Bl"/></clipPath><clipPath id="w"><path d="M662.05 133.13l-6.48-4.33a1.9 1.9 0 0 0 1.07.31 3.33 3.33 0 0 0 3-2.73l6.48 4.33a3.34 3.34 0 0 1-3 2.74 1.9 1.9 0 0 1-1.07-.32z" class="Bl"/></clipPath><clipPath id="x"><path d="M109.85 307.29l69.92 37.6 51.74-41.57s-41.39-75.91-101.12-61.2-20.54 65.17-20.54 65.17z" class="Bl"/></clipPath><clipPath id="y"><path d="M587.58 119.71l-19.43 100.88-60.33-11.62 22.49-116.8 60.47 9.87-3.2 17.67z" class="Bl"/></clipPath><path id="z" d="M583.83 26l6.48 4.34a2.29 2.29 0 0 0-.07.28v.07l-6.49-4.33v-.08c0-.03 0-.18.07-.28"/><path id="AA" d="M593.29,16.83l6.49,4.33c0,.13-.07.25-.1.38s0,.07,0,.11l-6.48-4.34a.44.44,0,0,1,0-.1c0-.13.06-.25.09-.38"/><path id="AB" d="M540,319.71l6.48,4.33a8.48,8.48,0,0,0-4.78-1.39,11.18,11.18,0,0,0-4.64,1.06l-6.49-4.33a11.23,11.23,0,0,1,4.65-1.06,8.48,8.48,0,0,1,4.78,1.39"/><path id="AC" d="M522.28,329.06l6.48,4.33a14,14,0,0,0-.35,1.42c0,.13,0,.26-.07.39l-6.49-4.33c0-.13,0-.26.08-.39a14,14,0,0,1,.35-1.42"/><path id="AD" d="M527.28 329.9l6.48 4.33a6.49 6.49 0 0 0-.19.76v.2l-6.48-4.33a1.55 1.55 0 0 1 0-.21 6.87 6.87 0 0 1 .19-.75"/><path id="AE" d="M527.05,330.86l6.48,4.33a6.83,6.83,0,0,0-.07,1.85L527,332.71a6.83,6.83,0,0,1,.07-1.85"/><path id="AF" d="M536.74,324.88l6.48,4.34a4.47,4.47,0,0,0-2.54-.75,5.92,5.92,0,0,0-2.49.57l-6.48-4.33a5.91,5.91,0,0,1,2.48-.57,4.56,4.56,0,0,1,2.55.74"/><path id="AG" d="M534,336l6.48,4.33a5.26,5.26,0,0,1-2.22.51,4,4,0,0,1-2.28-.67l-6.48-4.33a4,4,0,0,0,2.28.67A5.29,5.29,0,0,0,534,336"/><path id="AH" d="M538.13 330.47l6.48 4.33v.19a5.06 5.06 0 0 1-.17.67l-6.48-4.33c.07-.22.12-.45.17-.68v-.18"/></defs><path d="M452.87,335.6s3.46,19.95,23.43,19.95" class="CK"/><g class="C Bn" clip-path="url(#A)"><g><path d="M505.05,67l6.48,4.33a2.09,2.09,0,0,1-.48-.22l-6.48-4.34a1.53,1.53,0,0,0,.48.23"/></g></g><path d="M510.11 41.45l6.48 4.34-5.06 25.53-6.48-4.33 5.06-25.54z" fill="#376086"/><path d="M510.11 41.46L505.05 67a2.17 2.17 0 0 1-1.31-2.65l4-20.23a3.5 3.5 0 0 1 2.37-2.66z" class="Bm"/><g class="C" clip-path="url(#B)"><g><path d="M527.19,35.55l6.48,4.33a7.78,7.78,0,0,0-3.28.75l-6.48-4.34a7.88,7.88,0,0,1,3.28-.74" class="Bz"/><path d="M523.91,36.29l6.48,4.34a6.92,6.92,0,0,0-.81.42l-6.49-4.33a9.16,9.16,0,0,1,.82-.43" class="CV"/><path d="M523.09,36.72l6.49,4.33c-.22.12-.43.26-.64.4l-6.48-4.33a7.33,7.33,0,0,1,.63-.4" class="CW"/><path d="M522.46,37.12l6.48,4.33a6.55,6.55,0,0,0-.53.39l-6.48-4.33a6.55,6.55,0,0,1,.53-.39" class="CX"/><path d="M521.93,37.51l6.48,4.33-.47.39-6.49-4.33.48-.39" class="CY"/><path d="M521.45,37.9l6.49,4.33-.43.4L521,38.3l.43-.4" class="CZ"/><path d="M521 38.3l6.49 4.33-.4.41-6.48-4.33.39-.41" class="CA"/><path d="M520.63 38.71l6.48 4.29-.37.42-6.48-4.33a5 5 0 0 1 .37-.42" class="CB"/><path d="M520.26 39.13l6.48 4.33-.35.44-6.48-4.34.35-.43" class="CD"/><path d="M519.91 39.56l6.48 4.34-.33.45-6.48-4.35.33-.46" class="CE"/><path d="M519.58,40l6.48,4.33-.32.49-6.48-4.33.32-.49" class="CF"/><path d="M519.26,40.51l6.48,4.33-.3.53L519,41a5.54,5.54,0,0,1,.3-.53" class="CG"/><path d="M519,41l6.48,4.33-.3.58-6.48-4.33A6.36,6.36,0,0,1,519,41" class="CH"/><path d="M518.66 41.62l6.48 4.38-.28.67-6.49-4.33.29-.67" class="CI"/><path d="M518.37,42.29l6.49,4.33c-.11.27-.2.55-.29.83l-6.48-4.34c.08-.28.18-.55.28-.82" class="CJ"/><path d="M518.09 43.11l6.48 4.34c-.1.32-.18.66-.25 1l-6.48-4.33.25-1" class="Bp"/></g></g><g class="C Bn" clip-path="url(#C)"><g><path d="M498.59,99.56l6.48,4.33a1.87,1.87,0,0,1-.47-.23l-6.48-4.33a1.87,1.87,0,0,0,.47.23"/></g></g><path d="M503.65 74.02l6.49 4.33-5.07 25.54-6.48-4.33 5.06-25.54z" fill="#376086"/><path d="M503.65,74l-5.06,25.54a2.18,2.18,0,0,1-1.3-2.66l4-20.22A3.49,3.49,0,0,1,503.65,74Z" class="Bm"/><g class="C Bp" clip-path="url(#D)"><g><use xlink:href="#z"/></g></g><g class="C" clip-path="url(#E)"><g><path d="M586.37,23.89l6.48,4.33a2.24,2.24,0,0,0-.91.21l-6.48-4.33a2.24,2.24,0,0,1,.91-.21" class="Bz"/><path d="M585.46,24.1l6.48,4.33-.23.12-6.48-4.33.23-.12" class="CV"/><path d="M585.23,24.22l6.48,4.33-.17.11-6.49-4.33.18-.11" class="CW"/><path d="M585.05,24.33l6.49,4.33-.15.11-6.48-4.33.14-.11" class="CX"/><path d="M584.91,24.44l6.48,4.33-.13.11-6.49-4.33.14-.11" class="CY"/><path d="M584.77,24.55l6.49,4.33a.65.65,0,0,0-.12.11l-6.49-4.33.12-.11" class="CZ"/><path d="M584.65 24.66l6.49 4.34-.12.12-6.48-4.34a.57.57 0 0 0 .11-.11" class="CA"/><path d="M584.54 24.77l6.46 4.34-.1.11-6.48-4.33.1-.12" class="CB"/><path d="M584.44,24.89l6.48,4.33a1.47,1.47,0,0,0-.1.13L584.34,25l.1-.12" class="CD"/><path d="M584.34,25l6.48,4.34-.09.12-6.48-4.33.09-.13" class="CE"/><path d="M584.25,25.14l6.48,4.33-.09.14-6.48-4.33.09-.14" class="CF"/><path d="M584.16,25.28l6.48,4.33a1.09,1.09,0,0,0-.08.15l-6.49-4.33.09-.15" class="CG"/><path d="M584.07,25.43l6.49,4.33-.09.16L584,25.59c0-.05,0-.11.08-.16" class="CH"/><path d="M584,25.59l6.48,4.33c0,.07-.05.13-.08.19l-6.48-4.33c0-.06.05-.13.08-.19" class="CI"/><path d="M583.91,25.78l6.48,4.33c0,.08,0,.16-.08.24L583.83,26a2.09,2.09,0,0,1,.08-.23" class="CJ"/><use xlink:href="#z" class="Bp"/></g></g><g class="C" clip-path="url(#F)"><g><use xlink:href="#z" class="Bp"/><path d="M583.74,26.37l6.49,4.33a2.64,2.64,0,0,0,0,.68l-6.48-4.33a2.62,2.62,0,0,1,0-.68" class="Cl"/><path d="M583.72,27.05l6.48,4.33a3.06,3.06,0,0,0,0,.32l-6.48-4.33a3.06,3.06,0,0,1,0-.32" class="Bp"/><path d="M583.77,27.37l6.48,4.33a1.18,1.18,0,0,0,.07.2l-6.49-4.33-.06-.2" class="CJ"/><path d="M583.83,27.57l6.49,4.33.06.16-6.48-4.33c0-.05,0-.1-.07-.16" class="CI"/><path d="M583.9,27.73l6.48,4.33.07.14L584,27.87c0-.05-.05-.09-.07-.14" class="CH"/><path d="M584,27.87l6.48,4.33.08.12L584.05,28a1,1,0,0,1-.08-.11" class="CG"/><path d="M584.05,28l6.48,4.34.08.1-6.48-4.33a.44.44,0,0,1-.08-.11" class="CF"/><path d="M584.13,28.09l6.48,4.33.08.1-6.48-4.33-.08-.1" class="CE"/><path d="M584.21,28.19l6.48,4.33.09.08-6.48-4.33-.09-.08" class="CD"/><path d="M584.3,28.27l6.48,4.33a.39.39,0,0,0,.1.08l-6.49-4.33-.09-.08" class="CB"/><path d="M584.39 28.35l6.49 4.33a.27.27 0 0 0 .08.07l-6.57-4.4" class="CA"/></g></g><g class="C Bn" clip-path="url(#G)"><g><path d="M585.42,28.69,591.9,33a1.73,1.73,0,0,1-.94-.27l-6.48-4.34a1.63,1.63,0,0,0,.94.28"/></g></g><g class="C Bp" clip-path="url(#H)"><g><use xlink:href="#AA"/></g></g><g class="C" clip-path="url(#I)"><g><path d="M596.76,14l6.48,4.33a2.9,2.9,0,0,0-1.25.29l-6.48-4.34a3,3,0,0,1,1.25-.28" class="Bz"/><path d="M595.51,14.23,602,18.57a2.29,2.29,0,0,0-.31.16l-6.48-4.34.31-.16" class="CV"/><path d="M595.2,14.39l6.48,4.34a1.58,1.58,0,0,0-.24.15L595,14.55l.24-.16" class="CW"/><path d="M595,14.55l6.48,4.33-.2.15-6.49-4.33a1.37,1.37,0,0,1,.21-.15" class="CX"/><path d="M594.75 14.7l6.49 4.3-.18.15-6.49-4.33a1.19 1.19 0 0 1 .18-.15" class="CY"/><path d="M594.57,14.85l6.49,4.33-.17.15L594.41,15a1.1,1.1,0,0,1,.16-.15" class="CZ"/><path d="M594.41,15l6.48,4.33-.15.15-6.48-4.33.15-.15" class="CA"/><path d="M594.26,15.15l6.48,4.33-.14.16-6.48-4.33.14-.16" class="CB"/><path d="M594.12 15.31l6.48 4.33-.13.17-6.47-4.33.13-.17" class="CD"/><path d="M594,15.48l6.48,4.33-.13.17-6.48-4.33.13-.17" class="CE"/><path d="M593.86 15.65l6.48 4.35-.12.19-6.48-4.33.12-.19" class="CF"/><path d="M593.74,15.84l6.48,4.33a2,2,0,0,0-.11.2L593.62,16l.12-.2" class="CG"/><path d="M593.62,16l6.49,4.33-.12.22-6.48-4.33.11-.22" class="CH"/><path d="M593.51 16.26l6.49 4.33-.11.26-6.48-4.33c0-.09.07-.18.11-.26" class="CI"/><path d="M593.4,16.52l6.48,4.33c0,.1-.07.21-.1.31l-6.49-4.33c0-.11.07-.21.11-.31" class="CJ"/><use xlink:href="#AA" class="Bp"/></g></g><g class="C Bz" clip-path="url(#J)"><g><path d="M598,14.32l6.48,4.33a2.31,2.31,0,0,0-1.27-.37L596.76,14a2.26,2.26,0,0,1,1.27.37"/></g></g><g class="C" clip-path="url(#K)"><g><use xlink:href="#AA" class="Bp"/><path d="M593.18,17.31l6.48,4.34a4.13,4.13,0,0,0,0,.92l-6.48-4.33a3.29,3.29,0,0,1,0-.93" class="Cl"/><path d="M593.14,18.24l6.48,4.33a2.61,2.61,0,0,0,.08.42l-6.48-4.33a2.84,2.84,0,0,1-.08-.42" class="Bp"/><path d="M593.22,18.66,599.7,23a2.29,2.29,0,0,0,.08.28l-6.48-4.33a2.29,2.29,0,0,1-.08-.28" class="CJ"/><path d="M593.3,18.94l6.48,4.33.09.22-6.48-4.33-.09-.22" class="CI"/><path d="M593.39,19.16l6.48,4.33.1.18-6.48-4.33a1.62,1.62,0,0,1-.1-.18" class="CH"/><path d="M593.49,19.34,600,23.67c0,.06.07.11.1.16l-6.48-4.33a.86.86,0,0,1-.1-.16" class="CG"/><path d="M593.59,19.5l6.48,4.33.11.15-6.48-4.33-.11-.15" class="CF"/><path d="M593.7 19.65l6.48 4.35.11.13-6.48-4.33-.11-.13" class="CE"/><path d="M593.81,19.78l6.48,4.33.12.12-6.48-4.34-.12-.11" class="CD"/><path d="M593.93,19.89l6.48,4.34a.69.69,0,0,1,.13.11L594.06,20l-.13-.11" class="CB"/><path d="M594.06,20l6.48,4.34.12.08-6.48-4.33-.12-.09" class="CA"/></g></g><g class="C" clip-path="url(#L)"><g><path d="M598,14.32l6.48,4.33.12.09-6.48-4.33-.12-.09" class="Br"/><path d="M598.15,14.41l6.48,4.33a.69.69,0,0,1,.13.11l-6.48-4.33-.13-.11" class="Bt"/><path d="M598.28,14.52l6.48,4.33.12.12-6.48-4.34-.12-.11" class="Bu"/><path d="M598.4 14.63l6.48 4.37.12.13-6.49-4.34-.11-.13" class="Bs"/><path d="M598.51,14.76,605,19.1l.1.14-6.48-4.33-.11-.15" class="Bv"/><path d="M598.62,14.91l6.48,4.33a1.4,1.4,0,0,1,.1.16l-6.48-4.33a.86.86,0,0,0-.1-.16" class="Bm"/><path d="M598.72,15.07l6.48,4.33a1.14,1.14,0,0,1,.1.19l-6.48-4.34a1.62,1.62,0,0,0-.1-.18" class="By"/><path d="M598.82,15.25l6.48,4.34.09.21-6.48-4.33-.09-.22" class="Bw"/><path d="M598.91,15.47l6.48,4.33.09.28L599,15.75a2.29,2.29,0,0,0-.08-.28" class="Bx"/><path d="M599,15.75l6.49,4.33a3,3,0,0,1,.07.43l-6.48-4.33a3,3,0,0,0-.08-.43" class="Bo"/><path d="M599.07,16.18l6.48,4.33a3.29,3.29,0,0,1,0,.93L599,17.11a3.29,3.29,0,0,0,0-.93" class="CC"/><path d="M599,17.11l6.48,4.33a.36.36,0,0,1,0,.1,2.34,2.34,0,0,1-.09.38l-6.48-4.33a2.62,2.62,0,0,0,.09-.38.36.36,0,0,0,0-.1" class="Bo"/><path d="M598.92,17.59l6.48,4.33a2.83,2.83,0,0,1-.11.31l-6.48-4.33c0-.1.08-.21.11-.31" class="Bx"/><path d="M598.81,17.9l6.48,4.33c0,.09-.07.17-.11.26l-6.48-4.34a1.89,1.89,0,0,0,.11-.25" class="Bw"/><path d="M598.7,18.15l6.48,4.34a2.26,2.26,0,0,1-.11.22l-6.48-4.33a2.4,2.4,0,0,0,.11-.23" class="By"/><path d="M598.59,18.38l6.48,4.33-.11.2-6.49-4.33.12-.2" class="Bm"/><path d="M598.47 18.58l6.53 4.33-.12.18-6.49-4.33a.94.94 0 0 0 .12-.18" class="Bv"/><path d="M598.35,18.76l6.49,4.33-.13.18-6.48-4.33.12-.18" class="Bs"/><path d="M598.23 18.94l6.48 4.33-.13.16-6.48-4.33a1.83 1.83 0 0 1 .13-.16" class="Bu"/><path d="M598.1 19.1l6.48 4.33-.14.16-6.44-4.33.15-.16" class="Bt"/><path d="M598,19.26l6.49,4.33a1.21,1.21,0,0,1-.16.16l-6.48-4.33.15-.16" class="Br"/><path d="M597.8,19.42l6.48,4.33-.16.15-6.48-4.33.16-.15" class="CQ"/><path d="M597.64,19.57l6.48,4.33-.18.15-6.48-4.33.18-.15" class="CR"/><path d="M597.46,19.72l6.48,4.33-.2.15-6.48-4.33.2-.15" class="CS"/><path d="M597.26,19.87l6.48,4.33-.24.15L597,20l.25-.15" class="CT"/><path d="M597 20l6.49 4.33-.31.16-6.48-4.33.3-.16" class="CL"/><path d="M596.71,20.18l6.48,4.33a3,3,0,0,1-1.24.29,2.31,2.31,0,0,1-1.29-.38l-6.48-4.33a2.27,2.27,0,0,0,1.28.37,3,3,0,0,0,1.25-.28" class="Bn"/></g></g><path d="M596.76,14c1.6,0,2.61,1.46,2.25,3.26a4,4,0,0,1-3.55,3.25c-1.6,0-2.62-1.46-2.26-3.25A4,4,0,0,1,596.76,14Z" class="Bm"/><path d="M603.19 23.89l6.48 4.34h-16.82l-6.48-4.34h16.82z" fill="#406180"/><g class="C Bz" clip-path="url(#M)"><g><path d="M604.13,24.17l6.48,4.33a1.63,1.63,0,0,0-.94-.28l-6.48-4.33a1.63,1.63,0,0,1,.94.28"/></g></g><path d="M602.24 28.69l6.48 4.33H591.9l-6.48-4.33h16.82z" fill="#1f364c"/><g class="C" clip-path="url(#N)"><g><path d="M604.13 24.17l6.48 4.33.09.06-6.57-4.39" class="Br"/><path d="M604.22,24.23l6.48,4.33.1.08-6.48-4.33-.1-.08" class="Bt"/><path d="M604.32,24.31l6.48,4.33.09.09-6.48-4.33-.09-.09" class="Bu"/><path d="M604.41,24.4l6.48,4.33a.39.39,0,0,1,.08.1l-6.48-4.34-.08-.09" class="Bs"/><path d="M604.49 24.49l6.51 4.34.08.1-6.48-4.33-.08-.11" class="Bv"/><path d="M604.57,24.6l6.48,4.33.08.12-6.49-4.33a.75.75,0,0,0-.07-.12" class="Bm"/><path d="M604.64,24.72l6.49,4.33.07.14-6.48-4.34-.08-.13" class="By"/><path d="M604.72 24.85l6.48 4.34.06.16-6.48-4.35-.06-.17" class="Bw"/><path d="M604.78,25l6.48,4.33a1.18,1.18,0,0,1,.07.2l-6.49-4.33a.66.66,0,0,0-.06-.2" class="Bx"/><path d="M604.84,25.22l6.49,4.33a3.06,3.06,0,0,1,0,.32l-6.48-4.34a1.7,1.7,0,0,0-.06-.31" class="Bo"/><path d="M604.9,25.53l6.48,4.34a2.64,2.64,0,0,1,0,.68l-6.48-4.33a2.7,2.7,0,0,0,0-.69" class="CC"/><path d="M604.87 26.22l6.48 4.33v.08a2.68 2.68 0 0 1-.07.27l-6.48-4.33a2.29 2.29 0 0 0 .07-.28v-.07" class="Bo"/><path d="M604.79,26.57l6.48,4.33a1.55,1.55,0,0,1-.08.23l-6.48-4.33a1.55,1.55,0,0,0,.08-.23" class="Bx"/><path d="M604.71,26.8l6.48,4.33a1.08,1.08,0,0,1-.08.19L604.63,27c0-.06,0-.13.08-.19" class="Bw"/><path d="M604.63 27l6.48 4.33a1.19 1.19 0 0 1-.08.16l-6.48-4.33.08-.16" class="By"/><path d="M604.55 27.15l6.45 4.33-.09.15-6.48-4.33.09-.15" class="Bm"/><path d="M604.46,27.3l6.48,4.33-.08.14-6.49-4.34.09-.13" class="Bv"/><path d="M604.37,27.43l6.49,4.34-.1.12-6.48-4.33.09-.13" class="Bs"/><path d="M604.28,27.56l6.48,4.33-.09.13-6.49-4.34.1-.12" class="Bu"/><path d="M604.18,27.68,610.67,32a1.14,1.14,0,0,1-.11.11l-6.48-4.33.1-.12" class="Bt"/><path d="M604.08 27.8l6.48 4.33-.11.12-6.45-4.33.11-.12" class="Br"/><path d="M604 27.92l6.48 4.33-.12.11-6.51-4.36.12-.11" class="CQ"/><path d="M603.85,28l6.48,4.33-.13.11-6.49-4.33.14-.11" class="CR"/><path d="M603.71,28.14l6.49,4.33-.15.11-6.49-4.33a1,1,0,0,0,.15-.11" class="CS"/><path d="M603.56,28.25l6.49,4.33-.18.11-6.48-4.33.17-.11" class="CT"/><path d="M603.39,28.36l6.48,4.33a1.27,1.27,0,0,1-.23.12l-6.48-4.33.23-.12" class="CL"/><path d="M603.16,28.48l6.48,4.33a2.13,2.13,0,0,1-.92.21l-6.48-4.33a2.33,2.33,0,0,0,.92-.21" class="Bn"/></g></g><path d="M517.84 44.11l6.48 4.33-50.96 257.07-6.48-4.33 50.96-257.07z" fill="#70abe2"/><g class="C Ca" clip-path="url(#O)"><g><path d="M471.41,309.58l6.49,4.34-.66-.19-6.48-4.34a5.61,5.61,0,0,0,.65.19"/></g></g><g class="C Ca" clip-path="url(#P)"><g><path d="M472.11,309.7l6.48,4.33-.69-.11-6.49-4.34c.16,0,.31.06.7.12"/></g></g><g class="C Ca" clip-path="url(#Q)"><g><path d="M472.84,309.74l6.48,4.33a5.85,5.85,0,0,1-.73,0l-6.48-4.33a5.85,5.85,0,0,0,.73,0"/></g></g><path d="M658.06 35.55l6.48 4.33H533.67l-6.48-4.33h130.87z" fill="#406180"/><g class="C Bz" clip-path="url(#R)"><g><path d="M661.42,36.53l6.49,4.33a6,6,0,0,0-3.36-1l-6.49-4.33a5.91,5.91,0,0,1,3.36,1"/></g></g><g class="C" clip-path="url(#S)"><g><path d="M661.42 36.53l6.49 4.33.31.23-6.8-4.56" class="Cm"/><path d="M661.74 36.75l6.48 4.34.34.28-6.48-4.37-.34-.29" class="Cn"/><path d="M662.08 37l6.48 4.33.32.31-6.48-4.33c-.1-.11-.21-.21-.32-.31" class="Co"/><path d="M662.4,37.35l6.48,4.33c.11.11.21.23.3.34l-6.48-4.33-.3-.34" fill="#999"/><path d="M662.7 37.69l6.48 4.31.28.38-6.46-4.31-.28-.38" class="Cp"/><path d="M663,38.07l6.48,4.33a4.94,4.94,0,0,1,.27.42l-6.48-4.33-.27-.42" class="Cq"/><path d="M663.25 38.49l6.48 4.33a4.52 4.52 0 0 1 .25.49L663.5 39l-.25-.49" class="Cr"/><path d="M663.5 39l6.5 4.31a4.87 4.87 0 0 1 .24.57l-6.48-4.33a4.87 4.87 0 0 0-.24-.57" class="Cs"/><path d="M663.74,39.55l6.48,4.33c.09.24.16.48.23.73L664,40.28a5.62,5.62,0,0,0-.22-.73" class="Ct"/><path d="M664,40.28l6.49,4.33a8.18,8.18,0,0,1,.19,1.12l-6.48-4.33a7.93,7.93,0,0,0-.2-1.12" class="Cu"/><path d="M664.16,41.4l6.48,4.33a8.81,8.81,0,0,1-.1,2.44l-6.48-4.33a9.21,9.21,0,0,0,.1-2.44" fill="#ababab"/><path d="M664.06,43.84l6.48,4.33a2.56,2.56,0,0,1,0,.27L664,44.11a2.56,2.56,0,0,0,0-.27" class="Cu"/></g></g><g class="C" clip-path="url(#T)"><g><use xlink:href="#AB" class="Bz"/><path d="M530.54 319.38l6.49 4.33a12.72 12.72 0 0 0-1.16.6l-6.48-4.31 1.15-.6" class="CV"/><path d="M529.39,320l6.48,4.33q-.47.27-.9.57l-6.48-4.34a10.4,10.4,0,0,1,.9-.56" class="CW"/><path d="M528.49 320.54l6.48 4.34-.76.55-6.48-4.33.76-.56" class="CX"/><path d="M527.73 321.1l6.48 4.33-.67.56-6.48-4.33.67-.56" class="CY"/><path d="M527.06 321.66l6.48 4.33-.61.56-6.48-4.33.61-.56" class="CZ"/><path d="M526.45,322.22l6.48,4.33-.56.58-6.49-4.33.57-.58" class="CA"/><path d="M525.88,322.8l6.49,4.33-.53.6-6.48-4.33.52-.6" class="CB"/><path d="M525.36 323.4l6.48 4.33-.49.62-6.49-4.35.5-.62" class="CD"/><path d="M524.86 324l6.49 4.33c-.17.21-.32.43-.47.65l-6.49-4.33.47-.65" class="CE"/><path d="M524.39 324.67l6.49 4.33-.45.7-6.49-4.33.45-.7" class="CF"/><path d="M523.94 325.37l6.49 4.33-.44.75-6.48-4.34.43-.74" class="CG"/><path d="M523.51 326.11l6.48 4.34-.41.82-6.49-4.33.42-.83" class="CH"/><path d="M523.09 326.94l6.49 4.33a7.71 7.71 0 0 0-.41 1l-6.48-4.33.4-.95" class="CI"/><path d="M522.69 327.89l6.48 4.33-.41 1.17-6.48-4.33.41-1.17" class="CJ"/><use xlink:href="#AC" class="Bp"/></g></g><g class="C" clip-path="url(#U)"><g><path d="M527.71 328.76l6.48 4.34-.21.5-6.49-4.33.22-.51" class="Bw"/><path d="M527.49 329.27l6.51 4.33-.22.63-6.48-4.33q.09-.31.21-.63" class="Bx"/><use xlink:href="#AD" class="Bo"/></g></g><g class="C Bo" clip-path="url(#V)"><g><use xlink:href="#AD"/></g></g><g class="C" clip-path="url(#W)"><g><use xlink:href="#AD" class="Bo"/><use xlink:href="#AE" class="CC"/></g></g><g class="C CC" clip-path="url(#X)"><g><use xlink:href="#AE"/></g></g><g class="C" clip-path="url(#Y)"><g><path d="M531.71 324.71l6.48 4.33-.62.32-6.48-4.36a5.2 5.2 0 0 1 .62-.32" class="CL"/><path d="M531.09,325l6.48,4.33-.48.31-6.48-4.34.48-.3" class="CT"/><path d="M530.61,325.33l6.48,4.34-.41.29-6.48-4.33.41-.3" class="CS"/><path d="M530.2,325.63l6.48,4.33-.36.3-6.48-4.33.36-.3" class="CR"/><path d="M529.84,325.93l6.48,4.33-.33.31-6.48-4.33.33-.31" class="CQ"/><path d="M529.51,326.24l6.48,4.33-.3.31-6.48-4.33.3-.31" class="Br"/><path d="M529.21 326.55l6.48 4.33c-.1.1-.19.21-.28.32l-6.48-4.33.28-.32" class="Bt"/><path d="M528.93 326.87l6.48 4.33-.27.33-6.48-4.33.27-.33" class="Bu"/><path d="M528.66 327.2l6.48 4.33-.25.35-6.48-4.33.25-.35" class="Bs"/><path d="M528.41,327.55l6.48,4.33-.24.37-6.48-4.33a3.87,3.87,0,0,1,.24-.37" class="Bv"/><path d="M528.17,327.92l6.48,4.33-.23.4-6.48-4.33.23-.4" class="Bm"/></g></g><g class="C CC" clip-path="url(#Z)"><g><use xlink:href="#AE"/></g></g><g class="C" clip-path="url(#a)"><g><use xlink:href="#AF" class="Bn"/><path d="M531.71 324.71l6.48 4.33-.62.32-6.48-4.36a5.2 5.2 0 0 1 .62-.32" class="CL"/></g></g><g class="C Bn" clip-path="url(#b)"><g><use xlink:href="#AF"/></g></g><g class="C Bn" clip-path="url(#c)"><g><use xlink:href="#AF"/></g></g><g class="C Bn" clip-path="url(#d)"><g><use xlink:href="#AF"/></g></g><g class="C Bn" clip-path="url(#e)"><g><use xlink:href="#AF"/></g></g><g class="C Bn" clip-path="url(#f)"><g><use xlink:href="#AF"/></g></g><g class="C Bn" clip-path="url(#g)"><g><use xlink:href="#AF"/></g></g><g class="C Bz" clip-path="url(#h)"><g><use xlink:href="#AB"/></g></g><g class="C" clip-path="url(#i)"><g><use xlink:href="#AC" class="Bp"/><path d="M521.85,330.87l6.49,4.33a12.8,12.8,0,0,0-.14,3.47l-6.48-4.33a13.2,13.2,0,0,1,.13-3.47" class="Cl"/><path d="M521.72,334.34l6.48,4.33a11.46,11.46,0,0,0,.27,1.59L522,335.93a10.15,10.15,0,0,1-.27-1.59" class="Bp"/><path d="M522 335.93l6.48 4.33a7.84 7.84 0 0 0 .32 1l-6.49-4.26-.32-1" class="CJ"/><path d="M522.31,337l6.48,4.33c.1.28.22.55.34.81l-6.48-4.33a7.27,7.27,0,0,1-.34-.81" class="CI"/><path d="M522.65 337.78l6.48 4.33a7.49 7.49 0 0 0 .36.69l-6.49-4.33-.36-.69" class="CH"/><path d="M523 338.47l6.48 4.33.38.6-6.48-4.33-.38-.6" class="CG"/><path d="M523.39 339.07l6.48 4.33.4.53-6.48-4.33-.4-.53" class="CF"/><path d="M523.79 339.6l6.48 4.33.43.49-6.49-4.33-.42-.49" class="CE"/><path d="M524.21 340.09l6.49 4.33a6.25 6.25 0 0 0 .45.44l-6.48-4.33-.46-.44" class="CD"/><path d="M524.67 340.53l6.48 4.33.48.41-6.48-4.34a4.63 4.63 0 0 1-.48-.4" class="CB"/><path d="M525.15 340.93l6.48 4.34.45.32-6.48-4.33a5.22 5.22 0 0 1-.45-.33" class="CA"/></g></g><g class="C Bn" clip-path="url(#j)"><g><use xlink:href="#AF"/></g></g><g class="C" clip-path="url(#k)"><g><use xlink:href="#AE" class="CC"/><path d="M527,332.71l6.48,4.33a5.8,5.8,0,0,0,.15.85l-6.49-4.33a7.93,7.93,0,0,1-.14-.85" class="Bo"/><path d="M527.12 333.56l6.49 4.33a3.62 3.62 0 0 0 .17.56l-6.49-4.33-.17-.56" class="Bx"/><path d="M527.29 334.12l6.49 4.33a3.25 3.25 0 0 0 .18.43l-6.48-4.33-.19-.43" class="Bw"/><path d="M527.48,334.55l6.48,4.33a3.2,3.2,0,0,0,.19.37l-6.48-4.33c-.07-.12-.13-.24-.19-.37" class="By"/><path d="M527.67,334.92l6.48,4.33.21.33-6.48-4.33a3,3,0,0,1-.21-.33" class="Bm"/><path d="M527.88,335.25l6.48,4.33.21.29-6.48-4.34a2.92,2.92,0,0,1-.21-.28" class="Bv"/><path d="M528.09,335.53l6.48,4.34.23.26-6.48-4.33-.23-.27" class="Bs"/><path d="M528.32 335.8l6.48 4.33.24.23-6.48-4.36-.24-.23" class="Bu"/><path d="M528.56,336l6.48,4.33.26.22-6.48-4.33-.26-.22" class="Bt"/><path d="M528.82,336.25l6.48,4.33.25.18-6.49-4.34-.24-.17" class="Br"/></g></g><g class="C" clip-path="url(#l)"><g><path d="M536.34,325.49l6.48,4.33a4.1,4.1,0,0,0-2.28-.66,5.44,5.44,0,0,0-2.22.5l-6.48-4.33a5.26,5.26,0,0,1,2.22-.51,4,4,0,0,1,2.28.67" fill="#4b5a68"/><path d="M531.84,325.33l6.48,4.33a5.77,5.77,0,0,0-.55.29l-6.48-4.33a5.77,5.77,0,0,1,.55-.29" fill="#4e5d6c"/><path d="M531.29,325.62l6.48,4.33a3.87,3.87,0,0,0-.43.27l-6.48-4.33a3.87,3.87,0,0,1,.43-.27" fill="#516170"/><path d="M530.86 325.89l6.48 4.33-.37.27-6.48-4.33a3.18 3.18 0 0 1 .37-.27" fill="#546474"/><path d="M530.49,326.16l6.48,4.33a3.82,3.82,0,0,0-.32.27l-6.48-4.34.32-.26" fill="#576878"/><path d="M530.17,326.42l6.48,4.34a2.44,2.44,0,0,0-.29.27l-6.48-4.33a3.83,3.83,0,0,1,.29-.28" fill="#5a6b7c"/><path d="M529.88 326.7l6.48 4.33-.27.28-6.48-4.31.27-.27" class="Cb"/><path d="M529.61,327l6.48,4.34-.26.28-6.48-4.33c.08-.1.17-.19.26-.29" class="Cc"/><path d="M529.35,327.26l6.48,4.33-.23.3-6.49-4.33.24-.3" class="Cd"/><path d="M529.11,327.56l6.49,4.33-.23.31-6.48-4.33.22-.31" class="Ce"/><path d="M528.89 327.87l6.48 4.33-.22.34-6.48-4.33a4 4 0 0 1 .22-.34" class="Cf"/><path d="M528.67,328.21l6.48,4.33a3.07,3.07,0,0,0-.2.36l-6.48-4.34a4,4,0,0,1,.2-.35" class="CU"/><path d="M528.47 328.56l6.53 4.34-.2.39-6.53-4.29.2-.4" class="Cg"/><path d="M528.27 329l6.48 4.33-.2.46-6.48-4.33c.06-.16.13-.31.2-.46" class="Ch"/><path d="M528.07 329.42l6.48 4.33a5.27 5.27 0 0 0-.19.56l-6.49-4.31.2-.56" class="Ci"/><path d="M527.87 330l6.49 4.33a5.2 5.2 0 0 0-.17.68v.18l-6.48-4.33a1.62 1.62 0 0 1 0-.19c0-.22.1-.45.16-.67" class="Cj"/><path d="M527.67,330.84l6.48,4.33a6.68,6.68,0,0,0-.06,1.66l-6.48-4.34a5.79,5.79,0,0,1,.06-1.65" fill="#7a91a8"/><path d="M527.61,332.49l6.48,4.34a6.35,6.35,0,0,0,.13.76l-6.48-4.33a4.76,4.76,0,0,1-.13-.77" class="Cj"/><path d="M527.74,333.26l6.48,4.33a4.74,4.74,0,0,0,.15.5l-6.48-4.34a4,4,0,0,1-.15-.49" class="Ci"/><path d="M527.89,333.75l6.48,4.34c0,.13.1.26.16.38l-6.48-4.33a3.52,3.52,0,0,1-.16-.39" class="Ch"/><path d="M528.05,334.14l6.48,4.33q.09.18.18.33l-6.49-4.33c-.06-.1-.11-.21-.17-.33" class="Cg"/><path d="M528.22,334.47l6.49,4.33a1.75,1.75,0,0,0,.18.29l-6.48-4.33a2.9,2.9,0,0,1-.19-.29" class="CU"/><path d="M528.41,334.76l6.48,4.33a2.48,2.48,0,0,0,.19.26L528.6,335l-.19-.26" class="Cf"/><path d="M528.6 335l6.48 4.33.2.23-6.48-4.33-.2-.23" class="Ce"/><path d="M528.8 335.25l6.48 4.33.22.21-6.5-4.33-.22-.21" class="Cd"/><path d="M529,335.46l6.48,4.33.23.2-6.48-4.33-.23-.2" class="Cc"/><path d="M529.25,335.66l6.48,4.33.22.15-6.48-4.33-.22-.15" class="Cb"/></g></g><g class="C Bn" clip-path="url(#m)"><g><use xlink:href="#AG"/></g></g><g class="C" clip-path="url(#n)"><g><path d="M536.34,325.49l6.48,4.33.21.16-6.48-4.34-.21-.15" class="Br"/><path d="M536.55,325.64,543,330a2.11,2.11,0,0,1,.23.19l-6.48-4.33-.23-.2" class="Bt"/><path d="M536.78 325.84l6.48 4.33.22.21-6.48-4.33-.22-.21" class="Bu"/><path d="M537,326.05l6.48,4.33.21.23-6.49-4.33a2.2,2.2,0,0,0-.2-.23" class="Bs"/><path d="M537.2,326.28l6.49,4.33.19.26-6.48-4.33-.2-.26" class="Bv"/><path d="M537.4,326.54l6.48,4.33.18.29-6.48-4.33-.18-.29" class="Bm"/><path d="M537.58 326.83l6.48 4.33.17.33-6.48-4.33c0-.11-.11-.22-.17-.33" class="By"/><path d="M537.75 327.16l6.48 4.33.17.39-6.49-4.33a3.2 3.2 0 0 0-.16-.39" class="Bw"/><path d="M537.91 327.55l6.49 4.33.15.5-6.48-4.33-.16-.5" class="Bx"/><path d="M538.07,328.05l6.48,4.33a6,6,0,0,1,.13.76l-6.48-4.33a6,6,0,0,0-.13-.76" class="Bo"/><path d="M538.2,328.81l6.48,4.33a6.25,6.25,0,0,1-.07,1.66l-6.48-4.33a6.25,6.25,0,0,0,.07-1.66" class="CC"/><use xlink:href="#AH" class="Bo"/></g></g><g class="C" clip-path="url(#o)"><g><use xlink:href="#AH" class="Bo"/><path d="M537.93 331.33l6.48 4.33-.19.56-6.48-4.33.19-.56" class="Bx"/><path d="M537.74 331.89l6.48 4.33c-.06.16-.13.31-.2.46l-6.48-4.33.2-.46" class="Bw"/><path d="M537.54 332.35l6.48 4.33-.2.39-6.48-4.33.2-.39" class="By"/><path d="M537.34 332.74l6.48 4.33-.2.36-6.49-4.33c.08-.12.14-.24.21-.36" class="Bm"/><path d="M537.13 333.1l6.49 4.33-.22.33-6.48-4.33.21-.33" class="Bv"/><path d="M536.92,333.43l6.48,4.33-.22.32-6.49-4.34a3.55,3.55,0,0,0,.23-.31" class="Bs"/><path d="M536.69 333.74l6.49 4.34-.24.29-6.48-4.37a3.4 3.4 0 0 0 .23-.3" class="Bu"/><path d="M536.46,334l6.48,4.33-.25.29-6.49-4.33.26-.29" class="Bt"/><path d="M536.2,334.33l6.49,4.33-.27.28-6.49-4.33a3.5,3.5,0,0,0,.27-.28" class="Br"/><path d="M535.93,334.61l6.49,4.33-.3.27-6.48-4.33.29-.27" class="CQ"/><path d="M535.64,334.88l6.48,4.33-.32.27-6.48-4.34.32-.26" class="CR"/><path d="M535.32 335.14l6.48 4.34-.36.26-6.44-4.33.36-.27" class="CS"/><path d="M535,335.41l6.48,4.33a5.08,5.08,0,0,1-.43.27l-6.49-4.33c.15-.08.29-.17.44-.27" class="CT"/><path d="M534.52,335.68,541,340a4.25,4.25,0,0,1-.56.29L534,336a5.77,5.77,0,0,0,.55-.29" class="CL"/><use xlink:href="#AG" class="Bn"/></g></g><g class="C" clip-path="url(#p)"><g><path d="M536.74 324.88l6.48 4.34a1.46 1.46 0 0 1 .24.17l-6.46-4.33-.24-.18" class="Cb"/><path d="M537,325.06l6.48,4.33a2.75,2.75,0,0,1,.26.22l-6.48-4.34-.26-.21" class="Cc"/><path d="M537.24,325.27l6.48,4.34a1.75,1.75,0,0,1,.24.23l-6.48-4.33-.24-.24" class="Cd"/><path d="M537.48 325.51l6.48 4.33.23.26-6.48-4.33a2.85 2.85 0 0 0-.23-.26" class="Ce"/><path d="M537.71,325.77l6.48,4.33a3.15,3.15,0,0,1,.22.29l-6.49-4.33a1.94,1.94,0,0,0-.21-.29" class="Cf"/><path d="M537.92,326.06l6.49,4.33a3.45,3.45,0,0,1,.2.32l-6.48-4.33a3.53,3.53,0,0,0-.21-.32" class="CU"/><path d="M538.13 326.38l6.48 4.33c.07.12.13.24.19.37l-6.48-4.33-.19-.37" class="Cg"/><path d="M538.32,326.75l6.48,4.33c.07.14.13.29.19.44l-6.49-4.34a3.25,3.25,0,0,0-.18-.43" class="Ch"/><path d="M538.5 327.18l6.49 4.34.17.55-6.49-4.33a3.62 3.62 0 0 0-.17-.56" class="Ci"/><path d="M538.67,327.74l6.49,4.33a7.71,7.71,0,0,1,.14.86l-6.48-4.34a5.8,5.8,0,0,0-.15-.85" class="Cj"/><path d="M538.82,328.59l6.48,4.34a6.86,6.86,0,0,1-.07,1.85l-6.48-4.33a6.92,6.92,0,0,0,.07-1.86" fill="#7a91a8"/><path d="M538.75 330.45l6.48 4.33a1.55 1.55 0 0 1 0 .21 6.87 6.87 0 0 1-.19.75l-6.48-4.33a6.49 6.49 0 0 0 .19-.76v-.2" class="Cj"/><path d="M538.52 331.41l6.48 4.33q-.09.31-.21.63L538.3 332l.22-.63" class="Ci"/><path d="M538.3 332l6.49 4.33-.22.51-6.48-4.34.21-.5" class="Ch"/><path d="M538.09 332.54l6.48 4.34-.23.44-6.48-4.32.23-.45" class="Cg"/><path d="M537.86,333l6.48,4.33-.23.4-6.48-4.33.23-.4" class="CU"/><path d="M537.63,333.39l6.48,4.33-.24.37-6.48-4.33.24-.37" class="Cf"/><path d="M537.39 333.76l6.48 4.33-.25.35-6.48-4.33.25-.35" class="Ce"/><path d="M537.14,334.11l6.48,4.33-.27.34-6.48-4.34.27-.33" class="Cd"/><path d="M536.87,334.44l6.48,4.34-.28.32-6.48-4.33.28-.33" class="Cc"/><path d="M536.59 334.77l6.48 4.33-.3.31-6.49-4.33.31-.31" class="Cb"/><path d="M536.28 335.08l6.49 4.33-.33.3-6.44-4.33.32-.3" fill="#5a6b7c"/><path d="M536,335.38l6.48,4.33q-.18.17-.36.3l-6.48-4.33.36-.3" fill="#576878"/><path d="M535.6 335.68l6.48 4.33-.41.3-6.48-4.31.41-.3" fill="#546474"/><path d="M535.19,336l6.48,4.33-.48.3-6.48-4.33.48-.3" fill="#516170"/><path d="M534.71,336.28l6.48,4.33c-.2.12-.41.23-.62.33l-6.48-4.34a6.09,6.09,0,0,0,.62-.32" fill="#4e5d6c"/><path d="M534.09,336.6l6.48,4.34a6,6,0,0,1-2.48.56,4.55,4.55,0,0,1-2.54-.74l-6.49-4.34a4.53,4.53,0,0,0,2.55.75,5.91,5.91,0,0,0,2.48-.57" fill="#4b5a68"/></g></g><g class="C" clip-path="url(#q)"><g><path d="M540 319.71l6.48 4.33a5.22 5.22 0 0 1 .45.33l-6.51-4.37-.45-.33" class="Br"/><path d="M540.42,320l6.48,4.33.49.4-6.49-4.33a4.63,4.63,0,0,0-.48-.4" class="Bt"/><path d="M540.9 320.44l6.49 4.33.45.44-6.48-4.33-.46-.44" class="Bu"/><path d="M541.36,320.88l6.48,4.33a6.4,6.4,0,0,1,.42.49l-6.48-4.33-.42-.49" class="Bs"/><path d="M541.78 321.37l6.48 4.33.4.53-6.48-4.33-.4-.53" class="Bv"/><path d="M542.18 321.9l6.48 4.33.38.6-6.48-4.33-.38-.6" class="Bm"/><path d="M542.56,322.5l6.48,4.33q.19.35.36.69l-6.48-4.33a7.49,7.49,0,0,0-.36-.69" class="By"/><path d="M542.92,323.19l6.48,4.33a7.27,7.27,0,0,1,.34.81L543.26,324a7.27,7.27,0,0,0-.34-.81" class="Bw"/><path d="M543.26 324l6.48 4.33.32 1-6.48-4.33a7.84 7.84 0 0 0-.32-1" class="Bx"/><path d="M543.58,325l6.48,4.33a10.15,10.15,0,0,1,.27,1.59l-6.48-4.33a11.46,11.46,0,0,0-.27-1.59" class="Bo"/><path d="M543.85,326.63l6.48,4.33a13.11,13.11,0,0,1-.13,3.46l-6.49-4.33a12.73,12.73,0,0,0,.14-3.46" class="CC"/><path d="M543.71,330.09l6.49,4.33c0,.13-.05.26-.08.39a13.38,13.38,0,0,1-.35,1.42l-6.48-4.33a14,14,0,0,0,.35-1.42c0-.13.05-.26.07-.39" class="Bo"/><path d="M543.29 331.9l6.48 4.33-.41 1.18-6.48-4.34.41-1.17" class="Bx"/><path d="M542.88 333.07l6.48 4.34-.41.95-6.48-4.36a10.39 10.39 0 0 0 .41-1" class="Bw"/><path d="M542.47 334l6.48 4.33-.41.82-6.49-4.33.42-.82" class="By"/><path d="M542.05 334.85l6.49 4.33-.44.75-6.48-4.33.43-.75" class="Bm"/><path d="M541.62 335.6l6.48 4.33-.45.7-6.48-4.34a8.18 8.18 0 0 0 .45-.69" class="Bv"/><path d="M541.17 336.29l6.48 4.34-.47.65-6.48-4.28.47-.66" class="Bs"/><path d="M540.7 337l6.48 4.33-.49.62-6.48-4.33.49-.62" class="Bu"/><path d="M540.21 337.57l6.48 4.33-.53.6-6.48-4.34.53-.59" class="Bt"/><path d="M539.68 338.16l6.48 4.34-.56.57-6.48-4.33.56-.58" class="Br"/><path d="M539.12 338.74l6.48 4.33-.61.57-6.48-4.33.61-.57" class="CQ"/><path d="M538.51 339.31l6.48 4.33-.67.56-6.48-4.34c.23-.17.45-.36.67-.55" class="CR"/><path d="M537.84 339.86l6.48 4.34-.76.55-6.48-4.33.76-.56" class="CS"/><path d="M537.08 340.42l6.48 4.33q-.43.3-.9.57l-6.48-4.32.9-.57" class="CT"/><path d="M536.18 341l6.48 4.33a12.72 12.72 0 0 1-1.16.6l-6.5-4.34a12.72 12.72 0 0 0 1.16-.6" class="CL"/><path d="M535,341.59l6.48,4.33a11.23,11.23,0,0,1-4.65,1.06,8.48,8.48,0,0,1-4.77-1.39l-6.48-4.33a8.48,8.48,0,0,0,4.77,1.39,11.23,11.23,0,0,0,4.65-1.06" class="Bn"/></g></g><g class="C" clip-path="url(#r)"><g><path d="M629.74 204.46l6.48 4.33.26.19-6.48-4.33-.26-.19" class="Cm"/><path d="M630,204.65l6.48,4.33.29.24-6.48-4.33-.29-.24" class="Cn"/><path d="M630.29,204.89l6.48,4.33.27.26-6.49-4.33a3.19,3.19,0,0,0-.26-.26" class="Co"/><path d="M630.55,205.15l6.49,4.33.25.29-6.49-4.33a3.47,3.47,0,0,0-.25-.29" fill="#999"/><path d="M630.8,205.44l6.49,4.33a3.71,3.71,0,0,1,.23.32L631,205.75a2.34,2.34,0,0,0-.24-.31" class="Cp"/><path d="M631 205.75l6.48 4.34.23.35-6.48-4.33-.23-.36" class="Cq"/><path d="M631.27 206.11l6.48 4.33.21.41-6.48-4.34-.21-.4" class="Cr"/><path d="M631.48 206.51l6.48 4.34.2.48-6.48-4.33-.2-.49" class="Cs"/><path d="M631.68 207l6.48 4.33v.07l-6.48-4.33V207" class="Ct"/></g></g><path d="M664.01 44.11l6.48 4.34-32.3 162.95-6.48-4.33 32.3-162.96z" fill="#b1b1b1"/><path d="M603.71 309.74l6.48 4.33H479.32l-6.48-4.33h130.87z" fill="gray"/><path d="M631.71 207.07l6.48 4.33-18.66 94.11-6.48-4.33 18.66-94.11z" fill="#b1b1b1"/><g class="C" clip-path="url(#s)"><g><path d="M613.05,301.18l6.48,4.33c-.06.33-.15.67-.24,1l-6.49-4.34a8.44,8.44,0,0,0,.25-1" class="Cu"/><path d="M612.8 302.17l6.49 4.34-.29.82-6.48-4.33.28-.83" class="Ct"/><path d="M612.52 303l6.48 4.33-.29.67-6.48-4.33.29-.67" class="Cs"/><path d="M612.23 303.67l6.48 4.33-.29.58-6.48-4.33.29-.58" class="Cr"/><path d="M611.94 304.25l6.48 4.33-.31.53-6.48-4.33.31-.53" class="Cq"/><path d="M611.63 304.78l6.48 4.33-.31.49-6.49-4.33.32-.49" class="Cp"/><path d="M611.31 305.27l6.49 4.33-.33.46-6.47-4.33c.12-.15.23-.31.33-.46" fill="#999"/><path d="M611,305.73l6.49,4.33-.35.43-6.48-4.33.34-.43" class="Co"/><path d="M610.64 306.16l6.48 4.33-.37.42-6.49-4.33a5.14 5.14 0 0 0 .38-.42" class="Cn"/><path d="M610.26 306.58l6.49 4.33-.4.41-6.48-4.32.39-.41" class="Cm"/><path d="M609.87,307l6.48,4.33-.43.4-6.48-4.33.43-.4" fill="#8f8f8f"/><path d="M609.44 307.39l6.48 4.33-.47.39-6.45-4.33c.17-.12.32-.26.48-.39" fill="#8c8c8c"/><path d="M609,307.78l6.49,4.33-.54.39-6.48-4.33a6.55,6.55,0,0,0,.53-.39" fill="#8a8a8a"/><path d="M608.43 308.17l6.48 4.33a6.05 6.05 0 0 1-.63.4l-6.48-4.33.63-.4" fill="#878787"/><path d="M607.8,308.57l6.48,4.33a9.16,9.16,0,0,1-.82.43L607,309a9.16,9.16,0,0,0,.82-.43" fill="#858585"/><path d="M607,309l6.48,4.33a7.87,7.87,0,0,1-3.27.74l-6.48-4.33A7.87,7.87,0,0,0,607,309" class="Ca"/></g></g><path d="M658.39 6.07H538.24c-11.66 0-23.22 10.59-25.8 23.65l-2.33 11.74L505.05 67l-1.4 7-5.06 25.54-45.2 228c-2.59 13.06 4.77 23.65 16.43 23.65H590c11.66 0 23.21-10.59 25.8-23.65l39.46-199.06 8.53-43 11-55.79c2.61-13.03-4.74-23.62-16.4-23.62zM593.2 17.21a4 4 0 0 1 3.56-3.21c1.6 0 2.61 1.46 2.25 3.26a4 4 0 0 1-3.55 3.25c-1.6 0-2.62-1.45-2.26-3.25m-9.44 9.08a2.92 2.92 0 0 1 2.61-2.4h16.82a1.83 1.83 0 0 1 1.67 2.4 2.93 2.93 0 0 1-2.62 2.4h-16.82a1.83 1.83 0 0 1-1.66-2.4m-40.12 304.14c-1.33 6.72-7.27 12.17-13.27 12.17s-9.78-5.45-8.44-12.17 7.27-12.16 13.26-12.16 9.78 5.44 8.45 12.16M664 44.11l-32.3 163-18.66 94.11c-.94 4.73-5.12 8.56-9.34 8.56H472.84c-3.67 0-6.16-2.89-6.14-6.74h0a7.87 7.87 0 0 1 0-.84v-.06c0-.31.08-.61.14-.92l51-257.07a10.82 10.82 0 0 1 1.26-3.33c1.77-3.08 4.92-5.23 8.09-5.23h130.87a6.07 6.07 0 0 1 2.84.67 6 6 0 0 1 .6.36 5.67 5.67 0 0 1 1 .92 6.75 6.75 0 0 1 1.53 3.28 8.93 8.93 0 0 1-.06 3.33" class="Cv"/><path d="M603.19,23.89a1.83,1.83,0,0,1,1.67,2.4,2.93,2.93,0,0,1-2.62,2.4H585.42a1.83,1.83,0,0,1-1.66-2.4,2.92,2.92,0,0,1,2.61-2.4Z" class="Bm"/><g class="C" clip-path="url(#t)"><g><path d="M667.68,8.78l6.48,4.33q.45.3.87.63l-6.48-4.33q-.43-.33-.87-.63" class="CA"/><path d="M668.55 9.41l6.45 4.33.94.78-6.48-4.33-.94-.78" class="CB"/><g class="CK"><path d="M669.49 10.19l6.51 4.33.88.86-6.48-4.33-.88-.86m.85.86l6.48 4.33.82.95-6.48-4.33-.82-.94"/><path d="M671.19,12l6.48,4.34a12.66,12.66,0,0,1,.78,1L672,13c-.25-.36-.51-.7-.78-1"/><path d="M672 13l6.48 4.33.74 1.17-6.48-4.33L672 13m.71 1.2l6.48 4.33.7 1.34-6.48-4.33-.7-1.34"/><path d="M673.41 15.54l6.48 4.33.66 1.58-6.48-4.33-.66-1.58"/><path d="M674.07,17.12l6.48,4.33c.24.65.44,1.33.62,2l-6.49-4.33a18.23,18.23,0,0,0-.61-2"/><path d="M674.68,19.14l6.49,4.33a21.79,21.79,0,0,1,.53,3.1l-6.48-4.34a21.9,21.9,0,0,0-.54-3.09"/><path d="M675.22,22.23l6.48,4.34a25.25,25.25,0,0,1-.26,6.73L675,29a25.34,25.34,0,0,0,.27-6.74"/><path d="M675 29l6.49 4.33-.14.76-6.49-4.34.14-.75"/></g></g></g><path d="M674.81 29.72l6.49 4.33-11.06 55.79-6.48-4.34 11.05-55.78z" class="CK"/><path d="M663.76 85.5l6.48 4.34-8.53 43-6.48-4.33 8.53-43.01z" fill="#70abe2"/><path d="M534.06 324.82c2.86 0 4.68 2.62 4 5.83s-3.49 5.83-6.35 5.83-4.68-2.61-4-5.83 3.48-5.83 6.35-5.83z" class="Bm"/><path d="M534.19 324.14c3.21 0 5.23 2.92 4.52 6.51s-3.9 6.52-7.1 6.52-5.23-2.93-4.52-6.52 3.91-6.51 7.1-6.51zm-2.44 12.34c2.86 0 5.71-2.61 6.35-5.83s-1.18-5.83-4-5.83-5.72 2.62-6.35 5.83 1.17 5.83 4 5.83" class="CU"/><path d="M535.19 318.32c6 0 9.78 5.44 8.45 12.16s-7.27 12.17-13.27 12.17-9.78-5.45-8.44-12.17 7.27-12.16 13.26-12.16zm-3.58 18.85c3.2 0 6.39-2.93 7.1-6.52s-1.31-6.51-4.52-6.51-6.39 2.92-7.1 6.51 1.32 6.52 4.52 6.52" class="Bm"/><path d="M589.97 351.22l6.48 4.33H476.3l-6.48-4.33h120.15zm65.26-222.71l6.48 4.33-39.46 199.06-6.48-4.33 39.46-199.06z" class="CK"/><g class="C CK" clip-path="url(#u)"><g><path d="M615.77,327.57l6.48,4.33c-.18.93-.41,1.85-.68,2.76l-6.49-4.34a25.71,25.71,0,0,0,.69-2.75"/><path d="M615.08 330.32l6.49 4.34-.8 2.28-6.48-4.33.79-2.29"/><path d="M614.29 332.61l6.48 4.33-.79 1.84-6.48-4.33.79-1.84"/><path d="M613.5 334.45l6.48 4.33-.81 1.61-6.48-4.33.81-1.61"/><path d="M612.69 336.06l6.48 4.33-.84 1.45-6.48-4.33.84-1.45"/><path d="M611.85 337.51l6.48 4.33q-.42.69-.87 1.35l-6.46-4.33.88-1.35"/><path d="M611 338.86l6.49 4.33-.92 1.27-6.48-4.33.91-1.27m-.94 1.27l6.48 4.33q-.46.62-1 1.2l-6.48-4.33q.49-.58 1-1.2"/><path d="M609.1 341.33l6.48 4.33q-.5.6-1 1.17l-6.48-4.34 1-1.16"/><path d="M608.08 342.49l6.48 4.34-1.1 1.12-6.46-4.33 1.1-1.13"/><path d="M607 343.62l6.48 4.33-1.18 1.1-6.49-4.33 1.19-1.1m-1.21 1.1l6.49 4.33-1.31 1.08-6.48-4.33 1.3-1.08"/><path d="M604.49 345.8l6.48 4.33q-.72.57-1.47 1.08l-6.5-4.33 1.48-1.08"/><path d="M603 346.88l6.49 4.33-1.75 1.11-6.47-4.32q.88-.53 1.74-1.11"/><path d="M601.27 348l6.48 4.33q-1.11.65-2.25 1.17l-6.5-4.35 2.25-1.16"/><path d="M599,349.15l6.48,4.34a21.89,21.89,0,0,1-9,2.06L590,351.22a21.74,21.74,0,0,0,9-2.07"/></g></g><g class="C"><g class="C" clip-path="url(#v)"><g><path d="M666.48 85.22l6.52 4.33.1.07-6.59-4.4" class="Br"/><g class="Bm"><path d="M666.58,85.29l6.49,4.33.11.09-6.49-4.33-.11-.09"/><path d="M666.69,85.38l6.49,4.33.1.1-6.49-4.33a.94.94,0,0,0-.1-.1"/></g><path d="M666.79,85.48l6.49,4.33.09.11-6.48-4.33-.1-.11" class="Bs"/><g class="Bm"><path d="M666.89 85.59l6.48 4.33.09.12-6.46-4.33-.09-.12"/><path d="M667 85.71l6.46 4.29.09.14-6.48-4.33-.09-.14m.09.18l6.48 4.33.08.15-6.48-4.33-.08-.15"/><path d="M667.15,86l6.48,4.33c0,.06,0,.12.08.19l-6.49-4.34-.07-.18"/><path d="M667.22,86.18l6.49,4.34c0,.07,0,.15.07.23l-6.49-4.33a2.17,2.17,0,0,0-.07-.24"/><path d="M667.29,86.42l6.49,4.33a1.93,1.93,0,0,1,.06.36l-6.48-4.34c0-.12,0-.24-.07-.35"/><path d="M667.36 86.77l6.48 4.34a3.37 3.37 0 0 1 0 .77l-6.48-4.33a3.44 3.44 0 0 0 0-.78m-.03.78l6.48 4.33v.09l-6.48-4.33v-.09"/></g></g></g><path d="M667.31 87.64l6.48 4.33-7.68 38.74-6.48-4.33 7.68-38.74z" fill="#5185b7"/><g class="C Bm" clip-path="url(#w)"><g><path d="M659.63,126.38l6.48,4.33c0,.11-.05.21-.08.32l-6.48-4.33c0-.11.06-.22.08-.32"/><path d="M659.55 126.7L666 131a1.34 1.34 0 0 1-.09.26l-6.45-4.26.09-.26"/><path d="M659.46,127l6.48,4.33-.09.21-6.48-4.33.09-.21"/><path d="M659.37,127.17l6.48,4.33-.09.19-6.49-4.33a1.14,1.14,0,0,0,.1-.19"/><path d="M659.27,127.36l6.49,4.33-.1.17-6.48-4.33.09-.17"/><path d="M659.18,127.53l6.48,4.33-.1.15-6.48-4.33a1.3,1.3,0,0,1,.1-.15"/><path d="M659.08 127.68l6.48 4.33-.11.15-6.45-4.33.11-.15"/><path d="M659 127.83l6.48 4.33a1.34 1.34 0 0 1-.11.14l-6.51-4.3.11-.14"/><path d="M658.86,128l6.48,4.33-.12.13-6.48-4.33.12-.13"/><path d="M658.74,128.1l6.48,4.33-.12.13-6.49-4.33a.8.8,0,0,0,.13-.13"/><path d="M658.61,128.23l6.49,4.33-.14.13-6.48-4.33a1.59,1.59,0,0,0,.13-.13"/><path d="M658.48,128.36l6.48,4.33-.15.13-6.48-4.34.15-.12"/><path d="M658.33,128.48l6.48,4.34-.17.12-6.49-4.33.18-.13"/><path d="M658.15 128.61l6.49 4.33-.21.13-6.43-4.33a1.37 1.37 0 0 0 .2-.13"/><path d="M658 128.74l6.48 4.33-.26.14-6.48-4.34.26-.13m-.31.13l6.48 4.34a2.56 2.56 0 0 1-1 .24 1.9 1.9 0 0 1-1.07-.32l-6.48-4.33a1.9 1.9 0 0 0 1.07.31 2.44 2.44 0 0 0 1.05-.24"/></g></g><path d="M665.4 84.9a2.08 2.08 0 0 1 1.91 2.74l-7.68 38.74a3.33 3.33 0 0 1-3 2.73 1.86 1.86 0 0 1-1.41-.6l8.53-43a2.76 2.76 0 0 1 1.65-.61z" class="Bm"/></g><path d="M664.25 42.31l-.19 1.73-32.3 162.95-18.65 94.1-.49 1.73-.77 1.61-1 1.46-1.18 1.26-1.34 1.05-1.45.79-1.54.5-1.57.18H472.81l-.1-.01h-.18l-.09-.01-.1-.01-.09-.01h-.08l-.13-.03-.12-.01-.1-.02-.09-.01-.07-.02-.07-.01-.12-.02-.13-.04-.11-.03-.1-.03-.08-.02-.07-.02-.06-.02-.06-.02-.05-.02-.12-.05-.11-.04-.09-.04-.08-.03-.07-.03-.05-.02-.05-.03-.05-.02-.13-.06-.1-.05-.08-.05-.07-.04-.06-.04-.06-.03-.05-.03-.04-.03-.12-.08-.1-.07-.08-.06-.07-.05-.12-.1-.05-.04-.05-.03-.1-.09-.09-.08-.15-.15-.07-.06-.05-.07-.12-.12-.07-.09-.07-.07-.06-.08-.05-.06-.04-.06-.05-.05-.03-.05-.04-.05-.07-.12-.07-.1-.05-.08-.04-.06-.04-.06-.03-.05-.03-.05-.02-.05-.07-.13-.05-.1-.05-.09-.04-.08-.03-.07-.02-.04-.03-.05-.02-.05-.05-.14-.05-.12-.04-.1-.03-.08-.02-.07-.02-.06-.02-.04-.01-.06-.05-.14-.03-.13-.03-.11-.02-.09-.02-.08-.02-.07-.01-.05-.01-.06-.03-.17-.03-.15-.02-.13-.02-.11-.02-.11-.01-.09-.01-.09v-.09l-.01-.13-.01-.12v-.1l-.01-.09v-.55l.01-.22.01-.23.02-.23.03-.22.03-.23.08-.48L517.9 44.04l.49-1.73.77-1.61.99-1.46 1.19-1.27 1.33-1.04 1.46-.79 1.54-.49 1.58-.18h130.87l1.51.18 1.34.49 1.13.79.93 1.04.68 1.27.42 1.46.12 1.61z" fill="#c4eaff"/><path d="M373.16,14.31C221.09,6,167.46,143.26,157.49,211.25c-4.18-5.6-11.33-13.72-19.16-16.26,0,0-8.21,53.84,10.21,91.52,0,0,25.17-61.31,49.68-76.87,0,0-16.58-3.65-28.52,1.13C195.83,165.83,256,75.41,327.1,55.06c104.78-30,186.19,21.73,217,98.53l13,1.34S524.78,22.64,373.16,14.31Z" opacity=".5" class="Cv"/><path d="M244.98 346.28l51.83-3.35 28.9 19.25-27.83 20.99-57.87 6.95 4.97-43.84z" fill="#347f6e"/><path d="M21.75 259.63l-.4-.06-.8-.11-.79-.08h-.11-.68-.8-.4-.14-.26l-.82.07-.68.1h-.09-.08l-.88.19c-.22.05-.44.12-.67.19L14 260h-.12l-1.07.39-.22.11-.48.23-.56.27-.49.29-.22.14a96.2 96.2 0 0 0-7.51 6c.33-.37 2.7-1.2 3.07-1.53l.23-.2a11.3 11.3 0 0 1 1.17-.85l.24-.15a11.2 11.2 0 0 1 1-.55l.49-.24a14.69 14.69 0 0 1 1.41-.53l.18-.05a14 14 0 0 1 1.61-.38h.09a12.64 12.64 0 0 1 1.76-.18h.14a14.8 14.8 0 0 1 1.88 0h.05a19 19 0 0 1 2.06.26l202.37 14.17 3-3.43z" class="Ck"/><path d="M221.08,277.2c9.89,1.77,18.62,10.87,19.47,20.3L255.84,466c.86,9.43-6.48,15.67-16.37,13.91L37.11,465.77c-9.88-1.76-18.61-10.86-19.47-20.3L2.35,277c-.85-9.43,6.48-15.67,16.37-13.9Z" fill="#4bc5a9"/><path d="M258.94 464v-.63a7.11 7.11 0 0 0-.05-.78h0l-15.3-168.52-.09-.77-.12-.78v-.16-.15c0-.16-.05-.31-.09-.47l-.2-.78a2.12 2.12 0 0 0-.09-.31c0-.06 0-.13-.05-.19l-.09-.31-.29-.83-.14-.37-.09-.21-.1-.27-.41-.92c0-.09-.09-.18-.14-.28l-.13-.26-.23-.45c-.16-.32-.35-.63-.54-.95l-.05-.1-.82-1.25-.09-.12-.81-1.09-.34-.44-.06-.07-.25-.29-.92-1-.43-.44-.85-.81-.5-.45-.87-.73-.52-.41c-.08-.06-.15-.13-.23-.18s-.34-.23-.5-.35l-.92-.63-.26-.18-.8-.47-.37-.22-.12-.07-1.12-.58-.24-.11-.3-.13-.45-.21-.94-.38h-.12l-.21-.08-.57-.2-.86-.26-.16-.05h-.19l-.49-.13-.82-.18-.42-.08-3 3.43 1.74.4h.16l1.63.52.17.06 1.54.64.27.12 1.49.76.39.24 1 .63.91.63.75.54.51.4.88.74.5.45.84.81.43.45.91 1 .26.31.39.5.82 1.09.93 1.41a.2.2 0 0 0 0 .08l.78 1.42c0 .09.09.17.13.26l.65 1.47.08.21a16.64 16.64 0 0 1 .52 1.5l.06.2.38 1.56v.15a16.17 16.17 0 0 1 .24 1.7L255.84 466l.06 1.42a.33.33 0 0 1 0 .1q0 .66-.06 1.29a1.15 1.15 0 0 1 0 .18 11.77 11.77 0 0 1-.18 1.19 2.38 2.38 0 0 1-.05.26l-.24.94a2.29 2.29 0 0 1-.08.28c-.11.37-.25.74-.39 1.09a.14.14 0 0 0 0 .06.31.31 0 0 0-.05.1l-.55 1.1-.44.7-.21.33-.75 1 3-3.44a11.71 11.71 0 0 0 .76-1 2.68 2.68 0 0 1 .18-.28l.44-.69v-.06a9.63 9.63 0 0 0 .5-1 1.4 1.4 0 0 0 .09-.17h0a9.56 9.56 0 0 0 .39-1v-.14c0-.08.05-.17.08-.25l.15-.55.09-.42a1.84 1.84 0 0 0 .05-.25v-.21c0-.26.09-.54.12-.81a1 1 0 0 0 0-.17v-.18-.45-.79-.18z" class="Ck"/><path d="M221.53,282.24c7,1.25,13.15,7.66,13.75,14.33l15.29,168.48c.61,6.68-4.56,11.07-11.56,9.83L36.65,460.75c-7-1.25-13.14-7.66-13.75-14.34L7.62,277.92c-.61-6.66,4.57-11.06,11.55-9.81Z" fill="#347f6e"/><path d="M183.07 527.8c.28 6.32-4.09 9.08-9.74 6.16L22 455.37c-5.61-2.92-10.42-10.37-10.7-16.74l-7-160c-.27-6.32 4.09-9.08 9.74-6.16l151.29 78.58c5.65 2.93 10.46 10.42 10.74 16.75z" class="Ck"/><path d="M165.11 346.28L13.82 267.7c-8-4.13-14.19-.21-13.8 8.74l7 160c.39 8.94 7.23 19.6 15.22 23.73l151.29 78.59c8 4.14 14.2.21 13.8-8.74l-7-160c-.39-8.95-7.21-19.6-15.22-23.74zM181 479.6l2.11 48.2c.28 6.32-4.09 9.08-9.74 6.16L22 455.37c-5.61-2.92-10.42-10.37-10.7-16.74l-7-160c-.27-6.32 4.09-9.08 9.74-6.16l151.29 78.58c5.65 2.93 10.46 10.42 10.74 16.75l2.38 48.33L181 479.6z" fill="#4bc5a9"/><path d="M22.65 262l-.46-.23-.58-.27-.38-.16h-.11-.1l-.57-.21-.58-.19h-.1-.09l-.38-.1-.59-.14-.29-.05h-.12-.18a4.36 4.36 0 0 0-.62-.07h-.4-.9-.28-.23-.22a7.73 7.73 0 0 0-.81.16h0l-.22.08a5.82 5.82 0 0 0-.74.24h-.07a6.65 6.65 0 0 0-1.06.55l-8.84 5.59a6 6 0 0 1 1.06-.56 7 7 0 0 1 .81-.28l.21-.06a7.2 7.2 0 0 1 1.05-.19h.21a7.8 7.8 0 0 1 1.08 0h.12c.4 0 .79.06 1.19.12h.13l1.24.29h.11l1.35.47h.1l1.43.66 151.29 78.58 8.84-5.7zm166.48 101.68l-.06-.68v-.31a.69.69 0 0 1 0-.13v-.24c0-.22-.07-.45-.11-.68l-.14-.71v-.05l-.15-.65-.18-.73-.08-.28v-.14l-.09-.31-.23-.74-.2-.58a.08.08 0 0 0 0-.05.3.3 0 0 0 0-.1l-.26-.73-.29-.71-.06-.14a.36.36 0 0 0 0-.09l-.19-.45-.31-.67-.24-.51v-.05l-.05-.11-.34-.67c-.11-.23-.27-.48-.4-.73a.41.41 0 0 0-.07-.11.75.75 0 0 0-.07-.12l-.34-.6-.44-.7-.23-.37a.8.8 0 0 0-.09-.14l-.4-.58-.63-.9-.1-.15-1-1.23-.67-.79-.54-.61h0 0l-.57-.61-.58-.59a.2.2 0 0 1-.08-.08.48.48 0 0 1-.11-.09l-.42-.4-.62-.57-.19-.15-.14-.12-.32-.27-.65-.52-.28-.2-.15-.12-.22-.16-.64-.44c-.15-.11-.31-.21-.47-.31h-.07a.47.47 0 0 0-.09-.06l-.62-.36a6.21 6.21 0 0 0-.61-.34l-.14-.08-8.84 5.7 1.45.83.1.07q.66.42 1.32.9l.14.1 1.26 1 .13.1 1.23 1.13.11.1 1.24 1.28v.05a34.11 34.11 0 0 1 2.25 2.78l.61.87.51.74.22.37.78 1.28a1.09 1.09 0 0 0 .08.15l.85 1.6v.08l.73 1.6v.1l.64 1.67v.08l.51 1.6.05.17.39 1.63a.05.05 0 0 0 0 0l.27 1.65v.13l.14 1.63 7 160v1.55.14c0 .46-.07.9-.13 1.32v.17l-.25 1.18a2 2 0 0 0-.06.23l-.35 1a.69.69 0 0 0 0 .1 7.33 7.33 0 0 1-.52 1 1.4 1.4 0 0 1-.1.16c-.15.25-.32.49-.49.72l-.22.26-.5.53-.22.21a7.57 7.57 0 0 1-.79.61l8.84-5.7a7.46 7.46 0 0 0 .78-.61l.23-.22c.17-.16.34-.34.5-.52l.22-.26.49-.72a1.4 1.4 0 0 1 .1-.16h0a9.12 9.12 0 0 0 .49-1h0a1.21 1.21 0 0 0 .05-.14l.25-.66.09-.34a1.66 1.66 0 0 0 .06-.21l.06-.2.15-.73a2.19 2.19 0 0 0 0-.27v-.16-.27h0c0-.22 0-.44.07-.68s0-.25 0-.38a.56.56 0 0 0 0-.13v-.17-.66-.68h0l-7-160c.04-.27.03-.48.01-.69z" class="Ck"/><path d="M511.29 56.07c-14.77-2.68-34.55 4.42-44.19 15.85s-5.48 22.87 9.29 25.54 34.55-4.46 44.18-15.85 5.48-22.87-9.28-25.54z" class="Bq"/><path d="M525.28 66.2l.14.48.09.43c0 .16.07.33.1.5l.06.43c0 .17 0 .34.05.5s0 .31 0 .45v.52.45.55.46c0 .15 0 .37-.08.55s0 .31-.07.46-.09.45-.15.68l-.09.41-.23.76-.1.34q-.21.61-.48 1.23c0 .1-.09.21-.14.31l-.46 1-.22.44-.31.56-.31.51-.35.56-.34.51-.4.57-.37.51-.45.57-.56.7-1.16 1.29-.35.37-.95 1c-.11.12-.23.22-.34.33l-1.33 1.19a2.65 2.65 0 0 1-.26.21l-1.16 1-.53.4-.65.5-.59.43-.7.47-.6.41-.73.47-.61.38-.76.45-.59.34-1.66.92-.24.13-1.49.74-.58.27-1 .45-.62.27-1 .42-.59.25-.89.33-.65.25-1 .33-.61.21-.88.27-.66.21-1 .29-.55.15-1.18.3-.37.09-1.56.35h-.25l-1.35.25-.55.1-1.05.16-.53.07-1.14.14-.62.06-1.05.09h-.58l-1.63.07h-.3-1.87-.75-.6c-.29 0-.56 0-.84-.06h-.56l-.91-.1-.46-.06-1.35-.22c-7.43-1.34-12.17-4.9-13.83-9.56l2 5.62c1.66 4.67 6.4 8.23 13.83 9.58.44.08.89.14 1.34.21l.48.06c.3 0 .6.08.89.1h.57l.83.06h.62.56.17 1.87.3c.54 0 1.09 0 1.63-.07h.28.31c.35 0 .7-.06 1.05-.09l.61-.06q.59-.06 1.17-.15h.41.1l1.08-.17.51-.08 1.51-.29h.09 0l1.56-.34.46-.12 1.09-.28h0l.56-.16c.32-.09.64-.17.95-.27l.64-.2c.31-.1.61-.18.91-.29h.08l.49-.17 1-.34.63-.24.91-.35.17-.06.41-.17 1-.44.61-.27 1-.44.34-.16.23-.12c.51-.24 1-.49 1.52-.75l.21-.11a37.88 37.88 0 0 0 1.67-.92l.16-.08.41-.25.78-.46.6-.38.74-.48.59-.4.71-.48c.19-.15.39-.28.58-.42l.67-.51.31-.22.2-.16c.4-.32.8-.64 1.19-1l.24-.2c.45-.38.89-.79 1.33-1.19l.33-.32q.49-.48 1-1l.35-.36c.4-.43.79-.86 1.16-1.3l.3-.37.27-.34.43-.56.39-.52.39-.55.34-.53.35-.55c.11-.17.2-.34.3-.52l.31-.55.13-.23a2 2 0 0 0 .1-.21 9.19 9.19 0 0 0 .46-1c0-.11.1-.21.14-.32.18-.42.34-.83.48-1.24a.17.17 0 0 1 0-.05c0-.09 0-.18.07-.27.08-.26.17-.51.23-.77l.1-.42c.03-.14.11-.45.15-.67a1.25 1.25 0 0 1 0-.19 2.51 2.51 0 0 0 0-.27c0-.18 0-.37.07-.55s0-.31.05-.47v-.53-.25-.22-.51-.45c0-.16 0-.33-.05-.49s0-.19 0-.28a1.36 1.36 0 0 0 0-.17 3.86 3.86 0 0 0-.09-.49c0-.15-.06-.29-.1-.43s-.08-.33-.13-.49 0-.19-.08-.28l-.09-.28-2-5.62c.1.1.16.28.21.48z" class="CM"/><path d="M509.37 58.1c-13.32-2.41-31.19 4-39.89 14.32s-4.94 20.65 8.39 23.06 31.19-4 39.89-14.32 4.95-20.64-8.39-23.06z" class="CN"/><path d="M505.35 62.57c-10.18-1.84-23.83 3.06-30.48 10.94s-3.77 15.78 6.41 17.62 23.83-3 30.48-10.94 3.78-15.77-6.41-17.62z" class="Bq"/><path class="C CO" d="M504.57,67.62l-3.2-.58-2,2.41c-4-.11-7.44,1.27-9.32,3.5-2.06,2.46-.75,4.15,2,5.7,1.88,1.07,2.42,1.86,1.61,2.82s-2.59,1.35-4.44,1h0a8.82,8.82,0,0,1-4.49-2.1l-3.47,2.78a10.15,10.15,0,0,0,4.64,2.1l-2,2.4,3.19.58,2.18-2.58c4.18.17,7.86-1.37,9.76-3.63s1.52-4-1.47-5.72c-2.09-1.31-2.79-2-2.09-2.88s1.88-1.3,4-.91a8.51,8.51,0,0,1,4,1.71l3.35-2.69a9.58,9.58,0,0,0-4-1.69l1.87-2.23Z"/><path class="C CP" d="M504,66.74l-3.2-.59-2,2.41c-3.95-.11-7.44,1.27-9.32,3.51-2.06,2.45-.75,4.14,2,5.69,1.88,1.07,2.42,1.86,1.61,2.82s-2.59,1.35-4.44,1h0a8.74,8.74,0,0,1-4.49-2.1l-3.47,2.79a10.26,10.26,0,0,0,4.64,2.09l-2,2.4,3.19.58,2.18-2.58c4.18.17,7.86-1.37,9.76-3.63s1.52-4-1.47-5.72c-2.09-1.31-2.79-2-2.09-2.88s1.88-1.3,4-.91a8.61,8.61,0,0,1,4,1.71l3.35-2.69a9.58,9.58,0,0,0-4-1.69L504,66.74Z"/><path d="M296.85 18.84c-14.3 6.71-27 24.87-28.26 40.56s9.24 23 23.55 16.26 27-24.86 28.26-40.55-9.24-22.98-23.55-16.27z" class="Bq"/><path d="M315 19a4.54 4.54 0 0 1 .41.33l.35.31.38.37.32.34.35.4a4.87 4.87 0 0 1 .3.37l.32.43.28.4.3.49.25.42.27.52.22.44.28.67.17.41.27.79.12.35.35 1.35.06.35.2 1.12c0 .17.05.34.07.51l.08.67c.03.23 0 .41.05.62s0 .47 0 .7v.65.73.66.77c0 .3 0 .62-.06.94 0 .6-.12 1.21-.2 1.81 0 .18-.05.36-.08.54l-.24 1.39-.09.49q-.18.91-.42 1.83a2.14 2.14 0 0 1-.09.34l-.42 1.52-.2.67-.26.82-.25.73-.31.84-.27.71-.34.85-.29.7-.37.85-.3.65q-.42.91-.87 1.8c0 .09-.09.17-.13.26l-.83 1.55-.33.58-.56 1-.37.61-.62 1-.36.57-.56.83-.41.61-.61.86-.4.55-.58.77-.44.59-.69.85-.37.47-.84 1-.24.25-1.13 1.24a1.62 1.62 0 0 1-.18.19l-1 1-.41.41-.8.78-.41.39-.9.81-.49.43-.85.72-.47.39-1.35 1-.26.2-1.61 1.13-.66.43-.54.34q-.37.24-.75.45l-.52.31-.84.46-.43.23-1.29.64c-7.2 3.38-13.44 3.21-17.71.22l5.15 3.61c4.27 3 10.51 3.17 17.71-.21.43-.2.86-.42 1.29-.64l.44-.24.83-.46.52-.3.74-.45.55-.35.51-.32a.71.71 0 0 1 .14-.1l1.62-1.14.24-.19c.46-.34.91-.69 1.36-1l.23-.18.26-.22q.42-.35.84-.72l.49-.42c.31-.27.61-.55.91-.84l.32-.29.08-.07.82-.81c.13-.13.27-.25.39-.38.38-.38.75-.78 1.12-1.17l.07-.06h0c.39-.41.76-.83 1.14-1.25.11-.12.21-.25.32-.38a33.17 33.17 0 0 0 .77-.9h0l.38-.48.65-.82.43-.56c.14-.19.41-.53.6-.8l.05-.06.33-.45.63-.9c.14-.19.27-.39.4-.59l.57-.85.11-.16.24-.39.63-1 .36-.61c.19-.32.39-.64.57-1 .06-.12.14-.23.2-.35s.08-.16.13-.24c.29-.52.57-1 .84-1.57a1.51 1.51 0 0 1 .11-.22 50.44 50.44 0 0 0 .88-1.82l.08-.16.2-.47.39-.87c.1-.23.19-.46.28-.69l.35-.86c.11-.28.18-.47.26-.7a26.23 26.23 0 0 1 .32-.85c.11-.28.16-.47.23-.72s.19-.56.28-.84c0-.13.09-.25.12-.38a2 2 0 0 0 .07-.26c.16-.52.3-1 .44-1.56 0-.1.05-.2.08-.31.16-.61.29-1.22.41-1.84 0-.15.07-.31.1-.47l.24-1.42c0-.17.05-.34.08-.52a38.49 38.49 0 0 0 .2-1.81v-.51-.46-.74-.68-.71-.66-.69l-.06-.63c0-.22 0-.44-.07-.66v-.28-.24l-.19-1.1c0-.12-.05-.25-.08-.37a19.04 19.04 0 0 0-.35-1.35.15.15 0 0 0 0-.06l-.1-.27c-.09-.27-.17-.54-.27-.81s-.11-.28-.17-.41-.19-.46-.29-.67c0-.06-.05-.12-.08-.19l-.14-.25a5.12 5.12 0 0 0-.27-.52c-.08-.14-.16-.29-.25-.43s-.19-.32-.29-.47-.1-.15-.14-.23l-.14-.18c-.1-.15-.21-.29-.32-.43l-.3-.37-.35-.39c-.06-.07-.12-.15-.19-.22l-.13-.13-.38-.36c-.11-.11-.23-.21-.35-.31l-.41-.34-.24-.19-.25-.18-5.14-3.61c.17.15.33.29.45.41z" class="CM"/><path d="M296.45 21.76c-12.91 6-24.34 22.44-25.52 36.61s8.35 20.75 21.27 14.69 24.34-22.45 25.52-36.62-8.35-20.74-21.27-14.68z" class="CN"/><path d="M295.72,28c-9.86,4.63-18.59,17.16-19.49,28s6.38,15.84,16.25,11.21,18.6-17.15,19.49-28S305.6,23.41,295.72,28Z" class="Bq"/><path class="C CO" d="M298.14,32.86,295,34.31l-.27,3.29c-3.46,2.33-5.62,5.64-5.87,8.7-.27,3.37,1.89,4,5.17,3.68,2.27-.23,3.22.13,3.11,1.45s-1.4,2.73-3.2,3.57h0a9.17,9.17,0,0,1-5.13.93l-1.28,4.51a10.65,10.65,0,0,0,5.26-1l-.28,3.29,3.1-1.44.3-3.55c3.69-2.4,5.91-6,6.17-9.07s-1.11-4.32-4.75-4c-2.6.15-3.65-.06-3.56-1.2.08-1,.83-2.26,2.89-3.22a9.08,9.08,0,0,1,4.46-1l1.24-4.35a10.06,10.06,0,0,0-4.49,1l.25-3Z"/><path class="C CP" d="M297.08,32.46,294,33.91l-.27,3.29c-3.45,2.33-5.61,5.64-5.86,8.7-.28,3.37,1.88,4,5.17,3.68,2.27-.23,3.21.13,3.1,1.45s-1.4,2.73-3.2,3.57h0a9.21,9.21,0,0,1-5.14.94l-1.28,4.51a10.76,10.76,0,0,0,5.26-1l-.27,3.29,3.09-1.44.3-3.54c3.7-2.41,5.92-6,6.17-9.08s-1.1-4.32-4.75-4c-2.6.15-3.65-.06-3.55-1.2.08-1,.82-2.26,2.88-3.22a9,9,0,0,1,4.46-1l1.24-4.35a9.88,9.88,0,0,0-4.49,1l.25-3Z"/><g clip-path="url(#x)"><path d="M114.89 271.79c-7.69 23.29-.72 56.92 15.58 75.12s35.77 14.07 43.46-9.22.72-56.91-15.58-75.1-35.77-14.09-43.46 9.2z" class="Bq"/><path d="M134.47 251.45c.27 0 .53-.09.81-.11l.72-.06h.82.72.83c.24 0 .49 0 .73.07s.56 0 .84.09.49.07.73.12l.88.17.73.17.88.25.73.22 1.06.4.64.24 1.19.55.51.23 1.9 1.06.47.29 1.46 1 .66.46.83.63.76.61.83.7.75.66.83.78.73.72.83.85 1 1.08 1.82 2.16.52.66 1.31 1.75.46.63 1.62 2.42.29.47 1.26 2.09c.19.31.36.63.54 1s.43.77.65 1.16l.56 1.06.61 1.24.52 1.07.59 1.28.48 1.08.56 1.32.42 1 1.11 2.9.15.42.86 2.58.3 1 .5 1.68.31 1.07.45 1.75.26 1 .34 1.51.25 1.12.32 1.6.19 1 .25 1.48.18 1.12.24 1.68c0 .31.09.62.13.92l.21 2c0 .21 0 .42.07.62l.2 2.6v.41l.11 2.25v.91 1.73.88 1.88 1c0 .57 0 1.15-.1 1.72 0 .31 0 .62-.06.94l-.26 2.65c0 .17 0 .34-.06.5l-.43 3-.22 1.2-.19 1-.29 1.33-.21.9-.37 1.44-.2.74q-.32 1.08-.66 2.13c-3.87 11.72-10.71 18.58-18.63 20.2l9.56-1.95c7.93-1.62 14.77-8.48 18.64-20.2a47.45 47.45 0 0 0 .65-2.12l.2-.76.38-1.42.21-.92c.08-.31.19-.88.27-1.31l.2-1 .18-.91v-.26c.17-1 .33-2 .45-3 0-.16 0-.32.05-.48.1-.88.19-1.77.26-2.66v-.45-.51c0-.57.07-1.15.09-1.72v-1-1.92-.67-.16-1.8-.84c0-.83-.07-1.67-.13-2.51a.65.65 0 0 0 0-.14h0l-.2-2.61-.09-.77-.2-1.84v-.06l-.14-.94-.22-1.61c0-.36-.12-.72-.18-1.08l-.26-1.53a.69.69 0 0 0 0-.13c0-.28-.1-.56-.15-.84l-.34-1.67-.24-1.07-.35-1.57c0-.09 0-.18-.07-.28s-.12-.46-.18-.7l-.47-1.78c-.09-.35-.2-.7-.29-1.06l-.5-1.67c-.06-.2-.11-.4-.18-.6l-.14-.4a61.8 61.8 0 0 0-.87-2.62c-.05-.12-.09-.25-.13-.37-.35-1-.72-2-1.11-2.92 0-.09-.06-.18-.1-.27-.1-.24-.21-.48-.3-.73-.2-.45-.38-.9-.57-1.36l-.48-1-.61-1.31c-.21-.43-.33-.7-.51-1s-.41-.85-.62-1.27a12.18 12.18 0 0 0-.55-1c-.19-.31-.44-.81-.66-1.21l-.29-.54c-.07-.12-.14-.24-.22-.36l-1.29-2.15a3.78 3.78 0 0 1-.26-.43c-.53-.83-1.08-1.63-1.64-2.42a13.51 13.51 0 0 0-.44-.61 48.64 48.64 0 0 0-1.34-1.78l-.5-.65q-.9-1.11-1.83-2.16l-.53-.58c-.17-.19-.33-.34-.5-.52l-.79-.82c-.26-.27-.5-.5-.77-.74l-.8-.76c-.26-.23-.5-.45-.77-.67l-.82-.7c-.25-.21-.5-.4-.76-.6l-.83-.63-.35-.27-.3-.2c-.49-.34-1-.66-1.45-1l-.49-.31c-.64-.38-1.27-.73-1.9-1l-.08-.05-.41-.18a21.3 21.3 0 0 0-1.2-.55l-.66-.26c-.35-.13-.7-.27-1.05-.38l-.3-.11-.42-.11a10.68 10.68 0 0 0-.88-.25c-.29-.07-.5-.13-.75-.18l-.86-.17-.4-.08h-.35l-.82-.1-.73-.06H147h-.45-.29-.82l-.72.06-.81.11-.48.06-.47.09-9.56 1.95z" class="CM"/><path d="M117.75 275.35c-7 21-.66 51.39 14.07 67.82s32.29 12.71 39.24-8.32.64-51.39-14.06-67.85-32.31-12.68-39.25 8.35z" class="CN"/><path d="M124.05 282.87c-5.29 16.07-.47 39.27 10.77 51.83s24.67 9.7 30-6.37.5-39.26-10.75-51.81-24.7-9.71-30.02 6.35z" class="Bq"/><g class="C CO"><path d="M132.06 285.28l-1.67 5.05 3.43 3.82c-1.06 6.37.37 12.34 3.55 15.89 3.5 3.9 6.55 2.15 9.67-1.91 2.16-2.81 3.57-3.49 4.94-2s1.58 4.49.62 7.42a14.3 14.3 0 0 1-4.42 6.79l3.72 6.25c1.43-1.07 3.2-3.69 4.44-7l3.42 3.82 1.67-5-3.68-4.12c1.24-6.73-.42-13-3.65-16.62s-6-3.37-9.59 1.07c-2.59 3.09-3.95 4.05-5.14 2.73-1-1.13-1.66-3.34-.55-6.69a13.92 13.92 0 0 1 3.67-6.06l-3.58-6a15.56 15.56 0 0 0-3.66 6.13l-3.18-3.54z"/></g><g class="C CP"><path d="M130.49 286.05l-1.67 5.05 3.42 3.82c-1.06 6.37.37 12.34 3.56 15.89 3.5 3.89 6.54 2.15 9.66-1.91 2.16-2.81 3.57-3.5 4.94-2s1.59 4.49.62 7.42a14.22 14.22 0 0 1-4.41 6.79l3.71 6.25c1.43-1.07 3.2-3.69 4.45-7l3.41 3.82 1.68-5-3.68-4.11c1.23-6.73-.43-13-3.65-16.63s-6.05-3.36-9.59 1.08c-2.6 3.09-4 4.05-5.15 2.73-1-1.14-1.66-3.34-.55-6.69a14 14 0 0 1 3.67-6.06l-3.58-6a15.62 15.62 0 0 0-3.66 6.14l-3.17-3.54z"/></g></g><path d="M248.32 346.28l7.59 41.93-3.79.46-3.8-42.39z" fill="#020202" opacity=".3"/><path d="M589.64 109.44l-19.34 97.55h-35.66l19.67-97.82 35.33.27z" class="CK"/><path d="M588.84 113.28L570.22 207l-30.37-.01 17.81-93.89 31.18.18z" class="Cv"/><g clip-path="url(#y)"><path d="M582.42 193.44c13.24-17.06 17.36-47 9.19-66.94s-25.54-22.22-38.78-5.15-17.36 47-9.19 66.93 25.53 22.22 38.78 5.16z" class="Bq"/><path d="M560.17 204.56l-.7-.15-.61-.17-.7-.21-.6-.21-.67-.27a5.46 5.46 0 0 1-.6-.27l-.66-.32-.58-.31-.68-.41-.55-.36-.66-.46-.54-.4-.76-.64-.46-.39-.82-.8-.36-.35-1.27-1.43-.3-.39q-.46-.59-.93-1.23l-.41-.58-.5-.77-.45-.72-.48-.83-.43-.77-.46-.89-.4-.82-.44-.95-.51-1.18-.88-2.33-.24-.71-.57-1.84-.2-.66-.63-2.48c0-.15-.07-.31-.1-.47l-.43-2.11-.17-.94-.19-1.17-.16-1-.14-1.21-.11-1-.12-1.24-.08-1c-.02-.31 0-.84-.07-1.26s0-.66 0-1q0-1.37-.06-2.73v-.39-2.4-.91c0-.52.05-1 .08-1.55 0-.32 0-.64.07-1 0-.53.08-1.06.14-1.59 0-.31.05-.61.08-.91l.16-1.37.12-1 .21-1.43.15-.92.23-1.3.17-1 .3-1.47.17-.8.41-1.71c0-.18.08-.36.13-.54l.59-2.22c0-.12.07-.23.11-.35l.57-1.89.25-.77.49-1.44.26-.72.59-1.56.33-.83.58-1.4.33-.76 1-2.13a3.6 3.6 0 0 0 .2-.39l1.25-2.38.54-1 .44-.76.64-1 .44-.68.73-1.09.38-.56 1.18-1.57c6.66-8.59 14.36-12.27 21.41-11.27l-8.51-1.2c-7.06-1-14.76 2.68-21.42 11.27-.4.51-.79 1-1.17 1.57l-.39.57-.73 1.07-.44.7-.62 1-.46.77-.41.7-.11.21a60.19 60.19 0 0 0-1.27 2.39 6.33 6.33 0 0 0-.17.38 51.77 51.77 0 0 0-1 2.13c0 .12-.11.24-.17.37l-.17.41-.58 1.4-.33.82-.59 1.59c-.08.18-.14.36-.21.55a1.21 1.21 0 0 1-.05.14l-.5 1.5a14.34 14.34 0 0 0-.23.7 51.72 51.72 0 0 0-.64 2.12.56.56 0 0 0 0 .12h0c-.22.74-.41 1.48-.61 2.23l-.15.66-.38 1.58v.06l-.17.82-.29 1.39c-.09.46-.11.64-.17.95l-.24 1.35a.43.43 0 0 1 0 .11c0 .25-.07.5-.12.75l-.21 1.49-.12 1c0 .46-.11.93-.16 1.4v.25c0 .21 0 .42-.05.63l-.15 1.62-.06 1c0 .51-.06 1-.08 1.53v.55.28c0 .81-.05 1.62-.05 2.44v.34c0 .92 0 1.84.06 2.75a2.09 2.09 0 0 0 0 .25v.7c0 .43.05.86.07 1.3l.09 1c0 .42.08.85.12 1.26l.11 1 .15 1.24c0 .33.09.67.15 1s.12.8.19 1.2c0 .18.05.36.09.53s0 .24.07.37l.44 2.16c0 .15.06.29.09.44a50.46 50.46 0 0 0 .65 2.49c0 .21.11.43.18.64l.59 1.86.22.69c.28.79.57 1.57.88 2.34l.27.63c.09.21.18.39.26.58l.42.92c.14.28.27.56.42.84s.29.58.44.86a18.13 18.13 0 0 0 .44.78c.15.25.31.56.47.83a15.06 15.06 0 0 0 .46.72l.5.77.21.32c.07.09.14.17.2.26a24.27 24.27 0 0 0 .92 1.22l.31.4c.42.5.84 1 1.27 1.43v.06l.29.27c.28.28.55.56.84.82l.46.4a15.13 15.13 0 0 0 .77.63c.07.05.14.12.21.18s.22.14.32.22l.65.46.58.37c.21.14.43.27.65.39l.31.19.28.14.66.32.59.26a9.38 9.38 0 0 0 .67.27l.37.14.24.08.69.21.62.16c.23.06.47.1.7.15l.42.09.41.06 8.51 1.2c-.3.04-.57-.02-.85-.07z" class="CM"/><path d="M581.09 189.64c12-15.39 15.68-42.45 8.3-60.43s-23.06-20.06-35-4.66S538.7 167 546.08 185s23.06 20.05 35.01 4.64z" class="CN"/><path d="M578.07 181.54c9.13-11.77 12-32.45 6.33-46.18s-17.61-15.33-26.75-3.55-12 32.44-6.33 46.17 17.61 15.33 26.75 3.56z" class="Bq"/><g class="C CO"><path d="M572.14 177.18l2.87-3.7-1.72-4.17c2.76-5 3.33-10.36 1.73-14.24-1.75-4.27-4.79-3.71-8.58-1.26-2.62 1.69-4 1.85-4.68.17s0-4.2 1.67-6.34a12.56 12.56 0 0 1 5.66-4.33l-1.22-6.31a14.81 14.81 0 0 0-5.76 4.53l-1.71-4.18-2.87 3.65 1.84 4.5c-3 5.22-3.49 11-1.87 14.87s4 4.58 8.28 1.94c3.06-1.8 4.47-2.2 5.07-.75.51 1.24.4 3.26-1.51 5.71a12.39 12.39 0 0 1-4.83 3.95l1.19 6.06a13.54 13.54 0 0 0 4.85-4l1.59 3.87z"/></g><g class="C CP"><path d="M573.67 177l2.88-3.7-1.73-4.18c2.77-5 3.33-10.35 1.74-14.23-1.76-4.27-4.8-3.72-8.59-1.26-2.62 1.69-4 1.84-4.68.17s0-4.2 1.68-6.34a12.55 12.55 0 0 1 5.67-4.33l-1.24-6.29a14.66 14.66 0 0 0-5.77 4.53l-1.71-4.18-2.87 3.69 1.84 4.49c-3 5.23-3.48 10.95-1.87 14.88s4 4.57 8.28 1.93c3.07-1.8 4.48-2.19 5.07-.75.51 1.24.4 3.27-1.51 5.72a12.42 12.42 0 0 1-4.83 4l1.19 6.06a13.71 13.71 0 0 0 4.85-4l1.59 3.88z"/></g></g><path d="M421.21.9c-21.12,4.54-43.57,24.82-50.13,45.31s5.25,33.45,26.37,28.91S441,50.31,447.56,29.82,442.33-3.63,421.21.9Z" class="Bq"/><path d="M445.38 6.72l.45.56.36.52.4.62.32.54.35.64.28.59.29.67.25.61c.08.2.17.5.25.75l.2.63.2.78.16.65c.05.22.12.65.17 1l.1.6c0 .37.09.76.11 1.14 0 .17 0 .33.05.5l.05 1.91v.49c0 .5 0 1-.08 1.54 0 .23 0 .47-.06.7s-.07.61-.11.92l-.12.84-.16 1-.17.86-.22 1-.22.88-.28 1-.37 1.24-.83 2.35-.27.69-.74 1.78-.28.63-1.11 2.3-.23.43-1 1.89-.48.83-.6 1-.55.9-.67 1-.58.87-.71 1-.61.85-.75 1-.6.78q-.84 1.08-1.71 2.13l-.25.3-1.58 1.81-.62.67-1.05 1.13-.68.7-1.13 1.13-.65.65-1 .94-.74.68-1.07 1-.71.61-1 .84-.77.65-1.17.93-.64.5-1.42 1c-.15.1-.3.22-.44.33l-1.89 1.31-.3.2-1.66 1.08-.68.43-1.3.78-.67.39-1.45.81-.79.43-1.35.69-.74.37-2.13 1-.41.17-2.49 1-1 .37-.83.29-1.14.37-.78.24-1.26.36-.65.18-1.91.45c-10.63 2.28-18.89.14-23.65-5.16l5.74 6.4c4.76 5.3 13 7.45 23.65 5.16.63-.13 1.27-.29 1.91-.45l.67-.18c.41-.12.83-.22 1.24-.35l.79-.25 1.12-.38.85-.29.76-.27.22-.09c.84-.32 1.68-.65 2.51-1l.38-.18c.72-.32 1.43-.65 2.14-1l.37-.17.4-.21 1.34-.69c.26-.14.52-.27.78-.42.49-.27 1-.54 1.48-.83l.51-.29.13-.07 1.34-.83c.22-.12.43-.25.64-.39.62-.39 1.24-.79 1.84-1.21l.11-.06h0l1.9-1.31.54-.41c.44-.32.88-.64 1.31-1h0l.66-.52 1.12-.89.74-.61 1.05-.88.09-.07.57-.5 1.12-1 .71-.66 1-1 .19-.18.44-.45 1.15-1.15.67-.69 1.05-1.13.38-.4c.08-.09.15-.19.24-.28l1.6-1.83.22-.26a67.82 67.82 0 0 0 1.73-2.15l.15-.19.42-.56.79-1 .58-.83.73-1 .56-.86c.18-.29.46-.69.69-1s.36-.57.53-.87a16.33 16.33 0 0 1 .63-1l.28-.47a3.24 3.24 0 0 0 .17-.32c.37-.65.72-1.29 1.06-1.94l.21-.39a48.89 48.89 0 0 0 1.11-2.32c.1-.2.19-.41.27-.61.27-.6.52-1.2.76-1.81.08-.22.17-.44.26-.67.3-.78.58-1.57.84-2.35l.2-.66c.07-.22.11-.41.17-.61l.27-1a30.06 30.06 0 0 0 .22-.91l.22-1c.07-.36.12-.59.16-.88s.12-.63.17-.94a14.44 14.44 0 0 0 .12-.85c.03-.29.08-.6.11-.91 0-.12 0-.25.05-.38a1.72 1.72 0 0 1 0-.32c0-.52.06-1 .08-1.53v-.51c0-.65 0-1.29-.05-1.91v-.08-.39c0-.39-.07-.78-.12-1.16 0-.2-.06-.41-.1-.61s-.11-.66-.17-1a2.8 2.8 0 0 1-.06-.28 2.54 2.54 0 0 0-.1-.37 14.75 14.75 0 0 0-.2-.78c-.07-.25-.13-.43-.2-.65s-.16-.48-.25-.72l-.12-.34c0-.1-.09-.19-.12-.29l-.3-.67c-.09-.19-.18-.39-.28-.58s-.22-.43-.34-.63l-.19-.35-.14-.22-.39-.6-.37-.52-.44-.57-.26-.33-.28-.32-5.74-6.39c.15.19.36.41.53.63z" class="CM"/><path d="M419.78 4.66c-19.07 4.09-39.33 22.4-45.26 40.91s4.74 30.2 23.8 26.11 39.33-22.41 45.26-40.92-4.73-30.19-23.8-26.1z" class="CN"/><path d="M416.87 12.81c-14.56 3.13-30 17.13-34.57 31.27s3.62 23.06 18.19 19.92 30-17.12 34.56-31.25-3.61-23.06-18.18-19.94z" class="Bq"/><path class="C CO" d="M418.61,20l-4.58,1-1.37,4.31c-5.32,2-9.22,5.78-10.49,9.78-1.4,4.39,1.28,5.93,5.76,6.49,3.09.39,4.24,1.15,3.69,2.88s-2.71,3.2-5.37,3.77h0a12.51,12.51,0,0,1-7.12-.33L396,53.46c1.45.61,4.23.78,7.32.24L402,58l4.58-1L408,52.4c5.66-2.06,9.72-6.14,11-10.18s-.14-6.1-5.09-6.81c-3.51-.6-4.84-1.2-4.37-2.69.41-1.27,1.8-2.75,4.84-3.4a12.3,12.3,0,0,1,6.24.09l3-5.41a13.71,13.71,0,0,0-6.3-.05l1.28-4Z"/><path class="C CP" d="M417.32,19.11l-4.58,1-1.37,4.3c-5.31,2-9.21,5.78-10.49,9.78-1.4,4.4,1.28,5.93,5.76,6.49,3.09.4,4.24,1.16,3.69,2.89s-2.71,3.2-5.36,3.77h0a12.62,12.62,0,0,1-7.13-.34l-3.09,5.61a14.68,14.68,0,0,0,7.32.25l-1.38,4.29,4.57-1,1.49-4.62c5.66-2.07,9.71-6.14,11-10.19s-.14-6.09-5.09-6.8c-3.5-.6-4.84-1.2-4.36-2.7.41-1.27,1.79-2.75,4.83-3.4a12.41,12.41,0,0,1,6.24.09l3-5.41a13.71,13.71,0,0,0-6.29,0l1.27-4Z"/><path d="M242.1 96c-17.54-12.59-47.64-15.59-67.23-6.68s-21.25 26.35-3.7 39 47.64 15.59 67.22 6.68 21.26-26.35 3.71-39z" class="Bq"/><path d="M254 117.86c0 .24-.07.47-.12.7l-.14.63-.19.7-.18.6a8.39 8.39 0 0 1-.25.69l-.24.6-.3.68-.29.59-.38.69-.34.57-.44.67-.38.55-.61.79-.38.48-.77.85-.33.37-1.38 1.32-.38.31-1.2 1-.56.43-.75.53-.7.48-.81.51-.76.46-.87.49-.8.43-.93.47-1.17.56-2.3 1-.69.27-1.82.64-.65.22-2.46.73-.46.11q-1 .29-2.1.51l-.93.21-1.16.23-1 .19-1.2.19-1 .15-1.23.17-1 .12-1.25.12-1 .08-2.72.17h-.4-2.39-.92-1.54-1l-1.63-.12h-.92l-1.37-.11-1-.09-1.43-.15-.93-.11-1.3-.18-1-.14-1.48-.25-.81-.13-1.72-.35-.54-.11-2.24-.51a3.58 3.58 0 0 1-.35-.09l-1.92-.5-.77-.22-1.46-.43-.74-.24-1.57-.53-.84-.3-1.43-.53-.77-.3-2.16-.92-.4-.18-2.43-1.16-1-.5-.77-.41-1-.6-.7-.41-1.12-.7-.57-.36-1.61-1.11c-8.83-6.34-12.8-13.9-12.07-21q-.43 4.28-.88 8.55c-.73 7.09 3.23 14.65 12.06 21 .53.38 1.08.75 1.62 1.11l.59.37 1.09.69c.37.22.48.27.71.42s.69.39 1 .57l.78.44.72.38.21.1a68.57 68.57 0 0 0 2.44 1.18l.39.16c.71.32 1.43.63 2.16.92l.37.16.43.16c.46.18.94.35 1.41.52l.84.31 1.61.53c.18.06.36.13.55.18l.14.05 1.52.44c.24.07.47.15.71.21.71.2 1.43.38 2.14.55h.12 0l2.25.52.67.13 1.6.31h.05l.83.13 1.41.24.95.13 1.35.19h.12l.74.09 1.5.15 1 .09 1.4.11h.26.63l1.62.08h1 1.54.92 2.43.35c.92 0 1.83-.09 2.74-.16h.25c.24 0 .47 0 .7-.06l1.29-.12 1-.12 1.26-.17c.34 0 .68-.09 1-.15l1.23-.19 1-.19 1.19-.24.53-.1.38-.05 2.15-.52.43-.11c.84-.22 1.65-.47 2.47-.73l.63-.21c.62-.21 1.23-.43 1.84-.66l.68-.25c.78-.31 1.55-.63 2.3-1l.63-.3c.2-.09.37-.19.56-.28s.61-.3.9-.46.55-.28.83-.44l.84-.48c.27-.15.52-.3.77-.47l.81-.5.7-.48.75-.53.31-.22c.09-.07.17-.15.26-.21.41-.32.8-.64 1.18-1l.39-.34q.74-.65 1.38-1.32l.06-.05.26-.3a20.87 20.87 0 0 0 .78-.86l.39-.48.6-.79.17-.22a3.62 3.62 0 0 0 .2-.33c.16-.22.31-.45.44-.67s.24-.39.35-.59l.37-.67c.12-.23.12-.21.17-.31s.08-.2.13-.29.2-.45.3-.66.16-.41.24-.6a7.87 7.87 0 0 0 .24-.69c.07-.23.09-.24.13-.37s0-.16.07-.25l.18-.69c0-.21.09-.42.14-.62s.09-.47.12-.71a3.34 3.34 0 0 0 .07-.42c0-.14 0-.27.06-.42l.87-8.55a4.02 4.02 0 0 1-.15.91z" class="CM"/><path d="M238.36 97.51c-15.84-11.37-43-14.08-60.7-6s-19.19 23.8-3.35 35.17 43 14.08 60.71 6 19.18-23.8 3.34-35.17z" class="CN"/><path d="M230.37 100.83c-12.1-8.69-32.87-10.75-46.38-4.6s-14.66 18.18-2.55 26.86 32.86 10.76 46.37 4.61 14.67-18.17 2.56-26.87z" class="Bq"/><path class="C CO" d="M226.24 106.92l-3.8-2.73-4.11 1.88c-5.08-2.58-10.47-2.94-14.29-1.2-4.2 1.91-3.54 4.93-.94 8.62 1.78 2.56 2 3.92.34 4.67s-4.19.15-6.4-1.43a12.63 12.63 0 0 1-4.54-5.5l-6.23 1.48c.52 1.48 2.26 3.66 4.74 5.59l-4.11 1.86 3.79 2.73 4.42-2c5.34 2.8 11.07 3.07 14.94 1.31s4.42-4.2 1.62-8.35c-1.91-3-2.36-4.39-.94-5 1.22-.55 3.25-.52 5.77 1.3a12.38 12.38 0 0 1 4.13 4.68l6-1.42a13.63 13.63 0 0 0-4.19-4.69l3.81-1.74z"/><path class="C CP" d="M226 105.4l-3.8-2.74-4.11 1.88c-5.08-2.57-10.47-2.94-14.29-1.2-4.2 1.91-3.54 4.93-.94 8.63 1.78 2.55 2 3.92.34 4.67s-4.19.14-6.4-1.44a12.67 12.67 0 0 1-4.54-5.5l-6.26 1.46c.52 1.49 2.26 3.66 4.74 5.59l-4.11 1.87 3.79 2.73 4.42-2c5.33 2.81 11.07 3.07 14.94 1.31s4.42-4.2 1.62-8.34c-1.91-3-2.36-4.39-.94-5 1.22-.55 3.25-.52 5.77 1.29a12.45 12.45 0 0 1 4.13 4.68l6-1.41a13.64 13.64 0 0 0-4.19-4.7l3.83-1.78z"/></svg>