<svg xmlns="http://www.w3.org/2000/svg" xmlns:xlink="http://www.w3.org/1999/xlink" viewBox="0 0 636.2 576.05"><defs><style>.cls-1,.cls-19{fill:none;}.cls-2{isolation:isolate;}.cls-3{clip-path:url(#clip-path);}.cls-4{fill:#41a18b;}.cls-5{fill:#419f89;}.cls-6{fill:#41a08a;}.cls-7{clip-path:url(#clip-path-2);}.cls-8{clip-path:url(#clip-path-3);}.cls-9{clip-path:url(#clip-path-4);}.cls-10{fill:#53cdb1;}.cls-11{clip-path:url(#clip-path-5);}.cls-12{clip-path:url(#clip-path-6);}.cls-13{fill:#2f5274;}.cls-14{fill:#2f5172;}.cls-15{clip-path:url(#clip-path-7);}.cls-16{fill:#2f5273;}.cls-17{clip-path:url(#clip-path-8);}.cls-18{fill:#3c6993;}.cls-19{stroke:#ff9378;stroke-linecap:round;stroke-linejoin:round;stroke-width:10px;}</style><clipPath id="clip-path"><path class="cls-1" d="M490.67,145.63l7-2.26a18.58,18.58,0,0,0-10,7.78l-7,2.25A18.46,18.46,0,0,1,490.67,145.63Z"/></clipPath><clipPath id="clip-path-2"><path class="cls-1" d="M405.77,345.4l-7,2.25a18.58,18.58,0,0,0,10-7.78,20.63,20.63,0,0,0-5.68-27.69l7-2.25a20.62,20.62,0,0,1,5.68,27.69A18.55,18.55,0,0,1,405.77,345.4Z"/></clipPath><clipPath id="clip-path-3"><path class="cls-1" d="M405.77,345.4l-7,2.25A18.72,18.72,0,0,1,382.2,345l7-2.25a18.87,18.87,0,0,0,14.45,3.16A19.19,19.19,0,0,0,405.77,345.4Z"/></clipPath><clipPath id="clip-path-4"><path class="cls-1" d="M396.65,348.19A18.84,18.84,0,0,1,382.2,345l7-2.25a18.87,18.87,0,0,0,14.45,3.16,17.52,17.52,0,0,0,2.13-.55l-7,2.25A17.21,17.21,0,0,1,396.65,348.19Z"/></clipPath><clipPath id="clip-path-5"><path class="cls-1" d="M310.09,256.14l7-2.25a18.51,18.51,0,0,0-10,7.77,20.65,20.65,0,0,0,5.68,27.7l-7,2.25a20.67,20.67,0,0,1-5.68-27.7A18.56,18.56,0,0,1,310.09,256.14Z"/></clipPath><clipPath id="clip-path-6"><path class="cls-1" d="M514.57,430.48l-21,6.75C526.27,372.79,558.75,260.15,531,86.6l21-6.75C579.76,253.4,547.28,366,514.57,430.48Z"/></clipPath><clipPath id="clip-path-7"><path class="cls-1" d="M439.66,526.9l-21,6.75c13.33-10.57,46.59-40.65,74.9-96.42l21-6.75C486.25,486.25,453,516.32,439.66,526.9Z"/></clipPath><clipPath id="clip-path-8"><path class="cls-1" d="M441.21,568l-21,6.76C417.73,574.3,359,563,289.83,505.06c-40.06-33.58-75.65-76.1-105.76-126.4C146.8,316.4,117.83,242,98,157.43l21-6.76c19.84,84.54,48.81,159,86.08,221.24,30.11,50.3,65.7,92.82,105.76,126.4C380,556.28,438.74,567.55,441.21,568Z"/></clipPath></defs><g id="Layer_2" data-name="Layer 2"><g id="_9" data-name="9"><g class="cls-2"><g class="cls-2"><g class="cls-3"><g class="cls-2"><path class="cls-4" d="M487.69,151.15l-7,2.25a18.46,18.46,0,0,1,10-7.77l7-2.26a18.58,18.58,0,0,0-10,7.78"/></g></g></g><polygon class="cls-5" points="410.08 309.93 403.08 312.18 386.96 300.91 393.97 298.66 410.08 309.93"/><polygon class="cls-6" points="393.97 298.66 386.96 300.91 480.69 153.4 487.69 151.15 393.97 298.66"/><g class="cls-2"><g class="cls-7"><g class="cls-2"><path class="cls-4" d="M405.77,345.4l-7,2.25a18.58,18.58,0,0,0,10-7.78,20.63,20.63,0,0,0-5.68-27.69l7-2.25a20.62,20.62,0,0,1,5.68,27.69,18.55,18.55,0,0,1-10,7.78"/></g></g></g><g class="cls-2"><g class="cls-8"><g class="cls-2"><path class="cls-4" d="M405.77,345.4l-7,2.25A18.72,18.72,0,0,1,382.2,345l7-2.25a18.87,18.87,0,0,0,14.45,3.16,19.19,19.19,0,0,0,2.11-.54"/></g></g></g><g class="cls-2"><g class="cls-9"><g class="cls-2"><path class="cls-4" d="M405.77,345.4l-7,2.25A18.72,18.72,0,0,1,382.2,345l7-2.25a18.87,18.87,0,0,0,14.45,3.16,19.19,19.19,0,0,0,2.11-.54"/></g></g></g><path class="cls-10" d="M499.79,142.83A18.9,18.9,0,0,1,514.25,146a20.62,20.62,0,0,1,5.67,27.69L415.76,337.62a18.48,18.48,0,0,1-12.1,8.32,18.87,18.87,0,0,1-14.45-3.16,18.87,18.87,0,0,0,14.45,3.16,18.48,18.48,0,0,0,12.1-8.32,20.62,20.62,0,0,0-5.68-27.69L394,298.66l93.72-147.51A18.48,18.48,0,0,1,499.79,142.83Z"/><polygon class="cls-5" points="389.21 342.78 382.2 345.03 305.78 291.61 312.79 289.36 389.21 342.78"/><g class="cls-2"><g class="cls-11"><g class="cls-2"><path class="cls-4" d="M312.79,289.36l-7,2.25a20.67,20.67,0,0,1-5.68-27.7,18.56,18.56,0,0,1,10-7.77l7-2.25a18.51,18.51,0,0,0-10,7.77,20.65,20.65,0,0,0,5.68,27.7"/></g></g></g><path class="cls-10" d="M319.21,253.35a18.86,18.86,0,0,1,14.45,3.15L394,298.66l16.11,11.27a20.62,20.62,0,0,1,5.68,27.69,18.48,18.48,0,0,1-12.1,8.32,18.87,18.87,0,0,1-14.45-3.16l-76.42-53.42a20.65,20.65,0,0,1-5.68-27.7A18.44,18.44,0,0,1,319.21,253.35Z"/></g><g class="cls-2"><g class="cls-2"><g class="cls-12"><g class="cls-2"><path class="cls-13" d="M514.57,430.48l-21,6.75C526.27,372.79,558.75,260.15,531,86.6l21-6.75C579.76,253.4,547.28,366,514.57,430.48"/></g></g></g><polygon class="cls-14" points="551.99 79.85 530.98 86.6 319.2 48.55 340.21 41.79 551.99 79.85"/><g class="cls-2"><g class="cls-15"><g class="cls-2"><path class="cls-13" d="M439.66,526.9l-21,6.75c13.33-10.57,46.59-40.65,74.9-96.42l21-6.75c-28.32,55.77-61.58,85.84-74.91,96.42"/></g></g></g><polygon class="cls-14" points="448.35 569.3 427.33 576.05 420.2 574.75 441.21 568 448.35 569.3"/><polygon class="cls-16" points="115.73 136.71 94.71 143.47 310.63 6.75 331.64 0 115.73 136.71"/><polygon class="cls-14" points="119 150.68 97.99 157.43 94.71 143.47 115.73 136.71 119 150.68"/><g class="cls-2"><g class="cls-17"><g class="cls-2"><path class="cls-13" d="M441.21,568l-21,6.76C417.73,574.3,359,563,289.83,505.06c-40.06-33.58-75.65-76.1-105.76-126.4C146.8,316.4,117.83,242,98,157.43l21-6.76c19.84,84.54,48.81,159,86.08,221.24,30.11,50.3,65.7,92.82,105.76,126.4,69.18,58,127.9,69.24,130.37,69.68"/></g></g></g><path class="cls-18" d="M331.64,0,584.92,45.51l2.47,14.12c15,85.47,17.62,165,7.76,236.46-8,57.7-24.07,110.27-47.83,156.25-41,79.4-90.8,111.75-92.9,113.09l-6.07,3.87L441.21,568c-2.47-.44-61.19-11.71-130.37-69.68-40.06-33.58-75.65-76.1-105.76-126.4-37.27-62.26-66.24-136.7-86.08-221.24l-3.27-14ZM514.57,430.48C547.28,366,579.76,253.4,552,79.85L340.21,41.79,159.67,156.11c42.78,170.64,117.19,262.5,172.8,309.76,48.1,40.89,90.65,56.23,107.19,61,13.33-10.58,46.59-40.65,74.91-96.42"/></g><path class="cls-19" d="M610.55,443.74c6.32,8.5,12.45,17.3,16.58,27,1.93,4.79,3.58,10.14,2.26,15a8.82,8.82,0,0,1-4.62,5.47,15.87,15.87,0,0,1-3.49,1.38,32.19,32.19,0,0,1-3.79.62c-10.38.78-20.85-1.87-31-4.69a312.7,312.7,0,0,1-29.86-10.63c-39.21-16-76.59-36.34-113.14-57.76A1792.94,1792.94,0,0,1,234.69,275.22q-49.77-39.59-96.62-82.71c-31.21-28.69-61.62-58.35-89.2-90.4C42,94.05,35.41,85.82,29.31,77.24s-11.78-17.47-15.95-27a49.32,49.32,0,0,1-4.17-14.6c-.54-4.91.62-9.81,4.05-13s8.51-4.57,13.52-5.2a73.34,73.34,0,0,1,15.53.09,193.36,193.36,0,0,1,31,6c10.23,2.71,20.34,5.91,30.35,9.41,20,7,39.68,15,59.19,23.46-19.2-9.09-38.65-17.71-58.57-25.19C94.31,27.49,84.23,24,74,21a197.32,197.32,0,0,0-31.35-6.81,73.64,73.64,0,0,0-16.27-.34c-5.41.62-11.21,1.92-15.76,6a16.82,16.82,0,0,0-4.73,7.54A23.09,23.09,0,0,0,5.08,36,53.62,53.62,0,0,0,9.35,52c4.24,10,10,19.2,16,28S38,97.27,44.8,105.52C58.38,122,72.89,137.63,87.88,152.77s30.33,29.89,45.93,44.36C165,226,197.18,254,230.39,280.6s67.52,51.86,102.59,76,70.9,47.14,107.91,68.18c18.5,10.53,37.21,20.69,56.26,30.19s38.39,18.47,58.3,26.13a312.25,312.25,0,0,0,30.4,10c10.32,2.59,20.94,5.07,31.83,4a35.2,35.2,0,0,0,4.05-.76,18,18,0,0,0,3.84-1.63,10.41,10.41,0,0,0,5.2-6.49c1.32-5.58-.61-11-2.69-15.83C623.56,460.62,617.15,452,610.55,443.74Z"/></g></g></svg>