<svg xmlns="http://www.w3.org/2000/svg" xmlns:xlink="http://www.w3.org/1999/xlink" viewBox="0 0 636.2 576.05" xmlns:v="https://vecta.io/nano"><style><![CDATA[.B{isolation:isolate}]]></style><defs><clipPath id="A"><path d="M490.67 145.63l7-2.26a18.58 18.58 0 0 0-10 7.78l-7 2.25a18.46 18.46 0 0 1 10-7.77z" fill="none"/></clipPath><clipPath id="B"><path d="M405.77 345.4l-7 2.25a18.58 18.58 0 0 0 10-7.78 20.63 20.63 0 0 0-5.68-27.69l7-2.25a20.62 20.62 0 0 1 5.68 27.69 18.55 18.55 0 0 1-10 7.78z" fill="none"/></clipPath><clipPath id="C"><path d="M405.77 345.4l-7 2.25A18.72 18.72 0 0 1 382.2 345l7-2.25a18.87 18.87 0 0 0 14.45 3.16 19.19 19.19 0 0 0 2.12-.51z" fill="none"/></clipPath><clipPath id="D"><path d="M396.65 348.19A18.84 18.84 0 0 1 382.2 345l7-2.25a18.87 18.87 0 0 0 14.45 3.16 17.52 17.52 0 0 0 2.13-.55l-7 2.25a17.21 17.21 0 0 1-2.13.58z" fill="none"/></clipPath><clipPath id="E"><path d="M310.09 256.14l7-2.25a18.51 18.51 0 0 0-10 7.77 20.65 20.65 0 0 0 5.68 27.7l-7 2.25a20.67 20.67 0 0 1-5.68-27.7 18.56 18.56 0 0 1 10-7.77z" fill="none"/></clipPath><clipPath id="F"><path d="M514.57,430.48l-21,6.75C526.27,372.79,558.75,260.15,531,86.6l21-6.75C579.76,253.4,547.28,366,514.57,430.48Z" fill="none"/></clipPath><clipPath id="G"><path d="M439.66 526.9l-21 6.75c13.33-10.57 46.59-40.65 74.9-96.42l21-6.75c-28.31 55.77-61.56 85.84-74.9 96.42z" fill="none"/></clipPath><clipPath id="H"><path d="M441.21 568l-21 6.76c-2.48-.46-61.21-11.76-130.38-69.7-40.06-33.58-75.65-76.1-105.76-126.4C146.8 316.4 117.83 242 98 157.43l21-6.76c19.84 84.54 48.81 159 86.08 221.24 30.11 50.3 65.7 92.82 105.76 126.4C380 556.28 438.74 567.55 441.21 568z" fill="none"/></clipPath><path id="I" d="M405.77,345.4l-7,2.25A18.72,18.72,0,0,1,382.2,345l7-2.25a18.87,18.87,0,0,0,14.45,3.16,19.19,19.19,0,0,0,2.11-.54"/></defs><g class="B"><g class="B" clip-path="url(#A)"><g><path d="M487.69,151.15l-7,2.25a18.46,18.46,0,0,1,10-7.77l7-2.26a18.58,18.58,0,0,0-10,7.78" fill="#41a18b"/></g></g><path d="M410.08 309.93l-7 2.25-16.12-11.27 7.01-2.25 16.11 11.27z" fill="#419f89"/><path d="M393.97 298.66l-7.01 2.25 93.73-147.51 7-2.25-93.72 147.51z" fill="#41a08a"/><g class="B" clip-path="url(#B)"><g><path d="M405.77,345.4l-7,2.25a18.58,18.58,0,0,0,10-7.78,20.63,20.63,0,0,0-5.68-27.69l7-2.25a20.62,20.62,0,0,1,5.68,27.69,18.55,18.55,0,0,1-10,7.78" fill="#41a18b"/></g></g><g class="B" clip-path="url(#C)"><g><use xlink:href="#I" fill="#41a18b"/></g></g><g class="B" clip-path="url(#D)"><g><use xlink:href="#I" fill="#41a18b"/></g></g><path d="M499.79 142.83a18.9 18.9 0 0 1 14.46 3.17 20.62 20.62 0 0 1 5.67 27.69L415.76 337.62a18.48 18.48 0 0 1-12.1 8.32 18.87 18.87 0 0 1-14.45-3.16 18.87 18.87 0 0 0 14.45 3.16 18.48 18.48 0 0 0 12.1-8.32 20.62 20.62 0 0 0-5.68-27.69L394 298.66l93.72-147.51a18.48 18.48 0 0 1 12.07-8.32z" fill="#53cdb1"/><path d="M389.21 342.78l-7.01 2.25-76.42-53.42 7.01-2.25 76.42 53.42z" fill="#419f89"/><g class="B" clip-path="url(#E)"><g><path d="M312.79,289.36l-7,2.25a20.67,20.67,0,0,1-5.68-27.7,18.56,18.56,0,0,1,10-7.77l7-2.25a18.51,18.51,0,0,0-10,7.77,20.65,20.65,0,0,0,5.68,27.7" fill="#41a18b"/></g></g><path d="M319.21 253.35a18.86 18.86 0 0 1 14.45 3.15L394 298.66l16.11 11.27a20.62 20.62 0 0 1 5.68 27.69 18.48 18.48 0 0 1-12.1 8.32 18.87 18.87 0 0 1-14.45-3.16l-76.42-53.42a20.65 20.65 0 0 1-5.68-27.7 18.44 18.44 0 0 1 12.07-8.31z" fill="#53cdb1"/><g class="B" clip-path="url(#F)"><g><path d="M514.57,430.48l-21,6.75C526.27,372.79,558.75,260.15,531,86.6l21-6.75C579.76,253.4,547.28,366,514.57,430.48" fill="#2f5274"/></g></g><path d="M551.99 79.85l-21.01 6.75L319.2 48.55l21.01-6.76 211.78 38.06z" fill="#2f5172"/><g class="B" clip-path="url(#G)"><g><path d="M439.66,526.9l-21,6.75c13.33-10.57,46.59-40.65,74.9-96.42l21-6.75c-28.32,55.77-61.58,85.84-74.91,96.42" fill="#2f5274"/></g></g><path d="M448.35 569.3l-21.02 6.75-7.13-1.3 21.01-6.75 7.14 1.3z" fill="#2f5172"/><path d="M115.73 136.71l-21.02 6.76L310.63 6.75 331.64 0 115.73 136.71z" fill="#2f5273"/><path d="M119 150.68l-21.01 6.75-3.28-13.96 21.02-6.76 3.27 13.97z" fill="#2f5172"/><g class="B" clip-path="url(#H)"><g><path d="M441.21 568l-21 6.76c-2.48-.46-61.21-11.76-130.38-69.7-40.06-33.58-75.65-76.1-105.76-126.4C146.8 316.4 117.83 242 98 157.43l21-6.76c19.84 84.54 48.81 159 86.08 221.24 30.11 50.3 65.7 92.82 105.76 126.4 69.18 58 127.9 69.24 130.37 69.68" fill="#2f5274"/></g></g><path d="M331.64 0l253.28 45.51 2.47 14.12c15 85.47 17.62 165 7.76 236.46-8 57.7-24.07 110.27-47.83 156.25-41 79.4-90.8 111.75-92.9 113.09l-6.07 3.87-7.14-1.3c-2.47-.44-61.19-11.71-130.37-69.68-40.06-33.58-75.65-76.1-105.76-126.4-37.27-62.26-66.24-136.7-86.08-221.24l-3.27-14zm182.93 430.48C547.28 366 579.76 253.4 552 79.85L340.21 41.79 159.67 156.11c42.78 170.64 117.19 262.5 172.8 309.76 48.1 40.89 90.65 56.23 107.19 61 13.33-10.58 46.59-40.65 74.91-96.42" fill="#3c6993"/></g><path d="M610.55 443.74c6.32 8.5 12.45 17.3 16.58 27 1.93 4.79 3.58 10.14 2.26 15a8.82 8.82 0 0 1-4.62 5.47 15.87 15.87 0 0 1-3.49 1.38 32.19 32.19 0 0 1-3.79.62c-10.38.78-20.85-1.87-31-4.69a312.7 312.7 0 0 1-29.86-10.63c-39.21-16-76.59-36.34-113.14-57.76a1792.94 1792.94 0 0 1-208.8-144.91q-49.77-39.59-96.62-82.71c-31.21-28.69-61.62-58.35-89.2-90.4C42 94.05 35.41 85.82 29.31 77.24s-11.78-17.47-15.95-27a49.32 49.32 0 0 1-4.17-14.6c-.54-4.91.62-9.81 4.05-13s8.51-4.57 13.52-5.2a73.34 73.34 0 0 1 15.53.09 193.36 193.36 0 0 1 31 6c10.23 2.71 20.34 5.91 30.35 9.41 20 7 39.68 15 59.19 23.46-19.2-9.09-38.65-17.71-58.57-25.19C94.31 27.49 84.23 24 74 21a197.32 197.32 0 0 0-31.35-6.81 73.64 73.64 0 0 0-16.27-.34c-5.41.62-11.21 1.92-15.76 6a16.82 16.82 0 0 0-4.73 7.54A23.09 23.09 0 0 0 5.08 36a53.62 53.62 0 0 0 4.27 16c4.24 10 10 19.2 16 28S38 97.27 44.8 105.52c13.58 16.48 28.09 32.11 43.08 47.25s30.33 29.89 45.93 44.36C165 226 197.18 254 230.39 280.6s67.52 51.86 102.59 76 70.9 47.14 107.91 68.18c18.5 10.53 37.21 20.69 56.26 30.19s38.39 18.47 58.3 26.13a312.25 312.25 0 0 0 30.4 10c10.32 2.59 20.94 5.07 31.83 4a35.2 35.2 0 0 0 4.05-.76 18 18 0 0 0 3.84-1.63 10.41 10.41 0 0 0 5.2-6.49c1.32-5.58-.61-11-2.69-15.83-4.52-9.77-10.93-18.39-17.53-26.65z" fill="none" stroke="#ff9378" stroke-linejoin="round" stroke-width="10"/></svg>