<svg xmlns="http://www.w3.org/2000/svg" viewBox="0 0 615.94 650.87" xmlns:v="https://vecta.io/nano"><style><![CDATA[.H{fill:#fff}.I{fill:#cc5c6c}.J{fill:#e6b147}.K{fill:#4165a5}.L{fill:#56d4b7}.M{fill:#955454}]]></style><path d="M174.1 414.78h10.19v85.51H174.1z" class="J"/><path d="M291.76,548H148.32a25.5,25.5,0,0,1-25.47-25.47V311.07H133V522.5a15.29,15.29,0,0,0,15.28,15.28H291.76Z" class="L"/><path d="M335.49 650.87h0a5.09 5.09 0 0 1-5.09-5.1V434a15.28 15.28 0 0 0-15.28-15.28h-64a25.47 25.47 0 0 1-25.47-25.47v-138.4a25.47 25.47 0 0 1 25.47-25.48h12.12a15.29 15.29 0 0 0 15.29-15.28v-31.58h10.18v31.58a25.47 25.47 0 0 1-25.47 25.47h-12.1a15.29 15.29 0 0 0-15.28 15.29v138.39a15.28 15.28 0 0 0 15.28 15.28h64A25.47 25.47 0 0 1 340.59 434v211.77a5.1 5.1 0 0 1-5.1 5.1z" class="J"/><g class="K"><path d="M377.39 650.87h0a5.1 5.1 0 0 1-5.1-5.1V530.48A25.47 25.47 0 0 1 397.77 505H415a15.28 15.28 0 0 0 15.28-15.28V308.51A25.47 25.47 0 0 1 455.79 283h69.07v10.19h-69.07a15.29 15.29 0 0 0-15.28 15.29v181.25A25.48 25.48 0 0 1 415 515.2h-17.23a15.29 15.29 0 0 0-15.29 15.28v115.29a5.09 5.09 0 0 1-5.09 5.1z"/><path d="M438.3,460.33l-.06-10.19,115.48-.74A15.45,15.45,0,0,0,569,434V400.81h10.19V434a25.66,25.66,0,0,1-25.44,25.6Z"/></g><path d="M94.76 331.94h233.09v10.19H94.76z" class="I"/><g class="M"><path d="M209.9,207.63h-90a25.5,25.5,0,0,1-25.47-25.48V127.69h10.19v54.46a15.3,15.3,0,0,0,15.28,15.29h90Z"/><path d="M313.22 650.87h0a5.1 5.1 0 0 1-5.1-5.1V469.33A15.29 15.29 0 0 0 292.84 454h-66.1a25.47 25.47 0 0 1-25.47-25.47V57.26h10.19v371.31a15.29 15.29 0 0 0 15.28 15.29h66.1a25.47 25.47 0 0 1 25.47 25.47v176.44a5.09 5.09 0 0 1-5.09 5.1z"/></g><path d="M132.91,356.67H122.72v-86.9a14.94,14.94,0,0,0-15.2-15l-70.21,1.11-.16-10.18,70.21-1.12a25.15,25.15,0,0,1,25.55,25.15Z" class="L"/><g class="I"><path d="M356.44 650.87h0a5.09 5.09 0 0 1-5.09-5.1V510.66a25.47 25.47 0 0 1 25.47-25.47h17.27a15.28 15.28 0 0 0 15.28-15.28v-83.2a15.28 15.28 0 0 0-15.28-15.28h-42.75A25.47 25.47 0 0 1 325.87 346V83.6h10.19V346a15.28 15.28 0 0 0 15.28 15.28h42.75a25.47 25.47 0 0 1 25.47 25.47v83.2a25.47 25.47 0 0 1-25.47 25.47h-17.27a15.29 15.29 0 0 0-15.29 15.28v135.07a5.09 5.09 0 0 1-5.09 5.1z"/><path d="M409.37 183.11h10.19v227.65h-10.19z"/></g><path d="M291.78 650.87h0a5.1 5.1 0 0 1-5.1-5.1V486.49A25.48 25.48 0 0 1 312.16 461H353a15.29 15.29 0 0 0 15.29-15.28V260.9h10.19v184.83A25.47 25.47 0 0 1 353 471.2h-40.84a15.29 15.29 0 0 0-15.29 15.29v159.28a5.09 5.09 0 0 1-5.09 5.1z" class="L"/><path d="M178.13 481.39h155.72v10.19H178.13z" class="J"/><path d="M268.14 650.87h0a5.09 5.09 0 0 1-5.09-5.1v-124a15.29 15.29 0 0 0-15.28-15.29H86A25.47 25.47 0 0 1 60.55 481v-41.74h10.19V481A15.3 15.3 0 0 0 86 496.29h161.77a25.47 25.47 0 0 1 25.47 25.47v124a5.1 5.1 0 0 1-5.1 5.11z" fill="#df775d"/><path d="M437.09,548H338.25V537.78h98.84a15.3,15.3,0,0,0,15.29-15.28V70.73h10.19V522.5A25.51,25.51,0,0,1,437.09,548Z" class="J"/><path d="M268.59 62.82A62.82 62.82 0 1 1 205.78 0a62.82 62.82 0 0 1 62.81 62.82z" class="M"/><path d="M615.94 406.79a40.4 40.4 0 1 1-40.39-40.4 40.39 40.39 0 0 1 40.39 40.4z" class="K"/><path d="M80.79 249.27a40.4 40.4 0 1 1-40.39-40.39 40.39 40.39 0 0 1 40.39 40.39z" class="L"/><path d="M66.25 265.7l-10.36-9.95a7.6 7.6 0 0 1-1.89 3.51l-1.89 2a7.64 7.64 0 0 1-3.42 2.07l10.31 9.9c1.79 1.73 4.86 1.43 6.86-.65s2.19-5.16.39-6.88zm-13.14-7.26a6.36 6.36 0 0 0 1.75-3.68 5.33 5.33 0 0 0-1.52-4.53l-1-.9a21.14 21.14 0 0 1-1 2.08 21.94 21.94 0 0 1-3.12 4.24 21.44 21.44 0 0 1-4.11 3.29 22.24 22.24 0 0 1-2 1.12l.94.9a5.34 5.34 0 0 0 4.58 1.34 6.35 6.35 0 0 0 3.61-1.9zm-5.73-3.61a19.45 19.45 0 0 0 3.1-4.27 21.36 21.36 0 0 0 1-2.11l.43-1.22A19.81 19.81 0 1 0 40 259.66l1.21-.48a19.28 19.28 0 0 0 2.06-1.08 20 20 0 0 0 4.11-3.27zm-8.86 1.66l-1.21.37A16.33 16.33 0 1 1 49 244.69l-.31 1.21a15.45 15.45 0 0 1-.82 2.14 16.06 16.06 0 0 1-7.23 7.54 15.61 15.61 0 0 1-2.12.91z" class="H"/><path d="M460.08 157.66a44.44 44.44 0 1 1-44.43-44.43 44.43 44.43 0 0 1 44.43 44.43z" class="I"/><path d="M415 173.83c-1.31-.64-1-1.72-1-2.66v-15.58l-.13-2.81a48.49 48.49 0 0 0-7.53-.14l-.21 2.79v15.84l-.12 2.81c-.7-.48-1.24-.65-1.32-.94a8 8 0 0 1-.11-2v-15.59l-.13-2.78c-2.57-.44-4.93-.14-7.55-.24l-.2 2.2v11.63c0 .87.23 1.86-.95 2.42-1.33-.47-1-1.66-1-2.65v-3.37l-3.89 6.51h7.95c3.18 0 3.55.37 3.92 3.66a7.63 7.63 0 0 0 .36 1.13c4.65.37 9.32.09 14 .15.86-1.59.25-3.8 2.62-5h9.61c-.83-2.65-3.1-4.41-3.39-7.06 1.12-.32 1.47.33 1.8.85 1.16 1.89 2.35 3.77 3.36 5.75a7.41 7.41 0 0 1 .76 3c.09 3.3.08 6.6 0 9.9a21.36 21.36 0 0 1-.62 3.25 16.36 16.36 0 0 1-3.2.69h-35.38a4.1 4.1 0 0 1-3.92-2.08v-13.12a4.11 4.11 0 0 1 .59-1.85c1.26-2.21 2.59-4.38 3.94-6.65l1.28.07c.64-3.35-.6-6.89.91-10.36 3.27-1.27 6.59-.74 10.17-.37 2.48-.71 5.29-.33 8.07-.27a9.59 9.59 0 0 0 2.62 0 1.55 1.55 0 0 1 2.12 1.09l-2.34.73c0 .73-.1 1.53-.11 2.34v15.83c.02 1.05.26 2.14-.98 2.88zm2.33 2h-13.26c-2 0-2.79-.8-3-2.81-.07-.62-.18-1.24-.26-1.79a35.07 35.07 0 0 0-10.56.08v6.37c.06 2.14-.38 4.23.37 6.34h38.55a3.87 3.87 0 0 0 1.09-3.11v-6.92-3h-10.65c-.21 1.83-.15 3.67-2.25 4.84zm25.27-33.89v14.68a3.29 3.29 0 0 1-3.32 1.83h-16.83a13.5 13.5 0 0 1-2.91-.71c-.28-5.48-.15-10.72-.08-16.22a19 19 0 0 1 2.21-.34c12.44-.39 18.73-.18 20.93.76zM421 156.49l19.51-.12c.37-3.41.28-11.22-.18-13.26-6.38 0-12.82-.13-19.33.11zm2.13-17.08c-.81-.28-.76-1-.75-1.63 0-3.94 3.91-7.62 6.9-8 2.5-.32 5-.31 7.34 1.28a10 10 0 0 1 4.05 6.22 1.7 1.7 0 0 1-1.08 2.34c-.15-.58-.29-1.07-.4-1.58-.67-2.93-1.94-5.38-5-6.41-4.76-1.58-9.44 1.11-10.21 5.93a11.4 11.4 0 0 1-.4 1.63c-.08.1-.31.15-.45.22zm11.7-3.48l-4.67-2 .76-1.05c5 .8 7.51 3.81 6.51 7.57-.73.29-1-.06-1.16-.75a8.3 8.3 0 0 0-.35-1.66 21.54 21.54 0 0 0-1.09-2.11zm-9.49 32.84l-1.43-.11a82.17 82.17 0 0 1 .1-8.89c0-.24.39-.45.73-.82.27.49.61.82.62 1.16l-.02 8.66zm-28.29-6.89c1.48-1.56 3.2-.75 4.72-.93.74-.08 1.49 0 1.71 1-.23.94-1 .94-1.72 1-2.76.13-3.32.05-4.71-1.07zm16.49-.12c-.84 1.61-2.12 1.13-3.16 1.11s-2.48.53-3.27-.82a1.21 1.21 0 0 1 1.45-1.08c1.61.17 3.44-.64 4.98.79zm-10.15-1.86a12.49 12.49 0 0 1-6.18.33l.13-1.19c2.14.01 4.25-.65 6.05.86zm3.77.1v-.68c2.36-.75 4.88-.6 6.11.36-1.27.97-3.86 1.11-6.11.32zm21.49 19.6v2.77a10.18 10.18 0 0 1-1.75.33q-16.93 0-33.88 0a9.43 9.43 0 0 1-1.13-.16v-2.91s.08-.08.15-.13.12-.13.19-.14c.49 0 1-.11 1.48-.11h33.88a5.75 5.75 0 0 1 1.06.35zm7.98-34.41l.76 1-6.58 8.11c-1.93-1.17-3.2-2.79-4.77-4-.17-.14-.1-.59-.16-1 2.32-.32 2.8 2.12 4.56 2.71 2.45-1.83 3.56-5.01 6.19-6.82z" class="H"/><g class="I"><path d="M52.37 312.21c1.4.52 2.53-.33 2.78 1.7-.76.76-1.85 1.87-.92 3 .45.55 1.64.2 2-.15a8.16 8.16 0 0 1 3.5-2.43c2.83 0 2.15-.54 3.4-2.46.5-2.76-9.33-1.42-10.76.34zm12.32 3.02c.28-.47-2.66 0-2.79 0 .65.64 2.15 1.03 2.79 0zm-16-.87c1.43-.12 1.49.22.75 1.21-.59.78 1.34 1.1 2.06 0 1.27-1.81-3.93-3.34-2.81-1.21zm18.17 4.58c.12-.42-1.17 0-1.24.53-.14 1.17 1.06.14 1.24-.53zm.32-.07c.06.51.15.63-.13 1 .87.89 1.33.21 2.07-.32-.6.44-.84-1.47-1.54-1.11l.4-.62-.67-.08c.55-.71-.74-.16-.69.42 0 .05.53.45.56.71zm4.75 6.01a1 1 0 0 1-.06-.6c-.99-.03.06 1.14.06.6zm23.13 19.04a8 8 0 0 0 .29-3.57 14.71 14.71 0 0 0-.29 3.57z"/><path d="M95.35 340.35a13.3 13.3 0 0 0 .18-1.85 6.36 6.36 0 0 0-.18 1.85zM81.16 324.6c0-.2 0 0 0 0zm.05 25.32a11.71 11.71 0 0 0-1.15 2.89c-.58 2 2.56-2.68 2.75-3.07a3.52 3.52 0 0 0 .26-1.55 23 23 0 0 1-1.86 1.73z"/><path d="M83.06 348.11v.08c0 .02.05-.1 0-.08zm8.83-7.01c.23.09.35 0 .37-.34 0-.15.07-1.49-.1-1.49s-.35 1.66-.27 1.83zm-10.47-26.92zm-.22-.12c-.59-1.08 1.53-.67 1.11-1.27-.25-.36-3.47-.13-1.11 1.27z"/><path d="M81.23 314.09c.11 0-.17-.07 0 0zm-9.55-1.87c.5.13.31-.75.7-.88a1.16 1.16 0 0 0 1 .74.92.92 0 0 0-.33-.38 2.11 2.11 0 0 0 .48-.32c.29-.71-5.69-.09-1.85.84zm-21.76 9.49c.49 0 2 .38 2.14 0 .46-1.19-1.77-.85-2.14 0zm-7.63 11.4c.21.11.64.48 1.07.77l.11.23c.14.26-.09-.2-.11-.23.45.3.89.49 1 .15.81-1.78-2.65-1.24-2.07-.92zm2.59 1.65a2.2 2.2 0 0 1 1.1-.19c.25-.15-2.37-2.01-1.1.19zm1.56-20.6h0s-.02-.01 0 0zm.9-.28a1.71 1.71 0 0 0 .94-.44c.57-.57-.88.37-.94.44zm.07 0zm50.87 17.85a46.61 46.61 0 0 0-1.2-5 34.74 34.74 0 0 0-2-4.7 32.45 32.45 0 0 0-2.63-4.3 33.34 33.34 0 0 0-3.29-3.88 40.9 40.9 0 0 0-3.73-3.23 32.53 32.53 0 0 0-4.14-2.62c-.73-.41-1.72-.85-2.25-1.08l-2.1-.83a34 34 0 0 0-3.76-1.09l-2-.38-2.4-.29-2-.1h-1.55c-.49 0-4.87.5-6.47.84l-2.4.63-2.16.76a33 33 0 0 0-4.81 2.37l-2.21 1.45-2 1.52a30.26 30.26 0 0 0-3.62 3.53l-1.61 2-1 1.46-.37.54a32.91 32.91 0 0 0-2.43 4.55 30.32 30.32 0 0 0-1.65 4.81 25.08 25.08 0 0 0-.56 2.6l-.24 1.77c0 .28-.06.55-.1.79a22.36 22.36 0 0 0-.13 2.76 32.53 32.53 0 0 0 2.09 11.75 33 33 0 0 0 5 8.8l1.62 1.87a22.41 22.41 0 0 0 1.83 1.82l.54.47a16.69 16.69 0 0 0 1.4 1.17l4 2.71a31.55 31.55 0 0 0 4.84 2.25 49.79 49.79 0 0 0 6.94 1.71l1.57.17 1.27.08h.58 1.66c.09 0 1.08 0 2.75-.2l2.62-.38a30.16 30.16 0 0 0 3-.74l1.43-.47.46-.16a24.94 24.94 0 0 0 3.58-1.46l2.37-1.31 1.68-1.11.36-.24A33.87 33.87 0 0 0 89 360l1.75-1.86 1.07-1.32.46-.6a32.31 32.31 0 0 0 5.46-11.5 47.15 47.15 0 0 0 .85-5.1 33.9 33.9 0 0 0-.31-7.89zm-16-10.46c.07-.06 2.77 1.18 2.74 1.73a.89.89 0 0 1-1.12.43c.36.55 1.28.95 1.39 1.52a.38.38 0 0 0-.42.08c.16.19 1.38 1.69.38 1.64-1.66-.08-1.25-2.24-3.11-2.25.93-.25 1 .58 1.78.76.02-.02-2.48-3.18-1.68-3.91zm12.14 25.43c.2-.92 1-4.9.18-4.87a24.67 24.67 0 0 0-.24 5l-.68 1.76a30.81 30.81 0 0 1-3.45 6l-.48.61-1 1.22-1.61 1.71a28.56 28.56 0 0 1-3.54 3l-.36.25-1.56 1-2.24 1.24a23.72 23.72 0 0 1-3.06 1.38l-.48.16-1.27.42a24.42 24.42 0 0 1-2.87.69c-.54.11-1.49.26-2.4.36l-2.42.18h-.2v1.29l-.15-1.29h-1.3-.57l-1.19-.07c-.46 0-1.06-.11-1.42-.16a47.14 47.14 0 0 1-6.4-1.57 28.93 28.93 0 0 1-4.37-2.01c-1.28-.76-2.86-1.87-3.83-2.56l-1.2-1-.59-.52c-.49-.42-1.12-1.08-1.62-1.61l-1.5-1.76a30 30 0 0 1-2.6-3.82 28.68 28.68 0 0 1-2-4.19 29.05 29.05 0 0 1-1.33-4.55 29.73 29.73 0 0 1-.63-6.38 20.79 20.79 0 0 1 .12-2.39c0-.26.07-.54.1-.82l.22-1.64.43-2.07a10.11 10.11 0 0 0 .45 3.33l-.06-3.42c.08 1.87-.06 4.45 1 6.06.48.71 1.8 1 2.57 1.87 2.19 2.45 3.08 3 2.85 6.67s3.87 5.18 4.89 8.24c.94 2.79 3.1 10.63 7.22 10.39 0-.46-4.16-3.41-2.59-4.25.18-1.3 1.36-2.23 1.28-3.81-.12-2.16.76-2 1.19-3.62l1.15-4.44c.49-2-1.51-2.57-3-3.07a3.58 3.58 0 0 1-2.27-1.64c-.32-.75-.44-1.68-1.48-1.64-1.31 0-1.62-2.16-2.74-2.17-2.35 0-3.1-1.61-3.63 1.46-.31-1.16-1.24-.57-1.61-1.88-.17-.61-.38-2.09-1.36-1.69.07-.74.64-2.13.18-2.65-.44.48-1.28 2.21-1.56.79a7.74 7.74 0 0 1 0-2.63 2.4 2.4 0 0 1 1.56-2.05c2.45-.64.61 1.92 2 2.24.34-2.11-.1-3.13 1.37-4.91.51-.62.88-1.45 1.39-2.11s5-3.73 1.95-2.85c1.6-1.29 5.73-1.7 2.89-4.45-1 1.69-1.2-.57-1.41-.87-.61-.87-2.88 3.66-3.42 3.89-.4-1.69-2-2.25.06-3.82.83-.63 2.68-1.27 2.71-2.26-.88.22-1.94.36-3 .63l1-.93v.06a4.26 4.26 0 0 1 .56 0c-.28.05.65-.6.25-.62l-.15.08.44-.36a1 1 0 0 0 .44-.3 1.13 1.13 0 0 1 .11-.11c.19-.16.39-.31.57-.44l1.14-.76a2.6 2.6 0 0 0-.35.32c-.29 1.67 1.18 1.19 1.66.22a16.78 16.78 0 0 1 2.56-1.41 9.21 9.21 0 0 0-3.21.44c.09 0 .17-.1.25-.14a28.83 28.83 0 0 1 4.45-2.19 18.68 18.68 0 0 1 2-.69c.66-.18 1.08-.33 2.2-.58 1.5-.33 5.53-.76 5.91-.78h1.63s.64 0 1.73.09c.94.07 1.83.21 2.22.27.55.08 1.29.23 1.84.35a33.28 33.28 0 0 1 3.4 1l2 .77c.49.19 1.4.63 2 1a29.69 29.69 0 0 1 3.88 2.45c.41.3.84.65 1.27 1-.15.12-.21.26 0 .55-2-.61.22.36.08 1.18-.68 0-1.71-2.27-2.18-1.73a7.14 7.14 0 0 0 1.08 1.65c-1.19-.87-1.6-.42-2.87-.21-1.43.23-1.18-.62-2.23-.6.9 1.66-1.65 1.15-2.28.31.66-.24 1.1.66 1.78.27-.64-2.55-5.36-.93-6.78-.33.74 0-2 1.63-2 1.53-.6 1.69 1.13 1 1.69.94a11.52 11.52 0 0 0 1 1.43c.41-.18.6-1.15 1-1.14.81-.07-.55-1.13-.18-1.61.19-.24 2.19-1.14 1.74-.34-.27.47-1.5.24-.54 1.28.49.54 1.57-.42 1.94.2a8.67 8.67 0 0 1 1 2.6 12.39 12.39 0 0 0-1-2.33c-.89-1.19-.82.62-1 .95-1.13 0-.31.74-1.67.84a7.89 7.89 0 0 1-2.85-.78c-.15 1.15.52.71-1.06 1.7-.05 0-2.71 1.09-2.72 1.15 2.54 3.73-1.18-.07-1.49 2.62-.18 1.52.69 3.06 2.27 1.93 1.15-.83 1.9-3.36 3.66-2.94.39.09 1.55 1.34 1.91 1.6 1.38 1-.36.74-.64 1.09a3 3 0 0 0 .9.48c.14-.65.38-1.51 1-1.28.09-.73-2.47-1.08-2.06-2.23.9-.07 3.71 3.5 3.62 3.57.78-.76-.9-2 1.4-1.6 0-.68-.47-1.5.3-2.07.11-.09.06-.48-.07-1 .22.37.52.51 1.11 1 0 .35 0 1.19.79.45-.16-.27-.4-.12-.53-.43a2.36 2.36 0 0 1 1.14-.39 2.38 2.38 0 0 0 1.27 2.41 1.56 1.56 0 0 0-1 .68c1.08-1.63-3.93-.89-3.49-.08.6 1.1 2 2.27 2.82.93a7.17 7.17 0 0 0 .08 1.82c-.46 1.24-1 .4-2.11 1.4-.4-.31.06-.71-1.15-1.23-.76-.32-1.19-.49-1.35.45s-1.62-.39-2-.48c-2.11-.57-.3-1.51-1.5-2.32a15.07 15.07 0 0 1-4.09.73c-1.36 0-1.9.62-2.39 1.91s-1.64 1.7-2.19 2.86a8 8 0 0 0 2.55 9.52c.9-.63 6.33-1.7 6.08.67a5.81 5.81 0 0 0 .58 3.79c.73 1.75 0 2.26-.55 3.72a10.14 10.14 0 0 0 .44 5.51c.4.67-.44 2.11.7 2.13 1.35 0 2.35-1.12 3.28-1.93s1.14-2.86 2-3.66 1.92-1.23 2.2-2.47-.25-2.64.5-3.8c1.29-2 3.37-3.72 3.89-6.14v-.82c-2.18.81-2 .86-2.91-1.16-1.09-2.33-1.82-4.82-2.7-7.24a2.19 2.19 0 0 0 .61.89 1.64 1.64 0 0 0 .23-.72c0 .16 0 .31.06.41a21.82 21.82 0 0 0 1.74 4.66c.58 1.46.68 3.34 2.51 2.24a7.77 7.77 0 0 0 2.32-2.1c1-1.41 0-2-.38-3.37-.92.32-.55 1.78-1.63.24-.29-.41-1.25-1.87-.6-2.34a2.3 2.3 0 0 1 1.15 1.33c.2.49.75 0 1.06.2.88.68 1.5.42 2.37.92.7.4.27 1.16 1.24 1.27 0 0 .14 1.88.32.62.48.59.3 3 .4 3.5.67 1-.62 2.23.43 3.14 1.17-.88.9-3.1 1.52-4.32 1.61-3.15 1.39-1.49 1.83 1.19l.49-.42a5.08 5.08 0 0 1 .28 1.88 1.4 1.4 0 0 1 .06-.24 4.82 4.82 0 0 1 .14 2.48c0-.06.06-.13.1-.19-.16 1.19-.38 2.53-.63 3.57a24.79 24.79 0 0 1-.71 2.58z"/></g><path d="M144.48 122.34a45.8 45.8 0 1 1-45.79-45.79 45.8 45.8 0 0 1 45.79 45.79z" class="M"/><path d="M398,360.58a69.1,69.1,0,1,1-69.09-69.1A69.1,69.1,0,0,1,398,360.58Z" class="I"/><g class="H"><path d="M362.11 316.34c4 1.84 5.41 4.77 5.39 8.76v40.95c0 6.14-2.26 8.29-8.56 8.32l-8.89.05 2.74 7.88a21.75 21.75 0 0 1-4.5 1h-31.85c-.68 0-1.37-.08-2.06-.12a32.57 32.57 0 0 0-7.37.12l-1.88-1.44 2.59-7.28a28.62 28.62 0 0 0-7.76-.24c-7.23.55-9.78-2.94-9.63-9.45.3-13 .09-25.92.09-38.88v-2.89c.19-4.18 2.59-6.64 6.7-6.85 1.52-.07 3 0 4.55 0h60.47zm1.63 3.58a29 29 0 0 0-5.05-.93c-19.85-.06-39.7 0-59.54-.06-2.52 0-4.59.67-6 2.92a9.21 9.21 0 0 0-.17 1.24v43.41c0 3.91 1.32 5.22 5.2 5.25h20.67q20.47 0 40.93 0c.82 0 1.63-.15 2.53-.24l2.51-2.79v-44.28c-.02-1.31-.61-2.61-1.08-4.52zm-16.89 54.65H310.8l-2.09 5.27H349l-2.15-5.27zM292 404.85c-2.35-1.31-3.12-3.24-2.07-5.34 2-4 4.37-7.93 6.62-11.86.18-.32.64-.49 1.1-.84h62.89a20.94 20.94 0 0 1 1.94 2.47l5 9c1.49 2.78 1.23 3.92-1.48 6.54zm-.1-2.67c1.82.1 2.9.2 4 .2h65.33a13.16 13.16 0 0 0 2.88-.14c.57-.12 1-.71 1.76-1.24-2.84-3.74-3.77-8.38-6.89-11.52h-60.8c-1.58 4.32-4.81 7.7-6.3 12.7zm20.82-72.36l2.28-2.37c3.66-.33 3.66-.33 6.34 1.33 2.34 6 1.84 9.88-1.8 13.17a13.41 13.41 0 0 1-1.9.14c-3.28-.16-4.74-1.54-4.89-4.79-.11-2.3-.03-4.65-.03-7.48zm6.58 9.34c-.07-3.32.67-6.13-.61-9.27l-3 .28c-.46 3.19-.76 6 .24 9zm1.84 22.43l-5.51 1.73-2.91-3.43v-6.8c.14-4.76 3.07-6.51 7.47-4.5a10.76 10.76 0 0 1 1.23.82c1.38 3.77 2.01 7.67-.28 12.18zm-2.14-1.88a18.65 18.65 0 0 0-.19-9.12l-3.05.22A19.1 19.1 0 0 0 316 360zM344.46 342h-4.29l-2.55-2.7c.31-4.37-1.49-8.9 3.06-12.06h3.57c4.67 3.62 4.86 10.29.21 14.76zm.5-10.71l-3.09-1.77a7.93 7.93 0 0 0-.36 9.94l2.27-.22c1.84-2.46.98-4.98 1.22-7.97zm-4.24 16.6h3.67c4.43 4 4.55 10.3.22 14.69h-3.81c-4.57-3.73-4.69-10.42-.08-14.69zm.67 2.63c-1.95 4.42-1.52 9 1.18 9.68l2.39-1.95c-.25-2.81.83-5.52-1.39-7.73zm-37.69-17.59l-2.47-.27c.13-3 2.31-4 4-5.47 2.26.88 1.77 2.71 1.8 4.26.14 8.6.12 8.6-2 10.76-.24-1.29-.46-2.25-.59-3.22l-.73-6.06c.14-.11.27-.23 0 0 .21-.26.1-.13-.01 0zm.93 29.35v-8c-.37-.61-.44-.83-.51-.83-.78 0-1.55.09-2.53.16-.93-3.35 2.16-3.95 3.72-6.13.69 1 1.56 1.69 1.59 2.41a126.79 126.79 0 0 1 0 10.68c0 .72-.84 1.41-1.29 2.11zm24.65-8.86h-2.86c.09-2.61.09-2.61 3.79-5.59.5.51 1.47 1 1.48 1.57.11 4 .05 7.93 0 11.9 0 .4-.62.78-1 1.2-2.05-1.16-1.26-3-1.38-4.52s-.03-2.98-.03-4.56zM356 342.46c-3.16-3.1-1.07-6.51-2.15-9.65h-3c1-2.84 3-4.18 4.91-5.62 1.24 2.71 1.4 10.56.24 15.27zm-26.93-9.74h-2.74c.66-2.52.66-2.52 4.11-5.18 1.56 1.66 1.92 4.56 1.44 11.51-.09 1.4-.09 1.4-1.93 2.88-1.41-2.93-.23-5.93-.88-9.21zm26.79 30.02c-3.2-2.65-.83-6.27-2-9.16l-3.19-.33a13.58 13.58 0 0 1 5.22-5.44c1.18 3.43 1.11 11.66-.03 14.93zm-55.57 29.87h57.59l3.86 6.66c-3.6.84-61.45.9-65.09.18-.2-2.94 1.93-4.65 3.64-6.84zm276.19-15.06v12.2a33.41 33.41 0 0 0 9.33-1.58 26.86 26.86 0 0 0-9.33-10.62zM562.33 402l.24 1.36 10.64.84v-.26h1.41v-2.55h-12.33l.04.61zm15.55 2.19l10.44-.82c.09-.74.19-.92.24-1.37v-.62h-12.08v2.55h1.4zm-3.26-12.58a35 35 0 0 1-10.29-1.8 27.89 27.89 0 0 0-2 9.71h12.33zm0-14.2a27 27 0 0 0-9.52 10.7 33.23 33.23 0 0 0 9.52 1.64zm11.96 12.47a35.07 35.07 0 0 1-10.1 1.73v7.91h12.12a28.22 28.22 0 0 0-2.02-9.64zm1.01-2.33a31 31 0 0 0 5.53-2.83h0l-.53-.53-.5-.52-.69-.65-.88-.78-.77-.59a5.74 5.74 0 0 0-.5-.36l-1.3-.88-.43-.26-1.54-.83-.35-.17a23.3 23.3 0 0 0-5.32-1.79h-.08l-1.21-.23a28.75 28.75 0 0 1 8.57 10.42z"/><path d="M560.42 399.52a30.19 30.19 0 0 1 2.15-10.34 33.83 33.83 0 0 1-5.79-3h0l-.56.79-.24.33-.52.81-.2.34-.92 1.72-.05.09-.45 1a.49.49 0 0 0 0 .11 20.22 20.22 0 0 0-.76 2.06.43.43 0 0 0 0 0 22 22 0 0 0-.78 3.39h0a25.85 25.85 0 0 0-.27 2.65h8.47zm30.01 2.48c0 .42-.11.56-.2 1.26h.11l8.6-.68a6.29 6.29 0 0 0 .2-1.15h-8.68l-.03.57zm-29.89 1.19h.11l-.19-1.27v-.55H552a6.29 6.29 0 0 0 .2 1.15zm2.79-15.72a28.67 28.67 0 0 1 8.39-10.29.1.1 0 0 0 0-.05l-.91.2h-.13a20.93 20.93 0 0 0-2.07.53l-.17.05a21 21 0 0 0-3.08 1.21l-.4.2-1.45.78-.51.32-1.2.81c-.19.12-.38.27-.57.41l-.71.56-.92.79-.65.63-.55.57-.48.48a0 0 0 0 1 0 0 31.17 31.17 0 0 0 5.41 2.8zm27.13 12.05h8.68a23.31 23.31 0 0 0-.26-2.65h0a23.67 23.67 0 0 0-.78-3.4h0a21 21 0 0 0-.77-2.1v-.06a11.58 11.58 0 0 0-.46-1h0c-.3-.63-.64-1.24-1-1.84l-.15-.26-1.33-2h0a33.11 33.11 0 0 1-6 3.09 30 30 0 0 1 2.07 10.22zm8.48 4.05l-8.71.68-1.91.15-10.44.83V405h-4.67v.26l-10.64-.83-1.92-.16-8.5-.67-.76-.06V434l21.82 1.72v.74h4.67v-.74L599.7 434v-30.49zm-45.75 29.69v-28.85l21.53 1.76.51.05v28.84h-.51zm44.71 0l-22.36 1.83v-28.85l22.36-1.83zm-41.8-18.19l16.54 1.08v-.89l-16.54-1.09v.9zm0-3.25l16.54 1.08v-.89l-16.54-1.08v.89zm14.6-2.5l-.02-.89-13.05-.73.01.91 13.06.71zm-14.6 8.88l16.54 1.09v-.91l-16.54-1.08v.9zm0 3.13l16.54 1.08v-.9l-16.54-1.08v.9zm0 3.13l16.54 1.08v-.9l-16.54-1.09v.91zm0 3.13l16.54 1.08v-.91l-16.54-1.07v.9zm0 3.13l16.54 1.07v-.89l-16.54-1.08v.9zm38.27-16.55l-16.54 1.09v.89l16.54-1.08v-.9zm0-3.24l-16.54 1.08v.89l16.54-1.08v-.89zm-1.52-3.23l-13.07.73-.02.89 13.06-.71.03-.91zm1.52 9.6l-16.54 1.08v.91l16.54-1.09v-.9zm0 3.13l-16.54 1.08v.9l16.54-1.08v-.9zm0 3.12l-16.54 1.09v.9l16.54-1.08v-.91zm0 3.14l-16.54 1.07v.91l16.54-1.08v-.9zm0 3.13l-16.54 1.08v.89l16.54-1.07v-.9z"/></g><path d="M339.44 176.67A55.41 55.41 0 1 1 284 121.26a55.41 55.41 0 0 1 55.44 55.41z" class="J"/><g class="K"><path d="M438.27 397.16h57.92v10.19h-57.92z"/><path d="M513.56 403.17c0 15.13-11.87 27.4-26.5 27.4s-26.51-12.27-26.51-27.4 11.87-27.4 26.51-27.4 26.5 12.23 26.5 27.4z"/></g><g class="H"><path d="M499.07 392.87h0l1.4-2.21-2.59-2.23-2 1.64a16.12 16.12 0 0 0-4.16-2.05v-5.4h-9.42V388a16.31 16.31 0 1 0 20.88 15.6 16.38 16.38 0 0 0-4.11-10.73zm-9.07-9.09h.56v2.9H490zm-1.62 0h.55v2.9h-.55zm-1.63 0h.56v2.9h-.56zm-1.63 0h.56v2.9h-.56zm-1.62 0h.55v2.9h-.55zm3.55 34.94a15.08 15.08 0 1 1 14.85-15.08 15 15 0 0 1-14.85 15.08zm.64-29.4h-1v.21h-.1v13.32H473v.15h-.22v1h.21v.1h14.41c.28 0 .44-.32.44-.6v-.17h0v-13.8h-.16zm-4 3.44l1-.25-.68-2.67-.05-.19-.99.25.05.2.67 2.66zm-2.7 1.24l.89-.5-1.34-2.4-.09-.17-.9.49.11.19 1.33 2.39zm-2.28 1.9l.73-.71-1.91-1.97-.15-.15-.73.71.15.16 1.91 1.96zm-1.72 2.42l.52-.87-2.36-1.41-.17-.11-.53.88.18.11 2.36 1.4zm-1.03 2.79l.28-.98-2.66-.75-.19-.06-.27.99.2.05 2.64.75zm-.03 4.9l-2.67.67-.19.05.25.99.2-.05 2.66-.67-.25-.99zm1 2.8l-2.41 1.34-.17.1.49.89.19-.11 2.39-1.33-.49-.89zm-.29 4.35l-.15.15.71.74.16-.15 1.96-1.91-.71-.74-1.97 1.91zm2.82 2.38l-.11.18.88.52.1-.17 1.41-2.37-.87-.51-1.41 2.35zm3.34 1.57l-.06.19.98.28.06-.21.75-2.63-.98-.28-.75 2.65zm3.63.62v.22l1.01.01v-.21l.05-2.74-1.02-.01-.04 2.73zm3.98-3.22l-.98.25.67 2.67.05.19.99-.24-.05-.2-.68-2.67zm2.71-1.24l-.9.5 1.35 2.4.09.18.9-.5-.11-.19-1.33-2.39z"/><path d="M495.4 411.37l-.73.72 1.91 1.96.15.16.73-.72-.15-.15-1.91-1.97zm1.72-2.42l-.52.88 2.36 1.4.18.11.51-.88-.17-.1-2.36-1.41zm1.03-2.79l-.27.98 2.65.76.19.05.27-.98-.2-.06-2.64-.75zm3.01-2.91l-2.73-.04-.01 1.02 2.73.03.22.01.01-1.02h-.22zm-2.98-1.99l2.67-.67.2-.05-.25-.98-.2.05-2.67.67.25.98zm-.99-2.8l2.39-1.33.19-.1-.5-.89-.19.1-2.39 1.34.5.88zm.28-4.35l.15-.15-.71-.73-.15.15-1.96 1.91.71.73 1.96-1.91zm-3.59-3.08l-.1.17-1.41 2.37.88.52 1.4-2.35.11-.19-.88-.52zm-3.55-1.13l-.74 2.64.97.27.76-2.65.05-.19-.98-.27-.06.2z"/></g><g class="I"><path d="M332.48 65.03h92.49v10.19h-92.49z"/><path d="M371,62.35A40.4,40.4,0,1,1,330.65,22,40.4,40.4,0,0,1,371,62.35Z"/></g><path d="M328.65 66.04l-13.04-4.53-.2.72 13.03 4.53.21-.72zM354 61.86h0l1.57-1.14 1.5-1.09-1.5-1.1-.8-.58-.46 1.76-.61 2.37-.76.55h0l.83-3 .55-2 1.4-5.07-11.38-2.2-1.81-1.36 1.75-5.12-5.28-1.75-.05.15h0l-1.15 3.33-.37-.27-4.43-3.26h0l-4.46 3.25-.66.48-.5-.19.57-.28-1.65-4.94-.44-1.32-7.89 1h0L311 44l.44 1.32 1.61 4.93 1.68-.29-1.87 6.78-.81 2.93-.54 1.94-.41-.31.41-1.63.81-2.53-.76.55-2.07 1.51-.65.47V88h48.24V59.63zm2.16-.44V87.1l-17.81-12.71zm-18.39 12.74l-3-2.15.63-.87 4.56 1-2.52 1.83.33.24zm-7.24-20.5c.05-.1.2-.56.25-.65h0a1.11 1.11 0 0 0 .45.11 1.31 1.31 0 0 0 .44-.07c.3.73.73 2.08.81 2.29h0a.23.23 0 0 1-.22.24h0a.23.23 0 0 1-.21-.18h-.7a.24.24 0 0 1-.22.16.22.22 0 0 1-.22-.19h-.71a.22.22 0 0 1-.21.17.27.27 0 0 1-.23-.24v-.07c.13-.18.46-.88.77-1.57zm5.93-4.12l-3.72 10.89v-.13l3-10.89zm-6.69 6.67h.23 0a1 1 0 0 0 .58-.18.93.93 0 0 0 .57.22h0a1.06 1.06 0 0 0 .57-.17 1 1 0 0 0 .57.2h0a.82.82 0 0 0 .22 0l-.41 12.21-2.88 3.93zM344 58.76h0v.06l-.54.6-.83-.62-.38-.27-1.2-.88.45-.75a.6.6 0 0 1 .29-.18h.17a.45.45 0 0 1 .28.09l1.68 1.23a.52.52 0 0 1 .08.72zm-2.84-2l-.44.6-.07.11h0l-.45.62v.05l-.71-.15.64-1.86 1.56.32a.93.93 0 0 0-.49.28zm-1.49 2l-.95 1.29.47-1.39zm.48-.13l2.61 1.95-8.07 10.92-1.69-1.23-2.66 1.91zm-2.6 9.55l1.2-1.64 6.89 1.46-2 1.47zM342.8 70l-2 1.48-4.89-1 1.21-1.64zm11.3-17.13L351 64.05l-4.56 3.31-7.18-1.49 1.21-1.64 7 1.46.2-.73-6.67-1.39 1.21-1.64 6 1.25.2-.72-5.74-1.2.46-.62.22-.3.45-.62h0a.34.34 0 0 0 .08-.09l5 1.05.2-.73-4.75-1a.89.89 0 0 0-.22-1.19l-.84-.62-.77-.56 7.1 1.47.2-.72-9.46-2 .68-2 8 1.76.22-.72-8-1.75.71-2.07zm-16 8.09l-5.62 7.66.07-2 .19-.57-.17-.07v-1l.23.07.13-.37-.34-.11v-1.18l.66.23.13-.37-.78-.27v-.18l.3-.87 1.05.36.25-.75-1.05-.36.32-.94.83.28.13-.37-.83-.28.36-1.06.83.28.13-.38-.83-.28.35-1 1.05.36.26-.74-1.06-.36.35-1 .82.28.13-.37-.83-.29.37-1.06.82.28.13-.37-.83-.28.33-1 1 .36.26-.74-1.05-.36.32-1 .82.28.14-.37-.82-.28.35-1.06.83.28.13-.38-.83-.28.35-1 1.05.36.25-.74-1.05-.36.33-1 .83.28.12-.37-.82-.28.36-1.06.83.28.13-.37-.83-.29.34-1 1.05.35.25-.74-1.05-.36.12-.34 4.1 1.44zm-17.24-12.1l1.82-.91 8.5 2.85.18-.72-7.74-2.6 2.91-1.48 8.57 3.14.41.15h0l-2.72 9.86.12-3.77h0a.11.11 0 0 0 0 0v-.08l-.92-2.33a4 4 0 0 0-.67-1.25h0c-.13 0-.44.52-.77 1.16l-10.84-3.77zm-4.49.78l2.64-.46-.11.4 11.31 3.93-.75 1.63h0v.12h0l-11.06-3.85-.2.73 11.23 3.9-.08 1.96-11.66-4-.2.73 11.83 4.11-.07 1.94L317 56.49l-.2.72 12.44 4.32-.07 1.94L316.3 59l-.2.72 13 4.53-.28 8.13-.15-.06-4.82-1.77-6.93-5 10.8 3.75.2-.72-13-4.53h0l-2.09-1.52zm-6.61 11.78l18.09 13h0l-18.09 13zm1.93 25.68L333 71.84l21.26 15.26zm-2.2-29.04l-.79-1.77v-.6h-.22l-.03-10.11 2.58-.26-.58-1.55 7.41-4.02 8.35-1.11.5 1.52 5.86-3.47-15.44.82-12.93 8.5 3.46-.35.03 10.03h-.22v.54l-.78 2 .63.25.41-1.03v1.18h.68v-1.32l.46 1.02.62-.27z" class="H"/><path d="M496.28 70.12a38.81 38.81 0 1 1-38.8-38.8 38.81 38.81 0 0 1 38.8 38.8z" class="J"/><path d="M471 49.64l-13.42-.09-13.42-.08 1.4 13.67 11 7L445.44 77l-1.57 13.66 13.42.08 13.42.09-1.39-13.67-11-7 11.08-6.84zm-12.72 17.93v13.62l10.3 7.6-22.44-.14 10.46-7.5.08-13.58L447.4 62l20.15.12zm-.67-18.59l13.26.08 4.56-3.88-17.8-.11-17.79-.12 4.51 3.94 13.26.09zm-.27 42.29l-13.26-.08-4.56 3.87 17.8.12 17.79.11-4.51-3.93-13.26-.09z" class="H"/><g class="M"><path d="M176.52 244.25h33.39v10.19h-33.39z"/><path d="M188.91 249.27a26.5 26.5 0 1 1-26.5-26.5 26.49 26.49 0 0 1 26.5 26.5z"/></g><path d="M169.58 241.36l.19.36a23.57 23.57 0 0 0 4.15-.24 11.11 11.11 0 0 0 2.84-.86l-1.76-1.07-9-5.36a15.42 15.42 0 0 0 1 2.44l.51 1 4.15 2.47h-2.74zm-3.4.2l-.72-1.23-.21-.36a24.09 24.09 0 0 0-3.73.19 11.62 11.62 0 0 0-2.94.8l1.86 1.11 8.52 5.06a16.6 16.6 0 0 0-1-2.48l-.53-1-3.44-2h2.27zm-4.69 26.11l-1.61-1-10.74-6.38-.38.18a6.06 6.06 0 0 0-1.55 1.21l12.27 7.3a7.38 7.38 0 0 1-.64 1.38l1.41.83a10 10 0 0 0 .68-1.35 8.86 8.86 0 0 0 .56-2.17zm-8.58-8.17a13.42 13.42 0 0 0-2.51.38l9.37 5.57 1.76 1.06a10.34 10.34 0 0 0-.5-2.85 22.24 22.24 0 0 0-1.87-4.08h-.41l-1.51-.05 1.49 2.77-4.73-2.84zm12.77-26.66l10.47 6.23 1.64 1a8.08 8.08 0 0 0 1.72-1.51 9.16 9.16 0 0 0 1-1.41l-1.41-.84a7.27 7.27 0 0 1-1.06 1.39l-12.19-7.25a5.83 5.83 0 0 0-.24 2c.04.09.05.24.07.39zm-4.9 23.72a16.94 16.94 0 0 0 2.68-.27l-8.44-5-1.87-1.11a11.3 11.3 0 0 0 .72 3 25.12 25.12 0 0 0 1.59 3.32h.41l1.43.05h.07l-1.06-1.92 3.33 2zm4.54-.83a6 6 0 0 0 1.68-1.07l-12-7.13-1.46-.88a8.22 8.22 0 0 0-.42 2.3l1.68 1 10.05 6c.15-.09.32-.15.47-.22zm-9.95-9.3l12.43 7.39.06-.06a9 9 0 0 0 .53-.77 7.16 7.16 0 0 0 .47-1v-.1l-12.38-7.36-1.44-.85a10.64 10.64 0 0 0-1.12 1.87zm.38-3.5l1.47.87 12 7.13a6.33 6.33 0 0 0 .13-2c0-.17 0-.34-.07-.51l-10-6-1.68-1a8.33 8.33 0 0 0-1.85 1.51zm10.31-2.93l.72 1.23.26.44 1.5 2.69a15 15 0 0 1 1.28 3.3 7.45 7.45 0 0 1 .2 1.24 7.1 7.1 0 0 1-.18 2.42 8.43 8.43 0 0 1-.34 1 7.76 7.76 0 0 1-.52 1 6.25 6.25 0 0 1-.58.84 6.44 6.44 0 0 1-.78.86 7.05 7.05 0 0 1-2 1.33 7.59 7.59 0 0 1-1.27.43 14.75 14.75 0 0 1-3.52.45h-3-.51l-1.42-.05a24.9 24.9 0 0 0-5.29.3l-.39.08a8.74 8.74 0 0 0-5.89 4.22l1.41.84a7.4 7.4 0 0 1 .91-1.23 6.73 6.73 0 0 1 1.83-1.44 6.25 6.25 0 0 1 1.16-.5 12.31 12.31 0 0 1 3.28-.6c1.26-.08 2.6 0 4 0h.39l1.54.05a26.49 26.49 0 0 0 4.48-.18 11.27 11.27 0 0 0 2.95-.79 9.33 9.33 0 0 0 5.49-9.16 11.91 11.91 0 0 0-.7-3 27.05 27.05 0 0 0-2-4.08l-.78-1.33-.29-.36-1.72-3.11a14.06 14.06 0 0 1-1.17-3.24 7.85 7.85 0 0 1-.15-1.28 6.92 6.92 0 0 1 .31-2.36 7.92 7.92 0 0 1 .72-1.59l-1.41-.84c-2.65 4.48-.77 8.51 1.48 12.42z" class="H"/><path d="M102.21 439.25a36.56 36.56 0 1 1-36.56-36.55 36.56 36.56 0 0 1 36.56 36.55z" fill="#df775d"/><path d="M86.31 438l-1-5.34 3.18-2.15a24.64 24.64 0 0 0-3.34-6L81.6 426l-4-3.7 1.31-3.62a24.24 24.24 0 0 0-6.23-2.88l-1.91 3.34-5.39-.65-1.06-3.7a24.28 24.28 0 0 0-6.73 1.32L58 420l-4.75 2.66-3-2.37a24.55 24.55 0 0 0-4.67 5l2.59 2.85-2.29 4.94L42 433a24.91 24.91 0 0 0-.64 3.38 23.52 23.52 0 0 0-.17 3.44l3.76.78 1 5.34-3.19 2.16a24.61 24.61 0 0 0 3.35 6l3.5-1.58 4 3.71-1.32 3.61a23.94 23.94 0 0 0 6.23 2.89l1.9-3.34 5.4.64 1.06 3.7a24.36 24.36 0 0 0 6.73-1.32l-.42-3.83 4.81-2.7 3 2.36a24.23 24.23 0 0 0 4.66-5l-2.58-2.85 2.28-4.94 3.84.13a24.38 24.38 0 0 0 .82-6.81zm-22.22 14.27a13.11 13.11 0 1 1 14.56-11.45 13.11 13.11 0 0 1-14.56 11.45zM66.76 430a9.32 9.32 0 1 0 8.13 10.37A9.32 9.32 0 0 0 66.76 430zm-1.57 13.11a3.88 3.88 0 1 1 4.3-3.39 3.87 3.87 0 0 1-4.3 3.39z" class="H"/><path d="M403.75 243.71a31.08 31.08 0 1 1-31.08-31.08 31.08 31.08 0 0 1 31.08 31.08z" class="L"/><g class="H"><path d="M373.51 264.33a24.43 24.43 0 0 0 8.4-9.56 29.46 29.46 0 0 0-8.4-1.42zm8.4-31.67a24.3 24.3 0 0 0-8.4-9.56v11a30.17 30.17 0 0 0 8.4-1.44zm-21.17 11.89a24.42 24.42 0 0 0 1.9 8.72 31.32 31.32 0 0 1 9.19-1.6v-7.12zm12.77 7.12a31.74 31.74 0 0 1 9.09 1.56 25.14 25.14 0 0 0 1.81-8.68h-10.9z"/><path d="M371.83 235.75a31.73 31.73 0 0 1-9.25-1.61 24.94 24.94 0 0 0-1.84 8.73h11.09zm-8.48 19.05a25 25 0 0 0 8.48 9.49v-10.94a29.28 29.28 0 0 0-8.48 1.45zm8.48-31.8a24.38 24.38 0 0 0-8.56 9.63 30.2 30.2 0 0 0 8.56 1.48zm1.68 19.87h10.9a25.24 25.24 0 0 0-1.81-8.68 31.4 31.4 0 0 1-9.09 1.56zm10-10.77a28.75 28.75 0 0 0 5-2.56 21.22 21.22 0 0 0-12.69-6.85 25.9 25.9 0 0 1 7.69 9.41zm-21.77 23.26a28.36 28.36 0 0 0-4.9 2.52 21.18 21.18 0 0 0 12.73 6.86 26.53 26.53 0 0 1-7.83-9.38zm-.74-21.79a29.46 29.46 0 0 1-5.22-2.73 21.11 21.11 0 0 0-4.34 12h7.63a27 27 0 0 1 1.93-9.27zm23.19 20.21a30.29 30.29 0 0 1 5.39 2.8 21.17 21.17 0 0 0 4.33-12h-7.82a26.57 26.57 0 0 1-1.9 9.2zm-8.36 10.96a21.29 21.29 0 0 0 12.68-6.86 28.75 28.75 0 0 0-5-2.56 25.9 25.9 0 0 1-7.68 9.42zm-16.77-20.19h-7.63a21.11 21.11 0 0 0 4.34 12 30.09 30.09 0 0 1 5.28-2.75 26.13 26.13 0 0 1-1.99-9.25zm10.2-21.82a21.26 21.26 0 0 0-12.42 6.81 28.28 28.28 0 0 0 4.83 2.49 26 26 0 0 1 7.59-9.3zm16.83 20.14h7.82a21.17 21.17 0 0 0-4.33-12 29.64 29.64 0 0 1-5.39 2.8 26.85 26.85 0 0 1 1.9 9.2z"/></g><path d="M267.09 271.23a29.45 29.45 0 1 1-29.45-29.44 29.44 29.44 0 0 1 29.45 29.44z" class="I"/><g class="H"><path d="M243.38 282.74a18.55 18.55 0 0 0-5.22-.89v6.82a15.11 15.11 0 0 0 5.22-5.93zm-5.22-12.86a18.36 18.36 0 0 0 3-.32h-3zm-6.75 11.92a19.77 19.77 0 0 1 5.71-1v-4.42h-6.89a15.16 15.16 0 0 0 1.18 5.42zm6.75-.99a19.75 19.75 0 0 1 5.65 1 15.91 15.91 0 0 0 1.13-5.39h-6.78z"/><path d="M230.23 275.35h6.89v-4.42a20.06 20.06 0 0 1-5.75-1 15.63 15.63 0 0 0-1.14 5.42zm6.89 13.3v-6.8a18.9 18.9 0 0 0-5.27.9 15.45 15.45 0 0 0 5.27 5.9zm0-18.77v-.32h-3a18.24 18.24 0 0 0 3 .32zm6.69.12a19.75 19.75 0 0 1-5.65 1v4.42h6.78a15.91 15.91 0 0 0-1.13-5.42zm-12.96 13.1a18.46 18.46 0 0 0-3 1.56h0l.34.34.27.29.64.58.26.23.84.62.13.09a13.49 13.49 0 0 0 2.17 1.19h0l1.13.42h.17a9.68 9.68 0 0 0 1.06.27l.22.05.6.11h0a16.52 16.52 0 0 1-4.83-5.75zm-5.36-12.37h0l-.44 1.2h0a13.6 13.6 0 0 0-.59 3.4h4.74a16.88 16.88 0 0 1 1.19-5.78h-4.33a12.55 12.55 0 0 0-.57 1.18zm20.51 5.66a16.93 16.93 0 0 1-1.18 5.74 18.76 18.76 0 0 1 3.33 1.72h0c.13-.16.24-.33.36-.5s.08-.1.11-.16a13.83 13.83 0 0 0 1.17-2.14.78.78 0 0 1 .05-.14c.15-.34.27-.7.39-1.06v-.1a13 13 0 0 0 .58-3.37H246zm-1.63 6.69a16 16 0 0 1-4.74 5.82h0l.55-.11.26-.05c.34-.07.67-.16 1-.26l.21-.06 1.07-.39h.1a13 13 0 0 0 2.2-1.2l.12-.09a10.1 10.1 0 0 0 .84-.62l.27-.23.63-.58a3.83 3.83 0 0 0 .28-.29l.34-.34h0a17.31 17.31 0 0 0-3.13-1.6zm-15.18-6.69h-4.74a13.44 13.44 0 0 0 .58 3.37v.09l.4 1.08a1.12 1.12 0 0 0 0 .13 13.4 13.4 0 0 0 1.16 2.14l.13.17.34.49h0a19.52 19.52 0 0 1 3.27-1.7 16.13 16.13 0 0 1-1.14-5.77zm21.05-4.39a12.26 12.26 0 0 0-.44-1.2h0a12.47 12.47 0 0 0-.55-1.17h-4.33l-.11.05a16.93 16.93 0 0 1 1.18 5.74h4.85a12.75 12.75 0 0 0-.59-3.4zm-27.97 3.82H222V261l4.1.91v7.06h23.19v-7.06l10.55-2.33-22.15-6-22.15 6 5.28 1.16v15.13h-.32v.7l-1.64 4 .59.24 1.1-2.7-.55 2.83.64.12.47-2.44v2.48h.65v-2.5l.47 2.45.64-.12-.5-2.58 1 2.45.59-.24-1.64-4zm3.78-16l11.59-2.22 11.6 2.22v.65l-11.6-2.22-11.59 2.22z"/></g><path d="M540.25 246.92l-125.88-2.35.19-10.19 115.5 2.16v-77.76h10.19v88.14z" class="I"/><path d="M587.6 293.85A62.82 62.82 0 1 1 524.79 231a62.82 62.82 0 0 1 62.81 62.85z" class="K"/><path d="M242 407.72a62.82 62.82 0 1 1-62.8-62.82 62.82 62.82 0 0 1 62.8 62.82z" class="M"/><path d="M267.09 266.14h66.07v10.19h-66.07zm313.85-107.36A45.79 45.79 0 1 1 535.15 113a45.8 45.8 0 0 1 45.79 45.78z" class="I"/><path d="M557.3 152.66l1.59-3.48c2.74-6.85 2.6-12.15-.41-14.91a7.71 7.71 0 0 0-5.42-1.89c-3.43 0-7.7 1.53-12.27 4.25-4.26-7-9.11-11.26-13.46-11.26a6.53 6.53 0 0 0-1.81.25c-3.93 1.11-6.45 5.77-7.1 13.12v.51a5.85 5.85 0 0 1 3.44.08v-.29c.5-5.65 2.22-9.43 4.61-10.11a3.15 3.15 0 0 1 .87-.12c2.85 0 6.81 3.49 10.55 9.66a71.65 71.65 0 0 0-7.51 6c-1.38-.18-2.74-.31-4.07-.41a6.7 6.7 0 0 1 .19 1.5 6.52 6.52 0 0 1-.33 1.94l1 .09a94.14 94.14 0 0 0-2.38 2.48c-.79.85-1.48 1.65-2.19 2.48-.06-.32-.09-.63-.13-.95a6.62 6.62 0 0 1-2.43.48 6.39 6.39 0 0 1-1-.1c.2 1.36.42 2.73.7 4.12a72 72 0 0 0-5 7.45c-1.09-.59-2.13-1.19-3.08-1.82-4.74-3.13-7.25-6.44-6.7-8.86s3.92-4.14 9-5a6.54 6.54 0 0 1-.44-2.31 6.32 6.32 0 0 1 .12-1.15c-6.83 1.12-11.18 3.83-12.05 7.71s2 8.42 8.16 12.49c1 .68 2.16 1.33 3.34 2-.6 1.19-1.16 2.38-1.62 3.52-2.74 6.86-2.59 12.16.42 14.92a7.73 7.73 0 0 0 5.42 1.89 22.3 22.3 0 0 0 9.55-2.74 6.64 6.64 0 0 1-2.94-2.45 16.88 16.88 0 0 1-6.61 1.75 4.49 4.49 0 0 1-3.09-1c-1.83-1.68-1.66-5.83.45-11.11.42-1.06.94-2.14 1.49-3.25a71 71 0 0 0 8.11 3.18l.83 2a6.76 6.76 0 0 1 1.82-1.15 6.84 6.84 0 0 1 1.27-.36 5.81 5.81 0 0 1 1.17-.12 6.47 6.47 0 0 1 4.89 2.25l1.27.25-.66.54a6.53 6.53 0 0 1 1 3.47v.18q2.07-1.62 4.14-3.49a70.09 70.09 0 0 0 8.12.59c0 1.07 0 2.12-.14 3.11-.5 5.66-2.22 9.44-4.61 10.11a3.1 3.1 0 0 1-.87.12c-2.28 0-5.27-2.25-8.29-6.3a6.6 6.6 0 0 1-2.91 1.87c3.66 4.94 7.6 7.87 11.2 7.87a6.81 6.81 0 0 0 1.81-.24c3.93-1.12 6.46-5.78 7.1-13.13a42.07 42.07 0 0 0 .15-3.43c9.81-.43 16.21-3.43 17.28-8.22s-3.49-10.24-11.54-14.58zm-17.71-11.14c.84 1.61 1.66 3.35 2.44 5.23q-1.85-.5-3.78-.93a68.01 68.01 0 0 0-3.4-.67c1.59-1.33 3.15-2.55 4.74-3.63zm-21.84 23.56c.88-1.51 1.87-3 3-4.57a60.28 60.28 0 0 0 .55 2.12c.44 1.54.91 3 1.41 4.48-1.71-.63-3.41-1.31-4.96-2.03zm15.06 5a110.6 110.6 0 0 1-6-1.58 80.21 80.21 0 0 1-2.25-6.82c-.46-1.6-.84-3.19-1.19-4.77q1.83-2.29 3.88-4.53 2.05-2.24 4.25-4.29c2 .29 4 .63 6 1.08s4 1 5.79 1.52a5.9 5.9 0 0 1 .06-.59 6.49 6.49 0 0 1 2.08-4.19 69.2 69.2 0 0 0-2.92-6.28c4-2.42 7.75-3.82 10.56-3.82a4.4 4.4 0 0 1 3.08 1c1.83 1.68 1.66 5.83-.45 11.1a6.4 6.4 0 0 1 .64 2.76 6.41 6.41 0 0 1-1.76 4.43 6.5 6.5 0 0 1-3.83 2c-.38.58-.79 1.16-1.2 1.74l-.42-1.72a6.46 6.46 0 0 1-4.17-2.16c.09.29.18.57.26.87.64 2.24 1.16 4.47 1.59 6.65-1.18 1.47-2.42 2.93-3.74 4.36a86.12 86.12 0 0 1-4.26 4.29c-2.01-.25-4-.6-6-1.04zm10.38 1.61l2.38-2.48c.78-.85 1.31-1.46 1.95-2.2.22 1.7.38 3.35.46 4.95-1.55-.02-3.15-.11-4.79-.26zm22.23-5.29c-.68 3-6.19 5.16-14 5.53a69.91 69.91 0 0 0-1-8.52 70.84 70.84 0 0 0 5.2-7.69c6.79 3.69 10.45 7.77 9.8 10.69zm-46.64-15.84a5 5 0 0 0 3.43-.37 5.27 5.27 0 0 0 2.94-4.65 5.1 5.1 0 0 0-.29-1.61 5.16 5.16 0 0 0-3.1-3.22 4.81 4.81 0 0 0-3.45 0 5.2 5.2 0 0 0-3.31 3.49 5.35 5.35 0 0 0-.19 1.34 5.07 5.07 0 0 0 .45 2.1 5.16 5.16 0 0 0 3.52 2.92zm14.55 30.77a5.4 5.4 0 0 0 1.14-3.2 5.23 5.23 0 0 0-5.17-5.13c-.2 0-.4 0-.6.06a5.16 5.16 0 0 0-4.57 5.11 5 5 0 0 0 1 3 5.1 5.1 0 0 0 3.42 2.11 5.16 5.16 0 0 0 .78.08 5.29 5.29 0 0 0 1.13-.13 5.13 5.13 0 0 0 2.87-1.9zm15.4-25.56a5.32 5.32 0 0 0 1.07.11 5.16 5.16 0 0 0 5.09-4.45 4.29 4.29 0 0 0 .08-.72 4.81 4.81 0 0 0-.1-.93 5.14 5.14 0 0 0-8.92-2.49 4.74 4.74 0 0 0-.4.49 5.1 5.1 0 0 0-.92 2.93v.42a5.15 5.15 0 0 0 4.1 4.64zm-13.57-3.45a7.32 7.32 0 1 0 7.32 7.32 7.33 7.33 0 0 0-7.32-7.32z" class="H"/><path d="M536.47 506.47a26 26 0 1 1-26-26 26 26 0 0 1 26 26z" class="K"/><path d="M506.18 506.58l-12.83-9.76v19.51l12.83-9.75zm5.26 1.18l15.88-12.5a1.26 1.26 0 0 0-.93-.41h-31.75a1.3 1.3 0 0 0-1 .45l16.41 12.47a1.22 1.22 0 0 0 1.39-.01zm.87 1.1a2.51 2.51 0 0 1-1.56.52 2.47 2.47 0 0 1-1.52-.49l-1.89-1.43-13.56 10.31a1.3 1.3 0 0 0 .86.32h31.75a1.29 1.29 0 0 0 .81-.29l-13.13-10.32zm15.37 7.53v-19.62l-12.46 9.81 12.46 9.81z" class="H"/><path d="M505.39 455.85h10.19v32.5h-10.19z" class="K"/><g class="H"><path d="M180 417.48c-.9 1.58-2.25 1.15-3.39 1.16h-14.93-3.92l-1.85 3.88a27.43 27.43 0 0 0 3.15.39h17.49l3.64.16-.09 2.12h-25.52a5.93 5.93 0 0 1-1.78-.68l1.85-5.41c-3.84-1.36-8.13.86-11.61-1.71a10.3 10.3 0 0 1-2.16-6.78v-29.87c0-2.92.61-5.53 3.51-7.29 2.81-.09 5.75-.35 8.77-.28 11.53.27 23.07.11 34.6.11a1.53 1.53 0 0 0 .37 0c3.49-1 6.94-.54 10.78.38 2.1 1 3 3.25 3.14 5.76.16 3.27.05 6.55 0 9.83 0 1-.2 1.94-1.44 2.3-1.48-.43-1.44-1.68-1.44-2.9v-8.74c0-1.18-.12-2.36-.2-3.86a26.51 26.51 0 0 0-3.37-.44q-24.23 0-48.44 0a27.63 27.63 0 0 0-2.8.31 14.34 14.34 0 0 0-.56 2.74v33.87a3.68 3.68 0 0 0 2.33 3.83h9.72 20.4c1.24.03 2.75-.47 3.75 1.12z"/><path d="M200.68 393.84v6.61l3.08 2c2.4 4.65 1.38 7.07-3.71 8.91a6.57 6.57 0 0 1-5-3.25c-1-3.4.55-5.75 3.26-7.51v-4.42c-4.34-.23-8.55-.05-12.64-.1l-2.87 3.31c-3.13.63-5.25.47-7.17-1l-8.95 5.35-.43 4.19-2.92 2.39c-4.21.57-5.7-.42-7.13-4.71.83-2.91.83-2.91 3.26-4.95 2.93-.36 2.93-.36 6.16 1l8.6-5.2c.28-1.77-.57-2.23-1.74-2.59L162 390.49l-3.93 2.52c-3.61-.46-5.57-2.29-6.31-5.77l1.13-3 4-2.07c3.41.69 5.22 2.66 5.53 5.94l12.22 3.89 4.18-2.55c3.4.14 5 2.19 6.52 4.42zm2.41 12.22c-1.14-2.12-2.25-3.23-4.07-2.55s-2.32 2-1.6 4.13l2.85 1.61zm-44.6-.84c.63 2.13 1.73 3 3.55 3 1.63-.76 2.62-1.94 1.93-3.73s-2.05-2.29-4.06-1.56zm20.76-13.68l-2.7 2.93 1.85 3 3.75-.47v-3.91zm-23.51-1.41l3.84-.38v-3.92l-2.79-1.42-2.68 3.07 1.63 2.65zm25.95 50.45l-.23 1.92h-39l-2.31-3 6.09-11.23H180l.31 1.6c-2.69 1-5.36.38-8 .49h-8.37-16c-1.54 3.3-3.87 6-4.86 9.28 1.28 1.18 2.55.77 3.7.77h30.94c1.28.01 2.53.11 3.97.17z"/><path d="M181.69 411.13c1.63-3.88 5.76-5.85 11.33-5.41l.38 1.36c-3.05 1.46-6.77 1.13-9.22 3.8 6.14 4.68 25.12 4.64 30.81 0-1.44-1.66-1.44-1.66-8.26-3.67 0-.29-.11-.62-.14-1a1 1 0 0 1 .13-.33 11.22 11.22 0 0 1 11.28 4.54c-.45 3.74-3.7 4.51-6.34 5a56.66 56.66 0 0 1-23.73 0c-2.51-.54-4.93-1.48-6.24-4.29zm-34.82 26.03l2.43-3.81h27.09l.22 3.52c-2.67.82-24.96 1.02-29.74.29zm69.9-5.68a56.09 56.09 0 0 1-33.39.2c-2.15-3.66-2.22-5.21-.56-7.67 1.91 1 .77 2.85 1.6 4.86a9.08 9.08 0 0 0 2.47 1.28 49.85 49.85 0 0 0 15.81 1.47c4.15-.38 8.39-.54 12.06-2.24 1-1.72-.28-3.84 1.7-4.86 2.24 1.58 2.27 1.94.31 6.96zM183 440c-1.56-2.39-1.93-4.69-.45-7.31 2.29 1.06 1 3.15 1.66 4.52 5 4 23.26 4.49 30.71.7.89-1.37-.43-3.5 1.47-4.56 2.3 1.36 2.34 1.76.65 6.34-5.79 3.85-26.04 4.21-34.04.31zm0-17.57c-1.59-2.06-1.49-4.17-1.09-6.48l1.73-.29.53 4c1.08 2.24 3.45 2.11 5.33 2.37 3.93.55 7.93.67 11.9.85 4.51.22 8.81-1 12.93-1.77 1.76-1.59-.11-4.23 2.13-5.36 2.19 1.57 2.29 2.78.53 6.43-4.71 4-27.7 4.15-33.99.25zm79.84-277.18v52.4l3.51.12q18 0 36.09 0c1.06 0 2.37-.47 3.13 1-1.51 1.79-3.67.4-5.66 1.35l-.26 6.11a13.06 13.06 0 0 1-2.35.48q-20.43 0-40.88 0a10.86 10.86 0 0 1-1.9-.28 3.86 3.86 0 0 1-.42-.44.67.67 0 0 1-.14-.28l-.21-2.52q0-25.87 0-51.74a1.67 1.67 0 0 1 .16-.61c.09-.19.23-.35.57-.87l6-.33.35-6.68a35.64 35.64 0 0 1 4.17-.46l27.12.21c1.62 0 3.21 0 4.87 1.61 2 2.37.29 5.79 1.13 9 3 1.07 6.59-.86 9.61 1.68a7.3 7.3 0 0 1 .46 7.12c-2.18-1.19-1.08-3.17-1.58-4.62s-1.79-1.92-3.31-1.88h-7.27v-8.45c-.83-1.8-1.7-2.43-3-2.43l-29.37.08c-.2.05-.38.18-.82.43zm-2.14 6.85h-4.16c-.54 4.64-.35 50.11.21 52.51h40.84c.18-1.68.47-3.2-.3-4.82h-12.16H273c-4.04 0-8 .15-12.3-.15zm45.44 15.69c-2.86-1.16-3.06-1.73-1.53-5.1 3.69.06 7.54-.28 11.72.29v18.44c6.65 4.6 6.48 8.37 5.45 12.39-.9 3.49-5.16 6.07-8.92 6a8.88 8.88 0 0 1-8.44-6.14c-1.66-4.66 0-8.29 5.29-11.93v-9.17l-3.48-.45c0-1.44-.07-2.88-.1-4.31l1.47-.11-.1-.39zm3.19-2.56l-2.62-.62-.07.61h2.7a4.65 4.65 0 0 1 .42 4.15l-1.29.67 3.28.74v9.6l2.27 1.78c-.82 1.29-2 1.4-3.08 1.69-2.83.73-4.51 3-4.8 6.05a6.67 6.67 0 0 0 4.08 7.2c3.34 1.49 5.94.68 9-2.59 2-5.58 1.21-7.58-4.78-11.71v-17.57zm-33.58 14.35c-.53-4.81-.19-9.53-.27-14.3l2.75-1.06 1.28-3.38c2.57-1.5 2.57-1.5 5.64-1.25 2.23 1.7 2.23 1.7 3.32 4.58l2.26.86v14.54c-2.54.87-5.1.43-7.59.39s-4.82.68-7.39-.38zm2.45-2c3.42.62 8.23.55 10.63-.19v-5.33c0-1.79-.05-3.54-.08-5.31H278.2zm8.07-13.23c-.6-2.28-1.83-3.09-3.9-2.86-.95.6-1.93 1.21-1.53 2.86zm-18.73-5.77l-2.23-2.27v-7.78l2.13-2.06 3.71.81c2.39 3.4 1.55 6.53.89 10zm-.35-9.65v3.86c0 .93.1 1.86.14 2.57 1 1 1.85 1 2.78.07a13.16 13.16 0 0 0-.29-6.5zm14.22 46.3h-2.82c-2.93-2.52-3.43-6-1.52-10.12 2.05-1.33 2.05-1.33 4.36-1.18 3.36 3.01 3.44 7.91-.02 11.3zm-1.66-9.72l-1.7 1.5c.27 2.45-.61 4.57 1.36 6.37l2.23-.66v-5.62zm9.82-38.71l1.93 1.89v5.95c-.11 2.37-1.41 3.61-3.57 3.61s-3.4-1.25-3.55-3.64c-.08-1.16 0-2.33 0-3.5.03-3.48 1.01-4.39 5.19-4.31zm-.36 9.28c.31-2.72.65-4.88-.3-7.3l-2.37.32v6.77zm-18.05 39.58c-2.17-2.67-1.3-5.17-1.08-7.69l-1.73.88-.93-.75c2.07-3 2.31-3.22 4.72-3.54a76.61 76.61 0 0 1 .06 9.09c-.02.54-.53 1.06-1.04 2.01zm20.11-11.29v10.51l-1.09.42c-.26-.34-.59-.58-.59-.82v-6.52l-2.53 1a6.42 6.42 0 0 1 .34-2c.71-1.24 1.88-1.96 3.87-2.59zm-16.16-33.51c1.44-1.71 2.27-3.3 4.44-3.56a6.4 6.4 0 0 1 .41 1.55v7.58c0 .85 0 1.74-1.46 1.69-1.21-2.21-.11-4.7-.68-7l-1.54.74zm41.29 44.03c-5.78 2-8.95-.26-8-5.63 3.95 2.88 5.75 3.13 9.36-.13.87 2.66.8 2.97-1.36 5.76zm-33.34-19.2c-1-2.17-.51-3.9-.57-5.74l1.58-.19c.35 2.01 1.06 3.91-1.01 5.93zm-180.87-37.46l2-.57a6.67 6.67 0 0 1 8.21 5.11l.38 1.44c-.44 4.4-2.76 6.86-7.38 7.35a17.1 17.1 0 0 1-2.76-.84c-5.25-2.56-4.66-9.76-1.08-12a4.07 4.07 0 0 0 .58-.52zm5.89 1.29c-4.26-.41-6.27.49-7.23 3s-.14 4.46 2.92 6.83h4.16l2.72-2.81v-4.4zm-23.64-17.29a6.63 6.63 0 0 1 6.84-7 6.94 6.94 0 0 1 7.06 7.22 6.73 6.73 0 0 1-7.13 6.71 6.66 6.66 0 0 1-6.77-6.93zm11.73 2.22c0-.64.12-1.35.12-2 0-3.26-1.56-5-4.73-5.27a5.2 5.2 0 0 0-.74 10.37c2.47.14 3.99-1.21 5.35-3.1zm24.73 4.73a7 7 0 0 1-.28-13.91 7 7 0 0 1 7.23 7.08c.15 3.34-2.85 7.33-6.95 6.83zM121 117l-2.49.59c-3 2.07-3.34 4.34-2.55 6.71a5.17 5.17 0 0 0 5.31 3.21c2.58-.14 3.93-1.52 5-5-1.22-4.18-1.41-4.38-5.27-5.51zm-39.68 22.13c3 3.47 2.88 7.47-.11 10.64-.49.25-1.1.64-1.75.91-.81.35-1.66.61-2.44.88-4-.33-6.64-2.27-7.38-6.19a6.54 6.54 0 0 1 3-6.71c2.89-2.09 5.83-1.39 8.68.47zm-10.14 5.32c1.34 4.3 3.09 5.6 6.58 5a5.26 5.26 0 0 0 4-4.94c-.11-2.54-1.75-4.87-4.12-5.12-2.75-.32-5.38-.19-6.46 5.06zm42.26-44.36c-.67 4.93-4.56 7.46-8 7.08-3.11-.35-6.31-3.71-6-7 .29-3.5 2.67-6.59 6-7 3.85-.47 6.56 1.83 8 6.92zm-2.14.15a5.09 5.09 0 1 0-5.22 5.24 5.06 5.06 0 0 0 5.22-5.24zm-14.66 12.08c1.51-2.15 2.26-4.59 4.32-6.23 1 .59.83 1.36.39 2.06l-3.35 5zm2.87 23.24l-3.89-6.16.82-.86c.32.13.54.14.63.26 1.45 1.93 3.18 3.73 3.62 6.39l-1.2.36zm15.68-22.35c-2.38-1.7-3.08-3.89-4.24-5.73-.19-.29 0-.79 0-1.64 2.41 1.46 3.09 3.74 4.34 5.54.18.3-.05.89-.1 1.83zM86.5 128.76a3.5 3.5 0 0 1 0 1.21 18.06 18.06 0 0 1-4 5.45c-.21-.37-.65-.84-.55-1a22.26 22.26 0 0 1 3.91-5.85z"/><path d="M99.49 135.55l.75.52c1.23-.27.68-2.54 2.55-1.91.46 1.45-.41 2.72-.6 4.07h0c-1.34-.62-3.11-.09-4.18-1.32a1.37 1.37 0 0 1 1.51-1.36zM95.24 111l1.51 2.43c.75.57 2.35-.55 2.8 1.26a4.94 4.94 0 0 1-4.06.9c-.49-1.33-1.27-2.59-.25-4.59zM81.9 136h2.44c-.08 2.49-2.3 1.34-3.12 2.27-2-2.1-2.07-3.2-.44-4.33zm35.53-24.45a3.71 3.71 0 0 1-.63 4.14 4.83 4.83 0 0 1-3.87-1.43c.84-1.2 1.92-.52 2.89-.51.52-.69.05-2.07 1.61-2.2zM104.66 141H107l2.13 2.68a3.71 3.71 0 0 1-.78 3.09c-3 1.83-3.93 1.59-6.06-1.5-.29-1.9.88-3.09 2.37-4.27zm-12-22c2.26 1.85 2.81 3.5 1.76 5.19s-3.19 2.05-6 .63l-.89-3.69 2-2.13zm28.23 6.9a4.08 4.08 0 0 1-3.55-4l1-2.1c2.57-1.36 3.45-1.21 5.84 1.18l-.47 3.44zM76 148l-2.67-1.75v-3.67l2.71-1.71c2.82.83 2.82.83 4 3.1-.18 2.18-1.32 3.54-4.04 4.03zm26.63-47.93l1-2.15 2.34-1.21c2.19.08 3.29 1.28 3.81 3.48l-.8 2.42c-3.64 1.72-4.87 1.25-6.35-2.54zm385.64 193.99a23.53 23.53 0 0 1 1.69-2.68c7.85-9.43 17.26-16.59 29.65-18.61a35.32 35.32 0 0 1 19.89 2.79 51.36 51.36 0 0 1 14.78 9.94c2.64 2.49 5.37 5.16 7 8.74a52 52 0 0 1-16.42 15.32 49.06 49.06 0 0 1-11.91 5.05 33.27 33.27 0 0 1-16.26 0c-7.74-1.79-14.22-5.93-20.12-11a36 36 0 0 1-8.3-9.55zm2.74 0a51.46 51.46 0 0 0 15.72 14.11 39.51 39.51 0 0 0 15.15 5.14c5.32.64 10.46-.6 15.41-2.51a46.3 46.3 0 0 0 14.22-8.8 34.25 34.25 0 0 0 7.06-8.1 49.11 49.11 0 0 0-21.29-16.82 30.09 30.09 0 0 0-16.84-2.08c-12.24 2.2-21.99 8.62-29.44 19.07zm-3.94 32.67c.41-3.18 1.81-5.1 5.65-5.33l2.28.6 10.23-10 1.77 1.48c-3.18 3.57-6.66 6.67-10 10.24.66 1.92 1.15 4.06-.44 5.81a7.84 7.84 0 0 1-3.1 2.14c-2.75.87-5.08-1.02-6.39-4.94zm2.15-.67c.75 1.9 1.36 3.26 3.19 3.52 1.63-.46 2.4-1.64 2.8-3.65l-2.93-2.69zm58.5-64.51l-3 1.95-3.79-.68-8.73 8.56-1.75-1.63 8.65-8.75-.36-1.79-.31-1.17a5.4 5.4 0 0 1 5.13-5.08c5.44 1.47 6.64 3.83 4.16 8.59zm-4.06-6.84l-3.29 3.55 2.9 2.87c2.07-.5 3.11-1.42 3.28-3.56zm16.07 1.97l2.89 2.82-.91 4.95c-2.42 2.23-4.69 2.32-7.27 1.77l-5.23 5.11c-1.65 1.5-2.84 3.67-5.14 4.23-1.15-1.26-.53-2 .14-2.7l5.48-5.47a30.34 30.34 0 0 1 2.59-2.07c.42-3-.52-5.57 1.43-7.5 1.47-1.37 3.29-1.7 6.02-1.14zM559 259c-2-.85-3.18-.23-4.3 1.6l.29 2.86c3.58 1 3.7.94 5.3-2L559 259zm-41 57l1.59 1.87-4.53 4.55-4.41 4.25c.63 3.76.63 3.79-.89 6.62-3.32 1.94-4 2-7.38.07-1.45-2.58-1.45-2.58-1.09-6.09 1.8-2.69 4.39-3 7.72-2.06l4.23-4.47L518 316zm-11.9 10.94a2.76 2.76 0 1 0 2.69 2.65 2.81 2.81 0 0 0-2.71-2.66zm55.71-46.51l-3.95-.49-4 2.76-1.21-1.28 3-3.28c-.42-1.91-.74-3.94.49-5.88 1.07-1.69 2.82-1.88 4.43-2.47 2.38.75 4.32 1.89 4.8 4.55.57 2.94-1.46 4.39-3.56 6.09zm-4.33-5.51a3.48 3.48 0 0 0 3.18 3.19l2.48-1.64-.42-3.26c-3.35-.82-3.35-.82-5.24 1.71zm-63.71 35.54c.85 4.71 0 6.27-4.37 7.76-3.19-.77-3.19-.77-5.12-3.19-.38-2.09-.37-4.14 1.2-5.92a5.75 5.75 0 0 1 6-.87c1.65-.61 2.16-2.85 4.36-2.3.91 2.14-1.39 2.66-2.07 4.52zm-1.72 2.69l-1.44-2.72c-2.12-.8-3.28-.08-4.32 1.76l.42 2.83c2.38.98 4 .67 5.34-1.87zm46.46-19.29c.83 8.29-7.59 14.23-13.89 14.08a14.44 14.44 0 0 1-13.82-14c-.27-6.7 6.95-13.79 14-13.84 7.13-.1 14.66 7.09 13.71 13.76zm-2.22.19c.33-6.27-5.2-11.72-11.49-11.58-6.59.14-11.68 4.95-11.65 11.5a11.57 11.57 0 0 0 11.56 11.66 11.36 11.36 0 0 0 11.58-11.58zm5.42 12.95c-1.39-.82-1-1.54-.66-2.33a28.71 28.71 0 0 0 2.17-4.77c1.41-5.11 1.33-10.13-1.41-14.91-.59-1-1.62-2.06-1-3.82.61.19 1.36.18 1.71.56a14.48 14.48 0 0 1 3.4 7.58c1 5.78.39 11.41-3 16.47a8.15 8.15 0 0 1-1.21 1.22zm-32.95-1.4l-1.49.87a14.88 14.88 0 0 1-3.95-8.83c-.65-4.91-.16-9.76 2.53-14.17.63-1 1.16-2 2.95-1.4-1.44 3.86-3.38 7.46-3.43 11.58s1.42 7.97 3.39 11.95zm12.73-2.71c7.78-5.09 7.53-13.37.31-17.47 3.08-1.68 7.32-.82 10 2 3.37 3.62 3.31 8.11-.22 13.47-2.85 2.11-5.85 3.66-10.09 2zM239.62 98.62c-1.4.95-2.06.41-2.3-.41-1.63-5.44-2.52-10.83-.19-16.4a62.08 62.08 0 0 0 3.76-11.7c1.33-6.83-2.43-15.84-11-17.63-1.34-.28-2.66-.65-4.42-1.08l-.05 4.4c-.05 1.4 0 3 0 4.57 2.46 1.49 4.09 3.41 3.32 6.6-1.91 3.17-3.38 4-5.79 3.23-2.63-.84-3.75-2.77-3.53-7l3.16-3.2.67.39V47.24h-13c-3.54 4.12-4.57 4.4-8.79 2l-8.55 4.9c-.17 4.22-1.55 6.21-4.39 6.6-2.61.35-4.53-1.3-5.6-4.8a6.12 6.12 0 0 1 3.67-5l5.52 1.13 4.18-2.5c1.55-.95 2.81-1.79 4.62-2.94-4-3-8.52-3.23-12.33-5l-4.25 2.52a6.42 6.42 0 0 1-5-3.29v-3.49c1-2.18 2.83-3 5.1-3.3l2.86 1.38 2.21 4.24 10.9 3.61 4.5-2.67 3.53 1.56 1.79 2.81h14.68l.82 4.35c1.84.36 3.65.57 5.37 1.08C241 53.36 244.75 63 243 71.58a78.66 78.66 0 0 1-3.94 12 15.6 15.6 0 0 0-.52 10.42c.46 1.51.72 3.07 1.08 4.62zm-15.37-30.13c2.08-1.12 2.92-2.23 2.25-3.95-.49-1.27-1.45-1.57-3.95-1.31l-1.4 2.86zm-38.93-27.06l1.32-2.49-1.48-2.28-3.76.47.28 4.14zm21.26 6.79c1.22-1.56 1.2-2.9 0-4.57l-3.78.17.19 4.09a10.59 10.59 0 0 0 1.7.41 16.39 16.39 0 0 0 1.89-.1zm-18.71 10.46c2.31-1.5 3-3.07 1.85-4.68l-2.08-.81c-2.97 2.42-2.92 3.4.23 5.49zm12.07 16.53H179.7c-1.13-2.47 1-4.15.83-6.21a44.81 44.81 0 0 1-5.68 0 33.07 33.07 0 0 1-4.74-1.21 6.29 6.29 0 0 1-1.93-4.87V31.25a5.41 5.41 0 0 1 3.64-5.5l2.14-.1h44.75a15.67 15.67 0 0 1 2.06 0 5.06 5.06 0 0 1 4.59 4.46c.2 4 .06 8 0 12 0 .37-.43.74-.64 1.07-1.43-.19-1.4-1.16-1.41-2.07v-8.95c0-3.33-1-4.39-4.27-4.39q-22.89 0-45.78 0a15.48 15.48 0 0 0-1.54.21l-1.31 1.55V42v20.31c0 1.57.13 3 2.25 4h9.47 17.21c1.09 0 2.35-.35 3.08 1a2.35 2.35 0 0 1-2.6 1.75h-16.28l-1.65 3.64c6.28.06 12.18-.91 18.09.68v1.91z"/><path d="M199.92 75.23c2.8-2.69 3.62-6.18 4.12-9.85a29.15 29.15 0 0 1 1.29-6.33 14 14 0 0 1 7.11-7.6 36.92 36.92 0 0 1 7.13-2.32c1.49-.39 1.77-.11 3 1.69-1.5.35-2.89.78-4.31 1-5.58.84-11 4.68-11.51 11.31-.38 4.9-1.56 9.65-5 13.73l3.67 2-.5 3.75.69 6.78c3.36.9 6.81-.72 9.85 1.79a8.92 8.92 0 0 1-.08 8.94l-1.38-.84.31-5.54a4.86 4.86 0 0 0-4.53-1.94h-4.74l-2.49-3.28.48-1.87-.5-6.54-2.63-1.65v-3.25zm-23.8-11.17H173V30.72l2.91-.2c.74 2.55.9 29.29.21 33.54z"/></g></svg>