<svg xmlns="http://www.w3.org/2000/svg" viewBox="0 0 615.94 650.87"><defs><style>.cls-1{fill:#e6b147;}.cls-2{fill:#56d4b7;}.cls-3{fill:#4165a5;}.cls-4{fill:#cc5c6c;}.cls-5{fill:#955454;}.cls-6{fill:#df775d;}.cls-7{fill:#fff;}</style></defs><g id="Layer_2" data-name="Layer 2"><g id="_9" data-name="9"><rect class="cls-1" x="174.1" y="414.78" width="10.19" height="85.51"/><path class="cls-2" d="M291.76,548H148.32a25.5,25.5,0,0,1-25.47-25.47V311.07H133V522.5a15.29,15.29,0,0,0,15.28,15.28H291.76Z"/><path class="cls-1" d="M335.49,650.87h0a5.09,5.09,0,0,1-5.09-5.1V434a15.28,15.28,0,0,0-15.28-15.28h-64a25.47,25.47,0,0,1-25.47-25.47V254.85a25.47,25.47,0,0,1,25.47-25.48h12.12a15.29,15.29,0,0,0,15.29-15.28V182.51h10.18v31.58a25.47,25.47,0,0,1-25.47,25.47H251.14a15.29,15.29,0,0,0-15.28,15.29V393.24a15.28,15.28,0,0,0,15.28,15.28h64A25.47,25.47,0,0,1,340.59,434V645.77A5.1,5.1,0,0,1,335.49,650.87Z"/><path class="cls-3" d="M377.39,650.87h0a5.1,5.1,0,0,1-5.1-5.1V530.48A25.47,25.47,0,0,1,397.77,505H415a15.28,15.28,0,0,0,15.28-15.28V308.51A25.47,25.47,0,0,1,455.79,283h69.07v10.19H455.79a15.29,15.29,0,0,0-15.28,15.29V489.73A25.48,25.48,0,0,1,415,515.2H397.77a15.29,15.29,0,0,0-15.29,15.28V645.77A5.09,5.09,0,0,1,377.39,650.87Z"/><path class="cls-3" d="M438.3,460.33l-.06-10.19,115.48-.74A15.45,15.45,0,0,0,569,434V400.81h10.19V434a25.66,25.66,0,0,1-25.44,25.6Z"/><rect class="cls-4" x="94.76" y="331.94" width="233.09" height="10.19"/><path class="cls-5" d="M209.9,207.63h-90a25.5,25.5,0,0,1-25.47-25.48V127.69h10.19v54.46a15.3,15.3,0,0,0,15.28,15.29h90Z"/><path class="cls-5" d="M313.22,650.87h0a5.1,5.1,0,0,1-5.1-5.1V469.33A15.29,15.29,0,0,0,292.84,454h-66.1a25.47,25.47,0,0,1-25.47-25.47V57.26h10.19V428.57a15.29,15.29,0,0,0,15.28,15.29h66.1a25.47,25.47,0,0,1,25.47,25.47V645.77A5.09,5.09,0,0,1,313.22,650.87Z"/><path class="cls-2" d="M132.91,356.67H122.72v-86.9a14.94,14.94,0,0,0-15.2-15l-70.21,1.11-.16-10.18,70.21-1.12a25.15,25.15,0,0,1,25.55,25.15Z"/><path class="cls-4" d="M356.44,650.87h0a5.09,5.09,0,0,1-5.09-5.1V510.66a25.47,25.47,0,0,1,25.47-25.47h17.27a15.28,15.28,0,0,0,15.28-15.28v-83.2a15.28,15.28,0,0,0-15.28-15.28H351.34A25.47,25.47,0,0,1,325.87,346V83.6h10.19V346a15.28,15.28,0,0,0,15.28,15.28h42.75a25.47,25.47,0,0,1,25.47,25.47v83.2a25.47,25.47,0,0,1-25.47,25.47H376.82a15.29,15.29,0,0,0-15.29,15.28V645.77A5.09,5.09,0,0,1,356.44,650.87Z"/><rect class="cls-4" x="409.37" y="183.11" width="10.19" height="227.65"/><path class="cls-2" d="M291.78,650.87h0a5.1,5.1,0,0,1-5.1-5.1V486.49A25.48,25.48,0,0,1,312.16,461H353a15.29,15.29,0,0,0,15.29-15.28V260.9h10.19V445.73A25.47,25.47,0,0,1,353,471.2H312.16a15.29,15.29,0,0,0-15.29,15.29V645.77A5.09,5.09,0,0,1,291.78,650.87Z"/><rect class="cls-1" x="178.13" y="481.39" width="155.72" height="10.19"/><path class="cls-6" d="M268.14,650.87h0a5.09,5.09,0,0,1-5.09-5.1v-124a15.29,15.29,0,0,0-15.28-15.29H86A25.47,25.47,0,0,1,60.55,481V439.26H70.74V481A15.3,15.3,0,0,0,86,496.29H247.77a25.47,25.47,0,0,1,25.47,25.47v124A5.1,5.1,0,0,1,268.14,650.87Z"/><path class="cls-1" d="M437.09,548H338.25V537.78h98.84a15.3,15.3,0,0,0,15.29-15.28V70.73h10.19V522.5A25.51,25.51,0,0,1,437.09,548Z"/><path class="cls-5" d="M268.59,62.82A62.82,62.82,0,1,1,205.78,0,62.82,62.82,0,0,1,268.59,62.82Z"/><path class="cls-3" d="M615.94,406.79a40.4,40.4,0,1,1-40.39-40.4A40.39,40.39,0,0,1,615.94,406.79Z"/><path class="cls-2" d="M80.79,249.27A40.4,40.4,0,1,1,40.4,208.88,40.39,40.39,0,0,1,80.79,249.27Z"/><path class="cls-7" d="M66.25,265.7l-10.36-9.95A7.6,7.6,0,0,1,54,259.26l-1.89,2a7.64,7.64,0,0,1-3.42,2.07L59,273.23c1.79,1.73,4.86,1.43,6.86-.65S68.05,267.42,66.25,265.7Z"/><path class="cls-7" d="M53.11,258.44a6.36,6.36,0,0,0,1.75-3.68,5.33,5.33,0,0,0-1.52-4.53l-1-.9a21.14,21.14,0,0,1-1,2.08,21.94,21.94,0,0,1-3.12,4.24,21.44,21.44,0,0,1-4.11,3.29,22.24,22.24,0,0,1-2,1.12l.94.9a5.34,5.34,0,0,0,4.58,1.34,6.35,6.35,0,0,0,3.61-1.9Z"/><path class="cls-7" d="M47.38,254.83a19.45,19.45,0,0,0,3.1-4.27,21.36,21.36,0,0,0,1-2.11c.16-.4.3-.81.43-1.22A19.81,19.81,0,1,0,40,259.66c.4-.15.81-.3,1.21-.48a19.28,19.28,0,0,0,2.06-1.08A20,20,0,0,0,47.38,254.83Zm-8.86,1.66c-.4.14-.8.26-1.21.37A16.33,16.33,0,1,1,49,244.69c-.09.41-.18.81-.31,1.21a15.45,15.45,0,0,1-.82,2.14,16.06,16.06,0,0,1-7.23,7.54A15.61,15.61,0,0,1,38.52,256.49Z"/><path class="cls-4" d="M460.08,157.66a44.44,44.44,0,1,1-44.43-44.43A44.43,44.43,0,0,1,460.08,157.66Z"/><path class="cls-7" d="M415,173.83c-1.31-.64-1-1.72-1-2.66,0-5.19,0-10.39,0-15.58,0-.88-.08-1.76-.13-2.81a48.49,48.49,0,0,0-7.53-.14c-.08,1.06-.21,1.93-.21,2.79,0,5.28,0,10.56,0,15.84,0,.79-.06,1.59-.12,2.81-.7-.48-1.24-.65-1.32-.94a8,8,0,0,1-.11-2c0-5.2,0-10.39,0-15.59,0-.88-.08-1.76-.13-2.78-2.57-.44-4.93-.14-7.55-.24-.07.8-.19,1.5-.2,2.2,0,3.88,0,7.75,0,11.63,0,.87.23,1.86-.95,2.42-1.33-.47-1-1.66-1-2.65s0-1.94,0-3.37l-3.89,6.51h7.95c3.18,0,3.55.37,3.92,3.66a7.63,7.63,0,0,0,.36,1.13c4.65.37,9.32.09,14,.15.86-1.59.25-3.8,2.62-5h9.61c-.83-2.65-3.1-4.41-3.39-7.06,1.12-.32,1.47.33,1.8.85,1.16,1.89,2.35,3.77,3.36,5.75a7.41,7.41,0,0,1,.76,3c.09,3.3.08,6.6,0,9.9a21.36,21.36,0,0,1-.62,3.25,16.36,16.36,0,0,1-3.2.69c-11.79,0-23.59,0-35.38,0a4.1,4.1,0,0,1-3.92-2.08c0-4.23,0-8.68,0-13.12a4.11,4.11,0,0,1,.59-1.85c1.26-2.21,2.59-4.38,3.94-6.65l1.28.07c.64-3.35-.6-6.89.91-10.36,3.27-1.27,6.59-.74,10.17-.37,2.48-.71,5.29-.33,8.07-.27a9.59,9.59,0,0,0,2.62,0,1.55,1.55,0,0,1,2.12,1.09l-2.34.73c0,.73-.1,1.53-.11,2.34,0,5.27,0,10.55,0,15.83C416,172,416.24,173.09,415,173.83Zm2.33,2c-4.36,0-8.81,0-13.26,0-2,0-2.79-.8-3-2.81-.07-.62-.18-1.24-.26-1.79a35.07,35.07,0,0,0-10.56.08c0,2.1-.06,4.23,0,6.37s-.38,4.23.37,6.34h38.55a3.87,3.87,0,0,0,1.09-3.11c0-2.31,0-4.62,0-6.92v-3H419.61C419.4,172.82,419.46,174.66,417.36,175.83Z"/><path class="cls-7" d="M442.6,141.94v14.68a3.29,3.29,0,0,1-3.32,1.83c-5.61,0-11.22,0-16.83,0a13.5,13.5,0,0,1-2.91-.71c-.28-5.48-.15-10.72-.08-16.22a19,19,0,0,1,2.21-.34C434.11,140.79,440.4,141,442.6,141.94ZM421,156.49c6.67-.06,13.11.1,19.51-.12.37-3.41.28-11.22-.18-13.26-6.38,0-12.82-.13-19.33.11Z"/><path class="cls-7" d="M423.13,139.41c-.81-.28-.76-1-.75-1.63,0-3.94,3.91-7.62,6.9-8,2.5-.32,5-.31,7.34,1.28a10,10,0,0,1,4.05,6.22,1.7,1.7,0,0,1-1.08,2.34c-.15-.58-.29-1.07-.4-1.58-.67-2.93-1.94-5.38-5-6.41-4.76-1.58-9.44,1.11-10.21,5.93a11.4,11.4,0,0,1-.4,1.63C423.5,139.29,423.27,139.34,423.13,139.41Z"/><path class="cls-7" d="M434.83,135.93l-4.67-2,.76-1.05c5,.8,7.51,3.81,6.51,7.57-.73.29-1-.06-1.16-.75a8.3,8.3,0,0,0-.35-1.66A21.54,21.54,0,0,0,434.83,135.93Z"/><path class="cls-7" d="M425.34,168.77l-1.43-.11a82.17,82.17,0,0,1,.1-8.89c0-.24.39-.45.73-.82.27.49.61.82.62,1.16C425.43,163,425.49,165.82,425.34,168.77Z"/><path class="cls-7" d="M397.05,161.88c1.48-1.56,3.2-.75,4.72-.93.74-.08,1.49,0,1.71,1-.23.94-1,.94-1.72,1C399,163.08,398.44,163,397.05,161.88Z"/><path class="cls-7" d="M413.54,161.76c-.84,1.61-2.12,1.13-3.16,1.11s-2.48.53-3.27-.82a1.21,1.21,0,0,1,1.45-1.08C410.17,161.14,412,160.33,413.54,161.76Z"/><path class="cls-7" d="M403.39,159.9a12.49,12.49,0,0,1-6.18.33l.13-1.19C399.48,159.05,401.59,158.39,403.39,159.9Z"/><path class="cls-7" d="M407.16,160v-.68c2.36-.75,4.88-.6,6.11.36C412,160.65,409.41,160.79,407.16,160Z"/><path class="cls-7" d="M428.65,179.6v2.77a10.18,10.18,0,0,1-1.75.33q-16.93,0-33.88,0a9.43,9.43,0,0,1-1.13-.16v-2.91s.08-.08.15-.13.12-.13.19-.14c.49,0,1-.11,1.48-.11l33.88,0A5.75,5.75,0,0,1,428.65,179.6Z"/><path class="cls-7" d="M436.63,145.19l.76,1c-2.16,2.67-4.3,5.31-6.58,8.11-1.93-1.17-3.2-2.79-4.77-4-.17-.14-.1-.59-.16-1,2.32-.32,2.8,2.12,4.56,2.71C432.89,150.18,434,147,436.63,145.19Z"/><path class="cls-4" d="M52.37,312.21c1.4.52,2.53-.33,2.78,1.7-.76.76-1.85,1.87-.92,3,.45.55,1.64.2,2-.15a8.16,8.16,0,0,1,3.5-2.43c2.83,0,2.15-.54,3.4-2.46C63.63,309.11,53.8,310.45,52.37,312.21Z"/><path class="cls-4" d="M64.69,315.23c.28-.47-2.66,0-2.79,0C62.55,315.87,64.05,316.26,64.69,315.23Z"/><path class="cls-4" d="M48.69,314.36c1.43-.12,1.49.22.75,1.21-.59.78,1.34,1.1,2.06,0C52.77,313.76,47.57,312.23,48.69,314.36Z"/><path class="cls-4" d="M66.86,318.94c.12-.42-1.17,0-1.24.53C65.48,320.64,66.68,319.61,66.86,318.94Z"/><path class="cls-4" d="M67.18,318.87c.06.51.15.63-.13,1,.87.89,1.33.21,2.07-.32-.6.44-.84-1.47-1.54-1.11.13-.21.26-.42.4-.62l-.67-.08c.55-.71-.74-.16-.69.42C66.62,318.21,67.15,318.61,67.18,318.87Z"/><path class="cls-4" d="M71.93,324.88a1,1,0,0,1-.06-.6C70.88,324.25,71.93,325.42,71.93,324.88Z"/><path class="cls-4" d="M95.06,343.92a8,8,0,0,0,.29-3.57A14.71,14.71,0,0,0,95.06,343.92Z"/><path class="cls-4" d="M95.35,340.35a13.3,13.3,0,0,0,.18-1.85A6.36,6.36,0,0,0,95.35,340.35Z"/><path class="cls-4" d="M81.16,324.6c0-.2,0,0,0,0Z"/><path class="cls-4" d="M81.21,349.92a11.71,11.71,0,0,0-1.15,2.89c-.58,2,2.56-2.68,2.75-3.07a3.52,3.52,0,0,0,.26-1.55A23,23,0,0,1,81.21,349.92Z"/><path class="cls-4" d="M83.06,348.11s0,.06,0,.08S83.11,348.09,83.06,348.11Z"/><path class="cls-4" d="M91.89,341.1c.23.09.35,0,.37-.34,0-.15.07-1.49-.1-1.49S91.81,340.93,91.89,341.1Z"/><path class="cls-4" d="M81.42,314.18Z"/><path class="cls-4" d="M81.2,314.06c-.59-1.08,1.53-.67,1.11-1.27C82.06,312.43,78.84,312.66,81.2,314.06Z"/><path class="cls-4" d="M81.23,314.09c.11,0-.17-.07,0,0Z"/><path class="cls-4" d="M71.68,312.22c.5.13.31-.75.7-.88a1.16,1.16,0,0,0,1,.74.92.92,0,0,0-.33-.38,2.11,2.11,0,0,0,.48-.32C73.82,310.67,67.84,311.29,71.68,312.22Z"/><path class="cls-4" d="M49.92,321.71c.49,0,2,.38,2.14,0C52.52,320.52,50.29,320.86,49.92,321.71Z"/><path class="cls-4" d="M42.29,333.11c.21.11.64.48,1.07.77l.11.23c.14.26-.09-.2-.11-.23.45.3.89.49,1,.15C45.17,332.25,41.71,332.79,42.29,333.11Z"/><path class="cls-4" d="M44.88,334.76a2.2,2.2,0,0,1,1.1-.19C46.23,334.42,43.61,332.56,44.88,334.76Z"/><path class="cls-4" d="M46.44,314.16h0S46.42,314.15,46.44,314.16Z"/><path class="cls-4" d="M47.34,313.88a1.71,1.71,0,0,0,.94-.44C48.85,312.87,47.4,313.81,47.34,313.88Z"/><path class="cls-4" d="M47.41,313.88Z"/><path class="cls-4" d="M98.28,331.73a46.61,46.61,0,0,0-1.2-5,34.74,34.74,0,0,0-2-4.7,32.45,32.45,0,0,0-2.63-4.3,33.34,33.34,0,0,0-3.29-3.88,40.9,40.9,0,0,0-3.73-3.23A32.53,32.53,0,0,0,81.29,308c-.73-.41-1.72-.85-2.25-1.08s-1.21-.5-2.1-.83A34,34,0,0,0,73.18,305c-.85-.18-1.5-.31-2-.38s-1.37-.21-2.4-.29c-1.22-.1-1.76-.1-2-.1H65.23c-.49,0-4.87.5-6.47.84-1.22.27-1.87.47-2.4.63s-1.53.51-2.16.76a33,33,0,0,0-4.81,2.37c-.64.38-1.51.95-2.21,1.45s-1.44,1.09-2,1.52a30.26,30.26,0,0,0-3.62,3.53c-.5.57-1.15,1.36-1.61,2-.31.42-.67,1-1,1.46l-.37.54a32.91,32.91,0,0,0-2.43,4.55,30.32,30.32,0,0,0-1.65,4.81,25.08,25.08,0,0,0-.56,2.6c-.09.53-.17,1.17-.24,1.77,0,.28-.06.55-.1.79a22.36,22.36,0,0,0-.13,2.76,32.53,32.53,0,0,0,2.09,11.75,33,33,0,0,0,5,8.8c.66.8,1.21,1.43,1.62,1.87a22.41,22.41,0,0,0,1.83,1.82l.54.47a16.69,16.69,0,0,0,1.4,1.17c1.06.78,2.66,1.89,4,2.71a31.55,31.55,0,0,0,4.84,2.25,49.79,49.79,0,0,0,6.94,1.71c.39.06,1.06.13,1.57.17s.91.06,1.27.08l.58,0h1.66c.09,0,1.08,0,2.75-.2,1-.11,2-.26,2.62-.38a30.16,30.16,0,0,0,3-.74c.43-.12,1-.3,1.43-.47l.46-.16A24.94,24.94,0,0,0,80.65,366c.74-.39,1.67-.89,2.37-1.31.5-.31,1.13-.74,1.68-1.11l.36-.24A33.87,33.87,0,0,0,89,360c.54-.53,1.22-1.26,1.75-1.86.33-.39.71-.87,1.07-1.32l.46-.6a32.31,32.31,0,0,0,5.46-11.5,47.15,47.15,0,0,0,.85-5.1A33.9,33.9,0,0,0,98.28,331.73Zm-16-10.46c.07-.06,2.77,1.18,2.74,1.73a.89.89,0,0,1-1.12.43c.36.55,1.28.95,1.39,1.52a.38.38,0,0,0-.42.08c.16.19,1.38,1.69.38,1.64-1.66-.08-1.25-2.24-3.11-2.25.93-.25,1,.58,1.78.76C83.94,325.16,81.44,322,82.24,321.27ZM94.42,346.7c.2-.92,1-4.9.18-4.87a24.67,24.67,0,0,0-.24,5c-.21.57-.43,1.13-.68,1.76a30.81,30.81,0,0,1-3.45,6c-.15.19-.32.39-.48.61-.33.42-.69.87-1,1.22-.48.55-1.12,1.23-1.61,1.71a28.56,28.56,0,0,1-3.54,3l-.36.25c-.51.34-1.09.74-1.56,1-.64.39-1.53.86-2.24,1.24A23.72,23.72,0,0,1,76.38,365l-.48.16c-.42.15-.89.31-1.27.42a24.42,24.42,0,0,1-2.87.69c-.54.11-1.49.26-2.4.36-1.52.16-2.42.18-2.42.18h-.2l0,1.29-.15-1.29h-1.3l-.57,0-1.19-.07c-.46,0-1.06-.11-1.42-.16a47.14,47.14,0,0,1-6.4-1.57A28.93,28.93,0,0,1,51.34,363c-1.28-.76-2.86-1.87-3.83-2.56-.35-.27-.78-.65-1.2-1-.21-.19-.4-.37-.59-.52-.49-.42-1.12-1.08-1.62-1.61s-.88-1-1.5-1.76a30,30,0,0,1-2.6-3.82,28.68,28.68,0,0,1-2-4.19,29.05,29.05,0,0,1-1.33-4.55,29.73,29.73,0,0,1-.63-6.38,20.79,20.79,0,0,1,.12-2.39c0-.26.07-.54.1-.82.07-.56.14-1.16.22-1.64.16-.9.3-1.57.43-2.07a10.11,10.11,0,0,0,.45,3.33c-.07-1.13-.06-2.28-.06-3.42.08,1.87-.06,4.45,1,6.06.48.71,1.8,1,2.57,1.87,2.19,2.45,3.08,3,2.85,6.67s3.87,5.18,4.89,8.24c.94,2.79,3.1,10.63,7.22,10.39,0-.46-4.16-3.41-2.59-4.25.18-1.3,1.36-2.23,1.28-3.81-.12-2.16.76-2,1.19-3.62.38-1.48.76-3,1.15-4.44.49-2-1.51-2.57-3-3.07A3.58,3.58,0,0,1,51.59,342c-.32-.75-.44-1.68-1.48-1.64-1.31,0-1.62-2.16-2.74-2.17-2.35,0-3.1-1.61-3.63,1.46-.31-1.16-1.24-.57-1.61-1.88-.17-.61-.38-2.09-1.36-1.69.07-.74.64-2.13.18-2.65-.44.48-1.28,2.21-1.56.79a7.74,7.74,0,0,1,0-2.63,2.4,2.4,0,0,1,1.56-2.05c2.45-.64.61,1.92,2,2.24.34-2.11-.1-3.13,1.37-4.91.51-.62.88-1.45,1.39-2.11s5-3.73,1.95-2.85c1.6-1.29,5.73-1.7,2.89-4.45-1,1.69-1.2-.57-1.41-.87-.61-.87-2.88,3.66-3.42,3.89-.4-1.69-2-2.25.06-3.82.83-.63,2.68-1.27,2.71-2.26-.88.22-1.94.36-3,.63l1-.93s0,.05,0,.06a4.26,4.26,0,0,1,.56,0c-.28.05.65-.6.25-.62l-.15.08.44-.36a1,1,0,0,0,.44-.3,1.13,1.13,0,0,1,.11-.11c.19-.16.39-.31.57-.44l1.14-.76a2.6,2.6,0,0,0-.35.32c-.29,1.67,1.18,1.19,1.66.22a16.78,16.78,0,0,1,2.56-1.41,9.21,9.21,0,0,0-3.21.44c.09,0,.17-.1.25-.14a28.83,28.83,0,0,1,4.45-2.19c.56-.23,1.34-.51,2-.69s1.08-.33,2.2-.58c1.5-.33,5.53-.76,5.91-.78h1.63s.64,0,1.73.09c.94.07,1.83.21,2.22.27.55.08,1.29.23,1.84.35a33.28,33.28,0,0,1,3.4,1c.83.31,1.51.58,2,.77s1.4.63,2,1a29.69,29.69,0,0,1,3.88,2.45c.41.3.84.65,1.27,1-.15.12-.21.26,0,.55-2-.61.22.36.08,1.18-.68,0-1.71-2.27-2.18-1.73a7.14,7.14,0,0,0,1.08,1.65c-1.19-.87-1.6-.42-2.87-.21-1.43.23-1.18-.62-2.23-.6.9,1.66-1.65,1.15-2.28.31.66-.24,1.1.66,1.78.27-.64-2.55-5.36-.93-6.78-.33.74,0-2,1.63-2,1.53-.6,1.69,1.13,1,1.69.94a11.52,11.52,0,0,0,1,1.43c.41-.18.6-1.15,1-1.14.81-.07-.55-1.13-.18-1.61.19-.24,2.19-1.14,1.74-.34-.27.47-1.5.24-.54,1.28.49.54,1.57-.42,1.94.2a8.67,8.67,0,0,1,1,2.6,12.39,12.39,0,0,0-1-2.33c-.89-1.19-.82.62-1,.95-1.13,0-.31.74-1.67.84a7.89,7.89,0,0,1-2.85-.78c-.15,1.15.52.71-1.06,1.7-.05,0-2.71,1.09-2.72,1.15,2.54,3.73-1.18-.07-1.49,2.62-.18,1.52.69,3.06,2.27,1.93,1.15-.83,1.9-3.36,3.66-2.94.39.09,1.55,1.34,1.91,1.6,1.38,1-.36.74-.64,1.09a3,3,0,0,0,.9.48c.14-.65.38-1.51,1-1.28.09-.73-2.47-1.08-2.06-2.23.9-.07,3.71,3.5,3.62,3.57.78-.76-.9-2,1.4-1.6,0-.68-.47-1.5.3-2.07.11-.09.06-.48-.07-1,.22.37.52.51,1.11,1,0,.35,0,1.19.79.45-.16-.27-.4-.12-.53-.43a2.36,2.36,0,0,1,1.14-.39,2.38,2.38,0,0,0,1.27,2.41,1.56,1.56,0,0,0-1,.68c1.08-1.63-3.93-.89-3.49-.08.6,1.1,2,2.27,2.82.93a7.17,7.17,0,0,0,.08,1.82c-.46,1.24-1,.4-2.11,1.4-.4-.31.06-.71-1.15-1.23-.76-.32-1.19-.49-1.35.45s-1.62-.39-2-.48c-2.11-.57-.3-1.51-1.5-2.32a15.07,15.07,0,0,1-4.09.73c-1.36,0-1.9.62-2.39,1.91S64,330,63.45,331.16A8,8,0,0,0,66,340.68c.9-.63,6.33-1.7,6.08.67a5.81,5.81,0,0,0,.58,3.79c.73,1.75,0,2.26-.55,3.72a10.14,10.14,0,0,0,.44,5.51c.4.67-.44,2.11.7,2.13,1.35,0,2.35-1.12,3.28-1.93s1.14-2.86,2-3.66,1.92-1.23,2.2-2.47-.25-2.64.5-3.8c1.29-2,3.37-3.72,3.89-6.14,0-.27,0-.55,0-.82-2.18.81-2,.86-2.91-1.16-1.09-2.33-1.82-4.82-2.7-7.24a2.19,2.19,0,0,0,.61.89,1.64,1.64,0,0,0,.23-.72c0,.16,0,.31.06.41a21.82,21.82,0,0,0,1.74,4.66c.58,1.46.68,3.34,2.51,2.24a7.77,7.77,0,0,0,2.32-2.1c1-1.41,0-2-.38-3.37-.92.32-.55,1.78-1.63.24-.29-.41-1.25-1.87-.6-2.34a2.3,2.3,0,0,1,1.15,1.33c.2.49.75,0,1.06.2.88.68,1.5.42,2.37.92.7.4.27,1.16,1.24,1.27,0,0,.14,1.88.32.62.48.59.3,3,.4,3.5.67,1-.62,2.23.43,3.14,1.17-.88.9-3.1,1.52-4.32,1.61-3.15,1.39-1.49,1.83,1.19l.49-.42a5.08,5.08,0,0,1,.28,1.88,1.4,1.4,0,0,1,.06-.24,4.82,4.82,0,0,1,.14,2.48c0-.06.06-.13.1-.19-.16,1.19-.38,2.53-.63,3.57A24.79,24.79,0,0,1,94.42,346.7Z"/><path class="cls-5" d="M144.48,122.34A45.8,45.8,0,1,1,98.69,76.55,45.8,45.8,0,0,1,144.48,122.34Z"/><path class="cls-4" d="M398,360.58a69.1,69.1,0,1,1-69.09-69.1A69.1,69.1,0,0,1,398,360.58Z"/><path class="cls-7" d="M362.11,316.34c4,1.84,5.41,4.77,5.39,8.76-.09,13.65,0,27.3,0,40.95,0,6.14-2.26,8.29-8.56,8.32l-8.89.05c1,2.85,1.78,5.14,2.74,7.88a21.75,21.75,0,0,1-4.5,1c-10.62.08-21.23,0-31.85,0-.68,0-1.37-.08-2.06-.12a32.57,32.57,0,0,0-7.37.12l-1.88-1.44,2.59-7.28a28.62,28.62,0,0,0-7.76-.24c-7.23.55-9.78-2.94-9.63-9.45.3-13,.09-25.92.09-38.88,0-1,0-1.93,0-2.89.19-4.18,2.59-6.64,6.7-6.85,1.52-.07,3,0,4.55,0h60.47Zm1.63,3.58a29,29,0,0,0-5.05-.93c-19.85-.06-39.7,0-59.54-.06-2.52,0-4.59.67-6,2.92a9.21,9.21,0,0,0-.17,1.24c0,14.47,0,28.94,0,43.41,0,3.91,1.32,5.22,5.2,5.25,6.89.06,13.78,0,20.67,0q20.47,0,40.93,0c.82,0,1.63-.15,2.53-.24l2.51-2.79c0-14.8,0-29.54,0-44.28C364.8,323.13,364.21,321.83,363.74,319.92Zm-16.89,54.65H310.8l-2.09,5.27H349C348.21,377.89,347.55,376.27,346.85,374.57Z"/><path class="cls-7" d="M292,404.85c-2.35-1.31-3.12-3.24-2.07-5.34,2-4,4.37-7.93,6.62-11.86.18-.32.64-.49,1.1-.84h62.89a20.94,20.94,0,0,1,1.94,2.47c1.71,3,3.34,6,5,9,1.49,2.78,1.23,3.92-1.48,6.54Zm-.1-2.67c1.82.1,2.9.2,4,.2h65.33a13.16,13.16,0,0,0,2.88-.14c.57-.12,1-.71,1.76-1.24-2.84-3.74-3.77-8.38-6.89-11.52H298.18C296.6,393.8,293.37,397.18,291.88,402.18Z"/><path class="cls-7" d="M312.72,329.82l2.28-2.37c3.66-.33,3.66-.33,6.34,1.33,2.34,6,1.84,9.88-1.8,13.17a13.41,13.41,0,0,1-1.9.14c-3.28-.16-4.74-1.54-4.89-4.79C312.64,335,312.72,332.65,312.72,329.82Zm6.58,9.34c-.07-3.32.67-6.13-.61-9.27l-3,.28c-.46,3.19-.76,6,.24,9Z"/><path class="cls-7" d="M321.14,361.59l-5.51,1.73-2.91-3.43c0-2.44-.05-4.62,0-6.8.14-4.76,3.07-6.51,7.47-4.5a10.76,10.76,0,0,1,1.23.82C322.8,353.18,323.43,357.08,321.14,361.59ZM319,359.71a18.65,18.65,0,0,0-.19-9.12l-3.05.22A19.1,19.1,0,0,0,316,360Z"/><path class="cls-7" d="M344.46,342h-4.29l-2.55-2.7c.31-4.37-1.49-8.9,3.06-12.06h3.57C348.92,330.86,349.11,337.53,344.46,342Zm.5-10.71-3.09-1.77a7.93,7.93,0,0,0-.36,9.94l2.27-.22C345.62,336.78,344.76,334.26,345,331.27Z"/><path class="cls-7" d="M340.72,347.89h3.67c4.43,4,4.55,10.3.22,14.69H340.8C336.23,358.85,336.11,352.16,340.72,347.89Zm.67,2.63c-1.95,4.42-1.52,9,1.18,9.68l2.39-1.95c-.25-2.81.83-5.52-1.39-7.73Z"/><path class="cls-7" d="M303.7,332.93l-2.47-.27c.13-3,2.31-4,4-5.47,2.26.88,1.77,2.71,1.8,4.26.14,8.6.12,8.6-2,10.76-.24-1.29-.46-2.25-.59-3.22-.27-2-.49-4-.73-6.06.14-.11.27-.23,0,0C303.92,332.67,303.81,332.8,303.7,332.93Z"/><path class="cls-7" d="M304.63,362.28v-8c-.37-.61-.44-.83-.51-.83-.78,0-1.55.09-2.53.16-.93-3.35,2.16-3.95,3.72-6.13.69,1,1.56,1.69,1.59,2.41.15,3.56.15,7.12,0,10.68,0,.72-.84,1.41-1.29,2.11Z"/><path class="cls-7" d="M329.28,353.42h-2.86c.09-2.61.09-2.61,3.79-5.59.5.51,1.47,1,1.48,1.57.11,4,.05,7.93,0,11.9,0,.4-.62.78-1,1.2-2.05-1.16-1.26-3-1.38-4.52S329.28,355,329.28,353.42Z"/><path class="cls-7" d="M356,342.46c-3.16-3.1-1.07-6.51-2.15-9.65h-3c1-2.84,3-4.18,4.91-5.62C357,329.9,357.16,337.75,356,342.46Z"/><path class="cls-7" d="M329.07,332.72h-2.74c.66-2.52.66-2.52,4.11-5.18,1.56,1.66,1.92,4.56,1.44,11.51-.09,1.4-.09,1.4-1.93,2.88C328.54,339,329.72,336,329.07,332.72Z"/><path class="cls-7" d="M355.86,362.74c-3.2-2.65-.83-6.27-2-9.16l-3.19-.33a13.58,13.58,0,0,1,5.22-5.44C357.07,351.24,357,359.47,355.86,362.74Z"/><path class="cls-7" d="M300.29,392.61h57.59l3.86,6.66c-3.6.84-61.45.9-65.09.18C296.45,396.51,298.58,394.8,300.29,392.61Z"/><path class="cls-7" d="M576.48,377.55v12.2a33.41,33.41,0,0,0,9.33-1.58A26.86,26.86,0,0,0,576.48,377.55Z"/><path class="cls-7" d="M562.33,402c.06.46.13.62.24,1.36l10.64.84v-.26h1.41v-2.55H562.29C562.3,401.65,562.31,401.84,562.33,402Z"/><path class="cls-7" d="M577.88,404.19l10.44-.82c.09-.74.19-.92.24-1.37,0-.16,0-.35,0-.62H576.48v2.55h1.4Z"/><path class="cls-7" d="M574.62,391.61a35,35,0,0,1-10.29-1.8,27.89,27.89,0,0,0-2,9.71h12.33Z"/><path class="cls-7" d="M574.62,377.41a27,27,0,0,0-9.52,10.7,33.23,33.23,0,0,0,9.52,1.64Z"/><path class="cls-7" d="M586.58,389.88a35.07,35.07,0,0,1-10.1,1.73v7.91H588.6A28.22,28.22,0,0,0,586.58,389.88Z"/><path class="cls-7" d="M587.59,387.55a31,31,0,0,0,5.53-2.83l0,0c-.17-.18-.35-.35-.53-.53l-.5-.52c-.22-.22-.45-.43-.69-.65s-.58-.52-.88-.78l-.77-.59a5.74,5.74,0,0,0-.5-.36c-.42-.31-.86-.6-1.3-.88l-.43-.26c-.51-.29-1-.57-1.54-.83l-.35-.17a23.3,23.3,0,0,0-5.32-1.79h-.08c-.4-.08-.8-.18-1.21-.23,0,0,0,0,0,0A28.75,28.75,0,0,1,587.59,387.55Z"/><path class="cls-7" d="M560.42,399.52a30.19,30.19,0,0,1,2.15-10.34,33.83,33.83,0,0,1-5.79-3h0l-.56.79-.24.33-.52.81-.2.34c-.33.56-.63,1.14-.92,1.72l-.05.09c-.16.33-.31.67-.45,1a.49.49,0,0,0,0,.11,20.22,20.22,0,0,0-.76,2.06.43.43,0,0,0,0,0,22,22,0,0,0-.78,3.39v0a25.85,25.85,0,0,0-.27,2.65h8.47Z"/><path class="cls-7" d="M590.43,402c0,.42-.11.56-.2,1.26h.11l8.6-.68a6.29,6.29,0,0,0,.2-1.15h-8.68C590.45,401.63,590.44,401.8,590.43,402Z"/><path class="cls-7" d="M560.54,403.19h.11c-.09-.71-.15-.84-.19-1.27,0-.14,0-.31,0-.55H552a6.29,6.29,0,0,0,.2,1.15Z"/><path class="cls-7" d="M563.33,387.47a28.67,28.67,0,0,1,8.39-10.29.1.1,0,0,0,0-.05l-.91.2-.13,0a20.93,20.93,0,0,0-2.07.53l-.17.05a21,21,0,0,0-3.08,1.21l-.4.2c-.5.24-1,.51-1.45.78l-.51.32c-.41.25-.8.52-1.2.81-.19.12-.38.27-.57.41s-.48.36-.71.56-.62.52-.92.79l-.65.63c-.19.18-.37.38-.55.57l-.48.48a0,0,0,0,1,0,0A31.17,31.17,0,0,0,563.33,387.47Z"/><path class="cls-7" d="M590.46,399.52h8.68a23.31,23.31,0,0,0-.26-2.65v0a23.67,23.67,0,0,0-.78-3.4v0a21,21,0,0,0-.77-2.1l0-.06c-.14-.35-.3-.69-.46-1h0c-.3-.63-.64-1.24-1-1.84l-.15-.26c-.42-.67-.85-1.33-1.33-2h0a33.11,33.11,0,0,1-6,3.09A30,30,0,0,1,590.46,399.52Z"/><path class="cls-7" d="M598.94,403.57l-8.71.68-1.91.15-10.44.83V405h-4.67v.26l-10.64-.83-1.92-.16-8.5-.67-.76-.06V434l21.82,1.72v.74h4.67v-.74L599.7,434V403.51Zm-45.75,29.69V404.41l21.53,1.76.51.05v28.84l-.51,0Zm44.71,0-22.36,1.83V406.24l22.36-1.83Z"/><polygon class="cls-7" points="556.1 415.07 572.64 416.15 572.64 415.26 556.1 414.17 556.1 415.07"/><polygon class="cls-7" points="556.1 411.82 572.64 412.9 572.64 412.01 556.1 410.93 556.1 411.82"/><polygon class="cls-7" points="570.7 409.32 570.68 408.43 557.63 407.7 557.64 408.61 570.7 409.32"/><polygon class="cls-7" points="556.1 418.2 572.64 419.29 572.64 418.38 556.1 417.3 556.1 418.2"/><polygon class="cls-7" points="556.1 421.33 572.64 422.41 572.64 421.51 556.1 420.43 556.1 421.33"/><polygon class="cls-7" points="556.1 424.46 572.64 425.54 572.64 424.64 556.1 423.55 556.1 424.46"/><polygon class="cls-7" points="556.1 427.59 572.64 428.67 572.64 427.76 556.1 426.69 556.1 427.59"/><polygon class="cls-7" points="556.1 430.72 572.64 431.79 572.64 430.9 556.1 429.82 556.1 430.72"/><polygon class="cls-7" points="594.37 414.17 577.83 415.26 577.83 416.15 594.37 415.07 594.37 414.17"/><polygon class="cls-7" points="594.37 410.93 577.83 412.01 577.83 412.9 594.37 411.82 594.37 410.93"/><polygon class="cls-7" points="592.85 407.7 579.78 408.43 579.76 409.32 592.82 408.61 592.85 407.7"/><polygon class="cls-7" points="594.37 417.3 577.83 418.38 577.83 419.29 594.37 418.2 594.37 417.3"/><polygon class="cls-7" points="594.37 420.43 577.83 421.51 577.83 422.41 594.37 421.33 594.37 420.43"/><polygon class="cls-7" points="594.37 423.55 577.83 424.64 577.83 425.54 594.37 424.46 594.37 423.55"/><polygon class="cls-7" points="594.37 426.69 577.83 427.76 577.83 428.67 594.37 427.59 594.37 426.69"/><polygon class="cls-7" points="594.37 429.82 577.83 430.9 577.83 431.79 594.37 430.72 594.37 429.82"/><path class="cls-1" d="M339.44,176.67A55.41,55.41,0,1,1,284,121.26,55.41,55.41,0,0,1,339.44,176.67Z"/><rect class="cls-3" x="438.27" y="397.16" width="57.92" height="10.19"/><path class="cls-3" d="M513.56,403.17c0,15.13-11.87,27.4-26.5,27.4s-26.51-12.27-26.51-27.4,11.87-27.4,26.51-27.4S513.56,388,513.56,403.17Z"/><path class="cls-7" d="M499.07,392.87h0l1.4-2.21-2.59-2.23-2,1.64a16.12,16.12,0,0,0-4.16-2.05v-5.4H482.3V388a16.31,16.31,0,1,0,20.88,15.6A16.38,16.38,0,0,0,499.07,392.87ZM490,383.78h.56v2.9H490Zm-1.62,0h.55v2.9h-.55Zm-1.63,0h.56v2.9h-.56Zm-1.63,0h.56v2.9h-.56Zm-1.62,0h.55v2.9h-.55Zm3.55,34.94a15.08,15.08,0,1,1,14.85-15.08A15,15,0,0,1,487.05,418.72Z"/><path class="cls-7" d="M487.69,389.32h-1v.21h-.1v13.32H473V403h-.22v1h.21v.1H487.4c.28,0,.44-.32.44-.6v-.17h0V389.53h-.16Z"/><polygon class="cls-7" points="483.69 392.76 484.69 392.51 484.01 389.84 483.96 389.65 482.97 389.9 483.02 390.1 483.69 392.76"/><polygon class="cls-7" points="480.99 394 481.88 393.5 480.54 391.1 480.45 390.93 479.55 391.42 479.66 391.61 480.99 394"/><polygon class="cls-7" points="478.71 395.9 479.44 395.19 477.53 393.22 477.38 393.07 476.65 393.78 476.8 393.94 478.71 395.9"/><polygon class="cls-7" points="476.99 398.32 477.51 397.45 475.15 396.04 474.98 395.93 474.45 396.81 474.63 396.92 476.99 398.32"/><polygon class="cls-7" points="475.96 401.11 476.24 400.13 473.58 399.38 473.39 399.32 473.12 400.31 473.32 400.36 475.96 401.11"/><polygon class="cls-7" points="475.93 406.01 473.26 406.68 473.07 406.73 473.32 407.72 473.52 407.67 476.18 407 475.93 406.01"/><polygon class="cls-7" points="476.93 408.81 474.52 410.15 474.35 410.25 474.84 411.14 475.03 411.03 477.42 409.7 476.93 408.81"/><polygon class="cls-7" points="476.64 413.16 476.49 413.31 477.2 414.05 477.36 413.9 479.32 411.99 478.61 411.25 476.64 413.16"/><polygon class="cls-7" points="479.46 415.54 479.35 415.72 480.23 416.24 480.33 416.07 481.74 413.7 480.87 413.19 479.46 415.54"/><polygon class="cls-7" points="482.8 417.11 482.74 417.3 483.72 417.58 483.78 417.37 484.53 414.74 483.55 414.46 482.8 417.11"/><polygon class="cls-7" points="486.43 417.73 486.43 417.95 487.44 417.96 487.44 417.75 487.49 415.01 486.47 415 486.43 417.73"/><polygon class="cls-7" points="490.41 414.51 489.43 414.76 490.1 417.43 490.15 417.62 491.14 417.38 491.09 417.18 490.41 414.51"/><polygon class="cls-7" points="493.12 413.27 492.22 413.77 493.57 416.17 493.66 416.35 494.56 415.85 494.45 415.66 493.12 413.27"/><polygon class="cls-7" points="495.4 411.37 494.67 412.09 496.58 414.05 496.73 414.21 497.46 413.49 497.31 413.34 495.4 411.37"/><polygon class="cls-7" points="497.12 408.95 496.6 409.83 498.96 411.23 499.14 411.34 499.65 410.46 499.48 410.36 497.12 408.95"/><polygon class="cls-7" points="498.15 406.16 497.88 407.14 500.53 407.9 500.72 407.95 500.99 406.97 500.79 406.91 498.15 406.16"/><polygon class="cls-7" points="501.16 403.25 498.43 403.21 498.42 404.23 501.15 404.26 501.37 404.27 501.38 403.25 501.16 403.25"/><polygon class="cls-7" points="498.18 401.26 500.85 400.59 501.05 400.54 500.8 399.56 500.6 399.61 497.93 400.28 498.18 401.26"/><polygon class="cls-7" points="497.19 398.46 499.58 397.13 499.77 397.03 499.27 396.14 499.08 396.24 496.69 397.58 497.19 398.46"/><polygon class="cls-7" points="497.47 394.11 497.62 393.96 496.91 393.23 496.76 393.38 494.8 395.29 495.51 396.02 497.47 394.11"/><polygon class="cls-7" points="493.88 391.03 493.78 391.2 492.37 393.57 493.25 394.09 494.65 391.74 494.76 391.55 493.88 391.03"/><polygon class="cls-7" points="490.33 389.9 489.59 392.54 490.56 392.81 491.32 390.16 491.37 389.97 490.39 389.7 490.33 389.9"/><rect class="cls-4" x="332.48" y="65.03" width="92.49" height="10.19"/><path class="cls-4" d="M371,62.35A40.4,40.4,0,1,1,330.65,22,40.4,40.4,0,0,1,371,62.35Z"/><polygon class="cls-7" points="328.65 66.04 315.61 61.51 315.41 62.23 328.44 66.76 328.65 66.04"/><path class="cls-7" d="M354,61.86h0l1.57-1.14,1.5-1.09-1.5-1.1-.8-.58-.46,1.76-.61,2.37-.76.55h0l.83-3,.55-2,1.4-5.07-11.38-2.2L342.53,49l1.75-5.12L339,42.13l-.05.15h0l-1.15,3.33-.37-.27L333,42.08h0l-4.46,3.25-.66.48-.5-.19.57-.28L326.3,40.4l-.44-1.32-7.89,1h0L311,44l.44,1.32,1.61,4.93,1.68-.29-1.87,6.78-.81,2.93-.54,1.94-.41-.31.41-1.63.81-2.53-.76.55-2.07,1.51-.65.47V88h48.24V59.63Zm2.16-.44V87.1L338.35,74.39ZM337.77,74.16l-3-2.15.63-.87,4.56,1-2.52,1.83.33.24Zm-7.24-20.5c.05-.1.2-.56.25-.65h0a1.11,1.11,0,0,0,.45.11,1.31,1.31,0,0,0,.44-.07s0,0,0,0c.3.73.73,2.08.81,2.29v0a.23.23,0,0,1-.22.24h0a.23.23,0,0,1-.21-.18l-.7,0a.24.24,0,0,1-.22.16.22.22,0,0,1-.22-.19l-.71,0a.22.22,0,0,1-.21.17.27.27,0,0,1-.17-.07.27.27,0,0,1-.06-.17l0-.07C329.89,55.05,330.22,54.35,330.53,53.66Zm5.93-4.12-3.72,10.89V60.3l3-10.89Zm-6.69,6.67.23,0h0a1,1,0,0,0,.58-.18.93.93,0,0,0,.57.22h0a1.06,1.06,0,0,0,.57-.17,1,1,0,0,0,.57.2h0a.82.82,0,0,0,.22,0l-.41,12.21-2.88,3.93ZM344,58.76l0,0,0,.06-.54.6-.83-.62-.38-.27-1.2-.88.45-.75a.6.6,0,0,1,.29-.18l.17,0a.45.45,0,0,1,.28.09l1.68,1.23A.52.52,0,0,1,344,58.76Zm-2.84-2-.44.6-.07.11h0l-.45.62,0,.05-.71-.15.64-1.86,1.56.32A.93.93,0,0,0,341.2,56.73Zm-1.49,2-.95,1.29.47-1.39Zm.48-.13,2.61,1.95L334.69,71.5,333,70.27l-2.66,1.91Zm-2.6,9.55,1.2-1.64L345.64,68l-2,1.47ZM342.8,70l-2,1.48-4.89-1,1.21-1.64Zm11.3-17.13L351,64.05l-4.56,3.31-7.18-1.49,1.21-1.64,7,1.46.2-.73L341,63.57l1.21-1.64,6,1.25.2-.72-5.74-1.2.46-.62.22-.3.45-.62h0a.34.34,0,0,0,.08-.09l5,1.05.2-.73-4.75-1a.89.89,0,0,0-.22-1.19l-.84-.62-.77-.56,7.1,1.47.2-.72-9.46-2,.68-2,8,1.76.22-.72-8-1.75.71-2.07Zm-16,8.09-5.62,7.66.07-2,.19-.57-.17-.07,0-1,.23.07.13-.37-.34-.11,0-1.18.66.23.13-.37-.78-.27v-.18l.3-.87,1.05.36.25-.75-1.05-.36.32-.94.83.28.13-.37-.83-.28.36-1.06.83.28.13-.38-.83-.28.35-1,1.05.36.26-.74-1.06-.36.35-1,.82.28.13-.37-.83-.29.37-1.06.82.28.13-.37-.83-.28.33-1,1,.36.26-.74-1.05-.36.32-1,.82.28.14-.37-.82-.28.35-1.06.83.28.13-.38-.83-.28.35-1,1.05.36.25-.74-1.05-.36.33-1,.83.28.12-.37-.82-.28.36-1.06.83.28.13-.37-.83-.29.34-1,1.05.35.25-.74-1.05-.36.12-.34,4.1,1.44ZM320.86,48.86l1.82-.91,8.5,2.85.18-.72-7.74-2.6L326.53,46l8.57,3.14.41.15h0l-2.72,9.86.12-3.77v0a.11.11,0,0,0,0,0v-.08s-.58-1.53-.92-2.33a4,4,0,0,0-.67-1.25h0c-.13,0-.44.52-.77,1.16l-10.84-3.77Zm-4.49.78,2.64-.46-.11.4,11.31,3.93c-.36.74-.73,1.59-.75,1.63h0s0,.08,0,.12v0l-11.06-3.85-.2.73,11.23,3.9L329.35,58,317.69,54l-.2.73,11.83,4.11-.07,1.94L317,56.49l-.2.72,12.44,4.32-.07,1.94L316.3,59l-.2.72,13,4.53-.28,8.13-.15-.06-4.82-1.77-6.93-5,10.8,3.75.2-.72-13-4.53h0l-2.09-1.52Zm-6.61,11.78,18.09,13h0l-18.09,13Zm1.93,25.68L333,71.84,354.26,87.1Z"/><polygon class="cls-7" points="309.49 58.06 308.7 56.29 308.7 55.69 308.48 55.69 308.45 45.58 311.03 45.32 310.45 43.77 317.86 39.75 326.21 38.64 326.71 40.16 332.57 36.69 317.13 37.51 304.2 46.01 307.66 45.66 307.69 55.69 307.47 55.69 307.47 56.23 306.69 58.23 307.32 58.48 307.73 57.45 307.73 58.63 308.41 58.63 308.41 57.31 308.87 58.33 309.49 58.06"/><path class="cls-1" d="M496.28,70.12a38.81,38.81,0,1,1-38.8-38.8A38.81,38.81,0,0,1,496.28,70.12Z"/><path class="cls-7" d="M471,49.64l-13.42-.09-13.42-.08,1.4,13.67,11,7L445.44,77l-1.57,13.66,13.42.08,13.42.09-1.39-13.67-11-7,11.08-6.84ZM458.28,67.57l0,13.62,10.3,7.6-22.44-.14,10.46-7.5.08-13.58L447.4,62l20.15.12Z"/><polygon class="cls-7" points="457.61 48.98 470.87 49.06 475.43 45.18 457.63 45.07 439.84 44.95 444.35 48.89 457.61 48.98"/><polygon class="cls-7" points="457.34 91.27 444.08 91.19 439.52 95.06 457.32 95.18 475.11 95.29 470.6 91.36 457.34 91.27"/><rect class="cls-5" x="176.52" y="244.25" width="33.39" height="10.19"/><path class="cls-5" d="M188.91,249.27a26.5,26.5,0,1,1-26.5-26.5A26.49,26.49,0,0,1,188.91,249.27Z"/><path class="cls-7" d="M169.58,241.36l.19.36a23.57,23.57,0,0,0,4.15-.24,11.11,11.11,0,0,0,2.84-.86L175,239.55l-9-5.36a15.42,15.42,0,0,0,1,2.44c.16.32.33.64.51,1l4.15,2.47c-.89,0-1.81,0-2.74,0Z"/><path class="cls-7" d="M166.18,241.56l-.72-1.23-.21-.36a24.09,24.09,0,0,0-3.73.19,11.62,11.62,0,0,0-2.94.8l1.86,1.11,8.52,5.06a16.6,16.6,0,0,0-1-2.48c-.16-.33-.34-.66-.53-1l-3.44-2c.74,0,1.5,0,2.27,0Z"/><path class="cls-7" d="M161.49,267.67l-1.61-1-10.74-6.38-.38.18a6.06,6.06,0,0,0-1.55,1.21l12.27,7.3a7.38,7.38,0,0,1-.64,1.38l1.41.83a10,10,0,0,0,.68-1.35A8.86,8.86,0,0,0,161.49,267.67Z"/><path class="cls-7" d="M152.91,259.5a13.42,13.42,0,0,0-2.51.38l9.37,5.57,1.76,1.06a10.34,10.34,0,0,0-.5-2.85,22.24,22.24,0,0,0-1.87-4.08h-.41l-1.51-.05c.55.93,1.06,1.86,1.49,2.77L154,259.46Z"/><path class="cls-7" d="M165.68,232.84l10.47,6.23,1.64,1a8.08,8.08,0,0,0,1.72-1.51,9.16,9.16,0,0,0,1-1.41l-1.41-.84a7.27,7.27,0,0,1-1.06,1.39l-12.19-7.25a5.83,5.83,0,0,0-.24,2C165.65,232.54,165.66,232.69,165.68,232.84Z"/><path class="cls-7" d="M160.78,256.56a16.94,16.94,0,0,0,2.68-.27l-8.44-5-1.87-1.11a11.3,11.3,0,0,0,.72,3,25.12,25.12,0,0,0,1.59,3.32h.41l1.43.05h.07c-.37-.64-.73-1.28-1.06-1.92l3.33,2Z"/><path class="cls-7" d="M165.32,255.73a6,6,0,0,0,1.68-1.07l-12-7.13-1.46-.88a8.22,8.22,0,0,0-.42,2.3l1.68,1,10.05,6C165,255.86,165.17,255.8,165.32,255.73Z"/><path class="cls-7" d="M155.37,246.43l12.43,7.39.06-.06a9,9,0,0,0,.53-.77,7.16,7.16,0,0,0,.47-1l0-.1-12.38-7.36-1.44-.85a10.64,10.64,0,0,0-1.12,1.87Z"/><path class="cls-7" d="M155.75,242.93l1.47.87,12,7.13a6.33,6.33,0,0,0,.13-2c0-.17,0-.34-.07-.51l-10-6-1.68-1A8.33,8.33,0,0,0,155.75,242.93Z"/><path class="cls-7" d="M166.06,240l.72,1.23.26.44c.53.9,1.05,1.8,1.5,2.69a15,15,0,0,1,1.28,3.3,7.45,7.45,0,0,1,.2,1.24,7.1,7.1,0,0,1-.18,2.42,8.43,8.43,0,0,1-.34,1,7.76,7.76,0,0,1-.52,1,6.25,6.25,0,0,1-.58.84,6.44,6.44,0,0,1-.78.86,7.05,7.05,0,0,1-2,1.33,7.59,7.59,0,0,1-1.27.43,14.75,14.75,0,0,1-3.52.45c-1,0-2,0-3,0l-.51,0-1.42-.05a24.9,24.9,0,0,0-5.29.3l-.39.08a8.74,8.74,0,0,0-5.89,4.22l1.41.84a7.4,7.4,0,0,1,.91-1.23,6.73,6.73,0,0,1,1.83-1.44,6.25,6.25,0,0,1,1.16-.5,12.31,12.31,0,0,1,3.28-.6c1.26-.08,2.6,0,4,0l.39,0,1.54.05a26.49,26.49,0,0,0,4.48-.18,11.27,11.27,0,0,0,2.95-.79,9.33,9.33,0,0,0,5.49-9.16,11.91,11.91,0,0,0-.7-3,27.05,27.05,0,0,0-2-4.08l-.78-1.33L168,240c-.62-1-1.21-2.08-1.72-3.11a14.06,14.06,0,0,1-1.17-3.24,7.85,7.85,0,0,1-.15-1.28,6.92,6.92,0,0,1,.31-2.36,7.92,7.92,0,0,1,.72-1.59l-1.41-.84C161.93,232.06,163.81,236.09,166.06,240Z"/><path class="cls-6" d="M102.21,439.25A36.56,36.56,0,1,1,65.65,402.7,36.56,36.56,0,0,1,102.21,439.25Z"/><path class="cls-7" d="M86.31,438l-1-5.34,3.18-2.15a24.64,24.64,0,0,0-3.34-6L81.6,426l-4-3.7,1.31-3.62a24.24,24.24,0,0,0-6.23-2.88l-1.91,3.34-5.39-.65-1.06-3.7a24.28,24.28,0,0,0-6.73,1.32L58,420l-4.75,2.66-3-2.37a24.55,24.55,0,0,0-4.67,5l2.59,2.85-2.29,4.94L42,433a24.91,24.91,0,0,0-.64,3.38,23.52,23.52,0,0,0-.17,3.44l3.76.78,1,5.34-3.19,2.16a24.61,24.61,0,0,0,3.35,6l3.5-1.58,4,3.71-1.32,3.61a23.94,23.94,0,0,0,6.23,2.89l1.9-3.34,5.4.64,1.06,3.7a24.36,24.36,0,0,0,6.73-1.32l-.42-3.83L78,455.88l3,2.36a24.23,24.23,0,0,0,4.66-5l-2.58-2.85,2.28-4.94,3.84.13a24.38,24.38,0,0,0,.82-6.81ZM64.09,452.27a13.11,13.11,0,1,1,14.56-11.45A13.11,13.11,0,0,1,64.09,452.27Z"/><path class="cls-7" d="M66.76,430a9.32,9.32,0,1,0,8.13,10.37A9.32,9.32,0,0,0,66.76,430Zm-1.57,13.11a3.88,3.88,0,1,1,4.3-3.39A3.87,3.87,0,0,1,65.19,443.11Z"/><path class="cls-2" d="M403.75,243.71a31.08,31.08,0,1,1-31.08-31.08A31.08,31.08,0,0,1,403.75,243.71Z"/><path class="cls-7" d="M373.51,264.33a24.43,24.43,0,0,0,8.4-9.56,29.46,29.46,0,0,0-8.4-1.42Z"/><path class="cls-7" d="M381.91,232.66a24.3,24.3,0,0,0-8.4-9.56v11A30.17,30.17,0,0,0,381.91,232.66Z"/><path class="cls-7" d="M360.74,244.55a24.42,24.42,0,0,0,1.9,8.72,31.32,31.32,0,0,1,9.19-1.6v-7.12Z"/><path class="cls-7" d="M373.51,251.67a31.74,31.74,0,0,1,9.09,1.56,25.14,25.14,0,0,0,1.81-8.68h-10.9Z"/><path class="cls-7" d="M371.83,235.75a31.73,31.73,0,0,1-9.25-1.61,24.94,24.94,0,0,0-1.84,8.73h11.09Z"/><path class="cls-7" d="M363.35,254.8a25,25,0,0,0,8.48,9.49V253.35A29.28,29.28,0,0,0,363.35,254.8Z"/><path class="cls-7" d="M371.83,223a24.38,24.38,0,0,0-8.56,9.63,30.2,30.2,0,0,0,8.56,1.48Z"/><path class="cls-7" d="M373.51,242.87h10.9a25.24,25.24,0,0,0-1.81-8.68,31.4,31.4,0,0,1-9.09,1.56Z"/><path class="cls-7" d="M383.51,232.1a28.75,28.75,0,0,0,5-2.56,21.22,21.22,0,0,0-12.69-6.85A25.9,25.9,0,0,1,383.51,232.1Z"/><path class="cls-7" d="M361.74,255.36a28.36,28.36,0,0,0-4.9,2.52,21.18,21.18,0,0,0,12.73,6.86A26.53,26.53,0,0,1,361.74,255.36Z"/><path class="cls-7" d="M361,233.57a29.46,29.46,0,0,1-5.22-2.73,21.11,21.11,0,0,0-4.34,12h7.63A27,27,0,0,1,361,233.57Z"/><path class="cls-7" d="M384.19,253.78a30.29,30.29,0,0,1,5.39,2.8,21.17,21.17,0,0,0,4.33-12h-7.82A26.57,26.57,0,0,1,384.19,253.78Z"/><path class="cls-7" d="M375.83,264.74a21.29,21.29,0,0,0,12.68-6.86,28.75,28.75,0,0,0-5-2.56A25.9,25.9,0,0,1,375.83,264.74Z"/><path class="cls-7" d="M359.06,244.55h-7.63a21.11,21.11,0,0,0,4.34,12,30.09,30.09,0,0,1,5.28-2.75A26.13,26.13,0,0,1,359.06,244.55Z"/><path class="cls-7" d="M369.26,222.73a21.26,21.26,0,0,0-12.42,6.81,28.28,28.28,0,0,0,4.83,2.49A26,26,0,0,1,369.26,222.73Z"/><path class="cls-7" d="M386.09,242.87h7.82a21.17,21.17,0,0,0-4.33-12,29.64,29.64,0,0,1-5.39,2.8A26.85,26.85,0,0,1,386.09,242.87Z"/><path class="cls-4" d="M267.09,271.23a29.45,29.45,0,1,1-29.45-29.44A29.44,29.44,0,0,1,267.09,271.23Z"/><path class="cls-7" d="M243.38,282.74a18.55,18.55,0,0,0-5.22-.89v6.82A15.11,15.11,0,0,0,243.38,282.74Z"/><path class="cls-7" d="M238.16,269.88a18.36,18.36,0,0,0,3-.32h-3Z"/><path class="cls-7" d="M231.41,281.8a19.77,19.77,0,0,1,5.71-1v-4.42h-6.89A15.16,15.16,0,0,0,231.41,281.8Z"/><path class="cls-7" d="M238.16,280.81a19.75,19.75,0,0,1,5.65,1,15.91,15.91,0,0,0,1.13-5.39h-6.78Z"/><path class="cls-7" d="M230.23,275.35h6.89v-4.42a20.06,20.06,0,0,1-5.75-1A15.63,15.63,0,0,0,230.23,275.35Z"/><path class="cls-7" d="M237.12,288.65v-6.8a18.9,18.9,0,0,0-5.27.9A15.45,15.45,0,0,0,237.12,288.65Z"/><path class="cls-7" d="M237.12,269.88v-.32h-3A18.24,18.24,0,0,0,237.12,269.88Z"/><path class="cls-7" d="M243.81,270a19.75,19.75,0,0,1-5.65,1v4.42h6.78A15.91,15.91,0,0,0,243.81,270Z"/><path class="cls-7" d="M230.85,283.1a18.46,18.46,0,0,0-3,1.56h0c.11.12.22.23.34.34l.27.29.64.58.26.23c.27.22.55.42.84.62l.13.09A13.49,13.49,0,0,0,232.5,288h0c.37.15.75.29,1.13.42l.17,0a9.68,9.68,0,0,0,1.06.27l.22.05.6.11,0,0A16.52,16.52,0,0,1,230.85,283.1Z"/><path class="cls-7" d="M225.49,270.73v0c-.16.39-.31.79-.44,1.2h0a13.6,13.6,0,0,0-.59,3.4h4.74a16.88,16.88,0,0,1,1.19-5.78h-4.33A12.55,12.55,0,0,0,225.49,270.73Z"/><path class="cls-7" d="M246,276.39a16.93,16.93,0,0,1-1.18,5.74,18.76,18.76,0,0,1,3.33,1.72h0c.13-.16.24-.33.36-.5s.08-.1.11-.16a13.83,13.83,0,0,0,1.17-2.14.78.78,0,0,1,.05-.14c.15-.34.27-.7.39-1.06l0-.1a13,13,0,0,0,.58-3.37H246Z"/><path class="cls-7" d="M244.37,283.08a16,16,0,0,1-4.74,5.82l0,0,.55-.11.26-.05c.34-.07.67-.16,1-.26l.21-.06c.36-.12.72-.25,1.07-.39l.1,0a13,13,0,0,0,2.2-1.2l.12-.09a10.1,10.1,0,0,0,.84-.62l.27-.23c.21-.19.43-.38.63-.58a3.83,3.83,0,0,0,.28-.29c.11-.11.23-.22.34-.34h0A17.31,17.31,0,0,0,244.37,283.08Z"/><path class="cls-7" d="M229.19,276.39h-4.74a13.44,13.44,0,0,0,.58,3.37l0,.09c.12.37.25.73.4,1.08a1.12,1.12,0,0,0,0,.13,13.4,13.4,0,0,0,1.16,2.14l.13.17c.11.17.22.33.34.49h0a19.52,19.52,0,0,1,3.27-1.7A16.13,16.13,0,0,1,229.19,276.39Z"/><path class="cls-7" d="M250.24,272a12.26,12.26,0,0,0-.44-1.2v0a12.47,12.47,0,0,0-.55-1.17h-4.33l-.11.05a16.93,16.93,0,0,1,1.18,5.74h4.85a12.75,12.75,0,0,0-.59-3.4Z"/><path class="cls-7" d="M222.27,275.82H222V261l4.1.91v7.06h23.19v-7.06l10.55-2.33-22.15-6-22.15,6,5.28,1.16v15.13h-.32v.7l-1.64,4,.59.24,1.1-2.7-.55,2.83.64.12.47-2.44v2.48h.65V278.6l.47,2.45.64-.12-.5-2.58,1,2.45.59-.24-1.64-4Zm3.78-16,11.59-2.22,11.6,2.22v.65l-11.6-2.22-11.59,2.22Z"/><polygon class="cls-4" points="540.25 246.92 414.37 244.57 414.56 234.38 530.06 236.54 530.06 158.78 540.25 158.78 540.25 246.92"/><path class="cls-3" d="M587.6,293.85A62.82,62.82,0,1,1,524.79,231,62.82,62.82,0,0,1,587.6,293.85Z"/><path class="cls-5" d="M242,407.72A62.82,62.82,0,1,1,179.2,344.9,62.82,62.82,0,0,1,242,407.72Z"/><rect class="cls-4" x="267.09" y="266.14" width="66.07" height="10.19"/><path class="cls-4" d="M580.94,158.78A45.79,45.79,0,1,1,535.15,113,45.8,45.8,0,0,1,580.94,158.78Z"/><path class="cls-7" d="M557.3,152.66c.59-1.18,1.14-2.34,1.59-3.48,2.74-6.85,2.6-12.15-.41-14.91a7.71,7.71,0,0,0-5.42-1.89c-3.43,0-7.7,1.53-12.27,4.25-4.26-7-9.11-11.26-13.46-11.26a6.53,6.53,0,0,0-1.81.25c-3.93,1.11-6.45,5.77-7.1,13.12,0,.17,0,.34,0,.51a5.85,5.85,0,0,1,3.44.08c0-.09,0-.19,0-.29.5-5.65,2.22-9.43,4.61-10.11a3.15,3.15,0,0,1,.87-.12c2.85,0,6.81,3.49,10.55,9.66a71.65,71.65,0,0,0-7.51,6c-1.38-.18-2.74-.31-4.07-.41a6.7,6.7,0,0,1,.19,1.5,6.52,6.52,0,0,1-.33,1.94l1,.09c-.8.8-1.59,1.63-2.38,2.48s-1.48,1.65-2.19,2.48c-.06-.32-.09-.63-.13-.95a6.62,6.62,0,0,1-2.43.48,6.39,6.39,0,0,1-1-.1c.2,1.36.42,2.73.7,4.12a72,72,0,0,0-5,7.45c-1.09-.59-2.13-1.19-3.08-1.82-4.74-3.13-7.25-6.44-6.7-8.86s3.92-4.14,9-5a6.54,6.54,0,0,1-.44-2.31,6.32,6.32,0,0,1,.12-1.15c-6.83,1.12-11.18,3.83-12.05,7.71s2,8.42,8.16,12.49c1,.68,2.16,1.33,3.34,2-.6,1.19-1.16,2.38-1.62,3.52-2.74,6.86-2.59,12.16.42,14.92a7.73,7.73,0,0,0,5.42,1.89,22.3,22.3,0,0,0,9.55-2.74,6.64,6.64,0,0,1-2.94-2.45,16.88,16.88,0,0,1-6.61,1.75,4.49,4.49,0,0,1-3.09-1c-1.83-1.68-1.66-5.83.45-11.11.42-1.06.94-2.14,1.49-3.25a71,71,0,0,0,8.11,3.18c.27.67.55,1.32.83,2a6.76,6.76,0,0,1,1.82-1.15,6.84,6.84,0,0,1,1.27-.36,5.81,5.81,0,0,1,1.17-.12,6.47,6.47,0,0,1,4.89,2.25l1.27.25-.66.54a6.53,6.53,0,0,1,1,3.47c0,.06,0,.12,0,.18q2.07-1.62,4.14-3.49a70.09,70.09,0,0,0,8.12.59c0,1.07,0,2.12-.14,3.11-.5,5.66-2.22,9.44-4.61,10.11a3.1,3.1,0,0,1-.87.12c-2.28,0-5.27-2.25-8.29-6.3a6.6,6.6,0,0,1-2.91,1.87c3.66,4.94,7.6,7.87,11.2,7.87a6.81,6.81,0,0,0,1.81-.24c3.93-1.12,6.46-5.78,7.1-13.13.1-1.1.14-2.25.15-3.43,9.81-.43,16.21-3.43,17.28-8.22S565.35,157,557.3,152.66Zm-17.71-11.14c.84,1.61,1.66,3.35,2.44,5.23q-1.85-.5-3.78-.93c-1.13-.26-2.27-.47-3.4-.67C536.44,143.82,538,142.6,539.59,141.52Zm-21.84,23.56c.88-1.51,1.87-3,3-4.57.17.7.35,1.41.55,2.12.44,1.54.91,3,1.41,4.48C521,166.48,519.3,165.8,517.75,165.08Zm15.06,5c-2-.46-4-1-6-1.58-.81-2.13-1.57-4.4-2.25-6.82-.46-1.6-.84-3.19-1.19-4.77q1.83-2.29,3.88-4.53t4.25-4.29c2,.29,4,.63,6,1.08s4,1,5.79,1.52a5.9,5.9,0,0,1,.06-.59,6.49,6.49,0,0,1,2.08-4.19,69.2,69.2,0,0,0-2.92-6.28c4-2.42,7.75-3.82,10.56-3.82a4.4,4.4,0,0,1,3.08,1c1.83,1.68,1.66,5.83-.45,11.1,0,0,0,0,0,0a6.4,6.4,0,0,1,.64,2.76,6.41,6.41,0,0,1-1.76,4.43,6.5,6.5,0,0,1-3.83,2c-.38.58-.79,1.16-1.2,1.74l-.42-1.72a6.46,6.46,0,0,1-4.17-2.16c.09.29.18.57.26.87.64,2.24,1.16,4.47,1.59,6.65-1.18,1.47-2.42,2.93-3.74,4.36s-2.82,2.94-4.26,4.29C536.8,170.88,534.81,170.53,532.81,170.09Zm10.38,1.61c.8-.81,1.6-1.63,2.38-2.48s1.31-1.46,1.95-2.2c.22,1.7.38,3.35.46,4.95C546.43,171.94,544.83,171.85,543.19,171.7Zm22.23-5.29c-.68,3-6.19,5.16-14,5.53a69.91,69.91,0,0,0-1-8.52,70.84,70.84,0,0,0,5.2-7.69C562.41,159.41,566.07,163.49,565.42,166.41Z"/><path class="cls-7" d="M518.78,150.56a5,5,0,0,0,3.43-.37,5.27,5.27,0,0,0,2.94-4.65,5.1,5.1,0,0,0-.29-1.61,5.16,5.16,0,0,0-3.1-3.22,4.81,4.81,0,0,0-3.45,0A5.2,5.2,0,0,0,515,144.2a5.35,5.35,0,0,0-.19,1.34,5.07,5.07,0,0,0,.45,2.1A5.16,5.16,0,0,0,518.78,150.56Z"/><path class="cls-7" d="M533.33,181.33a5.4,5.4,0,0,0,1.14-3.2A5.23,5.23,0,0,0,529.3,173c-.2,0-.4,0-.6.06a5.16,5.16,0,0,0-4.57,5.11,5,5,0,0,0,1,3,5.1,5.1,0,0,0,3.42,2.11,5.16,5.16,0,0,0,.78.08,5.29,5.29,0,0,0,1.13-.13A5.13,5.13,0,0,0,533.33,181.33Z"/><path class="cls-7" d="M548.73,155.77a5.32,5.32,0,0,0,1.07.11,5.16,5.16,0,0,0,5.09-4.45,4.29,4.29,0,0,0,.08-.72,4.81,4.81,0,0,0-.1-.93,5.14,5.14,0,0,0-8.92-2.49,4.74,4.74,0,0,0-.4.49,5.1,5.1,0,0,0-.92,2.93c0,.15,0,.28,0,.42A5.15,5.15,0,0,0,548.73,155.77Z"/><path class="cls-7" d="M535.16,152.32a7.32,7.32,0,1,0,7.32,7.32A7.33,7.33,0,0,0,535.16,152.32Z"/><path class="cls-3" d="M536.47,506.47a26,26,0,1,1-26-26A26,26,0,0,1,536.47,506.47Z"/><polygon class="cls-7" points="506.18 506.58 493.35 496.82 493.35 516.33 506.18 506.58"/><path class="cls-7" d="M511.44,507.76l15.88-12.5a1.26,1.26,0,0,0-.93-.41H494.64a1.3,1.3,0,0,0-1,.45l16.41,12.47A1.22,1.22,0,0,0,511.44,507.76Z"/><path class="cls-7" d="M512.31,508.86a2.51,2.51,0,0,1-1.56.52,2.47,2.47,0,0,1-1.52-.49l-1.89-1.43-13.56,10.31a1.3,1.3,0,0,0,.86.32h31.75a1.29,1.29,0,0,0,.81-.29l-13.13-10.32Z"/><polygon class="cls-7" points="527.68 516.39 527.68 496.77 515.22 506.58 527.68 516.39"/><rect class="cls-3" x="505.39" y="455.85" width="10.19" height="32.5"/><path class="cls-7" d="M180,417.48c-.9,1.58-2.25,1.15-3.39,1.16-5,0-10,0-14.93,0h-3.92c-.56,1.19-1.11,2.32-1.85,3.88a27.43,27.43,0,0,0,3.15.39c5.83,0,11.66,0,17.49,0,1.17,0,2.34.1,3.64.16l-.09,2.12c-8.6,0-17.06,0-25.52,0a5.93,5.93,0,0,1-1.78-.68c.63-1.84,1.21-3.52,1.85-5.41-3.84-1.36-8.13.86-11.61-1.71a10.3,10.3,0,0,1-2.16-6.78c.09-9.95,0-19.91,0-29.87,0-2.92.61-5.53,3.51-7.29,2.81-.09,5.75-.35,8.77-.28,11.53.27,23.07.11,34.6.11a1.53,1.53,0,0,0,.37,0c3.49-1,6.94-.54,10.78.38,2.1,1,3,3.25,3.14,5.76.16,3.27.05,6.55,0,9.83,0,1-.2,1.94-1.44,2.3-1.48-.43-1.44-1.68-1.44-2.9,0-2.91,0-5.83,0-8.74,0-1.18-.12-2.36-.2-3.86a26.51,26.51,0,0,0-3.37-.44q-24.23,0-48.44,0a27.63,27.63,0,0,0-2.8.31,14.34,14.34,0,0,0-.56,2.74c0,11.29,0,22.58,0,33.87a3.68,3.68,0,0,0,2.33,3.83h9.72c6.8,0,13.6,0,20.4,0C177.49,416.39,179,415.89,180,417.48Z"/><path class="cls-7" d="M200.68,393.84v6.61l3.08,2c2.4,4.65,1.38,7.07-3.71,8.91a6.57,6.57,0,0,1-5-3.25c-1-3.4.55-5.75,3.26-7.51v-4.42c-4.34-.23-8.55-.05-12.64-.1-1.18,1.35-2.27,2.61-2.87,3.31-3.13.63-5.25.47-7.17-1l-8.95,5.35-.43,4.19-2.92,2.39c-4.21.57-5.7-.42-7.13-4.71.83-2.91.83-2.91,3.26-4.95,2.93-.36,2.93-.36,6.16,1l8.6-5.2c.28-1.77-.57-2.23-1.74-2.59-3.57-1.11-7.12-2.29-10.48-3.38l-3.93,2.52c-3.61-.46-5.57-2.29-6.31-5.77l1.13-3,4-2.07c3.41.69,5.22,2.66,5.53,5.94L174.64,392l4.18-2.55c3.4.14,5,2.19,6.52,4.42Zm2.41,12.22c-1.14-2.12-2.25-3.23-4.07-2.55s-2.32,2-1.6,4.13l2.85,1.61Zm-44.6-.84c.63,2.13,1.73,3,3.55,3,1.63-.76,2.62-1.94,1.93-3.73s-2.05-2.29-4.06-1.56Zm20.76-13.68-2.7,2.93,1.85,3,3.75-.47v-3.91Zm-23.51-1.41,3.84-.38v-3.92l-2.79-1.42-2.68,3.07C154.74,388.5,155.17,389.19,155.74,390.13Z"/><path class="cls-7" d="M181.69,440.58l-.23,1.92h-39l-2.31-3c2.07-3.83,4.08-7.53,6.09-11.23H180l.31,1.6c-2.69,1-5.36.38-8,.49-2.78.11-5.58,0-8.37,0h-16c-1.54,3.3-3.87,6-4.86,9.28,1.28,1.18,2.55.77,3.7.77,10.31,0,20.63,0,30.94,0C179,440.42,180.25,440.52,181.69,440.58Z"/><path class="cls-7" d="M181.69,411.13c1.63-3.88,5.76-5.85,11.33-5.41l.38,1.36c-3.05,1.46-6.77,1.13-9.22,3.8,6.14,4.68,25.12,4.64,30.81,0-1.44-1.66-1.44-1.66-8.26-3.67,0-.29-.11-.62-.14-1a1,1,0,0,1,.13-.33A11.22,11.22,0,0,1,218,410.42c-.45,3.74-3.7,4.51-6.34,5a56.66,56.66,0,0,1-23.73,0C185.42,414.88,183,413.94,181.69,411.13Z"/><path class="cls-7" d="M146.87,437.16l2.43-3.81h27.09l.22,3.52C173.94,437.69,151.65,437.89,146.87,437.16Z"/><path class="cls-7" d="M216.77,431.48a56.09,56.09,0,0,1-33.39.2c-2.15-3.66-2.22-5.21-.56-7.67,1.91,1,.77,2.85,1.6,4.86a9.08,9.08,0,0,0,2.47,1.28,49.85,49.85,0,0,0,15.81,1.47c4.15-.38,8.39-.54,12.06-2.24,1-1.72-.28-3.84,1.7-4.86C218.7,426.1,218.73,426.46,216.77,431.48Z"/><path class="cls-7" d="M183,440c-1.56-2.39-1.93-4.69-.45-7.31,2.29,1.06,1,3.15,1.66,4.52,5,4,23.26,4.49,30.71.7.89-1.37-.43-3.5,1.47-4.56,2.3,1.36,2.34,1.76.65,6.34C211.25,443.54,191,443.9,183,440Z"/><path class="cls-7" d="M183,422.43c-1.59-2.06-1.49-4.17-1.09-6.48l1.73-.29.53,4c1.08,2.24,3.45,2.11,5.33,2.37,3.93.55,7.93.67,11.9.85,4.51.22,8.81-1,12.93-1.77,1.76-1.59-.11-4.23,2.13-5.36,2.19,1.57,2.29,2.78.53,6.43C212.28,426.18,189.29,426.33,183,422.43Z"/><path class="cls-7" d="M262.84,145.25v52.4c1.24,0,2.38.12,3.51.12q18,0,36.09,0c1.06,0,2.37-.47,3.13,1-1.51,1.79-3.67.4-5.66,1.35-.08,1.86-.17,3.92-.26,6.11a13.06,13.06,0,0,1-2.35.48q-20.43,0-40.88,0a10.86,10.86,0,0,1-1.9-.28,3.86,3.86,0,0,1-.42-.44.67.67,0,0,1-.14-.28c-.08-.84-.21-1.68-.21-2.52q0-25.87,0-51.74a1.67,1.67,0,0,1,.16-.61c.09-.19.23-.35.57-.87l6-.33.35-6.68a35.64,35.64,0,0,1,4.17-.46c9,0,18.08.15,27.12.21,1.62,0,3.21,0,4.87,1.61,2,2.37.29,5.79,1.13,9,3,1.07,6.59-.86,9.61,1.68a7.3,7.3,0,0,1,.46,7.12c-2.18-1.19-1.08-3.17-1.58-4.62s-1.79-1.92-3.31-1.88c-2.33.06-4.65,0-7.27,0v-8.45c-.83-1.8-1.7-2.43-3-2.43-9.79,0-19.58.05-29.37.08C263.46,144.87,263.28,145,262.84,145.25Zm-2.14,6.85h-4.16c-.54,4.64-.35,50.11.21,52.51h40.84c.18-1.68.47-3.2-.3-4.82H285.13c-4.05,0-8.09,0-12.13,0s-8,.15-12.3-.15Z"/><path class="cls-7" d="M306.14,167.79c-2.86-1.16-3.06-1.73-1.53-5.1,3.69.06,7.54-.28,11.72.29v18.44c6.65,4.6,6.48,8.37,5.45,12.39-.9,3.49-5.16,6.07-8.92,6a8.88,8.88,0,0,1-8.44-6.14c-1.66-4.66,0-8.29,5.29-11.93v-9.17l-3.48-.45c0-1.44-.07-2.88-.1-4.31l1.47-.11-.1-.39Zm3.19-2.56-2.62-.62-.07.61h2.7a4.65,4.65,0,0,1,.42,4.15l-1.29.67,3.28.74v9.6c.95.74,1.57,1.22,2.27,1.78-.82,1.29-2,1.4-3.08,1.69-2.83.73-4.51,3-4.8,6.05a6.67,6.67,0,0,0,4.08,7.2c3.34,1.49,5.94.68,9-2.59,2-5.58,1.21-7.58-4.78-11.71V165.23Z"/><path class="cls-7" d="M275.75,179.58c-.53-4.81-.19-9.53-.27-14.3l2.75-1.06,1.28-3.38c2.57-1.5,2.57-1.5,5.64-1.25,2.23,1.7,2.23,1.7,3.32,4.58l2.26.86v14.54c-2.54.87-5.1.43-7.59.39S278.32,180.64,275.75,179.58Zm2.45-2c3.42.62,8.23.55,10.63-.19,0-1.74,0-3.54,0-5.33s-.05-3.54-.08-5.31H278.2Zm8.07-13.23c-.6-2.28-1.83-3.09-3.9-2.86-.95.6-1.93,1.21-1.53,2.86Z"/><path class="cls-7" d="M267.54,158.58l-2.23-2.27v-7.78l2.13-2.06,3.71.81c2.39,3.4,1.55,6.53.89,10Zm-.35-9.65c0,1.57,0,2.72,0,3.86,0,.93.1,1.86.14,2.57,1,1,1.85,1,2.78.07a13.16,13.16,0,0,0-.29-6.5Z"/><path class="cls-7" d="M281.41,195.23h-2.82c-2.93-2.52-3.43-6-1.52-10.12,2.05-1.33,2.05-1.33,4.36-1.18C284.79,186.94,284.87,191.84,281.41,195.23Zm-1.66-9.72-1.7,1.5c.27,2.45-.61,4.57,1.36,6.37l2.23-.66V187.1Z"/><path class="cls-7" d="M289.57,146.8l1.93,1.89c0,2.14.08,4.05,0,5.95-.11,2.37-1.41,3.61-3.57,3.61s-3.4-1.25-3.55-3.64c-.08-1.16,0-2.33,0-3.5C284.41,147.63,285.39,146.72,289.57,146.8Zm-.36,9.28c.31-2.72.65-4.88-.3-7.3l-2.37.32v6.77Z"/><path class="cls-7" d="M271.16,195.66c-2.17-2.67-1.3-5.17-1.08-7.69l-1.73.88-.93-.75c2.07-3,2.31-3.22,4.72-3.54a76.61,76.61,0,0,1,.06,9.09C272.18,194.19,271.67,194.71,271.16,195.66Z"/><path class="cls-7" d="M291.27,184.37v10.51l-1.09.42c-.26-.34-.59-.58-.59-.82,0-2.12,0-4.23,0-6.52l-2.53,1a6.42,6.42,0,0,1,.34-2C288.11,185.72,289.28,185,291.27,184.37Z"/><path class="cls-7" d="M275.11,150.86c1.44-1.71,2.27-3.3,4.44-3.56a6.4,6.4,0,0,1,.41,1.55c0,2.53,0,5.06,0,7.58,0,.85,0,1.74-1.46,1.69-1.21-2.21-.11-4.7-.68-7l-1.54.74Z"/><path class="cls-7" d="M316.4,194.89c-5.78,2-8.95-.26-8-5.63,3.95,2.88,5.75,3.13,9.36-.13C318.63,191.79,318.56,192.1,316.4,194.89Z"/><path class="cls-7" d="M283.06,175.69c-1-2.17-.51-3.9-.57-5.74l1.58-.19C284.42,171.77,285.13,173.67,283.06,175.69Z"/><path class="cls-7" d="M102.19,138.23c.68-.19,1.35-.42,2-.57a6.67,6.67,0,0,1,8.21,5.11c.13.52.27,1,.38,1.44-.44,4.4-2.76,6.86-7.38,7.35a17.1,17.1,0,0,1-2.76-.84c-5.25-2.56-4.66-9.76-1.08-12a4.07,4.07,0,0,0,.58-.52Zm5.89,1.29c-4.26-.41-6.27.49-7.23,3s-.14,4.46,2.92,6.83h4.16c.89-.93,1.91-2,2.72-2.81v-4.4Z"/><path class="cls-7" d="M84.44,122.23a6.63,6.63,0,0,1,6.84-7,6.94,6.94,0,0,1,7.06,7.22,6.73,6.73,0,0,1-7.13,6.71A6.66,6.66,0,0,1,84.44,122.23Zm11.73,2.22c0-.64.12-1.35.12-2,0-3.26-1.56-5-4.73-5.27a5.2,5.2,0,0,0-.74,10.37C93.29,127.69,94.81,126.34,96.17,124.45Z"/><path class="cls-7" d="M120.9,129.18a7,7,0,0,1-.28-13.91,7,7,0,0,1,7.23,7.08C128,125.69,125,129.68,120.9,129.18ZM121,117l-2.49.59c-3,2.07-3.34,4.34-2.55,6.71a5.17,5.17,0,0,0,5.31,3.21c2.58-.14,3.93-1.52,5-5C125.05,118.33,124.86,118.13,121,117Z"/><path class="cls-7" d="M81.32,139.13c3,3.47,2.88,7.47-.11,10.64-.49.25-1.1.64-1.75.91-.81.35-1.66.61-2.44.88-4-.33-6.64-2.27-7.38-6.19a6.54,6.54,0,0,1,3-6.71C75.53,136.57,78.47,137.27,81.32,139.13Zm-10.14,5.32c1.34,4.3,3.09,5.6,6.58,5a5.26,5.26,0,0,0,4-4.94c-.11-2.54-1.75-4.87-4.12-5.12C74.89,139.07,72.26,139.2,71.18,144.45Z"/><path class="cls-7" d="M113.44,100.09c-.67,4.93-4.56,7.46-8,7.08-3.11-.35-6.31-3.71-6-7,.29-3.5,2.67-6.59,6-7C109.29,92.7,112,95,113.44,100.09Zm-2.14.15a5.09,5.09,0,1,0-5.22,5.24A5.06,5.06,0,0,0,111.3,100.24Z"/><path class="cls-7" d="M96.64,112.32c1.51-2.15,2.26-4.59,4.32-6.23,1,.59.83,1.36.39,2.06-1,1.64-2.16,3.23-3.35,5Z"/><path class="cls-7" d="M99.51,135.56l-3.89-6.16.82-.86c.32.13.54.14.63.26,1.45,1.93,3.18,3.73,3.62,6.39l-1.2.36Z"/><path class="cls-7" d="M115.19,113.21c-2.38-1.7-3.08-3.89-4.24-5.73-.19-.29,0-.79,0-1.64,2.41,1.46,3.09,3.74,4.34,5.54C115.47,111.68,115.24,112.27,115.19,113.21Z"/><path class="cls-7" d="M86.5,128.76a3.5,3.5,0,0,1,0,1.21,18.06,18.06,0,0,1-4,5.45c-.21-.37-.65-.84-.55-1a22.26,22.26,0,0,1,3.91-5.85Z"/><path class="cls-7" d="M99.49,135.55l.75.52c1.23-.27.68-2.54,2.55-1.91.46,1.45-.41,2.72-.6,4.07h0c-1.34-.62-3.11-.09-4.18-1.32a1.37,1.37,0,0,1,1.51-1.36Z"/><path class="cls-7" d="M95.24,111l1.51,2.43c.75.57,2.35-.55,2.8,1.26a4.94,4.94,0,0,1-4.06.9C95,114.26,94.22,113,95.24,111Z"/><path class="cls-7" d="M81.9,136h2.44c-.08,2.49-2.3,1.34-3.12,2.27-2-2.1-2.07-3.2-.44-4.33Z"/><path class="cls-7" d="M117.43,111.55a3.71,3.71,0,0,1-.63,4.14,4.83,4.83,0,0,1-3.87-1.43c.84-1.2,1.92-.52,2.89-.51C116.34,113.06,115.87,111.68,117.43,111.55Z"/><path class="cls-7" d="M104.66,141H107c.54.69,1.2,1.52,2.13,2.68a3.71,3.71,0,0,1-.78,3.09c-3,1.83-3.93,1.59-6.06-1.5C102,143.37,103.17,142.18,104.66,141Z"/><path class="cls-7" d="M92.66,119c2.26,1.85,2.81,3.5,1.76,5.19s-3.19,2.05-6,.63l-.89-3.69c.77-.83,1.36-1.47,2-2.13Z"/><path class="cls-7" d="M120.89,125.9a4.08,4.08,0,0,1-3.55-4l1-2.1c2.57-1.36,3.45-1.21,5.84,1.18-.14,1-.31,2.29-.47,3.44Z"/><path class="cls-7" d="M76,148l-2.67-1.75v-3.67l2.71-1.71c2.82.83,2.82.83,4,3.1C79.86,146.15,78.72,147.51,76,148Z"/><path class="cls-7" d="M102.63,100.07l1-2.15,2.34-1.21c2.19.08,3.29,1.28,3.81,3.48l-.8,2.42C105.34,104.33,104.11,103.86,102.63,100.07Z"/><path class="cls-7" d="M488.27,294.06a23.53,23.53,0,0,1,1.69-2.68c7.85-9.43,17.26-16.59,29.65-18.61a35.32,35.32,0,0,1,19.89,2.79,51.36,51.36,0,0,1,14.78,9.94c2.64,2.49,5.37,5.16,7,8.74a52,52,0,0,1-16.42,15.32,49.06,49.06,0,0,1-11.91,5.05,33.27,33.27,0,0,1-16.26,0c-7.74-1.79-14.22-5.93-20.12-11A36,36,0,0,1,488.27,294.06Zm2.74,0a51.46,51.46,0,0,0,15.72,14.11,39.51,39.51,0,0,0,15.15,5.14c5.32.64,10.46-.6,15.41-2.51A46.3,46.3,0,0,0,551.51,302a34.25,34.25,0,0,0,7.06-8.1,49.11,49.11,0,0,0-21.29-16.82A30.09,30.09,0,0,0,520.44,275C508.2,277.2,498.45,283.62,491,294.07Z"/><path class="cls-7" d="M487.07,326.73c.41-3.18,1.81-5.1,5.65-5.33L495,322l10.23-10,1.77,1.48c-3.18,3.57-6.66,6.67-10,10.24.66,1.92,1.15,4.06-.44,5.81a7.84,7.84,0,0,1-3.1,2.14C490.71,332.54,488.38,330.65,487.07,326.73Zm2.15-.67c.75,1.9,1.36,3.26,3.19,3.52,1.63-.46,2.4-1.64,2.8-3.65l-2.93-2.69Z"/><path class="cls-7" d="M547.72,261.55l-3,1.95-3.79-.68-8.73,8.56-1.75-1.63L539.1,261c-.14-.68-.24-1.24-.36-1.79s-.24-.89-.31-1.17a5.4,5.4,0,0,1,5.13-5.08C549,254.43,550.2,256.79,547.72,261.55Zm-4.06-6.84c-1.27,1.36-2.15,2.32-3.29,3.55l2.9,2.87c2.07-.5,3.11-1.42,3.28-3.56Z"/><path class="cls-7" d="M559.73,256.68l2.89,2.82-.91,4.95c-2.42,2.23-4.69,2.32-7.27,1.77-1.72,1.7-3.42,3.47-5.23,5.11-1.65,1.5-2.84,3.67-5.14,4.23-1.15-1.26-.53-2,.14-2.7,1.81-1.85,3.61-3.7,5.48-5.47a30.34,30.34,0,0,1,2.59-2.07c.42-3-.52-5.57,1.43-7.5C555.18,256.45,557,256.12,559.73,256.68ZM559,259c-2-.85-3.18-.23-4.3,1.6.08.8.19,1.9.29,2.86,3.58,1,3.7.94,5.3-2C559.84,260.66,559.35,259.76,559,259Z"/><path class="cls-7" d="M518,316l1.59,1.87c-1.58,1.59-3,3.09-4.53,4.55s-3,2.92-4.41,4.25c.63,3.76.63,3.79-.89,6.62-3.32,1.94-4,2-7.38.07-1.45-2.58-1.45-2.58-1.09-6.09,1.8-2.69,4.39-3,7.72-2.06,1.33-1.41,2.76-3,4.23-4.47S516.19,317.77,518,316Zm-11.9,10.94a2.76,2.76,0,1,0,2.69,2.65A2.81,2.81,0,0,0,506.08,326.93Z"/><path class="cls-7" d="M561.81,280.43l-3.95-.49-4,2.76c-.5-.54-.81-.86-1.21-1.28l3-3.28c-.42-1.91-.74-3.94.49-5.88,1.07-1.69,2.82-1.88,4.43-2.47,2.38.75,4.32,1.89,4.8,4.55C565.94,277.28,563.91,278.73,561.81,280.43Zm-4.33-5.51a3.48,3.48,0,0,0,3.18,3.19l2.48-1.64c-.15-1.23-.29-2.31-.42-3.26C559.37,272.39,559.37,272.39,557.48,274.92Z"/><path class="cls-7" d="M493.77,310.46c.85,4.71,0,6.27-4.37,7.76-3.19-.77-3.19-.77-5.12-3.19-.38-2.09-.37-4.14,1.2-5.92a5.75,5.75,0,0,1,6-.87c1.65-.61,2.16-2.85,4.36-2.3C496.75,308.08,494.45,308.6,493.77,310.46Zm-1.72,2.69c-.52-1-1.05-2-1.44-2.72-2.12-.8-3.28-.08-4.32,1.76.12.81.28,1.9.42,2.83C489.09,316,490.71,315.69,492.05,313.15Z"/><path class="cls-7" d="M538.51,293.86c.83,8.29-7.59,14.23-13.89,14.08a14.44,14.44,0,0,1-13.82-14c-.27-6.7,6.95-13.79,14-13.84C531.93,280,539.46,287.19,538.51,293.86Zm-2.22.19c.33-6.27-5.2-11.72-11.49-11.58-6.59.14-11.68,4.95-11.65,11.5a11.57,11.57,0,0,0,11.56,11.66A11.36,11.36,0,0,0,536.29,294.05Z"/><path class="cls-7" d="M541.71,307c-1.39-.82-1-1.54-.66-2.33a28.71,28.71,0,0,0,2.17-4.77c1.41-5.11,1.33-10.13-1.41-14.91-.59-1-1.62-2.06-1-3.82.61.19,1.36.18,1.71.56a14.48,14.48,0,0,1,3.4,7.58c1,5.78.39,11.41-3,16.47A8.15,8.15,0,0,1,541.71,307Z"/><path class="cls-7" d="M508.76,305.6l-1.49.87a14.88,14.88,0,0,1-3.95-8.83c-.65-4.91-.16-9.76,2.53-14.17.63-1,1.16-2,2.95-1.4-1.44,3.86-3.38,7.46-3.43,11.58S506.79,301.62,508.76,305.6Z"/><path class="cls-7" d="M521.49,302.89c7.78-5.09,7.53-13.37.31-17.47,3.08-1.68,7.32-.82,10,2,3.37,3.62,3.31,8.11-.22,13.47C528.73,303,525.73,304.55,521.49,302.89Z"/><path class="cls-7" d="M239.62,98.62c-1.4.95-2.06.41-2.3-.41-1.63-5.44-2.52-10.83-.19-16.4a62.08,62.08,0,0,0,3.76-11.7c1.33-6.83-2.43-15.84-11-17.63-1.34-.28-2.66-.65-4.42-1.08,0,1.55,0,3-.05,4.4s0,3,0,4.57c2.46,1.49,4.09,3.41,3.32,6.6-1.91,3.17-3.38,4-5.79,3.23-2.63-.84-3.75-2.77-3.53-7l3.16-3.2.67.39V47.24h-13c-3.54,4.12-4.57,4.4-8.79,2l-8.55,4.9c-.17,4.22-1.55,6.21-4.39,6.6-2.61.35-4.53-1.3-5.6-4.8a6.12,6.12,0,0,1,3.67-5l5.52,1.13c1.06-.63,2.63-1.55,4.18-2.5s2.81-1.79,4.62-2.94c-4-3-8.52-3.23-12.33-5l-4.25,2.52a6.42,6.42,0,0,1-5-3.29V37.37c1-2.18,2.83-3,5.1-3.3l2.86,1.38c.69,1.31,1.42,2.73,2.21,4.24l10.9,3.61,4.5-2.67,3.53,1.56L210.22,45H224.9c.3,1.58.56,3,.82,4.35,1.84.36,3.65.57,5.37,1.08C241,53.36,244.75,63,243,71.58a78.66,78.66,0,0,1-3.94,12A15.6,15.6,0,0,0,238.54,94C239,95.51,239.26,97.07,239.62,98.62ZM224.25,68.49c2.08-1.12,2.92-2.23,2.25-3.95-.49-1.27-1.45-1.57-3.95-1.31l-1.4,2.86ZM185.32,41.43c.5-.94.9-1.71,1.32-2.49l-1.48-2.28-3.76.47c.1,1.54.18,2.7.28,4.14Zm21.26,6.79c1.22-1.56,1.2-2.9,0-4.57l-3.78.17c.08,1.62.14,2.87.19,4.09a10.59,10.59,0,0,0,1.7.41A16.39,16.39,0,0,0,206.58,48.22ZM187.87,58.68c2.31-1.5,3-3.07,1.85-4.68l-2.08-.81C184.67,55.61,184.72,56.59,187.87,58.68Z"/><path class="cls-7" d="M199.94,75.21H179.7c-1.13-2.47,1-4.15.83-6.21a44.81,44.81,0,0,1-5.68,0,33.07,33.07,0,0,1-4.74-1.21,6.29,6.29,0,0,1-1.93-4.87c0-10.56.07-21.12,0-31.67a5.41,5.41,0,0,1,3.64-5.5c.54,0,1.34-.1,2.14-.1h44.75a15.67,15.67,0,0,1,2.06,0,5.06,5.06,0,0,1,4.59,4.46c.2,4,.06,8,0,12,0,.37-.43.74-.64,1.07-1.43-.19-1.4-1.16-1.41-2.07,0-3,0-6,0-8.95,0-3.33-1-4.39-4.27-4.39q-22.89,0-45.78,0a15.48,15.48,0,0,0-1.54.21l-1.31,1.55V42c0,6.77,0,13.54,0,20.31,0,1.57.13,3,2.25,4h9.47c5.74,0,11.47,0,17.21,0,1.09,0,2.35-.35,3.08,1a2.35,2.35,0,0,1-2.6,1.75c-5.27,0-10.54,0-16.28,0l-1.65,3.64c6.28.06,12.18-.91,18.09.68v1.91Z"/><path class="cls-7" d="M199.92,75.23c2.8-2.69,3.62-6.18,4.12-9.85a29.15,29.15,0,0,1,1.29-6.33,14,14,0,0,1,7.11-7.6,36.92,36.92,0,0,1,7.13-2.32c1.49-.39,1.77-.11,3,1.69-1.5.35-2.89.78-4.31,1-5.58.84-11,4.68-11.51,11.31-.38,4.9-1.56,9.65-5,13.73l3.67,2c-.16,1.23-.33,2.52-.5,3.75.24,2.32.47,4.6.69,6.78,3.36.9,6.81-.72,9.85,1.79a8.92,8.92,0,0,1-.08,8.94L214,99.28c.11-2,.22-3.92.31-5.54a4.86,4.86,0,0,0-4.53-1.94c-1.49,0-3,0-4.74,0l-2.49-3.28c.28-1.09.48-1.85.48-1.87-.19-2.51-.33-4.29-.5-6.54l-2.63-1.65V75.21Z"/><path class="cls-7" d="M176.12,64.06H173V30.72l2.91-.2C176.65,33.07,176.81,59.81,176.12,64.06Z"/></g></g></svg>