<svg xmlns="http://www.w3.org/2000/svg" viewBox="0 0 557.83 556.37" fill="none" xmlns:v="https://vecta.io/nano"><circle cx="260.86" cy="291.96" r="33.74" stroke="#ff9378" stroke-width="10"/><g stroke-linecap="round" stroke-linejoin="round"><path d="M468.25,148.21q6.35,9,11.9,18.55t10.23,19.53a248.25,248.25,0,0,1,23.43,107C513.1,431,400.86,542.08,263.12,541.37S14.29,428.41,15,290.67,128,41.85,265.7,42.56A248.41,248.41,0,0,1,368,65q10,4.56,19.51,10t18.58,11.68" stroke="#3e6c98" stroke-width="30"/><g stroke-width="10"><path d="M455,181.22q4.89,8.42,9.05,17.28a219.36,219.36,0,0,1,20.75,94.6C484.13,414.8,385,513,263.27,512.33S43.41,412.52,44,290.82,143.84,71,265.55,71.6a219.5,219.5,0,0,1,90.14,19.72q8.83,4,17.25,8.8" stroke="#7fc1ff"/><g stroke="#c4eaff"><path d="M260.86 92.31v23.2m-99.83 3.55l11.61 20.09"/><path d="M161.03 119.06l11.61 20.09m-84.68 52.98l20.09 11.61"/><path d="M108.05 203.74l-20.09-11.61m-26.75 99.83h23.21"/><path d="M61.21 291.96h23.21m3.54 99.83l20.09-11.6"/><path d="M87.96 391.79l20.09-11.6m52.98 84.68l11.61-20.1"/><path d="M161.03 464.87l11.61-20.1m88.22 46.85v-23.21"/><path d="M260.86 491.62v-23.21m99.83-3.54l-11.6-20.1"/><path d="M360.69 464.87l-11.6-20.1m84.68-52.98l-20.1-11.6"/><path d="M433.77 391.79l-20.1-11.6m46.85-88.23h-23.21"/><path d="M460.52 291.96h-23.21m-3.54-99.83l-20.1 11.61"/><path d="M433.77 192.13l-20.1 11.61m-52.98-84.68l-11.6 20.09"/></g></g><path d="M431.9 125.92L260.86 296.96 542.83 15M260.86 296.96l-77.38-77.38" stroke-width="30" stroke="#56d4b7"/></g></svg>