<svg xmlns="http://www.w3.org/2000/svg" viewBox="0 0 557.83 556.37"><defs><style>.cls-1,.cls-2,.cls-3,.cls-4,.cls-5{fill:none;}.cls-1{stroke:#ff9378;stroke-miterlimit:10;}.cls-1,.cls-3,.cls-4{stroke-width:10px;}.cls-2{stroke:#3e6c98;}.cls-2,.cls-3,.cls-4,.cls-5{stroke-linecap:round;stroke-linejoin:round;}.cls-2,.cls-5{stroke-width:30px;}.cls-3{stroke:#7fc1ff;}.cls-4{stroke:#c4eaff;}.cls-5{stroke:#56d4b7;}</style></defs><g id="Layer_2" data-name="Layer 2"><g id="_9" data-name="9"><circle class="cls-1" cx="260.86" cy="291.96" r="33.74"/><path class="cls-2" d="M468.25,148.21q6.35,9,11.9,18.55t10.23,19.53a248.25,248.25,0,0,1,23.43,107C513.1,431,400.86,542.08,263.12,541.37S14.29,428.41,15,290.67,128,41.85,265.7,42.56A248.41,248.41,0,0,1,368,65q10,4.56,19.51,10t18.58,11.68"/><path class="cls-3" d="M455,181.22q4.89,8.42,9.05,17.28a219.36,219.36,0,0,1,20.75,94.6C484.13,414.8,385,513,263.27,512.33S43.41,412.52,44,290.82,143.84,71,265.55,71.6a219.5,219.5,0,0,1,90.14,19.72q8.83,4,17.25,8.8"/><line class="cls-4" x1="260.86" y1="92.31" x2="260.86" y2="115.51"/><line class="cls-4" x1="161.03" y1="119.06" x2="172.64" y2="139.15"/><line class="cls-4" x1="161.03" y1="119.06" x2="172.64" y2="139.15"/><line class="cls-4" x1="87.96" y1="192.13" x2="108.05" y2="203.74"/><line class="cls-4" x1="108.05" y1="203.74" x2="87.96" y2="192.13"/><line class="cls-4" x1="61.21" y1="291.96" x2="84.42" y2="291.96"/><line class="cls-4" x1="61.21" y1="291.96" x2="84.42" y2="291.96"/><line class="cls-4" x1="87.96" y1="391.79" x2="108.05" y2="380.19"/><line class="cls-4" x1="87.96" y1="391.79" x2="108.05" y2="380.19"/><line class="cls-4" x1="161.03" y1="464.87" x2="172.64" y2="444.77"/><line class="cls-4" x1="161.03" y1="464.87" x2="172.64" y2="444.77"/><line class="cls-4" x1="260.86" y1="491.62" x2="260.86" y2="468.41"/><line class="cls-4" x1="260.86" y1="491.62" x2="260.86" y2="468.41"/><line class="cls-4" x1="360.69" y1="464.87" x2="349.09" y2="444.77"/><line class="cls-4" x1="360.69" y1="464.87" x2="349.09" y2="444.77"/><line class="cls-4" x1="433.77" y1="391.79" x2="413.67" y2="380.19"/><line class="cls-4" x1="433.77" y1="391.79" x2="413.67" y2="380.19"/><line class="cls-4" x1="460.52" y1="291.96" x2="437.31" y2="291.96"/><line class="cls-4" x1="460.52" y1="291.96" x2="437.31" y2="291.96"/><line class="cls-4" x1="433.77" y1="192.13" x2="413.67" y2="203.74"/><line class="cls-4" x1="433.77" y1="192.13" x2="413.67" y2="203.74"/><line class="cls-4" x1="360.69" y1="119.06" x2="349.09" y2="139.15"/><polyline class="cls-5" points="431.9 125.92 260.86 296.96 542.83 15"/><line class="cls-5" x1="260.86" y1="296.96" x2="183.48" y2="219.58"/></g></g></svg>