<svg xmlns="http://www.w3.org/2000/svg" viewBox="0 0 908.07 381.16" xmlns:v="https://vecta.io/nano"><style><![CDATA[.AF{fill:none}.AG{stroke-miterlimit:10}.AH{stroke:#061537}.AI{fill:#ffd3c8}.AJ{stroke-linecap:round}.AK{stroke-width:1.38}.AL{fill:#061537}.AM{fill:#fff}.AN{stroke-width:.72}.AO{fill:#f1b2a2}.AP{stroke-width:1.4}.AQ{stroke:#9d3f28}.AR{stroke:#301913}.AS{stroke:#99776c}.AT{fill:#607385}]]></style><defs><clipPath id="A" transform="translate(11.34)"><path d="M150.54,144.66s39.91.85,63.3,24.42S261.6,264,245,281.35s-50.67-39-50.67-39,22.13,40.85,28.84,61.84a132.18,132.18,0,0,1,5,44L91.63,322l3-49.47S83.08,267,79.11,257.74A41,41,0,0,1,77,237.47L25.19,283.69s-2.11-2.21-2-3.35Q36,152.84,115,146.42Z" class="AF"/></clipPath><clipPath id="B" transform="translate(11.34)"><path d="M99.86 78.18s-20.5 50 10 54.49c0 0 16.1 7.91 14.58 9.09a185.78 185.78 0 0 1-18.44 5.83s9.38 22.33 34.61 21 30.6-21.74 30.6-21.74-5.57-1-8.09-1.29c-6.76-.77-11-1.48-11-3.76a65.63 65.63 0 0 1 2.69-24.6 171.48 171.48 0 0 1 11.07-20.9s-13-16-23.39-26.25-29.39-3.4-29.39-3.4a48.69 48.69 0 0 0-10.4 4.9 11.71 11.71 0 0 0-2.84 6.63z" class="AF"/></clipPath><clipPath id="C" transform="translate(11.34)"><path d="M247.57 279.39c-9.13 12.58-24.64 12.67-48.92-19.73-8.68-11.57-28.4-52.12-28.4-52.12s-12.79-.54-20.25-8.93-7.56-10.18-10.7-11.77 4.78-5.29 10.7 2.11c4.6 5.74 3.79 2.16 2.81-1.4-.27-1 .41-2.08 0-2.88-1.82-3.54-5-8.88-9.09-8.4 0 0-2.33 3.89-4.68 3.78s-1-4.46 1.1-7.82 3.8-3.74 6-2.5a87.72 87.72 0 0 1 7.55 5.6s6.59-5.23 9.71-2.2c0 0 7.94-1.93 9.24 1.45a7.19 7.19 0 0 1 5.57 3.69c1.65 3.41 8.75 18.9 7.94 22.67s81.63 50.6 61.42 78.45z" class="AF"/></clipPath><clipPath id="D" transform="translate(11.34)"><path d="M88,197.8s6.38-10.18,7.44-9.43,1.06,5,1.06,5,23.28-10.79,24.46-7.74-19.19,11.45-19.19,13.52,23.06-5.78,28.05-5.32c1.84.17,2.44,1.92,1.3,3.42a13.8,13.8,0,0,1-2.69,1.91s1.38,2.85-2.42,5.06-19.17,7.66-19.17,8.56,14.19-6.09,15.09-4.55-14.79,13-22.89,14.34a89,89,0,0,0-16,3.55c-1.1.69-15.83,61.25-36.15,70.22-18.56,8.21-30.59-11.76-20.29-35.86,7.53-17.63,42.13-45.59,46-50.09A148.45,148.45,0,0,1,88,197.8Z" class="AF"/></clipPath><clipPath id="E" transform="translate(11.34)"><path d="M674.28 36.91a2.83 2.83 0 0 1 .45 1.55v30.43c-3 21.63-12.36 31.8-24.4 30.71l.41 8.78a31.44 31.44 0 0 1 .4 5.73c-.39 3.3-1.85 6.26-2.24 10a18.62 18.62 0 0 1-9.82 13.46 13.45 13.45 0 0 1-6.21-.29c-16.43-4.59-18-27.66-18-27.66s2.69-1.55 3.15-11.16.17-31.93.17-31.93-3.64-1.29-4.42-8.72 2-8.62 4.89-8.49 5.92 6.6 6.44 11.71c4.6 2.55 3-3.17 3.32-9.83s7.74-6.43 9.17-10.56a32.7 32.7 0 0 0 1.18-10.78 44 44 0 0 0 30.42-.86z" class="AF"/></clipPath><clipPath id="F" transform="translate(11.34)"><path d="M610.75,111.86s-53,9.46-58.37,69.62-13,130.09,13.17,136.66,103.86,2.56,103.86,2.56l39.7-19,69.68-4.4V263.48s-27.84,2.24-31.94-2.2S712.1,144,695,136.39c0,0-12.33-15.94-29.15-19.22-4.29-.84-16-2.33-16-2.33s-4,5-6.72,4.82-7.47-5.9-7.47-5.9Z" class="AF"/></clipPath><clipPath id="G" transform="translate(11.34)"><path d="M680.24 316.13l70.39 1.38 28.11-3.54.06-4.89 49.28-10.39-39.82-2.16-57.17.8-50.85 18.8z" class="AF"/></clipPath><clipPath id="H" transform="translate(11.34)"><path d="M395 91.89a34.27 34.27 0 0 0-.27-15.41c-11.57-2.24-9.59-13.49-5.4-14.22s6.53 5.35 6.53 5.35c.39-11.18 10-.69 18.19-17.63s22.42-6.77 24-1.75 12.69 56.75-18.91 57.06a56 56 0 0 0 .72 13.43c.22.69.91 2.06 1.13 2.74.84 2.72-1.49 6.06-.49 8.67 3.59 9.32 16.1 32.31-.64 40.11s-41.16-19.58-36.06-36.56 9.43-33.19 11.2-41.79z" class="AF"/></clipPath><clipPath id="I" transform="translate(11.34)"><path d="M472.46 321.43c.23-8.63 4.81-9 4.81-9h20c11.24-1.65 38-5.43 13-77-7.14-20.43-19.35-85.24-34.9-98.29-14-11.76-32-12.32-53.74-13.17-1.18 0-1.75 1-2.33 2.11s-1.18 2.18-2.41 2.12-9-2-14.28-3.4v-1.3h-4.84-.09 0l-11.75.13c-25 1.18-45.45.43-61 13.48S297.18 215 290.05 235.4c-25 71.62 1.81 75.4 13.06 77 .54.08 22.47 1.22 22.47 1.22l-.51 31.57 73.49-1.2 77.71 6.01s-4.05-19.94-3.81-28.57z" class="AF"/></clipPath></defs><path d="M161.88 144.66s39.91.85 63.3 24.42 47.76 94.92 31.16 112.27-50.67-39-50.67-39 22.13 40.85 28.84 61.84a132.18 132.18 0 0 1 5 44L102.97 322l3-49.47S94.42 267 90.45 257.74a41 41 0 0 1-2.11-20.27l-51.81 46.22s-2.11-2.21-2-3.35q12.81-127.5 91.81-133.92z" fill="#659cff"/><g clip-path="url(#A)"><path d="M190.78 225.83s7 22.13-5.13 34.54-44.38 6.19-21.62 12.12 37.83 13.16 20.12 10.1-66.09-2.1-57.46 2.55 47.64.5 52 19c0 0-49.23-2.22-60.94 8S226.52 338 226.52 338l25.18 24.92-6.69-64.63-21.43-46.91z" fill="#4c7fff"/><g class="AI"><path d="M239.02 177.82L201.24 222l54.83 63.3 10.79-36.81zm-175.77-2.49l25.37 48.58-26.8 36.74L0 272.49z"/></g><path d="M208.13 213.71l14-16.12 39.68 69z" class="AO"/></g><path d="M111.2 78.18s-20.5 50 10 54.49c0 0 16.1 7.91 14.58 9.09a185.78 185.78 0 0 1-18.44 5.83c0 0 9.38 22.33 34.61 21s30.6-21.74 30.6-21.74-5.57-1-8.09-1.29c-6.76-.77-11-1.48-11-3.76a65.63 65.63 0 0 1 2.69-24.6 171.48 171.48 0 0 1 11.07-20.9c0 0-13-16-23.39-26.25s-29.39-3.4-29.39-3.4a48.69 48.69 0 0 0-10.4 4.9 11.71 11.71 0 0 0-2.84 6.63z" class="AI"/><g clip-path="url(#B)" class="AO"><path d="M138.53 132.18a31.11 31.11 0 0 0 13.32-8.35c0 0-3.48 18.56-15.63 17.75s2.31-9.4 2.31-9.4z"/></g><path d="M140.15 92.92a10.24 10.24 0 0 0-10 0m-9.98-.41a8.61 8.61 0 0 0-6.83 1.13" class="AF AG AH AJ AK"/><path d="M117.82 73.08s14.07 24.79 43.44 22.47c0 0 6.16-3.42 7.47 1.11s-1.21 6.56-5.9 8.37l.6 36.73 11.44-.15a45.91 45.91 0 0 0 11.94-1.7l-1.84-9.1 7.37 6.79s21.86-10.38 24.94-13.15c0 0-17.9-13.64-24.94-30.78S175.55 46 149.54 43.52s-42.06 11.34-45.49 32.73-6.86 63-17.6 64.79l27.92.61c2.16.13 3.89-8 3.89-8l3.92 8.38 13.84-.28 2.52-9.58s-27.95.59-27-46.18a22.52 22.52 0 0 0 5.17-6.36 15.32 15.32 0 0 0 1.11-6.55z" class="AL"/><path d="M123.67 96.71a6.81 6.81 0 0 1-.91 6.84c-2.59 3.4-2.59 7.65 4.52 6.13" class="AF AG AJ AK AQ"/><circle cx="133.26" cy="98.32" r="1.38" class="AL"/><path d="M131.26 98a4.49 4.49 0 0 1 5.33.16" class="AF AG AH AK"/><path d="M141.48 95.57a10.26 10.26 0 0 1-7.53 9 10.27 10.27 0 0 1-7.53-9h15.06m1.42-1.38H125v.43a11.68 11.68 0 0 0 9 11.36 11.68 11.68 0 0 0 9-11.36zm-22.07 1.38a10.27 10.27 0 0 1-7.53 9 10.26 10.26 0 0 1-7.53-9h15.06m1.42-1.38h-17.91v.43a11.68 11.68 0 0 0 9 11.38 11.68 11.68 0 0 0 9-11.36z" class="AM"/><circle cx="116.74" cy="98.32" r="1.38" class="AL"/><g class="AF AG AK"><path d="M114.74 97.93a4.48 4.48 0 0 1 5.33.25" class="AH"/><g stroke="#fff"><path d="M142.57 94.86l19-.67" class="AJ"/><path d="M125.34 96.36h-3.66"/></g></g><path d="M126.34 121.68c3.68.31 7.58-4.79 7.58-4.79a36.45 36.45 0 0 1-7.58 1.69 16.26 16.26 0 0 1-5.74-1.69s2.1 4.48 5.74 4.79z" class="AG AK AM AQ"/><path d="M258.91 279.39c-9.13 12.58-24.64 12.67-48.92-19.73-8.68-11.57-28.4-52.12-28.4-52.12s-12.79-.54-20.25-8.93-7.56-10.18-10.7-11.77 4.78-5.29 10.7 2.11c4.6 5.74 3.79 2.16 2.81-1.4-.27-1 .41-2.08 0-2.88-1.82-3.54-5-8.88-9.09-8.4 0 0-2.33 3.89-4.68 3.78s-1-4.46 1.1-7.82 3.8-3.74 6-2.5a87.72 87.72 0 0 1 7.55 5.6c0 0 6.59-5.23 9.71-2.2 0 0 7.94-1.93 9.24 1.45a7.19 7.19 0 0 1 5.57 3.69c1.65 3.41 8.75 18.9 7.94 22.67s81.63 50.6 61.42 78.45z" class="AI"/><g clip-path="url(#C)" class="AO"><path d="M262.1 270.09s-18.69 18.25-46.76-19.26-27-45.48-35.39-42.91 7.74 23.16 7.74 23.16l44 68.18 42.56-4.91z"/></g><path d="M197.74 201.48s58.29 40.08 64 65.08" class="AF AG AK AS"/><path d="M107.79 172.31l38-2 2.75 52.11-39 2.05a.76.76 0 0 1-.81-.73l-2.62-49.62a1.71 1.71 0 0 1 1.68-1.81z" class="AT"/><path d="M146.879 221.081l-36.789 1.941-2.614-49.551 36.789-1.941z" fill="#e1e1e1"/><path d="M148.544 221.6l-36.789 1.941-2.614-49.551 36.789-1.941z" fill="#fafafa"/><path d="M147.12 216.91l-36.66 1.93m36.3-4.38l-36.66 1.93m36.53-4.4l-36.66 1.94m36.53-4.4l-36.66 1.94m36.53-4.4L109.71 209m36.53-4.4l-36.66 1.94m36.53-4.4l-36.66 1.93m36.53-4.4l-36.66 1.94m36.53-4.4l-36.66 1.94m36.53-4.4l-36.66 1.93m36.53-4.4l-36.66 1.94m36.53-4.4l-36.66 1.93m36.53-4.4l-36.66 1.94m36.53-4.4l-36.66 1.94m36.53-4.4l-36.66 1.93m36.53-4.4l-36.66 1.94m36.53-4.4l-36.66 1.93m36.53-4.4l-36.66 1.94" stroke="#e1e1e1" stroke-width=".12" class="AF AG"/><path d="M142.65 221.65l-2.6-49.38" fill="#659cff"/><path d="M144.87 219.18a.74.74 0 0 1 .71-.78.75.75 0 0 1 .08 1.49.74.74 0 0 1-.79-.71zm-.29-5.49a.75.75 0 1 1 .781.633.75.75 0 0 1-.781-.632zm-.24-5.5a.75.75 0 1 1 .79.71.74.74 0 0 1-.79-.71zm-.34-5.5a.75.75 0 1 1 1.49-.08.74.74 0 0 1-.7.79.75.75 0 0 1-.79-.71zm-.29-5.5a.76.76 0 0 1 .71-.79.75.75 0 0 1 .78.71.74.74 0 0 1-.7.79.75.75 0 0 1-.79-.71zm-.29-5.5a.74.74 0 0 1 .71-.78.75.75 0 0 1 .08 1.49.74.74 0 0 1-.79-.71zm-.29-5.5a.75.75 0 1 1 .78.71.74.74 0 0 1-.78-.71zm-.29-5.49a.75.75 0 1 1 .78.71.74.74 0 0 1-.78-.71zm-.29-5.5a.75.75 0 1 1 .78.71.75.75 0 0 1-.78-.71z" fill="#375a64"/><path d="M148.13 216.39h.08.24a2.28 2.28 0 0 1 .35.11 1.65 1.65 0 0 1 .42.27 1.68 1.68 0 0 1 .38.48 2.15 2.15 0 0 1 .24.66 1.6 1.6 0 0 1 0 .78 1.66 1.66 0 0 1-.45.72 1.93 1.93 0 0 1-.7.44 2.66 2.66 0 0 1-.76.14 3.22 3.22 0 0 1-1.25-.25 4.42 4.42 0 0 1-.75-.4q-.25-.18-.24-.21a1.06 1.06 0 0 1 .29.11l.76.32a3.49 3.49 0 0 0 1.18.18 2.29 2.29 0 0 0 .67-.14 1.59 1.59 0 0 0 .61-.39 1.43 1.43 0 0 0 .38-.6 1.48 1.48 0 0 0 0-.66 2.22 2.22 0 0 0-.19-.6 1.82 1.82 0 0 0-.31-.44 1.69 1.69 0 0 0-.36-.27 1.36 1.36 0 0 0-.31-.14l-.21-.07c-.04-.02-.07-.03-.07-.04zm-.29-5.5h.08a1.38 1.38 0 0 1 .59.13 1.37 1.37 0 0 1 .42.26 1.83 1.83 0 0 1 .38.48 2.25 2.25 0 0 1 .24.66 1.73 1.73 0 0 1 0 .78 1.66 1.66 0 0 1-.45.72 1.93 1.93 0 0 1-.7.44 2.36 2.36 0 0 1-.76.14 3.05 3.05 0 0 1-1.25-.25 4.42 4.42 0 0 1-.75-.4c-.17-.11-.25-.19-.24-.2s.11 0 .29.11.44.2.76.31a3.25 3.25 0 0 0 1.18.18 2 2 0 0 0 .67-.14 1.59 1.59 0 0 0 .61-.39 1.43 1.43 0 0 0 .38-.6 1.47 1.47 0 0 0 0-.66 2 2 0 0 0-.19-.59 1.88 1.88 0 0 0-.31-.45 2.11 2.11 0 0 0-.36-.27 2 2 0 0 0-.31-.14l-.21-.07c-.04-.03-.07-.04-.07-.05zm-.29-5.5h.08a1.15 1.15 0 0 1 .24 0 1.7 1.7 0 0 1 .35.11 1.24 1.24 0 0 1 .42.27 1.63 1.63 0 0 1 .38.47 2.36 2.36 0 0 1 .24.66 1.77 1.77 0 0 1 0 .79 1.69 1.69 0 0 1-.45.71 2 2 0 0 1-.71.45 2.24 2.24 0 0 1-.75.13 3.05 3.05 0 0 1-1.25-.25 4.42 4.42 0 0 1-.75-.4c-.17-.11-.25-.19-.24-.2s.11 0 .29.11.44.2.76.31a3.25 3.25 0 0 0 1.18.18 2 2 0 0 0 .67-.14 1.78 1.78 0 0 0 .61-.38 1.56 1.56 0 0 0 .38-.6 1.51 1.51 0 0 0 0-.67 2 2 0 0 0-.19-.59 1.64 1.64 0 0 0-.31-.44 1.76 1.76 0 0 0-.36-.28 2 2 0 0 0-.31-.14l-.21-.07s-.07-.02-.07-.03zm-.29-5.5h.08a1.15 1.15 0 0 1 .24 0 1.7 1.7 0 0 1 .35.11 1.65 1.65 0 0 1 .42.27 1.55 1.55 0 0 1 .38.48 2.19 2.19 0 0 1 .24.65 1.77 1.77 0 0 1 0 .79 1.69 1.69 0 0 1-.45.71 1.79 1.79 0 0 1-.71.45 2.24 2.24 0 0 1-.75.13 3.05 3.05 0 0 1-1.25-.25 4.05 4.05 0 0 1-.75-.4c-.17-.11-.25-.18-.24-.2s.11 0 .29.11.44.2.76.31a3.25 3.25 0 0 0 1.18.18 2.27 2.27 0 0 0 .67-.13 2 2 0 0 0 .61-.39 1.49 1.49 0 0 0 .38-.6 1.51 1.51 0 0 0 0-.67 2.27 2.27 0 0 0-.19-.59 1.64 1.64 0 0 0-.31-.44 1.41 1.41 0 0 0-.36-.27 2.15 2.15 0 0 0-.31-.15l-.21-.07c.01 0-.07-.02-.07-.03zm-.29-5.49h.08a1.15 1.15 0 0 1 .24 0 1.7 1.7 0 0 1 .35.11 1.65 1.65 0 0 1 .42.27 1.68 1.68 0 0 1 .38.48 1.93 1.93 0 0 1 .23.65 1.63 1.63 0 0 1 0 .79 1.78 1.78 0 0 1-.45.72 1.88 1.88 0 0 1-.71.44 2.54 2.54 0 0 1-.75.14 3.22 3.22 0 0 1-1.25-.26 3.53 3.53 0 0 1-.75-.4c-.17-.11-.25-.18-.24-.2a1.06 1.06 0 0 1 .29.11l.76.31a3.05 3.05 0 0 0 1.18.18 2.27 2.27 0 0 0 .67-.13 1.81 1.81 0 0 0 .61-.39 1.43 1.43 0 0 0 .38-.6 1.48 1.48 0 0 0 0-.66 2.22 2.22 0 0 0-.19-.6 1.64 1.64 0 0 0-.31-.44 1.41 1.41 0 0 0-.36-.27 2.15 2.15 0 0 0-.31-.15l-.21-.06zm-.29-5.5h.08.24a2.68 2.68 0 0 1 .35.11 1.65 1.65 0 0 1 .42.27 1.68 1.68 0 0 1 .38.48 1.93 1.93 0 0 1 .23.65 1.63 1.63 0 0 1 0 .79 1.66 1.66 0 0 1-.45.72 1.88 1.88 0 0 1-.71.44 2.54 2.54 0 0 1-.75.14 3.22 3.22 0 0 1-1.25-.25 4.05 4.05 0 0 1-.75-.4q-.26-.18-.24-.21a1.06 1.06 0 0 1 .29.11l.76.32a3.49 3.49 0 0 0 1.18.18 2.29 2.29 0 0 0 .67-.14 1.67 1.67 0 0 0 .61-.39 1.43 1.43 0 0 0 .38-.6 1.48 1.48 0 0 0 0-.66 2.22 2.22 0 0 0-.19-.6 1.82 1.82 0 0 0-.31-.44 1.69 1.69 0 0 0-.36-.27 1.36 1.36 0 0 0-.31-.14c-.09 0-.17 0-.22-.07zm-.29-5.5h.08a1 1 0 0 1 .23 0 1.21 1.21 0 0 1 .36.11 1.37 1.37 0 0 1 .42.26 1.83 1.83 0 0 1 .38.48 1.91 1.91 0 0 1 .23.66 1.59 1.59 0 0 1 0 .78 1.66 1.66 0 0 1-.45.72 1.88 1.88 0 0 1-.71.44 2.25 2.25 0 0 1-.75.14 3.05 3.05 0 0 1-1.25-.25 4.05 4.05 0 0 1-.75-.4c-.17-.11-.25-.19-.24-.2s.11 0 .29.11.44.2.76.31a3.25 3.25 0 0 0 1.18.18 2 2 0 0 0 .67-.14 1.67 1.67 0 0 0 .61-.39 1.43 1.43 0 0 0 .38-.6 1.47 1.47 0 0 0 0-.66 2 2 0 0 0-.19-.59 1.88 1.88 0 0 0-.31-.45 1.69 1.69 0 0 0-.36-.27 1.36 1.36 0 0 0-.31-.14c-.09 0-.17 0-.22-.07zm-.29-5.5h.08a1.06 1.06 0 0 1 .23 0 1.21 1.21 0 0 1 .36.11 1.24 1.24 0 0 1 .42.27 1.63 1.63 0 0 1 .38.47 2.07 2.07 0 0 1 .23.66 1.72 1.72 0 0 1 0 .78 1.66 1.66 0 0 1-.45.72 1.88 1.88 0 0 1-.71.44 2 2 0 0 1-.75.14 3 3 0 0 1-1.25-.25 4.05 4.05 0 0 1-.75-.4c-.17-.11-.25-.19-.24-.2s.11 0 .29.11.44.2.76.31a3.25 3.25 0 0 0 1.18.18 2 2 0 0 0 .67-.14 1.78 1.78 0 0 0 .61-.38 1.52 1.52 0 0 0 .38-.61 1.46 1.46 0 0 0 0-.66 2 2 0 0 0-.19-.59 1.64 1.64 0 0 0-.31-.44 1.76 1.76 0 0 0-.36-.28 2 2 0 0 0-.31-.14l-.22-.07s-.05-.02-.05-.03zm-.29-5.5h.08a1.11 1.11 0 0 1 .23 0 1.6 1.6 0 0 1 .36.11 1.42 1.42 0 0 1 .42.27 1.63 1.63 0 0 1 .38.47 2.07 2.07 0 0 1 .23.66 1.76 1.76 0 0 1 0 .79 1.69 1.69 0 0 1-.45.71 1.91 1.91 0 0 1-.71.45 2.24 2.24 0 0 1-.75.13 3 3 0 0 1-1.25-.25 4.05 4.05 0 0 1-.75-.4c-.17-.11-.25-.18-.24-.2s.11 0 .29.11a7.64 7.64 0 0 0 .76.31 3.25 3.25 0 0 0 1.18.18 2.27 2.27 0 0 0 .67-.13 2 2 0 0 0 .61-.39 1.49 1.49 0 0 0 .38-.6 1.51 1.51 0 0 0 0-.67 2.72 2.72 0 0 0-.19-.59 1.64 1.64 0 0 0-.31-.44 1.41 1.41 0 0 0-.36-.27 2.15 2.15 0 0 0-.31-.15l-.22-.07s-.05-.02-.05-.03z" fill="#955454"/><path d="M99.34 197.8s6.38-10.18 7.44-9.43 1.06 5 1.06 5 23.28-10.79 24.46-7.74-19.19 11.45-19.19 13.52 23.06-5.78 28.05-5.32c1.84.17 2.44 1.92 1.3 3.42a13.8 13.8 0 0 1-2.69 1.91c0 0 1.38 2.85-2.42 5.06s-19.17 7.66-19.17 8.56 14.19-6.09 15.09-4.55-14.79 13-22.89 14.34a89 89 0 0 0-16 3.55c-1.1.69-15.83 61.25-36.15 70.22-18.56 8.21-30.59-11.76-20.29-35.86 7.53-17.63 42.13-45.59 46-50.09a148.45 148.45 0 0 1 15.4-12.59z" class="AI"/><g clip-path="url(#D)" class="AO"><path d="M99.34 197.8l9.27-5.09-1.12-5.81-6.37 3.85zm-5.18 28.44s-40.93 74.31-63.39 52.64 12.42 25.3 12.42 25.3l33.93-7.61 20.35-60.82z"/></g><path d="M114.03 190.74a82.72 82.72 0 0 0-11.56 5.26m37.31 3.16l-24.83 8.31m-80.76 73.74s-4.33-27.84 57.51-77.89" class="AF AG AK AS"/><path d="M174.48 211.27l.67-.34a.31.31 0 0 0 .14-.41l-1.18-2.34-.94.47-.94.47 1.17 2.35a.3.3 0 0 0 .41.13z" fill="#45aa92"/><path d="M173.17 208.65l1.7-.85.29-.15a.14.14 0 0 0 .07-.12l-.18-2.09h0l-7.26-14.46a.12.12 0 0 0-.16-.06l-.58.3a.09.09 0 0 0-.06.06l-.25.76a.14.14 0 0 0 0 .09l.33.65a.13.13 0 0 0 .07.06l.75.25a.09.09 0 0 1 .06.06l6.14 12.22a.11.11 0 0 1-.05.16l-.15.08a.13.13 0 0 1-.16 0l-.63-1.27a.12.12 0 0 0-.16-.05l-1.6.8-1.59.8a.12.12 0 0 0-.05.16l1.72 3.43a.12.12 0 0 0 .16.06z" fill="#56d4b7"/><path d="M171.33 205l1.5-.76-17.77-35.4-1.51.75-1.5.76 17.78 35.4 1.5-.75z" fill="#e1e1e1"/><path d="M153.56 169.59l1.5-.75-3.72-4.69a.12.12 0 0 0-.14 0l-.34.17-.33.17a.11.11 0 0 0-.06.13l1.55 5.76z" class="AT"/><path d="M150.63 164.42l-.32-.63.12-.05-.23-.46.08-.04-.14-.28.03-.1.11.03.13.28.08-.04.23.46.12-.06.31.63-.52.26z" fill="#1a2e35"/><path d="M160.32 179.32l-3.01 1.51m2.13-3.27l-3.01 1.51m2.12-3.27l-3.01 1.51m2.13-3.27l-3.01 1.51m2.12-3.28l-3.01 1.51" stroke="#1a2e35" stroke-width=".28" class="AF AG"/><path d="M150.725 163.589l-.295.148-.224-.447.295-.148z" class="AT"/><path d="M684.8 65.31s3.08-10.53 4.44-16.23a51.3 51.3 0 0 0-.19-15.45c0 0 8.65-11.2 6.33-18.39C689.1-4.3 670.64-4 636.34 10.05a10.83 10.83 0 0 0-7.23 12.2A16.62 16.62 0 0 0 616 33.66c-3.65 10.45 3.13 32.44 7.05 40a89.28 89.28 0 0 0 10.09 14.75z" fill="#4c2603"/><path d="M685.62 36.91a2.83 2.83 0 0 1 .45 1.55v30.43c-3 21.63-12.36 31.8-24.4 30.71l.41 8.78a31.44 31.44 0 0 1 .4 5.73c-.39 3.3-1.85 6.26-2.24 10a18.62 18.62 0 0 1-9.82 13.46 13.45 13.45 0 0 1-6.21-.29c-16.43-4.59-18-27.66-18-27.66s2.69-1.55 3.15-11.16.17-31.93.17-31.93-3.64-1.29-4.42-8.72 2-8.62 4.89-8.49 5.92 6.6 6.44 11.71c4.6 2.55 3-3.17 3.32-9.83s7.74-6.43 9.17-10.56a32.7 32.7 0 0 0 1.18-10.78 44 44 0 0 0 30.42-.86z" class="AI"/><g clip-path="url(#E)" class="AO"><path d="M663.5 99.84s-17.84-2.34-22.32-15.46c0 0 5 23.8 19.77 28.64s2.55-13.18 2.55-13.18z"/></g><path d="M659.34 48a10.66 10.66 0 0 1 10 0m10.47 1.52a9.05 9.05 0 0 1 7.19-1.61" stroke-width="1.44" class="AF AG AH AJ"/><circle cx="666.44" cy="56.54" r="1.43" class="AL"/><path d="M667.96 56.83a4.73 4.73 0 0 0-5.62.17" class="AF AG AH AN"/><circle cx="683.59" cy="56.54" r="1.43" class="AL"/><g class="AF AG AH AN"><path d="M685.45 56.79a4.73 4.73 0 0 0-5.64.27"/><path d="M674.4 53.68a26.7 26.7 0 0 0 1.73 9.39c4 7.79 6.86 17.66-8.25 11.66" class="AJ"/></g><path d="M673.14 86.58c-3.94.36-8.12-5.71-8.12-5.71a35.61 35.61 0 0 0 8.12 2 16.07 16.07 0 0 0 6.17-2s-2.23 5.34-6.17 5.71z" class="AG AH AM AN"/><g class="AF AH AN"><ellipse cx="686.45" cy="57.97" rx="8.57" ry="8.59"/><ellipse cx="665.01" cy="57.97" rx="8.57" ry="8.59"/><path d="M656.44 55.11l-21.43-2.87m42.87 3.37l-5.72.42" class="AG AJ"/></g><path d="M596.02 322.22s-1 32 10 36l76.32-39.36h-88z" fill="#df775d"/><path d="M622.09 111.86s-53 9.46-58.37 69.62-13 130.09 13.17 136.66 103.86 2.56 103.86 2.56l39.7-19 69.68-4.4v-33.82s-27.84 2.24-31.94-2.2S723.44 144 706.34 136.39c0 0-12.33-15.94-29.15-19.22-4.29-.84-16-2.33-16-2.33s-4 5-6.72 4.82-7.47-5.9-7.47-5.9z" fill="#56d4b7"/><g clip-path="url(#F)"><g fill="#4bc5a9"><path d="M608.34 133.45a114.4 114.4 0 0 1 32.48 89.19c-4.55 55.49 82 47.88 77.43 9.34l3.09 68.37-40.27-2.35v-11.11s-30.31-.86-44.36-2.28a292.86 292.86 0 0 1-30.72-5.26s8.66-49.81 11.49-74-1-54.3-1-54.3a62 62 0 0 0-2.9-9.53 55.47 55.47 0 0 0-5.24-8.07zm-23.6-6.83S573.43 149 571.46 162.8c-12.32 85.71-6.18 139.23 5.56 144 20.46 8.35 104.67 5.85 104.67 5.85l.6 16.2-129.33 3.52-15.8-127.11 39.86-75.19z"/></g><path d="M669.06 286.45h12.29v34.1h-12.29z" class="AM"/><path d="M706.63 136.39l22.81 8.22 41.57 115.48 53.25-5.19-15.48 53.35-92.44-7.9 4.46-25.06-2-34.58s-1.87-38.75-4-56.54-8.17-47.78-8.17-47.78z" fill="#4bc5a9"/></g><path d="M706.63 136.39s12.34 52.89 14.15 165.3m16.84-41.6c12.39-6.35 20.58 1.19 20.58 1.19s-19.2 2.3-17.35 19.86M592.68 320.3c25.48 3.18 88.39 0 88.39 0v-33.41s-66-2-75.08-7.54c0 0 25.18-128.14 1.46-145.42M592.68 296c-6.09-13.12 13.31-16.66 13.31-16.66s-.87-3.06-14.45-4.6" class="AF AG AN AR"/><g class="AM"><path d="M628.34 105.86a29.15 29.15 0 0 0 14.16 6.78 17.76 17.76 0 0 1 11.86 7s-4.08.28-4.08 8.48a10.1 10.1 0 0 1-6.35 10.19 160.48 160.48 0 0 0-9.72-14.62 140 140 0 0 0-12.27-11.84 8 8 0 0 0 4.51-3.16 8.67 8.67 0 0 1 1.89-2.83zm33.74 2.47s.13 9.34-7.68 11.33a34.63 34.63 0 0 1 9.26 3.9 76.39 76.39 0 0 1 9.15 10.37 41.9 41.9 0 0 0-2.47-17.29c-3.42-8.71-8.26-8.31-8.26-8.31z"/><path d="M651.22 122s3-1.39 4.64 2.71c0 0 .45-4.52 3.75-3.53l-.68-2.29a31.27 31.27 0 0 1-5.78.78 12.32 12.32 0 0 1-2.77-.31c-4.04-1.18.84 2.64.84 2.64z"/></g><path d="M691.58 316.13l70.39 1.38 28.11-3.51.06-4.89 49.28-10.39-39.82-2.16-57.17.8z" fill="#7fc1ff"/><g clip-path="url(#G)"><path d="M691.7 309.87h71.03v8.19H691.7z" fill="#3e6c98"/></g><g fill="#3e6c98"><path d="M872.97 305.48h0a7.57 7.57 0 0 1-7.23 7.52l-103.87 4.55v-10.21z"/><path d="M792.15 207.88l113.19 2.34 2.74 2.73-35.52 92.83-113.37 3.8z"/></g><path d="M794.88 210.61l113.2 2.39-32.74 92.78-113.38 3.8z" fill="#7fc1ff"/><ellipse cx="841.28" cy="258.72" rx="7.51" ry="7.5" fill="#c4eaff"/><path d="M681.07 313.08s28.56 6.27 37.74-6.25c0 0 9.63-3.24 10.49-4.51s11.6 9.49 15 8.56 4-5.51-3.16-10.09c0 0 10.74 7.4 12.75 7.09s4.49-1.3 3.25-2.81c0 0 3.84.66 3.34-.9S734.54 285 730.22 285a10.17 10.17 0 0 0-9.86-2.23c-5.88 1.8-39.11 13.87-39.11 13.87z" class="AI"/><path d="M743.72 302.73s-12.24-9.25-14.56-9.25a74.35 74.35 0 0 0-12.1 3.94m40.54 7.11S733.39 286.3 727.78 287a79.62 79.62 0 0 0-12.91 3.3m15.35-5.3s-5-2.36-14.72 1.07" class="AF AG AN AR"/><path d="M435.54 130.42s32.1 5.47 41.18-20.2-18.09-44.31-18.09-44.31 14.55-26.93-8.4-38.8c0 0-11.26-24.19-42.52-16.56s-22.62 37.34-37.47 41.63-33.22 5.41-31.17 27.66c0 0-25.56 14.62-20.47 50.25s64.46 29.71 62.89-.72c0 0 18.25 8.68 24.12-2.6s29.93 3.65 29.93 3.65z" class="AL"/><path d="M406.34 91.89a34.27 34.27 0 0 0-.27-15.41c-11.57-2.24-9.59-13.49-5.4-14.22s6.53 5.35 6.53 5.35c.39-11.18 10-.69 18.19-17.63s22.42-6.77 24-1.75 12.69 56.75-18.91 57.06a56 56 0 0 0 .72 13.43c.22.69.91 2.06 1.13 2.74.84 2.72-1.49 6.06-.49 8.67 3.59 9.32 16.1 32.31-.64 40.11s-41.16-19.58-36.06-36.56 9.43-33.19 11.2-41.79z" class="AI"/><g clip-path="url(#H)" class="AO"><path d="M432.12 105.28s-13.63 1.3-20.31-17c0 0-1.5 32.38 17.44 36.41s2.87-19.41 2.87-19.41z"/></g><path d="M439.75 62.37a39.72 39.72 0 0 0 1.46 12.07c1.75 5.28 3.4 8.7-5 7.74" class="AF AG AJ AP AQ"/><ellipse cx="435.6" cy="63.87" rx="1.77" ry="1.76" transform="matrix(.035074 -.999385 .999385 .035074 367.85 496.96)" class="AL"/><g stroke="#324a83" class="AF AP"><ellipse cx="437.51" cy="64.18" rx="7.24" ry="7.2" transform="matrix(.035074 -.999385 .999385 .035074 369.38 499.18)"/><ellipse cx="419.34" cy="65.97" rx="7.24" ry="7.2" transform="matrix(.035074 -.999385 .999385 .035074 350.07 482.75)"/></g><ellipse cx="419.12" cy="65.76" rx="1.77" ry="1.76" transform="matrix(.035074 -.999385 .999385 .035074 350.06 482.32)" class="AL"/><path d="M435.34 57.57s-8.62-2.63-12.85 3.24m27.76-5.35a5.55 5.55 0 0 0-5.73.68" stroke-width="2.34" class="AF AG AH AJ"/><g class="AP AG"><path d="M444.86 87a12.83 12.83 0 0 1-15.83.85c0 0 4.46 6.91 8.71 6.44s7.12-7.29 7.12-7.29z" class="AM AQ"/><g stroke="#324a83" class="AF"><path d="M423.54 64.31l-17.72-2.39" class="AJ"/><path d="M441.75 63.18l-4 .74"/></g></g><path d="M483.8 321.43c.23-8.63 4.81-9 4.81-9h20c11.24-1.65 38-5.43 13-77-7.14-20.43-19.35-85.24-34.9-98.29-14-11.76-32-12.32-53.74-13.17-1.18 0-1.75 1-2.33 2.11s-1.18 2.18-2.41 2.12-9-2-14.28-3.4v-1.3h-4.84-.09 0l-11.75.13c-25 1.18-45.45.43-61 13.48S308.52 215 301.39 235.4c-25 71.62 1.81 75.4 13.06 77 .54.08 22.47 1.22 22.47 1.22l-.51 31.57 73.49-1.2 77.71 6.01s-4.05-19.94-3.81-28.57z" fill="#ff9378"/><g clip-path="url(#I)" fill="#df775d"><path d="M413.95 350.51l29.24.12L489 330.45s-12.47-69.11-12.47-91.92a227 227 0 0 0-2.06-25.12c-.32-1.94.28-10.92-.68-11.12-3-.59 0 22.9-15.12 29.46-29.35 12.72-42.66-17.05-45.19-20.7-2.53 3.65-14.27 31.86-46.17 22.56-12.11-3.53-15.91-28.39-15.91-28.39l-4.33 44.22c-2.21 23.8-10 42.65-10.14 60a28.3 28.3 0 0 1-2.46-5.78 27 27 0 0 0-2.46-5.78c0 9.17 12.15 30.13 12.15 30.13l39.35 22.59z"/><path d="M354.82 177.93l-24.28 76.22s-11-3.86-18.64 3c0 0 14.41-2.12 23.34 6.44s13-22.73 13-22.73l5.21-48.62zm132.37-44.64l25.59 124.93s-15.22-4.11-23.79 8.38c-6.49 9.47-20.57 28.75-8.56 41 3.83 3.9 15.7 6.44 24.31 8.54 35.66 8.69 59.8-39.7 59.8-39.7L510.8 129.79z"/><path d="M336.13 260.6s-2.77 38.73-9.56 43.47-25.48 8-35.5-3.68 22.53 30.69 22.53 30.69l40.07-7.1z"/></g><path d="M480.44 268.62s26.29-9.71 35 7.78m-28.25-9.8s10.66-12.57 25.59-8.38" class="AF AG AP AR"/><path d="M432.05 120a21.73 21.73 0 0 1 2.59 9.21c.62 6.23-13.16 10.69-13.16 10.69h-11.53l-12.54-13.28s.11-6.53 2.08-8.86a35.58 35.58 0 0 0 4-8.1c0 0 20.26 14.24 25.14 15.11s3.42-4.77 3.42-4.77z" class="AI"/><path d="M431.05 118.37s18 27.52 16.11 33.18-27.56-10.85-27.56-10.85-21 14.39-26.28 14.39c-3.31 0-.42-10.1 2.45-30.23a31.8 31.8 0 0 1 2.93-5.9c0 0 8.79 14.41 13.28 17.41 6.3 4.2 13.46 3 17.28-4.11a21.11 21.11 0 0 0 1.79-13.89z" class="AM"/><g class="AF AG AP AR"><path d="M472.1 179.19l6.3 84.87m-123.58-86.13l-8.83 86.13m-3.35 4.56s-26.29-9.71-35 7.78"/><path d="M337.5 266.6s-10.67-12.57-25.6-8.38"/></g><rect x="334.05" y="227.91" width="155.11" height="100.66" rx="8.82" fill="#e3e3e3"/><ellipse cx="412.77" cy="277.85" rx="10.72" ry="10.7" class="AM"/><path d="M23.87 337.31h852.8v43.85H23.87z" fill="#d0e6f6"/><path d="M11.34 338.8H889.2v11.16H11.34z" fill="#a1bedb"/><path d="M11.34 313.53H889.2v25.27H11.34z" fill="#d0e6f6"/><path d="M157.77 185.78a32.15 32.15 0 0 1 6.26 6c2.2 3.08 0-4.54 0-4.54l2.3-1.44 4.11 5.05 1.82 5.12 1.88 4.18 4.62 7.09s-8.86-.67-15.37-6.63-5.62-14.83-5.62-14.83z" class="AI"/><path d="M188.54 180.23s-3.37-3.35-5.36 0-3.35 5-2.41 6.36.17 4.63-2 2.67-3.74-4.42.59-11.89c0 0-1-1.38-2.25.68s-3.65 7.18-2.45 10.16-1.74 5.27-3.36 1.83-1.62-10.45.71-12.67a12.35 12.35 0 0 0-3.47 10.27c1.17 5.74-7.46 7.48-3.45-12.31" class="AF AG AK AS"/></svg>