<svg xmlns="http://www.w3.org/2000/svg" xmlns:xlink="http://www.w3.org/1999/xlink" viewBox="0 0 908.07 381.16"><defs><style>.cls-1,.cls-10,.cls-11,.cls-13,.cls-14,.cls-15,.cls-18,.cls-22,.cls-29,.cls-32,.cls-33,.cls-34,.cls-35,.cls-36,.cls-41,.cls-47,.cls-48,.cls-49,.cls-51,.cls-54,.cls-8{fill:none;}.cls-2{fill:#659cff;}.cls-3{clip-path:url(#clip-path);}.cls-4{fill:#4c7fff;}.cls-5{fill:#ffd3c8;}.cls-6{fill:#f1b2a2;}.cls-7{clip-path:url(#clip-path-2);}.cls-11,.cls-13,.cls-32,.cls-33,.cls-34,.cls-35,.cls-36,.cls-37,.cls-49,.cls-8{stroke:#061537;}.cls-10,.cls-14,.cls-16,.cls-32,.cls-33,.cls-36,.cls-37,.cls-47,.cls-48,.cls-49,.cls-50,.cls-8{stroke-linecap:round;}.cls-10,.cls-14,.cls-15,.cls-16,.cls-18,.cls-22,.cls-29,.cls-32,.cls-36,.cls-37,.cls-41,.cls-54,.cls-8{stroke-miterlimit:10;}.cls-10,.cls-14,.cls-15,.cls-16,.cls-18,.cls-8{stroke-width:1.38px;}.cls-9{fill:#061537;}.cls-10,.cls-16,.cls-47,.cls-50{stroke:#9d3f28;}.cls-11,.cls-34{stroke-miterlimit:10;}.cls-11{stroke-width:1.38px;}.cls-12,.cls-16,.cls-37,.cls-50{fill:#fff;}.cls-13,.cls-35{stroke-miterlimit:10;}.cls-13{stroke-width:1.38px;}.cls-14,.cls-15{stroke:#fff;}.cls-17{clip-path:url(#clip-path-3);}.cls-18{stroke:#99776c;}.cls-19{fill:#607385;}.cls-20{fill:#e1e1e1;}.cls-21{fill:#fafafa;}.cls-22{stroke:#e1e1e1;stroke-width:0.12px;}.cls-23{fill:#375a64;}.cls-24{fill:#955454;}.cls-25{clip-path:url(#clip-path-4);}.cls-26{fill:#45aa92;}.cls-27{fill:#56d4b7;}.cls-28{fill:#1a2e35;}.cls-29{stroke:#1a2e35;stroke-width:0.28px;}.cls-30{fill:#4c2603;}.cls-31{clip-path:url(#clip-path-5);}.cls-32{stroke-width:1.44px;}.cls-33{stroke-miterlimit:10;stroke-width:1.44px;}.cls-34{stroke-width:0.72px;}.cls-35{stroke-width:0.72px;}.cls-36,.cls-37,.cls-41{stroke-width:0.72px;}.cls-38{fill:#df775d;}.cls-39{clip-path:url(#clip-path-6);}.cls-40{fill:#4bc5a9;}.cls-41,.cls-54{stroke:#301913;}.cls-42{fill:#7fc1ff;}.cls-43{clip-path:url(#clip-path-7);}.cls-44{fill:#3e6c98;}.cls-45{fill:#c4eaff;}.cls-46{clip-path:url(#clip-path-8);}.cls-47,.cls-48,.cls-49,.cls-50,.cls-51{stroke-miterlimit:10;}.cls-47,.cls-48,.cls-50,.cls-51{stroke-width:1.4px;}.cls-48,.cls-51{stroke:#324a83;}.cls-49{stroke-width:2.34px;}.cls-52{fill:#ff9378;}.cls-53{clip-path:url(#clip-path-9);}.cls-54{stroke-width:1.4px;}.cls-55{fill:#e3e3e3;}.cls-56{fill:#d0e6f6;}.cls-57{fill:#a1bedb;}</style><clipPath id="clip-path" transform="translate(11.34)"><path class="cls-1" d="M150.54,144.66s39.91.85,63.3,24.42S261.6,264,245,281.35s-50.67-39-50.67-39,22.13,40.85,28.84,61.84a132.18,132.18,0,0,1,5,44L91.63,322l3-49.47S83.08,267,79.11,257.74A41,41,0,0,1,77,237.47L25.19,283.69s-2.11-2.21-2-3.35Q36,152.84,115,146.42Z"/></clipPath><clipPath id="clip-path-2" transform="translate(11.34)"><path class="cls-1" d="M99.86,78.18s-20.5,50,10,54.49c0,0,16.1,7.91,14.58,9.09A185.78,185.78,0,0,1,106,147.59s9.38,22.33,34.61,21,30.6-21.74,30.6-21.74-5.57-1-8.09-1.29c-6.76-.77-11-1.48-11-3.76a65.63,65.63,0,0,1,2.69-24.6A171.48,171.48,0,0,1,165.88,96.3s-13-16-23.39-26.25-29.39-3.4-29.39-3.4a48.69,48.69,0,0,0-10.4,4.9A11.71,11.71,0,0,0,99.86,78.18Z"/></clipPath><clipPath id="clip-path-3" transform="translate(11.34)"><path class="cls-1" d="M247.57,279.39c-9.13,12.58-24.64,12.67-48.92-19.73-8.68-11.57-28.4-52.12-28.4-52.12S157.46,207,150,198.61s-7.56-10.18-10.7-11.77,4.78-5.29,10.7,2.11c4.6,5.74,3.79,2.16,2.81-1.4-.27-1,.41-2.08,0-2.88-1.82-3.54-5-8.88-9.09-8.4,0,0-2.33,3.89-4.68,3.78s-1-4.46,1.1-7.82,3.8-3.74,6-2.5a87.72,87.72,0,0,1,7.55,5.6s6.59-5.23,9.71-2.2c0,0,7.94-1.93,9.24,1.45a7.19,7.19,0,0,1,5.57,3.69c1.65,3.41,8.75,18.9,7.94,22.67S267.78,251.54,247.57,279.39Z"/></clipPath><clipPath id="clip-path-4" transform="translate(11.34)"><path class="cls-1" d="M88,197.8s6.38-10.18,7.44-9.43,1.06,5,1.06,5,23.28-10.79,24.46-7.74-19.19,11.45-19.19,13.52,23.06-5.78,28.05-5.32c1.84.17,2.44,1.92,1.3,3.42a13.8,13.8,0,0,1-2.69,1.91s1.38,2.85-2.42,5.06-19.17,7.66-19.17,8.56,14.19-6.09,15.09-4.55-14.79,13-22.89,14.34a89,89,0,0,0-16,3.55c-1.1.69-15.83,61.25-36.15,70.22-18.56,8.21-30.59-11.76-20.29-35.86,7.53-17.63,42.13-45.59,46-50.09A148.45,148.45,0,0,1,88,197.8Z"/></clipPath><clipPath id="clip-path-5" transform="translate(11.34)"><path class="cls-1" d="M674.28,36.91a2.83,2.83,0,0,1,.45,1.55l0,30.43c-3,21.63-12.36,31.8-24.4,30.71l.41,8.78a31.44,31.44,0,0,1,.4,5.73c-.39,3.3-1.85,6.26-2.24,10a18.62,18.62,0,0,1-9.82,13.46,13.45,13.45,0,0,1-6.21-.29c-16.43-4.59-18-27.66-18-27.66s2.69-1.55,3.15-11.16.17-31.93.17-31.93-3.64-1.29-4.42-8.72,2-8.62,4.89-8.49,5.92,6.6,6.44,11.71c4.6,2.55,3-3.17,3.32-9.83s7.74-6.43,9.17-10.56a32.7,32.7,0,0,0,1.18-10.78A44,44,0,0,0,669.19,29Z"/></clipPath><clipPath id="clip-path-6" transform="translate(11.34)"><path class="cls-1" d="M610.75,111.86s-53,9.46-58.37,69.62-13,130.09,13.17,136.66,103.86,2.56,103.86,2.56l39.7-19,69.68-4.4V263.48s-27.84,2.24-31.94-2.2S712.1,144,695,136.39c0,0-12.33-15.94-29.15-19.22-4.29-.84-16-2.33-16-2.33s-4,5-6.72,4.82-7.47-5.9-7.47-5.9Z"/></clipPath><clipPath id="clip-path-7" transform="translate(11.34)"><polygon class="cls-1" points="680.24 316.13 750.63 317.51 778.74 313.97 778.8 309.08 828.08 298.69 788.26 296.53 731.09 297.33 680.24 316.13"/></clipPath><clipPath id="clip-path-8" transform="translate(11.34)"><path class="cls-1" d="M395,91.89a34.27,34.27,0,0,0-.27-15.41c-11.57-2.24-9.59-13.49-5.4-14.22s6.53,5.35,6.53,5.35c.39-11.18,10-.69,18.19-17.63s22.42-6.77,24-1.75,12.69,56.75-18.91,57.06a56,56,0,0,0,.72,13.43c.22.69.91,2.06,1.13,2.74.84,2.72-1.49,6.06-.49,8.67,3.59,9.32,16.1,32.31-.64,40.11s-41.16-19.58-36.06-36.56S393.23,100.49,395,91.89Z"/></clipPath><clipPath id="clip-path-9" transform="translate(11.34)"><path class="cls-1" d="M472.46,321.43c.23-8.63,4.81-9,4.81-9s19.41.12,20,0c11.24-1.65,38-5.43,13-77-7.14-20.43-19.35-85.24-34.9-98.29-14-11.76-32-12.32-53.74-13.17-1.18,0-1.75,1-2.33,2.11s-1.18,2.18-2.41,2.12-9-2-14.28-3.4v-1.3l-4.84,0-.09,0v0c-4.48,0-10.54.07-11.75.13-25,1.18-45.45.43-61,13.48S297.18,215,290.05,235.4c-25,71.62,1.81,75.4,13.06,77,.54.08,22.47,1.22,22.47,1.22l-.51,31.57,73.49-1.2L476.27,350S472.22,330.06,472.46,321.43Z"/></clipPath></defs><g id="Layer_2" data-name="Layer 2"><g id="_9" data-name="9"><g id="body-22"><path id="Mask-328" class="cls-2" d="M150.54,144.66s39.91.85,63.3,24.42S261.6,264,245,281.35s-50.67-39-50.67-39,22.13,40.85,28.84,61.84a132.18,132.18,0,0,1,5,44L91.63,322l3-49.47S83.08,267,79.11,257.74A41,41,0,0,1,77,237.47L25.19,283.69s-2.11-2.21-2-3.35Q36,152.84,115,146.42Z" transform="translate(11.34)"/><g class="cls-3"><g id="body-23"><path id="Path_7" data-name="Path 7" class="cls-4" d="M179.44,225.83s7,22.13-5.13,34.54-44.38,6.19-21.62,12.12,37.83,13.16,20.12,10.1-66.09-2.1-57.46,2.55,47.64.5,52,19c0,0-49.23-2.22-60.94,8S215.18,338,215.18,338l25.18,24.92-6.69-64.63-21.43-46.91Z" transform="translate(11.34)"/><path id="Path_17" data-name="Path 17" class="cls-5" d="M227.68,177.82,189.9,222l54.83,63.3,10.79-36.81Z" transform="translate(11.34)"/><path id="Path_35" data-name="Path 35" class="cls-5" d="M51.91,175.33l25.37,48.58-26.8,36.74-61.82,11.84Z" transform="translate(11.34)"/><path id="Path_38" data-name="Path 38" class="cls-6" d="M196.79,213.71l14-16.12,39.68,69Z" transform="translate(11.34)"/></g></g></g><g id="Head-21"><g id="Path_33-4" data-name="Path 33-4"><path id="Mask-329" class="cls-5" d="M99.86,78.18s-20.5,50,10,54.49c0,0,16.1,7.91,14.58,9.09A185.78,185.78,0,0,1,106,147.59s9.38,22.33,34.61,21,30.6-21.74,30.6-21.74-5.57-1-8.09-1.29c-6.76-.77-11-1.48-11-3.76a65.63,65.63,0,0,1,2.69-24.6A171.48,171.48,0,0,1,165.88,96.3s-13-16-23.39-26.25-29.39-3.4-29.39-3.4a48.69,48.69,0,0,0-10.4,4.9A11.71,11.71,0,0,0,99.86,78.18Z" transform="translate(11.34)"/><g class="cls-7"><g id="Path_33-5" data-name="Path 33-5"><path id="Path_33-6" data-name="Path 33-6" class="cls-6" d="M127.19,132.18a31.11,31.11,0,0,0,13.32-8.35s-3.48,18.56-15.63,17.75S127.19,132.18,127.19,132.18Z" transform="translate(11.34)"/></g></g></g><path id="Path_24-10" data-name="Path 24-10" class="cls-8" d="M128.81,92.92a10.24,10.24,0,0,0-10,0" transform="translate(11.34)"/><path id="Path_25-9" data-name="Path 25-9" class="cls-8" d="M108.83,92.51A8.61,8.61,0,0,0,102,93.64" transform="translate(11.34)"/><path id="Path_8-2" data-name="Path 8-2" class="cls-9" d="M106.48,73.08s14.07,24.79,43.44,22.47c0,0,6.16-3.42,7.47,1.11s-1.21,6.56-5.9,8.37l.6,36.73s4.32,0,11.44-.15a45.91,45.91,0,0,0,11.94-1.7l-1.84-9.1L181,137.6s21.86-10.38,24.94-13.15c0,0-17.9-13.64-24.94-30.78S164.21,46,138.2,43.52,96.14,54.86,92.71,76.25s-6.86,63-17.6,64.79c0,0,25.21.45,27.92.61,2.16.13,3.89-8,3.89-8l3.92,8.38,13.84-.28,2.52-9.58s-27.95.59-27-46.18a22.52,22.52,0,0,0,5.17-6.36A15.32,15.32,0,0,0,106.48,73.08Z" transform="translate(11.34)"/><path id="Path_28-2" data-name="Path 28-2" class="cls-10" d="M112.33,96.71a6.81,6.81,0,0,1-.91,6.84c-2.59,3.4-2.59,7.65,4.52,6.13" transform="translate(11.34)"/><circle id="Oval-32" class="cls-9" cx="133.26" cy="98.32" r="1.38"/><path id="Path_31-11" data-name="Path 31-11" class="cls-11" d="M119.92,98a4.49,4.49,0,0,1,5.33.16" transform="translate(11.34)"/><g id="Rectangle-31"><path class="cls-1" d="M131.56,94.19h-17.9v.43a11.68,11.68,0,0,0,9,11.36h0a11.68,11.68,0,0,0,9-11.36Z" transform="translate(11.34)"/><path class="cls-12" d="M130.14,95.57a10.26,10.26,0,0,1-7.53,9,10.27,10.27,0,0,1-7.53-9h15.06m1.42-1.38h-17.9v.43a11.68,11.68,0,0,0,9,11.36,11.68,11.68,0,0,0,9-11.36Z" transform="translate(11.34)"/></g><g id="Rectangle_Copy_6-2" data-name="Rectangle Copy 6-2"><path class="cls-1" d="M110.91,94.19H93v.43A11.68,11.68,0,0,0,102,106h0a11.68,11.68,0,0,0,9-11.36Z" transform="translate(11.34)"/><path class="cls-12" d="M109.49,95.57a10.27,10.27,0,0,1-7.53,9,10.26,10.26,0,0,1-7.53-9h15.06m1.42-1.38H93v.43A11.68,11.68,0,0,0,102,106a11.68,11.68,0,0,0,9-11.36Z" transform="translate(11.34)"/></g><circle id="Oval_Copy_2-9" data-name="Oval Copy 2-9" class="cls-9" cx="116.74" cy="98.32" r="1.38"/><path id="Path_31_Copy-9" data-name="Path 31 Copy-9" class="cls-13" d="M103.4,97.93a4.48,4.48,0,0,1,5.33.25" transform="translate(11.34)"/><path id="Path_29-2" data-name="Path 29-2" class="cls-14" d="M131.23,94.86l19-.67" transform="translate(11.34)"/><path id="Path_30-2" data-name="Path 30-2" class="cls-15" d="M114,96.36h-3.66" transform="translate(11.34)"/><path id="Path_32-10" data-name="Path 32-10" class="cls-16" d="M115,121.68c3.68.31,7.58-4.79,7.58-4.79a36.45,36.45,0,0,1-7.58,1.69,16.26,16.26,0,0,1-5.74-1.69S111.36,121.37,115,121.68Z" transform="translate(11.34)"/></g><path id="Mask-330" class="cls-5" d="M247.57,279.39c-9.13,12.58-24.64,12.67-48.92-19.73-8.68-11.57-28.4-52.12-28.4-52.12S157.46,207,150,198.61s-7.56-10.18-10.7-11.77,4.78-5.29,10.7,2.11c4.6,5.74,3.79,2.16,2.81-1.4-.27-1,.41-2.08,0-2.88-1.82-3.54-5-8.88-9.09-8.4,0,0-2.33,3.89-4.68,3.78s-1-4.46,1.1-7.82,3.8-3.74,6-2.5a87.72,87.72,0,0,1,7.55,5.6s6.59-5.23,9.71-2.2c0,0,7.94-1.93,9.24,1.45a7.19,7.19,0,0,1,5.57,3.69c1.65,3.41,8.75,18.9,7.94,22.67S267.78,251.54,247.57,279.39Z" transform="translate(11.34)"/><g class="cls-17"><path id="Path_11-3" data-name="Path 11-3" class="cls-6" d="M250.76,270.09S232.07,288.34,204,250.83s-27-45.48-35.39-42.91,7.74,23.16,7.74,23.16l44,68.18,42.56-4.91Z" transform="translate(11.34)"/></g><path id="Path_36" data-name="Path 36" class="cls-18" d="M186.4,201.48s58.29,40.08,64,65.08" transform="translate(11.34)"/><path class="cls-19" d="M96.45,172.31l38-2,2.75,52.11-39,2.05a.76.76,0,0,1-.81-.73l-2.62-49.62A1.71,1.71,0,0,1,96.45,172.31Z" transform="translate(11.34)"/><rect class="cls-20" x="97.4" y="172.47" width="36.84" height="49.62" transform="translate(253.23 388.18) rotate(176.98)"/><rect class="cls-21" x="99.08" y="172.99" width="36.84" height="49.62" transform="translate(256.6 389.13) rotate(176.98)"/><line class="cls-22" x1="147.12" y1="216.91" x2="110.46" y2="218.84"/><line class="cls-22" x1="146.76" y1="214.46" x2="110.1" y2="216.39"/><line class="cls-22" x1="146.63" y1="211.99" x2="109.97" y2="213.93"/><line class="cls-22" x1="146.5" y1="209.53" x2="109.84" y2="211.47"/><line class="cls-22" x1="146.37" y1="207.07" x2="109.71" y2="209"/><line class="cls-22" x1="146.24" y1="204.6" x2="109.58" y2="206.54"/><line class="cls-22" x1="146.11" y1="202.14" x2="109.45" y2="204.07"/><line class="cls-22" x1="145.98" y1="199.67" x2="109.32" y2="201.61"/><line class="cls-22" x1="145.85" y1="197.21" x2="109.19" y2="199.15"/><line class="cls-22" x1="145.72" y1="194.75" x2="109.06" y2="196.68"/><line class="cls-22" x1="145.59" y1="192.28" x2="108.93" y2="194.22"/><line class="cls-22" x1="145.46" y1="189.82" x2="108.8" y2="191.75"/><line class="cls-22" x1="145.33" y1="187.35" x2="108.67" y2="189.29"/><line class="cls-22" x1="145.2" y1="184.89" x2="108.54" y2="186.83"/><line class="cls-22" x1="145.07" y1="182.43" x2="108.41" y2="184.36"/><line class="cls-22" x1="144.94" y1="179.96" x2="108.28" y2="181.9"/><line class="cls-22" x1="144.81" y1="177.5" x2="108.15" y2="179.43"/><line class="cls-22" x1="144.68" y1="175.03" x2="108.02" y2="176.97"/><line class="cls-2" x1="142.65" y1="221.65" x2="140.05" y2="172.27"/><path class="cls-23" d="M133.53,219.18a.74.74,0,0,1,.71-.78.75.75,0,0,1,.08,1.49A.74.74,0,0,1,133.53,219.18Z" transform="translate(11.34)"/><path class="cls-23" d="M133.24,213.69a.75.75,0,1,1,1.49-.08.75.75,0,0,1-1.49.08Z" transform="translate(11.34)"/><path class="cls-23" d="M133,208.19a.75.75,0,1,1,.79.71A.74.74,0,0,1,133,208.19Z" transform="translate(11.34)"/><path class="cls-23" d="M132.66,202.69a.75.75,0,1,1,1.49-.08.74.74,0,0,1-.7.79A.75.75,0,0,1,132.66,202.69Z" transform="translate(11.34)"/><path class="cls-23" d="M132.37,197.19a.76.76,0,0,1,.71-.79.75.75,0,0,1,.78.71.74.74,0,0,1-.7.79A.75.75,0,0,1,132.37,197.19Z" transform="translate(11.34)"/><path class="cls-23" d="M132.08,191.69a.74.74,0,0,1,.71-.78.75.75,0,0,1,.08,1.49A.74.74,0,0,1,132.08,191.69Z" transform="translate(11.34)"/><path class="cls-23" d="M131.79,186.19a.75.75,0,1,1,.78.71A.74.74,0,0,1,131.79,186.19Z" transform="translate(11.34)"/><path class="cls-23" d="M131.5,180.7a.75.75,0,1,1,.78.71A.74.74,0,0,1,131.5,180.7Z" transform="translate(11.34)"/><path class="cls-23" d="M131.21,175.2a.75.75,0,1,1,.78.71A.75.75,0,0,1,131.21,175.2Z" transform="translate(11.34)"/><path class="cls-24" d="M136.79,216.39s0,0,.08,0,.14,0,.24,0a2.28,2.28,0,0,1,.35.11,1.65,1.65,0,0,1,.42.27,1.68,1.68,0,0,1,.38.48,2.15,2.15,0,0,1,.24.66,1.6,1.6,0,0,1,0,.78,1.66,1.66,0,0,1-.45.72,1.93,1.93,0,0,1-.7.44,2.66,2.66,0,0,1-.76.14,3.22,3.22,0,0,1-1.25-.25,4.42,4.42,0,0,1-.75-.4q-.25-.18-.24-.21a1.06,1.06,0,0,1,.29.11c.18.08.44.21.76.32a3.49,3.49,0,0,0,1.18.18,2.29,2.29,0,0,0,.67-.14,1.59,1.59,0,0,0,.61-.39,1.43,1.43,0,0,0,.38-.6,1.48,1.48,0,0,0,0-.66,2.22,2.22,0,0,0-.19-.6,1.82,1.82,0,0,0-.31-.44,1.69,1.69,0,0,0-.36-.27,1.36,1.36,0,0,0-.31-.14l-.21-.07C136.82,216.41,136.79,216.4,136.79,216.39Z" transform="translate(11.34)"/><path class="cls-24" d="M136.5,210.89h.08a1.38,1.38,0,0,1,.59.13,1.37,1.37,0,0,1,.42.26,1.83,1.83,0,0,1,.38.48,2.25,2.25,0,0,1,.24.66,1.73,1.73,0,0,1,0,.78,1.66,1.66,0,0,1-.45.72,1.93,1.93,0,0,1-.7.44,2.36,2.36,0,0,1-.76.14,3.05,3.05,0,0,1-1.25-.25,4.42,4.42,0,0,1-.75-.4c-.17-.11-.25-.19-.24-.2s.11,0,.29.11.44.2.76.31a3.25,3.25,0,0,0,1.18.18,2,2,0,0,0,.67-.14,1.59,1.59,0,0,0,.61-.39,1.43,1.43,0,0,0,.38-.6,1.47,1.47,0,0,0,0-.66,2,2,0,0,0-.19-.59,1.88,1.88,0,0,0-.31-.45,2.11,2.11,0,0,0-.36-.27,2,2,0,0,0-.31-.14l-.21-.07C136.53,210.91,136.5,210.9,136.5,210.89Z" transform="translate(11.34)"/><path class="cls-24" d="M136.21,205.39h.08a1.15,1.15,0,0,1,.24,0,1.7,1.7,0,0,1,.35.11,1.24,1.24,0,0,1,.42.27,1.63,1.63,0,0,1,.38.47,2.36,2.36,0,0,1,.24.66,1.77,1.77,0,0,1,0,.79,1.69,1.69,0,0,1-.45.71,2,2,0,0,1-.71.45,2.24,2.24,0,0,1-.75.13,3.05,3.05,0,0,1-1.25-.25,4.42,4.42,0,0,1-.75-.4c-.17-.11-.25-.19-.24-.2s.11,0,.29.11.44.2.76.31a3.25,3.25,0,0,0,1.18.18,2,2,0,0,0,.67-.14,1.78,1.78,0,0,0,.61-.38,1.56,1.56,0,0,0,.38-.6,1.51,1.51,0,0,0,0-.67,2,2,0,0,0-.19-.59,1.64,1.64,0,0,0-.31-.44,1.76,1.76,0,0,0-.36-.28,2,2,0,0,0-.31-.14l-.21-.07S136.21,205.4,136.21,205.39Z" transform="translate(11.34)"/><path class="cls-24" d="M135.92,199.89H136a1.15,1.15,0,0,1,.24,0,1.7,1.7,0,0,1,.35.11,1.65,1.65,0,0,1,.42.27,1.55,1.55,0,0,1,.38.48,2.19,2.19,0,0,1,.24.65,1.77,1.77,0,0,1,0,.79,1.69,1.69,0,0,1-.45.71,1.79,1.79,0,0,1-.71.45,2.24,2.24,0,0,1-.75.13,3.05,3.05,0,0,1-1.25-.25,4.05,4.05,0,0,1-.75-.4c-.17-.11-.25-.18-.24-.2s.11,0,.29.11.44.2.76.31a3.25,3.25,0,0,0,1.18.18,2.27,2.27,0,0,0,.67-.13,2,2,0,0,0,.61-.39,1.49,1.49,0,0,0,.38-.6,1.51,1.51,0,0,0,0-.67,2.27,2.27,0,0,0-.19-.59,1.64,1.64,0,0,0-.31-.44,1.41,1.41,0,0,0-.36-.27,2.15,2.15,0,0,0-.31-.15l-.21-.07C136,199.92,135.92,199.9,135.92,199.89Z" transform="translate(11.34)"/><path class="cls-24" d="M135.63,194.4s0,0,.08,0a1.15,1.15,0,0,1,.24,0,1.7,1.7,0,0,1,.35.11,1.65,1.65,0,0,1,.42.27,1.68,1.68,0,0,1,.38.48,1.93,1.93,0,0,1,.23.65,1.63,1.63,0,0,1,0,.79,1.78,1.78,0,0,1-.45.72,1.88,1.88,0,0,1-.71.44,2.54,2.54,0,0,1-.75.14,3.22,3.22,0,0,1-1.25-.26,3.53,3.53,0,0,1-.75-.4c-.17-.11-.25-.18-.24-.2a1.06,1.06,0,0,1,.29.11c.18.08.44.2.76.31a3.05,3.05,0,0,0,1.18.18,2.27,2.27,0,0,0,.67-.13,1.81,1.81,0,0,0,.61-.39,1.43,1.43,0,0,0,.38-.6,1.48,1.48,0,0,0,0-.66,2.22,2.22,0,0,0-.19-.6,1.64,1.64,0,0,0-.31-.44,1.41,1.41,0,0,0-.36-.27,2.15,2.15,0,0,0-.31-.15l-.21-.06Z" transform="translate(11.34)"/><path class="cls-24" d="M135.34,188.9s0,0,.08,0,.14,0,.24,0a2.68,2.68,0,0,1,.35.11,1.65,1.65,0,0,1,.42.27,1.68,1.68,0,0,1,.38.48,1.93,1.93,0,0,1,.23.65,1.63,1.63,0,0,1,0,.79,1.66,1.66,0,0,1-.45.72,1.88,1.88,0,0,1-.71.44,2.54,2.54,0,0,1-.75.14,3.22,3.22,0,0,1-1.25-.25,4.05,4.05,0,0,1-.75-.4q-.26-.18-.24-.21a1.06,1.06,0,0,1,.29.11c.18.08.44.21.76.32a3.49,3.49,0,0,0,1.18.18,2.29,2.29,0,0,0,.67-.14,1.67,1.67,0,0,0,.61-.39,1.43,1.43,0,0,0,.38-.6,1.48,1.48,0,0,0,0-.66,2.22,2.22,0,0,0-.19-.6,1.82,1.82,0,0,0-.31-.44,1.69,1.69,0,0,0-.36-.27,1.36,1.36,0,0,0-.31-.14c-.09,0-.17,0-.22-.07Z" transform="translate(11.34)"/><path class="cls-24" d="M135.05,183.4s0,0,.08,0a1,1,0,0,1,.23,0,1.21,1.21,0,0,1,.36.11,1.37,1.37,0,0,1,.42.26,1.83,1.83,0,0,1,.38.48,1.91,1.91,0,0,1,.23.66,1.59,1.59,0,0,1,0,.78,1.66,1.66,0,0,1-.45.72,1.88,1.88,0,0,1-.71.44,2.25,2.25,0,0,1-.75.14,3.05,3.05,0,0,1-1.25-.25,4.05,4.05,0,0,1-.75-.4c-.17-.11-.25-.19-.24-.2s.11,0,.29.11.44.2.76.31a3.25,3.25,0,0,0,1.18.18,2,2,0,0,0,.67-.14,1.67,1.67,0,0,0,.61-.39,1.43,1.43,0,0,0,.38-.6,1.47,1.47,0,0,0,0-.66,2,2,0,0,0-.19-.59,1.88,1.88,0,0,0-.31-.45,1.69,1.69,0,0,0-.36-.27,1.36,1.36,0,0,0-.31-.14c-.09,0-.17,0-.22-.07Z" transform="translate(11.34)"/><path class="cls-24" d="M134.76,177.9s0,0,.08,0a1.06,1.06,0,0,1,.23,0,1.21,1.21,0,0,1,.36.11,1.24,1.24,0,0,1,.42.27,1.63,1.63,0,0,1,.38.47,2.07,2.07,0,0,1,.23.66,1.72,1.72,0,0,1,0,.78,1.66,1.66,0,0,1-.45.72,1.88,1.88,0,0,1-.71.44,2,2,0,0,1-.75.14,3,3,0,0,1-1.25-.25,4.05,4.05,0,0,1-.75-.4c-.17-.11-.25-.19-.24-.2s.11,0,.29.11.44.2.76.31a3.25,3.25,0,0,0,1.18.18,2,2,0,0,0,.67-.14,1.78,1.78,0,0,0,.61-.38,1.52,1.52,0,0,0,.38-.61,1.46,1.46,0,0,0,0-.66,2,2,0,0,0-.19-.59,1.64,1.64,0,0,0-.31-.44,1.76,1.76,0,0,0-.36-.28,2,2,0,0,0-.31-.14l-.22-.07S134.76,177.91,134.76,177.9Z" transform="translate(11.34)"/><path class="cls-24" d="M134.47,172.4s0,0,.08,0a1.11,1.11,0,0,1,.23,0,1.6,1.6,0,0,1,.36.11,1.42,1.42,0,0,1,.42.27,1.63,1.63,0,0,1,.38.47,2.07,2.07,0,0,1,.23.66,1.76,1.76,0,0,1,0,.79,1.69,1.69,0,0,1-.45.71,1.91,1.91,0,0,1-.71.45,2.24,2.24,0,0,1-.75.13,3,3,0,0,1-1.25-.25,4.05,4.05,0,0,1-.75-.4c-.17-.11-.25-.18-.24-.2s.11,0,.29.11a7.64,7.64,0,0,0,.76.31,3.25,3.25,0,0,0,1.18.18,2.27,2.27,0,0,0,.67-.13,2,2,0,0,0,.61-.39,1.49,1.49,0,0,0,.38-.6,1.51,1.51,0,0,0,0-.67,2.72,2.72,0,0,0-.19-.59,1.64,1.64,0,0,0-.31-.44,1.41,1.41,0,0,0-.36-.27,2.15,2.15,0,0,0-.31-.15l-.22-.07S134.47,172.41,134.47,172.4Z" transform="translate(11.34)"/><g id="left_hand_2" data-name="left hand 2"><g id="left_hand-14" data-name="left hand-14"><g id="Path_34" data-name="Path 34"><path id="Mask-331" class="cls-5" d="M88,197.8s6.38-10.18,7.44-9.43,1.06,5,1.06,5,23.28-10.79,24.46-7.74-19.19,11.45-19.19,13.52,23.06-5.78,28.05-5.32c1.84.17,2.44,1.92,1.3,3.42a13.8,13.8,0,0,1-2.69,1.91s1.38,2.85-2.42,5.06-19.17,7.66-19.17,8.56,14.19-6.09,15.09-4.55-14.79,13-22.89,14.34a89,89,0,0,0-16,3.55c-1.1.69-15.83,61.25-36.15,70.22-18.56,8.21-30.59-11.76-20.29-35.86,7.53-17.63,42.13-45.59,46-50.09A148.45,148.45,0,0,1,88,197.8Z" transform="translate(11.34)"/><g class="cls-25"><g id="Path_34-2" data-name="Path 34-2"><path id="Path_34-3" data-name="Path 34-3" class="cls-6" d="M88,197.8l9.27-5.09-1.12-5.81-6.37,3.85Z" transform="translate(11.34)"/><path id="Path_9" data-name="Path 9" class="cls-6" d="M82.82,226.24s-40.93,74.31-63.39,52.64,12.42,25.3,12.42,25.3l33.93-7.61,20.35-60.82Z" transform="translate(11.34)"/></g></g></g><path id="Path_20" data-name="Path 20" class="cls-18" d="M102.69,190.74A82.72,82.72,0,0,0,91.13,196" transform="translate(11.34)"/><path id="Path_21" data-name="Path 21" class="cls-18" d="M128.44,199.16l-24.83,8.31" transform="translate(11.34)"/><path id="Path_37" data-name="Path 37" class="cls-18" d="M22.85,281.21s-4.33-27.84,57.51-77.89" transform="translate(11.34)"/></g></g><path class="cls-26" d="M163.14,211.27l.67-.34a.31.31,0,0,0,.14-.41l-1.18-2.34-.94.47-.94.47,1.17,2.35a.3.3,0,0,0,.41.13Z" transform="translate(11.34)"/><path class="cls-27" d="M161.83,208.65l1.7-.85.29-.15a.14.14,0,0,0,.07-.12l-.18-2.09a.06.06,0,0,0,0,0l-7.26-14.46a.12.12,0,0,0-.16-.06l-.58.3a.09.09,0,0,0-.06.06l-.25.76a.14.14,0,0,0,0,.09l.33.65a.13.13,0,0,0,.07.06l.75.25a.09.09,0,0,1,.06.06l6.14,12.22a.11.11,0,0,1-.05.16l-.15.08a.13.13,0,0,1-.16,0l-.63-1.27a.12.12,0,0,0-.16-.05l-1.6.8-1.59.8a.12.12,0,0,0-.05.16l1.72,3.43a.12.12,0,0,0,.16.06Z" transform="translate(11.34)"/><polygon class="cls-20" points="171.33 205 172.83 204.24 155.06 168.84 153.55 169.59 152.05 170.35 169.83 205.75 171.33 205"/><path class="cls-19" d="M142.22,169.59l1.5-.75L140,164.15a.12.12,0,0,0-.14,0l-.34.17-.33.17a.11.11,0,0,0-.06.13l1.55,5.76Z" transform="translate(11.34)"/><polygon class="cls-28" points="150.63 164.42 150.31 163.79 150.43 163.74 150.2 163.28 150.28 163.24 150.14 162.96 150.17 162.86 150.28 162.89 150.41 163.17 150.49 163.13 150.72 163.59 150.84 163.53 151.15 164.16 150.63 164.42"/><line class="cls-29" x1="160.32" y1="179.32" x2="157.31" y2="180.83"/><line class="cls-29" x1="159.44" y1="177.56" x2="156.43" y2="179.07"/><line class="cls-29" x1="158.55" y1="175.8" x2="155.54" y2="177.31"/><line class="cls-29" x1="157.67" y1="174.04" x2="154.66" y2="175.55"/><line class="cls-29" x1="156.78" y1="172.27" x2="153.77" y2="173.78"/><rect class="cls-19" x="138.96" y="163.18" width="0.33" height="0.5" transform="translate(348.13 247.07) rotate(153.34)"/><g id="boys-2"><g id="HEAD-2"><path id="Path_40" data-name="Path 40" class="cls-30" d="M673.46,65.31s3.08-10.53,4.44-16.23a51.3,51.3,0,0,0-.19-15.45s8.65-11.2,6.33-18.39C677.76-4.3,659.3-4,625,10.05a10.83,10.83,0,0,0-7.23,12.2,16.62,16.62,0,0,0-13.11,11.41c-3.65,10.45,3.13,32.44,7.05,40a89.28,89.28,0,0,0,10.09,14.75Z" transform="translate(11.34)"/><g id="Path_60" data-name="Path 60"><path id="Mask-189" class="cls-5" d="M674.28,36.91a2.83,2.83,0,0,1,.45,1.55l0,30.43c-3,21.63-12.36,31.8-24.4,30.71l.41,8.78a31.44,31.44,0,0,1,.4,5.73c-.39,3.3-1.85,6.26-2.24,10a18.62,18.62,0,0,1-9.82,13.46,13.45,13.45,0,0,1-6.21-.29c-16.43-4.59-18-27.66-18-27.66s2.69-1.55,3.15-11.16.17-31.93.17-31.93-3.64-1.29-4.42-8.72,2-8.62,4.89-8.49,5.92,6.6,6.44,11.71c4.6,2.55,3-3.17,3.32-9.83s7.74-6.43,9.17-10.56a32.7,32.7,0,0,0,1.18-10.78A44,44,0,0,0,669.19,29Z" transform="translate(11.34)"/><g class="cls-31"><g id="Path_60-2" data-name="Path 60-2"><path id="Path_60-3" data-name="Path 60-3" class="cls-6" d="M652.16,99.84s-17.84-2.34-22.32-15.46c0,0,5,23.8,19.77,28.64S652.16,99.84,652.16,99.84Z" transform="translate(11.34)"/></g></g></g><path id="Path_24" data-name="Path 24" class="cls-32" d="M648,48a10.66,10.66,0,0,1,10,0" transform="translate(11.34)"/><path id="Path_25" data-name="Path 25" class="cls-33" d="M668.47,49.52a9.05,9.05,0,0,1,7.19-1.61" transform="translate(11.34)"/><circle id="Oval-2" class="cls-9" cx="666.44" cy="56.54" r="1.43"/><path id="Path_31" data-name="Path 31" class="cls-34" d="M656.62,56.83A4.73,4.73,0,0,0,651,57" transform="translate(11.34)"/><circle id="Oval_Copy_2" data-name="Oval Copy 2" class="cls-9" cx="683.59" cy="56.54" r="1.43"/><path id="Path_31_Copy" data-name="Path 31 Copy" class="cls-35" d="M674.11,56.79a4.73,4.73,0,0,0-5.64.27" transform="translate(11.34)"/><path id="Path_46" data-name="Path 46" class="cls-36" d="M663.06,53.68a26.7,26.7,0,0,0,1.73,9.39c4,7.79,6.86,17.66-8.25,11.66" transform="translate(11.34)"/><path id="Path_32" data-name="Path 32" class="cls-37" d="M661.8,86.58c-3.94.36-8.12-5.71-8.12-5.71a35.61,35.61,0,0,0,8.12,2,16.07,16.07,0,0,0,6.17-2S665.74,86.21,661.8,86.58Z" transform="translate(11.34)"/><ellipse id="Oval-3" class="cls-36" cx="686.45" cy="57.97" rx="8.57" ry="8.59"/><ellipse id="Oval_Copy_3" data-name="Oval Copy 3" class="cls-36" cx="665.01" cy="57.97" rx="8.57" ry="8.59"/><path id="Path_63" data-name="Path 63" class="cls-36" d="M645.1,55.11l-21.43-2.87" transform="translate(11.34)"/><path id="Path_64" data-name="Path 64" class="cls-36" d="M666.54,55.61l-5.72.42" transform="translate(11.34)"/></g><g id="body-2"><path id="Path_331" data-name="Path 331" class="cls-38" d="M584.68,322.22s-1,32,10,36L671,318.86H583Z" transform="translate(11.34)"/><g id="Path_307" data-name="Path 307"><path id="Mask-196" class="cls-27" d="M610.75,111.86s-53,9.46-58.37,69.62-13,130.09,13.17,136.66,103.86,2.56,103.86,2.56l39.7-19,69.68-4.4V263.48s-27.84,2.24-31.94-2.2S712.1,144,695,136.39c0,0-12.33-15.94-29.15-19.22-4.29-.84-16-2.33-16-2.33s-4,5-6.72,4.82-7.47-5.9-7.47-5.9Z" transform="translate(11.34)"/><g class="cls-39"><g id="Path_307-2" data-name="Path 307-2"><path id="Path_307-3" data-name="Path 307-3" class="cls-40" d="M597,133.45a114.4,114.4,0,0,1,32.48,89.19c-4.55,55.49,82,47.88,77.43,9.34L710,300.35,669.73,298V286.89s-30.31-.86-44.36-2.28a292.86,292.86,0,0,1-30.72-5.26s8.66-49.81,11.49-74-1-54.3-1-54.3a62,62,0,0,0-2.9-9.53A55.47,55.47,0,0,0,597,133.45Z" transform="translate(11.34)"/><path id="Path_338" data-name="Path 338" class="cls-40" d="M573.4,126.62S562.09,149,560.12,162.8c-12.32,85.71-6.18,139.23,5.56,144,20.46,8.35,104.67,5.85,104.67,5.85l.6,16.2-129.33,3.52-15.8-127.11,39.86-75.19Z" transform="translate(11.34)"/><rect id="Rectangle-8" class="cls-12" x="669.06" y="286.45" width="12.29" height="34.1"/><path id="Path_327" data-name="Path 327" class="cls-40" d="M695.29,136.39l22.81,8.22,41.57,115.48,53.25-5.19-15.48,53.35L705,300.35l4.46-25.06-2-34.58s-1.87-38.75-4-56.54S695.29,136.39,695.29,136.39Z" transform="translate(11.34)"/></g></g></g><path id="Path_330" data-name="Path 330" class="cls-41" d="M695.29,136.39s12.34,52.89,14.15,165.3" transform="translate(11.34)"/><path id="Path_340" data-name="Path 340" class="cls-41" d="M726.28,260.09c12.39-6.35,20.58,1.19,20.58,1.19s-19.2,2.3-17.35,19.86" transform="translate(11.34)"/><path id="Path_329" data-name="Path 329" class="cls-41" d="M581.34,320.3c25.48,3.18,88.39,0,88.39,0V286.89s-66-2-75.08-7.54c0,0,25.18-128.14,1.46-145.42" transform="translate(11.34)"/><path id="Path_339" data-name="Path 339" class="cls-41" d="M581.34,296c-6.09-13.12,13.31-16.66,13.31-16.66s-.87-3.06-14.45-4.6" transform="translate(11.34)"/><path id="Path_325" data-name="Path 325" class="cls-12" d="M617,105.86a29.15,29.15,0,0,0,14.16,6.78,17.76,17.76,0,0,1,11.86,7s-4.08.28-4.08,8.48a10.1,10.1,0,0,1-6.35,10.19,160.48,160.48,0,0,0-9.72-14.62,140,140,0,0,0-12.27-11.84,8,8,0,0,0,4.51-3.16A8.67,8.67,0,0,1,617,105.86Z" transform="translate(11.34)"/><path id="Path_326" data-name="Path 326" class="cls-12" d="M650.74,108.33s.13,9.34-7.68,11.33a34.63,34.63,0,0,1,9.26,3.9,76.39,76.39,0,0,1,9.15,10.37A41.9,41.9,0,0,0,659,116.64C655.58,107.93,650.74,108.33,650.74,108.33Z" transform="translate(11.34)"/><path id="Path_333" data-name="Path 333" class="cls-12" d="M639.88,122s3-1.39,4.64,2.71c0,0,.45-4.52,3.75-3.53l-.68-2.29a31.27,31.27,0,0,1-5.78.78,12.32,12.32,0,0,1-2.77-.31C635,118.18,639.88,122,639.88,122Z" transform="translate(11.34)"/></g><g id="laptop"><g id="Rectangle-9"><path id="Mask-197" class="cls-42" d="M680.24,316.13l70.39,1.38L778.74,314l.06-4.89,49.28-10.39-39.82-2.16-57.17.8Z" transform="translate(11.34)"/><g class="cls-43"><g id="Rectangle-10"><rect id="Rectangle-11" class="cls-44" x="691.7" y="309.87" width="71.03" height="8.19"/></g></g></g><path id="Path_336" data-name="Path 336" class="cls-44" d="M861.63,305.48h0A7.57,7.57,0,0,1,854.4,313l-103.87,4.55V307.34Z" transform="translate(11.34)"/><path id="Path_334" data-name="Path 334" class="cls-44" d="M780.81,207.88,894,210.22l2.74,2.73-35.52,92.83-113.37,3.8Z" transform="translate(11.34)"/><path id="Path_334_Copy" data-name="Path 334 Copy" class="cls-42" d="M783.54,210.61,896.74,213,864,305.78l-113.38,3.8Z" transform="translate(11.34)"/><ellipse id="Oval-4" class="cls-45" cx="841.28" cy="258.72" rx="7.51" ry="7.5"/></g><g id="right_hand" data-name="right hand"><path id="Path_328" data-name="Path 328" class="cls-5" d="M669.73,313.08s28.56,6.27,37.74-6.25c0,0,9.63-3.24,10.49-4.51s11.6,9.49,15,8.56,4-5.51-3.16-10.09c0,0,10.74,7.4,12.75,7.09s4.49-1.3,3.25-2.81c0,0,3.84.66,3.34-.9S723.2,285,718.88,285a10.17,10.17,0,0,0-9.86-2.23c-5.88,1.8-39.11,13.87-39.11,13.87Z" transform="translate(11.34)"/><path id="Path_341" data-name="Path 341" class="cls-41" d="M732.38,302.73s-12.24-9.25-14.56-9.25a74.35,74.35,0,0,0-12.1,3.94" transform="translate(11.34)"/><path id="Path_342" data-name="Path 342" class="cls-41" d="M746.26,304.53S722.05,286.3,716.44,287a79.62,79.62,0,0,0-12.91,3.3" transform="translate(11.34)"/><path id="Path_343" data-name="Path 343" class="cls-41" d="M718.88,285s-5-2.36-14.72,1.07" transform="translate(11.34)"/></g></g><g id="WOMEN"><path id="Path_349" data-name="Path 349" class="cls-9" d="M424.2,130.42s32.1,5.47,41.18-20.2-18.09-44.31-18.09-44.31,14.55-26.93-8.4-38.8c0,0-11.26-24.19-42.52-16.56S373.75,47.89,358.9,52.18s-33.22,5.41-31.17,27.66c0,0-25.56,14.62-20.47,50.25s64.46,29.71,62.89-.72c0,0,18.25,8.68,24.12-2.6S424.2,130.42,424.2,130.42Z" transform="translate(11.34)"/><g id="Path_354" data-name="Path 354"><path id="Mask-5" class="cls-5" d="M395,91.89a34.27,34.27,0,0,0-.27-15.41c-11.57-2.24-9.59-13.49-5.4-14.22s6.53,5.35,6.53,5.35c.39-11.18,10-.69,18.19-17.63s22.42-6.77,24-1.75,12.69,56.75-18.91,57.06a56,56,0,0,0,.72,13.43c.22.69.91,2.06,1.13,2.74.84,2.72-1.49,6.06-.49,8.67,3.59,9.32,16.1,32.31-.64,40.11s-41.16-19.58-36.06-36.56S393.23,100.49,395,91.89Z" transform="translate(11.34)"/><g class="cls-46"><g id="Path_354-2" data-name="Path 354-2"><path id="Path_354-3" data-name="Path 354-3" class="cls-6" d="M420.78,105.28s-13.63,1.3-20.31-17c0,0-1.5,32.38,17.44,36.41S420.78,105.28,420.78,105.28Z" transform="translate(11.34)"/></g></g></g><path id="Path_350" data-name="Path 350" class="cls-47" d="M428.41,62.37a39.72,39.72,0,0,0,1.46,12.07c1.75,5.28,3.4,8.7-5,7.74" transform="translate(11.34)"/><ellipse id="Oval" class="cls-9" cx="435.6" cy="63.87" rx="1.77" ry="1.76" transform="translate(367.85 496.96) rotate(-87.99)"/><ellipse id="Oval-2-2" data-name="Oval-2" class="cls-48" cx="437.51" cy="64.18" rx="7.24" ry="7.2" transform="translate(369.38 499.18) rotate(-87.99)"/><ellipse id="Oval_Copy_29" data-name="Oval Copy 29" class="cls-48" cx="419.34" cy="65.97" rx="7.24" ry="7.2" transform="translate(350.07 482.75) rotate(-87.99)"/><ellipse id="Oval_Copy_28" data-name="Oval Copy 28" class="cls-9" cx="419.12" cy="65.76" rx="1.77" ry="1.76" transform="translate(350.06 482.32) rotate(-87.99)"/><path id="Path_351" data-name="Path 351" class="cls-49" d="M424,57.57s-8.62-2.63-12.85,3.24" transform="translate(11.34)"/><path id="Path_352" data-name="Path 352" class="cls-49" d="M438.91,55.46a5.55,5.55,0,0,0-5.73.68" transform="translate(11.34)"/><path id="Path_353" data-name="Path 353" class="cls-50" d="M433.52,87a12.83,12.83,0,0,1-15.83.85s4.46,6.91,8.71,6.44S433.52,87,433.52,87Z" transform="translate(11.34)"/><path id="Path_378" data-name="Path 378" class="cls-48" d="M412.2,64.31l-17.72-2.39" transform="translate(11.34)"/><path id="Path_379" data-name="Path 379" class="cls-51" d="M430.41,63.18l-4,.74" transform="translate(11.34)"/><g id="Body"><g id="Combined_Shape" data-name="Combined Shape"><path id="Mask-6" class="cls-52" d="M472.46,321.43c.23-8.63,4.81-9,4.81-9s19.41.12,20,0c11.24-1.65,38-5.43,13-77-7.14-20.43-19.35-85.24-34.9-98.29-14-11.76-32-12.32-53.74-13.17-1.18,0-1.75,1-2.33,2.11s-1.18,2.18-2.41,2.12-9-2-14.28-3.4v-1.3l-4.84,0-.09,0v0c-4.48,0-10.54.07-11.75.13-25,1.18-45.45.43-61,13.48S297.18,215,290.05,235.4c-25,71.62,1.81,75.4,13.06,77,.54.08,22.47,1.22,22.47,1.22l-.51,31.57,73.49-1.2L476.27,350S472.22,330.06,472.46,321.43Z" transform="translate(11.34)"/><g class="cls-53"><g id="Combined_Shape-2" data-name="Combined Shape-2"><path id="Combined_Shape-3" data-name="Combined Shape-3" class="cls-38" d="M402.61,350.51l29.24.12,45.81-20.18s-12.47-69.11-12.47-91.92a227,227,0,0,0-2.06-25.12c-.32-1.94.28-10.92-.68-11.12-3-.59,0,22.9-15.12,29.46-29.35,12.72-42.66-17.05-45.19-20.7-2.53,3.65-14.27,31.86-46.17,22.56-12.11-3.53-15.91-28.39-15.91-28.39s-3.31,33.26-4.33,44.22c-2.21,23.8-10,42.65-10.14,60a28.3,28.3,0,0,1-2.46-5.78,27,27,0,0,0-2.46-5.78c0,9.17,12.15,30.13,12.15,30.13l39.35,22.59Z" transform="translate(11.34)"/><path id="Path_456" data-name="Path 456" class="cls-38" d="M343.48,177.93,319.2,254.15s-11-3.86-18.64,3c0,0,14.41-2.12,23.34,6.44s13-22.73,13-22.73l5.21-48.62Z" transform="translate(11.34)"/><path id="Path_457" data-name="Path 457" class="cls-38" d="M475.85,133.29l25.59,124.93s-15.22-4.11-23.79,8.38c-6.49,9.47-20.57,28.75-8.56,41,3.83,3.9,15.7,6.44,24.31,8.54,35.66,8.69,59.8-39.7,59.8-39.7L499.46,129.79Z" transform="translate(11.34)"/><path id="Path_458" data-name="Path 458" class="cls-38" d="M324.79,260.6s-2.77,38.73-9.56,43.47-25.48,8-35.5-3.68,22.53,30.69,22.53,30.69l40.07-7.1Z" transform="translate(11.34)"/></g></g></g><path id="Path_452" data-name="Path 452" class="cls-54" d="M469.1,268.62s26.29-9.71,35,7.78" transform="translate(11.34)"/><path id="Path_453" data-name="Path 453" class="cls-54" d="M475.85,266.6s10.66-12.57,25.59-8.38" transform="translate(11.34)"/><path id="Path_446" data-name="Path 446" class="cls-5" d="M420.71,120a21.73,21.73,0,0,1,2.59,9.21c.62,6.23-13.16,10.69-13.16,10.69H398.61l-12.54-13.28s.11-6.53,2.08-8.86a35.58,35.58,0,0,0,4-8.1s20.26,14.24,25.14,15.11S420.71,120,420.71,120Z" transform="translate(11.34)"/><path id="Path_445" data-name="Path 445" class="cls-12" d="M419.71,118.37s18,27.52,16.11,33.18-27.56-10.85-27.56-10.85-21,14.39-26.28,14.39c-3.31,0-.42-10.1,2.45-30.23a31.8,31.8,0,0,1,2.93-5.9s8.79,14.41,13.28,17.41c6.3,4.2,13.46,3,17.28-4.11A21.11,21.11,0,0,0,419.71,118.37Z" transform="translate(11.34)"/><path id="Path_451" data-name="Path 451" class="cls-54" d="M460.76,179.19l6.3,84.87" transform="translate(11.34)"/><path id="Path_451_Copy" data-name="Path 451 Copy" class="cls-54" d="M343.48,177.93l-8.83,86.13" transform="translate(11.34)"/><path id="Path_452_Copy" data-name="Path 452 Copy" class="cls-54" d="M331.3,268.62s-26.29-9.71-35,7.78" transform="translate(11.34)"/><path id="Path_453_Copy" data-name="Path 453 Copy" class="cls-54" d="M326.16,266.6s-10.67-12.57-25.6-8.38" transform="translate(11.34)"/></g><g id="laptop-2" data-name="laptop"><rect id="Rectangle" class="cls-55" x="334.05" y="227.91" width="155.11" height="100.66" rx="8.82"/><ellipse id="Oval-3-2" data-name="Oval-3" class="cls-12" cx="412.77" cy="277.85" rx="10.72" ry="10.7"/></g></g><rect id="Rectangle_Copy_28" data-name="Rectangle Copy 28" class="cls-56" x="23.87" y="337.31" width="852.8" height="43.85"/><rect id="Rectangle_Copy_29" data-name="Rectangle Copy 29" class="cls-57" x="11.34" y="338.8" width="877.86" height="11.16"/><rect id="Rectangle_Copy_26" data-name="Rectangle Copy 26" class="cls-56" x="11.34" y="313.53" width="877.86" height="25.27"/><path class="cls-5" d="M146.43,185.78a32.15,32.15,0,0,1,6.26,6c2.2,3.08,0-4.54,0-4.54l2.3-1.44,4.11,5.05,1.82,5.12,1.88,4.18,4.62,7.09s-8.86-.67-15.37-6.63S146.43,185.78,146.43,185.78Z" transform="translate(11.34)"/><path id="Path_10" data-name="Path 10" class="cls-18" d="M177.2,180.23s-3.37-3.35-5.36,0-3.35,5-2.41,6.36.17,4.63-2,2.67-3.74-4.42.59-11.89c0,0-1-1.38-2.25.68s-3.65,7.18-2.45,10.16-1.74,5.27-3.36,1.83-1.62-10.45.71-12.67a12.35,12.35,0,0,0-3.47,10.27c1.17,5.74-7.46,7.48-3.45-12.31" transform="translate(11.34)"/></g></g></svg>