<svg xmlns="http://www.w3.org/2000/svg" viewBox="0 0 35.34 35.34"><defs><style>.cls-1{fill:#3a3a3b;}</style></defs><g id="Layer_2" data-name="Layer 2"><g id="ELEMENTS"><path class="cls-1" d="M34.65,26.43l-7.6-7.6a3.24,3.24,0,0,0-4.57,0L18.34,23l-6-5.95,4.17-4.16a3.24,3.24,0,0,0,0-4.57L8.92.69A2.37,2.37,0,0,0,7.2,0,2.32,2.32,0,0,0,5.53.75,20.56,20.56,0,0,0,34.6,29.81a2.35,2.35,0,0,0,0-3.38Zm-26.22.48A17.14,17.14,0,0,1,7.3,3.82l6.75,6.76-4,4a3.55,3.55,0,0,0-1,1.82,3.31,3.31,0,0,0,.92,3l5.91,5.92a3.47,3.47,0,0,0,1.82,1,3.31,3.31,0,0,0,3-.92l4.08-4.07,6.75,6.76A17.13,17.13,0,0,1,8.43,26.91Z"/></g></g></svg>