<svg xmlns="http://www.w3.org/2000/svg" viewBox="0 0 35.63 35.63"><defs><style>.cls-1{fill:#3a3a3b;}</style></defs><g id="Layer_2" data-name="Layer 2"><g id="ELEMENTS"><path class="cls-1" d="M27.24,6.36a2.09,2.09,0,1,0,2.09,2.09A2.09,2.09,0,0,0,27.24,6.36Z"/><path class="cls-1" d="M18,9a8.78,8.78,0,1,0,8.77,8.77A8.78,8.78,0,0,0,18,9Zm0,14.39a5.62,5.62,0,1,1,5.62-5.62A5.62,5.62,0,0,1,18,23.43Z"/><path class="cls-1" d="M24.92,35.63H10.7A10.71,10.71,0,0,1,0,24.93V10.7A10.71,10.71,0,0,1,10.7,0H24.92A10.71,10.71,0,0,1,35.63,10.7V24.93A10.71,10.71,0,0,1,24.92,35.63ZM10.7,3.35A7.36,7.36,0,0,0,3.35,10.7V24.93a7.35,7.35,0,0,0,7.35,7.34H24.92a7.35,7.35,0,0,0,7.35-7.34V10.7a7.36,7.36,0,0,0-7.35-7.35Z"/></g></g></svg>