<svg xmlns="http://www.w3.org/2000/svg" viewBox="0 0 35.54 35.63"><defs><style>.cls-1,.cls-2{fill:#3a3a3b;}.cls-2{fill-rule:evenodd;}</style></defs><g id="Layer_2" data-name="Layer 2"><g id="ELEMENTS"><path class="cls-1" d="M0,35.63,2.55,26.1a17.65,17.65,0,1,1,7,7Zm10.06-6.14.6.36A14.35,14.35,0,1,0,5.76,25l.37.61L4.7,30.92Z"/><path class="cls-2" d="M24.49,20A3,3,0,0,0,22,19.48c-.66.26-1.07,1.29-1.5,1.81a.63.63,0,0,1-.81.18A11.44,11.44,0,0,1,14,16.59a.71.71,0,0,1,.09-1,3.84,3.84,0,0,0,1-1.68,3.63,3.63,0,0,0-.47-2,4.71,4.71,0,0,0-1.46-2.22,2,2,0,0,0-2.19.33,4.43,4.43,0,0,0-1.53,3.51,5.27,5.27,0,0,0,.13,1.12,9.42,9.42,0,0,0,1.07,2.46c.35.59.72,1.15,1.12,1.7a17.13,17.13,0,0,0,4.84,4.49,14.93,14.93,0,0,0,3,1.44,6.77,6.77,0,0,0,3.52.56A4.26,4.26,0,0,0,26.32,23a2,2,0,0,0,.15-1.2C26.29,20.94,25.16,20.45,24.49,20Z"/></g></g></svg>