<svg xmlns="http://www.w3.org/2000/svg" viewBox="0 0 153.41 153.41" xmlns:v="https://vecta.io/nano"><style><![CDATA[.B{isolation:isolate}.J{mix-blend-mode:multiply}.L{fill:#f1b69a}.M{fill:#d76a40}.N{stroke:#e07e61}.O{stroke-linecap:round}.P{stroke-miterlimit:10}]]></style><defs><clipPath id="A"><circle cx="76.71" cy="76.71" r="76.71" transform="matrix(.707107 -.707107 .707107 .707107 -31.77 76.71)" fill="none"/></clipPath></defs><g class="B"><circle cx="76.71" cy="76.71" r="76.71" transform="matrix(.707107 -.707107 .707107 .707107 -31.77 76.71)" fill="#f4ddd4"/><g clip-path="url(#A)"><path d="M50.92,33.05c.48-1.14-6.24,1-6.82,1.25a14,14,0,0,0-7.33,7.38,26.2,26.2,0,0,0-1.55,10.67c.26,11.14,8.67,25.19.7,35.12-4.12,5.13-11.34,6.4-16.79,10.09-10.37,7-12.47,22.65-6.46,33.64S31,148.69,43.35,150.52s25-.36,37.24-3.12c8.49-1.93,17.17-4.24,24.09-9.53,16.29-12.47,8.7-28.08,1.22-42.68-4.79-9.36,3.8-13.76,7.56-25.38,6.75-20.89-2.92-41.17-21.4-49.18C61.8,7.51,51,32.91,50.92,33.05Z" class="M"/><path d="M136.45 153.41H17s5.58-21.51 13.5-34.25 37-17.08 37-17.08l9.22 1.54 9.21-1.54s29.11 4.33 37 17.08 13.52 34.25 13.52 34.25z" fill="#5b4850"/><g class="L"><path d="M50.09 106.33c14 20 40.46 17.45 53.24 0 0 0-25.65-11.95-53.24 0z"/><path d="M76.48 113.46h0a9.05 9.05 0 0 1-9-9V87.11h18.06v17.3a9.06 9.06 0 0 1-9.06 9.05z"/></g><path d="M85.54,85.11V95.73s-3,5.28-9.06,5.28c-4.83,0-9-4.58-9-4.58V85.11Z" fill="#150a08"/><path d="M51.16 66.52c-4.9-7.43-10.58-2.65-10.58 2.58 0 7.58 8.23 14.11 12.93 8.67s-2.35-11.25-2.35-11.25z" class="L"/><path d="M50.09,70c-3.05-5.69-7.26-.38-5.65,1.73" fill="none" class="N O P"/><path d="M100.06 66.52c4.89-7.43 10.57-2.65 10.57 2.58 0 7.58-8.22 14.11-12.92 8.67s2.35-11.25 2.35-11.25z" class="L"/><path d="M101.13,70c3-5.69,7.25-.38,5.65,1.73" fill="none" class="N O P"/><g class="L"><path d="M75.58 95.73c-19.34 0-30.78-21.15-26.26-42.85 3.73-17.88 48.84-17.88 52.57 0 4.52 21.7-6.95 42.86-26.31 42.85z"/><path class="J" d="M73,74c2,1,6.48-1.15,6.57,0s-2.38,2.18-3.28,2.18S73,74,73,74Z" opacity=".5"/></g><path d="M73.08,68.17c-2.82,6.1,1.4,7.29,2.53,7.43" fill="none" class="N O P"/><path d="M68 51.54c-1.21-2.7-8.29-1.46-9.3.46s2.32 2.46 4.78 2.34 5.25-1.08 4.52-2.8z" class="M"/><g fill="#150a08"><path d="M83.26 51.54c1.21-2.7 8.29-1.46 9.29.46s-2.31 2.46-4.77 2.34-5.29-1.08-4.52-2.8zm-20.42 10.4a1.95 1.95 0 1 0 2-1.94 1.95 1.95 0 0 0-2 1.94zm25.53 0A1.95 1.95 0 1 1 86.43 60a1.94 1.94 0 0 1 1.94 1.94z"/></g><path d="M68.37 78.82c7.4.8 12.35 0 15.86.1 0 0-4.43 6.27-9.65 5s-6.21-5.1-6.21-5.1z" fill="#fff"/><path class="J L" d="M73.48 85.76c2.71 0 6.6-1.4 7.2 0S78 90 75.92 89.77s-5.53-4.02-2.44-4.01z" opacity=".5"/><g class="M"><path d="M62.84 33.81c0 18.22 34.58 27 41.29 22.67s1.48-19.77-16.2-24-25.08-4.1-25.09 1.33z"/><path d="M62.91,33.68c4.42,8.8-7.71,28.24-14.59,27s-6.89-8.9-1.52-17.93S60.82,29.5,62.91,33.68Z"/></g></g></g></svg>