<svg xmlns="http://www.w3.org/2000/svg" viewBox="0 0 153.41 153.41" xmlns:v="https://vecta.io/nano"><style><![CDATA[.B{isolation:isolate}.L{mix-blend-mode:multiply}.N{fill:#f1b69a}.O{fill:#d76a40}.P{stroke-linecap:round}.Q{stroke-miterlimit:10}.R{stroke:#e07e61}]]></style><defs><clipPath id="A"><circle cx="76.71" cy="76.71" r="76.71" fill="none"/></clipPath></defs><g class="B"><circle cx="76.71" cy="76.71" r="76.71" fill="#f4ddd4"/><g clip-path="url(#A)"><path d="M88.63,26.7c-2.9-14.83,13.47-23.84,23.29-13.22s2.5,18.59-7.43,19.57-13.34-6.73-13.34-6.73Z" class="O"/><path d="M81.53,26.12c2.73-8.43,17.24-1.57,20.73,4.08s1.88,13.89,1.88,13.89Z" fill="#5b4852"/><path d="M43.86,63.14c-4.39-30,16.6-40.89,34.86-40.49S105.6,37.58,105.6,37.58,118.67,57,102.67,74.75,43.86,63.14,43.86,63.14Z" class="O"/><path d="M136.45 153.41H17s5.58-21.51 13.5-34.25 37-17.08 37-17.08l9.22 1.54 9.21-1.54s29.11 4.33 37 17.08 13.52 34.25 13.52 34.25z" fill="#d88d48"/><path d="M44.7 108.57c11.24 23.14 45.35 25.31 64 0 .01 0-27.19-17.39-64 0z" fill="#fff"/><path d="M76.48 113.46h0a9.05 9.05 0 0 1-9-9V87.11h18.06v17.3a9.06 9.06 0 0 1-9.06 9.05z" class="N"/><path d="M85.54,85.11V95.73s-3,5.28-9.06,5.28c-4.83,0-9-4.58-9-4.58V85.11Z" fill="#150a08"/><path d="M51.16 66.52c-4.9-7.43-10.58-2.65-10.58 2.58 0 7.58 8.23 14.11 12.93 8.67s-2.35-11.25-2.35-11.25z" class="N"/><path d="M50.09,70c-3.05-5.69-7.26-.38-5.65,1.73" fill="none" class="P Q R"/><path d="M100.06 66.52c4.89-7.43 10.57-2.65 10.57 2.58 0 7.58-8.22 14.11-12.92 8.67s2.35-11.25 2.35-11.25z" class="N"/><path d="M101.13,70c3-5.69,7.25-.38,5.65,1.73" fill="none" class="P Q R"/><g class="N"><path d="M75.58 95.73c-19.34 0-30.78-21.15-26.26-42.85 3.73-17.88 48.84-17.88 52.57 0 4.52 21.7-6.95 42.86-26.31 42.85z"/><path class="L" d="M73,74c2,1,6.48-1.15,6.57,0s-2.38,2.18-3.28,2.18S73,74,73,74Z" opacity=".5"/></g><path d="M73.08,68.17c-2.82,6.1,1.4,7.29,2.53,7.43" fill="none" class="P Q R"/><g class="O"><path d="M68 51.54c-1.21-2.7-8.29-1.46-9.3.46s2.32 2.46 4.78 2.34 5.25-1.08 4.52-2.8zm15.26 0c1.21-2.7 8.29-1.46 9.29.46s-2.31 2.46-4.77 2.34-5.29-1.08-4.52-2.8z"/></g><g fill="#150a08"><path d="M62.84 61.94a1.95 1.95 0 1 0 2-1.94 1.95 1.95 0 0 0-2 1.94zm25.53 0A1.95 1.95 0 1 1 86.43 60a1.94 1.94 0 0 1 1.94 1.94z"/></g><path d="M68.82,79.42c7.46,1.43,13.38.24,15.78-1.68" fill="none" stroke="#150a08" class="P Q"/><path class="L N" d="M73.83 83.1c2.71 0 6.59-1.4 7.19 0s-2.71 4.2-4.76 4-5.53-4.01-2.43-4z" opacity=".5"/><path d="M79.59,34.27c-32.14,10.58-27,40.83-21.11,58.79h0S37.85,63.41,47.08,44.85,79.59,34.27,79.59,34.27Z" class="O"/></g></g></svg>