<svg xmlns="http://www.w3.org/2000/svg" viewBox="0 0 153.41 153.41" xmlns:v="https://vecta.io/nano"><style><![CDATA[.B{isolation:isolate}.K{mix-blend-mode:multiply}.M{fill:#f1b69a}.N{stroke-linecap:round}.O{stroke-miterlimit:10}.P{stroke:#e07e61}]]></style><defs><clipPath id="A"><circle cx="76.71" cy="76.71" r="76.71" transform="matrix(.707107 -.707107 .707107 .707107 -31.77 76.71)" fill="none"/></clipPath></defs><g class="B"><circle cx="76.71" cy="76.71" r="76.71" transform="matrix(.707107 -.707107 .707107 .707107 -31.77 76.71)" fill="#f4ddd4"/><g clip-path="url(#A)"><path d="M67.19,20C39.47,22.54,40,46.39,44.08,63.89A263.61,263.61,0,0,1,49.52,98.2s29.22,5.46,53.35-2c0,0,13-46.25,3.29-63.75S70.92,14.44,67.19,20Z" fill="#5b4852"/><path d="M136.45 153.41H17s5.58-21.51 13.5-34.25 37-17.08 37-17.08l9.22 1.54 9.21-1.54s29.11 4.33 37 17.08 13.52 34.25 13.52 34.25z" fill="#d66572"/><g fill="#fff"><path d="M66.4,102.08l-13.2,2.47s3,14.93,15.11,22.39l8.19-10V106.13Z"/><path d="M86.1,102.08l13.2,2.47s-3,14.93-15.11,22.39L76,116.9V106.13Z"/></g><path d="M76.48 113.46h0a9.05 9.05 0 0 1-9-9V87.11h18.06v17.3a9.06 9.06 0 0 1-9.06 9.05z" class="M"/><path d="M85.54,85.11V95.73s-3,5.28-9.06,5.28c-4.83,0-9-4.58-9-4.58V85.11Z" fill="#150a08"/><path d="M51.16 66.52c-4.9-7.43-10.58-2.65-10.58 2.58 0 7.58 8.23 14.11 12.93 8.67s-2.35-11.25-2.35-11.25z" class="M"/><path d="M50.09,70c-3.05-5.69-7.26-.38-5.65,1.73" fill="none" class="N O P"/><path d="M100.06 66.52c4.89-7.43 10.57-2.65 10.57 2.58 0 7.58-8.22 14.11-12.92 8.67s2.35-11.25 2.35-11.25z" class="M"/><path d="M101.13,70c3-5.69,7.25-.38,5.65,1.73" fill="none" class="N O P"/><g class="M"><path d="M75.58 95.73c-19.34 0-30.78-21.15-26.26-42.85 3.73-17.88 48.84-17.88 52.57 0 4.52 21.7-6.95 42.86-26.31 42.85z"/><path class="K" d="M73,74c2,1,6.48-1.15,6.57,0s-2.38,2.18-3.28,2.18S73,74,73,74Z" opacity=".5"/></g><path d="M73.08,68.17c-2.82,6.1,1.4,7.29,2.53,7.43" fill="none" class="N O P"/><g fill="#150a08"><path d="M68 51.54c-1.21-2.7-8.29-1.46-9.3.46s2.32 2.46 4.78 2.34 5.25-1.08 4.52-2.8zm15.26 0c1.2-2.7 8.29-1.46 9.29.46s-2.31 2.46-4.77 2.34-5.29-1.08-4.52-2.8zm-20.42 10.4a1.95 1.95 0 1 0 2-1.94 1.95 1.95 0 0 0-2 1.94zm25.53 0A1.95 1.95 0 1 1 86.43 60a1.94 1.94 0 0 1 1.94 1.94z"/></g><path d="M68.82,79.42c7.46,1.43,13.38.24,15.78-1.68" fill="none" stroke="#150a08" class="N O"/><path class="K M" d="M73.83 83.1c2.71 0 6.59-1.4 7.19 0s-2.71 4.2-4.76 4-5.53-4.01-2.43-4z" opacity=".5"/><path d="M51.8,38.6c-3.93,4.76-4.88,17.45-4.88,17.45h9L60.36,42V55.37a31.24,31.24,0,0,0,10.15.68l3.19-10.7,4.83,10s6.59,1.81,10.5,0l-1.26-10,4.8,10s7.63,1,11.4-1.1c0,0,3-12.29-9.77-18.7S59.28,29.52,51.8,38.6Z" fill="#5b4852"/></g></g></svg>