<svg xmlns="http://www.w3.org/2000/svg" xmlns:xlink="http://www.w3.org/1999/xlink" viewBox="0 0 153.41 153.41"><defs><style>.cls-1,.cls-11,.cls-13{fill:none;}.cls-2{isolation:isolate;}.cls-3{fill:#f4ddd4;}.cls-4{clip-path:url(#clip-path);}.cls-5{fill:#d76a40;}.cls-6{fill:#5b4852;}.cls-7{fill:#d88d48;}.cls-8{fill:#fff;}.cls-12,.cls-9{fill:#f1b69a;}.cls-10{fill:#150a08;}.cls-11{stroke:#e07e61;}.cls-11,.cls-13{stroke-linecap:round;stroke-miterlimit:10;}.cls-12{mix-blend-mode:multiply;opacity:0.5;}.cls-13{stroke:#150a08;}</style><clipPath id="clip-path"><circle class="cls-1" cx="76.71" cy="76.71" r="76.71"/></clipPath></defs><g class="cls-2"><g id="Layer_2" data-name="Layer 2"><g id="OBJECTS"><circle class="cls-3" cx="76.71" cy="76.71" r="76.71"/><g class="cls-4"><path class="cls-5" d="M88.63,26.7c-2.9-14.83,13.47-23.84,23.29-13.22s2.5,18.59-7.43,19.57-13.34-6.73-13.34-6.73Z"/><path class="cls-6" d="M81.53,26.12c2.73-8.43,17.24-1.57,20.73,4.08s1.88,13.89,1.88,13.89Z"/><path class="cls-5" d="M43.86,63.14c-4.39-30,16.6-40.89,34.86-40.49S105.6,37.58,105.6,37.58,118.67,57,102.67,74.75,43.86,63.14,43.86,63.14Z"/><path class="cls-7" d="M136.45,153.41H17s5.58-21.51,13.5-34.25,37-17.08,37-17.08l9.22,1.54,9.21-1.54s29.11,4.33,37,17.08S136.45,153.41,136.45,153.41Z"/><path class="cls-8" d="M44.7,108.57c11.24,23.14,45.35,25.31,64,0C108.71,108.57,81.51,91.18,44.7,108.57Z"/><path class="cls-9" d="M76.48,113.46h0a9.05,9.05,0,0,1-9-9V87.11H85.54v17.3A9.06,9.06,0,0,1,76.48,113.46Z"/><path class="cls-10" d="M85.54,85.11V95.73s-3,5.28-9.06,5.28c-4.83,0-9-4.58-9-4.58V85.11Z"/><path class="cls-9" d="M51.16,66.52c-4.9-7.43-10.58-2.65-10.58,2.58,0,7.58,8.23,14.11,12.93,8.67S51.16,66.52,51.16,66.52Z"/><path class="cls-11" d="M50.09,70c-3.05-5.69-7.26-.38-5.65,1.73"/><path class="cls-9" d="M100.06,66.52c4.89-7.43,10.57-2.65,10.57,2.58,0,7.58-8.22,14.11-12.92,8.67S100.06,66.52,100.06,66.52Z"/><path class="cls-11" d="M101.13,70c3-5.69,7.25-.38,5.65,1.73"/><path class="cls-9" d="M75.58,95.73c-19.34,0-30.78-21.15-26.26-42.85C53.05,35,98.16,35,101.89,52.88,106.41,74.58,94.94,95.74,75.58,95.73Z"/><path class="cls-12" d="M73,74c2,1,6.48-1.15,6.57,0s-2.38,2.18-3.28,2.18S73,74,73,74Z"/><path class="cls-11" d="M73.08,68.17c-2.82,6.1,1.4,7.29,2.53,7.43"/><path class="cls-5" d="M68,51.54c-1.21-2.7-8.29-1.46-9.3.46s2.32,2.46,4.78,2.34S68.73,53.26,68,51.54Z"/><path class="cls-5" d="M83.26,51.54c1.21-2.7,8.29-1.46,9.29.46s-2.31,2.46-4.77,2.34S82.49,53.26,83.26,51.54Z"/><path class="cls-10" d="M62.84,61.94a1.95,1.95,0,1,0,2-1.94A1.95,1.95,0,0,0,62.84,61.94Z"/><path class="cls-10" d="M88.37,61.94A1.95,1.95,0,1,1,86.43,60,1.94,1.94,0,0,1,88.37,61.94Z"/><path class="cls-13" d="M68.82,79.42c7.46,1.43,13.38.24,15.78-1.68"/><path class="cls-12" d="M73.83,83.1c2.71,0,6.59-1.4,7.19,0s-2.71,4.2-4.76,4S70.73,83.09,73.83,83.1Z"/><path class="cls-5" d="M79.59,34.27c-32.14,10.58-27,40.83-21.11,58.79h0S37.85,63.41,47.08,44.85,79.59,34.27,79.59,34.27Z"/></g></g></g></g></svg>