<svg xmlns="http://www.w3.org/2000/svg" xmlns:xlink="http://www.w3.org/1999/xlink" viewBox="0 0 153.41 159.12"><defs><style>.cls-1,.cls-12,.cls-14{fill:none;}.cls-2{isolation:isolate;}.cls-3{fill:#f4ddd4;}.cls-4{fill:#f4e6e1;}.cls-5{clip-path:url(#clip-path);}.cls-6{fill:#5b4852;}.cls-7{fill:#d66572;}.cls-8{clip-path:url(#clip-path-2);}.cls-9{fill:#e28693;}.cls-10,.cls-13{fill:#f1b69a;}.cls-11{fill:#150a08;}.cls-12{stroke:#e07e61;}.cls-12,.cls-14{stroke-linecap:round;stroke-miterlimit:10;}.cls-13{mix-blend-mode:multiply;opacity:0.5;}.cls-14{stroke:#150a08;}</style><clipPath id="clip-path"><circle class="cls-1" cx="76.71" cy="76.71" r="76.71" transform="translate(-11.55 139.79) rotate(-80.56)"/></clipPath><clipPath id="clip-path-2"><path class="cls-1" d="M143.52,155H9.89s4-22.42,13.24-35.32S66.4,102.08,66.4,102.08l10.31,1.59L87,102.08s34.1,4.7,43.29,17.61S143.52,155,143.52,155Z"/></clipPath></defs><g class="cls-2"><g id="Layer_2" data-name="Layer 2"><g id="OBJECTS"><circle class="cls-3" cx="76.71" cy="76.71" r="76.71" transform="translate(-11.55 139.79) rotate(-80.56)"/><circle class="cls-4" cx="76.71" cy="76.71" r="76.71" transform="translate(-11.55 139.79) rotate(-80.56)"/><g class="cls-5"><path class="cls-6" d="M107.13,63.89c8.15-14.75,5-39.81-12.83-46-18.48-6.46-34.39-1-35.82,8.92,0,0-9.78-2.29-16.26,8.17S40.4,63,50.09,73.65,100.5,75.89,107.13,63.89Z"/><path class="cls-7" d="M143.52,155H9.89s4-22.42,13.24-35.32S66.4,102.08,66.4,102.08l10.31,1.59L87,102.08s34.1,4.7,43.29,17.61S143.52,155,143.52,155Z"/><g class="cls-8"><polygon class="cls-9" points="11.14 110.19 150.09 110.19 150.09 122.31 1.12 122.31 1.12 110.19 11.14 110.19"/><polygon class="cls-9" points="11.14 128.59 150.09 128.59 150.09 140.72 1.12 140.72 1.12 128.59 11.14 128.59"/><polygon class="cls-9" points="11.14 147 150.09 147 150.09 159.12 1.12 159.12 1.12 147 11.14 147"/></g><path class="cls-10" d="M56.73,103.77s6.21,15.43,20.15,15.43,19.21-15.43,19.21-15.43S77.23,96.5,56.73,103.77Z"/><path class="cls-10" d="M76.48,113.46h0a9.05,9.05,0,0,1-9-9V87.11H85.54v17.3A9.06,9.06,0,0,1,76.48,113.46Z"/><path class="cls-11" d="M85.54,85.11V95.73s-3,5.28-9.06,5.28c-4.83,0-9-4.58-9-4.58V85.11Z"/><path class="cls-10" d="M51.16,66.53c-4.9-7.44-10.58-2.66-10.58,2.57,0,7.58,8.23,14.11,12.93,8.67S51.16,66.53,51.16,66.53Z"/><path class="cls-12" d="M50.09,70c-3.05-5.69-7.26-.38-5.65,1.73"/><path class="cls-10" d="M100.06,66.53c4.89-7.44,10.57-2.66,10.57,2.57,0,7.58-8.22,14.11-12.92,8.67S100.06,66.53,100.06,66.53Z"/><path class="cls-12" d="M101.13,70c3-5.69,7.25-.38,5.65,1.73"/><path class="cls-10" d="M75.58,95.73c-19.34,0-30.78-21.15-26.26-42.85C53.05,35,98.16,35,101.89,52.88,106.41,74.58,94.94,95.74,75.58,95.73Z"/><path class="cls-10" d="M83.13,45.54c6.79-12-6.89-20.43-13-16.79s-7.45,7.69-7.24,12.48c0,0-2.37-8.38-7.72-4.51s-3.5,14.62-3.5,14.62l3.5,1.88Z"/><path class="cls-13" d="M73,74c2,1,6.48-1.15,6.57,0s-2.38,2.18-3.28,2.18S73,74,73,74Z"/><path class="cls-12" d="M73.08,68.17c-2.82,6.1,1.4,7.29,2.53,7.43"/><path class="cls-14" d="M68.85,78.92c7.47,1.43,13.39.24,15.78-1.67"/><path class="cls-6" d="M68,51.54c-1.21-2.7-8.29-1.46-9.3.46s2.32,2.46,4.78,2.34S68.73,53.26,68,51.54Z"/><path class="cls-6" d="M83.26,51.54c1.2-2.7,8.29-1.46,9.29.46s-2.31,2.46-4.77,2.34S82.49,53.26,83.26,51.54Z"/><path class="cls-13" d="M73.86,82.6c2.71,0,6.6-1.4,7.2,0s-2.71,4.21-4.76,4S70.77,82.59,73.86,82.6Z"/><path class="cls-11" d="M62.84,61.94a1.95,1.95,0,1,0,2-1.94A1.95,1.95,0,0,0,62.84,61.94Z"/><path class="cls-11" d="M88.37,61.94A1.95,1.95,0,1,1,86.43,60,1.94,1.94,0,0,1,88.37,61.94Z"/><path class="cls-6" d="M62.84,41.23c.71-9.85,14.49-3.37,22.13,4.85,9,9.68,16.08,11.49,22.16,7.14s-1.87-24-20.7-28.32S60.24,34.35,62.84,41.23Z"/><path class="cls-6" d="M62.84,41.23C59.23,34.08,50.09,47.46,48.34,60c-1.05,7.54-2.35-2.35-4.26-4.24S42.46,39,53.2,35.7,62.84,41.23,62.84,41.23Z"/></g></g></g></g></svg>