<svg xmlns="http://www.w3.org/2000/svg" xmlns:xlink="http://www.w3.org/1999/xlink" viewBox="0 0 153.41 155.01"><defs><style>.cls-1,.cls-10,.cls-12{fill:none;}.cls-2{isolation:isolate;}.cls-3{fill:#f4e6e1;}.cls-4{clip-path:url(#clip-path);}.cls-5{fill:#5b4852;}.cls-6{fill:#d88d48;}.cls-7{fill:#fff;}.cls-11,.cls-8{fill:#f1b69a;}.cls-9{fill:#150a08;}.cls-10{stroke:#e07e61;}.cls-10,.cls-12{stroke-linecap:round;stroke-miterlimit:10;}.cls-11{mix-blend-mode:multiply;opacity:0.5;}.cls-12{stroke:#150a08;}</style><clipPath id="clip-path"><circle class="cls-1" cx="76.71" cy="76.71" r="76.71" transform="translate(-11.65 139.64) rotate(-80.46)"/></clipPath></defs><g class="cls-2"><g id="Layer_2" data-name="Layer 2"><g id="OBJECTS"><circle class="cls-3" cx="76.71" cy="76.71" r="76.71" transform="translate(-11.65 139.64) rotate(-80.46)"/><g class="cls-4"><path class="cls-5" d="M105.69,62.7c10.56-19,2.19-29.9-4.56-26.34,0,0-1-11.79-16.5-18.89C66.73,9.25,43.61,15.66,39.1,28,34.94,39.47,42.37,45,42.37,45s-4.6,8.21,3.27,20.5S101,71.21,105.69,62.7Z"/><path class="cls-6" d="M143.52,155H9.89s4-22.42,13.24-35.32S66.4,102.08,66.4,102.08l10.31,1.59L87,102.08s34.1,4.7,43.29,17.61S143.52,155,143.52,155Z"/><path class="cls-7" d="M66.4,102.08l-13.2,2.47s3,14.93,15.11,22.39l8.19-10V106.13Z"/><path class="cls-7" d="M86.1,102.08l13.2,2.47s-3,14.93-15.11,22.39L76,116.9V106.13Z"/><path class="cls-8" d="M76.48,113.46h0a9.05,9.05,0,0,1-9-9V87.11H85.54v17.3A9.06,9.06,0,0,1,76.48,113.46Z"/><path class="cls-9" d="M85.54,85.11V95.73s-3,5.28-9.06,5.28c-4.83,0-9-4.58-9-4.58V85.11Z"/><path class="cls-8" d="M51.16,66.53c-4.9-7.44-10.58-2.66-10.58,2.57,0,7.58,8.23,14.11,12.93,8.67S51.16,66.53,51.16,66.53Z"/><path class="cls-10" d="M50.09,70c-3.05-5.69-7.26-.38-5.65,1.73"/><path class="cls-8" d="M100.06,66.53c4.89-7.44,10.57-2.66,10.57,2.57,0,7.58-8.22,14.11-12.92,8.67S100.06,66.53,100.06,66.53Z"/><path class="cls-10" d="M101.13,70c3-5.69,7.25-.38,5.65,1.73"/><path class="cls-8" d="M75.58,95.73c-19.34,0-30.78-21.15-26.26-42.85C53.05,35,98.16,35,101.89,52.88,106.41,74.58,94.94,95.74,75.58,95.73Z"/><path class="cls-11" d="M73,74c2,1,6.48-1.15,6.57,0s-2.38,2.18-3.28,2.18S73,74,73,74Z"/><path class="cls-10" d="M73.08,68.17c-2.82,6.1,1.4,7.29,2.53,7.43"/><path class="cls-12" d="M68.85,78.92c7.47,1.43,13.39.24,15.78-1.67"/><path class="cls-9" d="M68,51.54c-1.21-2.7-8.29-1.46-9.3.46s2.32,2.46,4.78,2.34S68.73,53.26,68,51.54Z"/><path class="cls-9" d="M83.26,51.54c1.21-2.7,8.29-1.46,9.29.46s-2.31,2.46-4.77,2.34S82.49,53.26,83.26,51.54Z"/><path class="cls-11" d="M73.86,82.6c2.71,0,6.6-1.4,7.2,0s-2.71,4.21-4.76,4S70.77,82.59,73.86,82.6Z"/><path class="cls-9" d="M62.84,61.94a1.95,1.95,0,1,0,2-1.94A1.95,1.95,0,0,0,62.84,61.94Z"/><path class="cls-9" d="M88.37,61.94A1.95,1.95,0,1,1,86.43,60,1.94,1.94,0,0,1,88.37,61.94Z"/><path class="cls-5" d="M92.73,39.47c-5,11.25-16,4.84-16,4.84A24.81,24.81,0,0,1,58.48,50C47.42,48.9,41.65,35.64,55.12,30S99.78,23.66,92.73,39.47Z"/></g></g></g></g></svg>