<svg xmlns="http://www.w3.org/2000/svg" viewBox="0 0 153.41 155.01" xmlns:v="https://vecta.io/nano"><style><![CDATA[.B{isolation:isolate}.K{mix-blend-mode:multiply}.M{fill:#f1b69a}.N{fill:#d88d48}.O{stroke:#e07e61}.P{stroke-linecap:round}.Q{stroke-miterlimit:10}]]></style><defs><clipPath id="A"><circle cx="76.71" cy="76.71" r="76.71" transform="matrix(.164015 -.986458 .986458 .164015 -11.55 139.79)" fill="none"/></clipPath></defs><g class="B"><circle cx="76.71" cy="76.71" r="76.71" transform="matrix(.164015 -.986458 .986458 .164015 -11.55 139.79)" fill="#f4e6e1"/><g clip-path="url(#A)"><path d="M47.85 65.78c-15.9-20.32-2.42-42 9.82-48.9 17.94-10 48.05-7 52 .69 3.41 6.65-2.51 12.62-2.51 12.62s9 2.39 8.67 10.51-10.51 12.13-10.51 12.13 10.48 6.44-8.68 18.76-45.38-1.45-48.79-5.81z" class="N"/><path d="M143.52 155H9.89s4-22.42 13.24-35.32 43.27-17.6 43.27-17.6l10.31 1.59L87 102.08s34.1 4.7 43.29 17.61S143.52 155 143.52 155z" fill="#9fc9c1"/><path d="M109.71,106.42c-1.55,11.4-11.18,18.24-19.61,22.09a31.65,31.65,0,0,1-26.35,0c-8.43-3.86-18.06-10.69-19.62-22.09l5.95-1.11c1.34,9.84,10,15.52,17.16,18.57a24.65,24.65,0,0,0,19.36,0c7.14-3,15.83-8.73,17.16-18.57Z" fill="#79b2a7"/><g class="M"><path d="M103.76 105.31c-1.39 10.25-10.77 16-18.05 18.94a23.42 23.42 0 0 1-17.57 0c-7.28-3-16.66-8.69-18.06-18.94 10.4-3.43 24.76-4.91 25-4.93 1.18-.08 1.83-.09 1.83-.09s.65 0 1.83.09c.26.02 14.62 1.5 25.02 4.93z"/><path d="M76.48 113.46h0a9.05 9.05 0 0 1-9-9V87.11h18.06v17.3a9.06 9.06 0 0 1-9.06 9.05z"/></g><path d="M85.54,85.11V95.73s-3,5.28-9.06,5.28c-4.83,0-9-4.58-9-4.58V85.11Z" fill="#150a08"/><path d="M51.16 66.53c-4.9-7.44-10.58-2.66-10.58 2.57 0 7.58 8.23 14.11 12.93 8.67s-2.35-11.24-2.35-11.24z" class="M"/><path d="M50.09,70c-3.05-5.69-7.26-.38-5.65,1.73" fill="none" class="O P Q"/><path d="M100.06 66.53c4.89-7.44 10.57-2.66 10.57 2.57 0 7.58-8.22 14.11-12.92 8.67s2.35-11.24 2.35-11.24z" class="M"/><path d="M101.13,70c3-5.69,7.25-.38,5.65,1.73" fill="none" class="O P Q"/><g class="M"><path d="M75.58 95.73c-19.34 0-30.78-21.15-26.26-42.85 3.73-17.88 48.84-17.88 52.57 0 4.52 21.7-6.95 42.86-26.31 42.85z"/><path class="K" d="M73,74c2,1,6.48-1.15,6.57,0s-2.38,2.18-3.28,2.18S73,74,73,74Z" opacity=".5"/></g><g fill="none" class="P Q"><path d="M73.08,68.17c-2.82,6.1,1.4,7.29,2.53,7.43" class="O"/><path d="M68.85,78.92c7.47,1.43,13.39.24,15.78-1.67" stroke="#150a08"/></g><g class="N"><path d="M68 51.54c-1.21-2.7-8.29-1.46-9.3.46s2.32 2.46 4.78 2.34 5.25-1.08 4.52-2.8zm15 2.19c1.21-2.7 8.3-1.47 9.3.45s-2.3 2.47-4.81 2.34-5.29-1.07-4.49-2.79z"/></g><path class="K M" d="M73.86 82.6c2.71 0 6.6-1.4 7.2 0s-2.71 4.21-4.76 4-5.53-4.01-2.44-4z" opacity=".5"/><g fill="#150a08"><path d="M62.84 61.94a1.95 1.95 0 1 0 2-1.94 1.95 1.95 0 0 0-2 1.94zm25.53 0A1.95 1.95 0 1 1 86.43 60a1.94 1.94 0 0 1 1.94 1.94z"/></g><path d="M62.4 33.31c-.47 12.38 27.76 19 35.25 17.89s9.74-10.89-2-18.89-33.04-4.5-33.25 1z" class="N"/></g></g></svg>