<svg xmlns="http://www.w3.org/2000/svg" viewBox="0 0 153.41 159.12" xmlns:v="https://vecta.io/nano"><style><![CDATA[.B{isolation:isolate}.M{mix-blend-mode:multiply}.O{fill:#f1b69a}.P{fill:#5b4852}.Q{stroke:#e07e61}.R{stroke-linecap:round}.S{stroke-miterlimit:10}]]></style><defs><clipPath id="A"><circle cx="76.71" cy="76.71" r="76.71" transform="matrix(.164015 -.986458 .986458 .164015 -11.55 139.79)" fill="none"/></clipPath><clipPath id="B"><path d="M143.52 155H9.89s4-22.42 13.24-35.32 43.27-17.6 43.27-17.6l10.31 1.59L87 102.08s34.1 4.7 43.29 17.61S143.52 155 143.52 155z" fill="none"/></clipPath></defs><g class="B"><g transform="matrix(.164015 -.986458 .986458 .164015 -11.55 139.79)"><circle cx="76.71" cy="76.71" r="76.71" fill="#f4ddd4"/><circle cx="76.71" cy="76.71" r="76.71" fill="#f4e6e1"/></g><g clip-path="url(#A)"><path d="M107.13 63.89c8.15-14.75 5-39.81-12.83-46-18.48-6.46-34.39-1-35.82 8.92 0 0-9.78-2.29-16.26 8.17S40.4 63 50.09 73.65s50.41 2.24 57.04-9.76z" class="P"/><path d="M143.52 155H9.89s4-22.42 13.24-35.32 43.27-17.6 43.27-17.6l10.31 1.59L87 102.08s34.1 4.7 43.29 17.61S143.52 155 143.52 155z" fill="#d66572"/><g clip-path="url(#B)" fill="#e28693"><path d="M11.14 110.19h138.95v12.12H1.12v-12.12h10.02zm0 18.4h138.95v12.13H1.12v-12.13h10.02zm0 18.41h138.95v12.12H1.12V147h10.02z"/></g><g class="O"><path d="M56.73 103.77s6.21 15.43 20.15 15.43 19.21-15.43 19.21-15.43-18.86-7.27-39.36 0z"/><path d="M76.48 113.46h0a9.05 9.05 0 0 1-9-9V87.11h18.06v17.3a9.06 9.06 0 0 1-9.06 9.05z"/></g><path d="M85.54,85.11V95.73s-3,5.28-9.06,5.28c-4.83,0-9-4.58-9-4.58V85.11Z" fill="#150a08"/><path d="M51.16 66.53c-4.9-7.44-10.58-2.66-10.58 2.57 0 7.58 8.23 14.11 12.93 8.67s-2.35-11.24-2.35-11.24z" class="O"/><path d="M50.09,70c-3.05-5.69-7.26-.38-5.65,1.73" fill="none" class="Q R S"/><path d="M100.06 66.53c4.89-7.44 10.57-2.66 10.57 2.57 0 7.58-8.22 14.11-12.92 8.67s2.35-11.24 2.35-11.24z" class="O"/><path d="M101.13,70c3-5.69,7.25-.38,5.65,1.73" fill="none" class="Q R S"/><g class="O"><path d="M75.58 95.73c-19.34 0-30.78-21.15-26.26-42.85 3.73-17.88 48.84-17.88 52.57 0 4.52 21.7-6.95 42.86-26.31 42.85z"/><path d="M83.13,45.54c6.79-12-6.89-20.43-13-16.79s-7.45,7.69-7.24,12.48c0,0-2.37-8.38-7.72-4.51s-3.5,14.62-3.5,14.62l3.5,1.88Z"/><path class="M" d="M73,74c2,1,6.48-1.15,6.57,0s-2.38,2.18-3.28,2.18S73,74,73,74Z" opacity=".5"/></g><g fill="none" class="R S"><path d="M73.08,68.17c-2.82,6.1,1.4,7.29,2.53,7.43" class="Q"/><path d="M68.85,78.92c7.47,1.43,13.39.24,15.78-1.67" stroke="#150a08"/></g><g class="P"><path d="M68 51.54c-1.21-2.7-8.29-1.46-9.3.46s2.32 2.46 4.78 2.34 5.25-1.08 4.52-2.8zm15.26 0c1.2-2.7 8.29-1.46 9.29.46s-2.31 2.46-4.77 2.34-5.29-1.08-4.52-2.8z"/></g><path class="M O" d="M73.86 82.6c2.71 0 6.6-1.4 7.2 0s-2.71 4.21-4.76 4-5.53-4.01-2.44-4z" opacity=".5"/><g fill="#150a08"><path d="M62.84 61.94a1.95 1.95 0 1 0 2-1.94 1.95 1.95 0 0 0-2 1.94zm25.53 0A1.95 1.95 0 1 1 86.43 60a1.94 1.94 0 0 1 1.94 1.94z"/></g><g class="P"><path d="M62.84 41.23c.71-9.85 14.49-3.37 22.13 4.85 9 9.68 16.08 11.49 22.16 7.14s-1.87-24-20.7-28.32-26.19 9.45-23.59 16.33z"/><path d="M62.84 41.23c-3.61-7.15-12.75 6.23-14.5 18.77-1.05 7.54-2.35-2.35-4.26-4.24S42.46 39 53.2 35.7s9.64 5.53 9.64 5.53z"/></g></g></g></svg>